G04 #@! TF.GenerationSoftware,KiCad,Pcbnew,7.0.8*
G04 #@! TF.CreationDate,2023-11-24T19:43:22+09:00*
G04 #@! TF.ProjectId,scene46aio,7363656e-6534-4366-9169-6f2e6b696361,rev?*
G04 #@! TF.SameCoordinates,Original*
G04 #@! TF.FileFunction,Soldermask,Top*
G04 #@! TF.FilePolarity,Negative*
%FSLAX46Y46*%
G04 Gerber Fmt 4.6, Leading zero omitted, Abs format (unit mm)*
G04 Created by KiCad (PCBNEW 7.0.8) date 2023-11-24 19:43:22*
%MOMM*%
%LPD*%
G01*
G04 APERTURE LIST*
%ADD10C,2.200000*%
%ADD11C,1.750000*%
%ADD12C,4.000000*%
%ADD13C,2.500000*%
%ADD14R,2.000000X2.000000*%
%ADD15C,2.000000*%
%ADD16C,3.200000*%
%ADD17O,2.500000X1.500000*%
%ADD18O,1.500000X2.500000*%
%ADD19O,2.000000X1.600000*%
%ADD20C,0.800000*%
%ADD21R,1.600000X1.600000*%
%ADD22O,1.600000X1.600000*%
G04 APERTURE END LIST*
D10*
X235743750Y-92868750D03*
X233362500Y-26193750D03*
X183356250Y-26193750D03*
X135731250Y-33337500D03*
X138112500Y-109537500D03*
X197643750Y-102393750D03*
X271462500Y-90487500D03*
X271462500Y-33337500D03*
X16668750Y-92868750D03*
X19050000Y-26193750D03*
X69056250Y-26193750D03*
X116681250Y-33337500D03*
X114300000Y-109537500D03*
X54768750Y-102393750D03*
X-19050000Y-90487500D03*
X-19050000Y-33337500D03*
D11*
X80645000Y-80962500D03*
D12*
X85725000Y-80962500D03*
D11*
X90805000Y-80962500D03*
D13*
X81915000Y-78422500D03*
X88265000Y-75882500D03*
D11*
X42545000Y-90487500D03*
D12*
X47625000Y-90487500D03*
D11*
X52705000Y-90487500D03*
D13*
X43815000Y-87947500D03*
X50165000Y-85407500D03*
D11*
X42545000Y-71437500D03*
D12*
X47625000Y-71437500D03*
D11*
X52705000Y-71437500D03*
D13*
X43815000Y-68897500D03*
X50165000Y-66357500D03*
D14*
X31075000Y-88000000D03*
D15*
X26075000Y-88000000D03*
X28575000Y-88000000D03*
D16*
X34175000Y-95500000D03*
X22975000Y-95500000D03*
D15*
X26075000Y-102500000D03*
X31075000Y-102500000D03*
D11*
X218757500Y-57150000D03*
D12*
X223837500Y-57150000D03*
D11*
X228917500Y-57150000D03*
D13*
X220027500Y-54610000D03*
X226377500Y-52070000D03*
D11*
X218757500Y-76200000D03*
D12*
X223837500Y-76200000D03*
D11*
X228917500Y-76200000D03*
D13*
X220027500Y-73660000D03*
X226377500Y-71120000D03*
D11*
X4445000Y-61912500D03*
D12*
X9525000Y-61912500D03*
D11*
X14605000Y-61912500D03*
D13*
X5715000Y-59372500D03*
X12065000Y-56832500D03*
D17*
X117132500Y-37465000D03*
X117132500Y-40005000D03*
X117132500Y-42545000D03*
X117132500Y-45085000D03*
X117132500Y-47625000D03*
X117132500Y-50165000D03*
X117132500Y-52705000D03*
X117132500Y-55245000D03*
X117132500Y-57785000D03*
D18*
X114092500Y-58285000D03*
X111552500Y-58285000D03*
X109012500Y-58285000D03*
X106472500Y-58285000D03*
X103932500Y-58285000D03*
D17*
X100892500Y-57785000D03*
X100892500Y-55245000D03*
X100892500Y-52705000D03*
X100892500Y-50165000D03*
X100892500Y-47625000D03*
X100892500Y-45085000D03*
X100892500Y-42545000D03*
X100892500Y-40005000D03*
X100892500Y-37465000D03*
D11*
X42545000Y-33337500D03*
D12*
X47625000Y-33337500D03*
D11*
X52705000Y-33337500D03*
D13*
X43815000Y-30797500D03*
X50165000Y-28257500D03*
D11*
X80645000Y-61912500D03*
D12*
X85725000Y-61912500D03*
D11*
X90805000Y-61912500D03*
D13*
X81915000Y-59372500D03*
X88265000Y-56832500D03*
D11*
X161607500Y-80962500D03*
D12*
X166687500Y-80962500D03*
D11*
X171767500Y-80962500D03*
D13*
X162877500Y-78422500D03*
X169227500Y-75882500D03*
D11*
X218757500Y-38100000D03*
D12*
X223837500Y-38100000D03*
D11*
X228917500Y-38100000D03*
D13*
X220027500Y-35560000D03*
X226377500Y-33020000D03*
D11*
X4445000Y-42862500D03*
D12*
X9525000Y-42862500D03*
D11*
X14605000Y-42862500D03*
D13*
X5715000Y-40322500D03*
X12065000Y-37782500D03*
D11*
X199707500Y-90487500D03*
D12*
X204787500Y-90487500D03*
D11*
X209867500Y-90487500D03*
D13*
X200977500Y-87947500D03*
X207327500Y-85407500D03*
D11*
X237807500Y-61912500D03*
D12*
X242887500Y-61912500D03*
D11*
X247967500Y-61912500D03*
D13*
X239077500Y-59372500D03*
X245427500Y-56832500D03*
D11*
X161607500Y-100012500D03*
D12*
X166687500Y-100012500D03*
D11*
X171767500Y-100012500D03*
D13*
X162877500Y-97472500D03*
X169227500Y-94932500D03*
D11*
X237807500Y-80962500D03*
D12*
X242887500Y-80962500D03*
D11*
X247967500Y-80962500D03*
D13*
X239077500Y-78422500D03*
X245427500Y-75882500D03*
D11*
X-14605000Y-80962500D03*
D12*
X-9525000Y-80962500D03*
D11*
X-4445000Y-80962500D03*
D13*
X-13335000Y-78422500D03*
X-6985000Y-75882500D03*
D11*
X-14605000Y-61912500D03*
D12*
X-9525000Y-61912500D03*
D11*
X-4445000Y-61912500D03*
D13*
X-13335000Y-59372500D03*
X-6985000Y-56832500D03*
D11*
X199707500Y-52387500D03*
D12*
X204787500Y-52387500D03*
D11*
X209867500Y-52387500D03*
D13*
X200977500Y-49847500D03*
X207327500Y-47307500D03*
D11*
X4445000Y-80962500D03*
D12*
X9525000Y-80962500D03*
D11*
X14605000Y-80962500D03*
D13*
X5715000Y-78422500D03*
X12065000Y-75882500D03*
D11*
X61595000Y-38100000D03*
D12*
X66675000Y-38100000D03*
D11*
X71755000Y-38100000D03*
D13*
X62865000Y-35560000D03*
X69215000Y-33020000D03*
D11*
X42545000Y-52387500D03*
D12*
X47625000Y-52387500D03*
D11*
X52705000Y-52387500D03*
D13*
X43815000Y-49847500D03*
X50165000Y-47307500D03*
D11*
X256857500Y-80962500D03*
D12*
X261937500Y-80962500D03*
D11*
X267017500Y-80962500D03*
D13*
X258127500Y-78422500D03*
X264477500Y-75882500D03*
D11*
X180657500Y-95250000D03*
D12*
X185737500Y-95250000D03*
D11*
X190817500Y-95250000D03*
D13*
X181927500Y-92710000D03*
X188277500Y-90170000D03*
D11*
X23495000Y-57150000D03*
D12*
X28575000Y-57150000D03*
D11*
X33655000Y-57150000D03*
D13*
X24765000Y-54610000D03*
X31115000Y-52070000D03*
D11*
X180657500Y-57150000D03*
D12*
X185737500Y-57150000D03*
D11*
X190817500Y-57150000D03*
D13*
X181927500Y-54610000D03*
X188277500Y-52070000D03*
D19*
X116243750Y-68975000D03*
X113243750Y-68975000D03*
X109243750Y-68975000D03*
X108143750Y-64375000D03*
D20*
X110843750Y-66675000D03*
X117843750Y-66675000D03*
D11*
X180657500Y-76200000D03*
D12*
X185737500Y-76200000D03*
D11*
X190817500Y-76200000D03*
D13*
X181927500Y-73660000D03*
X188277500Y-71120000D03*
D11*
X23495000Y-38100000D03*
D12*
X28575000Y-38100000D03*
D11*
X33655000Y-38100000D03*
D13*
X24765000Y-35560000D03*
X31115000Y-33020000D03*
D17*
X151520000Y-37465000D03*
X151520000Y-40005000D03*
X151520000Y-42545000D03*
X151520000Y-45085000D03*
X151520000Y-47625000D03*
X151520000Y-50165000D03*
X151520000Y-52705000D03*
X151520000Y-55245000D03*
X151520000Y-57785000D03*
D18*
X148480000Y-58285000D03*
X145940000Y-58285000D03*
X143400000Y-58285000D03*
X140860000Y-58285000D03*
X138320000Y-58285000D03*
D17*
X135280000Y-57785000D03*
X135280000Y-55245000D03*
X135280000Y-52705000D03*
X135280000Y-50165000D03*
X135280000Y-47625000D03*
X135280000Y-45085000D03*
X135280000Y-42545000D03*
X135280000Y-40005000D03*
X135280000Y-37465000D03*
D11*
X161607500Y-61912500D03*
D12*
X166687500Y-61912500D03*
D11*
X171767500Y-61912500D03*
D13*
X162877500Y-59372500D03*
X169227500Y-56832500D03*
D11*
X80645000Y-42862500D03*
D12*
X85725000Y-42862500D03*
D11*
X90805000Y-42862500D03*
D13*
X81915000Y-40322500D03*
X88265000Y-37782500D03*
D11*
X61595000Y-95250000D03*
D12*
X66675000Y-95250000D03*
D11*
X71755000Y-95250000D03*
D13*
X62865000Y-92710000D03*
X69215000Y-90170000D03*
D11*
X199707500Y-71437500D03*
D12*
X204787500Y-71437500D03*
D11*
X209867500Y-71437500D03*
D13*
X200977500Y-68897500D03*
X207327500Y-66357500D03*
D11*
X256857500Y-42862500D03*
D12*
X261937500Y-42862500D03*
D11*
X267017500Y-42862500D03*
D13*
X258127500Y-40322500D03*
X264477500Y-37782500D03*
D11*
X161607500Y-42862500D03*
D12*
X166687500Y-42862500D03*
D11*
X171767500Y-42862500D03*
D13*
X162877500Y-40322500D03*
X169227500Y-37782500D03*
D11*
X61595000Y-76200000D03*
D12*
X66675000Y-76200000D03*
D11*
X71755000Y-76200000D03*
D13*
X62865000Y-73660000D03*
X69215000Y-71120000D03*
D11*
X23495000Y-76200000D03*
D12*
X28575000Y-76200000D03*
D11*
X33655000Y-76200000D03*
D13*
X24765000Y-73660000D03*
X31115000Y-71120000D03*
D11*
X142557500Y-100012500D03*
D12*
X147637500Y-100012500D03*
D11*
X152717500Y-100012500D03*
D13*
X143827500Y-97472500D03*
X150177500Y-94932500D03*
D11*
X142557500Y-80962500D03*
D12*
X147637500Y-80962500D03*
D11*
X152717500Y-80962500D03*
D13*
X143827500Y-78422500D03*
X150177500Y-75882500D03*
D14*
X226337500Y-88000000D03*
D15*
X221337500Y-88000000D03*
X223837500Y-88000000D03*
D16*
X229437500Y-95500000D03*
X218237500Y-95500000D03*
D15*
X221337500Y-102500000D03*
X226337500Y-102500000D03*
D11*
X256857500Y-61912500D03*
D12*
X261937500Y-61912500D03*
D11*
X267017500Y-61912500D03*
D13*
X258127500Y-59372500D03*
X264477500Y-56832500D03*
D11*
X199707500Y-33337500D03*
D12*
X204787500Y-33337500D03*
D11*
X209867500Y-33337500D03*
D13*
X200977500Y-30797500D03*
X207327500Y-28257500D03*
D11*
X80645000Y-100012500D03*
D12*
X85725000Y-100012500D03*
D11*
X90805000Y-100012500D03*
D13*
X81915000Y-97472500D03*
X88265000Y-94932500D03*
D11*
X99695000Y-100012500D03*
D12*
X104775000Y-100012500D03*
D11*
X109855000Y-100012500D03*
D13*
X100965000Y-97472500D03*
X107315000Y-94932500D03*
D11*
X-14605000Y-42862500D03*
D12*
X-9525000Y-42862500D03*
D11*
X-4445000Y-42862500D03*
D13*
X-13335000Y-40322500D03*
X-6985000Y-37782500D03*
D11*
X99695000Y-80962500D03*
D12*
X104775000Y-80962500D03*
D11*
X109855000Y-80962500D03*
D13*
X100965000Y-78422500D03*
X107315000Y-75882500D03*
D11*
X180657500Y-38100000D03*
D12*
X185737500Y-38100000D03*
D11*
X190817500Y-38100000D03*
D13*
X181927500Y-35560000D03*
X188277500Y-33020000D03*
D11*
X237807500Y-42862500D03*
D12*
X242887500Y-42862500D03*
D11*
X247967500Y-42862500D03*
D13*
X239077500Y-40322500D03*
X245427500Y-37782500D03*
D11*
X61595000Y-57150000D03*
D12*
X66675000Y-57150000D03*
D11*
X71755000Y-57150000D03*
D13*
X62865000Y-54610000D03*
X69215000Y-52070000D03*
D21*
X176212500Y-79057500D03*
D22*
X176212500Y-71437500D03*
D21*
X195262500Y-55245000D03*
D22*
X195262500Y-47625000D03*
D21*
X76200000Y-60007500D03*
D22*
X76200000Y-52387500D03*
D21*
X138112500Y-102870000D03*
D22*
X138112500Y-95250000D03*
D21*
X57150000Y-55245000D03*
D22*
X57150000Y-47625000D03*
D21*
X214312500Y-98107500D03*
D22*
X214312500Y-90487500D03*
D21*
X38100000Y-40957500D03*
D22*
X38100000Y-33337500D03*
D21*
X95250000Y-102870000D03*
D22*
X95250000Y-95250000D03*
D21*
X38100000Y-79057500D03*
D22*
X38100000Y-71437500D03*
D21*
X214312500Y-79057500D03*
D22*
X214312500Y-71437500D03*
D21*
X57150000Y-93345000D03*
D22*
X57150000Y-85725000D03*
D21*
X57150000Y-74295000D03*
D22*
X57150000Y-66675000D03*
D21*
X252412500Y-64770000D03*
D22*
X252412500Y-57150000D03*
D21*
X176212500Y-40957500D03*
D22*
X176212500Y-33337500D03*
D21*
X157162500Y-102870000D03*
D22*
X157162500Y-95250000D03*
D21*
X176212500Y-60007500D03*
D22*
X176212500Y-52387500D03*
D19*
X136168750Y-64375000D03*
X139168750Y-64375000D03*
X143168750Y-64375000D03*
X144268750Y-68975000D03*
D20*
X134568750Y-66675000D03*
X141568750Y-66675000D03*
D21*
X176212500Y-98107500D03*
D22*
X176212500Y-90487500D03*
D21*
X214312500Y-60007500D03*
D22*
X214312500Y-52387500D03*
D21*
X114300000Y-83820000D03*
D22*
X114300000Y-76200000D03*
D21*
X76200000Y-40957500D03*
D22*
X76200000Y-33337500D03*
D21*
X57150000Y-36195000D03*
D22*
X57150000Y-28575000D03*
D21*
X114300000Y-102870000D03*
D22*
X114300000Y-95250000D03*
D21*
X252412500Y-83820000D03*
D22*
X252412500Y-76200000D03*
D21*
X38100000Y-60007500D03*
D22*
X38100000Y-52387500D03*
D21*
X233362500Y-83820000D03*
D22*
X233362500Y-76200000D03*
D21*
X38100000Y-90487500D03*
D22*
X38100000Y-98107500D03*
D21*
X138112500Y-83820000D03*
D22*
X138112500Y-76200000D03*
D21*
X0Y-45720000D03*
D22*
X0Y-38100000D03*
D21*
X157162500Y-45720000D03*
D22*
X157162500Y-38100000D03*
D21*
X0Y-64770000D03*
D22*
X0Y-57150000D03*
D21*
X95250000Y-83820000D03*
D22*
X95250000Y-76200000D03*
D21*
X95250000Y-45720000D03*
D22*
X95250000Y-38100000D03*
D21*
X76200000Y-79057500D03*
D22*
X76200000Y-71437500D03*
D21*
X19050000Y-83820000D03*
D22*
X19050000Y-76200000D03*
D21*
X157162500Y-83820000D03*
D22*
X157162500Y-76200000D03*
D21*
X252412500Y-45720000D03*
D22*
X252412500Y-38100000D03*
D21*
X19050000Y-45720000D03*
D22*
X19050000Y-38100000D03*
D21*
X0Y-83820000D03*
D22*
X0Y-76200000D03*
D21*
X233362500Y-64770000D03*
D22*
X233362500Y-57150000D03*
D21*
X195262500Y-74295000D03*
D22*
X195262500Y-66675000D03*
D21*
X19050000Y-64770000D03*
D22*
X19050000Y-57150000D03*
D21*
X195262500Y-93345000D03*
D22*
X195262500Y-85725000D03*
D21*
X76200000Y-98107500D03*
D22*
X76200000Y-90487500D03*
D21*
X95250000Y-64770000D03*
D22*
X95250000Y-57150000D03*
D21*
X195262500Y-36195000D03*
D22*
X195262500Y-28575000D03*
D21*
X157162500Y-64770000D03*
D22*
X157162500Y-57150000D03*
D21*
X214312500Y-40957500D03*
D22*
X214312500Y-33337500D03*
D21*
X233362500Y-45720000D03*
D22*
X233362500Y-38100000D03*
M02*
