G04 #@! TF.GenerationSoftware,KiCad,Pcbnew,7.0.8*
G04 #@! TF.CreationDate,2023-11-24T19:43:22+09:00*
G04 #@! TF.ProjectId,scene46aio,7363656e-6534-4366-9169-6f2e6b696361,rev?*
G04 #@! TF.SameCoordinates,Original*
G04 #@! TF.FileFunction,Profile,NP*
%FSLAX46Y46*%
G04 Gerber Fmt 4.6, Leading zero omitted, Abs format (unit mm)*
G04 Created by KiCad (PCBNEW 7.0.8) date 2023-11-24 19:43:22*
%MOMM*%
%LPD*%
G01*
G04 APERTURE LIST*
G04 #@! TA.AperFunction,Profile*
%ADD10C,0.100000*%
G04 #@! TD*
G04 #@! TA.AperFunction,Profile*
%ADD11C,0.200000*%
G04 #@! TD*
G04 APERTURE END LIST*
D10*
X130968750Y-95250000D02*
X130968750Y-109537500D01*
X121443750Y-95250000D02*
X121443750Y-109537500D01*
X121443750Y-69056250D02*
X121443750Y-90487500D01*
X130968750Y-69056250D02*
X130968750Y-90487500D01*
X130968750Y-52387500D02*
X130968750Y-64293750D01*
X121443750Y-52387500D02*
X121443750Y-64293750D01*
X121443750Y-95250000D02*
X130968750Y-95250000D01*
X121443750Y-90487500D02*
X130968750Y-90487500D01*
X130968750Y-69056250D02*
X121443750Y-69056250D01*
X121443750Y-64293750D02*
X130968750Y-64293750D01*
X121443750Y-52387500D02*
X130968750Y-52387500D01*
X121443750Y-47625000D02*
X130968750Y-47625000D01*
D11*
X169068750Y-28575000D02*
X135731250Y-28575000D01*
X171450000Y-26193750D02*
G75*
G03*
X169068750Y-28575000I0J-2381250D01*
G01*
X171450000Y-26193750D02*
X178593750Y-26193750D01*
X183356250Y-21431250D02*
G75*
G03*
X178593750Y-26193750I0J-4762500D01*
G01*
X183356249Y-21431251D02*
X233362499Y-21431251D01*
X238124999Y-28575001D02*
X238124999Y-26193751D01*
X238124999Y-26193751D02*
G75*
G03*
X233362499Y-21431251I-4762500J0D01*
G01*
X238124999Y-28575001D02*
X271462499Y-28575001D01*
X276224999Y-33337501D02*
G75*
G03*
X271462499Y-28575001I-4762500J0D01*
G01*
X276225000Y-33337500D02*
X276225000Y-90487500D01*
X273592355Y-94747209D02*
G75*
G03*
X276225000Y-90487500I-2129855J4259709D01*
G01*
X273592355Y-94747209D02*
X232859709Y-108531919D01*
X228600000Y-109537500D02*
G75*
G03*
X232859709Y-108531919I-6J9525023D01*
G01*
X228600000Y-109537500D02*
X183356250Y-109537500D01*
X176212499Y-116681249D02*
G75*
G03*
X183356249Y-109537499I0J7143750D01*
G01*
X176212500Y-116681250D02*
X138112500Y-116681250D01*
X130968750Y-109537500D02*
G75*
G03*
X138112500Y-116681250I7143750J0D01*
G01*
X130968750Y-33337500D02*
X130968750Y-47625000D01*
X135731250Y-28575000D02*
G75*
G03*
X130968750Y-33337500I0J-4762500D01*
G01*
X19552791Y-108531919D02*
X-21179855Y-94747209D01*
X19552791Y-108531919D02*
G75*
G03*
X23812500Y-109537500I4259710J8519417D01*
G01*
X-23812499Y-90487500D02*
G75*
G03*
X-21179855Y-94747208I4762499J0D01*
G01*
X69056250Y-109537500D02*
X23812500Y-109537500D01*
X114300000Y-116681250D02*
X76200000Y-116681250D01*
X69056250Y-109537500D02*
G75*
G03*
X76200000Y-116681250I7143749J-1D01*
G01*
X114300000Y-116681250D02*
G75*
G03*
X121443750Y-109537500I1J7143749D01*
G01*
X121443750Y-33337500D02*
X121443750Y-47625000D01*
X83343750Y-28575000D02*
G75*
G03*
X80962500Y-26193750I-2381249J1D01*
G01*
X116681250Y-28575000D02*
X83343750Y-28575000D01*
X121443750Y-33337500D02*
G75*
G03*
X116681250Y-28575000I-4762499J1D01*
G01*
X73818750Y-26193750D02*
X80962500Y-26193750D01*
X73818750Y-26193750D02*
G75*
G03*
X69056250Y-21431250I-4762499J1D01*
G01*
X19050000Y-21431250D02*
X69056250Y-21431250D01*
X14287500Y-28575000D02*
X14287500Y-26193750D01*
X-19050000Y-28575000D02*
X14287500Y-28575000D01*
X19050000Y-21431250D02*
G75*
G03*
X14287500Y-26193750I-1J-4762499D01*
G01*
X-23812500Y-33337500D02*
X-23812500Y-90487500D01*
X-19050000Y-28575000D02*
G75*
G03*
X-23812500Y-33337500I-1J-4762499D01*
G01*
M02*
