M48
; DRILL file {KiCad 7.0.8} date Fri Nov 24 19:41:17 2023
; FORMAT={-:-/ absolute / metric / decimal}
; #@! TF.CreationDate,2023-11-24T19:41:17+09:00
; #@! TF.GenerationSoftware,Kicad,Pcbnew,7.0.8
; #@! TF.FileFunction,Plated,1,2,PTH
FMAT,2
METRIC
; #@! TA.AperFunction,Plated,PTH,ViaDrill
T1C0.400
; #@! TA.AperFunction,Plated,PTH,ComponentDrill
T2C0.800
; #@! TA.AperFunction,Plated,PTH,ComponentDrill
T3C0.900
; #@! TA.AperFunction,Plated,PTH,ComponentDrill
T4C1.000
; #@! TA.AperFunction,Plated,PTH,ComponentDrill
T5C1.500
; #@! TA.AperFunction,Plated,PTH,ComponentDrill
T6C2.600
%
G90
G05
T1
X71.22Y-79.92
X71.927Y-80.627
X72.64Y-81.34
X80.62Y-74.5
X80.72Y-73.31
X80.81Y-75.59
X95.69Y-68.7
X95.73Y-67.61
X95.73Y-70.08
X99.3Y-66.61
X155.71Y-69.94
X156.19Y-66.61
X157.14Y-68.75
X164.31Y-65.52
X164.36Y-66.66
X164.41Y-67.75
X181.203Y-80.61
X181.203Y-81.85
X181.203Y-83.08
T2
X0.0Y-38.1
X0.0Y-45.72
X0.0Y-57.15
X0.0Y-64.77
X0.0Y-76.2
X0.0Y-83.82
X19.05Y-38.1
X19.05Y-45.72
X19.05Y-57.15
X19.05Y-64.77
X19.05Y-76.2
X19.05Y-83.82
X38.1Y-33.337
X38.1Y-40.957
X38.1Y-52.387
X38.1Y-60.008
X38.1Y-71.438
X38.1Y-79.057
X38.1Y-90.487
X38.1Y-98.108
X57.15Y-28.575
X57.15Y-36.195
X57.15Y-47.625
X57.15Y-55.245
X57.15Y-66.675
X57.15Y-74.295
X57.15Y-85.725
X57.15Y-93.345
X76.2Y-33.337
X76.2Y-40.957
X76.2Y-52.387
X76.2Y-60.008
X76.2Y-71.438
X76.2Y-79.057
X76.2Y-90.487
X76.2Y-98.108
X95.25Y-38.1
X95.25Y-45.72
X95.25Y-57.15
X95.25Y-64.77
X95.25Y-76.2
X95.25Y-83.82
X95.25Y-95.25
X95.25Y-102.87
X114.3Y-76.2
X114.3Y-83.82
X114.3Y-95.25
X114.3Y-102.87
X138.112Y-76.2
X138.112Y-83.82
X138.112Y-95.25
X138.112Y-102.87
X157.162Y-38.1
X157.162Y-45.72
X157.162Y-57.15
X157.162Y-64.77
X157.162Y-76.2
X157.162Y-83.82
X157.162Y-95.25
X157.162Y-102.87
X176.213Y-33.337
X176.213Y-40.957
X176.213Y-52.387
X176.213Y-60.008
X176.213Y-71.438
X176.213Y-79.057
X176.213Y-90.487
X176.213Y-98.108
X195.262Y-28.575
X195.262Y-36.195
X195.262Y-47.625
X195.262Y-55.245
X195.262Y-66.675
X195.262Y-74.295
X195.262Y-85.725
X195.262Y-93.345
X214.312Y-33.337
X214.312Y-40.957
X214.312Y-52.387
X214.312Y-60.008
X214.312Y-71.438
X214.312Y-79.057
X214.312Y-90.487
X214.312Y-98.108
X233.362Y-38.1
X233.362Y-45.72
X233.362Y-57.15
X233.362Y-64.77
X233.362Y-76.2
X233.362Y-83.82
X252.412Y-38.1
X252.412Y-45.72
X252.412Y-57.15
X252.412Y-64.77
X252.412Y-76.2
X252.412Y-83.82
T4
X26.075Y-88.0
X26.075Y-102.5
X28.575Y-88.0
X31.075Y-88.0
X31.075Y-102.5
X101.392Y-37.465
X101.392Y-40.005
X101.392Y-42.545
X101.392Y-45.085
X101.392Y-47.625
X101.392Y-50.165
X101.392Y-52.705
X101.392Y-55.245
X101.392Y-57.785
X103.932Y-57.785
X106.472Y-57.785
X109.012Y-57.785
X111.552Y-57.785
X114.093Y-57.785
X116.632Y-37.465
X116.632Y-40.005
X116.632Y-42.545
X116.632Y-45.085
X116.632Y-47.625
X116.632Y-50.165
X116.632Y-52.705
X116.632Y-55.245
X116.632Y-57.785
X135.78Y-37.465
X135.78Y-40.005
X135.78Y-42.545
X135.78Y-45.085
X135.78Y-47.625
X135.78Y-50.165
X135.78Y-52.705
X135.78Y-55.245
X135.78Y-57.785
X138.32Y-57.785
X140.86Y-57.785
X143.4Y-57.785
X145.94Y-57.785
X148.48Y-57.785
X151.02Y-37.465
X151.02Y-40.005
X151.02Y-42.545
X151.02Y-45.085
X151.02Y-47.625
X151.02Y-50.165
X151.02Y-52.705
X151.02Y-55.245
X151.02Y-57.785
X221.337Y-88.0
X221.337Y-102.5
X223.837Y-88.0
X226.337Y-88.0
X226.337Y-102.5
T5
X-13.335Y-40.322
X-13.335Y-59.372
X-13.335Y-78.422
X-6.985Y-37.782
X-6.985Y-56.832
X-6.985Y-75.882
X5.715Y-40.322
X5.715Y-59.372
X5.715Y-78.422
X12.065Y-37.782
X12.065Y-56.832
X12.065Y-75.882
X24.765Y-35.56
X24.765Y-54.61
X24.765Y-73.66
X31.115Y-33.02
X31.115Y-52.07
X31.115Y-71.12
X43.815Y-30.797
X43.815Y-49.847
X43.815Y-68.897
X43.815Y-87.947
X50.165Y-28.258
X50.165Y-47.307
X50.165Y-66.358
X50.165Y-85.407
X62.865Y-35.56
X62.865Y-54.61
X62.865Y-73.66
X62.865Y-92.71
X69.215Y-33.02
X69.215Y-52.07
X69.215Y-71.12
X69.215Y-90.17
X81.915Y-40.322
X81.915Y-59.372
X81.915Y-78.422
X81.915Y-97.472
X88.265Y-37.782
X88.265Y-56.832
X88.265Y-75.882
X88.265Y-94.932
X100.965Y-78.422
X100.965Y-97.472
X107.315Y-75.882
X107.315Y-94.932
X143.827Y-78.422
X143.827Y-97.472
X150.177Y-75.882
X150.177Y-94.932
X162.877Y-40.322
X162.877Y-59.372
X162.877Y-78.422
X162.877Y-97.472
X169.227Y-37.782
X169.227Y-56.832
X169.227Y-75.882
X169.227Y-94.932
X181.927Y-35.56
X181.927Y-54.61
X181.927Y-73.66
X181.927Y-92.71
X188.278Y-33.02
X188.278Y-52.07
X188.278Y-71.12
X188.278Y-90.17
X200.977Y-30.797
X200.977Y-49.847
X200.977Y-68.897
X200.977Y-87.947
X207.327Y-28.258
X207.327Y-47.307
X207.327Y-66.358
X207.327Y-85.407
X220.028Y-35.56
X220.028Y-54.61
X220.028Y-73.66
X226.377Y-33.02
X226.377Y-52.07
X226.377Y-71.12
X239.077Y-40.322
X239.077Y-59.372
X239.077Y-78.422
X245.427Y-37.782
X245.427Y-56.832
X245.427Y-75.882
X258.127Y-40.322
X258.127Y-59.372
X258.127Y-78.422
X264.477Y-37.782
X264.477Y-56.832
X264.477Y-75.882
T6
X22.975Y-95.5
X34.175Y-95.5
X218.237Y-95.5
X229.438Y-95.5
T3
X108.344Y-64.375G85X107.944Y-64.375
G05
X109.444Y-68.975G85X109.044Y-68.975
G05
X113.444Y-68.975G85X113.044Y-68.975
G05
X116.444Y-68.975G85X116.044Y-68.975
G05
X135.969Y-64.375G85X136.369Y-64.375
G05
X138.969Y-64.375G85X139.369Y-64.375
G05
X142.969Y-64.375G85X143.369Y-64.375
G05
X144.069Y-68.975G85X144.469Y-68.975
G05
T0
M30
