M48
; DRILL file {KiCad 7.0.8} date Fri Nov 24 19:41:17 2023
; FORMAT={-:-/ absolute / metric / decimal}
; #@! TF.CreationDate,2023-11-24T19:41:17+09:00
; #@! TF.GenerationSoftware,Kicad,Pcbnew,7.0.8
; #@! TF.FileFunction,NonPlated,1,2,NPTH
FMAT,2
METRIC
; #@! TA.AperFunction,NonPlated,NPTH,ComponentDrill
T1C0.800
; #@! TA.AperFunction,NonPlated,NPTH,ComponentDrill
T2C1.750
; #@! TA.AperFunction,NonPlated,NPTH,ComponentDrill
T3C2.200
; #@! TA.AperFunction,NonPlated,NPTH,ComponentDrill
T4C4.000
%
G90
G05
T1
X110.844Y-66.675
X117.844Y-66.675
X134.569Y-66.675
X141.569Y-66.675
T2
X-14.605Y-42.862
X-14.605Y-61.912
X-14.605Y-80.962
X-4.445Y-42.862
X-4.445Y-61.912
X-4.445Y-80.962
X4.445Y-42.862
X4.445Y-61.912
X4.445Y-80.962
X14.605Y-42.862
X14.605Y-61.912
X14.605Y-80.962
X23.495Y-38.1
X23.495Y-57.15
X23.495Y-76.2
X33.655Y-38.1
X33.655Y-57.15
X33.655Y-76.2
X42.545Y-33.337
X42.545Y-52.387
X42.545Y-71.438
X42.545Y-90.487
X52.705Y-33.337
X52.705Y-52.387
X52.705Y-71.438
X52.705Y-90.487
X61.595Y-38.1
X61.595Y-57.15
X61.595Y-76.2
X61.595Y-95.25
X71.755Y-38.1
X71.755Y-57.15
X71.755Y-76.2
X71.755Y-95.25
X80.645Y-42.862
X80.645Y-61.912
X80.645Y-80.962
X80.645Y-100.012
X90.805Y-42.862
X90.805Y-61.912
X90.805Y-80.962
X90.805Y-100.012
X99.695Y-80.962
X99.695Y-100.012
X109.855Y-80.962
X109.855Y-100.012
X142.558Y-80.962
X142.558Y-100.012
X152.718Y-80.962
X152.718Y-100.012
X161.607Y-42.862
X161.607Y-61.912
X161.607Y-80.962
X161.607Y-100.012
X171.767Y-42.862
X171.767Y-61.912
X171.767Y-80.962
X171.767Y-100.012
X180.657Y-38.1
X180.657Y-57.15
X180.657Y-76.2
X180.657Y-95.25
X190.817Y-38.1
X190.817Y-57.15
X190.817Y-76.2
X190.817Y-95.25
X199.707Y-33.337
X199.707Y-52.387
X199.707Y-71.438
X199.707Y-90.487
X209.867Y-33.337
X209.867Y-52.387
X209.867Y-71.438
X209.867Y-90.487
X218.757Y-38.1
X218.757Y-57.15
X218.757Y-76.2
X228.917Y-38.1
X228.917Y-57.15
X228.917Y-76.2
X237.807Y-42.862
X237.807Y-61.912
X237.807Y-80.962
X247.968Y-42.862
X247.968Y-61.912
X247.968Y-80.962
X256.858Y-42.862
X256.858Y-61.912
X256.858Y-80.962
X267.017Y-42.862
X267.017Y-61.912
X267.017Y-80.962
T3
X-19.05Y-33.337
X-19.05Y-90.487
X16.669Y-92.869
X19.05Y-26.194
X54.769Y-102.394
X69.056Y-26.194
X114.3Y-109.537
X116.681Y-33.337
X135.731Y-33.337
X138.112Y-109.537
X183.356Y-26.194
X197.644Y-102.394
X233.362Y-26.194
X235.744Y-92.869
X271.462Y-33.337
X271.462Y-90.487
T4
X-9.525Y-42.862
X-9.525Y-61.912
X-9.525Y-80.962
X9.525Y-42.862
X9.525Y-61.912
X9.525Y-80.962
X28.575Y-38.1
X28.575Y-57.15
X28.575Y-76.2
X47.625Y-33.337
X47.625Y-52.387
X47.625Y-71.438
X47.625Y-90.487
X66.675Y-38.1
X66.675Y-57.15
X66.675Y-76.2
X66.675Y-95.25
X85.725Y-42.862
X85.725Y-61.912
X85.725Y-80.962
X85.725Y-100.012
X104.775Y-80.962
X104.775Y-100.012
X147.637Y-80.962
X147.637Y-100.012
X166.688Y-42.862
X166.688Y-61.912
X166.688Y-80.962
X166.688Y-100.012
X185.737Y-38.1
X185.737Y-57.15
X185.737Y-76.2
X185.737Y-95.25
X204.787Y-33.337
X204.787Y-52.387
X204.787Y-71.438
X204.787Y-90.487
X223.837Y-38.1
X223.837Y-57.15
X223.837Y-76.2
X242.887Y-42.862
X242.887Y-61.912
X242.887Y-80.962
X261.938Y-42.862
X261.938Y-61.912
X261.938Y-80.962
T0
M30
