G04 #@! TF.GenerationSoftware,KiCad,Pcbnew,7.0.8*
G04 #@! TF.CreationDate,2023-11-24T19:41:04+09:00*
G04 #@! TF.ProjectId,scene46aio,7363656e-6534-4366-9169-6f2e6b696361,rev?*
G04 #@! TF.SameCoordinates,Original*
G04 #@! TF.FileFunction,Legend,Bot*
G04 #@! TF.FilePolarity,Positive*
%FSLAX46Y46*%
G04 Gerber Fmt 4.6, Leading zero omitted, Abs format (unit mm)*
G04 Created by KiCad (PCBNEW 7.0.8) date 2023-11-24 19:41:04*
%MOMM*%
%LPD*%
G01*
G04 APERTURE LIST*
%ADD10C,0.150000*%
%ADD11C,0.120000*%
%ADD12C,2.200000*%
%ADD13C,1.750000*%
%ADD14C,4.000000*%
%ADD15C,2.500000*%
%ADD16R,2.000000X2.000000*%
%ADD17C,2.000000*%
%ADD18C,3.200000*%
%ADD19O,2.500000X1.500000*%
%ADD20O,1.500000X2.500000*%
%ADD21O,2.000000X1.600000*%
%ADD22C,0.800000*%
%ADD23R,1.600000X1.600000*%
%ADD24O,1.600000X1.600000*%
G04 APERTURE END LIST*
D10*
X178787319Y-74033214D02*
X177787319Y-74033214D01*
X177787319Y-74033214D02*
X177787319Y-74271309D01*
X177787319Y-74271309D02*
X177834938Y-74414166D01*
X177834938Y-74414166D02*
X177930176Y-74509404D01*
X177930176Y-74509404D02*
X178025414Y-74557023D01*
X178025414Y-74557023D02*
X178215890Y-74604642D01*
X178215890Y-74604642D02*
X178358747Y-74604642D01*
X178358747Y-74604642D02*
X178549223Y-74557023D01*
X178549223Y-74557023D02*
X178644461Y-74509404D01*
X178644461Y-74509404D02*
X178739700Y-74414166D01*
X178739700Y-74414166D02*
X178787319Y-74271309D01*
X178787319Y-74271309D02*
X178787319Y-74033214D01*
X177787319Y-74937976D02*
X177787319Y-75557023D01*
X177787319Y-75557023D02*
X178168271Y-75223690D01*
X178168271Y-75223690D02*
X178168271Y-75366547D01*
X178168271Y-75366547D02*
X178215890Y-75461785D01*
X178215890Y-75461785D02*
X178263509Y-75509404D01*
X178263509Y-75509404D02*
X178358747Y-75557023D01*
X178358747Y-75557023D02*
X178596842Y-75557023D01*
X178596842Y-75557023D02*
X178692080Y-75509404D01*
X178692080Y-75509404D02*
X178739700Y-75461785D01*
X178739700Y-75461785D02*
X178787319Y-75366547D01*
X178787319Y-75366547D02*
X178787319Y-75080833D01*
X178787319Y-75080833D02*
X178739700Y-74985595D01*
X178739700Y-74985595D02*
X178692080Y-74937976D01*
X178215890Y-76128452D02*
X178168271Y-76033214D01*
X178168271Y-76033214D02*
X178120652Y-75985595D01*
X178120652Y-75985595D02*
X178025414Y-75937976D01*
X178025414Y-75937976D02*
X177977795Y-75937976D01*
X177977795Y-75937976D02*
X177882557Y-75985595D01*
X177882557Y-75985595D02*
X177834938Y-76033214D01*
X177834938Y-76033214D02*
X177787319Y-76128452D01*
X177787319Y-76128452D02*
X177787319Y-76318928D01*
X177787319Y-76318928D02*
X177834938Y-76414166D01*
X177834938Y-76414166D02*
X177882557Y-76461785D01*
X177882557Y-76461785D02*
X177977795Y-76509404D01*
X177977795Y-76509404D02*
X178025414Y-76509404D01*
X178025414Y-76509404D02*
X178120652Y-76461785D01*
X178120652Y-76461785D02*
X178168271Y-76414166D01*
X178168271Y-76414166D02*
X178215890Y-76318928D01*
X178215890Y-76318928D02*
X178215890Y-76128452D01*
X178215890Y-76128452D02*
X178263509Y-76033214D01*
X178263509Y-76033214D02*
X178311128Y-75985595D01*
X178311128Y-75985595D02*
X178406366Y-75937976D01*
X178406366Y-75937976D02*
X178596842Y-75937976D01*
X178596842Y-75937976D02*
X178692080Y-75985595D01*
X178692080Y-75985595D02*
X178739700Y-76033214D01*
X178739700Y-76033214D02*
X178787319Y-76128452D01*
X178787319Y-76128452D02*
X178787319Y-76318928D01*
X178787319Y-76318928D02*
X178739700Y-76414166D01*
X178739700Y-76414166D02*
X178692080Y-76461785D01*
X178692080Y-76461785D02*
X178596842Y-76509404D01*
X178596842Y-76509404D02*
X178406366Y-76509404D01*
X178406366Y-76509404D02*
X178311128Y-76461785D01*
X178311128Y-76461785D02*
X178263509Y-76414166D01*
X178263509Y-76414166D02*
X178215890Y-76318928D01*
X178467319Y-78795595D02*
X177467319Y-78795595D01*
X178467319Y-79367023D02*
X177895890Y-78938452D01*
X177467319Y-79367023D02*
X178038747Y-78795595D01*
X197837319Y-50220714D02*
X196837319Y-50220714D01*
X196837319Y-50220714D02*
X196837319Y-50458809D01*
X196837319Y-50458809D02*
X196884938Y-50601666D01*
X196884938Y-50601666D02*
X196980176Y-50696904D01*
X196980176Y-50696904D02*
X197075414Y-50744523D01*
X197075414Y-50744523D02*
X197265890Y-50792142D01*
X197265890Y-50792142D02*
X197408747Y-50792142D01*
X197408747Y-50792142D02*
X197599223Y-50744523D01*
X197599223Y-50744523D02*
X197694461Y-50696904D01*
X197694461Y-50696904D02*
X197789700Y-50601666D01*
X197789700Y-50601666D02*
X197837319Y-50458809D01*
X197837319Y-50458809D02*
X197837319Y-50220714D01*
X196837319Y-51125476D02*
X196837319Y-51744523D01*
X196837319Y-51744523D02*
X197218271Y-51411190D01*
X197218271Y-51411190D02*
X197218271Y-51554047D01*
X197218271Y-51554047D02*
X197265890Y-51649285D01*
X197265890Y-51649285D02*
X197313509Y-51696904D01*
X197313509Y-51696904D02*
X197408747Y-51744523D01*
X197408747Y-51744523D02*
X197646842Y-51744523D01*
X197646842Y-51744523D02*
X197742080Y-51696904D01*
X197742080Y-51696904D02*
X197789700Y-51649285D01*
X197789700Y-51649285D02*
X197837319Y-51554047D01*
X197837319Y-51554047D02*
X197837319Y-51268333D01*
X197837319Y-51268333D02*
X197789700Y-51173095D01*
X197789700Y-51173095D02*
X197742080Y-51125476D01*
X196932557Y-52125476D02*
X196884938Y-52173095D01*
X196884938Y-52173095D02*
X196837319Y-52268333D01*
X196837319Y-52268333D02*
X196837319Y-52506428D01*
X196837319Y-52506428D02*
X196884938Y-52601666D01*
X196884938Y-52601666D02*
X196932557Y-52649285D01*
X196932557Y-52649285D02*
X197027795Y-52696904D01*
X197027795Y-52696904D02*
X197123033Y-52696904D01*
X197123033Y-52696904D02*
X197265890Y-52649285D01*
X197265890Y-52649285D02*
X197837319Y-52077857D01*
X197837319Y-52077857D02*
X197837319Y-52696904D01*
X197517319Y-54983095D02*
X196517319Y-54983095D01*
X197517319Y-55554523D02*
X196945890Y-55125952D01*
X196517319Y-55554523D02*
X197088747Y-54983095D01*
X78774819Y-54983214D02*
X77774819Y-54983214D01*
X77774819Y-54983214D02*
X77774819Y-55221309D01*
X77774819Y-55221309D02*
X77822438Y-55364166D01*
X77822438Y-55364166D02*
X77917676Y-55459404D01*
X77917676Y-55459404D02*
X78012914Y-55507023D01*
X78012914Y-55507023D02*
X78203390Y-55554642D01*
X78203390Y-55554642D02*
X78346247Y-55554642D01*
X78346247Y-55554642D02*
X78536723Y-55507023D01*
X78536723Y-55507023D02*
X78631961Y-55459404D01*
X78631961Y-55459404D02*
X78727200Y-55364166D01*
X78727200Y-55364166D02*
X78774819Y-55221309D01*
X78774819Y-55221309D02*
X78774819Y-54983214D01*
X78774819Y-56507023D02*
X78774819Y-55935595D01*
X78774819Y-56221309D02*
X77774819Y-56221309D01*
X77774819Y-56221309D02*
X77917676Y-56126071D01*
X77917676Y-56126071D02*
X78012914Y-56030833D01*
X78012914Y-56030833D02*
X78060533Y-55935595D01*
X78774819Y-57459404D02*
X78774819Y-56887976D01*
X78774819Y-57173690D02*
X77774819Y-57173690D01*
X77774819Y-57173690D02*
X77917676Y-57078452D01*
X77917676Y-57078452D02*
X78012914Y-56983214D01*
X78012914Y-56983214D02*
X78060533Y-56887976D01*
X78454819Y-59745595D02*
X77454819Y-59745595D01*
X78454819Y-60317023D02*
X77883390Y-59888452D01*
X77454819Y-60317023D02*
X78026247Y-59745595D01*
X140687319Y-97845714D02*
X139687319Y-97845714D01*
X139687319Y-97845714D02*
X139687319Y-98083809D01*
X139687319Y-98083809D02*
X139734938Y-98226666D01*
X139734938Y-98226666D02*
X139830176Y-98321904D01*
X139830176Y-98321904D02*
X139925414Y-98369523D01*
X139925414Y-98369523D02*
X140115890Y-98417142D01*
X140115890Y-98417142D02*
X140258747Y-98417142D01*
X140258747Y-98417142D02*
X140449223Y-98369523D01*
X140449223Y-98369523D02*
X140544461Y-98321904D01*
X140544461Y-98321904D02*
X140639700Y-98226666D01*
X140639700Y-98226666D02*
X140687319Y-98083809D01*
X140687319Y-98083809D02*
X140687319Y-97845714D01*
X140020652Y-99274285D02*
X140687319Y-99274285D01*
X139639700Y-99036190D02*
X140353985Y-98798095D01*
X140353985Y-98798095D02*
X140353985Y-99417142D01*
X139687319Y-99702857D02*
X139687319Y-100321904D01*
X139687319Y-100321904D02*
X140068271Y-99988571D01*
X140068271Y-99988571D02*
X140068271Y-100131428D01*
X140068271Y-100131428D02*
X140115890Y-100226666D01*
X140115890Y-100226666D02*
X140163509Y-100274285D01*
X140163509Y-100274285D02*
X140258747Y-100321904D01*
X140258747Y-100321904D02*
X140496842Y-100321904D01*
X140496842Y-100321904D02*
X140592080Y-100274285D01*
X140592080Y-100274285D02*
X140639700Y-100226666D01*
X140639700Y-100226666D02*
X140687319Y-100131428D01*
X140687319Y-100131428D02*
X140687319Y-99845714D01*
X140687319Y-99845714D02*
X140639700Y-99750476D01*
X140639700Y-99750476D02*
X140592080Y-99702857D01*
X140367319Y-102608095D02*
X139367319Y-102608095D01*
X140367319Y-103179523D02*
X139795890Y-102750952D01*
X139367319Y-103179523D02*
X139938747Y-102608095D01*
X59724819Y-50220714D02*
X58724819Y-50220714D01*
X58724819Y-50220714D02*
X58724819Y-50458809D01*
X58724819Y-50458809D02*
X58772438Y-50601666D01*
X58772438Y-50601666D02*
X58867676Y-50696904D01*
X58867676Y-50696904D02*
X58962914Y-50744523D01*
X58962914Y-50744523D02*
X59153390Y-50792142D01*
X59153390Y-50792142D02*
X59296247Y-50792142D01*
X59296247Y-50792142D02*
X59486723Y-50744523D01*
X59486723Y-50744523D02*
X59581961Y-50696904D01*
X59581961Y-50696904D02*
X59677200Y-50601666D01*
X59677200Y-50601666D02*
X59724819Y-50458809D01*
X59724819Y-50458809D02*
X59724819Y-50220714D01*
X59724819Y-51744523D02*
X59724819Y-51173095D01*
X59724819Y-51458809D02*
X58724819Y-51458809D01*
X58724819Y-51458809D02*
X58867676Y-51363571D01*
X58867676Y-51363571D02*
X58962914Y-51268333D01*
X58962914Y-51268333D02*
X59010533Y-51173095D01*
X58724819Y-52363571D02*
X58724819Y-52458809D01*
X58724819Y-52458809D02*
X58772438Y-52554047D01*
X58772438Y-52554047D02*
X58820057Y-52601666D01*
X58820057Y-52601666D02*
X58915295Y-52649285D01*
X58915295Y-52649285D02*
X59105771Y-52696904D01*
X59105771Y-52696904D02*
X59343866Y-52696904D01*
X59343866Y-52696904D02*
X59534342Y-52649285D01*
X59534342Y-52649285D02*
X59629580Y-52601666D01*
X59629580Y-52601666D02*
X59677200Y-52554047D01*
X59677200Y-52554047D02*
X59724819Y-52458809D01*
X59724819Y-52458809D02*
X59724819Y-52363571D01*
X59724819Y-52363571D02*
X59677200Y-52268333D01*
X59677200Y-52268333D02*
X59629580Y-52220714D01*
X59629580Y-52220714D02*
X59534342Y-52173095D01*
X59534342Y-52173095D02*
X59343866Y-52125476D01*
X59343866Y-52125476D02*
X59105771Y-52125476D01*
X59105771Y-52125476D02*
X58915295Y-52173095D01*
X58915295Y-52173095D02*
X58820057Y-52220714D01*
X58820057Y-52220714D02*
X58772438Y-52268333D01*
X58772438Y-52268333D02*
X58724819Y-52363571D01*
X59404819Y-54983095D02*
X58404819Y-54983095D01*
X59404819Y-55554523D02*
X58833390Y-55125952D01*
X58404819Y-55554523D02*
X58976247Y-54983095D01*
X216887319Y-93083214D02*
X215887319Y-93083214D01*
X215887319Y-93083214D02*
X215887319Y-93321309D01*
X215887319Y-93321309D02*
X215934938Y-93464166D01*
X215934938Y-93464166D02*
X216030176Y-93559404D01*
X216030176Y-93559404D02*
X216125414Y-93607023D01*
X216125414Y-93607023D02*
X216315890Y-93654642D01*
X216315890Y-93654642D02*
X216458747Y-93654642D01*
X216458747Y-93654642D02*
X216649223Y-93607023D01*
X216649223Y-93607023D02*
X216744461Y-93559404D01*
X216744461Y-93559404D02*
X216839700Y-93464166D01*
X216839700Y-93464166D02*
X216887319Y-93321309D01*
X216887319Y-93321309D02*
X216887319Y-93083214D01*
X216220652Y-94511785D02*
X216887319Y-94511785D01*
X215839700Y-94273690D02*
X216553985Y-94035595D01*
X216553985Y-94035595D02*
X216553985Y-94654642D01*
X216315890Y-95178452D02*
X216268271Y-95083214D01*
X216268271Y-95083214D02*
X216220652Y-95035595D01*
X216220652Y-95035595D02*
X216125414Y-94987976D01*
X216125414Y-94987976D02*
X216077795Y-94987976D01*
X216077795Y-94987976D02*
X215982557Y-95035595D01*
X215982557Y-95035595D02*
X215934938Y-95083214D01*
X215934938Y-95083214D02*
X215887319Y-95178452D01*
X215887319Y-95178452D02*
X215887319Y-95368928D01*
X215887319Y-95368928D02*
X215934938Y-95464166D01*
X215934938Y-95464166D02*
X215982557Y-95511785D01*
X215982557Y-95511785D02*
X216077795Y-95559404D01*
X216077795Y-95559404D02*
X216125414Y-95559404D01*
X216125414Y-95559404D02*
X216220652Y-95511785D01*
X216220652Y-95511785D02*
X216268271Y-95464166D01*
X216268271Y-95464166D02*
X216315890Y-95368928D01*
X216315890Y-95368928D02*
X216315890Y-95178452D01*
X216315890Y-95178452D02*
X216363509Y-95083214D01*
X216363509Y-95083214D02*
X216411128Y-95035595D01*
X216411128Y-95035595D02*
X216506366Y-94987976D01*
X216506366Y-94987976D02*
X216696842Y-94987976D01*
X216696842Y-94987976D02*
X216792080Y-95035595D01*
X216792080Y-95035595D02*
X216839700Y-95083214D01*
X216839700Y-95083214D02*
X216887319Y-95178452D01*
X216887319Y-95178452D02*
X216887319Y-95368928D01*
X216887319Y-95368928D02*
X216839700Y-95464166D01*
X216839700Y-95464166D02*
X216792080Y-95511785D01*
X216792080Y-95511785D02*
X216696842Y-95559404D01*
X216696842Y-95559404D02*
X216506366Y-95559404D01*
X216506366Y-95559404D02*
X216411128Y-95511785D01*
X216411128Y-95511785D02*
X216363509Y-95464166D01*
X216363509Y-95464166D02*
X216315890Y-95368928D01*
X216567319Y-97845595D02*
X215567319Y-97845595D01*
X216567319Y-98417023D02*
X215995890Y-97988452D01*
X215567319Y-98417023D02*
X216138747Y-97845595D01*
X40674819Y-36409405D02*
X39674819Y-36409405D01*
X39674819Y-36409405D02*
X39674819Y-36647500D01*
X39674819Y-36647500D02*
X39722438Y-36790357D01*
X39722438Y-36790357D02*
X39817676Y-36885595D01*
X39817676Y-36885595D02*
X39912914Y-36933214D01*
X39912914Y-36933214D02*
X40103390Y-36980833D01*
X40103390Y-36980833D02*
X40246247Y-36980833D01*
X40246247Y-36980833D02*
X40436723Y-36933214D01*
X40436723Y-36933214D02*
X40531961Y-36885595D01*
X40531961Y-36885595D02*
X40627200Y-36790357D01*
X40627200Y-36790357D02*
X40674819Y-36647500D01*
X40674819Y-36647500D02*
X40674819Y-36409405D01*
X39674819Y-37314167D02*
X39674819Y-37933214D01*
X39674819Y-37933214D02*
X40055771Y-37599881D01*
X40055771Y-37599881D02*
X40055771Y-37742738D01*
X40055771Y-37742738D02*
X40103390Y-37837976D01*
X40103390Y-37837976D02*
X40151009Y-37885595D01*
X40151009Y-37885595D02*
X40246247Y-37933214D01*
X40246247Y-37933214D02*
X40484342Y-37933214D01*
X40484342Y-37933214D02*
X40579580Y-37885595D01*
X40579580Y-37885595D02*
X40627200Y-37837976D01*
X40627200Y-37837976D02*
X40674819Y-37742738D01*
X40674819Y-37742738D02*
X40674819Y-37457024D01*
X40674819Y-37457024D02*
X40627200Y-37361786D01*
X40627200Y-37361786D02*
X40579580Y-37314167D01*
X40354819Y-40695595D02*
X39354819Y-40695595D01*
X40354819Y-41267023D02*
X39783390Y-40838452D01*
X39354819Y-41267023D02*
X39926247Y-40695595D01*
X97824819Y-97845714D02*
X96824819Y-97845714D01*
X96824819Y-97845714D02*
X96824819Y-98083809D01*
X96824819Y-98083809D02*
X96872438Y-98226666D01*
X96872438Y-98226666D02*
X96967676Y-98321904D01*
X96967676Y-98321904D02*
X97062914Y-98369523D01*
X97062914Y-98369523D02*
X97253390Y-98417142D01*
X97253390Y-98417142D02*
X97396247Y-98417142D01*
X97396247Y-98417142D02*
X97586723Y-98369523D01*
X97586723Y-98369523D02*
X97681961Y-98321904D01*
X97681961Y-98321904D02*
X97777200Y-98226666D01*
X97777200Y-98226666D02*
X97824819Y-98083809D01*
X97824819Y-98083809D02*
X97824819Y-97845714D01*
X96920057Y-98798095D02*
X96872438Y-98845714D01*
X96872438Y-98845714D02*
X96824819Y-98940952D01*
X96824819Y-98940952D02*
X96824819Y-99179047D01*
X96824819Y-99179047D02*
X96872438Y-99274285D01*
X96872438Y-99274285D02*
X96920057Y-99321904D01*
X96920057Y-99321904D02*
X97015295Y-99369523D01*
X97015295Y-99369523D02*
X97110533Y-99369523D01*
X97110533Y-99369523D02*
X97253390Y-99321904D01*
X97253390Y-99321904D02*
X97824819Y-98750476D01*
X97824819Y-98750476D02*
X97824819Y-99369523D01*
X96920057Y-99750476D02*
X96872438Y-99798095D01*
X96872438Y-99798095D02*
X96824819Y-99893333D01*
X96824819Y-99893333D02*
X96824819Y-100131428D01*
X96824819Y-100131428D02*
X96872438Y-100226666D01*
X96872438Y-100226666D02*
X96920057Y-100274285D01*
X96920057Y-100274285D02*
X97015295Y-100321904D01*
X97015295Y-100321904D02*
X97110533Y-100321904D01*
X97110533Y-100321904D02*
X97253390Y-100274285D01*
X97253390Y-100274285D02*
X97824819Y-99702857D01*
X97824819Y-99702857D02*
X97824819Y-100321904D01*
X97504819Y-102608095D02*
X96504819Y-102608095D01*
X97504819Y-103179523D02*
X96933390Y-102750952D01*
X96504819Y-103179523D02*
X97076247Y-102608095D01*
X40674819Y-74033214D02*
X39674819Y-74033214D01*
X39674819Y-74033214D02*
X39674819Y-74271309D01*
X39674819Y-74271309D02*
X39722438Y-74414166D01*
X39722438Y-74414166D02*
X39817676Y-74509404D01*
X39817676Y-74509404D02*
X39912914Y-74557023D01*
X39912914Y-74557023D02*
X40103390Y-74604642D01*
X40103390Y-74604642D02*
X40246247Y-74604642D01*
X40246247Y-74604642D02*
X40436723Y-74557023D01*
X40436723Y-74557023D02*
X40531961Y-74509404D01*
X40531961Y-74509404D02*
X40627200Y-74414166D01*
X40627200Y-74414166D02*
X40674819Y-74271309D01*
X40674819Y-74271309D02*
X40674819Y-74033214D01*
X40674819Y-75557023D02*
X40674819Y-74985595D01*
X40674819Y-75271309D02*
X39674819Y-75271309D01*
X39674819Y-75271309D02*
X39817676Y-75176071D01*
X39817676Y-75176071D02*
X39912914Y-75080833D01*
X39912914Y-75080833D02*
X39960533Y-74985595D01*
X39674819Y-76461785D02*
X39674819Y-75985595D01*
X39674819Y-75985595D02*
X40151009Y-75937976D01*
X40151009Y-75937976D02*
X40103390Y-75985595D01*
X40103390Y-75985595D02*
X40055771Y-76080833D01*
X40055771Y-76080833D02*
X40055771Y-76318928D01*
X40055771Y-76318928D02*
X40103390Y-76414166D01*
X40103390Y-76414166D02*
X40151009Y-76461785D01*
X40151009Y-76461785D02*
X40246247Y-76509404D01*
X40246247Y-76509404D02*
X40484342Y-76509404D01*
X40484342Y-76509404D02*
X40579580Y-76461785D01*
X40579580Y-76461785D02*
X40627200Y-76414166D01*
X40627200Y-76414166D02*
X40674819Y-76318928D01*
X40674819Y-76318928D02*
X40674819Y-76080833D01*
X40674819Y-76080833D02*
X40627200Y-75985595D01*
X40627200Y-75985595D02*
X40579580Y-75937976D01*
X40354819Y-78795595D02*
X39354819Y-78795595D01*
X40354819Y-79367023D02*
X39783390Y-78938452D01*
X39354819Y-79367023D02*
X39926247Y-78795595D01*
X216887319Y-74033214D02*
X215887319Y-74033214D01*
X215887319Y-74033214D02*
X215887319Y-74271309D01*
X215887319Y-74271309D02*
X215934938Y-74414166D01*
X215934938Y-74414166D02*
X216030176Y-74509404D01*
X216030176Y-74509404D02*
X216125414Y-74557023D01*
X216125414Y-74557023D02*
X216315890Y-74604642D01*
X216315890Y-74604642D02*
X216458747Y-74604642D01*
X216458747Y-74604642D02*
X216649223Y-74557023D01*
X216649223Y-74557023D02*
X216744461Y-74509404D01*
X216744461Y-74509404D02*
X216839700Y-74414166D01*
X216839700Y-74414166D02*
X216887319Y-74271309D01*
X216887319Y-74271309D02*
X216887319Y-74033214D01*
X216220652Y-75461785D02*
X216887319Y-75461785D01*
X215839700Y-75223690D02*
X216553985Y-74985595D01*
X216553985Y-74985595D02*
X216553985Y-75604642D01*
X215887319Y-76176071D02*
X215887319Y-76271309D01*
X215887319Y-76271309D02*
X215934938Y-76366547D01*
X215934938Y-76366547D02*
X215982557Y-76414166D01*
X215982557Y-76414166D02*
X216077795Y-76461785D01*
X216077795Y-76461785D02*
X216268271Y-76509404D01*
X216268271Y-76509404D02*
X216506366Y-76509404D01*
X216506366Y-76509404D02*
X216696842Y-76461785D01*
X216696842Y-76461785D02*
X216792080Y-76414166D01*
X216792080Y-76414166D02*
X216839700Y-76366547D01*
X216839700Y-76366547D02*
X216887319Y-76271309D01*
X216887319Y-76271309D02*
X216887319Y-76176071D01*
X216887319Y-76176071D02*
X216839700Y-76080833D01*
X216839700Y-76080833D02*
X216792080Y-76033214D01*
X216792080Y-76033214D02*
X216696842Y-75985595D01*
X216696842Y-75985595D02*
X216506366Y-75937976D01*
X216506366Y-75937976D02*
X216268271Y-75937976D01*
X216268271Y-75937976D02*
X216077795Y-75985595D01*
X216077795Y-75985595D02*
X215982557Y-76033214D01*
X215982557Y-76033214D02*
X215934938Y-76080833D01*
X215934938Y-76080833D02*
X215887319Y-76176071D01*
X216567319Y-78795595D02*
X215567319Y-78795595D01*
X216567319Y-79367023D02*
X215995890Y-78938452D01*
X215567319Y-79367023D02*
X216138747Y-78795595D01*
X59724819Y-88320714D02*
X58724819Y-88320714D01*
X58724819Y-88320714D02*
X58724819Y-88558809D01*
X58724819Y-88558809D02*
X58772438Y-88701666D01*
X58772438Y-88701666D02*
X58867676Y-88796904D01*
X58867676Y-88796904D02*
X58962914Y-88844523D01*
X58962914Y-88844523D02*
X59153390Y-88892142D01*
X59153390Y-88892142D02*
X59296247Y-88892142D01*
X59296247Y-88892142D02*
X59486723Y-88844523D01*
X59486723Y-88844523D02*
X59581961Y-88796904D01*
X59581961Y-88796904D02*
X59677200Y-88701666D01*
X59677200Y-88701666D02*
X59724819Y-88558809D01*
X59724819Y-88558809D02*
X59724819Y-88320714D01*
X58820057Y-89273095D02*
X58772438Y-89320714D01*
X58772438Y-89320714D02*
X58724819Y-89415952D01*
X58724819Y-89415952D02*
X58724819Y-89654047D01*
X58724819Y-89654047D02*
X58772438Y-89749285D01*
X58772438Y-89749285D02*
X58820057Y-89796904D01*
X58820057Y-89796904D02*
X58915295Y-89844523D01*
X58915295Y-89844523D02*
X59010533Y-89844523D01*
X59010533Y-89844523D02*
X59153390Y-89796904D01*
X59153390Y-89796904D02*
X59724819Y-89225476D01*
X59724819Y-89225476D02*
X59724819Y-89844523D01*
X58724819Y-90463571D02*
X58724819Y-90558809D01*
X58724819Y-90558809D02*
X58772438Y-90654047D01*
X58772438Y-90654047D02*
X58820057Y-90701666D01*
X58820057Y-90701666D02*
X58915295Y-90749285D01*
X58915295Y-90749285D02*
X59105771Y-90796904D01*
X59105771Y-90796904D02*
X59343866Y-90796904D01*
X59343866Y-90796904D02*
X59534342Y-90749285D01*
X59534342Y-90749285D02*
X59629580Y-90701666D01*
X59629580Y-90701666D02*
X59677200Y-90654047D01*
X59677200Y-90654047D02*
X59724819Y-90558809D01*
X59724819Y-90558809D02*
X59724819Y-90463571D01*
X59724819Y-90463571D02*
X59677200Y-90368333D01*
X59677200Y-90368333D02*
X59629580Y-90320714D01*
X59629580Y-90320714D02*
X59534342Y-90273095D01*
X59534342Y-90273095D02*
X59343866Y-90225476D01*
X59343866Y-90225476D02*
X59105771Y-90225476D01*
X59105771Y-90225476D02*
X58915295Y-90273095D01*
X58915295Y-90273095D02*
X58820057Y-90320714D01*
X58820057Y-90320714D02*
X58772438Y-90368333D01*
X58772438Y-90368333D02*
X58724819Y-90463571D01*
X59404819Y-93083095D02*
X58404819Y-93083095D01*
X59404819Y-93654523D02*
X58833390Y-93225952D01*
X58404819Y-93654523D02*
X58976247Y-93083095D01*
X59724819Y-69270714D02*
X58724819Y-69270714D01*
X58724819Y-69270714D02*
X58724819Y-69508809D01*
X58724819Y-69508809D02*
X58772438Y-69651666D01*
X58772438Y-69651666D02*
X58867676Y-69746904D01*
X58867676Y-69746904D02*
X58962914Y-69794523D01*
X58962914Y-69794523D02*
X59153390Y-69842142D01*
X59153390Y-69842142D02*
X59296247Y-69842142D01*
X59296247Y-69842142D02*
X59486723Y-69794523D01*
X59486723Y-69794523D02*
X59581961Y-69746904D01*
X59581961Y-69746904D02*
X59677200Y-69651666D01*
X59677200Y-69651666D02*
X59724819Y-69508809D01*
X59724819Y-69508809D02*
X59724819Y-69270714D01*
X59724819Y-70794523D02*
X59724819Y-70223095D01*
X59724819Y-70508809D02*
X58724819Y-70508809D01*
X58724819Y-70508809D02*
X58867676Y-70413571D01*
X58867676Y-70413571D02*
X58962914Y-70318333D01*
X58962914Y-70318333D02*
X59010533Y-70223095D01*
X58724819Y-71651666D02*
X58724819Y-71461190D01*
X58724819Y-71461190D02*
X58772438Y-71365952D01*
X58772438Y-71365952D02*
X58820057Y-71318333D01*
X58820057Y-71318333D02*
X58962914Y-71223095D01*
X58962914Y-71223095D02*
X59153390Y-71175476D01*
X59153390Y-71175476D02*
X59534342Y-71175476D01*
X59534342Y-71175476D02*
X59629580Y-71223095D01*
X59629580Y-71223095D02*
X59677200Y-71270714D01*
X59677200Y-71270714D02*
X59724819Y-71365952D01*
X59724819Y-71365952D02*
X59724819Y-71556428D01*
X59724819Y-71556428D02*
X59677200Y-71651666D01*
X59677200Y-71651666D02*
X59629580Y-71699285D01*
X59629580Y-71699285D02*
X59534342Y-71746904D01*
X59534342Y-71746904D02*
X59296247Y-71746904D01*
X59296247Y-71746904D02*
X59201009Y-71699285D01*
X59201009Y-71699285D02*
X59153390Y-71651666D01*
X59153390Y-71651666D02*
X59105771Y-71556428D01*
X59105771Y-71556428D02*
X59105771Y-71365952D01*
X59105771Y-71365952D02*
X59153390Y-71270714D01*
X59153390Y-71270714D02*
X59201009Y-71223095D01*
X59201009Y-71223095D02*
X59296247Y-71175476D01*
X59404819Y-74033095D02*
X58404819Y-74033095D01*
X59404819Y-74604523D02*
X58833390Y-74175952D01*
X58404819Y-74604523D02*
X58976247Y-74033095D01*
X254987319Y-59745714D02*
X253987319Y-59745714D01*
X253987319Y-59745714D02*
X253987319Y-59983809D01*
X253987319Y-59983809D02*
X254034938Y-60126666D01*
X254034938Y-60126666D02*
X254130176Y-60221904D01*
X254130176Y-60221904D02*
X254225414Y-60269523D01*
X254225414Y-60269523D02*
X254415890Y-60317142D01*
X254415890Y-60317142D02*
X254558747Y-60317142D01*
X254558747Y-60317142D02*
X254749223Y-60269523D01*
X254749223Y-60269523D02*
X254844461Y-60221904D01*
X254844461Y-60221904D02*
X254939700Y-60126666D01*
X254939700Y-60126666D02*
X254987319Y-59983809D01*
X254987319Y-59983809D02*
X254987319Y-59745714D01*
X253987319Y-60650476D02*
X253987319Y-61269523D01*
X253987319Y-61269523D02*
X254368271Y-60936190D01*
X254368271Y-60936190D02*
X254368271Y-61079047D01*
X254368271Y-61079047D02*
X254415890Y-61174285D01*
X254415890Y-61174285D02*
X254463509Y-61221904D01*
X254463509Y-61221904D02*
X254558747Y-61269523D01*
X254558747Y-61269523D02*
X254796842Y-61269523D01*
X254796842Y-61269523D02*
X254892080Y-61221904D01*
X254892080Y-61221904D02*
X254939700Y-61174285D01*
X254939700Y-61174285D02*
X254987319Y-61079047D01*
X254987319Y-61079047D02*
X254987319Y-60793333D01*
X254987319Y-60793333D02*
X254939700Y-60698095D01*
X254939700Y-60698095D02*
X254892080Y-60650476D01*
X253987319Y-62174285D02*
X253987319Y-61698095D01*
X253987319Y-61698095D02*
X254463509Y-61650476D01*
X254463509Y-61650476D02*
X254415890Y-61698095D01*
X254415890Y-61698095D02*
X254368271Y-61793333D01*
X254368271Y-61793333D02*
X254368271Y-62031428D01*
X254368271Y-62031428D02*
X254415890Y-62126666D01*
X254415890Y-62126666D02*
X254463509Y-62174285D01*
X254463509Y-62174285D02*
X254558747Y-62221904D01*
X254558747Y-62221904D02*
X254796842Y-62221904D01*
X254796842Y-62221904D02*
X254892080Y-62174285D01*
X254892080Y-62174285D02*
X254939700Y-62126666D01*
X254939700Y-62126666D02*
X254987319Y-62031428D01*
X254987319Y-62031428D02*
X254987319Y-61793333D01*
X254987319Y-61793333D02*
X254939700Y-61698095D01*
X254939700Y-61698095D02*
X254892080Y-61650476D01*
X254667319Y-64508095D02*
X253667319Y-64508095D01*
X254667319Y-65079523D02*
X254095890Y-64650952D01*
X253667319Y-65079523D02*
X254238747Y-64508095D01*
X178787319Y-35933214D02*
X177787319Y-35933214D01*
X177787319Y-35933214D02*
X177787319Y-36171309D01*
X177787319Y-36171309D02*
X177834938Y-36314166D01*
X177834938Y-36314166D02*
X177930176Y-36409404D01*
X177930176Y-36409404D02*
X178025414Y-36457023D01*
X178025414Y-36457023D02*
X178215890Y-36504642D01*
X178215890Y-36504642D02*
X178358747Y-36504642D01*
X178358747Y-36504642D02*
X178549223Y-36457023D01*
X178549223Y-36457023D02*
X178644461Y-36409404D01*
X178644461Y-36409404D02*
X178739700Y-36314166D01*
X178739700Y-36314166D02*
X178787319Y-36171309D01*
X178787319Y-36171309D02*
X178787319Y-35933214D01*
X177882557Y-36885595D02*
X177834938Y-36933214D01*
X177834938Y-36933214D02*
X177787319Y-37028452D01*
X177787319Y-37028452D02*
X177787319Y-37266547D01*
X177787319Y-37266547D02*
X177834938Y-37361785D01*
X177834938Y-37361785D02*
X177882557Y-37409404D01*
X177882557Y-37409404D02*
X177977795Y-37457023D01*
X177977795Y-37457023D02*
X178073033Y-37457023D01*
X178073033Y-37457023D02*
X178215890Y-37409404D01*
X178215890Y-37409404D02*
X178787319Y-36837976D01*
X178787319Y-36837976D02*
X178787319Y-37457023D01*
X177787319Y-38361785D02*
X177787319Y-37885595D01*
X177787319Y-37885595D02*
X178263509Y-37837976D01*
X178263509Y-37837976D02*
X178215890Y-37885595D01*
X178215890Y-37885595D02*
X178168271Y-37980833D01*
X178168271Y-37980833D02*
X178168271Y-38218928D01*
X178168271Y-38218928D02*
X178215890Y-38314166D01*
X178215890Y-38314166D02*
X178263509Y-38361785D01*
X178263509Y-38361785D02*
X178358747Y-38409404D01*
X178358747Y-38409404D02*
X178596842Y-38409404D01*
X178596842Y-38409404D02*
X178692080Y-38361785D01*
X178692080Y-38361785D02*
X178739700Y-38314166D01*
X178739700Y-38314166D02*
X178787319Y-38218928D01*
X178787319Y-38218928D02*
X178787319Y-37980833D01*
X178787319Y-37980833D02*
X178739700Y-37885595D01*
X178739700Y-37885595D02*
X178692080Y-37837976D01*
X178467319Y-40695595D02*
X177467319Y-40695595D01*
X178467319Y-41267023D02*
X177895890Y-40838452D01*
X177467319Y-41267023D02*
X178038747Y-40695595D01*
X159737319Y-97845714D02*
X158737319Y-97845714D01*
X158737319Y-97845714D02*
X158737319Y-98083809D01*
X158737319Y-98083809D02*
X158784938Y-98226666D01*
X158784938Y-98226666D02*
X158880176Y-98321904D01*
X158880176Y-98321904D02*
X158975414Y-98369523D01*
X158975414Y-98369523D02*
X159165890Y-98417142D01*
X159165890Y-98417142D02*
X159308747Y-98417142D01*
X159308747Y-98417142D02*
X159499223Y-98369523D01*
X159499223Y-98369523D02*
X159594461Y-98321904D01*
X159594461Y-98321904D02*
X159689700Y-98226666D01*
X159689700Y-98226666D02*
X159737319Y-98083809D01*
X159737319Y-98083809D02*
X159737319Y-97845714D01*
X159070652Y-99274285D02*
X159737319Y-99274285D01*
X158689700Y-99036190D02*
X159403985Y-98798095D01*
X159403985Y-98798095D02*
X159403985Y-99417142D01*
X159070652Y-100226666D02*
X159737319Y-100226666D01*
X158689700Y-99988571D02*
X159403985Y-99750476D01*
X159403985Y-99750476D02*
X159403985Y-100369523D01*
X159417319Y-102608095D02*
X158417319Y-102608095D01*
X159417319Y-103179523D02*
X158845890Y-102750952D01*
X158417319Y-103179523D02*
X158988747Y-102608095D01*
X178787319Y-54983214D02*
X177787319Y-54983214D01*
X177787319Y-54983214D02*
X177787319Y-55221309D01*
X177787319Y-55221309D02*
X177834938Y-55364166D01*
X177834938Y-55364166D02*
X177930176Y-55459404D01*
X177930176Y-55459404D02*
X178025414Y-55507023D01*
X178025414Y-55507023D02*
X178215890Y-55554642D01*
X178215890Y-55554642D02*
X178358747Y-55554642D01*
X178358747Y-55554642D02*
X178549223Y-55507023D01*
X178549223Y-55507023D02*
X178644461Y-55459404D01*
X178644461Y-55459404D02*
X178739700Y-55364166D01*
X178739700Y-55364166D02*
X178787319Y-55221309D01*
X178787319Y-55221309D02*
X178787319Y-54983214D01*
X177787319Y-55887976D02*
X177787319Y-56507023D01*
X177787319Y-56507023D02*
X178168271Y-56173690D01*
X178168271Y-56173690D02*
X178168271Y-56316547D01*
X178168271Y-56316547D02*
X178215890Y-56411785D01*
X178215890Y-56411785D02*
X178263509Y-56459404D01*
X178263509Y-56459404D02*
X178358747Y-56507023D01*
X178358747Y-56507023D02*
X178596842Y-56507023D01*
X178596842Y-56507023D02*
X178692080Y-56459404D01*
X178692080Y-56459404D02*
X178739700Y-56411785D01*
X178739700Y-56411785D02*
X178787319Y-56316547D01*
X178787319Y-56316547D02*
X178787319Y-56030833D01*
X178787319Y-56030833D02*
X178739700Y-55935595D01*
X178739700Y-55935595D02*
X178692080Y-55887976D01*
X178787319Y-57459404D02*
X178787319Y-56887976D01*
X178787319Y-57173690D02*
X177787319Y-57173690D01*
X177787319Y-57173690D02*
X177930176Y-57078452D01*
X177930176Y-57078452D02*
X178025414Y-56983214D01*
X178025414Y-56983214D02*
X178073033Y-56887976D01*
X178467319Y-59745595D02*
X177467319Y-59745595D01*
X178467319Y-60317023D02*
X177895890Y-59888452D01*
X177467319Y-60317023D02*
X178038747Y-59745595D01*
X178787319Y-93083214D02*
X177787319Y-93083214D01*
X177787319Y-93083214D02*
X177787319Y-93321309D01*
X177787319Y-93321309D02*
X177834938Y-93464166D01*
X177834938Y-93464166D02*
X177930176Y-93559404D01*
X177930176Y-93559404D02*
X178025414Y-93607023D01*
X178025414Y-93607023D02*
X178215890Y-93654642D01*
X178215890Y-93654642D02*
X178358747Y-93654642D01*
X178358747Y-93654642D02*
X178549223Y-93607023D01*
X178549223Y-93607023D02*
X178644461Y-93559404D01*
X178644461Y-93559404D02*
X178739700Y-93464166D01*
X178739700Y-93464166D02*
X178787319Y-93321309D01*
X178787319Y-93321309D02*
X178787319Y-93083214D01*
X178120652Y-94511785D02*
X178787319Y-94511785D01*
X177739700Y-94273690D02*
X178453985Y-94035595D01*
X178453985Y-94035595D02*
X178453985Y-94654642D01*
X177787319Y-95511785D02*
X177787319Y-95035595D01*
X177787319Y-95035595D02*
X178263509Y-94987976D01*
X178263509Y-94987976D02*
X178215890Y-95035595D01*
X178215890Y-95035595D02*
X178168271Y-95130833D01*
X178168271Y-95130833D02*
X178168271Y-95368928D01*
X178168271Y-95368928D02*
X178215890Y-95464166D01*
X178215890Y-95464166D02*
X178263509Y-95511785D01*
X178263509Y-95511785D02*
X178358747Y-95559404D01*
X178358747Y-95559404D02*
X178596842Y-95559404D01*
X178596842Y-95559404D02*
X178692080Y-95511785D01*
X178692080Y-95511785D02*
X178739700Y-95464166D01*
X178739700Y-95464166D02*
X178787319Y-95368928D01*
X178787319Y-95368928D02*
X178787319Y-95130833D01*
X178787319Y-95130833D02*
X178739700Y-95035595D01*
X178739700Y-95035595D02*
X178692080Y-94987976D01*
X178467319Y-97845595D02*
X177467319Y-97845595D01*
X178467319Y-98417023D02*
X177895890Y-97988452D01*
X177467319Y-98417023D02*
X178038747Y-97845595D01*
X216887319Y-54983214D02*
X215887319Y-54983214D01*
X215887319Y-54983214D02*
X215887319Y-55221309D01*
X215887319Y-55221309D02*
X215934938Y-55364166D01*
X215934938Y-55364166D02*
X216030176Y-55459404D01*
X216030176Y-55459404D02*
X216125414Y-55507023D01*
X216125414Y-55507023D02*
X216315890Y-55554642D01*
X216315890Y-55554642D02*
X216458747Y-55554642D01*
X216458747Y-55554642D02*
X216649223Y-55507023D01*
X216649223Y-55507023D02*
X216744461Y-55459404D01*
X216744461Y-55459404D02*
X216839700Y-55364166D01*
X216839700Y-55364166D02*
X216887319Y-55221309D01*
X216887319Y-55221309D02*
X216887319Y-54983214D01*
X215887319Y-55887976D02*
X215887319Y-56507023D01*
X215887319Y-56507023D02*
X216268271Y-56173690D01*
X216268271Y-56173690D02*
X216268271Y-56316547D01*
X216268271Y-56316547D02*
X216315890Y-56411785D01*
X216315890Y-56411785D02*
X216363509Y-56459404D01*
X216363509Y-56459404D02*
X216458747Y-56507023D01*
X216458747Y-56507023D02*
X216696842Y-56507023D01*
X216696842Y-56507023D02*
X216792080Y-56459404D01*
X216792080Y-56459404D02*
X216839700Y-56411785D01*
X216839700Y-56411785D02*
X216887319Y-56316547D01*
X216887319Y-56316547D02*
X216887319Y-56030833D01*
X216887319Y-56030833D02*
X216839700Y-55935595D01*
X216839700Y-55935595D02*
X216792080Y-55887976D01*
X215887319Y-56840357D02*
X215887319Y-57459404D01*
X215887319Y-57459404D02*
X216268271Y-57126071D01*
X216268271Y-57126071D02*
X216268271Y-57268928D01*
X216268271Y-57268928D02*
X216315890Y-57364166D01*
X216315890Y-57364166D02*
X216363509Y-57411785D01*
X216363509Y-57411785D02*
X216458747Y-57459404D01*
X216458747Y-57459404D02*
X216696842Y-57459404D01*
X216696842Y-57459404D02*
X216792080Y-57411785D01*
X216792080Y-57411785D02*
X216839700Y-57364166D01*
X216839700Y-57364166D02*
X216887319Y-57268928D01*
X216887319Y-57268928D02*
X216887319Y-56983214D01*
X216887319Y-56983214D02*
X216839700Y-56887976D01*
X216839700Y-56887976D02*
X216792080Y-56840357D01*
X216567319Y-59745595D02*
X215567319Y-59745595D01*
X216567319Y-60317023D02*
X215995890Y-59888452D01*
X215567319Y-60317023D02*
X216138747Y-59745595D01*
X116874819Y-83558214D02*
X115874819Y-83558214D01*
X115874819Y-83558214D02*
X115874819Y-83796309D01*
X115874819Y-83796309D02*
X115922438Y-83939166D01*
X115922438Y-83939166D02*
X116017676Y-84034404D01*
X116017676Y-84034404D02*
X116112914Y-84082023D01*
X116112914Y-84082023D02*
X116303390Y-84129642D01*
X116303390Y-84129642D02*
X116446247Y-84129642D01*
X116446247Y-84129642D02*
X116636723Y-84082023D01*
X116636723Y-84082023D02*
X116731961Y-84034404D01*
X116731961Y-84034404D02*
X116827200Y-83939166D01*
X116827200Y-83939166D02*
X116874819Y-83796309D01*
X116874819Y-83796309D02*
X116874819Y-83558214D01*
X116874819Y-85082023D02*
X116874819Y-84510595D01*
X116874819Y-84796309D02*
X115874819Y-84796309D01*
X115874819Y-84796309D02*
X116017676Y-84701071D01*
X116017676Y-84701071D02*
X116112914Y-84605833D01*
X116112914Y-84605833D02*
X116160533Y-84510595D01*
X116874819Y-85558214D02*
X116874819Y-85748690D01*
X116874819Y-85748690D02*
X116827200Y-85843928D01*
X116827200Y-85843928D02*
X116779580Y-85891547D01*
X116779580Y-85891547D02*
X116636723Y-85986785D01*
X116636723Y-85986785D02*
X116446247Y-86034404D01*
X116446247Y-86034404D02*
X116065295Y-86034404D01*
X116065295Y-86034404D02*
X115970057Y-85986785D01*
X115970057Y-85986785D02*
X115922438Y-85939166D01*
X115922438Y-85939166D02*
X115874819Y-85843928D01*
X115874819Y-85843928D02*
X115874819Y-85653452D01*
X115874819Y-85653452D02*
X115922438Y-85558214D01*
X115922438Y-85558214D02*
X115970057Y-85510595D01*
X115970057Y-85510595D02*
X116065295Y-85462976D01*
X116065295Y-85462976D02*
X116303390Y-85462976D01*
X116303390Y-85462976D02*
X116398628Y-85510595D01*
X116398628Y-85510595D02*
X116446247Y-85558214D01*
X116446247Y-85558214D02*
X116493866Y-85653452D01*
X116493866Y-85653452D02*
X116493866Y-85843928D01*
X116493866Y-85843928D02*
X116446247Y-85939166D01*
X116446247Y-85939166D02*
X116398628Y-85986785D01*
X116398628Y-85986785D02*
X116303390Y-86034404D01*
X116554819Y-88320595D02*
X115554819Y-88320595D01*
X116554819Y-88892023D02*
X115983390Y-88463452D01*
X115554819Y-88892023D02*
X116126247Y-88320595D01*
X78774819Y-36409405D02*
X77774819Y-36409405D01*
X77774819Y-36409405D02*
X77774819Y-36647500D01*
X77774819Y-36647500D02*
X77822438Y-36790357D01*
X77822438Y-36790357D02*
X77917676Y-36885595D01*
X77917676Y-36885595D02*
X78012914Y-36933214D01*
X78012914Y-36933214D02*
X78203390Y-36980833D01*
X78203390Y-36980833D02*
X78346247Y-36980833D01*
X78346247Y-36980833D02*
X78536723Y-36933214D01*
X78536723Y-36933214D02*
X78631961Y-36885595D01*
X78631961Y-36885595D02*
X78727200Y-36790357D01*
X78727200Y-36790357D02*
X78774819Y-36647500D01*
X78774819Y-36647500D02*
X78774819Y-36409405D01*
X77774819Y-37885595D02*
X77774819Y-37409405D01*
X77774819Y-37409405D02*
X78251009Y-37361786D01*
X78251009Y-37361786D02*
X78203390Y-37409405D01*
X78203390Y-37409405D02*
X78155771Y-37504643D01*
X78155771Y-37504643D02*
X78155771Y-37742738D01*
X78155771Y-37742738D02*
X78203390Y-37837976D01*
X78203390Y-37837976D02*
X78251009Y-37885595D01*
X78251009Y-37885595D02*
X78346247Y-37933214D01*
X78346247Y-37933214D02*
X78584342Y-37933214D01*
X78584342Y-37933214D02*
X78679580Y-37885595D01*
X78679580Y-37885595D02*
X78727200Y-37837976D01*
X78727200Y-37837976D02*
X78774819Y-37742738D01*
X78774819Y-37742738D02*
X78774819Y-37504643D01*
X78774819Y-37504643D02*
X78727200Y-37409405D01*
X78727200Y-37409405D02*
X78679580Y-37361786D01*
X78454819Y-40695595D02*
X77454819Y-40695595D01*
X78454819Y-41267023D02*
X77883390Y-40838452D01*
X77454819Y-41267023D02*
X78026247Y-40695595D01*
X59724819Y-31646905D02*
X58724819Y-31646905D01*
X58724819Y-31646905D02*
X58724819Y-31885000D01*
X58724819Y-31885000D02*
X58772438Y-32027857D01*
X58772438Y-32027857D02*
X58867676Y-32123095D01*
X58867676Y-32123095D02*
X58962914Y-32170714D01*
X58962914Y-32170714D02*
X59153390Y-32218333D01*
X59153390Y-32218333D02*
X59296247Y-32218333D01*
X59296247Y-32218333D02*
X59486723Y-32170714D01*
X59486723Y-32170714D02*
X59581961Y-32123095D01*
X59581961Y-32123095D02*
X59677200Y-32027857D01*
X59677200Y-32027857D02*
X59724819Y-31885000D01*
X59724819Y-31885000D02*
X59724819Y-31646905D01*
X59058152Y-33075476D02*
X59724819Y-33075476D01*
X58677200Y-32837381D02*
X59391485Y-32599286D01*
X59391485Y-32599286D02*
X59391485Y-33218333D01*
X116874819Y-102608214D02*
X115874819Y-102608214D01*
X115874819Y-102608214D02*
X115874819Y-102846309D01*
X115874819Y-102846309D02*
X115922438Y-102989166D01*
X115922438Y-102989166D02*
X116017676Y-103084404D01*
X116017676Y-103084404D02*
X116112914Y-103132023D01*
X116112914Y-103132023D02*
X116303390Y-103179642D01*
X116303390Y-103179642D02*
X116446247Y-103179642D01*
X116446247Y-103179642D02*
X116636723Y-103132023D01*
X116636723Y-103132023D02*
X116731961Y-103084404D01*
X116731961Y-103084404D02*
X116827200Y-102989166D01*
X116827200Y-102989166D02*
X116874819Y-102846309D01*
X116874819Y-102846309D02*
X116874819Y-102608214D01*
X115970057Y-103560595D02*
X115922438Y-103608214D01*
X115922438Y-103608214D02*
X115874819Y-103703452D01*
X115874819Y-103703452D02*
X115874819Y-103941547D01*
X115874819Y-103941547D02*
X115922438Y-104036785D01*
X115922438Y-104036785D02*
X115970057Y-104084404D01*
X115970057Y-104084404D02*
X116065295Y-104132023D01*
X116065295Y-104132023D02*
X116160533Y-104132023D01*
X116160533Y-104132023D02*
X116303390Y-104084404D01*
X116303390Y-104084404D02*
X116874819Y-103512976D01*
X116874819Y-103512976D02*
X116874819Y-104132023D01*
X115874819Y-104465357D02*
X115874819Y-105084404D01*
X115874819Y-105084404D02*
X116255771Y-104751071D01*
X116255771Y-104751071D02*
X116255771Y-104893928D01*
X116255771Y-104893928D02*
X116303390Y-104989166D01*
X116303390Y-104989166D02*
X116351009Y-105036785D01*
X116351009Y-105036785D02*
X116446247Y-105084404D01*
X116446247Y-105084404D02*
X116684342Y-105084404D01*
X116684342Y-105084404D02*
X116779580Y-105036785D01*
X116779580Y-105036785D02*
X116827200Y-104989166D01*
X116827200Y-104989166D02*
X116874819Y-104893928D01*
X116874819Y-104893928D02*
X116874819Y-104608214D01*
X116874819Y-104608214D02*
X116827200Y-104512976D01*
X116827200Y-104512976D02*
X116779580Y-104465357D01*
X116554819Y-107370595D02*
X115554819Y-107370595D01*
X116554819Y-107942023D02*
X115983390Y-107513452D01*
X115554819Y-107942023D02*
X116126247Y-107370595D01*
X254987319Y-78795714D02*
X253987319Y-78795714D01*
X253987319Y-78795714D02*
X253987319Y-79033809D01*
X253987319Y-79033809D02*
X254034938Y-79176666D01*
X254034938Y-79176666D02*
X254130176Y-79271904D01*
X254130176Y-79271904D02*
X254225414Y-79319523D01*
X254225414Y-79319523D02*
X254415890Y-79367142D01*
X254415890Y-79367142D02*
X254558747Y-79367142D01*
X254558747Y-79367142D02*
X254749223Y-79319523D01*
X254749223Y-79319523D02*
X254844461Y-79271904D01*
X254844461Y-79271904D02*
X254939700Y-79176666D01*
X254939700Y-79176666D02*
X254987319Y-79033809D01*
X254987319Y-79033809D02*
X254987319Y-78795714D01*
X254320652Y-80224285D02*
X254987319Y-80224285D01*
X253939700Y-79986190D02*
X254653985Y-79748095D01*
X254653985Y-79748095D02*
X254653985Y-80367142D01*
X254082557Y-80700476D02*
X254034938Y-80748095D01*
X254034938Y-80748095D02*
X253987319Y-80843333D01*
X253987319Y-80843333D02*
X253987319Y-81081428D01*
X253987319Y-81081428D02*
X254034938Y-81176666D01*
X254034938Y-81176666D02*
X254082557Y-81224285D01*
X254082557Y-81224285D02*
X254177795Y-81271904D01*
X254177795Y-81271904D02*
X254273033Y-81271904D01*
X254273033Y-81271904D02*
X254415890Y-81224285D01*
X254415890Y-81224285D02*
X254987319Y-80652857D01*
X254987319Y-80652857D02*
X254987319Y-81271904D01*
X254667319Y-83558095D02*
X253667319Y-83558095D01*
X254667319Y-84129523D02*
X254095890Y-83700952D01*
X253667319Y-84129523D02*
X254238747Y-83558095D01*
X40674819Y-55459405D02*
X39674819Y-55459405D01*
X39674819Y-55459405D02*
X39674819Y-55697500D01*
X39674819Y-55697500D02*
X39722438Y-55840357D01*
X39722438Y-55840357D02*
X39817676Y-55935595D01*
X39817676Y-55935595D02*
X39912914Y-55983214D01*
X39912914Y-55983214D02*
X40103390Y-56030833D01*
X40103390Y-56030833D02*
X40246247Y-56030833D01*
X40246247Y-56030833D02*
X40436723Y-55983214D01*
X40436723Y-55983214D02*
X40531961Y-55935595D01*
X40531961Y-55935595D02*
X40627200Y-55840357D01*
X40627200Y-55840357D02*
X40674819Y-55697500D01*
X40674819Y-55697500D02*
X40674819Y-55459405D01*
X40674819Y-56507024D02*
X40674819Y-56697500D01*
X40674819Y-56697500D02*
X40627200Y-56792738D01*
X40627200Y-56792738D02*
X40579580Y-56840357D01*
X40579580Y-56840357D02*
X40436723Y-56935595D01*
X40436723Y-56935595D02*
X40246247Y-56983214D01*
X40246247Y-56983214D02*
X39865295Y-56983214D01*
X39865295Y-56983214D02*
X39770057Y-56935595D01*
X39770057Y-56935595D02*
X39722438Y-56887976D01*
X39722438Y-56887976D02*
X39674819Y-56792738D01*
X39674819Y-56792738D02*
X39674819Y-56602262D01*
X39674819Y-56602262D02*
X39722438Y-56507024D01*
X39722438Y-56507024D02*
X39770057Y-56459405D01*
X39770057Y-56459405D02*
X39865295Y-56411786D01*
X39865295Y-56411786D02*
X40103390Y-56411786D01*
X40103390Y-56411786D02*
X40198628Y-56459405D01*
X40198628Y-56459405D02*
X40246247Y-56507024D01*
X40246247Y-56507024D02*
X40293866Y-56602262D01*
X40293866Y-56602262D02*
X40293866Y-56792738D01*
X40293866Y-56792738D02*
X40246247Y-56887976D01*
X40246247Y-56887976D02*
X40198628Y-56935595D01*
X40198628Y-56935595D02*
X40103390Y-56983214D01*
X40354819Y-59745595D02*
X39354819Y-59745595D01*
X40354819Y-60317023D02*
X39783390Y-59888452D01*
X39354819Y-60317023D02*
X39926247Y-59745595D01*
X235937319Y-78795714D02*
X234937319Y-78795714D01*
X234937319Y-78795714D02*
X234937319Y-79033809D01*
X234937319Y-79033809D02*
X234984938Y-79176666D01*
X234984938Y-79176666D02*
X235080176Y-79271904D01*
X235080176Y-79271904D02*
X235175414Y-79319523D01*
X235175414Y-79319523D02*
X235365890Y-79367142D01*
X235365890Y-79367142D02*
X235508747Y-79367142D01*
X235508747Y-79367142D02*
X235699223Y-79319523D01*
X235699223Y-79319523D02*
X235794461Y-79271904D01*
X235794461Y-79271904D02*
X235889700Y-79176666D01*
X235889700Y-79176666D02*
X235937319Y-79033809D01*
X235937319Y-79033809D02*
X235937319Y-78795714D01*
X235270652Y-80224285D02*
X235937319Y-80224285D01*
X234889700Y-79986190D02*
X235603985Y-79748095D01*
X235603985Y-79748095D02*
X235603985Y-80367142D01*
X235937319Y-81271904D02*
X235937319Y-80700476D01*
X235937319Y-80986190D02*
X234937319Y-80986190D01*
X234937319Y-80986190D02*
X235080176Y-80890952D01*
X235080176Y-80890952D02*
X235175414Y-80795714D01*
X235175414Y-80795714D02*
X235223033Y-80700476D01*
X235617319Y-83558095D02*
X234617319Y-83558095D01*
X235617319Y-84129523D02*
X235045890Y-83700952D01*
X234617319Y-84129523D02*
X235188747Y-83558095D01*
X36434819Y-93083214D02*
X35434819Y-93083214D01*
X35434819Y-93083214D02*
X35434819Y-93321309D01*
X35434819Y-93321309D02*
X35482438Y-93464166D01*
X35482438Y-93464166D02*
X35577676Y-93559404D01*
X35577676Y-93559404D02*
X35672914Y-93607023D01*
X35672914Y-93607023D02*
X35863390Y-93654642D01*
X35863390Y-93654642D02*
X36006247Y-93654642D01*
X36006247Y-93654642D02*
X36196723Y-93607023D01*
X36196723Y-93607023D02*
X36291961Y-93559404D01*
X36291961Y-93559404D02*
X36387200Y-93464166D01*
X36387200Y-93464166D02*
X36434819Y-93321309D01*
X36434819Y-93321309D02*
X36434819Y-93083214D01*
X35768152Y-94511785D02*
X36434819Y-94511785D01*
X35387200Y-94273690D02*
X36101485Y-94035595D01*
X36101485Y-94035595D02*
X36101485Y-94654642D01*
X35434819Y-94940357D02*
X35434819Y-95607023D01*
X35434819Y-95607023D02*
X36434819Y-95178452D01*
X36754819Y-90225595D02*
X35754819Y-90225595D01*
X36754819Y-90797023D02*
X36183390Y-90368452D01*
X35754819Y-90797023D02*
X36326247Y-90225595D01*
X140687319Y-78795714D02*
X139687319Y-78795714D01*
X139687319Y-78795714D02*
X139687319Y-79033809D01*
X139687319Y-79033809D02*
X139734938Y-79176666D01*
X139734938Y-79176666D02*
X139830176Y-79271904D01*
X139830176Y-79271904D02*
X139925414Y-79319523D01*
X139925414Y-79319523D02*
X140115890Y-79367142D01*
X140115890Y-79367142D02*
X140258747Y-79367142D01*
X140258747Y-79367142D02*
X140449223Y-79319523D01*
X140449223Y-79319523D02*
X140544461Y-79271904D01*
X140544461Y-79271904D02*
X140639700Y-79176666D01*
X140639700Y-79176666D02*
X140687319Y-79033809D01*
X140687319Y-79033809D02*
X140687319Y-78795714D01*
X139687319Y-79700476D02*
X139687319Y-80319523D01*
X139687319Y-80319523D02*
X140068271Y-79986190D01*
X140068271Y-79986190D02*
X140068271Y-80129047D01*
X140068271Y-80129047D02*
X140115890Y-80224285D01*
X140115890Y-80224285D02*
X140163509Y-80271904D01*
X140163509Y-80271904D02*
X140258747Y-80319523D01*
X140258747Y-80319523D02*
X140496842Y-80319523D01*
X140496842Y-80319523D02*
X140592080Y-80271904D01*
X140592080Y-80271904D02*
X140639700Y-80224285D01*
X140639700Y-80224285D02*
X140687319Y-80129047D01*
X140687319Y-80129047D02*
X140687319Y-79843333D01*
X140687319Y-79843333D02*
X140639700Y-79748095D01*
X140639700Y-79748095D02*
X140592080Y-79700476D01*
X139687319Y-81176666D02*
X139687319Y-80986190D01*
X139687319Y-80986190D02*
X139734938Y-80890952D01*
X139734938Y-80890952D02*
X139782557Y-80843333D01*
X139782557Y-80843333D02*
X139925414Y-80748095D01*
X139925414Y-80748095D02*
X140115890Y-80700476D01*
X140115890Y-80700476D02*
X140496842Y-80700476D01*
X140496842Y-80700476D02*
X140592080Y-80748095D01*
X140592080Y-80748095D02*
X140639700Y-80795714D01*
X140639700Y-80795714D02*
X140687319Y-80890952D01*
X140687319Y-80890952D02*
X140687319Y-81081428D01*
X140687319Y-81081428D02*
X140639700Y-81176666D01*
X140639700Y-81176666D02*
X140592080Y-81224285D01*
X140592080Y-81224285D02*
X140496842Y-81271904D01*
X140496842Y-81271904D02*
X140258747Y-81271904D01*
X140258747Y-81271904D02*
X140163509Y-81224285D01*
X140163509Y-81224285D02*
X140115890Y-81176666D01*
X140115890Y-81176666D02*
X140068271Y-81081428D01*
X140068271Y-81081428D02*
X140068271Y-80890952D01*
X140068271Y-80890952D02*
X140115890Y-80795714D01*
X140115890Y-80795714D02*
X140163509Y-80748095D01*
X140163509Y-80748095D02*
X140258747Y-80700476D01*
X140367319Y-83558095D02*
X139367319Y-83558095D01*
X140367319Y-84129523D02*
X139795890Y-83700952D01*
X139367319Y-84129523D02*
X139938747Y-83558095D01*
X2574819Y-41171905D02*
X1574819Y-41171905D01*
X1574819Y-41171905D02*
X1574819Y-41410000D01*
X1574819Y-41410000D02*
X1622438Y-41552857D01*
X1622438Y-41552857D02*
X1717676Y-41648095D01*
X1717676Y-41648095D02*
X1812914Y-41695714D01*
X1812914Y-41695714D02*
X2003390Y-41743333D01*
X2003390Y-41743333D02*
X2146247Y-41743333D01*
X2146247Y-41743333D02*
X2336723Y-41695714D01*
X2336723Y-41695714D02*
X2431961Y-41648095D01*
X2431961Y-41648095D02*
X2527200Y-41552857D01*
X2527200Y-41552857D02*
X2574819Y-41410000D01*
X2574819Y-41410000D02*
X2574819Y-41171905D01*
X2574819Y-42695714D02*
X2574819Y-42124286D01*
X2574819Y-42410000D02*
X1574819Y-42410000D01*
X1574819Y-42410000D02*
X1717676Y-42314762D01*
X1717676Y-42314762D02*
X1812914Y-42219524D01*
X1812914Y-42219524D02*
X1860533Y-42124286D01*
X2254819Y-45458095D02*
X1254819Y-45458095D01*
X2254819Y-46029523D02*
X1683390Y-45600952D01*
X1254819Y-46029523D02*
X1826247Y-45458095D01*
X159737319Y-40695714D02*
X158737319Y-40695714D01*
X158737319Y-40695714D02*
X158737319Y-40933809D01*
X158737319Y-40933809D02*
X158784938Y-41076666D01*
X158784938Y-41076666D02*
X158880176Y-41171904D01*
X158880176Y-41171904D02*
X158975414Y-41219523D01*
X158975414Y-41219523D02*
X159165890Y-41267142D01*
X159165890Y-41267142D02*
X159308747Y-41267142D01*
X159308747Y-41267142D02*
X159499223Y-41219523D01*
X159499223Y-41219523D02*
X159594461Y-41171904D01*
X159594461Y-41171904D02*
X159689700Y-41076666D01*
X159689700Y-41076666D02*
X159737319Y-40933809D01*
X159737319Y-40933809D02*
X159737319Y-40695714D01*
X158832557Y-41648095D02*
X158784938Y-41695714D01*
X158784938Y-41695714D02*
X158737319Y-41790952D01*
X158737319Y-41790952D02*
X158737319Y-42029047D01*
X158737319Y-42029047D02*
X158784938Y-42124285D01*
X158784938Y-42124285D02*
X158832557Y-42171904D01*
X158832557Y-42171904D02*
X158927795Y-42219523D01*
X158927795Y-42219523D02*
X159023033Y-42219523D01*
X159023033Y-42219523D02*
X159165890Y-42171904D01*
X159165890Y-42171904D02*
X159737319Y-41600476D01*
X159737319Y-41600476D02*
X159737319Y-42219523D01*
X159070652Y-43076666D02*
X159737319Y-43076666D01*
X158689700Y-42838571D02*
X159403985Y-42600476D01*
X159403985Y-42600476D02*
X159403985Y-43219523D01*
X159417319Y-45458095D02*
X158417319Y-45458095D01*
X159417319Y-46029523D02*
X158845890Y-45600952D01*
X158417319Y-46029523D02*
X158988747Y-45458095D01*
X2574819Y-60221905D02*
X1574819Y-60221905D01*
X1574819Y-60221905D02*
X1574819Y-60460000D01*
X1574819Y-60460000D02*
X1622438Y-60602857D01*
X1622438Y-60602857D02*
X1717676Y-60698095D01*
X1717676Y-60698095D02*
X1812914Y-60745714D01*
X1812914Y-60745714D02*
X2003390Y-60793333D01*
X2003390Y-60793333D02*
X2146247Y-60793333D01*
X2146247Y-60793333D02*
X2336723Y-60745714D01*
X2336723Y-60745714D02*
X2431961Y-60698095D01*
X2431961Y-60698095D02*
X2527200Y-60602857D01*
X2527200Y-60602857D02*
X2574819Y-60460000D01*
X2574819Y-60460000D02*
X2574819Y-60221905D01*
X1574819Y-61126667D02*
X1574819Y-61793333D01*
X1574819Y-61793333D02*
X2574819Y-61364762D01*
X2254819Y-64508095D02*
X1254819Y-64508095D01*
X2254819Y-65079523D02*
X1683390Y-64650952D01*
X1254819Y-65079523D02*
X1826247Y-64508095D01*
X97824819Y-78795714D02*
X96824819Y-78795714D01*
X96824819Y-78795714D02*
X96824819Y-79033809D01*
X96824819Y-79033809D02*
X96872438Y-79176666D01*
X96872438Y-79176666D02*
X96967676Y-79271904D01*
X96967676Y-79271904D02*
X97062914Y-79319523D01*
X97062914Y-79319523D02*
X97253390Y-79367142D01*
X97253390Y-79367142D02*
X97396247Y-79367142D01*
X97396247Y-79367142D02*
X97586723Y-79319523D01*
X97586723Y-79319523D02*
X97681961Y-79271904D01*
X97681961Y-79271904D02*
X97777200Y-79176666D01*
X97777200Y-79176666D02*
X97824819Y-79033809D01*
X97824819Y-79033809D02*
X97824819Y-78795714D01*
X97824819Y-80319523D02*
X97824819Y-79748095D01*
X97824819Y-80033809D02*
X96824819Y-80033809D01*
X96824819Y-80033809D02*
X96967676Y-79938571D01*
X96967676Y-79938571D02*
X97062914Y-79843333D01*
X97062914Y-79843333D02*
X97110533Y-79748095D01*
X97253390Y-80890952D02*
X97205771Y-80795714D01*
X97205771Y-80795714D02*
X97158152Y-80748095D01*
X97158152Y-80748095D02*
X97062914Y-80700476D01*
X97062914Y-80700476D02*
X97015295Y-80700476D01*
X97015295Y-80700476D02*
X96920057Y-80748095D01*
X96920057Y-80748095D02*
X96872438Y-80795714D01*
X96872438Y-80795714D02*
X96824819Y-80890952D01*
X96824819Y-80890952D02*
X96824819Y-81081428D01*
X96824819Y-81081428D02*
X96872438Y-81176666D01*
X96872438Y-81176666D02*
X96920057Y-81224285D01*
X96920057Y-81224285D02*
X97015295Y-81271904D01*
X97015295Y-81271904D02*
X97062914Y-81271904D01*
X97062914Y-81271904D02*
X97158152Y-81224285D01*
X97158152Y-81224285D02*
X97205771Y-81176666D01*
X97205771Y-81176666D02*
X97253390Y-81081428D01*
X97253390Y-81081428D02*
X97253390Y-80890952D01*
X97253390Y-80890952D02*
X97301009Y-80795714D01*
X97301009Y-80795714D02*
X97348628Y-80748095D01*
X97348628Y-80748095D02*
X97443866Y-80700476D01*
X97443866Y-80700476D02*
X97634342Y-80700476D01*
X97634342Y-80700476D02*
X97729580Y-80748095D01*
X97729580Y-80748095D02*
X97777200Y-80795714D01*
X97777200Y-80795714D02*
X97824819Y-80890952D01*
X97824819Y-80890952D02*
X97824819Y-81081428D01*
X97824819Y-81081428D02*
X97777200Y-81176666D01*
X97777200Y-81176666D02*
X97729580Y-81224285D01*
X97729580Y-81224285D02*
X97634342Y-81271904D01*
X97634342Y-81271904D02*
X97443866Y-81271904D01*
X97443866Y-81271904D02*
X97348628Y-81224285D01*
X97348628Y-81224285D02*
X97301009Y-81176666D01*
X97301009Y-81176666D02*
X97253390Y-81081428D01*
X97504819Y-83558095D02*
X96504819Y-83558095D01*
X97504819Y-84129523D02*
X96933390Y-83700952D01*
X96504819Y-84129523D02*
X97076247Y-83558095D01*
X97824819Y-41171905D02*
X96824819Y-41171905D01*
X96824819Y-41171905D02*
X96824819Y-41410000D01*
X96824819Y-41410000D02*
X96872438Y-41552857D01*
X96872438Y-41552857D02*
X96967676Y-41648095D01*
X96967676Y-41648095D02*
X97062914Y-41695714D01*
X97062914Y-41695714D02*
X97253390Y-41743333D01*
X97253390Y-41743333D02*
X97396247Y-41743333D01*
X97396247Y-41743333D02*
X97586723Y-41695714D01*
X97586723Y-41695714D02*
X97681961Y-41648095D01*
X97681961Y-41648095D02*
X97777200Y-41552857D01*
X97777200Y-41552857D02*
X97824819Y-41410000D01*
X97824819Y-41410000D02*
X97824819Y-41171905D01*
X96824819Y-42600476D02*
X96824819Y-42410000D01*
X96824819Y-42410000D02*
X96872438Y-42314762D01*
X96872438Y-42314762D02*
X96920057Y-42267143D01*
X96920057Y-42267143D02*
X97062914Y-42171905D01*
X97062914Y-42171905D02*
X97253390Y-42124286D01*
X97253390Y-42124286D02*
X97634342Y-42124286D01*
X97634342Y-42124286D02*
X97729580Y-42171905D01*
X97729580Y-42171905D02*
X97777200Y-42219524D01*
X97777200Y-42219524D02*
X97824819Y-42314762D01*
X97824819Y-42314762D02*
X97824819Y-42505238D01*
X97824819Y-42505238D02*
X97777200Y-42600476D01*
X97777200Y-42600476D02*
X97729580Y-42648095D01*
X97729580Y-42648095D02*
X97634342Y-42695714D01*
X97634342Y-42695714D02*
X97396247Y-42695714D01*
X97396247Y-42695714D02*
X97301009Y-42648095D01*
X97301009Y-42648095D02*
X97253390Y-42600476D01*
X97253390Y-42600476D02*
X97205771Y-42505238D01*
X97205771Y-42505238D02*
X97205771Y-42314762D01*
X97205771Y-42314762D02*
X97253390Y-42219524D01*
X97253390Y-42219524D02*
X97301009Y-42171905D01*
X97301009Y-42171905D02*
X97396247Y-42124286D01*
X97504819Y-45458095D02*
X96504819Y-45458095D01*
X97504819Y-46029523D02*
X96933390Y-45600952D01*
X96504819Y-46029523D02*
X97076247Y-45458095D01*
X78774819Y-74033214D02*
X77774819Y-74033214D01*
X77774819Y-74033214D02*
X77774819Y-74271309D01*
X77774819Y-74271309D02*
X77822438Y-74414166D01*
X77822438Y-74414166D02*
X77917676Y-74509404D01*
X77917676Y-74509404D02*
X78012914Y-74557023D01*
X78012914Y-74557023D02*
X78203390Y-74604642D01*
X78203390Y-74604642D02*
X78346247Y-74604642D01*
X78346247Y-74604642D02*
X78536723Y-74557023D01*
X78536723Y-74557023D02*
X78631961Y-74509404D01*
X78631961Y-74509404D02*
X78727200Y-74414166D01*
X78727200Y-74414166D02*
X78774819Y-74271309D01*
X78774819Y-74271309D02*
X78774819Y-74033214D01*
X78774819Y-75557023D02*
X78774819Y-74985595D01*
X78774819Y-75271309D02*
X77774819Y-75271309D01*
X77774819Y-75271309D02*
X77917676Y-75176071D01*
X77917676Y-75176071D02*
X78012914Y-75080833D01*
X78012914Y-75080833D02*
X78060533Y-74985595D01*
X77774819Y-75890357D02*
X77774819Y-76557023D01*
X77774819Y-76557023D02*
X78774819Y-76128452D01*
X78454819Y-78795595D02*
X77454819Y-78795595D01*
X78454819Y-79367023D02*
X77883390Y-78938452D01*
X77454819Y-79367023D02*
X78026247Y-78795595D01*
X21624819Y-78795714D02*
X20624819Y-78795714D01*
X20624819Y-78795714D02*
X20624819Y-79033809D01*
X20624819Y-79033809D02*
X20672438Y-79176666D01*
X20672438Y-79176666D02*
X20767676Y-79271904D01*
X20767676Y-79271904D02*
X20862914Y-79319523D01*
X20862914Y-79319523D02*
X21053390Y-79367142D01*
X21053390Y-79367142D02*
X21196247Y-79367142D01*
X21196247Y-79367142D02*
X21386723Y-79319523D01*
X21386723Y-79319523D02*
X21481961Y-79271904D01*
X21481961Y-79271904D02*
X21577200Y-79176666D01*
X21577200Y-79176666D02*
X21624819Y-79033809D01*
X21624819Y-79033809D02*
X21624819Y-78795714D01*
X21624819Y-80319523D02*
X21624819Y-79748095D01*
X21624819Y-80033809D02*
X20624819Y-80033809D01*
X20624819Y-80033809D02*
X20767676Y-79938571D01*
X20767676Y-79938571D02*
X20862914Y-79843333D01*
X20862914Y-79843333D02*
X20910533Y-79748095D01*
X20958152Y-81176666D02*
X21624819Y-81176666D01*
X20577200Y-80938571D02*
X21291485Y-80700476D01*
X21291485Y-80700476D02*
X21291485Y-81319523D01*
X21304819Y-83558095D02*
X20304819Y-83558095D01*
X21304819Y-84129523D02*
X20733390Y-83700952D01*
X20304819Y-84129523D02*
X20876247Y-83558095D01*
X159737319Y-78795714D02*
X158737319Y-78795714D01*
X158737319Y-78795714D02*
X158737319Y-79033809D01*
X158737319Y-79033809D02*
X158784938Y-79176666D01*
X158784938Y-79176666D02*
X158880176Y-79271904D01*
X158880176Y-79271904D02*
X158975414Y-79319523D01*
X158975414Y-79319523D02*
X159165890Y-79367142D01*
X159165890Y-79367142D02*
X159308747Y-79367142D01*
X159308747Y-79367142D02*
X159499223Y-79319523D01*
X159499223Y-79319523D02*
X159594461Y-79271904D01*
X159594461Y-79271904D02*
X159689700Y-79176666D01*
X159689700Y-79176666D02*
X159737319Y-79033809D01*
X159737319Y-79033809D02*
X159737319Y-78795714D01*
X158737319Y-79700476D02*
X158737319Y-80319523D01*
X158737319Y-80319523D02*
X159118271Y-79986190D01*
X159118271Y-79986190D02*
X159118271Y-80129047D01*
X159118271Y-80129047D02*
X159165890Y-80224285D01*
X159165890Y-80224285D02*
X159213509Y-80271904D01*
X159213509Y-80271904D02*
X159308747Y-80319523D01*
X159308747Y-80319523D02*
X159546842Y-80319523D01*
X159546842Y-80319523D02*
X159642080Y-80271904D01*
X159642080Y-80271904D02*
X159689700Y-80224285D01*
X159689700Y-80224285D02*
X159737319Y-80129047D01*
X159737319Y-80129047D02*
X159737319Y-79843333D01*
X159737319Y-79843333D02*
X159689700Y-79748095D01*
X159689700Y-79748095D02*
X159642080Y-79700476D01*
X158737319Y-80652857D02*
X158737319Y-81319523D01*
X158737319Y-81319523D02*
X159737319Y-80890952D01*
X159417319Y-83558095D02*
X158417319Y-83558095D01*
X159417319Y-84129523D02*
X158845890Y-83700952D01*
X158417319Y-84129523D02*
X158988747Y-83558095D01*
X254987319Y-40695714D02*
X253987319Y-40695714D01*
X253987319Y-40695714D02*
X253987319Y-40933809D01*
X253987319Y-40933809D02*
X254034938Y-41076666D01*
X254034938Y-41076666D02*
X254130176Y-41171904D01*
X254130176Y-41171904D02*
X254225414Y-41219523D01*
X254225414Y-41219523D02*
X254415890Y-41267142D01*
X254415890Y-41267142D02*
X254558747Y-41267142D01*
X254558747Y-41267142D02*
X254749223Y-41219523D01*
X254749223Y-41219523D02*
X254844461Y-41171904D01*
X254844461Y-41171904D02*
X254939700Y-41076666D01*
X254939700Y-41076666D02*
X254987319Y-40933809D01*
X254987319Y-40933809D02*
X254987319Y-40695714D01*
X254082557Y-41648095D02*
X254034938Y-41695714D01*
X254034938Y-41695714D02*
X253987319Y-41790952D01*
X253987319Y-41790952D02*
X253987319Y-42029047D01*
X253987319Y-42029047D02*
X254034938Y-42124285D01*
X254034938Y-42124285D02*
X254082557Y-42171904D01*
X254082557Y-42171904D02*
X254177795Y-42219523D01*
X254177795Y-42219523D02*
X254273033Y-42219523D01*
X254273033Y-42219523D02*
X254415890Y-42171904D01*
X254415890Y-42171904D02*
X254987319Y-41600476D01*
X254987319Y-41600476D02*
X254987319Y-42219523D01*
X254987319Y-42695714D02*
X254987319Y-42886190D01*
X254987319Y-42886190D02*
X254939700Y-42981428D01*
X254939700Y-42981428D02*
X254892080Y-43029047D01*
X254892080Y-43029047D02*
X254749223Y-43124285D01*
X254749223Y-43124285D02*
X254558747Y-43171904D01*
X254558747Y-43171904D02*
X254177795Y-43171904D01*
X254177795Y-43171904D02*
X254082557Y-43124285D01*
X254082557Y-43124285D02*
X254034938Y-43076666D01*
X254034938Y-43076666D02*
X253987319Y-42981428D01*
X253987319Y-42981428D02*
X253987319Y-42790952D01*
X253987319Y-42790952D02*
X254034938Y-42695714D01*
X254034938Y-42695714D02*
X254082557Y-42648095D01*
X254082557Y-42648095D02*
X254177795Y-42600476D01*
X254177795Y-42600476D02*
X254415890Y-42600476D01*
X254415890Y-42600476D02*
X254511128Y-42648095D01*
X254511128Y-42648095D02*
X254558747Y-42695714D01*
X254558747Y-42695714D02*
X254606366Y-42790952D01*
X254606366Y-42790952D02*
X254606366Y-42981428D01*
X254606366Y-42981428D02*
X254558747Y-43076666D01*
X254558747Y-43076666D02*
X254511128Y-43124285D01*
X254511128Y-43124285D02*
X254415890Y-43171904D01*
X254667319Y-45458095D02*
X253667319Y-45458095D01*
X254667319Y-46029523D02*
X254095890Y-45600952D01*
X253667319Y-46029523D02*
X254238747Y-45458095D01*
X21624819Y-41171905D02*
X20624819Y-41171905D01*
X20624819Y-41171905D02*
X20624819Y-41410000D01*
X20624819Y-41410000D02*
X20672438Y-41552857D01*
X20672438Y-41552857D02*
X20767676Y-41648095D01*
X20767676Y-41648095D02*
X20862914Y-41695714D01*
X20862914Y-41695714D02*
X21053390Y-41743333D01*
X21053390Y-41743333D02*
X21196247Y-41743333D01*
X21196247Y-41743333D02*
X21386723Y-41695714D01*
X21386723Y-41695714D02*
X21481961Y-41648095D01*
X21481961Y-41648095D02*
X21577200Y-41552857D01*
X21577200Y-41552857D02*
X21624819Y-41410000D01*
X21624819Y-41410000D02*
X21624819Y-41171905D01*
X20720057Y-42124286D02*
X20672438Y-42171905D01*
X20672438Y-42171905D02*
X20624819Y-42267143D01*
X20624819Y-42267143D02*
X20624819Y-42505238D01*
X20624819Y-42505238D02*
X20672438Y-42600476D01*
X20672438Y-42600476D02*
X20720057Y-42648095D01*
X20720057Y-42648095D02*
X20815295Y-42695714D01*
X20815295Y-42695714D02*
X20910533Y-42695714D01*
X20910533Y-42695714D02*
X21053390Y-42648095D01*
X21053390Y-42648095D02*
X21624819Y-42076667D01*
X21624819Y-42076667D02*
X21624819Y-42695714D01*
X21304819Y-45458095D02*
X20304819Y-45458095D01*
X21304819Y-46029523D02*
X20733390Y-45600952D01*
X20304819Y-46029523D02*
X20876247Y-45458095D01*
X2574819Y-78795714D02*
X1574819Y-78795714D01*
X1574819Y-78795714D02*
X1574819Y-79033809D01*
X1574819Y-79033809D02*
X1622438Y-79176666D01*
X1622438Y-79176666D02*
X1717676Y-79271904D01*
X1717676Y-79271904D02*
X1812914Y-79319523D01*
X1812914Y-79319523D02*
X2003390Y-79367142D01*
X2003390Y-79367142D02*
X2146247Y-79367142D01*
X2146247Y-79367142D02*
X2336723Y-79319523D01*
X2336723Y-79319523D02*
X2431961Y-79271904D01*
X2431961Y-79271904D02*
X2527200Y-79176666D01*
X2527200Y-79176666D02*
X2574819Y-79033809D01*
X2574819Y-79033809D02*
X2574819Y-78795714D01*
X2574819Y-80319523D02*
X2574819Y-79748095D01*
X2574819Y-80033809D02*
X1574819Y-80033809D01*
X1574819Y-80033809D02*
X1717676Y-79938571D01*
X1717676Y-79938571D02*
X1812914Y-79843333D01*
X1812914Y-79843333D02*
X1860533Y-79748095D01*
X1574819Y-80652857D02*
X1574819Y-81271904D01*
X1574819Y-81271904D02*
X1955771Y-80938571D01*
X1955771Y-80938571D02*
X1955771Y-81081428D01*
X1955771Y-81081428D02*
X2003390Y-81176666D01*
X2003390Y-81176666D02*
X2051009Y-81224285D01*
X2051009Y-81224285D02*
X2146247Y-81271904D01*
X2146247Y-81271904D02*
X2384342Y-81271904D01*
X2384342Y-81271904D02*
X2479580Y-81224285D01*
X2479580Y-81224285D02*
X2527200Y-81176666D01*
X2527200Y-81176666D02*
X2574819Y-81081428D01*
X2574819Y-81081428D02*
X2574819Y-80795714D01*
X2574819Y-80795714D02*
X2527200Y-80700476D01*
X2527200Y-80700476D02*
X2479580Y-80652857D01*
X2254819Y-83558095D02*
X1254819Y-83558095D01*
X2254819Y-84129523D02*
X1683390Y-83700952D01*
X1254819Y-84129523D02*
X1826247Y-83558095D01*
X235937319Y-59745714D02*
X234937319Y-59745714D01*
X234937319Y-59745714D02*
X234937319Y-59983809D01*
X234937319Y-59983809D02*
X234984938Y-60126666D01*
X234984938Y-60126666D02*
X235080176Y-60221904D01*
X235080176Y-60221904D02*
X235175414Y-60269523D01*
X235175414Y-60269523D02*
X235365890Y-60317142D01*
X235365890Y-60317142D02*
X235508747Y-60317142D01*
X235508747Y-60317142D02*
X235699223Y-60269523D01*
X235699223Y-60269523D02*
X235794461Y-60221904D01*
X235794461Y-60221904D02*
X235889700Y-60126666D01*
X235889700Y-60126666D02*
X235937319Y-59983809D01*
X235937319Y-59983809D02*
X235937319Y-59745714D01*
X234937319Y-60650476D02*
X234937319Y-61269523D01*
X234937319Y-61269523D02*
X235318271Y-60936190D01*
X235318271Y-60936190D02*
X235318271Y-61079047D01*
X235318271Y-61079047D02*
X235365890Y-61174285D01*
X235365890Y-61174285D02*
X235413509Y-61221904D01*
X235413509Y-61221904D02*
X235508747Y-61269523D01*
X235508747Y-61269523D02*
X235746842Y-61269523D01*
X235746842Y-61269523D02*
X235842080Y-61221904D01*
X235842080Y-61221904D02*
X235889700Y-61174285D01*
X235889700Y-61174285D02*
X235937319Y-61079047D01*
X235937319Y-61079047D02*
X235937319Y-60793333D01*
X235937319Y-60793333D02*
X235889700Y-60698095D01*
X235889700Y-60698095D02*
X235842080Y-60650476D01*
X235270652Y-62126666D02*
X235937319Y-62126666D01*
X234889700Y-61888571D02*
X235603985Y-61650476D01*
X235603985Y-61650476D02*
X235603985Y-62269523D01*
X235617319Y-64508095D02*
X234617319Y-64508095D01*
X235617319Y-65079523D02*
X235045890Y-64650952D01*
X234617319Y-65079523D02*
X235188747Y-64508095D01*
X197837319Y-69270714D02*
X196837319Y-69270714D01*
X196837319Y-69270714D02*
X196837319Y-69508809D01*
X196837319Y-69508809D02*
X196884938Y-69651666D01*
X196884938Y-69651666D02*
X196980176Y-69746904D01*
X196980176Y-69746904D02*
X197075414Y-69794523D01*
X197075414Y-69794523D02*
X197265890Y-69842142D01*
X197265890Y-69842142D02*
X197408747Y-69842142D01*
X197408747Y-69842142D02*
X197599223Y-69794523D01*
X197599223Y-69794523D02*
X197694461Y-69746904D01*
X197694461Y-69746904D02*
X197789700Y-69651666D01*
X197789700Y-69651666D02*
X197837319Y-69508809D01*
X197837319Y-69508809D02*
X197837319Y-69270714D01*
X196837319Y-70175476D02*
X196837319Y-70794523D01*
X196837319Y-70794523D02*
X197218271Y-70461190D01*
X197218271Y-70461190D02*
X197218271Y-70604047D01*
X197218271Y-70604047D02*
X197265890Y-70699285D01*
X197265890Y-70699285D02*
X197313509Y-70746904D01*
X197313509Y-70746904D02*
X197408747Y-70794523D01*
X197408747Y-70794523D02*
X197646842Y-70794523D01*
X197646842Y-70794523D02*
X197742080Y-70746904D01*
X197742080Y-70746904D02*
X197789700Y-70699285D01*
X197789700Y-70699285D02*
X197837319Y-70604047D01*
X197837319Y-70604047D02*
X197837319Y-70318333D01*
X197837319Y-70318333D02*
X197789700Y-70223095D01*
X197789700Y-70223095D02*
X197742080Y-70175476D01*
X197837319Y-71270714D02*
X197837319Y-71461190D01*
X197837319Y-71461190D02*
X197789700Y-71556428D01*
X197789700Y-71556428D02*
X197742080Y-71604047D01*
X197742080Y-71604047D02*
X197599223Y-71699285D01*
X197599223Y-71699285D02*
X197408747Y-71746904D01*
X197408747Y-71746904D02*
X197027795Y-71746904D01*
X197027795Y-71746904D02*
X196932557Y-71699285D01*
X196932557Y-71699285D02*
X196884938Y-71651666D01*
X196884938Y-71651666D02*
X196837319Y-71556428D01*
X196837319Y-71556428D02*
X196837319Y-71365952D01*
X196837319Y-71365952D02*
X196884938Y-71270714D01*
X196884938Y-71270714D02*
X196932557Y-71223095D01*
X196932557Y-71223095D02*
X197027795Y-71175476D01*
X197027795Y-71175476D02*
X197265890Y-71175476D01*
X197265890Y-71175476D02*
X197361128Y-71223095D01*
X197361128Y-71223095D02*
X197408747Y-71270714D01*
X197408747Y-71270714D02*
X197456366Y-71365952D01*
X197456366Y-71365952D02*
X197456366Y-71556428D01*
X197456366Y-71556428D02*
X197408747Y-71651666D01*
X197408747Y-71651666D02*
X197361128Y-71699285D01*
X197361128Y-71699285D02*
X197265890Y-71746904D01*
X197517319Y-74033095D02*
X196517319Y-74033095D01*
X197517319Y-74604523D02*
X196945890Y-74175952D01*
X196517319Y-74604523D02*
X197088747Y-74033095D01*
X21624819Y-60221905D02*
X20624819Y-60221905D01*
X20624819Y-60221905D02*
X20624819Y-60460000D01*
X20624819Y-60460000D02*
X20672438Y-60602857D01*
X20672438Y-60602857D02*
X20767676Y-60698095D01*
X20767676Y-60698095D02*
X20862914Y-60745714D01*
X20862914Y-60745714D02*
X21053390Y-60793333D01*
X21053390Y-60793333D02*
X21196247Y-60793333D01*
X21196247Y-60793333D02*
X21386723Y-60745714D01*
X21386723Y-60745714D02*
X21481961Y-60698095D01*
X21481961Y-60698095D02*
X21577200Y-60602857D01*
X21577200Y-60602857D02*
X21624819Y-60460000D01*
X21624819Y-60460000D02*
X21624819Y-60221905D01*
X21053390Y-61364762D02*
X21005771Y-61269524D01*
X21005771Y-61269524D02*
X20958152Y-61221905D01*
X20958152Y-61221905D02*
X20862914Y-61174286D01*
X20862914Y-61174286D02*
X20815295Y-61174286D01*
X20815295Y-61174286D02*
X20720057Y-61221905D01*
X20720057Y-61221905D02*
X20672438Y-61269524D01*
X20672438Y-61269524D02*
X20624819Y-61364762D01*
X20624819Y-61364762D02*
X20624819Y-61555238D01*
X20624819Y-61555238D02*
X20672438Y-61650476D01*
X20672438Y-61650476D02*
X20720057Y-61698095D01*
X20720057Y-61698095D02*
X20815295Y-61745714D01*
X20815295Y-61745714D02*
X20862914Y-61745714D01*
X20862914Y-61745714D02*
X20958152Y-61698095D01*
X20958152Y-61698095D02*
X21005771Y-61650476D01*
X21005771Y-61650476D02*
X21053390Y-61555238D01*
X21053390Y-61555238D02*
X21053390Y-61364762D01*
X21053390Y-61364762D02*
X21101009Y-61269524D01*
X21101009Y-61269524D02*
X21148628Y-61221905D01*
X21148628Y-61221905D02*
X21243866Y-61174286D01*
X21243866Y-61174286D02*
X21434342Y-61174286D01*
X21434342Y-61174286D02*
X21529580Y-61221905D01*
X21529580Y-61221905D02*
X21577200Y-61269524D01*
X21577200Y-61269524D02*
X21624819Y-61364762D01*
X21624819Y-61364762D02*
X21624819Y-61555238D01*
X21624819Y-61555238D02*
X21577200Y-61650476D01*
X21577200Y-61650476D02*
X21529580Y-61698095D01*
X21529580Y-61698095D02*
X21434342Y-61745714D01*
X21434342Y-61745714D02*
X21243866Y-61745714D01*
X21243866Y-61745714D02*
X21148628Y-61698095D01*
X21148628Y-61698095D02*
X21101009Y-61650476D01*
X21101009Y-61650476D02*
X21053390Y-61555238D01*
X21304819Y-64508095D02*
X20304819Y-64508095D01*
X21304819Y-65079523D02*
X20733390Y-64650952D01*
X20304819Y-65079523D02*
X20876247Y-64508095D01*
X197837319Y-88320714D02*
X196837319Y-88320714D01*
X196837319Y-88320714D02*
X196837319Y-88558809D01*
X196837319Y-88558809D02*
X196884938Y-88701666D01*
X196884938Y-88701666D02*
X196980176Y-88796904D01*
X196980176Y-88796904D02*
X197075414Y-88844523D01*
X197075414Y-88844523D02*
X197265890Y-88892142D01*
X197265890Y-88892142D02*
X197408747Y-88892142D01*
X197408747Y-88892142D02*
X197599223Y-88844523D01*
X197599223Y-88844523D02*
X197694461Y-88796904D01*
X197694461Y-88796904D02*
X197789700Y-88701666D01*
X197789700Y-88701666D02*
X197837319Y-88558809D01*
X197837319Y-88558809D02*
X197837319Y-88320714D01*
X197170652Y-89749285D02*
X197837319Y-89749285D01*
X196789700Y-89511190D02*
X197503985Y-89273095D01*
X197503985Y-89273095D02*
X197503985Y-89892142D01*
X196837319Y-90701666D02*
X196837319Y-90511190D01*
X196837319Y-90511190D02*
X196884938Y-90415952D01*
X196884938Y-90415952D02*
X196932557Y-90368333D01*
X196932557Y-90368333D02*
X197075414Y-90273095D01*
X197075414Y-90273095D02*
X197265890Y-90225476D01*
X197265890Y-90225476D02*
X197646842Y-90225476D01*
X197646842Y-90225476D02*
X197742080Y-90273095D01*
X197742080Y-90273095D02*
X197789700Y-90320714D01*
X197789700Y-90320714D02*
X197837319Y-90415952D01*
X197837319Y-90415952D02*
X197837319Y-90606428D01*
X197837319Y-90606428D02*
X197789700Y-90701666D01*
X197789700Y-90701666D02*
X197742080Y-90749285D01*
X197742080Y-90749285D02*
X197646842Y-90796904D01*
X197646842Y-90796904D02*
X197408747Y-90796904D01*
X197408747Y-90796904D02*
X197313509Y-90749285D01*
X197313509Y-90749285D02*
X197265890Y-90701666D01*
X197265890Y-90701666D02*
X197218271Y-90606428D01*
X197218271Y-90606428D02*
X197218271Y-90415952D01*
X197218271Y-90415952D02*
X197265890Y-90320714D01*
X197265890Y-90320714D02*
X197313509Y-90273095D01*
X197313509Y-90273095D02*
X197408747Y-90225476D01*
X197517319Y-93083095D02*
X196517319Y-93083095D01*
X197517319Y-93654523D02*
X196945890Y-93225952D01*
X196517319Y-93654523D02*
X197088747Y-93083095D01*
X78774819Y-93083214D02*
X77774819Y-93083214D01*
X77774819Y-93083214D02*
X77774819Y-93321309D01*
X77774819Y-93321309D02*
X77822438Y-93464166D01*
X77822438Y-93464166D02*
X77917676Y-93559404D01*
X77917676Y-93559404D02*
X78012914Y-93607023D01*
X78012914Y-93607023D02*
X78203390Y-93654642D01*
X78203390Y-93654642D02*
X78346247Y-93654642D01*
X78346247Y-93654642D02*
X78536723Y-93607023D01*
X78536723Y-93607023D02*
X78631961Y-93559404D01*
X78631961Y-93559404D02*
X78727200Y-93464166D01*
X78727200Y-93464166D02*
X78774819Y-93321309D01*
X78774819Y-93321309D02*
X78774819Y-93083214D01*
X77870057Y-94035595D02*
X77822438Y-94083214D01*
X77822438Y-94083214D02*
X77774819Y-94178452D01*
X77774819Y-94178452D02*
X77774819Y-94416547D01*
X77774819Y-94416547D02*
X77822438Y-94511785D01*
X77822438Y-94511785D02*
X77870057Y-94559404D01*
X77870057Y-94559404D02*
X77965295Y-94607023D01*
X77965295Y-94607023D02*
X78060533Y-94607023D01*
X78060533Y-94607023D02*
X78203390Y-94559404D01*
X78203390Y-94559404D02*
X78774819Y-93987976D01*
X78774819Y-93987976D02*
X78774819Y-94607023D01*
X78774819Y-95559404D02*
X78774819Y-94987976D01*
X78774819Y-95273690D02*
X77774819Y-95273690D01*
X77774819Y-95273690D02*
X77917676Y-95178452D01*
X77917676Y-95178452D02*
X78012914Y-95083214D01*
X78012914Y-95083214D02*
X78060533Y-94987976D01*
X78454819Y-97845595D02*
X77454819Y-97845595D01*
X78454819Y-98417023D02*
X77883390Y-97988452D01*
X77454819Y-98417023D02*
X78026247Y-97845595D01*
X97824819Y-59745714D02*
X96824819Y-59745714D01*
X96824819Y-59745714D02*
X96824819Y-59983809D01*
X96824819Y-59983809D02*
X96872438Y-60126666D01*
X96872438Y-60126666D02*
X96967676Y-60221904D01*
X96967676Y-60221904D02*
X97062914Y-60269523D01*
X97062914Y-60269523D02*
X97253390Y-60317142D01*
X97253390Y-60317142D02*
X97396247Y-60317142D01*
X97396247Y-60317142D02*
X97586723Y-60269523D01*
X97586723Y-60269523D02*
X97681961Y-60221904D01*
X97681961Y-60221904D02*
X97777200Y-60126666D01*
X97777200Y-60126666D02*
X97824819Y-59983809D01*
X97824819Y-59983809D02*
X97824819Y-59745714D01*
X97824819Y-61269523D02*
X97824819Y-60698095D01*
X97824819Y-60983809D02*
X96824819Y-60983809D01*
X96824819Y-60983809D02*
X96967676Y-60888571D01*
X96967676Y-60888571D02*
X97062914Y-60793333D01*
X97062914Y-60793333D02*
X97110533Y-60698095D01*
X96920057Y-61650476D02*
X96872438Y-61698095D01*
X96872438Y-61698095D02*
X96824819Y-61793333D01*
X96824819Y-61793333D02*
X96824819Y-62031428D01*
X96824819Y-62031428D02*
X96872438Y-62126666D01*
X96872438Y-62126666D02*
X96920057Y-62174285D01*
X96920057Y-62174285D02*
X97015295Y-62221904D01*
X97015295Y-62221904D02*
X97110533Y-62221904D01*
X97110533Y-62221904D02*
X97253390Y-62174285D01*
X97253390Y-62174285D02*
X97824819Y-61602857D01*
X97824819Y-61602857D02*
X97824819Y-62221904D01*
X97504819Y-64508095D02*
X96504819Y-64508095D01*
X97504819Y-65079523D02*
X96933390Y-64650952D01*
X96504819Y-65079523D02*
X97076247Y-64508095D01*
X197837319Y-31170714D02*
X196837319Y-31170714D01*
X196837319Y-31170714D02*
X196837319Y-31408809D01*
X196837319Y-31408809D02*
X196884938Y-31551666D01*
X196884938Y-31551666D02*
X196980176Y-31646904D01*
X196980176Y-31646904D02*
X197075414Y-31694523D01*
X197075414Y-31694523D02*
X197265890Y-31742142D01*
X197265890Y-31742142D02*
X197408747Y-31742142D01*
X197408747Y-31742142D02*
X197599223Y-31694523D01*
X197599223Y-31694523D02*
X197694461Y-31646904D01*
X197694461Y-31646904D02*
X197789700Y-31551666D01*
X197789700Y-31551666D02*
X197837319Y-31408809D01*
X197837319Y-31408809D02*
X197837319Y-31170714D01*
X196932557Y-32123095D02*
X196884938Y-32170714D01*
X196884938Y-32170714D02*
X196837319Y-32265952D01*
X196837319Y-32265952D02*
X196837319Y-32504047D01*
X196837319Y-32504047D02*
X196884938Y-32599285D01*
X196884938Y-32599285D02*
X196932557Y-32646904D01*
X196932557Y-32646904D02*
X197027795Y-32694523D01*
X197027795Y-32694523D02*
X197123033Y-32694523D01*
X197123033Y-32694523D02*
X197265890Y-32646904D01*
X197265890Y-32646904D02*
X197837319Y-32075476D01*
X197837319Y-32075476D02*
X197837319Y-32694523D01*
X196837319Y-33551666D02*
X196837319Y-33361190D01*
X196837319Y-33361190D02*
X196884938Y-33265952D01*
X196884938Y-33265952D02*
X196932557Y-33218333D01*
X196932557Y-33218333D02*
X197075414Y-33123095D01*
X197075414Y-33123095D02*
X197265890Y-33075476D01*
X197265890Y-33075476D02*
X197646842Y-33075476D01*
X197646842Y-33075476D02*
X197742080Y-33123095D01*
X197742080Y-33123095D02*
X197789700Y-33170714D01*
X197789700Y-33170714D02*
X197837319Y-33265952D01*
X197837319Y-33265952D02*
X197837319Y-33456428D01*
X197837319Y-33456428D02*
X197789700Y-33551666D01*
X197789700Y-33551666D02*
X197742080Y-33599285D01*
X197742080Y-33599285D02*
X197646842Y-33646904D01*
X197646842Y-33646904D02*
X197408747Y-33646904D01*
X197408747Y-33646904D02*
X197313509Y-33599285D01*
X197313509Y-33599285D02*
X197265890Y-33551666D01*
X197265890Y-33551666D02*
X197218271Y-33456428D01*
X197218271Y-33456428D02*
X197218271Y-33265952D01*
X197218271Y-33265952D02*
X197265890Y-33170714D01*
X197265890Y-33170714D02*
X197313509Y-33123095D01*
X197313509Y-33123095D02*
X197408747Y-33075476D01*
X197517319Y-35933095D02*
X196517319Y-35933095D01*
X197517319Y-36504523D02*
X196945890Y-36075952D01*
X196517319Y-36504523D02*
X197088747Y-35933095D01*
X159737319Y-59745714D02*
X158737319Y-59745714D01*
X158737319Y-59745714D02*
X158737319Y-59983809D01*
X158737319Y-59983809D02*
X158784938Y-60126666D01*
X158784938Y-60126666D02*
X158880176Y-60221904D01*
X158880176Y-60221904D02*
X158975414Y-60269523D01*
X158975414Y-60269523D02*
X159165890Y-60317142D01*
X159165890Y-60317142D02*
X159308747Y-60317142D01*
X159308747Y-60317142D02*
X159499223Y-60269523D01*
X159499223Y-60269523D02*
X159594461Y-60221904D01*
X159594461Y-60221904D02*
X159689700Y-60126666D01*
X159689700Y-60126666D02*
X159737319Y-59983809D01*
X159737319Y-59983809D02*
X159737319Y-59745714D01*
X158737319Y-60650476D02*
X158737319Y-61269523D01*
X158737319Y-61269523D02*
X159118271Y-60936190D01*
X159118271Y-60936190D02*
X159118271Y-61079047D01*
X159118271Y-61079047D02*
X159165890Y-61174285D01*
X159165890Y-61174285D02*
X159213509Y-61221904D01*
X159213509Y-61221904D02*
X159308747Y-61269523D01*
X159308747Y-61269523D02*
X159546842Y-61269523D01*
X159546842Y-61269523D02*
X159642080Y-61221904D01*
X159642080Y-61221904D02*
X159689700Y-61174285D01*
X159689700Y-61174285D02*
X159737319Y-61079047D01*
X159737319Y-61079047D02*
X159737319Y-60793333D01*
X159737319Y-60793333D02*
X159689700Y-60698095D01*
X159689700Y-60698095D02*
X159642080Y-60650476D01*
X158737319Y-61888571D02*
X158737319Y-61983809D01*
X158737319Y-61983809D02*
X158784938Y-62079047D01*
X158784938Y-62079047D02*
X158832557Y-62126666D01*
X158832557Y-62126666D02*
X158927795Y-62174285D01*
X158927795Y-62174285D02*
X159118271Y-62221904D01*
X159118271Y-62221904D02*
X159356366Y-62221904D01*
X159356366Y-62221904D02*
X159546842Y-62174285D01*
X159546842Y-62174285D02*
X159642080Y-62126666D01*
X159642080Y-62126666D02*
X159689700Y-62079047D01*
X159689700Y-62079047D02*
X159737319Y-61983809D01*
X159737319Y-61983809D02*
X159737319Y-61888571D01*
X159737319Y-61888571D02*
X159689700Y-61793333D01*
X159689700Y-61793333D02*
X159642080Y-61745714D01*
X159642080Y-61745714D02*
X159546842Y-61698095D01*
X159546842Y-61698095D02*
X159356366Y-61650476D01*
X159356366Y-61650476D02*
X159118271Y-61650476D01*
X159118271Y-61650476D02*
X158927795Y-61698095D01*
X158927795Y-61698095D02*
X158832557Y-61745714D01*
X158832557Y-61745714D02*
X158784938Y-61793333D01*
X158784938Y-61793333D02*
X158737319Y-61888571D01*
X159417319Y-64508095D02*
X158417319Y-64508095D01*
X159417319Y-65079523D02*
X158845890Y-64650952D01*
X158417319Y-65079523D02*
X158988747Y-64508095D01*
X216887319Y-35933214D02*
X215887319Y-35933214D01*
X215887319Y-35933214D02*
X215887319Y-36171309D01*
X215887319Y-36171309D02*
X215934938Y-36314166D01*
X215934938Y-36314166D02*
X216030176Y-36409404D01*
X216030176Y-36409404D02*
X216125414Y-36457023D01*
X216125414Y-36457023D02*
X216315890Y-36504642D01*
X216315890Y-36504642D02*
X216458747Y-36504642D01*
X216458747Y-36504642D02*
X216649223Y-36457023D01*
X216649223Y-36457023D02*
X216744461Y-36409404D01*
X216744461Y-36409404D02*
X216839700Y-36314166D01*
X216839700Y-36314166D02*
X216887319Y-36171309D01*
X216887319Y-36171309D02*
X216887319Y-35933214D01*
X215982557Y-36885595D02*
X215934938Y-36933214D01*
X215934938Y-36933214D02*
X215887319Y-37028452D01*
X215887319Y-37028452D02*
X215887319Y-37266547D01*
X215887319Y-37266547D02*
X215934938Y-37361785D01*
X215934938Y-37361785D02*
X215982557Y-37409404D01*
X215982557Y-37409404D02*
X216077795Y-37457023D01*
X216077795Y-37457023D02*
X216173033Y-37457023D01*
X216173033Y-37457023D02*
X216315890Y-37409404D01*
X216315890Y-37409404D02*
X216887319Y-36837976D01*
X216887319Y-36837976D02*
X216887319Y-37457023D01*
X215887319Y-37790357D02*
X215887319Y-38457023D01*
X215887319Y-38457023D02*
X216887319Y-38028452D01*
X216567319Y-40695595D02*
X215567319Y-40695595D01*
X216567319Y-41267023D02*
X215995890Y-40838452D01*
X215567319Y-41267023D02*
X216138747Y-40695595D01*
X235937319Y-40695714D02*
X234937319Y-40695714D01*
X234937319Y-40695714D02*
X234937319Y-40933809D01*
X234937319Y-40933809D02*
X234984938Y-41076666D01*
X234984938Y-41076666D02*
X235080176Y-41171904D01*
X235080176Y-41171904D02*
X235175414Y-41219523D01*
X235175414Y-41219523D02*
X235365890Y-41267142D01*
X235365890Y-41267142D02*
X235508747Y-41267142D01*
X235508747Y-41267142D02*
X235699223Y-41219523D01*
X235699223Y-41219523D02*
X235794461Y-41171904D01*
X235794461Y-41171904D02*
X235889700Y-41076666D01*
X235889700Y-41076666D02*
X235937319Y-40933809D01*
X235937319Y-40933809D02*
X235937319Y-40695714D01*
X235032557Y-41648095D02*
X234984938Y-41695714D01*
X234984938Y-41695714D02*
X234937319Y-41790952D01*
X234937319Y-41790952D02*
X234937319Y-42029047D01*
X234937319Y-42029047D02*
X234984938Y-42124285D01*
X234984938Y-42124285D02*
X235032557Y-42171904D01*
X235032557Y-42171904D02*
X235127795Y-42219523D01*
X235127795Y-42219523D02*
X235223033Y-42219523D01*
X235223033Y-42219523D02*
X235365890Y-42171904D01*
X235365890Y-42171904D02*
X235937319Y-41600476D01*
X235937319Y-41600476D02*
X235937319Y-42219523D01*
X235365890Y-42790952D02*
X235318271Y-42695714D01*
X235318271Y-42695714D02*
X235270652Y-42648095D01*
X235270652Y-42648095D02*
X235175414Y-42600476D01*
X235175414Y-42600476D02*
X235127795Y-42600476D01*
X235127795Y-42600476D02*
X235032557Y-42648095D01*
X235032557Y-42648095D02*
X234984938Y-42695714D01*
X234984938Y-42695714D02*
X234937319Y-42790952D01*
X234937319Y-42790952D02*
X234937319Y-42981428D01*
X234937319Y-42981428D02*
X234984938Y-43076666D01*
X234984938Y-43076666D02*
X235032557Y-43124285D01*
X235032557Y-43124285D02*
X235127795Y-43171904D01*
X235127795Y-43171904D02*
X235175414Y-43171904D01*
X235175414Y-43171904D02*
X235270652Y-43124285D01*
X235270652Y-43124285D02*
X235318271Y-43076666D01*
X235318271Y-43076666D02*
X235365890Y-42981428D01*
X235365890Y-42981428D02*
X235365890Y-42790952D01*
X235365890Y-42790952D02*
X235413509Y-42695714D01*
X235413509Y-42695714D02*
X235461128Y-42648095D01*
X235461128Y-42648095D02*
X235556366Y-42600476D01*
X235556366Y-42600476D02*
X235746842Y-42600476D01*
X235746842Y-42600476D02*
X235842080Y-42648095D01*
X235842080Y-42648095D02*
X235889700Y-42695714D01*
X235889700Y-42695714D02*
X235937319Y-42790952D01*
X235937319Y-42790952D02*
X235937319Y-42981428D01*
X235937319Y-42981428D02*
X235889700Y-43076666D01*
X235889700Y-43076666D02*
X235842080Y-43124285D01*
X235842080Y-43124285D02*
X235746842Y-43171904D01*
X235746842Y-43171904D02*
X235556366Y-43171904D01*
X235556366Y-43171904D02*
X235461128Y-43124285D01*
X235461128Y-43124285D02*
X235413509Y-43076666D01*
X235413509Y-43076666D02*
X235365890Y-42981428D01*
X235617319Y-45458095D02*
X234617319Y-45458095D01*
X235617319Y-46029523D02*
X235045890Y-45600952D01*
X234617319Y-46029523D02*
X235188747Y-45458095D01*
D11*
X176212500Y-78017500D02*
X176212500Y-77367500D01*
X175092500Y-77367500D02*
X175092500Y-73127500D01*
X177332500Y-77367500D02*
X175092500Y-77367500D01*
X177332500Y-76767500D02*
X175092500Y-76767500D01*
X177332500Y-76647500D02*
X175092500Y-76647500D01*
X177332500Y-76527500D02*
X175092500Y-76527500D01*
X175092500Y-73127500D02*
X177332500Y-73127500D01*
X177332500Y-73127500D02*
X177332500Y-77367500D01*
X176212500Y-72477500D02*
X176212500Y-73127500D01*
X195262500Y-54205000D02*
X195262500Y-53555000D01*
X194142500Y-53555000D02*
X194142500Y-49315000D01*
X196382500Y-53555000D02*
X194142500Y-53555000D01*
X196382500Y-52955000D02*
X194142500Y-52955000D01*
X196382500Y-52835000D02*
X194142500Y-52835000D01*
X196382500Y-52715000D02*
X194142500Y-52715000D01*
X194142500Y-49315000D02*
X196382500Y-49315000D01*
X196382500Y-49315000D02*
X196382500Y-53555000D01*
X195262500Y-48665000D02*
X195262500Y-49315000D01*
X76200000Y-58967500D02*
X76200000Y-58317500D01*
X75080000Y-58317500D02*
X75080000Y-54077500D01*
X77320000Y-58317500D02*
X75080000Y-58317500D01*
X77320000Y-57717500D02*
X75080000Y-57717500D01*
X77320000Y-57597500D02*
X75080000Y-57597500D01*
X77320000Y-57477500D02*
X75080000Y-57477500D01*
X75080000Y-54077500D02*
X77320000Y-54077500D01*
X77320000Y-54077500D02*
X77320000Y-58317500D01*
X76200000Y-53427500D02*
X76200000Y-54077500D01*
X138112500Y-101830000D02*
X138112500Y-101180000D01*
X136992500Y-101180000D02*
X136992500Y-96940000D01*
X139232500Y-101180000D02*
X136992500Y-101180000D01*
X139232500Y-100580000D02*
X136992500Y-100580000D01*
X139232500Y-100460000D02*
X136992500Y-100460000D01*
X139232500Y-100340000D02*
X136992500Y-100340000D01*
X136992500Y-96940000D02*
X139232500Y-96940000D01*
X139232500Y-96940000D02*
X139232500Y-101180000D01*
X138112500Y-96290000D02*
X138112500Y-96940000D01*
X57150000Y-54205000D02*
X57150000Y-53555000D01*
X56030000Y-53555000D02*
X56030000Y-49315000D01*
X58270000Y-53555000D02*
X56030000Y-53555000D01*
X58270000Y-52955000D02*
X56030000Y-52955000D01*
X58270000Y-52835000D02*
X56030000Y-52835000D01*
X58270000Y-52715000D02*
X56030000Y-52715000D01*
X56030000Y-49315000D02*
X58270000Y-49315000D01*
X58270000Y-49315000D02*
X58270000Y-53555000D01*
X57150000Y-48665000D02*
X57150000Y-49315000D01*
X214312500Y-97067500D02*
X214312500Y-96417500D01*
X213192500Y-96417500D02*
X213192500Y-92177500D01*
X215432500Y-96417500D02*
X213192500Y-96417500D01*
X215432500Y-95817500D02*
X213192500Y-95817500D01*
X215432500Y-95697500D02*
X213192500Y-95697500D01*
X215432500Y-95577500D02*
X213192500Y-95577500D01*
X213192500Y-92177500D02*
X215432500Y-92177500D01*
X215432500Y-92177500D02*
X215432500Y-96417500D01*
X214312500Y-91527500D02*
X214312500Y-92177500D01*
X38100000Y-39917500D02*
X38100000Y-39267500D01*
X36980000Y-39267500D02*
X36980000Y-35027500D01*
X39220000Y-39267500D02*
X36980000Y-39267500D01*
X39220000Y-38667500D02*
X36980000Y-38667500D01*
X39220000Y-38547500D02*
X36980000Y-38547500D01*
X39220000Y-38427500D02*
X36980000Y-38427500D01*
X36980000Y-35027500D02*
X39220000Y-35027500D01*
X39220000Y-35027500D02*
X39220000Y-39267500D01*
X38100000Y-34377500D02*
X38100000Y-35027500D01*
X95250000Y-101830000D02*
X95250000Y-101180000D01*
X94130000Y-101180000D02*
X94130000Y-96940000D01*
X96370000Y-101180000D02*
X94130000Y-101180000D01*
X96370000Y-100580000D02*
X94130000Y-100580000D01*
X96370000Y-100460000D02*
X94130000Y-100460000D01*
X96370000Y-100340000D02*
X94130000Y-100340000D01*
X94130000Y-96940000D02*
X96370000Y-96940000D01*
X96370000Y-96940000D02*
X96370000Y-101180000D01*
X95250000Y-96290000D02*
X95250000Y-96940000D01*
X38100000Y-78017500D02*
X38100000Y-77367500D01*
X36980000Y-77367500D02*
X36980000Y-73127500D01*
X39220000Y-77367500D02*
X36980000Y-77367500D01*
X39220000Y-76767500D02*
X36980000Y-76767500D01*
X39220000Y-76647500D02*
X36980000Y-76647500D01*
X39220000Y-76527500D02*
X36980000Y-76527500D01*
X36980000Y-73127500D02*
X39220000Y-73127500D01*
X39220000Y-73127500D02*
X39220000Y-77367500D01*
X38100000Y-72477500D02*
X38100000Y-73127500D01*
X214312500Y-78017500D02*
X214312500Y-77367500D01*
X213192500Y-77367500D02*
X213192500Y-73127500D01*
X215432500Y-77367500D02*
X213192500Y-77367500D01*
X215432500Y-76767500D02*
X213192500Y-76767500D01*
X215432500Y-76647500D02*
X213192500Y-76647500D01*
X215432500Y-76527500D02*
X213192500Y-76527500D01*
X213192500Y-73127500D02*
X215432500Y-73127500D01*
X215432500Y-73127500D02*
X215432500Y-77367500D01*
X214312500Y-72477500D02*
X214312500Y-73127500D01*
X57150000Y-92305000D02*
X57150000Y-91655000D01*
X56030000Y-91655000D02*
X56030000Y-87415000D01*
X58270000Y-91655000D02*
X56030000Y-91655000D01*
X58270000Y-91055000D02*
X56030000Y-91055000D01*
X58270000Y-90935000D02*
X56030000Y-90935000D01*
X58270000Y-90815000D02*
X56030000Y-90815000D01*
X56030000Y-87415000D02*
X58270000Y-87415000D01*
X58270000Y-87415000D02*
X58270000Y-91655000D01*
X57150000Y-86765000D02*
X57150000Y-87415000D01*
X57150000Y-73255000D02*
X57150000Y-72605000D01*
X56030000Y-72605000D02*
X56030000Y-68365000D01*
X58270000Y-72605000D02*
X56030000Y-72605000D01*
X58270000Y-72005000D02*
X56030000Y-72005000D01*
X58270000Y-71885000D02*
X56030000Y-71885000D01*
X58270000Y-71765000D02*
X56030000Y-71765000D01*
X56030000Y-68365000D02*
X58270000Y-68365000D01*
X58270000Y-68365000D02*
X58270000Y-72605000D01*
X57150000Y-67715000D02*
X57150000Y-68365000D01*
X252412500Y-63730000D02*
X252412500Y-63080000D01*
X251292500Y-63080000D02*
X251292500Y-58840000D01*
X253532500Y-63080000D02*
X251292500Y-63080000D01*
X253532500Y-62480000D02*
X251292500Y-62480000D01*
X253532500Y-62360000D02*
X251292500Y-62360000D01*
X253532500Y-62240000D02*
X251292500Y-62240000D01*
X251292500Y-58840000D02*
X253532500Y-58840000D01*
X253532500Y-58840000D02*
X253532500Y-63080000D01*
X252412500Y-58190000D02*
X252412500Y-58840000D01*
X176212500Y-39917500D02*
X176212500Y-39267500D01*
X175092500Y-39267500D02*
X175092500Y-35027500D01*
X177332500Y-39267500D02*
X175092500Y-39267500D01*
X177332500Y-38667500D02*
X175092500Y-38667500D01*
X177332500Y-38547500D02*
X175092500Y-38547500D01*
X177332500Y-38427500D02*
X175092500Y-38427500D01*
X175092500Y-35027500D02*
X177332500Y-35027500D01*
X177332500Y-35027500D02*
X177332500Y-39267500D01*
X176212500Y-34377500D02*
X176212500Y-35027500D01*
X157162500Y-101830000D02*
X157162500Y-101180000D01*
X156042500Y-101180000D02*
X156042500Y-96940000D01*
X158282500Y-101180000D02*
X156042500Y-101180000D01*
X158282500Y-100580000D02*
X156042500Y-100580000D01*
X158282500Y-100460000D02*
X156042500Y-100460000D01*
X158282500Y-100340000D02*
X156042500Y-100340000D01*
X156042500Y-96940000D02*
X158282500Y-96940000D01*
X158282500Y-96940000D02*
X158282500Y-101180000D01*
X157162500Y-96290000D02*
X157162500Y-96940000D01*
X176212500Y-58967500D02*
X176212500Y-58317500D01*
X175092500Y-58317500D02*
X175092500Y-54077500D01*
X177332500Y-58317500D02*
X175092500Y-58317500D01*
X177332500Y-57717500D02*
X175092500Y-57717500D01*
X177332500Y-57597500D02*
X175092500Y-57597500D01*
X177332500Y-57477500D02*
X175092500Y-57477500D01*
X175092500Y-54077500D02*
X177332500Y-54077500D01*
X177332500Y-54077500D02*
X177332500Y-58317500D01*
X176212500Y-53427500D02*
X176212500Y-54077500D01*
X176212500Y-97067500D02*
X176212500Y-96417500D01*
X175092500Y-96417500D02*
X175092500Y-92177500D01*
X177332500Y-96417500D02*
X175092500Y-96417500D01*
X177332500Y-95817500D02*
X175092500Y-95817500D01*
X177332500Y-95697500D02*
X175092500Y-95697500D01*
X177332500Y-95577500D02*
X175092500Y-95577500D01*
X175092500Y-92177500D02*
X177332500Y-92177500D01*
X177332500Y-92177500D02*
X177332500Y-96417500D01*
X176212500Y-91527500D02*
X176212500Y-92177500D01*
X214312500Y-58967500D02*
X214312500Y-58317500D01*
X213192500Y-58317500D02*
X213192500Y-54077500D01*
X215432500Y-58317500D02*
X213192500Y-58317500D01*
X215432500Y-57717500D02*
X213192500Y-57717500D01*
X215432500Y-57597500D02*
X213192500Y-57597500D01*
X215432500Y-57477500D02*
X213192500Y-57477500D01*
X213192500Y-54077500D02*
X215432500Y-54077500D01*
X215432500Y-54077500D02*
X215432500Y-58317500D01*
X214312500Y-53427500D02*
X214312500Y-54077500D01*
X114300000Y-82780000D02*
X114300000Y-82130000D01*
X113180000Y-82130000D02*
X113180000Y-77890000D01*
X115420000Y-82130000D02*
X113180000Y-82130000D01*
X115420000Y-81530000D02*
X113180000Y-81530000D01*
X115420000Y-81410000D02*
X113180000Y-81410000D01*
X115420000Y-81290000D02*
X113180000Y-81290000D01*
X113180000Y-77890000D02*
X115420000Y-77890000D01*
X115420000Y-77890000D02*
X115420000Y-82130000D01*
X114300000Y-77240000D02*
X114300000Y-77890000D01*
X76200000Y-39917500D02*
X76200000Y-39267500D01*
X75080000Y-39267500D02*
X75080000Y-35027500D01*
X77320000Y-39267500D02*
X75080000Y-39267500D01*
X77320000Y-38667500D02*
X75080000Y-38667500D01*
X77320000Y-38547500D02*
X75080000Y-38547500D01*
X77320000Y-38427500D02*
X75080000Y-38427500D01*
X75080000Y-35027500D02*
X77320000Y-35027500D01*
X77320000Y-35027500D02*
X77320000Y-39267500D01*
X76200000Y-34377500D02*
X76200000Y-35027500D01*
X57150000Y-35155000D02*
X57150000Y-34505000D01*
X56030000Y-34505000D02*
X56030000Y-30265000D01*
X58270000Y-34505000D02*
X56030000Y-34505000D01*
X58270000Y-33905000D02*
X56030000Y-33905000D01*
X58270000Y-33785000D02*
X56030000Y-33785000D01*
X58270000Y-33665000D02*
X56030000Y-33665000D01*
X56030000Y-30265000D02*
X58270000Y-30265000D01*
X58270000Y-30265000D02*
X58270000Y-34505000D01*
X57150000Y-29615000D02*
X57150000Y-30265000D01*
X114300000Y-101830000D02*
X114300000Y-101180000D01*
X113180000Y-101180000D02*
X113180000Y-96940000D01*
X115420000Y-101180000D02*
X113180000Y-101180000D01*
X115420000Y-100580000D02*
X113180000Y-100580000D01*
X115420000Y-100460000D02*
X113180000Y-100460000D01*
X115420000Y-100340000D02*
X113180000Y-100340000D01*
X113180000Y-96940000D02*
X115420000Y-96940000D01*
X115420000Y-96940000D02*
X115420000Y-101180000D01*
X114300000Y-96290000D02*
X114300000Y-96940000D01*
X252412500Y-82780000D02*
X252412500Y-82130000D01*
X251292500Y-82130000D02*
X251292500Y-77890000D01*
X253532500Y-82130000D02*
X251292500Y-82130000D01*
X253532500Y-81530000D02*
X251292500Y-81530000D01*
X253532500Y-81410000D02*
X251292500Y-81410000D01*
X253532500Y-81290000D02*
X251292500Y-81290000D01*
X251292500Y-77890000D02*
X253532500Y-77890000D01*
X253532500Y-77890000D02*
X253532500Y-82130000D01*
X252412500Y-77240000D02*
X252412500Y-77890000D01*
X38100000Y-58967500D02*
X38100000Y-58317500D01*
X36980000Y-58317500D02*
X36980000Y-54077500D01*
X39220000Y-58317500D02*
X36980000Y-58317500D01*
X39220000Y-57717500D02*
X36980000Y-57717500D01*
X39220000Y-57597500D02*
X36980000Y-57597500D01*
X39220000Y-57477500D02*
X36980000Y-57477500D01*
X36980000Y-54077500D02*
X39220000Y-54077500D01*
X39220000Y-54077500D02*
X39220000Y-58317500D01*
X38100000Y-53427500D02*
X38100000Y-54077500D01*
X233362500Y-82780000D02*
X233362500Y-82130000D01*
X232242500Y-82130000D02*
X232242500Y-77890000D01*
X234482500Y-82130000D02*
X232242500Y-82130000D01*
X234482500Y-81530000D02*
X232242500Y-81530000D01*
X234482500Y-81410000D02*
X232242500Y-81410000D01*
X234482500Y-81290000D02*
X232242500Y-81290000D01*
X232242500Y-77890000D02*
X234482500Y-77890000D01*
X234482500Y-77890000D02*
X234482500Y-82130000D01*
X233362500Y-77240000D02*
X233362500Y-77890000D01*
X38100000Y-91527500D02*
X38100000Y-92177500D01*
X39220000Y-92177500D02*
X39220000Y-96417500D01*
X36980000Y-92177500D02*
X39220000Y-92177500D01*
X36980000Y-92777500D02*
X39220000Y-92777500D01*
X36980000Y-92897500D02*
X39220000Y-92897500D01*
X36980000Y-93017500D02*
X39220000Y-93017500D01*
X39220000Y-96417500D02*
X36980000Y-96417500D01*
X36980000Y-96417500D02*
X36980000Y-92177500D01*
X38100000Y-97067500D02*
X38100000Y-96417500D01*
X138112500Y-82780000D02*
X138112500Y-82130000D01*
X136992500Y-82130000D02*
X136992500Y-77890000D01*
X139232500Y-82130000D02*
X136992500Y-82130000D01*
X139232500Y-81530000D02*
X136992500Y-81530000D01*
X139232500Y-81410000D02*
X136992500Y-81410000D01*
X139232500Y-81290000D02*
X136992500Y-81290000D01*
X136992500Y-77890000D02*
X139232500Y-77890000D01*
X139232500Y-77890000D02*
X139232500Y-82130000D01*
X138112500Y-77240000D02*
X138112500Y-77890000D01*
X0Y-44680000D02*
X0Y-44030000D01*
X-1120000Y-44030000D02*
X-1120000Y-39790000D01*
X1120000Y-44030000D02*
X-1120000Y-44030000D01*
X1120000Y-43430000D02*
X-1120000Y-43430000D01*
X1120000Y-43310000D02*
X-1120000Y-43310000D01*
X1120000Y-43190000D02*
X-1120000Y-43190000D01*
X-1120000Y-39790000D02*
X1120000Y-39790000D01*
X1120000Y-39790000D02*
X1120000Y-44030000D01*
X0Y-39140000D02*
X0Y-39790000D01*
X157162500Y-44680000D02*
X157162500Y-44030000D01*
X156042500Y-44030000D02*
X156042500Y-39790000D01*
X158282500Y-44030000D02*
X156042500Y-44030000D01*
X158282500Y-43430000D02*
X156042500Y-43430000D01*
X158282500Y-43310000D02*
X156042500Y-43310000D01*
X158282500Y-43190000D02*
X156042500Y-43190000D01*
X156042500Y-39790000D02*
X158282500Y-39790000D01*
X158282500Y-39790000D02*
X158282500Y-44030000D01*
X157162500Y-39140000D02*
X157162500Y-39790000D01*
X0Y-63730000D02*
X0Y-63080000D01*
X-1120000Y-63080000D02*
X-1120000Y-58840000D01*
X1120000Y-63080000D02*
X-1120000Y-63080000D01*
X1120000Y-62480000D02*
X-1120000Y-62480000D01*
X1120000Y-62360000D02*
X-1120000Y-62360000D01*
X1120000Y-62240000D02*
X-1120000Y-62240000D01*
X-1120000Y-58840000D02*
X1120000Y-58840000D01*
X1120000Y-58840000D02*
X1120000Y-63080000D01*
X0Y-58190000D02*
X0Y-58840000D01*
X95250000Y-82780000D02*
X95250000Y-82130000D01*
X94130000Y-82130000D02*
X94130000Y-77890000D01*
X96370000Y-82130000D02*
X94130000Y-82130000D01*
X96370000Y-81530000D02*
X94130000Y-81530000D01*
X96370000Y-81410000D02*
X94130000Y-81410000D01*
X96370000Y-81290000D02*
X94130000Y-81290000D01*
X94130000Y-77890000D02*
X96370000Y-77890000D01*
X96370000Y-77890000D02*
X96370000Y-82130000D01*
X95250000Y-77240000D02*
X95250000Y-77890000D01*
X95250000Y-44680000D02*
X95250000Y-44030000D01*
X94130000Y-44030000D02*
X94130000Y-39790000D01*
X96370000Y-44030000D02*
X94130000Y-44030000D01*
X96370000Y-43430000D02*
X94130000Y-43430000D01*
X96370000Y-43310000D02*
X94130000Y-43310000D01*
X96370000Y-43190000D02*
X94130000Y-43190000D01*
X94130000Y-39790000D02*
X96370000Y-39790000D01*
X96370000Y-39790000D02*
X96370000Y-44030000D01*
X95250000Y-39140000D02*
X95250000Y-39790000D01*
X76200000Y-78017500D02*
X76200000Y-77367500D01*
X75080000Y-77367500D02*
X75080000Y-73127500D01*
X77320000Y-77367500D02*
X75080000Y-77367500D01*
X77320000Y-76767500D02*
X75080000Y-76767500D01*
X77320000Y-76647500D02*
X75080000Y-76647500D01*
X77320000Y-76527500D02*
X75080000Y-76527500D01*
X75080000Y-73127500D02*
X77320000Y-73127500D01*
X77320000Y-73127500D02*
X77320000Y-77367500D01*
X76200000Y-72477500D02*
X76200000Y-73127500D01*
X19050000Y-82780000D02*
X19050000Y-82130000D01*
X17930000Y-82130000D02*
X17930000Y-77890000D01*
X20170000Y-82130000D02*
X17930000Y-82130000D01*
X20170000Y-81530000D02*
X17930000Y-81530000D01*
X20170000Y-81410000D02*
X17930000Y-81410000D01*
X20170000Y-81290000D02*
X17930000Y-81290000D01*
X17930000Y-77890000D02*
X20170000Y-77890000D01*
X20170000Y-77890000D02*
X20170000Y-82130000D01*
X19050000Y-77240000D02*
X19050000Y-77890000D01*
X157162500Y-82780000D02*
X157162500Y-82130000D01*
X156042500Y-82130000D02*
X156042500Y-77890000D01*
X158282500Y-82130000D02*
X156042500Y-82130000D01*
X158282500Y-81530000D02*
X156042500Y-81530000D01*
X158282500Y-81410000D02*
X156042500Y-81410000D01*
X158282500Y-81290000D02*
X156042500Y-81290000D01*
X156042500Y-77890000D02*
X158282500Y-77890000D01*
X158282500Y-77890000D02*
X158282500Y-82130000D01*
X157162500Y-77240000D02*
X157162500Y-77890000D01*
X252412500Y-44680000D02*
X252412500Y-44030000D01*
X251292500Y-44030000D02*
X251292500Y-39790000D01*
X253532500Y-44030000D02*
X251292500Y-44030000D01*
X253532500Y-43430000D02*
X251292500Y-43430000D01*
X253532500Y-43310000D02*
X251292500Y-43310000D01*
X253532500Y-43190000D02*
X251292500Y-43190000D01*
X251292500Y-39790000D02*
X253532500Y-39790000D01*
X253532500Y-39790000D02*
X253532500Y-44030000D01*
X252412500Y-39140000D02*
X252412500Y-39790000D01*
X19050000Y-44680000D02*
X19050000Y-44030000D01*
X17930000Y-44030000D02*
X17930000Y-39790000D01*
X20170000Y-44030000D02*
X17930000Y-44030000D01*
X20170000Y-43430000D02*
X17930000Y-43430000D01*
X20170000Y-43310000D02*
X17930000Y-43310000D01*
X20170000Y-43190000D02*
X17930000Y-43190000D01*
X17930000Y-39790000D02*
X20170000Y-39790000D01*
X20170000Y-39790000D02*
X20170000Y-44030000D01*
X19050000Y-39140000D02*
X19050000Y-39790000D01*
X0Y-82780000D02*
X0Y-82130000D01*
X-1120000Y-82130000D02*
X-1120000Y-77890000D01*
X1120000Y-82130000D02*
X-1120000Y-82130000D01*
X1120000Y-81530000D02*
X-1120000Y-81530000D01*
X1120000Y-81410000D02*
X-1120000Y-81410000D01*
X1120000Y-81290000D02*
X-1120000Y-81290000D01*
X-1120000Y-77890000D02*
X1120000Y-77890000D01*
X1120000Y-77890000D02*
X1120000Y-82130000D01*
X0Y-77240000D02*
X0Y-77890000D01*
X233362500Y-63730000D02*
X233362500Y-63080000D01*
X232242500Y-63080000D02*
X232242500Y-58840000D01*
X234482500Y-63080000D02*
X232242500Y-63080000D01*
X234482500Y-62480000D02*
X232242500Y-62480000D01*
X234482500Y-62360000D02*
X232242500Y-62360000D01*
X234482500Y-62240000D02*
X232242500Y-62240000D01*
X232242500Y-58840000D02*
X234482500Y-58840000D01*
X234482500Y-58840000D02*
X234482500Y-63080000D01*
X233362500Y-58190000D02*
X233362500Y-58840000D01*
X195262500Y-73255000D02*
X195262500Y-72605000D01*
X194142500Y-72605000D02*
X194142500Y-68365000D01*
X196382500Y-72605000D02*
X194142500Y-72605000D01*
X196382500Y-72005000D02*
X194142500Y-72005000D01*
X196382500Y-71885000D02*
X194142500Y-71885000D01*
X196382500Y-71765000D02*
X194142500Y-71765000D01*
X194142500Y-68365000D02*
X196382500Y-68365000D01*
X196382500Y-68365000D02*
X196382500Y-72605000D01*
X195262500Y-67715000D02*
X195262500Y-68365000D01*
X19050000Y-63730000D02*
X19050000Y-63080000D01*
X17930000Y-63080000D02*
X17930000Y-58840000D01*
X20170000Y-63080000D02*
X17930000Y-63080000D01*
X20170000Y-62480000D02*
X17930000Y-62480000D01*
X20170000Y-62360000D02*
X17930000Y-62360000D01*
X20170000Y-62240000D02*
X17930000Y-62240000D01*
X17930000Y-58840000D02*
X20170000Y-58840000D01*
X20170000Y-58840000D02*
X20170000Y-63080000D01*
X19050000Y-58190000D02*
X19050000Y-58840000D01*
X195262500Y-92305000D02*
X195262500Y-91655000D01*
X194142500Y-91655000D02*
X194142500Y-87415000D01*
X196382500Y-91655000D02*
X194142500Y-91655000D01*
X196382500Y-91055000D02*
X194142500Y-91055000D01*
X196382500Y-90935000D02*
X194142500Y-90935000D01*
X196382500Y-90815000D02*
X194142500Y-90815000D01*
X194142500Y-87415000D02*
X196382500Y-87415000D01*
X196382500Y-87415000D02*
X196382500Y-91655000D01*
X195262500Y-86765000D02*
X195262500Y-87415000D01*
X76200000Y-97067500D02*
X76200000Y-96417500D01*
X75080000Y-96417500D02*
X75080000Y-92177500D01*
X77320000Y-96417500D02*
X75080000Y-96417500D01*
X77320000Y-95817500D02*
X75080000Y-95817500D01*
X77320000Y-95697500D02*
X75080000Y-95697500D01*
X77320000Y-95577500D02*
X75080000Y-95577500D01*
X75080000Y-92177500D02*
X77320000Y-92177500D01*
X77320000Y-92177500D02*
X77320000Y-96417500D01*
X76200000Y-91527500D02*
X76200000Y-92177500D01*
X95250000Y-63730000D02*
X95250000Y-63080000D01*
X94130000Y-63080000D02*
X94130000Y-58840000D01*
X96370000Y-63080000D02*
X94130000Y-63080000D01*
X96370000Y-62480000D02*
X94130000Y-62480000D01*
X96370000Y-62360000D02*
X94130000Y-62360000D01*
X96370000Y-62240000D02*
X94130000Y-62240000D01*
X94130000Y-58840000D02*
X96370000Y-58840000D01*
X96370000Y-58840000D02*
X96370000Y-63080000D01*
X95250000Y-58190000D02*
X95250000Y-58840000D01*
X195262500Y-35155000D02*
X195262500Y-34505000D01*
X194142500Y-34505000D02*
X194142500Y-30265000D01*
X196382500Y-34505000D02*
X194142500Y-34505000D01*
X196382500Y-33905000D02*
X194142500Y-33905000D01*
X196382500Y-33785000D02*
X194142500Y-33785000D01*
X196382500Y-33665000D02*
X194142500Y-33665000D01*
X194142500Y-30265000D02*
X196382500Y-30265000D01*
X196382500Y-30265000D02*
X196382500Y-34505000D01*
X195262500Y-29615000D02*
X195262500Y-30265000D01*
X157162500Y-63730000D02*
X157162500Y-63080000D01*
X156042500Y-63080000D02*
X156042500Y-58840000D01*
X158282500Y-63080000D02*
X156042500Y-63080000D01*
X158282500Y-62480000D02*
X156042500Y-62480000D01*
X158282500Y-62360000D02*
X156042500Y-62360000D01*
X158282500Y-62240000D02*
X156042500Y-62240000D01*
X156042500Y-58840000D02*
X158282500Y-58840000D01*
X158282500Y-58840000D02*
X158282500Y-63080000D01*
X157162500Y-58190000D02*
X157162500Y-58840000D01*
X214312500Y-39917500D02*
X214312500Y-39267500D01*
X213192500Y-39267500D02*
X213192500Y-35027500D01*
X215432500Y-39267500D02*
X213192500Y-39267500D01*
X215432500Y-38667500D02*
X213192500Y-38667500D01*
X215432500Y-38547500D02*
X213192500Y-38547500D01*
X215432500Y-38427500D02*
X213192500Y-38427500D01*
X213192500Y-35027500D02*
X215432500Y-35027500D01*
X215432500Y-35027500D02*
X215432500Y-39267500D01*
X214312500Y-34377500D02*
X214312500Y-35027500D01*
X233362500Y-44680000D02*
X233362500Y-44030000D01*
X232242500Y-44030000D02*
X232242500Y-39790000D01*
X234482500Y-44030000D02*
X232242500Y-44030000D01*
X234482500Y-43430000D02*
X232242500Y-43430000D01*
X234482500Y-43310000D02*
X232242500Y-43310000D01*
X234482500Y-43190000D02*
X232242500Y-43190000D01*
X232242500Y-39790000D02*
X234482500Y-39790000D01*
X234482500Y-39790000D02*
X234482500Y-44030000D01*
X233362500Y-39140000D02*
X233362500Y-39790000D01*
%LPC*%
D12*
X235743750Y-92868750D03*
X233362500Y-26193750D03*
X183356250Y-26193750D03*
X135731250Y-33337500D03*
X138112500Y-109537500D03*
X197643750Y-102393750D03*
X271462500Y-90487500D03*
X271462500Y-33337500D03*
X16668750Y-92868750D03*
X19050000Y-26193750D03*
X69056250Y-26193750D03*
X116681250Y-33337500D03*
X114300000Y-109537500D03*
X54768750Y-102393750D03*
X-19050000Y-90487500D03*
X-19050000Y-33337500D03*
D13*
X80645000Y-80962500D03*
D14*
X85725000Y-80962500D03*
D13*
X90805000Y-80962500D03*
D15*
X81915000Y-78422500D03*
X88265000Y-75882500D03*
D13*
X42545000Y-90487500D03*
D14*
X47625000Y-90487500D03*
D13*
X52705000Y-90487500D03*
D15*
X43815000Y-87947500D03*
X50165000Y-85407500D03*
D13*
X42545000Y-71437500D03*
D14*
X47625000Y-71437500D03*
D13*
X52705000Y-71437500D03*
D15*
X43815000Y-68897500D03*
X50165000Y-66357500D03*
D16*
X31075000Y-88000000D03*
D17*
X26075000Y-88000000D03*
X28575000Y-88000000D03*
D18*
X34175000Y-95500000D03*
X22975000Y-95500000D03*
D17*
X26075000Y-102500000D03*
X31075000Y-102500000D03*
D13*
X218757500Y-57150000D03*
D14*
X223837500Y-57150000D03*
D13*
X228917500Y-57150000D03*
D15*
X220027500Y-54610000D03*
X226377500Y-52070000D03*
D13*
X218757500Y-76200000D03*
D14*
X223837500Y-76200000D03*
D13*
X228917500Y-76200000D03*
D15*
X220027500Y-73660000D03*
X226377500Y-71120000D03*
D13*
X4445000Y-61912500D03*
D14*
X9525000Y-61912500D03*
D13*
X14605000Y-61912500D03*
D15*
X5715000Y-59372500D03*
X12065000Y-56832500D03*
D19*
X117132500Y-37465000D03*
X117132500Y-40005000D03*
X117132500Y-42545000D03*
X117132500Y-45085000D03*
X117132500Y-47625000D03*
X117132500Y-50165000D03*
X117132500Y-52705000D03*
X117132500Y-55245000D03*
X117132500Y-57785000D03*
D20*
X114092500Y-58285000D03*
X111552500Y-58285000D03*
X109012500Y-58285000D03*
X106472500Y-58285000D03*
X103932500Y-58285000D03*
D19*
X100892500Y-57785000D03*
X100892500Y-55245000D03*
X100892500Y-52705000D03*
X100892500Y-50165000D03*
X100892500Y-47625000D03*
X100892500Y-45085000D03*
X100892500Y-42545000D03*
X100892500Y-40005000D03*
X100892500Y-37465000D03*
D13*
X42545000Y-33337500D03*
D14*
X47625000Y-33337500D03*
D13*
X52705000Y-33337500D03*
D15*
X43815000Y-30797500D03*
X50165000Y-28257500D03*
D13*
X80645000Y-61912500D03*
D14*
X85725000Y-61912500D03*
D13*
X90805000Y-61912500D03*
D15*
X81915000Y-59372500D03*
X88265000Y-56832500D03*
D13*
X161607500Y-80962500D03*
D14*
X166687500Y-80962500D03*
D13*
X171767500Y-80962500D03*
D15*
X162877500Y-78422500D03*
X169227500Y-75882500D03*
D13*
X218757500Y-38100000D03*
D14*
X223837500Y-38100000D03*
D13*
X228917500Y-38100000D03*
D15*
X220027500Y-35560000D03*
X226377500Y-33020000D03*
D13*
X4445000Y-42862500D03*
D14*
X9525000Y-42862500D03*
D13*
X14605000Y-42862500D03*
D15*
X5715000Y-40322500D03*
X12065000Y-37782500D03*
D13*
X199707500Y-90487500D03*
D14*
X204787500Y-90487500D03*
D13*
X209867500Y-90487500D03*
D15*
X200977500Y-87947500D03*
X207327500Y-85407500D03*
D13*
X237807500Y-61912500D03*
D14*
X242887500Y-61912500D03*
D13*
X247967500Y-61912500D03*
D15*
X239077500Y-59372500D03*
X245427500Y-56832500D03*
D13*
X161607500Y-100012500D03*
D14*
X166687500Y-100012500D03*
D13*
X171767500Y-100012500D03*
D15*
X162877500Y-97472500D03*
X169227500Y-94932500D03*
D13*
X237807500Y-80962500D03*
D14*
X242887500Y-80962500D03*
D13*
X247967500Y-80962500D03*
D15*
X239077500Y-78422500D03*
X245427500Y-75882500D03*
D13*
X-14605000Y-80962500D03*
D14*
X-9525000Y-80962500D03*
D13*
X-4445000Y-80962500D03*
D15*
X-13335000Y-78422500D03*
X-6985000Y-75882500D03*
D13*
X-14605000Y-61912500D03*
D14*
X-9525000Y-61912500D03*
D13*
X-4445000Y-61912500D03*
D15*
X-13335000Y-59372500D03*
X-6985000Y-56832500D03*
D13*
X199707500Y-52387500D03*
D14*
X204787500Y-52387500D03*
D13*
X209867500Y-52387500D03*
D15*
X200977500Y-49847500D03*
X207327500Y-47307500D03*
D13*
X4445000Y-80962500D03*
D14*
X9525000Y-80962500D03*
D13*
X14605000Y-80962500D03*
D15*
X5715000Y-78422500D03*
X12065000Y-75882500D03*
D13*
X61595000Y-38100000D03*
D14*
X66675000Y-38100000D03*
D13*
X71755000Y-38100000D03*
D15*
X62865000Y-35560000D03*
X69215000Y-33020000D03*
D13*
X42545000Y-52387500D03*
D14*
X47625000Y-52387500D03*
D13*
X52705000Y-52387500D03*
D15*
X43815000Y-49847500D03*
X50165000Y-47307500D03*
D13*
X256857500Y-80962500D03*
D14*
X261937500Y-80962500D03*
D13*
X267017500Y-80962500D03*
D15*
X258127500Y-78422500D03*
X264477500Y-75882500D03*
D13*
X180657500Y-95250000D03*
D14*
X185737500Y-95250000D03*
D13*
X190817500Y-95250000D03*
D15*
X181927500Y-92710000D03*
X188277500Y-90170000D03*
D13*
X23495000Y-57150000D03*
D14*
X28575000Y-57150000D03*
D13*
X33655000Y-57150000D03*
D15*
X24765000Y-54610000D03*
X31115000Y-52070000D03*
D13*
X180657500Y-57150000D03*
D14*
X185737500Y-57150000D03*
D13*
X190817500Y-57150000D03*
D15*
X181927500Y-54610000D03*
X188277500Y-52070000D03*
D21*
X116243750Y-68975000D03*
X113243750Y-68975000D03*
X109243750Y-68975000D03*
X108143750Y-64375000D03*
D22*
X110843750Y-66675000D03*
X117843750Y-66675000D03*
D13*
X180657500Y-76200000D03*
D14*
X185737500Y-76200000D03*
D13*
X190817500Y-76200000D03*
D15*
X181927500Y-73660000D03*
X188277500Y-71120000D03*
D13*
X23495000Y-38100000D03*
D14*
X28575000Y-38100000D03*
D13*
X33655000Y-38100000D03*
D15*
X24765000Y-35560000D03*
X31115000Y-33020000D03*
D19*
X151520000Y-37465000D03*
X151520000Y-40005000D03*
X151520000Y-42545000D03*
X151520000Y-45085000D03*
X151520000Y-47625000D03*
X151520000Y-50165000D03*
X151520000Y-52705000D03*
X151520000Y-55245000D03*
X151520000Y-57785000D03*
D20*
X148480000Y-58285000D03*
X145940000Y-58285000D03*
X143400000Y-58285000D03*
X140860000Y-58285000D03*
X138320000Y-58285000D03*
D19*
X135280000Y-57785000D03*
X135280000Y-55245000D03*
X135280000Y-52705000D03*
X135280000Y-50165000D03*
X135280000Y-47625000D03*
X135280000Y-45085000D03*
X135280000Y-42545000D03*
X135280000Y-40005000D03*
X135280000Y-37465000D03*
D13*
X161607500Y-61912500D03*
D14*
X166687500Y-61912500D03*
D13*
X171767500Y-61912500D03*
D15*
X162877500Y-59372500D03*
X169227500Y-56832500D03*
D13*
X80645000Y-42862500D03*
D14*
X85725000Y-42862500D03*
D13*
X90805000Y-42862500D03*
D15*
X81915000Y-40322500D03*
X88265000Y-37782500D03*
D13*
X61595000Y-95250000D03*
D14*
X66675000Y-95250000D03*
D13*
X71755000Y-95250000D03*
D15*
X62865000Y-92710000D03*
X69215000Y-90170000D03*
D13*
X199707500Y-71437500D03*
D14*
X204787500Y-71437500D03*
D13*
X209867500Y-71437500D03*
D15*
X200977500Y-68897500D03*
X207327500Y-66357500D03*
D13*
X256857500Y-42862500D03*
D14*
X261937500Y-42862500D03*
D13*
X267017500Y-42862500D03*
D15*
X258127500Y-40322500D03*
X264477500Y-37782500D03*
D13*
X161607500Y-42862500D03*
D14*
X166687500Y-42862500D03*
D13*
X171767500Y-42862500D03*
D15*
X162877500Y-40322500D03*
X169227500Y-37782500D03*
D13*
X61595000Y-76200000D03*
D14*
X66675000Y-76200000D03*
D13*
X71755000Y-76200000D03*
D15*
X62865000Y-73660000D03*
X69215000Y-71120000D03*
D13*
X23495000Y-76200000D03*
D14*
X28575000Y-76200000D03*
D13*
X33655000Y-76200000D03*
D15*
X24765000Y-73660000D03*
X31115000Y-71120000D03*
D13*
X142557500Y-100012500D03*
D14*
X147637500Y-100012500D03*
D13*
X152717500Y-100012500D03*
D15*
X143827500Y-97472500D03*
X150177500Y-94932500D03*
D13*
X142557500Y-80962500D03*
D14*
X147637500Y-80962500D03*
D13*
X152717500Y-80962500D03*
D15*
X143827500Y-78422500D03*
X150177500Y-75882500D03*
D16*
X226337500Y-88000000D03*
D17*
X221337500Y-88000000D03*
X223837500Y-88000000D03*
D18*
X229437500Y-95500000D03*
X218237500Y-95500000D03*
D17*
X221337500Y-102500000D03*
X226337500Y-102500000D03*
D13*
X256857500Y-61912500D03*
D14*
X261937500Y-61912500D03*
D13*
X267017500Y-61912500D03*
D15*
X258127500Y-59372500D03*
X264477500Y-56832500D03*
D13*
X199707500Y-33337500D03*
D14*
X204787500Y-33337500D03*
D13*
X209867500Y-33337500D03*
D15*
X200977500Y-30797500D03*
X207327500Y-28257500D03*
D13*
X80645000Y-100012500D03*
D14*
X85725000Y-100012500D03*
D13*
X90805000Y-100012500D03*
D15*
X81915000Y-97472500D03*
X88265000Y-94932500D03*
D13*
X99695000Y-100012500D03*
D14*
X104775000Y-100012500D03*
D13*
X109855000Y-100012500D03*
D15*
X100965000Y-97472500D03*
X107315000Y-94932500D03*
D13*
X-14605000Y-42862500D03*
D14*
X-9525000Y-42862500D03*
D13*
X-4445000Y-42862500D03*
D15*
X-13335000Y-40322500D03*
X-6985000Y-37782500D03*
D13*
X99695000Y-80962500D03*
D14*
X104775000Y-80962500D03*
D13*
X109855000Y-80962500D03*
D15*
X100965000Y-78422500D03*
X107315000Y-75882500D03*
D13*
X180657500Y-38100000D03*
D14*
X185737500Y-38100000D03*
D13*
X190817500Y-38100000D03*
D15*
X181927500Y-35560000D03*
X188277500Y-33020000D03*
D13*
X237807500Y-42862500D03*
D14*
X242887500Y-42862500D03*
D13*
X247967500Y-42862500D03*
D15*
X239077500Y-40322500D03*
X245427500Y-37782500D03*
D13*
X61595000Y-57150000D03*
D14*
X66675000Y-57150000D03*
D13*
X71755000Y-57150000D03*
D15*
X62865000Y-54610000D03*
X69215000Y-52070000D03*
D23*
X176212500Y-79057500D03*
D24*
X176212500Y-71437500D03*
D23*
X195262500Y-55245000D03*
D24*
X195262500Y-47625000D03*
D23*
X76200000Y-60007500D03*
D24*
X76200000Y-52387500D03*
D23*
X138112500Y-102870000D03*
D24*
X138112500Y-95250000D03*
D23*
X57150000Y-55245000D03*
D24*
X57150000Y-47625000D03*
D23*
X214312500Y-98107500D03*
D24*
X214312500Y-90487500D03*
D23*
X38100000Y-40957500D03*
D24*
X38100000Y-33337500D03*
D23*
X95250000Y-102870000D03*
D24*
X95250000Y-95250000D03*
D23*
X38100000Y-79057500D03*
D24*
X38100000Y-71437500D03*
D23*
X214312500Y-79057500D03*
D24*
X214312500Y-71437500D03*
D23*
X57150000Y-93345000D03*
D24*
X57150000Y-85725000D03*
D23*
X57150000Y-74295000D03*
D24*
X57150000Y-66675000D03*
D23*
X252412500Y-64770000D03*
D24*
X252412500Y-57150000D03*
D23*
X176212500Y-40957500D03*
D24*
X176212500Y-33337500D03*
D23*
X157162500Y-102870000D03*
D24*
X157162500Y-95250000D03*
D23*
X176212500Y-60007500D03*
D24*
X176212500Y-52387500D03*
D21*
X136168750Y-64375000D03*
X139168750Y-64375000D03*
X143168750Y-64375000D03*
X144268750Y-68975000D03*
D22*
X134568750Y-66675000D03*
X141568750Y-66675000D03*
D23*
X176212500Y-98107500D03*
D24*
X176212500Y-90487500D03*
D23*
X214312500Y-60007500D03*
D24*
X214312500Y-52387500D03*
D23*
X114300000Y-83820000D03*
D24*
X114300000Y-76200000D03*
D23*
X76200000Y-40957500D03*
D24*
X76200000Y-33337500D03*
D23*
X57150000Y-36195000D03*
D24*
X57150000Y-28575000D03*
D23*
X114300000Y-102870000D03*
D24*
X114300000Y-95250000D03*
D23*
X252412500Y-83820000D03*
D24*
X252412500Y-76200000D03*
D23*
X38100000Y-60007500D03*
D24*
X38100000Y-52387500D03*
D23*
X233362500Y-83820000D03*
D24*
X233362500Y-76200000D03*
D23*
X38100000Y-90487500D03*
D24*
X38100000Y-98107500D03*
D23*
X138112500Y-83820000D03*
D24*
X138112500Y-76200000D03*
D23*
X0Y-45720000D03*
D24*
X0Y-38100000D03*
D23*
X157162500Y-45720000D03*
D24*
X157162500Y-38100000D03*
D23*
X0Y-64770000D03*
D24*
X0Y-57150000D03*
D23*
X95250000Y-83820000D03*
D24*
X95250000Y-76200000D03*
D23*
X95250000Y-45720000D03*
D24*
X95250000Y-38100000D03*
D23*
X76200000Y-79057500D03*
D24*
X76200000Y-71437500D03*
D23*
X19050000Y-83820000D03*
D24*
X19050000Y-76200000D03*
D23*
X157162500Y-83820000D03*
D24*
X157162500Y-76200000D03*
D23*
X252412500Y-45720000D03*
D24*
X252412500Y-38100000D03*
D23*
X19050000Y-45720000D03*
D24*
X19050000Y-38100000D03*
D23*
X0Y-83820000D03*
D24*
X0Y-76200000D03*
D23*
X233362500Y-64770000D03*
D24*
X233362500Y-57150000D03*
D23*
X195262500Y-74295000D03*
D24*
X195262500Y-66675000D03*
D23*
X19050000Y-64770000D03*
D24*
X19050000Y-57150000D03*
D23*
X195262500Y-93345000D03*
D24*
X195262500Y-85725000D03*
D23*
X76200000Y-98107500D03*
D24*
X76200000Y-90487500D03*
D23*
X95250000Y-64770000D03*
D24*
X95250000Y-57150000D03*
D23*
X195262500Y-36195000D03*
D24*
X195262500Y-28575000D03*
D23*
X157162500Y-64770000D03*
D24*
X157162500Y-57150000D03*
D23*
X214312500Y-40957500D03*
D24*
X214312500Y-33337500D03*
D23*
X233362500Y-45720000D03*
D24*
X233362500Y-38100000D03*
%LPD*%
M02*
