%TF.GenerationSoftware,KiCad,Pcbnew,7.0.8*%
%TF.CreationDate,2023-11-04T09:20:36+09:00*%
%TF.ProjectId,scene46,7363656e-6534-4362-9e6b-696361645f70,rev?*%
%TF.SameCoordinates,Original*%
%TF.FileFunction,Legend,Bot*%
%TF.FilePolarity,Positive*%
%FSLAX46Y46*%
G04 Gerber Fmt 4.6, Leading zero omitted, Abs format (unit mm)*
G04 Created by KiCad (PCBNEW 7.0.8) date 2023-11-04 09:20:36*
%MOMM*%
%LPD*%
G01*
G04 APERTURE LIST*
%ADD10C,0.150000*%
%ADD11C,0.200000*%
%ADD12C,0.120000*%
%ADD13R,1.752600X1.752600*%
%ADD14C,1.752600*%
G04 APERTURE END LIST*
D10*
X140385725Y-37827295D02*
X140385725Y-37027295D01*
X140385725Y-37027295D02*
X140195249Y-37027295D01*
X140195249Y-37027295D02*
X140080963Y-37065390D01*
X140080963Y-37065390D02*
X140004773Y-37141580D01*
X140004773Y-37141580D02*
X139966678Y-37217771D01*
X139966678Y-37217771D02*
X139928582Y-37370152D01*
X139928582Y-37370152D02*
X139928582Y-37484438D01*
X139928582Y-37484438D02*
X139966678Y-37636819D01*
X139966678Y-37636819D02*
X140004773Y-37713009D01*
X140004773Y-37713009D02*
X140080963Y-37789200D01*
X140080963Y-37789200D02*
X140195249Y-37827295D01*
X140195249Y-37827295D02*
X140385725Y-37827295D01*
X139166678Y-37827295D02*
X139623821Y-37827295D01*
X139395249Y-37827295D02*
X139395249Y-37027295D01*
X139395249Y-37027295D02*
X139471440Y-37141580D01*
X139471440Y-37141580D02*
X139547630Y-37217771D01*
X139547630Y-37217771D02*
X139623821Y-37255866D01*
X140404773Y-31985390D02*
X140480963Y-31947295D01*
X140480963Y-31947295D02*
X140595249Y-31947295D01*
X140595249Y-31947295D02*
X140709535Y-31985390D01*
X140709535Y-31985390D02*
X140785725Y-32061580D01*
X140785725Y-32061580D02*
X140823820Y-32137771D01*
X140823820Y-32137771D02*
X140861916Y-32290152D01*
X140861916Y-32290152D02*
X140861916Y-32404438D01*
X140861916Y-32404438D02*
X140823820Y-32556819D01*
X140823820Y-32556819D02*
X140785725Y-32633009D01*
X140785725Y-32633009D02*
X140709535Y-32709200D01*
X140709535Y-32709200D02*
X140595249Y-32747295D01*
X140595249Y-32747295D02*
X140519058Y-32747295D01*
X140519058Y-32747295D02*
X140404773Y-32709200D01*
X140404773Y-32709200D02*
X140366677Y-32671104D01*
X140366677Y-32671104D02*
X140366677Y-32404438D01*
X140366677Y-32404438D02*
X140519058Y-32404438D01*
X140023820Y-32747295D02*
X140023820Y-31947295D01*
X140023820Y-31947295D02*
X139566677Y-32747295D01*
X139566677Y-32747295D02*
X139566677Y-31947295D01*
X139185725Y-32747295D02*
X139185725Y-31947295D01*
X139185725Y-31947295D02*
X138995249Y-31947295D01*
X138995249Y-31947295D02*
X138880963Y-31985390D01*
X138880963Y-31985390D02*
X138804773Y-32061580D01*
X138804773Y-32061580D02*
X138766678Y-32137771D01*
X138766678Y-32137771D02*
X138728582Y-32290152D01*
X138728582Y-32290152D02*
X138728582Y-32404438D01*
X138728582Y-32404438D02*
X138766678Y-32556819D01*
X138766678Y-32556819D02*
X138804773Y-32633009D01*
X138804773Y-32633009D02*
X138880963Y-32709200D01*
X138880963Y-32709200D02*
X138995249Y-32747295D01*
X138995249Y-32747295D02*
X139185725Y-32747295D01*
X150983916Y-39948247D02*
X151250582Y-39948247D01*
X151250582Y-40367295D02*
X151250582Y-39567295D01*
X151250582Y-39567295D02*
X150869630Y-39567295D01*
X150183916Y-39567295D02*
X150564868Y-39567295D01*
X150564868Y-39567295D02*
X150602964Y-39948247D01*
X150602964Y-39948247D02*
X150564868Y-39910152D01*
X150564868Y-39910152D02*
X150488678Y-39872057D01*
X150488678Y-39872057D02*
X150298202Y-39872057D01*
X150298202Y-39872057D02*
X150222011Y-39910152D01*
X150222011Y-39910152D02*
X150183916Y-39948247D01*
X150183916Y-39948247D02*
X150145821Y-40024438D01*
X150145821Y-40024438D02*
X150145821Y-40214914D01*
X150145821Y-40214914D02*
X150183916Y-40291104D01*
X150183916Y-40291104D02*
X150222011Y-40329200D01*
X150222011Y-40329200D02*
X150298202Y-40367295D01*
X150298202Y-40367295D02*
X150488678Y-40367295D01*
X150488678Y-40367295D02*
X150564868Y-40329200D01*
X150564868Y-40329200D02*
X150602964Y-40291104D01*
X151041059Y-50108247D02*
X150926773Y-50146342D01*
X150926773Y-50146342D02*
X150888678Y-50184438D01*
X150888678Y-50184438D02*
X150850582Y-50260628D01*
X150850582Y-50260628D02*
X150850582Y-50374914D01*
X150850582Y-50374914D02*
X150888678Y-50451104D01*
X150888678Y-50451104D02*
X150926773Y-50489200D01*
X150926773Y-50489200D02*
X151002963Y-50527295D01*
X151002963Y-50527295D02*
X151307725Y-50527295D01*
X151307725Y-50527295D02*
X151307725Y-49727295D01*
X151307725Y-49727295D02*
X151041059Y-49727295D01*
X151041059Y-49727295D02*
X150964868Y-49765390D01*
X150964868Y-49765390D02*
X150926773Y-49803485D01*
X150926773Y-49803485D02*
X150888678Y-49879676D01*
X150888678Y-49879676D02*
X150888678Y-49955866D01*
X150888678Y-49955866D02*
X150926773Y-50032057D01*
X150926773Y-50032057D02*
X150964868Y-50070152D01*
X150964868Y-50070152D02*
X151041059Y-50108247D01*
X151041059Y-50108247D02*
X151307725Y-50108247D01*
X150583916Y-49727295D02*
X150088678Y-49727295D01*
X150088678Y-49727295D02*
X150355344Y-50032057D01*
X150355344Y-50032057D02*
X150241059Y-50032057D01*
X150241059Y-50032057D02*
X150164868Y-50070152D01*
X150164868Y-50070152D02*
X150126773Y-50108247D01*
X150126773Y-50108247D02*
X150088678Y-50184438D01*
X150088678Y-50184438D02*
X150088678Y-50374914D01*
X150088678Y-50374914D02*
X150126773Y-50451104D01*
X150126773Y-50451104D02*
X150164868Y-50489200D01*
X150164868Y-50489200D02*
X150241059Y-50527295D01*
X150241059Y-50527295D02*
X150469630Y-50527295D01*
X150469630Y-50527295D02*
X150545821Y-50489200D01*
X150545821Y-50489200D02*
X150583916Y-50451104D01*
X140385725Y-40367295D02*
X140385725Y-39567295D01*
X140385725Y-39567295D02*
X140195249Y-39567295D01*
X140195249Y-39567295D02*
X140080963Y-39605390D01*
X140080963Y-39605390D02*
X140004773Y-39681580D01*
X140004773Y-39681580D02*
X139966678Y-39757771D01*
X139966678Y-39757771D02*
X139928582Y-39910152D01*
X139928582Y-39910152D02*
X139928582Y-40024438D01*
X139928582Y-40024438D02*
X139966678Y-40176819D01*
X139966678Y-40176819D02*
X140004773Y-40253009D01*
X140004773Y-40253009D02*
X140080963Y-40329200D01*
X140080963Y-40329200D02*
X140195249Y-40367295D01*
X140195249Y-40367295D02*
X140385725Y-40367295D01*
X139433344Y-39567295D02*
X139357154Y-39567295D01*
X139357154Y-39567295D02*
X139280963Y-39605390D01*
X139280963Y-39605390D02*
X139242868Y-39643485D01*
X139242868Y-39643485D02*
X139204773Y-39719676D01*
X139204773Y-39719676D02*
X139166678Y-39872057D01*
X139166678Y-39872057D02*
X139166678Y-40062533D01*
X139166678Y-40062533D02*
X139204773Y-40214914D01*
X139204773Y-40214914D02*
X139242868Y-40291104D01*
X139242868Y-40291104D02*
X139280963Y-40329200D01*
X139280963Y-40329200D02*
X139357154Y-40367295D01*
X139357154Y-40367295D02*
X139433344Y-40367295D01*
X139433344Y-40367295D02*
X139509535Y-40329200D01*
X139509535Y-40329200D02*
X139547630Y-40291104D01*
X139547630Y-40291104D02*
X139585725Y-40214914D01*
X139585725Y-40214914D02*
X139623821Y-40062533D01*
X139623821Y-40062533D02*
X139623821Y-39872057D01*
X139623821Y-39872057D02*
X139585725Y-39719676D01*
X139585725Y-39719676D02*
X139547630Y-39643485D01*
X139547630Y-39643485D02*
X139509535Y-39605390D01*
X139509535Y-39605390D02*
X139433344Y-39567295D01*
X143874854Y-26867295D02*
X143417711Y-26867295D01*
X143646283Y-27667295D02*
X143646283Y-26867295D01*
X143227235Y-26867295D02*
X142693901Y-27667295D01*
X142693901Y-26867295D02*
X143227235Y-27667295D01*
X142236758Y-26867295D02*
X142160568Y-26867295D01*
X142160568Y-26867295D02*
X142084377Y-26905390D01*
X142084377Y-26905390D02*
X142046282Y-26943485D01*
X142046282Y-26943485D02*
X142008187Y-27019676D01*
X142008187Y-27019676D02*
X141970092Y-27172057D01*
X141970092Y-27172057D02*
X141970092Y-27362533D01*
X141970092Y-27362533D02*
X142008187Y-27514914D01*
X142008187Y-27514914D02*
X142046282Y-27591104D01*
X142046282Y-27591104D02*
X142084377Y-27629200D01*
X142084377Y-27629200D02*
X142160568Y-27667295D01*
X142160568Y-27667295D02*
X142236758Y-27667295D01*
X142236758Y-27667295D02*
X142312949Y-27629200D01*
X142312949Y-27629200D02*
X142351044Y-27591104D01*
X142351044Y-27591104D02*
X142389139Y-27514914D01*
X142389139Y-27514914D02*
X142427235Y-27362533D01*
X142427235Y-27362533D02*
X142427235Y-27172057D01*
X142427235Y-27172057D02*
X142389139Y-27019676D01*
X142389139Y-27019676D02*
X142351044Y-26943485D01*
X142351044Y-26943485D02*
X142312949Y-26905390D01*
X142312949Y-26905390D02*
X142236758Y-26867295D01*
X141055806Y-26829200D02*
X141741520Y-27857771D01*
X140789139Y-27667295D02*
X140789139Y-26867295D01*
X140789139Y-26867295D02*
X140598663Y-26867295D01*
X140598663Y-26867295D02*
X140484377Y-26905390D01*
X140484377Y-26905390D02*
X140408187Y-26981580D01*
X140408187Y-26981580D02*
X140370092Y-27057771D01*
X140370092Y-27057771D02*
X140331996Y-27210152D01*
X140331996Y-27210152D02*
X140331996Y-27324438D01*
X140331996Y-27324438D02*
X140370092Y-27476819D01*
X140370092Y-27476819D02*
X140408187Y-27553009D01*
X140408187Y-27553009D02*
X140484377Y-27629200D01*
X140484377Y-27629200D02*
X140598663Y-27667295D01*
X140598663Y-27667295D02*
X140789139Y-27667295D01*
X140065330Y-26867295D02*
X139570092Y-26867295D01*
X139570092Y-26867295D02*
X139836758Y-27172057D01*
X139836758Y-27172057D02*
X139722473Y-27172057D01*
X139722473Y-27172057D02*
X139646282Y-27210152D01*
X139646282Y-27210152D02*
X139608187Y-27248247D01*
X139608187Y-27248247D02*
X139570092Y-27324438D01*
X139570092Y-27324438D02*
X139570092Y-27514914D01*
X139570092Y-27514914D02*
X139608187Y-27591104D01*
X139608187Y-27591104D02*
X139646282Y-27629200D01*
X139646282Y-27629200D02*
X139722473Y-27667295D01*
X139722473Y-27667295D02*
X139951044Y-27667295D01*
X139951044Y-27667295D02*
X140027235Y-27629200D01*
X140027235Y-27629200D02*
X140065330Y-27591104D01*
X151783916Y-34487295D02*
X151517249Y-35287295D01*
X151517249Y-35287295D02*
X151250583Y-34487295D01*
X150526773Y-35211104D02*
X150564869Y-35249200D01*
X150564869Y-35249200D02*
X150679154Y-35287295D01*
X150679154Y-35287295D02*
X150755345Y-35287295D01*
X150755345Y-35287295D02*
X150869631Y-35249200D01*
X150869631Y-35249200D02*
X150945821Y-35173009D01*
X150945821Y-35173009D02*
X150983916Y-35096819D01*
X150983916Y-35096819D02*
X151022012Y-34944438D01*
X151022012Y-34944438D02*
X151022012Y-34830152D01*
X151022012Y-34830152D02*
X150983916Y-34677771D01*
X150983916Y-34677771D02*
X150945821Y-34601580D01*
X150945821Y-34601580D02*
X150869631Y-34525390D01*
X150869631Y-34525390D02*
X150755345Y-34487295D01*
X150755345Y-34487295D02*
X150679154Y-34487295D01*
X150679154Y-34487295D02*
X150564869Y-34525390D01*
X150564869Y-34525390D02*
X150526773Y-34563485D01*
X149726773Y-35211104D02*
X149764869Y-35249200D01*
X149764869Y-35249200D02*
X149879154Y-35287295D01*
X149879154Y-35287295D02*
X149955345Y-35287295D01*
X149955345Y-35287295D02*
X150069631Y-35249200D01*
X150069631Y-35249200D02*
X150145821Y-35173009D01*
X150145821Y-35173009D02*
X150183916Y-35096819D01*
X150183916Y-35096819D02*
X150222012Y-34944438D01*
X150222012Y-34944438D02*
X150222012Y-34830152D01*
X150222012Y-34830152D02*
X150183916Y-34677771D01*
X150183916Y-34677771D02*
X150145821Y-34601580D01*
X150145821Y-34601580D02*
X150069631Y-34525390D01*
X150069631Y-34525390D02*
X149955345Y-34487295D01*
X149955345Y-34487295D02*
X149879154Y-34487295D01*
X149879154Y-34487295D02*
X149764869Y-34525390D01*
X149764869Y-34525390D02*
X149726773Y-34563485D01*
X151041059Y-55188247D02*
X150926773Y-55226342D01*
X150926773Y-55226342D02*
X150888678Y-55264438D01*
X150888678Y-55264438D02*
X150850582Y-55340628D01*
X150850582Y-55340628D02*
X150850582Y-55454914D01*
X150850582Y-55454914D02*
X150888678Y-55531104D01*
X150888678Y-55531104D02*
X150926773Y-55569200D01*
X150926773Y-55569200D02*
X151002963Y-55607295D01*
X151002963Y-55607295D02*
X151307725Y-55607295D01*
X151307725Y-55607295D02*
X151307725Y-54807295D01*
X151307725Y-54807295D02*
X151041059Y-54807295D01*
X151041059Y-54807295D02*
X150964868Y-54845390D01*
X150964868Y-54845390D02*
X150926773Y-54883485D01*
X150926773Y-54883485D02*
X150888678Y-54959676D01*
X150888678Y-54959676D02*
X150888678Y-55035866D01*
X150888678Y-55035866D02*
X150926773Y-55112057D01*
X150926773Y-55112057D02*
X150964868Y-55150152D01*
X150964868Y-55150152D02*
X151041059Y-55188247D01*
X151041059Y-55188247D02*
X151307725Y-55188247D01*
X150164868Y-54807295D02*
X150317249Y-54807295D01*
X150317249Y-54807295D02*
X150393440Y-54845390D01*
X150393440Y-54845390D02*
X150431535Y-54883485D01*
X150431535Y-54883485D02*
X150507725Y-54997771D01*
X150507725Y-54997771D02*
X150545821Y-55150152D01*
X150545821Y-55150152D02*
X150545821Y-55454914D01*
X150545821Y-55454914D02*
X150507725Y-55531104D01*
X150507725Y-55531104D02*
X150469630Y-55569200D01*
X150469630Y-55569200D02*
X150393440Y-55607295D01*
X150393440Y-55607295D02*
X150241059Y-55607295D01*
X150241059Y-55607295D02*
X150164868Y-55569200D01*
X150164868Y-55569200D02*
X150126773Y-55531104D01*
X150126773Y-55531104D02*
X150088678Y-55454914D01*
X150088678Y-55454914D02*
X150088678Y-55264438D01*
X150088678Y-55264438D02*
X150126773Y-55188247D01*
X150126773Y-55188247D02*
X150164868Y-55150152D01*
X150164868Y-55150152D02*
X150241059Y-55112057D01*
X150241059Y-55112057D02*
X150393440Y-55112057D01*
X150393440Y-55112057D02*
X150469630Y-55150152D01*
X150469630Y-55150152D02*
X150507725Y-55188247D01*
X150507725Y-55188247D02*
X150545821Y-55264438D01*
X150829583Y-32689200D02*
X150715297Y-32727295D01*
X150715297Y-32727295D02*
X150524821Y-32727295D01*
X150524821Y-32727295D02*
X150448630Y-32689200D01*
X150448630Y-32689200D02*
X150410535Y-32651104D01*
X150410535Y-32651104D02*
X150372440Y-32574914D01*
X150372440Y-32574914D02*
X150372440Y-32498723D01*
X150372440Y-32498723D02*
X150410535Y-32422533D01*
X150410535Y-32422533D02*
X150448630Y-32384438D01*
X150448630Y-32384438D02*
X150524821Y-32346342D01*
X150524821Y-32346342D02*
X150677202Y-32308247D01*
X150677202Y-32308247D02*
X150753392Y-32270152D01*
X150753392Y-32270152D02*
X150791487Y-32232057D01*
X150791487Y-32232057D02*
X150829583Y-32155866D01*
X150829583Y-32155866D02*
X150829583Y-32079676D01*
X150829583Y-32079676D02*
X150791487Y-32003485D01*
X150791487Y-32003485D02*
X150753392Y-31965390D01*
X150753392Y-31965390D02*
X150677202Y-31927295D01*
X150677202Y-31927295D02*
X150486725Y-31927295D01*
X150486725Y-31927295D02*
X150372440Y-31965390D01*
X150143868Y-31927295D02*
X149686725Y-31927295D01*
X149915297Y-32727295D02*
X149915297Y-31927295D01*
X151269630Y-27667295D02*
X151536297Y-27286342D01*
X151726773Y-27667295D02*
X151726773Y-26867295D01*
X151726773Y-26867295D02*
X151422011Y-26867295D01*
X151422011Y-26867295D02*
X151345821Y-26905390D01*
X151345821Y-26905390D02*
X151307726Y-26943485D01*
X151307726Y-26943485D02*
X151269630Y-27019676D01*
X151269630Y-27019676D02*
X151269630Y-27133961D01*
X151269630Y-27133961D02*
X151307726Y-27210152D01*
X151307726Y-27210152D02*
X151345821Y-27248247D01*
X151345821Y-27248247D02*
X151422011Y-27286342D01*
X151422011Y-27286342D02*
X151726773Y-27286342D01*
X150964869Y-27438723D02*
X150583916Y-27438723D01*
X151041059Y-27667295D02*
X150774392Y-26867295D01*
X150774392Y-26867295D02*
X150507726Y-27667295D01*
X150317250Y-26867295D02*
X150126774Y-27667295D01*
X150126774Y-27667295D02*
X149974393Y-27095866D01*
X149974393Y-27095866D02*
X149822012Y-27667295D01*
X149822012Y-27667295D02*
X149631536Y-26867295D01*
X140385725Y-42907295D02*
X140385725Y-42107295D01*
X140385725Y-42107295D02*
X140195249Y-42107295D01*
X140195249Y-42107295D02*
X140080963Y-42145390D01*
X140080963Y-42145390D02*
X140004773Y-42221580D01*
X140004773Y-42221580D02*
X139966678Y-42297771D01*
X139966678Y-42297771D02*
X139928582Y-42450152D01*
X139928582Y-42450152D02*
X139928582Y-42564438D01*
X139928582Y-42564438D02*
X139966678Y-42716819D01*
X139966678Y-42716819D02*
X140004773Y-42793009D01*
X140004773Y-42793009D02*
X140080963Y-42869200D01*
X140080963Y-42869200D02*
X140195249Y-42907295D01*
X140195249Y-42907295D02*
X140385725Y-42907295D01*
X139242868Y-42373961D02*
X139242868Y-42907295D01*
X139433344Y-42069200D02*
X139623821Y-42640628D01*
X139623821Y-42640628D02*
X139128582Y-42640628D01*
X139928582Y-45371104D02*
X139966678Y-45409200D01*
X139966678Y-45409200D02*
X140080963Y-45447295D01*
X140080963Y-45447295D02*
X140157154Y-45447295D01*
X140157154Y-45447295D02*
X140271440Y-45409200D01*
X140271440Y-45409200D02*
X140347630Y-45333009D01*
X140347630Y-45333009D02*
X140385725Y-45256819D01*
X140385725Y-45256819D02*
X140423821Y-45104438D01*
X140423821Y-45104438D02*
X140423821Y-44990152D01*
X140423821Y-44990152D02*
X140385725Y-44837771D01*
X140385725Y-44837771D02*
X140347630Y-44761580D01*
X140347630Y-44761580D02*
X140271440Y-44685390D01*
X140271440Y-44685390D02*
X140157154Y-44647295D01*
X140157154Y-44647295D02*
X140080963Y-44647295D01*
X140080963Y-44647295D02*
X139966678Y-44685390D01*
X139966678Y-44685390D02*
X139928582Y-44723485D01*
X139242868Y-44647295D02*
X139395249Y-44647295D01*
X139395249Y-44647295D02*
X139471440Y-44685390D01*
X139471440Y-44685390D02*
X139509535Y-44723485D01*
X139509535Y-44723485D02*
X139585725Y-44837771D01*
X139585725Y-44837771D02*
X139623821Y-44990152D01*
X139623821Y-44990152D02*
X139623821Y-45294914D01*
X139623821Y-45294914D02*
X139585725Y-45371104D01*
X139585725Y-45371104D02*
X139547630Y-45409200D01*
X139547630Y-45409200D02*
X139471440Y-45447295D01*
X139471440Y-45447295D02*
X139319059Y-45447295D01*
X139319059Y-45447295D02*
X139242868Y-45409200D01*
X139242868Y-45409200D02*
X139204773Y-45371104D01*
X139204773Y-45371104D02*
X139166678Y-45294914D01*
X139166678Y-45294914D02*
X139166678Y-45104438D01*
X139166678Y-45104438D02*
X139204773Y-45028247D01*
X139204773Y-45028247D02*
X139242868Y-44990152D01*
X139242868Y-44990152D02*
X139319059Y-44952057D01*
X139319059Y-44952057D02*
X139471440Y-44952057D01*
X139471440Y-44952057D02*
X139547630Y-44990152D01*
X139547630Y-44990152D02*
X139585725Y-45028247D01*
X139585725Y-45028247D02*
X139623821Y-45104438D01*
X151041059Y-52648247D02*
X150926773Y-52686342D01*
X150926773Y-52686342D02*
X150888678Y-52724438D01*
X150888678Y-52724438D02*
X150850582Y-52800628D01*
X150850582Y-52800628D02*
X150850582Y-52914914D01*
X150850582Y-52914914D02*
X150888678Y-52991104D01*
X150888678Y-52991104D02*
X150926773Y-53029200D01*
X150926773Y-53029200D02*
X151002963Y-53067295D01*
X151002963Y-53067295D02*
X151307725Y-53067295D01*
X151307725Y-53067295D02*
X151307725Y-52267295D01*
X151307725Y-52267295D02*
X151041059Y-52267295D01*
X151041059Y-52267295D02*
X150964868Y-52305390D01*
X150964868Y-52305390D02*
X150926773Y-52343485D01*
X150926773Y-52343485D02*
X150888678Y-52419676D01*
X150888678Y-52419676D02*
X150888678Y-52495866D01*
X150888678Y-52495866D02*
X150926773Y-52572057D01*
X150926773Y-52572057D02*
X150964868Y-52610152D01*
X150964868Y-52610152D02*
X151041059Y-52648247D01*
X151041059Y-52648247D02*
X151307725Y-52648247D01*
X150545821Y-52343485D02*
X150507725Y-52305390D01*
X150507725Y-52305390D02*
X150431535Y-52267295D01*
X150431535Y-52267295D02*
X150241059Y-52267295D01*
X150241059Y-52267295D02*
X150164868Y-52305390D01*
X150164868Y-52305390D02*
X150126773Y-52343485D01*
X150126773Y-52343485D02*
X150088678Y-52419676D01*
X150088678Y-52419676D02*
X150088678Y-52495866D01*
X150088678Y-52495866D02*
X150126773Y-52610152D01*
X150126773Y-52610152D02*
X150583916Y-53067295D01*
X150583916Y-53067295D02*
X150088678Y-53067295D01*
X151041059Y-47568247D02*
X150926773Y-47606342D01*
X150926773Y-47606342D02*
X150888678Y-47644438D01*
X150888678Y-47644438D02*
X150850582Y-47720628D01*
X150850582Y-47720628D02*
X150850582Y-47834914D01*
X150850582Y-47834914D02*
X150888678Y-47911104D01*
X150888678Y-47911104D02*
X150926773Y-47949200D01*
X150926773Y-47949200D02*
X151002963Y-47987295D01*
X151002963Y-47987295D02*
X151307725Y-47987295D01*
X151307725Y-47987295D02*
X151307725Y-47187295D01*
X151307725Y-47187295D02*
X151041059Y-47187295D01*
X151041059Y-47187295D02*
X150964868Y-47225390D01*
X150964868Y-47225390D02*
X150926773Y-47263485D01*
X150926773Y-47263485D02*
X150888678Y-47339676D01*
X150888678Y-47339676D02*
X150888678Y-47415866D01*
X150888678Y-47415866D02*
X150926773Y-47492057D01*
X150926773Y-47492057D02*
X150964868Y-47530152D01*
X150964868Y-47530152D02*
X151041059Y-47568247D01*
X151041059Y-47568247D02*
X151307725Y-47568247D01*
X150088678Y-47987295D02*
X150545821Y-47987295D01*
X150317249Y-47987295D02*
X150317249Y-47187295D01*
X150317249Y-47187295D02*
X150393440Y-47301580D01*
X150393440Y-47301580D02*
X150469630Y-47377771D01*
X150469630Y-47377771D02*
X150545821Y-47415866D01*
X150983916Y-45028247D02*
X151250582Y-45028247D01*
X151250582Y-45447295D02*
X151250582Y-44647295D01*
X151250582Y-44647295D02*
X150869630Y-44647295D01*
X150641059Y-44647295D02*
X150107725Y-44647295D01*
X150107725Y-44647295D02*
X150450583Y-45447295D01*
X140385725Y-30207295D02*
X140385725Y-29407295D01*
X140385725Y-29407295D02*
X140195249Y-29407295D01*
X140195249Y-29407295D02*
X140080963Y-29445390D01*
X140080963Y-29445390D02*
X140004773Y-29521580D01*
X140004773Y-29521580D02*
X139966678Y-29597771D01*
X139966678Y-29597771D02*
X139928582Y-29750152D01*
X139928582Y-29750152D02*
X139928582Y-29864438D01*
X139928582Y-29864438D02*
X139966678Y-30016819D01*
X139966678Y-30016819D02*
X140004773Y-30093009D01*
X140004773Y-30093009D02*
X140080963Y-30169200D01*
X140080963Y-30169200D02*
X140195249Y-30207295D01*
X140195249Y-30207295D02*
X140385725Y-30207295D01*
X139623821Y-29483485D02*
X139585725Y-29445390D01*
X139585725Y-29445390D02*
X139509535Y-29407295D01*
X139509535Y-29407295D02*
X139319059Y-29407295D01*
X139319059Y-29407295D02*
X139242868Y-29445390D01*
X139242868Y-29445390D02*
X139204773Y-29483485D01*
X139204773Y-29483485D02*
X139166678Y-29559676D01*
X139166678Y-29559676D02*
X139166678Y-29635866D01*
X139166678Y-29635866D02*
X139204773Y-29750152D01*
X139204773Y-29750152D02*
X139661916Y-30207295D01*
X139661916Y-30207295D02*
X139166678Y-30207295D01*
X150983916Y-37408247D02*
X151250582Y-37408247D01*
X151250582Y-37827295D02*
X151250582Y-37027295D01*
X151250582Y-37027295D02*
X150869630Y-37027295D01*
X150222011Y-37293961D02*
X150222011Y-37827295D01*
X150412487Y-36989200D02*
X150602964Y-37560628D01*
X150602964Y-37560628D02*
X150107725Y-37560628D01*
X140119059Y-55188247D02*
X140004773Y-55226342D01*
X140004773Y-55226342D02*
X139966678Y-55264438D01*
X139966678Y-55264438D02*
X139928582Y-55340628D01*
X139928582Y-55340628D02*
X139928582Y-55454914D01*
X139928582Y-55454914D02*
X139966678Y-55531104D01*
X139966678Y-55531104D02*
X140004773Y-55569200D01*
X140004773Y-55569200D02*
X140080963Y-55607295D01*
X140080963Y-55607295D02*
X140385725Y-55607295D01*
X140385725Y-55607295D02*
X140385725Y-54807295D01*
X140385725Y-54807295D02*
X140119059Y-54807295D01*
X140119059Y-54807295D02*
X140042868Y-54845390D01*
X140042868Y-54845390D02*
X140004773Y-54883485D01*
X140004773Y-54883485D02*
X139966678Y-54959676D01*
X139966678Y-54959676D02*
X139966678Y-55035866D01*
X139966678Y-55035866D02*
X140004773Y-55112057D01*
X140004773Y-55112057D02*
X140042868Y-55150152D01*
X140042868Y-55150152D02*
X140119059Y-55188247D01*
X140119059Y-55188247D02*
X140385725Y-55188247D01*
X139204773Y-54807295D02*
X139585725Y-54807295D01*
X139585725Y-54807295D02*
X139623821Y-55188247D01*
X139623821Y-55188247D02*
X139585725Y-55150152D01*
X139585725Y-55150152D02*
X139509535Y-55112057D01*
X139509535Y-55112057D02*
X139319059Y-55112057D01*
X139319059Y-55112057D02*
X139242868Y-55150152D01*
X139242868Y-55150152D02*
X139204773Y-55188247D01*
X139204773Y-55188247D02*
X139166678Y-55264438D01*
X139166678Y-55264438D02*
X139166678Y-55454914D01*
X139166678Y-55454914D02*
X139204773Y-55531104D01*
X139204773Y-55531104D02*
X139242868Y-55569200D01*
X139242868Y-55569200D02*
X139319059Y-55607295D01*
X139319059Y-55607295D02*
X139509535Y-55607295D01*
X139509535Y-55607295D02*
X139585725Y-55569200D01*
X139585725Y-55569200D02*
X139623821Y-55531104D01*
X151326773Y-29445390D02*
X151402963Y-29407295D01*
X151402963Y-29407295D02*
X151517249Y-29407295D01*
X151517249Y-29407295D02*
X151631535Y-29445390D01*
X151631535Y-29445390D02*
X151707725Y-29521580D01*
X151707725Y-29521580D02*
X151745820Y-29597771D01*
X151745820Y-29597771D02*
X151783916Y-29750152D01*
X151783916Y-29750152D02*
X151783916Y-29864438D01*
X151783916Y-29864438D02*
X151745820Y-30016819D01*
X151745820Y-30016819D02*
X151707725Y-30093009D01*
X151707725Y-30093009D02*
X151631535Y-30169200D01*
X151631535Y-30169200D02*
X151517249Y-30207295D01*
X151517249Y-30207295D02*
X151441058Y-30207295D01*
X151441058Y-30207295D02*
X151326773Y-30169200D01*
X151326773Y-30169200D02*
X151288677Y-30131104D01*
X151288677Y-30131104D02*
X151288677Y-29864438D01*
X151288677Y-29864438D02*
X151441058Y-29864438D01*
X150945820Y-30207295D02*
X150945820Y-29407295D01*
X150945820Y-29407295D02*
X150488677Y-30207295D01*
X150488677Y-30207295D02*
X150488677Y-29407295D01*
X150107725Y-30207295D02*
X150107725Y-29407295D01*
X150107725Y-29407295D02*
X149917249Y-29407295D01*
X149917249Y-29407295D02*
X149802963Y-29445390D01*
X149802963Y-29445390D02*
X149726773Y-29521580D01*
X149726773Y-29521580D02*
X149688678Y-29597771D01*
X149688678Y-29597771D02*
X149650582Y-29750152D01*
X149650582Y-29750152D02*
X149650582Y-29864438D01*
X149650582Y-29864438D02*
X149688678Y-30016819D01*
X149688678Y-30016819D02*
X149726773Y-30093009D01*
X149726773Y-30093009D02*
X149802963Y-30169200D01*
X149802963Y-30169200D02*
X149917249Y-30207295D01*
X149917249Y-30207295D02*
X150107725Y-30207295D01*
X140119059Y-52648247D02*
X140004773Y-52686342D01*
X140004773Y-52686342D02*
X139966678Y-52724438D01*
X139966678Y-52724438D02*
X139928582Y-52800628D01*
X139928582Y-52800628D02*
X139928582Y-52914914D01*
X139928582Y-52914914D02*
X139966678Y-52991104D01*
X139966678Y-52991104D02*
X140004773Y-53029200D01*
X140004773Y-53029200D02*
X140080963Y-53067295D01*
X140080963Y-53067295D02*
X140385725Y-53067295D01*
X140385725Y-53067295D02*
X140385725Y-52267295D01*
X140385725Y-52267295D02*
X140119059Y-52267295D01*
X140119059Y-52267295D02*
X140042868Y-52305390D01*
X140042868Y-52305390D02*
X140004773Y-52343485D01*
X140004773Y-52343485D02*
X139966678Y-52419676D01*
X139966678Y-52419676D02*
X139966678Y-52495866D01*
X139966678Y-52495866D02*
X140004773Y-52572057D01*
X140004773Y-52572057D02*
X140042868Y-52610152D01*
X140042868Y-52610152D02*
X140119059Y-52648247D01*
X140119059Y-52648247D02*
X140385725Y-52648247D01*
X139242868Y-52533961D02*
X139242868Y-53067295D01*
X139433344Y-52229200D02*
X139623821Y-52800628D01*
X139623821Y-52800628D02*
X139128582Y-52800628D01*
X140347630Y-50108247D02*
X140080964Y-50108247D01*
X139966678Y-50527295D02*
X140347630Y-50527295D01*
X140347630Y-50527295D02*
X140347630Y-49727295D01*
X140347630Y-49727295D02*
X139966678Y-49727295D01*
X139280963Y-49727295D02*
X139433344Y-49727295D01*
X139433344Y-49727295D02*
X139509535Y-49765390D01*
X139509535Y-49765390D02*
X139547630Y-49803485D01*
X139547630Y-49803485D02*
X139623820Y-49917771D01*
X139623820Y-49917771D02*
X139661916Y-50070152D01*
X139661916Y-50070152D02*
X139661916Y-50374914D01*
X139661916Y-50374914D02*
X139623820Y-50451104D01*
X139623820Y-50451104D02*
X139585725Y-50489200D01*
X139585725Y-50489200D02*
X139509535Y-50527295D01*
X139509535Y-50527295D02*
X139357154Y-50527295D01*
X139357154Y-50527295D02*
X139280963Y-50489200D01*
X139280963Y-50489200D02*
X139242868Y-50451104D01*
X139242868Y-50451104D02*
X139204773Y-50374914D01*
X139204773Y-50374914D02*
X139204773Y-50184438D01*
X139204773Y-50184438D02*
X139242868Y-50108247D01*
X139242868Y-50108247D02*
X139280963Y-50070152D01*
X139280963Y-50070152D02*
X139357154Y-50032057D01*
X139357154Y-50032057D02*
X139509535Y-50032057D01*
X139509535Y-50032057D02*
X139585725Y-50070152D01*
X139585725Y-50070152D02*
X139623820Y-50108247D01*
X139623820Y-50108247D02*
X139661916Y-50184438D01*
X150983916Y-42488247D02*
X151250582Y-42488247D01*
X151250582Y-42907295D02*
X151250582Y-42107295D01*
X151250582Y-42107295D02*
X150869630Y-42107295D01*
X150222011Y-42107295D02*
X150374392Y-42107295D01*
X150374392Y-42107295D02*
X150450583Y-42145390D01*
X150450583Y-42145390D02*
X150488678Y-42183485D01*
X150488678Y-42183485D02*
X150564868Y-42297771D01*
X150564868Y-42297771D02*
X150602964Y-42450152D01*
X150602964Y-42450152D02*
X150602964Y-42754914D01*
X150602964Y-42754914D02*
X150564868Y-42831104D01*
X150564868Y-42831104D02*
X150526773Y-42869200D01*
X150526773Y-42869200D02*
X150450583Y-42907295D01*
X150450583Y-42907295D02*
X150298202Y-42907295D01*
X150298202Y-42907295D02*
X150222011Y-42869200D01*
X150222011Y-42869200D02*
X150183916Y-42831104D01*
X150183916Y-42831104D02*
X150145821Y-42754914D01*
X150145821Y-42754914D02*
X150145821Y-42564438D01*
X150145821Y-42564438D02*
X150183916Y-42488247D01*
X150183916Y-42488247D02*
X150222011Y-42450152D01*
X150222011Y-42450152D02*
X150298202Y-42412057D01*
X150298202Y-42412057D02*
X150450583Y-42412057D01*
X150450583Y-42412057D02*
X150526773Y-42450152D01*
X150526773Y-42450152D02*
X150564868Y-42488247D01*
X150564868Y-42488247D02*
X150602964Y-42564438D01*
X177004921Y-52648247D02*
X176890635Y-52686342D01*
X176890635Y-52686342D02*
X176852540Y-52724438D01*
X176852540Y-52724438D02*
X176814444Y-52800628D01*
X176814444Y-52800628D02*
X176814444Y-52914914D01*
X176814444Y-52914914D02*
X176852540Y-52991104D01*
X176852540Y-52991104D02*
X176890635Y-53029200D01*
X176890635Y-53029200D02*
X176966825Y-53067295D01*
X176966825Y-53067295D02*
X177271587Y-53067295D01*
X177271587Y-53067295D02*
X177271587Y-52267295D01*
X177271587Y-52267295D02*
X177004921Y-52267295D01*
X177004921Y-52267295D02*
X176928730Y-52305390D01*
X176928730Y-52305390D02*
X176890635Y-52343485D01*
X176890635Y-52343485D02*
X176852540Y-52419676D01*
X176852540Y-52419676D02*
X176852540Y-52495866D01*
X176852540Y-52495866D02*
X176890635Y-52572057D01*
X176890635Y-52572057D02*
X176928730Y-52610152D01*
X176928730Y-52610152D02*
X177004921Y-52648247D01*
X177004921Y-52648247D02*
X177271587Y-52648247D01*
X176128730Y-52533961D02*
X176128730Y-53067295D01*
X176319206Y-52229200D02*
X176509683Y-52800628D01*
X176509683Y-52800628D02*
X176014444Y-52800628D01*
X188212635Y-29445390D02*
X188288825Y-29407295D01*
X188288825Y-29407295D02*
X188403111Y-29407295D01*
X188403111Y-29407295D02*
X188517397Y-29445390D01*
X188517397Y-29445390D02*
X188593587Y-29521580D01*
X188593587Y-29521580D02*
X188631682Y-29597771D01*
X188631682Y-29597771D02*
X188669778Y-29750152D01*
X188669778Y-29750152D02*
X188669778Y-29864438D01*
X188669778Y-29864438D02*
X188631682Y-30016819D01*
X188631682Y-30016819D02*
X188593587Y-30093009D01*
X188593587Y-30093009D02*
X188517397Y-30169200D01*
X188517397Y-30169200D02*
X188403111Y-30207295D01*
X188403111Y-30207295D02*
X188326920Y-30207295D01*
X188326920Y-30207295D02*
X188212635Y-30169200D01*
X188212635Y-30169200D02*
X188174539Y-30131104D01*
X188174539Y-30131104D02*
X188174539Y-29864438D01*
X188174539Y-29864438D02*
X188326920Y-29864438D01*
X187831682Y-30207295D02*
X187831682Y-29407295D01*
X187831682Y-29407295D02*
X187374539Y-30207295D01*
X187374539Y-30207295D02*
X187374539Y-29407295D01*
X186993587Y-30207295D02*
X186993587Y-29407295D01*
X186993587Y-29407295D02*
X186803111Y-29407295D01*
X186803111Y-29407295D02*
X186688825Y-29445390D01*
X186688825Y-29445390D02*
X186612635Y-29521580D01*
X186612635Y-29521580D02*
X186574540Y-29597771D01*
X186574540Y-29597771D02*
X186536444Y-29750152D01*
X186536444Y-29750152D02*
X186536444Y-29864438D01*
X186536444Y-29864438D02*
X186574540Y-30016819D01*
X186574540Y-30016819D02*
X186612635Y-30093009D01*
X186612635Y-30093009D02*
X186688825Y-30169200D01*
X186688825Y-30169200D02*
X186803111Y-30207295D01*
X186803111Y-30207295D02*
X186993587Y-30207295D01*
X187869778Y-45028247D02*
X188136444Y-45028247D01*
X188136444Y-45447295D02*
X188136444Y-44647295D01*
X188136444Y-44647295D02*
X187755492Y-44647295D01*
X187526921Y-44647295D02*
X186993587Y-44647295D01*
X186993587Y-44647295D02*
X187336445Y-45447295D01*
X176814444Y-45371104D02*
X176852540Y-45409200D01*
X176852540Y-45409200D02*
X176966825Y-45447295D01*
X176966825Y-45447295D02*
X177043016Y-45447295D01*
X177043016Y-45447295D02*
X177157302Y-45409200D01*
X177157302Y-45409200D02*
X177233492Y-45333009D01*
X177233492Y-45333009D02*
X177271587Y-45256819D01*
X177271587Y-45256819D02*
X177309683Y-45104438D01*
X177309683Y-45104438D02*
X177309683Y-44990152D01*
X177309683Y-44990152D02*
X177271587Y-44837771D01*
X177271587Y-44837771D02*
X177233492Y-44761580D01*
X177233492Y-44761580D02*
X177157302Y-44685390D01*
X177157302Y-44685390D02*
X177043016Y-44647295D01*
X177043016Y-44647295D02*
X176966825Y-44647295D01*
X176966825Y-44647295D02*
X176852540Y-44685390D01*
X176852540Y-44685390D02*
X176814444Y-44723485D01*
X176128730Y-44647295D02*
X176281111Y-44647295D01*
X176281111Y-44647295D02*
X176357302Y-44685390D01*
X176357302Y-44685390D02*
X176395397Y-44723485D01*
X176395397Y-44723485D02*
X176471587Y-44837771D01*
X176471587Y-44837771D02*
X176509683Y-44990152D01*
X176509683Y-44990152D02*
X176509683Y-45294914D01*
X176509683Y-45294914D02*
X176471587Y-45371104D01*
X176471587Y-45371104D02*
X176433492Y-45409200D01*
X176433492Y-45409200D02*
X176357302Y-45447295D01*
X176357302Y-45447295D02*
X176204921Y-45447295D01*
X176204921Y-45447295D02*
X176128730Y-45409200D01*
X176128730Y-45409200D02*
X176090635Y-45371104D01*
X176090635Y-45371104D02*
X176052540Y-45294914D01*
X176052540Y-45294914D02*
X176052540Y-45104438D01*
X176052540Y-45104438D02*
X176090635Y-45028247D01*
X176090635Y-45028247D02*
X176128730Y-44990152D01*
X176128730Y-44990152D02*
X176204921Y-44952057D01*
X176204921Y-44952057D02*
X176357302Y-44952057D01*
X176357302Y-44952057D02*
X176433492Y-44990152D01*
X176433492Y-44990152D02*
X176471587Y-45028247D01*
X176471587Y-45028247D02*
X176509683Y-45104438D01*
X188155492Y-27667295D02*
X188422159Y-27286342D01*
X188612635Y-27667295D02*
X188612635Y-26867295D01*
X188612635Y-26867295D02*
X188307873Y-26867295D01*
X188307873Y-26867295D02*
X188231683Y-26905390D01*
X188231683Y-26905390D02*
X188193588Y-26943485D01*
X188193588Y-26943485D02*
X188155492Y-27019676D01*
X188155492Y-27019676D02*
X188155492Y-27133961D01*
X188155492Y-27133961D02*
X188193588Y-27210152D01*
X188193588Y-27210152D02*
X188231683Y-27248247D01*
X188231683Y-27248247D02*
X188307873Y-27286342D01*
X188307873Y-27286342D02*
X188612635Y-27286342D01*
X187850731Y-27438723D02*
X187469778Y-27438723D01*
X187926921Y-27667295D02*
X187660254Y-26867295D01*
X187660254Y-26867295D02*
X187393588Y-27667295D01*
X187203112Y-26867295D02*
X187012636Y-27667295D01*
X187012636Y-27667295D02*
X186860255Y-27095866D01*
X186860255Y-27095866D02*
X186707874Y-27667295D01*
X186707874Y-27667295D02*
X186517398Y-26867295D01*
X187926921Y-55188247D02*
X187812635Y-55226342D01*
X187812635Y-55226342D02*
X187774540Y-55264438D01*
X187774540Y-55264438D02*
X187736444Y-55340628D01*
X187736444Y-55340628D02*
X187736444Y-55454914D01*
X187736444Y-55454914D02*
X187774540Y-55531104D01*
X187774540Y-55531104D02*
X187812635Y-55569200D01*
X187812635Y-55569200D02*
X187888825Y-55607295D01*
X187888825Y-55607295D02*
X188193587Y-55607295D01*
X188193587Y-55607295D02*
X188193587Y-54807295D01*
X188193587Y-54807295D02*
X187926921Y-54807295D01*
X187926921Y-54807295D02*
X187850730Y-54845390D01*
X187850730Y-54845390D02*
X187812635Y-54883485D01*
X187812635Y-54883485D02*
X187774540Y-54959676D01*
X187774540Y-54959676D02*
X187774540Y-55035866D01*
X187774540Y-55035866D02*
X187812635Y-55112057D01*
X187812635Y-55112057D02*
X187850730Y-55150152D01*
X187850730Y-55150152D02*
X187926921Y-55188247D01*
X187926921Y-55188247D02*
X188193587Y-55188247D01*
X187050730Y-54807295D02*
X187203111Y-54807295D01*
X187203111Y-54807295D02*
X187279302Y-54845390D01*
X187279302Y-54845390D02*
X187317397Y-54883485D01*
X187317397Y-54883485D02*
X187393587Y-54997771D01*
X187393587Y-54997771D02*
X187431683Y-55150152D01*
X187431683Y-55150152D02*
X187431683Y-55454914D01*
X187431683Y-55454914D02*
X187393587Y-55531104D01*
X187393587Y-55531104D02*
X187355492Y-55569200D01*
X187355492Y-55569200D02*
X187279302Y-55607295D01*
X187279302Y-55607295D02*
X187126921Y-55607295D01*
X187126921Y-55607295D02*
X187050730Y-55569200D01*
X187050730Y-55569200D02*
X187012635Y-55531104D01*
X187012635Y-55531104D02*
X186974540Y-55454914D01*
X186974540Y-55454914D02*
X186974540Y-55264438D01*
X186974540Y-55264438D02*
X187012635Y-55188247D01*
X187012635Y-55188247D02*
X187050730Y-55150152D01*
X187050730Y-55150152D02*
X187126921Y-55112057D01*
X187126921Y-55112057D02*
X187279302Y-55112057D01*
X187279302Y-55112057D02*
X187355492Y-55150152D01*
X187355492Y-55150152D02*
X187393587Y-55188247D01*
X187393587Y-55188247D02*
X187431683Y-55264438D01*
X187869778Y-39948247D02*
X188136444Y-39948247D01*
X188136444Y-40367295D02*
X188136444Y-39567295D01*
X188136444Y-39567295D02*
X187755492Y-39567295D01*
X187069778Y-39567295D02*
X187450730Y-39567295D01*
X187450730Y-39567295D02*
X187488826Y-39948247D01*
X187488826Y-39948247D02*
X187450730Y-39910152D01*
X187450730Y-39910152D02*
X187374540Y-39872057D01*
X187374540Y-39872057D02*
X187184064Y-39872057D01*
X187184064Y-39872057D02*
X187107873Y-39910152D01*
X187107873Y-39910152D02*
X187069778Y-39948247D01*
X187069778Y-39948247D02*
X187031683Y-40024438D01*
X187031683Y-40024438D02*
X187031683Y-40214914D01*
X187031683Y-40214914D02*
X187069778Y-40291104D01*
X187069778Y-40291104D02*
X187107873Y-40329200D01*
X187107873Y-40329200D02*
X187184064Y-40367295D01*
X187184064Y-40367295D02*
X187374540Y-40367295D01*
X187374540Y-40367295D02*
X187450730Y-40329200D01*
X187450730Y-40329200D02*
X187488826Y-40291104D01*
X187926921Y-47568247D02*
X187812635Y-47606342D01*
X187812635Y-47606342D02*
X187774540Y-47644438D01*
X187774540Y-47644438D02*
X187736444Y-47720628D01*
X187736444Y-47720628D02*
X187736444Y-47834914D01*
X187736444Y-47834914D02*
X187774540Y-47911104D01*
X187774540Y-47911104D02*
X187812635Y-47949200D01*
X187812635Y-47949200D02*
X187888825Y-47987295D01*
X187888825Y-47987295D02*
X188193587Y-47987295D01*
X188193587Y-47987295D02*
X188193587Y-47187295D01*
X188193587Y-47187295D02*
X187926921Y-47187295D01*
X187926921Y-47187295D02*
X187850730Y-47225390D01*
X187850730Y-47225390D02*
X187812635Y-47263485D01*
X187812635Y-47263485D02*
X187774540Y-47339676D01*
X187774540Y-47339676D02*
X187774540Y-47415866D01*
X187774540Y-47415866D02*
X187812635Y-47492057D01*
X187812635Y-47492057D02*
X187850730Y-47530152D01*
X187850730Y-47530152D02*
X187926921Y-47568247D01*
X187926921Y-47568247D02*
X188193587Y-47568247D01*
X186974540Y-47987295D02*
X187431683Y-47987295D01*
X187203111Y-47987295D02*
X187203111Y-47187295D01*
X187203111Y-47187295D02*
X187279302Y-47301580D01*
X187279302Y-47301580D02*
X187355492Y-47377771D01*
X187355492Y-47377771D02*
X187431683Y-47415866D01*
X187926921Y-52648247D02*
X187812635Y-52686342D01*
X187812635Y-52686342D02*
X187774540Y-52724438D01*
X187774540Y-52724438D02*
X187736444Y-52800628D01*
X187736444Y-52800628D02*
X187736444Y-52914914D01*
X187736444Y-52914914D02*
X187774540Y-52991104D01*
X187774540Y-52991104D02*
X187812635Y-53029200D01*
X187812635Y-53029200D02*
X187888825Y-53067295D01*
X187888825Y-53067295D02*
X188193587Y-53067295D01*
X188193587Y-53067295D02*
X188193587Y-52267295D01*
X188193587Y-52267295D02*
X187926921Y-52267295D01*
X187926921Y-52267295D02*
X187850730Y-52305390D01*
X187850730Y-52305390D02*
X187812635Y-52343485D01*
X187812635Y-52343485D02*
X187774540Y-52419676D01*
X187774540Y-52419676D02*
X187774540Y-52495866D01*
X187774540Y-52495866D02*
X187812635Y-52572057D01*
X187812635Y-52572057D02*
X187850730Y-52610152D01*
X187850730Y-52610152D02*
X187926921Y-52648247D01*
X187926921Y-52648247D02*
X188193587Y-52648247D01*
X187431683Y-52343485D02*
X187393587Y-52305390D01*
X187393587Y-52305390D02*
X187317397Y-52267295D01*
X187317397Y-52267295D02*
X187126921Y-52267295D01*
X187126921Y-52267295D02*
X187050730Y-52305390D01*
X187050730Y-52305390D02*
X187012635Y-52343485D01*
X187012635Y-52343485D02*
X186974540Y-52419676D01*
X186974540Y-52419676D02*
X186974540Y-52495866D01*
X186974540Y-52495866D02*
X187012635Y-52610152D01*
X187012635Y-52610152D02*
X187469778Y-53067295D01*
X187469778Y-53067295D02*
X186974540Y-53067295D01*
X187869778Y-37408247D02*
X188136444Y-37408247D01*
X188136444Y-37827295D02*
X188136444Y-37027295D01*
X188136444Y-37027295D02*
X187755492Y-37027295D01*
X187107873Y-37293961D02*
X187107873Y-37827295D01*
X187298349Y-36989200D02*
X187488826Y-37560628D01*
X187488826Y-37560628D02*
X186993587Y-37560628D01*
X177004921Y-55188247D02*
X176890635Y-55226342D01*
X176890635Y-55226342D02*
X176852540Y-55264438D01*
X176852540Y-55264438D02*
X176814444Y-55340628D01*
X176814444Y-55340628D02*
X176814444Y-55454914D01*
X176814444Y-55454914D02*
X176852540Y-55531104D01*
X176852540Y-55531104D02*
X176890635Y-55569200D01*
X176890635Y-55569200D02*
X176966825Y-55607295D01*
X176966825Y-55607295D02*
X177271587Y-55607295D01*
X177271587Y-55607295D02*
X177271587Y-54807295D01*
X177271587Y-54807295D02*
X177004921Y-54807295D01*
X177004921Y-54807295D02*
X176928730Y-54845390D01*
X176928730Y-54845390D02*
X176890635Y-54883485D01*
X176890635Y-54883485D02*
X176852540Y-54959676D01*
X176852540Y-54959676D02*
X176852540Y-55035866D01*
X176852540Y-55035866D02*
X176890635Y-55112057D01*
X176890635Y-55112057D02*
X176928730Y-55150152D01*
X176928730Y-55150152D02*
X177004921Y-55188247D01*
X177004921Y-55188247D02*
X177271587Y-55188247D01*
X176090635Y-54807295D02*
X176471587Y-54807295D01*
X176471587Y-54807295D02*
X176509683Y-55188247D01*
X176509683Y-55188247D02*
X176471587Y-55150152D01*
X176471587Y-55150152D02*
X176395397Y-55112057D01*
X176395397Y-55112057D02*
X176204921Y-55112057D01*
X176204921Y-55112057D02*
X176128730Y-55150152D01*
X176128730Y-55150152D02*
X176090635Y-55188247D01*
X176090635Y-55188247D02*
X176052540Y-55264438D01*
X176052540Y-55264438D02*
X176052540Y-55454914D01*
X176052540Y-55454914D02*
X176090635Y-55531104D01*
X176090635Y-55531104D02*
X176128730Y-55569200D01*
X176128730Y-55569200D02*
X176204921Y-55607295D01*
X176204921Y-55607295D02*
X176395397Y-55607295D01*
X176395397Y-55607295D02*
X176471587Y-55569200D01*
X176471587Y-55569200D02*
X176509683Y-55531104D01*
X180760716Y-26867295D02*
X180303573Y-26867295D01*
X180532145Y-27667295D02*
X180532145Y-26867295D01*
X180113097Y-26867295D02*
X179579763Y-27667295D01*
X179579763Y-26867295D02*
X180113097Y-27667295D01*
X179122620Y-26867295D02*
X179046430Y-26867295D01*
X179046430Y-26867295D02*
X178970239Y-26905390D01*
X178970239Y-26905390D02*
X178932144Y-26943485D01*
X178932144Y-26943485D02*
X178894049Y-27019676D01*
X178894049Y-27019676D02*
X178855954Y-27172057D01*
X178855954Y-27172057D02*
X178855954Y-27362533D01*
X178855954Y-27362533D02*
X178894049Y-27514914D01*
X178894049Y-27514914D02*
X178932144Y-27591104D01*
X178932144Y-27591104D02*
X178970239Y-27629200D01*
X178970239Y-27629200D02*
X179046430Y-27667295D01*
X179046430Y-27667295D02*
X179122620Y-27667295D01*
X179122620Y-27667295D02*
X179198811Y-27629200D01*
X179198811Y-27629200D02*
X179236906Y-27591104D01*
X179236906Y-27591104D02*
X179275001Y-27514914D01*
X179275001Y-27514914D02*
X179313097Y-27362533D01*
X179313097Y-27362533D02*
X179313097Y-27172057D01*
X179313097Y-27172057D02*
X179275001Y-27019676D01*
X179275001Y-27019676D02*
X179236906Y-26943485D01*
X179236906Y-26943485D02*
X179198811Y-26905390D01*
X179198811Y-26905390D02*
X179122620Y-26867295D01*
X177941668Y-26829200D02*
X178627382Y-27857771D01*
X177675001Y-27667295D02*
X177675001Y-26867295D01*
X177675001Y-26867295D02*
X177484525Y-26867295D01*
X177484525Y-26867295D02*
X177370239Y-26905390D01*
X177370239Y-26905390D02*
X177294049Y-26981580D01*
X177294049Y-26981580D02*
X177255954Y-27057771D01*
X177255954Y-27057771D02*
X177217858Y-27210152D01*
X177217858Y-27210152D02*
X177217858Y-27324438D01*
X177217858Y-27324438D02*
X177255954Y-27476819D01*
X177255954Y-27476819D02*
X177294049Y-27553009D01*
X177294049Y-27553009D02*
X177370239Y-27629200D01*
X177370239Y-27629200D02*
X177484525Y-27667295D01*
X177484525Y-27667295D02*
X177675001Y-27667295D01*
X176951192Y-26867295D02*
X176455954Y-26867295D01*
X176455954Y-26867295D02*
X176722620Y-27172057D01*
X176722620Y-27172057D02*
X176608335Y-27172057D01*
X176608335Y-27172057D02*
X176532144Y-27210152D01*
X176532144Y-27210152D02*
X176494049Y-27248247D01*
X176494049Y-27248247D02*
X176455954Y-27324438D01*
X176455954Y-27324438D02*
X176455954Y-27514914D01*
X176455954Y-27514914D02*
X176494049Y-27591104D01*
X176494049Y-27591104D02*
X176532144Y-27629200D01*
X176532144Y-27629200D02*
X176608335Y-27667295D01*
X176608335Y-27667295D02*
X176836906Y-27667295D01*
X176836906Y-27667295D02*
X176913097Y-27629200D01*
X176913097Y-27629200D02*
X176951192Y-27591104D01*
X177233492Y-50108247D02*
X176966826Y-50108247D01*
X176852540Y-50527295D02*
X177233492Y-50527295D01*
X177233492Y-50527295D02*
X177233492Y-49727295D01*
X177233492Y-49727295D02*
X176852540Y-49727295D01*
X176166825Y-49727295D02*
X176319206Y-49727295D01*
X176319206Y-49727295D02*
X176395397Y-49765390D01*
X176395397Y-49765390D02*
X176433492Y-49803485D01*
X176433492Y-49803485D02*
X176509682Y-49917771D01*
X176509682Y-49917771D02*
X176547778Y-50070152D01*
X176547778Y-50070152D02*
X176547778Y-50374914D01*
X176547778Y-50374914D02*
X176509682Y-50451104D01*
X176509682Y-50451104D02*
X176471587Y-50489200D01*
X176471587Y-50489200D02*
X176395397Y-50527295D01*
X176395397Y-50527295D02*
X176243016Y-50527295D01*
X176243016Y-50527295D02*
X176166825Y-50489200D01*
X176166825Y-50489200D02*
X176128730Y-50451104D01*
X176128730Y-50451104D02*
X176090635Y-50374914D01*
X176090635Y-50374914D02*
X176090635Y-50184438D01*
X176090635Y-50184438D02*
X176128730Y-50108247D01*
X176128730Y-50108247D02*
X176166825Y-50070152D01*
X176166825Y-50070152D02*
X176243016Y-50032057D01*
X176243016Y-50032057D02*
X176395397Y-50032057D01*
X176395397Y-50032057D02*
X176471587Y-50070152D01*
X176471587Y-50070152D02*
X176509682Y-50108247D01*
X176509682Y-50108247D02*
X176547778Y-50184438D01*
X177271587Y-30207295D02*
X177271587Y-29407295D01*
X177271587Y-29407295D02*
X177081111Y-29407295D01*
X177081111Y-29407295D02*
X176966825Y-29445390D01*
X176966825Y-29445390D02*
X176890635Y-29521580D01*
X176890635Y-29521580D02*
X176852540Y-29597771D01*
X176852540Y-29597771D02*
X176814444Y-29750152D01*
X176814444Y-29750152D02*
X176814444Y-29864438D01*
X176814444Y-29864438D02*
X176852540Y-30016819D01*
X176852540Y-30016819D02*
X176890635Y-30093009D01*
X176890635Y-30093009D02*
X176966825Y-30169200D01*
X176966825Y-30169200D02*
X177081111Y-30207295D01*
X177081111Y-30207295D02*
X177271587Y-30207295D01*
X176509683Y-29483485D02*
X176471587Y-29445390D01*
X176471587Y-29445390D02*
X176395397Y-29407295D01*
X176395397Y-29407295D02*
X176204921Y-29407295D01*
X176204921Y-29407295D02*
X176128730Y-29445390D01*
X176128730Y-29445390D02*
X176090635Y-29483485D01*
X176090635Y-29483485D02*
X176052540Y-29559676D01*
X176052540Y-29559676D02*
X176052540Y-29635866D01*
X176052540Y-29635866D02*
X176090635Y-29750152D01*
X176090635Y-29750152D02*
X176547778Y-30207295D01*
X176547778Y-30207295D02*
X176052540Y-30207295D01*
X177271587Y-40367295D02*
X177271587Y-39567295D01*
X177271587Y-39567295D02*
X177081111Y-39567295D01*
X177081111Y-39567295D02*
X176966825Y-39605390D01*
X176966825Y-39605390D02*
X176890635Y-39681580D01*
X176890635Y-39681580D02*
X176852540Y-39757771D01*
X176852540Y-39757771D02*
X176814444Y-39910152D01*
X176814444Y-39910152D02*
X176814444Y-40024438D01*
X176814444Y-40024438D02*
X176852540Y-40176819D01*
X176852540Y-40176819D02*
X176890635Y-40253009D01*
X176890635Y-40253009D02*
X176966825Y-40329200D01*
X176966825Y-40329200D02*
X177081111Y-40367295D01*
X177081111Y-40367295D02*
X177271587Y-40367295D01*
X176319206Y-39567295D02*
X176243016Y-39567295D01*
X176243016Y-39567295D02*
X176166825Y-39605390D01*
X176166825Y-39605390D02*
X176128730Y-39643485D01*
X176128730Y-39643485D02*
X176090635Y-39719676D01*
X176090635Y-39719676D02*
X176052540Y-39872057D01*
X176052540Y-39872057D02*
X176052540Y-40062533D01*
X176052540Y-40062533D02*
X176090635Y-40214914D01*
X176090635Y-40214914D02*
X176128730Y-40291104D01*
X176128730Y-40291104D02*
X176166825Y-40329200D01*
X176166825Y-40329200D02*
X176243016Y-40367295D01*
X176243016Y-40367295D02*
X176319206Y-40367295D01*
X176319206Y-40367295D02*
X176395397Y-40329200D01*
X176395397Y-40329200D02*
X176433492Y-40291104D01*
X176433492Y-40291104D02*
X176471587Y-40214914D01*
X176471587Y-40214914D02*
X176509683Y-40062533D01*
X176509683Y-40062533D02*
X176509683Y-39872057D01*
X176509683Y-39872057D02*
X176471587Y-39719676D01*
X176471587Y-39719676D02*
X176433492Y-39643485D01*
X176433492Y-39643485D02*
X176395397Y-39605390D01*
X176395397Y-39605390D02*
X176319206Y-39567295D01*
X177290635Y-31985390D02*
X177366825Y-31947295D01*
X177366825Y-31947295D02*
X177481111Y-31947295D01*
X177481111Y-31947295D02*
X177595397Y-31985390D01*
X177595397Y-31985390D02*
X177671587Y-32061580D01*
X177671587Y-32061580D02*
X177709682Y-32137771D01*
X177709682Y-32137771D02*
X177747778Y-32290152D01*
X177747778Y-32290152D02*
X177747778Y-32404438D01*
X177747778Y-32404438D02*
X177709682Y-32556819D01*
X177709682Y-32556819D02*
X177671587Y-32633009D01*
X177671587Y-32633009D02*
X177595397Y-32709200D01*
X177595397Y-32709200D02*
X177481111Y-32747295D01*
X177481111Y-32747295D02*
X177404920Y-32747295D01*
X177404920Y-32747295D02*
X177290635Y-32709200D01*
X177290635Y-32709200D02*
X177252539Y-32671104D01*
X177252539Y-32671104D02*
X177252539Y-32404438D01*
X177252539Y-32404438D02*
X177404920Y-32404438D01*
X176909682Y-32747295D02*
X176909682Y-31947295D01*
X176909682Y-31947295D02*
X176452539Y-32747295D01*
X176452539Y-32747295D02*
X176452539Y-31947295D01*
X176071587Y-32747295D02*
X176071587Y-31947295D01*
X176071587Y-31947295D02*
X175881111Y-31947295D01*
X175881111Y-31947295D02*
X175766825Y-31985390D01*
X175766825Y-31985390D02*
X175690635Y-32061580D01*
X175690635Y-32061580D02*
X175652540Y-32137771D01*
X175652540Y-32137771D02*
X175614444Y-32290152D01*
X175614444Y-32290152D02*
X175614444Y-32404438D01*
X175614444Y-32404438D02*
X175652540Y-32556819D01*
X175652540Y-32556819D02*
X175690635Y-32633009D01*
X175690635Y-32633009D02*
X175766825Y-32709200D01*
X175766825Y-32709200D02*
X175881111Y-32747295D01*
X175881111Y-32747295D02*
X176071587Y-32747295D01*
X177271587Y-42907295D02*
X177271587Y-42107295D01*
X177271587Y-42107295D02*
X177081111Y-42107295D01*
X177081111Y-42107295D02*
X176966825Y-42145390D01*
X176966825Y-42145390D02*
X176890635Y-42221580D01*
X176890635Y-42221580D02*
X176852540Y-42297771D01*
X176852540Y-42297771D02*
X176814444Y-42450152D01*
X176814444Y-42450152D02*
X176814444Y-42564438D01*
X176814444Y-42564438D02*
X176852540Y-42716819D01*
X176852540Y-42716819D02*
X176890635Y-42793009D01*
X176890635Y-42793009D02*
X176966825Y-42869200D01*
X176966825Y-42869200D02*
X177081111Y-42907295D01*
X177081111Y-42907295D02*
X177271587Y-42907295D01*
X176128730Y-42373961D02*
X176128730Y-42907295D01*
X176319206Y-42069200D02*
X176509683Y-42640628D01*
X176509683Y-42640628D02*
X176014444Y-42640628D01*
X187715445Y-32689200D02*
X187601159Y-32727295D01*
X187601159Y-32727295D02*
X187410683Y-32727295D01*
X187410683Y-32727295D02*
X187334492Y-32689200D01*
X187334492Y-32689200D02*
X187296397Y-32651104D01*
X187296397Y-32651104D02*
X187258302Y-32574914D01*
X187258302Y-32574914D02*
X187258302Y-32498723D01*
X187258302Y-32498723D02*
X187296397Y-32422533D01*
X187296397Y-32422533D02*
X187334492Y-32384438D01*
X187334492Y-32384438D02*
X187410683Y-32346342D01*
X187410683Y-32346342D02*
X187563064Y-32308247D01*
X187563064Y-32308247D02*
X187639254Y-32270152D01*
X187639254Y-32270152D02*
X187677349Y-32232057D01*
X187677349Y-32232057D02*
X187715445Y-32155866D01*
X187715445Y-32155866D02*
X187715445Y-32079676D01*
X187715445Y-32079676D02*
X187677349Y-32003485D01*
X187677349Y-32003485D02*
X187639254Y-31965390D01*
X187639254Y-31965390D02*
X187563064Y-31927295D01*
X187563064Y-31927295D02*
X187372587Y-31927295D01*
X187372587Y-31927295D02*
X187258302Y-31965390D01*
X187029730Y-31927295D02*
X186572587Y-31927295D01*
X186801159Y-32727295D02*
X186801159Y-31927295D01*
X188669778Y-34487295D02*
X188403111Y-35287295D01*
X188403111Y-35287295D02*
X188136445Y-34487295D01*
X187412635Y-35211104D02*
X187450731Y-35249200D01*
X187450731Y-35249200D02*
X187565016Y-35287295D01*
X187565016Y-35287295D02*
X187641207Y-35287295D01*
X187641207Y-35287295D02*
X187755493Y-35249200D01*
X187755493Y-35249200D02*
X187831683Y-35173009D01*
X187831683Y-35173009D02*
X187869778Y-35096819D01*
X187869778Y-35096819D02*
X187907874Y-34944438D01*
X187907874Y-34944438D02*
X187907874Y-34830152D01*
X187907874Y-34830152D02*
X187869778Y-34677771D01*
X187869778Y-34677771D02*
X187831683Y-34601580D01*
X187831683Y-34601580D02*
X187755493Y-34525390D01*
X187755493Y-34525390D02*
X187641207Y-34487295D01*
X187641207Y-34487295D02*
X187565016Y-34487295D01*
X187565016Y-34487295D02*
X187450731Y-34525390D01*
X187450731Y-34525390D02*
X187412635Y-34563485D01*
X186612635Y-35211104D02*
X186650731Y-35249200D01*
X186650731Y-35249200D02*
X186765016Y-35287295D01*
X186765016Y-35287295D02*
X186841207Y-35287295D01*
X186841207Y-35287295D02*
X186955493Y-35249200D01*
X186955493Y-35249200D02*
X187031683Y-35173009D01*
X187031683Y-35173009D02*
X187069778Y-35096819D01*
X187069778Y-35096819D02*
X187107874Y-34944438D01*
X187107874Y-34944438D02*
X187107874Y-34830152D01*
X187107874Y-34830152D02*
X187069778Y-34677771D01*
X187069778Y-34677771D02*
X187031683Y-34601580D01*
X187031683Y-34601580D02*
X186955493Y-34525390D01*
X186955493Y-34525390D02*
X186841207Y-34487295D01*
X186841207Y-34487295D02*
X186765016Y-34487295D01*
X186765016Y-34487295D02*
X186650731Y-34525390D01*
X186650731Y-34525390D02*
X186612635Y-34563485D01*
X187926921Y-50108247D02*
X187812635Y-50146342D01*
X187812635Y-50146342D02*
X187774540Y-50184438D01*
X187774540Y-50184438D02*
X187736444Y-50260628D01*
X187736444Y-50260628D02*
X187736444Y-50374914D01*
X187736444Y-50374914D02*
X187774540Y-50451104D01*
X187774540Y-50451104D02*
X187812635Y-50489200D01*
X187812635Y-50489200D02*
X187888825Y-50527295D01*
X187888825Y-50527295D02*
X188193587Y-50527295D01*
X188193587Y-50527295D02*
X188193587Y-49727295D01*
X188193587Y-49727295D02*
X187926921Y-49727295D01*
X187926921Y-49727295D02*
X187850730Y-49765390D01*
X187850730Y-49765390D02*
X187812635Y-49803485D01*
X187812635Y-49803485D02*
X187774540Y-49879676D01*
X187774540Y-49879676D02*
X187774540Y-49955866D01*
X187774540Y-49955866D02*
X187812635Y-50032057D01*
X187812635Y-50032057D02*
X187850730Y-50070152D01*
X187850730Y-50070152D02*
X187926921Y-50108247D01*
X187926921Y-50108247D02*
X188193587Y-50108247D01*
X187469778Y-49727295D02*
X186974540Y-49727295D01*
X186974540Y-49727295D02*
X187241206Y-50032057D01*
X187241206Y-50032057D02*
X187126921Y-50032057D01*
X187126921Y-50032057D02*
X187050730Y-50070152D01*
X187050730Y-50070152D02*
X187012635Y-50108247D01*
X187012635Y-50108247D02*
X186974540Y-50184438D01*
X186974540Y-50184438D02*
X186974540Y-50374914D01*
X186974540Y-50374914D02*
X187012635Y-50451104D01*
X187012635Y-50451104D02*
X187050730Y-50489200D01*
X187050730Y-50489200D02*
X187126921Y-50527295D01*
X187126921Y-50527295D02*
X187355492Y-50527295D01*
X187355492Y-50527295D02*
X187431683Y-50489200D01*
X187431683Y-50489200D02*
X187469778Y-50451104D01*
X177271587Y-37827295D02*
X177271587Y-37027295D01*
X177271587Y-37027295D02*
X177081111Y-37027295D01*
X177081111Y-37027295D02*
X176966825Y-37065390D01*
X176966825Y-37065390D02*
X176890635Y-37141580D01*
X176890635Y-37141580D02*
X176852540Y-37217771D01*
X176852540Y-37217771D02*
X176814444Y-37370152D01*
X176814444Y-37370152D02*
X176814444Y-37484438D01*
X176814444Y-37484438D02*
X176852540Y-37636819D01*
X176852540Y-37636819D02*
X176890635Y-37713009D01*
X176890635Y-37713009D02*
X176966825Y-37789200D01*
X176966825Y-37789200D02*
X177081111Y-37827295D01*
X177081111Y-37827295D02*
X177271587Y-37827295D01*
X176052540Y-37827295D02*
X176509683Y-37827295D01*
X176281111Y-37827295D02*
X176281111Y-37027295D01*
X176281111Y-37027295D02*
X176357302Y-37141580D01*
X176357302Y-37141580D02*
X176433492Y-37217771D01*
X176433492Y-37217771D02*
X176509683Y-37255866D01*
X187869778Y-42488247D02*
X188136444Y-42488247D01*
X188136444Y-42907295D02*
X188136444Y-42107295D01*
X188136444Y-42107295D02*
X187755492Y-42107295D01*
X187107873Y-42107295D02*
X187260254Y-42107295D01*
X187260254Y-42107295D02*
X187336445Y-42145390D01*
X187336445Y-42145390D02*
X187374540Y-42183485D01*
X187374540Y-42183485D02*
X187450730Y-42297771D01*
X187450730Y-42297771D02*
X187488826Y-42450152D01*
X187488826Y-42450152D02*
X187488826Y-42754914D01*
X187488826Y-42754914D02*
X187450730Y-42831104D01*
X187450730Y-42831104D02*
X187412635Y-42869200D01*
X187412635Y-42869200D02*
X187336445Y-42907295D01*
X187336445Y-42907295D02*
X187184064Y-42907295D01*
X187184064Y-42907295D02*
X187107873Y-42869200D01*
X187107873Y-42869200D02*
X187069778Y-42831104D01*
X187069778Y-42831104D02*
X187031683Y-42754914D01*
X187031683Y-42754914D02*
X187031683Y-42564438D01*
X187031683Y-42564438D02*
X187069778Y-42488247D01*
X187069778Y-42488247D02*
X187107873Y-42450152D01*
X187107873Y-42450152D02*
X187184064Y-42412057D01*
X187184064Y-42412057D02*
X187336445Y-42412057D01*
X187336445Y-42412057D02*
X187412635Y-42450152D01*
X187412635Y-42450152D02*
X187450730Y-42488247D01*
X187450730Y-42488247D02*
X187488826Y-42564438D01*
X206148181Y-88320714D02*
X205148181Y-88320714D01*
X205148181Y-88320714D02*
X205148181Y-88558809D01*
X205148181Y-88558809D02*
X205195800Y-88701666D01*
X205195800Y-88701666D02*
X205291038Y-88796904D01*
X205291038Y-88796904D02*
X205386276Y-88844523D01*
X205386276Y-88844523D02*
X205576752Y-88892142D01*
X205576752Y-88892142D02*
X205719609Y-88892142D01*
X205719609Y-88892142D02*
X205910085Y-88844523D01*
X205910085Y-88844523D02*
X206005323Y-88796904D01*
X206005323Y-88796904D02*
X206100562Y-88701666D01*
X206100562Y-88701666D02*
X206148181Y-88558809D01*
X206148181Y-88558809D02*
X206148181Y-88320714D01*
X205481514Y-89749285D02*
X206148181Y-89749285D01*
X205100562Y-89511190D02*
X205814847Y-89273095D01*
X205814847Y-89273095D02*
X205814847Y-89892142D01*
X205481514Y-90701666D02*
X206148181Y-90701666D01*
X205100562Y-90463571D02*
X205814847Y-90225476D01*
X205814847Y-90225476D02*
X205814847Y-90844523D01*
X205828181Y-93083095D02*
X204828181Y-93083095D01*
X205828181Y-93654523D02*
X205256752Y-93225952D01*
X204828181Y-93654523D02*
X205399609Y-93083095D01*
X234723181Y-21645714D02*
X233723181Y-21645714D01*
X233723181Y-21645714D02*
X233723181Y-21883809D01*
X233723181Y-21883809D02*
X233770800Y-22026666D01*
X233770800Y-22026666D02*
X233866038Y-22121904D01*
X233866038Y-22121904D02*
X233961276Y-22169523D01*
X233961276Y-22169523D02*
X234151752Y-22217142D01*
X234151752Y-22217142D02*
X234294609Y-22217142D01*
X234294609Y-22217142D02*
X234485085Y-22169523D01*
X234485085Y-22169523D02*
X234580323Y-22121904D01*
X234580323Y-22121904D02*
X234675562Y-22026666D01*
X234675562Y-22026666D02*
X234723181Y-21883809D01*
X234723181Y-21883809D02*
X234723181Y-21645714D01*
X233818419Y-22598095D02*
X233770800Y-22645714D01*
X233770800Y-22645714D02*
X233723181Y-22740952D01*
X233723181Y-22740952D02*
X233723181Y-22979047D01*
X233723181Y-22979047D02*
X233770800Y-23074285D01*
X233770800Y-23074285D02*
X233818419Y-23121904D01*
X233818419Y-23121904D02*
X233913657Y-23169523D01*
X233913657Y-23169523D02*
X234008895Y-23169523D01*
X234008895Y-23169523D02*
X234151752Y-23121904D01*
X234151752Y-23121904D02*
X234723181Y-22550476D01*
X234723181Y-22550476D02*
X234723181Y-23169523D01*
X233723181Y-24026666D02*
X233723181Y-23836190D01*
X233723181Y-23836190D02*
X233770800Y-23740952D01*
X233770800Y-23740952D02*
X233818419Y-23693333D01*
X233818419Y-23693333D02*
X233961276Y-23598095D01*
X233961276Y-23598095D02*
X234151752Y-23550476D01*
X234151752Y-23550476D02*
X234532704Y-23550476D01*
X234532704Y-23550476D02*
X234627942Y-23598095D01*
X234627942Y-23598095D02*
X234675562Y-23645714D01*
X234675562Y-23645714D02*
X234723181Y-23740952D01*
X234723181Y-23740952D02*
X234723181Y-23931428D01*
X234723181Y-23931428D02*
X234675562Y-24026666D01*
X234675562Y-24026666D02*
X234627942Y-24074285D01*
X234627942Y-24074285D02*
X234532704Y-24121904D01*
X234532704Y-24121904D02*
X234294609Y-24121904D01*
X234294609Y-24121904D02*
X234199371Y-24074285D01*
X234199371Y-24074285D02*
X234151752Y-24026666D01*
X234151752Y-24026666D02*
X234104133Y-23931428D01*
X234104133Y-23931428D02*
X234104133Y-23740952D01*
X234104133Y-23740952D02*
X234151752Y-23645714D01*
X234151752Y-23645714D02*
X234199371Y-23598095D01*
X234199371Y-23598095D02*
X234294609Y-23550476D01*
X234403181Y-26408095D02*
X233403181Y-26408095D01*
X234403181Y-26979523D02*
X233831752Y-26550952D01*
X233403181Y-26979523D02*
X233974609Y-26408095D01*
X272823181Y-31170714D02*
X271823181Y-31170714D01*
X271823181Y-31170714D02*
X271823181Y-31408809D01*
X271823181Y-31408809D02*
X271870800Y-31551666D01*
X271870800Y-31551666D02*
X271966038Y-31646904D01*
X271966038Y-31646904D02*
X272061276Y-31694523D01*
X272061276Y-31694523D02*
X272251752Y-31742142D01*
X272251752Y-31742142D02*
X272394609Y-31742142D01*
X272394609Y-31742142D02*
X272585085Y-31694523D01*
X272585085Y-31694523D02*
X272680323Y-31646904D01*
X272680323Y-31646904D02*
X272775562Y-31551666D01*
X272775562Y-31551666D02*
X272823181Y-31408809D01*
X272823181Y-31408809D02*
X272823181Y-31170714D01*
X271918419Y-32123095D02*
X271870800Y-32170714D01*
X271870800Y-32170714D02*
X271823181Y-32265952D01*
X271823181Y-32265952D02*
X271823181Y-32504047D01*
X271823181Y-32504047D02*
X271870800Y-32599285D01*
X271870800Y-32599285D02*
X271918419Y-32646904D01*
X271918419Y-32646904D02*
X272013657Y-32694523D01*
X272013657Y-32694523D02*
X272108895Y-32694523D01*
X272108895Y-32694523D02*
X272251752Y-32646904D01*
X272251752Y-32646904D02*
X272823181Y-32075476D01*
X272823181Y-32075476D02*
X272823181Y-32694523D01*
X272251752Y-33265952D02*
X272204133Y-33170714D01*
X272204133Y-33170714D02*
X272156514Y-33123095D01*
X272156514Y-33123095D02*
X272061276Y-33075476D01*
X272061276Y-33075476D02*
X272013657Y-33075476D01*
X272013657Y-33075476D02*
X271918419Y-33123095D01*
X271918419Y-33123095D02*
X271870800Y-33170714D01*
X271870800Y-33170714D02*
X271823181Y-33265952D01*
X271823181Y-33265952D02*
X271823181Y-33456428D01*
X271823181Y-33456428D02*
X271870800Y-33551666D01*
X271870800Y-33551666D02*
X271918419Y-33599285D01*
X271918419Y-33599285D02*
X272013657Y-33646904D01*
X272013657Y-33646904D02*
X272061276Y-33646904D01*
X272061276Y-33646904D02*
X272156514Y-33599285D01*
X272156514Y-33599285D02*
X272204133Y-33551666D01*
X272204133Y-33551666D02*
X272251752Y-33456428D01*
X272251752Y-33456428D02*
X272251752Y-33265952D01*
X272251752Y-33265952D02*
X272299371Y-33170714D01*
X272299371Y-33170714D02*
X272346990Y-33123095D01*
X272346990Y-33123095D02*
X272442228Y-33075476D01*
X272442228Y-33075476D02*
X272632704Y-33075476D01*
X272632704Y-33075476D02*
X272727942Y-33123095D01*
X272727942Y-33123095D02*
X272775562Y-33170714D01*
X272775562Y-33170714D02*
X272823181Y-33265952D01*
X272823181Y-33265952D02*
X272823181Y-33456428D01*
X272823181Y-33456428D02*
X272775562Y-33551666D01*
X272775562Y-33551666D02*
X272727942Y-33599285D01*
X272727942Y-33599285D02*
X272632704Y-33646904D01*
X272632704Y-33646904D02*
X272442228Y-33646904D01*
X272442228Y-33646904D02*
X272346990Y-33599285D01*
X272346990Y-33599285D02*
X272299371Y-33551666D01*
X272299371Y-33551666D02*
X272251752Y-33456428D01*
X272503181Y-35933095D02*
X271503181Y-35933095D01*
X272503181Y-36504523D02*
X271931752Y-36075952D01*
X271503181Y-36504523D02*
X272074609Y-35933095D01*
X215673181Y-26408214D02*
X214673181Y-26408214D01*
X214673181Y-26408214D02*
X214673181Y-26646309D01*
X214673181Y-26646309D02*
X214720800Y-26789166D01*
X214720800Y-26789166D02*
X214816038Y-26884404D01*
X214816038Y-26884404D02*
X214911276Y-26932023D01*
X214911276Y-26932023D02*
X215101752Y-26979642D01*
X215101752Y-26979642D02*
X215244609Y-26979642D01*
X215244609Y-26979642D02*
X215435085Y-26932023D01*
X215435085Y-26932023D02*
X215530323Y-26884404D01*
X215530323Y-26884404D02*
X215625562Y-26789166D01*
X215625562Y-26789166D02*
X215673181Y-26646309D01*
X215673181Y-26646309D02*
X215673181Y-26408214D01*
X214768419Y-27360595D02*
X214720800Y-27408214D01*
X214720800Y-27408214D02*
X214673181Y-27503452D01*
X214673181Y-27503452D02*
X214673181Y-27741547D01*
X214673181Y-27741547D02*
X214720800Y-27836785D01*
X214720800Y-27836785D02*
X214768419Y-27884404D01*
X214768419Y-27884404D02*
X214863657Y-27932023D01*
X214863657Y-27932023D02*
X214958895Y-27932023D01*
X214958895Y-27932023D02*
X215101752Y-27884404D01*
X215101752Y-27884404D02*
X215673181Y-27312976D01*
X215673181Y-27312976D02*
X215673181Y-27932023D01*
X214673181Y-28836785D02*
X214673181Y-28360595D01*
X214673181Y-28360595D02*
X215149371Y-28312976D01*
X215149371Y-28312976D02*
X215101752Y-28360595D01*
X215101752Y-28360595D02*
X215054133Y-28455833D01*
X215054133Y-28455833D02*
X215054133Y-28693928D01*
X215054133Y-28693928D02*
X215101752Y-28789166D01*
X215101752Y-28789166D02*
X215149371Y-28836785D01*
X215149371Y-28836785D02*
X215244609Y-28884404D01*
X215244609Y-28884404D02*
X215482704Y-28884404D01*
X215482704Y-28884404D02*
X215577942Y-28836785D01*
X215577942Y-28836785D02*
X215625562Y-28789166D01*
X215625562Y-28789166D02*
X215673181Y-28693928D01*
X215673181Y-28693928D02*
X215673181Y-28455833D01*
X215673181Y-28455833D02*
X215625562Y-28360595D01*
X215625562Y-28360595D02*
X215577942Y-28312976D01*
X215353181Y-31170595D02*
X214353181Y-31170595D01*
X215353181Y-31742023D02*
X214781752Y-31313452D01*
X214353181Y-31742023D02*
X214924609Y-31170595D01*
X135924819Y-31646905D02*
X134924819Y-31646905D01*
X134924819Y-31646905D02*
X134924819Y-31885000D01*
X134924819Y-31885000D02*
X134972438Y-32027857D01*
X134972438Y-32027857D02*
X135067676Y-32123095D01*
X135067676Y-32123095D02*
X135162914Y-32170714D01*
X135162914Y-32170714D02*
X135353390Y-32218333D01*
X135353390Y-32218333D02*
X135496247Y-32218333D01*
X135496247Y-32218333D02*
X135686723Y-32170714D01*
X135686723Y-32170714D02*
X135781961Y-32123095D01*
X135781961Y-32123095D02*
X135877200Y-32027857D01*
X135877200Y-32027857D02*
X135924819Y-31885000D01*
X135924819Y-31885000D02*
X135924819Y-31646905D01*
X134924819Y-33075476D02*
X134924819Y-32885000D01*
X134924819Y-32885000D02*
X134972438Y-32789762D01*
X134972438Y-32789762D02*
X135020057Y-32742143D01*
X135020057Y-32742143D02*
X135162914Y-32646905D01*
X135162914Y-32646905D02*
X135353390Y-32599286D01*
X135353390Y-32599286D02*
X135734342Y-32599286D01*
X135734342Y-32599286D02*
X135829580Y-32646905D01*
X135829580Y-32646905D02*
X135877200Y-32694524D01*
X135877200Y-32694524D02*
X135924819Y-32789762D01*
X135924819Y-32789762D02*
X135924819Y-32980238D01*
X135924819Y-32980238D02*
X135877200Y-33075476D01*
X135877200Y-33075476D02*
X135829580Y-33123095D01*
X135829580Y-33123095D02*
X135734342Y-33170714D01*
X135734342Y-33170714D02*
X135496247Y-33170714D01*
X135496247Y-33170714D02*
X135401009Y-33123095D01*
X135401009Y-33123095D02*
X135353390Y-33075476D01*
X135353390Y-33075476D02*
X135305771Y-32980238D01*
X135305771Y-32980238D02*
X135305771Y-32789762D01*
X135305771Y-32789762D02*
X135353390Y-32694524D01*
X135353390Y-32694524D02*
X135401009Y-32646905D01*
X135401009Y-32646905D02*
X135496247Y-32599286D01*
X135604819Y-35933095D02*
X134604819Y-35933095D01*
X135604819Y-36504523D02*
X135033390Y-36075952D01*
X134604819Y-36504523D02*
X135176247Y-35933095D01*
X291873181Y-50220714D02*
X290873181Y-50220714D01*
X290873181Y-50220714D02*
X290873181Y-50458809D01*
X290873181Y-50458809D02*
X290920800Y-50601666D01*
X290920800Y-50601666D02*
X291016038Y-50696904D01*
X291016038Y-50696904D02*
X291111276Y-50744523D01*
X291111276Y-50744523D02*
X291301752Y-50792142D01*
X291301752Y-50792142D02*
X291444609Y-50792142D01*
X291444609Y-50792142D02*
X291635085Y-50744523D01*
X291635085Y-50744523D02*
X291730323Y-50696904D01*
X291730323Y-50696904D02*
X291825562Y-50601666D01*
X291825562Y-50601666D02*
X291873181Y-50458809D01*
X291873181Y-50458809D02*
X291873181Y-50220714D01*
X290873181Y-51125476D02*
X290873181Y-51744523D01*
X290873181Y-51744523D02*
X291254133Y-51411190D01*
X291254133Y-51411190D02*
X291254133Y-51554047D01*
X291254133Y-51554047D02*
X291301752Y-51649285D01*
X291301752Y-51649285D02*
X291349371Y-51696904D01*
X291349371Y-51696904D02*
X291444609Y-51744523D01*
X291444609Y-51744523D02*
X291682704Y-51744523D01*
X291682704Y-51744523D02*
X291777942Y-51696904D01*
X291777942Y-51696904D02*
X291825562Y-51649285D01*
X291825562Y-51649285D02*
X291873181Y-51554047D01*
X291873181Y-51554047D02*
X291873181Y-51268333D01*
X291873181Y-51268333D02*
X291825562Y-51173095D01*
X291825562Y-51173095D02*
X291777942Y-51125476D01*
X290873181Y-52649285D02*
X290873181Y-52173095D01*
X290873181Y-52173095D02*
X291349371Y-52125476D01*
X291349371Y-52125476D02*
X291301752Y-52173095D01*
X291301752Y-52173095D02*
X291254133Y-52268333D01*
X291254133Y-52268333D02*
X291254133Y-52506428D01*
X291254133Y-52506428D02*
X291301752Y-52601666D01*
X291301752Y-52601666D02*
X291349371Y-52649285D01*
X291349371Y-52649285D02*
X291444609Y-52696904D01*
X291444609Y-52696904D02*
X291682704Y-52696904D01*
X291682704Y-52696904D02*
X291777942Y-52649285D01*
X291777942Y-52649285D02*
X291825562Y-52601666D01*
X291825562Y-52601666D02*
X291873181Y-52506428D01*
X291873181Y-52506428D02*
X291873181Y-52268333D01*
X291873181Y-52268333D02*
X291825562Y-52173095D01*
X291825562Y-52173095D02*
X291777942Y-52125476D01*
X291553181Y-54983095D02*
X290553181Y-54983095D01*
X291553181Y-55554523D02*
X290981752Y-55125952D01*
X290553181Y-55554523D02*
X291124609Y-54983095D01*
X253773181Y-26408214D02*
X252773181Y-26408214D01*
X252773181Y-26408214D02*
X252773181Y-26646309D01*
X252773181Y-26646309D02*
X252820800Y-26789166D01*
X252820800Y-26789166D02*
X252916038Y-26884404D01*
X252916038Y-26884404D02*
X253011276Y-26932023D01*
X253011276Y-26932023D02*
X253201752Y-26979642D01*
X253201752Y-26979642D02*
X253344609Y-26979642D01*
X253344609Y-26979642D02*
X253535085Y-26932023D01*
X253535085Y-26932023D02*
X253630323Y-26884404D01*
X253630323Y-26884404D02*
X253725562Y-26789166D01*
X253725562Y-26789166D02*
X253773181Y-26646309D01*
X253773181Y-26646309D02*
X253773181Y-26408214D01*
X252868419Y-27360595D02*
X252820800Y-27408214D01*
X252820800Y-27408214D02*
X252773181Y-27503452D01*
X252773181Y-27503452D02*
X252773181Y-27741547D01*
X252773181Y-27741547D02*
X252820800Y-27836785D01*
X252820800Y-27836785D02*
X252868419Y-27884404D01*
X252868419Y-27884404D02*
X252963657Y-27932023D01*
X252963657Y-27932023D02*
X253058895Y-27932023D01*
X253058895Y-27932023D02*
X253201752Y-27884404D01*
X253201752Y-27884404D02*
X253773181Y-27312976D01*
X253773181Y-27312976D02*
X253773181Y-27932023D01*
X252773181Y-28265357D02*
X252773181Y-28932023D01*
X252773181Y-28932023D02*
X253773181Y-28503452D01*
X253453181Y-31170595D02*
X252453181Y-31170595D01*
X253453181Y-31742023D02*
X252881752Y-31313452D01*
X252453181Y-31742023D02*
X253024609Y-31170595D01*
X40674819Y-31646905D02*
X39674819Y-31646905D01*
X39674819Y-31646905D02*
X39674819Y-31885000D01*
X39674819Y-31885000D02*
X39722438Y-32027857D01*
X39722438Y-32027857D02*
X39817676Y-32123095D01*
X39817676Y-32123095D02*
X39912914Y-32170714D01*
X39912914Y-32170714D02*
X40103390Y-32218333D01*
X40103390Y-32218333D02*
X40246247Y-32218333D01*
X40246247Y-32218333D02*
X40436723Y-32170714D01*
X40436723Y-32170714D02*
X40531961Y-32123095D01*
X40531961Y-32123095D02*
X40627200Y-32027857D01*
X40627200Y-32027857D02*
X40674819Y-31885000D01*
X40674819Y-31885000D02*
X40674819Y-31646905D01*
X40674819Y-33170714D02*
X40674819Y-32599286D01*
X40674819Y-32885000D02*
X39674819Y-32885000D01*
X39674819Y-32885000D02*
X39817676Y-32789762D01*
X39817676Y-32789762D02*
X39912914Y-32694524D01*
X39912914Y-32694524D02*
X39960533Y-32599286D01*
X40354819Y-35933095D02*
X39354819Y-35933095D01*
X40354819Y-36504523D02*
X39783390Y-36075952D01*
X39354819Y-36504523D02*
X39926247Y-35933095D01*
X40674819Y-50696905D02*
X39674819Y-50696905D01*
X39674819Y-50696905D02*
X39674819Y-50935000D01*
X39674819Y-50935000D02*
X39722438Y-51077857D01*
X39722438Y-51077857D02*
X39817676Y-51173095D01*
X39817676Y-51173095D02*
X39912914Y-51220714D01*
X39912914Y-51220714D02*
X40103390Y-51268333D01*
X40103390Y-51268333D02*
X40246247Y-51268333D01*
X40246247Y-51268333D02*
X40436723Y-51220714D01*
X40436723Y-51220714D02*
X40531961Y-51173095D01*
X40531961Y-51173095D02*
X40627200Y-51077857D01*
X40627200Y-51077857D02*
X40674819Y-50935000D01*
X40674819Y-50935000D02*
X40674819Y-50696905D01*
X39674819Y-51601667D02*
X39674819Y-52268333D01*
X39674819Y-52268333D02*
X40674819Y-51839762D01*
X40354819Y-54983095D02*
X39354819Y-54983095D01*
X40354819Y-55554523D02*
X39783390Y-55125952D01*
X39354819Y-55554523D02*
X39926247Y-54983095D01*
X272823181Y-50220714D02*
X271823181Y-50220714D01*
X271823181Y-50220714D02*
X271823181Y-50458809D01*
X271823181Y-50458809D02*
X271870800Y-50601666D01*
X271870800Y-50601666D02*
X271966038Y-50696904D01*
X271966038Y-50696904D02*
X272061276Y-50744523D01*
X272061276Y-50744523D02*
X272251752Y-50792142D01*
X272251752Y-50792142D02*
X272394609Y-50792142D01*
X272394609Y-50792142D02*
X272585085Y-50744523D01*
X272585085Y-50744523D02*
X272680323Y-50696904D01*
X272680323Y-50696904D02*
X272775562Y-50601666D01*
X272775562Y-50601666D02*
X272823181Y-50458809D01*
X272823181Y-50458809D02*
X272823181Y-50220714D01*
X271823181Y-51125476D02*
X271823181Y-51744523D01*
X271823181Y-51744523D02*
X272204133Y-51411190D01*
X272204133Y-51411190D02*
X272204133Y-51554047D01*
X272204133Y-51554047D02*
X272251752Y-51649285D01*
X272251752Y-51649285D02*
X272299371Y-51696904D01*
X272299371Y-51696904D02*
X272394609Y-51744523D01*
X272394609Y-51744523D02*
X272632704Y-51744523D01*
X272632704Y-51744523D02*
X272727942Y-51696904D01*
X272727942Y-51696904D02*
X272775562Y-51649285D01*
X272775562Y-51649285D02*
X272823181Y-51554047D01*
X272823181Y-51554047D02*
X272823181Y-51268333D01*
X272823181Y-51268333D02*
X272775562Y-51173095D01*
X272775562Y-51173095D02*
X272727942Y-51125476D01*
X272156514Y-52601666D02*
X272823181Y-52601666D01*
X271775562Y-52363571D02*
X272489847Y-52125476D01*
X272489847Y-52125476D02*
X272489847Y-52744523D01*
X272503181Y-54983095D02*
X271503181Y-54983095D01*
X272503181Y-55554523D02*
X271931752Y-55125952D01*
X271503181Y-55554523D02*
X272074609Y-54983095D01*
X225198181Y-83558214D02*
X224198181Y-83558214D01*
X224198181Y-83558214D02*
X224198181Y-83796309D01*
X224198181Y-83796309D02*
X224245800Y-83939166D01*
X224245800Y-83939166D02*
X224341038Y-84034404D01*
X224341038Y-84034404D02*
X224436276Y-84082023D01*
X224436276Y-84082023D02*
X224626752Y-84129642D01*
X224626752Y-84129642D02*
X224769609Y-84129642D01*
X224769609Y-84129642D02*
X224960085Y-84082023D01*
X224960085Y-84082023D02*
X225055323Y-84034404D01*
X225055323Y-84034404D02*
X225150562Y-83939166D01*
X225150562Y-83939166D02*
X225198181Y-83796309D01*
X225198181Y-83796309D02*
X225198181Y-83558214D01*
X224531514Y-84986785D02*
X225198181Y-84986785D01*
X224150562Y-84748690D02*
X224864847Y-84510595D01*
X224864847Y-84510595D02*
X224864847Y-85129642D01*
X224198181Y-85986785D02*
X224198181Y-85510595D01*
X224198181Y-85510595D02*
X224674371Y-85462976D01*
X224674371Y-85462976D02*
X224626752Y-85510595D01*
X224626752Y-85510595D02*
X224579133Y-85605833D01*
X224579133Y-85605833D02*
X224579133Y-85843928D01*
X224579133Y-85843928D02*
X224626752Y-85939166D01*
X224626752Y-85939166D02*
X224674371Y-85986785D01*
X224674371Y-85986785D02*
X224769609Y-86034404D01*
X224769609Y-86034404D02*
X225007704Y-86034404D01*
X225007704Y-86034404D02*
X225102942Y-85986785D01*
X225102942Y-85986785D02*
X225150562Y-85939166D01*
X225150562Y-85939166D02*
X225198181Y-85843928D01*
X225198181Y-85843928D02*
X225198181Y-85605833D01*
X225198181Y-85605833D02*
X225150562Y-85510595D01*
X225150562Y-85510595D02*
X225102942Y-85462976D01*
X224878181Y-88320595D02*
X223878181Y-88320595D01*
X224878181Y-88892023D02*
X224306752Y-88463452D01*
X223878181Y-88892023D02*
X224449609Y-88320595D01*
X234723181Y-59745714D02*
X233723181Y-59745714D01*
X233723181Y-59745714D02*
X233723181Y-59983809D01*
X233723181Y-59983809D02*
X233770800Y-60126666D01*
X233770800Y-60126666D02*
X233866038Y-60221904D01*
X233866038Y-60221904D02*
X233961276Y-60269523D01*
X233961276Y-60269523D02*
X234151752Y-60317142D01*
X234151752Y-60317142D02*
X234294609Y-60317142D01*
X234294609Y-60317142D02*
X234485085Y-60269523D01*
X234485085Y-60269523D02*
X234580323Y-60221904D01*
X234580323Y-60221904D02*
X234675562Y-60126666D01*
X234675562Y-60126666D02*
X234723181Y-59983809D01*
X234723181Y-59983809D02*
X234723181Y-59745714D01*
X233723181Y-60650476D02*
X233723181Y-61269523D01*
X233723181Y-61269523D02*
X234104133Y-60936190D01*
X234104133Y-60936190D02*
X234104133Y-61079047D01*
X234104133Y-61079047D02*
X234151752Y-61174285D01*
X234151752Y-61174285D02*
X234199371Y-61221904D01*
X234199371Y-61221904D02*
X234294609Y-61269523D01*
X234294609Y-61269523D02*
X234532704Y-61269523D01*
X234532704Y-61269523D02*
X234627942Y-61221904D01*
X234627942Y-61221904D02*
X234675562Y-61174285D01*
X234675562Y-61174285D02*
X234723181Y-61079047D01*
X234723181Y-61079047D02*
X234723181Y-60793333D01*
X234723181Y-60793333D02*
X234675562Y-60698095D01*
X234675562Y-60698095D02*
X234627942Y-60650476D01*
X234723181Y-61745714D02*
X234723181Y-61936190D01*
X234723181Y-61936190D02*
X234675562Y-62031428D01*
X234675562Y-62031428D02*
X234627942Y-62079047D01*
X234627942Y-62079047D02*
X234485085Y-62174285D01*
X234485085Y-62174285D02*
X234294609Y-62221904D01*
X234294609Y-62221904D02*
X233913657Y-62221904D01*
X233913657Y-62221904D02*
X233818419Y-62174285D01*
X233818419Y-62174285D02*
X233770800Y-62126666D01*
X233770800Y-62126666D02*
X233723181Y-62031428D01*
X233723181Y-62031428D02*
X233723181Y-61840952D01*
X233723181Y-61840952D02*
X233770800Y-61745714D01*
X233770800Y-61745714D02*
X233818419Y-61698095D01*
X233818419Y-61698095D02*
X233913657Y-61650476D01*
X233913657Y-61650476D02*
X234151752Y-61650476D01*
X234151752Y-61650476D02*
X234246990Y-61698095D01*
X234246990Y-61698095D02*
X234294609Y-61745714D01*
X234294609Y-61745714D02*
X234342228Y-61840952D01*
X234342228Y-61840952D02*
X234342228Y-62031428D01*
X234342228Y-62031428D02*
X234294609Y-62126666D01*
X234294609Y-62126666D02*
X234246990Y-62174285D01*
X234246990Y-62174285D02*
X234151752Y-62221904D01*
X234403181Y-64508095D02*
X233403181Y-64508095D01*
X234403181Y-65079523D02*
X233831752Y-64650952D01*
X233403181Y-65079523D02*
X233974609Y-64508095D01*
X78774819Y-26884405D02*
X77774819Y-26884405D01*
X77774819Y-26884405D02*
X77774819Y-27122500D01*
X77774819Y-27122500D02*
X77822438Y-27265357D01*
X77822438Y-27265357D02*
X77917676Y-27360595D01*
X77917676Y-27360595D02*
X78012914Y-27408214D01*
X78012914Y-27408214D02*
X78203390Y-27455833D01*
X78203390Y-27455833D02*
X78346247Y-27455833D01*
X78346247Y-27455833D02*
X78536723Y-27408214D01*
X78536723Y-27408214D02*
X78631961Y-27360595D01*
X78631961Y-27360595D02*
X78727200Y-27265357D01*
X78727200Y-27265357D02*
X78774819Y-27122500D01*
X78774819Y-27122500D02*
X78774819Y-26884405D01*
X77774819Y-27789167D02*
X77774819Y-28408214D01*
X77774819Y-28408214D02*
X78155771Y-28074881D01*
X78155771Y-28074881D02*
X78155771Y-28217738D01*
X78155771Y-28217738D02*
X78203390Y-28312976D01*
X78203390Y-28312976D02*
X78251009Y-28360595D01*
X78251009Y-28360595D02*
X78346247Y-28408214D01*
X78346247Y-28408214D02*
X78584342Y-28408214D01*
X78584342Y-28408214D02*
X78679580Y-28360595D01*
X78679580Y-28360595D02*
X78727200Y-28312976D01*
X78727200Y-28312976D02*
X78774819Y-28217738D01*
X78774819Y-28217738D02*
X78774819Y-27932024D01*
X78774819Y-27932024D02*
X78727200Y-27836786D01*
X78727200Y-27836786D02*
X78679580Y-27789167D01*
X78454819Y-31170595D02*
X77454819Y-31170595D01*
X78454819Y-31742023D02*
X77883390Y-31313452D01*
X77454819Y-31742023D02*
X78026247Y-31170595D01*
X150212319Y-88320714D02*
X149212319Y-88320714D01*
X149212319Y-88320714D02*
X149212319Y-88558809D01*
X149212319Y-88558809D02*
X149259938Y-88701666D01*
X149259938Y-88701666D02*
X149355176Y-88796904D01*
X149355176Y-88796904D02*
X149450414Y-88844523D01*
X149450414Y-88844523D02*
X149640890Y-88892142D01*
X149640890Y-88892142D02*
X149783747Y-88892142D01*
X149783747Y-88892142D02*
X149974223Y-88844523D01*
X149974223Y-88844523D02*
X150069461Y-88796904D01*
X150069461Y-88796904D02*
X150164700Y-88701666D01*
X150164700Y-88701666D02*
X150212319Y-88558809D01*
X150212319Y-88558809D02*
X150212319Y-88320714D01*
X149307557Y-89273095D02*
X149259938Y-89320714D01*
X149259938Y-89320714D02*
X149212319Y-89415952D01*
X149212319Y-89415952D02*
X149212319Y-89654047D01*
X149212319Y-89654047D02*
X149259938Y-89749285D01*
X149259938Y-89749285D02*
X149307557Y-89796904D01*
X149307557Y-89796904D02*
X149402795Y-89844523D01*
X149402795Y-89844523D02*
X149498033Y-89844523D01*
X149498033Y-89844523D02*
X149640890Y-89796904D01*
X149640890Y-89796904D02*
X150212319Y-89225476D01*
X150212319Y-89225476D02*
X150212319Y-89844523D01*
X149212319Y-90177857D02*
X149212319Y-90796904D01*
X149212319Y-90796904D02*
X149593271Y-90463571D01*
X149593271Y-90463571D02*
X149593271Y-90606428D01*
X149593271Y-90606428D02*
X149640890Y-90701666D01*
X149640890Y-90701666D02*
X149688509Y-90749285D01*
X149688509Y-90749285D02*
X149783747Y-90796904D01*
X149783747Y-90796904D02*
X150021842Y-90796904D01*
X150021842Y-90796904D02*
X150117080Y-90749285D01*
X150117080Y-90749285D02*
X150164700Y-90701666D01*
X150164700Y-90701666D02*
X150212319Y-90606428D01*
X150212319Y-90606428D02*
X150212319Y-90320714D01*
X150212319Y-90320714D02*
X150164700Y-90225476D01*
X150164700Y-90225476D02*
X150117080Y-90177857D01*
X149892319Y-93083095D02*
X148892319Y-93083095D01*
X149892319Y-93654523D02*
X149320890Y-93225952D01*
X148892319Y-93654523D02*
X149463747Y-93083095D01*
X196623181Y-69270714D02*
X195623181Y-69270714D01*
X195623181Y-69270714D02*
X195623181Y-69508809D01*
X195623181Y-69508809D02*
X195670800Y-69651666D01*
X195670800Y-69651666D02*
X195766038Y-69746904D01*
X195766038Y-69746904D02*
X195861276Y-69794523D01*
X195861276Y-69794523D02*
X196051752Y-69842142D01*
X196051752Y-69842142D02*
X196194609Y-69842142D01*
X196194609Y-69842142D02*
X196385085Y-69794523D01*
X196385085Y-69794523D02*
X196480323Y-69746904D01*
X196480323Y-69746904D02*
X196575562Y-69651666D01*
X196575562Y-69651666D02*
X196623181Y-69508809D01*
X196623181Y-69508809D02*
X196623181Y-69270714D01*
X195623181Y-70175476D02*
X195623181Y-70794523D01*
X195623181Y-70794523D02*
X196004133Y-70461190D01*
X196004133Y-70461190D02*
X196004133Y-70604047D01*
X196004133Y-70604047D02*
X196051752Y-70699285D01*
X196051752Y-70699285D02*
X196099371Y-70746904D01*
X196099371Y-70746904D02*
X196194609Y-70794523D01*
X196194609Y-70794523D02*
X196432704Y-70794523D01*
X196432704Y-70794523D02*
X196527942Y-70746904D01*
X196527942Y-70746904D02*
X196575562Y-70699285D01*
X196575562Y-70699285D02*
X196623181Y-70604047D01*
X196623181Y-70604047D02*
X196623181Y-70318333D01*
X196623181Y-70318333D02*
X196575562Y-70223095D01*
X196575562Y-70223095D02*
X196527942Y-70175476D01*
X195623181Y-71127857D02*
X195623181Y-71794523D01*
X195623181Y-71794523D02*
X196623181Y-71365952D01*
X196303181Y-74033095D02*
X195303181Y-74033095D01*
X196303181Y-74604523D02*
X195731752Y-74175952D01*
X195303181Y-74604523D02*
X195874609Y-74033095D01*
X116874819Y-64508214D02*
X115874819Y-64508214D01*
X115874819Y-64508214D02*
X115874819Y-64746309D01*
X115874819Y-64746309D02*
X115922438Y-64889166D01*
X115922438Y-64889166D02*
X116017676Y-64984404D01*
X116017676Y-64984404D02*
X116112914Y-65032023D01*
X116112914Y-65032023D02*
X116303390Y-65079642D01*
X116303390Y-65079642D02*
X116446247Y-65079642D01*
X116446247Y-65079642D02*
X116636723Y-65032023D01*
X116636723Y-65032023D02*
X116731961Y-64984404D01*
X116731961Y-64984404D02*
X116827200Y-64889166D01*
X116827200Y-64889166D02*
X116874819Y-64746309D01*
X116874819Y-64746309D02*
X116874819Y-64508214D01*
X116874819Y-66032023D02*
X116874819Y-65460595D01*
X116874819Y-65746309D02*
X115874819Y-65746309D01*
X115874819Y-65746309D02*
X116017676Y-65651071D01*
X116017676Y-65651071D02*
X116112914Y-65555833D01*
X116112914Y-65555833D02*
X116160533Y-65460595D01*
X115874819Y-66365357D02*
X115874819Y-67032023D01*
X115874819Y-67032023D02*
X116874819Y-66603452D01*
X116554819Y-69270595D02*
X115554819Y-69270595D01*
X116554819Y-69842023D02*
X115983390Y-69413452D01*
X115554819Y-69842023D02*
X116126247Y-69270595D01*
X244248181Y-83558214D02*
X243248181Y-83558214D01*
X243248181Y-83558214D02*
X243248181Y-83796309D01*
X243248181Y-83796309D02*
X243295800Y-83939166D01*
X243295800Y-83939166D02*
X243391038Y-84034404D01*
X243391038Y-84034404D02*
X243486276Y-84082023D01*
X243486276Y-84082023D02*
X243676752Y-84129642D01*
X243676752Y-84129642D02*
X243819609Y-84129642D01*
X243819609Y-84129642D02*
X244010085Y-84082023D01*
X244010085Y-84082023D02*
X244105323Y-84034404D01*
X244105323Y-84034404D02*
X244200562Y-83939166D01*
X244200562Y-83939166D02*
X244248181Y-83796309D01*
X244248181Y-83796309D02*
X244248181Y-83558214D01*
X243581514Y-84986785D02*
X244248181Y-84986785D01*
X243200562Y-84748690D02*
X243914847Y-84510595D01*
X243914847Y-84510595D02*
X243914847Y-85129642D01*
X243248181Y-85939166D02*
X243248181Y-85748690D01*
X243248181Y-85748690D02*
X243295800Y-85653452D01*
X243295800Y-85653452D02*
X243343419Y-85605833D01*
X243343419Y-85605833D02*
X243486276Y-85510595D01*
X243486276Y-85510595D02*
X243676752Y-85462976D01*
X243676752Y-85462976D02*
X244057704Y-85462976D01*
X244057704Y-85462976D02*
X244152942Y-85510595D01*
X244152942Y-85510595D02*
X244200562Y-85558214D01*
X244200562Y-85558214D02*
X244248181Y-85653452D01*
X244248181Y-85653452D02*
X244248181Y-85843928D01*
X244248181Y-85843928D02*
X244200562Y-85939166D01*
X244200562Y-85939166D02*
X244152942Y-85986785D01*
X244152942Y-85986785D02*
X244057704Y-86034404D01*
X244057704Y-86034404D02*
X243819609Y-86034404D01*
X243819609Y-86034404D02*
X243724371Y-85986785D01*
X243724371Y-85986785D02*
X243676752Y-85939166D01*
X243676752Y-85939166D02*
X243629133Y-85843928D01*
X243629133Y-85843928D02*
X243629133Y-85653452D01*
X243629133Y-85653452D02*
X243676752Y-85558214D01*
X243676752Y-85558214D02*
X243724371Y-85510595D01*
X243724371Y-85510595D02*
X243819609Y-85462976D01*
X243928181Y-88320595D02*
X242928181Y-88320595D01*
X243928181Y-88892023D02*
X243356752Y-88463452D01*
X242928181Y-88892023D02*
X243499609Y-88320595D01*
X253773181Y-64508214D02*
X252773181Y-64508214D01*
X252773181Y-64508214D02*
X252773181Y-64746309D01*
X252773181Y-64746309D02*
X252820800Y-64889166D01*
X252820800Y-64889166D02*
X252916038Y-64984404D01*
X252916038Y-64984404D02*
X253011276Y-65032023D01*
X253011276Y-65032023D02*
X253201752Y-65079642D01*
X253201752Y-65079642D02*
X253344609Y-65079642D01*
X253344609Y-65079642D02*
X253535085Y-65032023D01*
X253535085Y-65032023D02*
X253630323Y-64984404D01*
X253630323Y-64984404D02*
X253725562Y-64889166D01*
X253725562Y-64889166D02*
X253773181Y-64746309D01*
X253773181Y-64746309D02*
X253773181Y-64508214D01*
X253106514Y-65936785D02*
X253773181Y-65936785D01*
X252725562Y-65698690D02*
X253439847Y-65460595D01*
X253439847Y-65460595D02*
X253439847Y-66079642D01*
X252773181Y-66651071D02*
X252773181Y-66746309D01*
X252773181Y-66746309D02*
X252820800Y-66841547D01*
X252820800Y-66841547D02*
X252868419Y-66889166D01*
X252868419Y-66889166D02*
X252963657Y-66936785D01*
X252963657Y-66936785D02*
X253154133Y-66984404D01*
X253154133Y-66984404D02*
X253392228Y-66984404D01*
X253392228Y-66984404D02*
X253582704Y-66936785D01*
X253582704Y-66936785D02*
X253677942Y-66889166D01*
X253677942Y-66889166D02*
X253725562Y-66841547D01*
X253725562Y-66841547D02*
X253773181Y-66746309D01*
X253773181Y-66746309D02*
X253773181Y-66651071D01*
X253773181Y-66651071D02*
X253725562Y-66555833D01*
X253725562Y-66555833D02*
X253677942Y-66508214D01*
X253677942Y-66508214D02*
X253582704Y-66460595D01*
X253582704Y-66460595D02*
X253392228Y-66412976D01*
X253392228Y-66412976D02*
X253154133Y-66412976D01*
X253154133Y-66412976D02*
X252963657Y-66460595D01*
X252963657Y-66460595D02*
X252868419Y-66508214D01*
X252868419Y-66508214D02*
X252820800Y-66555833D01*
X252820800Y-66555833D02*
X252773181Y-66651071D01*
X253453181Y-69270595D02*
X252453181Y-69270595D01*
X253453181Y-69842023D02*
X252881752Y-69413452D01*
X252453181Y-69842023D02*
X253024609Y-69270595D01*
X215673181Y-45458214D02*
X214673181Y-45458214D01*
X214673181Y-45458214D02*
X214673181Y-45696309D01*
X214673181Y-45696309D02*
X214720800Y-45839166D01*
X214720800Y-45839166D02*
X214816038Y-45934404D01*
X214816038Y-45934404D02*
X214911276Y-45982023D01*
X214911276Y-45982023D02*
X215101752Y-46029642D01*
X215101752Y-46029642D02*
X215244609Y-46029642D01*
X215244609Y-46029642D02*
X215435085Y-45982023D01*
X215435085Y-45982023D02*
X215530323Y-45934404D01*
X215530323Y-45934404D02*
X215625562Y-45839166D01*
X215625562Y-45839166D02*
X215673181Y-45696309D01*
X215673181Y-45696309D02*
X215673181Y-45458214D01*
X214673181Y-46362976D02*
X214673181Y-46982023D01*
X214673181Y-46982023D02*
X215054133Y-46648690D01*
X215054133Y-46648690D02*
X215054133Y-46791547D01*
X215054133Y-46791547D02*
X215101752Y-46886785D01*
X215101752Y-46886785D02*
X215149371Y-46934404D01*
X215149371Y-46934404D02*
X215244609Y-46982023D01*
X215244609Y-46982023D02*
X215482704Y-46982023D01*
X215482704Y-46982023D02*
X215577942Y-46934404D01*
X215577942Y-46934404D02*
X215625562Y-46886785D01*
X215625562Y-46886785D02*
X215673181Y-46791547D01*
X215673181Y-46791547D02*
X215673181Y-46505833D01*
X215673181Y-46505833D02*
X215625562Y-46410595D01*
X215625562Y-46410595D02*
X215577942Y-46362976D01*
X215673181Y-47934404D02*
X215673181Y-47362976D01*
X215673181Y-47648690D02*
X214673181Y-47648690D01*
X214673181Y-47648690D02*
X214816038Y-47553452D01*
X214816038Y-47553452D02*
X214911276Y-47458214D01*
X214911276Y-47458214D02*
X214958895Y-47362976D01*
X215353181Y-50220595D02*
X214353181Y-50220595D01*
X215353181Y-50792023D02*
X214781752Y-50363452D01*
X214353181Y-50792023D02*
X214924609Y-50220595D01*
X40674819Y-69270714D02*
X39674819Y-69270714D01*
X39674819Y-69270714D02*
X39674819Y-69508809D01*
X39674819Y-69508809D02*
X39722438Y-69651666D01*
X39722438Y-69651666D02*
X39817676Y-69746904D01*
X39817676Y-69746904D02*
X39912914Y-69794523D01*
X39912914Y-69794523D02*
X40103390Y-69842142D01*
X40103390Y-69842142D02*
X40246247Y-69842142D01*
X40246247Y-69842142D02*
X40436723Y-69794523D01*
X40436723Y-69794523D02*
X40531961Y-69746904D01*
X40531961Y-69746904D02*
X40627200Y-69651666D01*
X40627200Y-69651666D02*
X40674819Y-69508809D01*
X40674819Y-69508809D02*
X40674819Y-69270714D01*
X40674819Y-70794523D02*
X40674819Y-70223095D01*
X40674819Y-70508809D02*
X39674819Y-70508809D01*
X39674819Y-70508809D02*
X39817676Y-70413571D01*
X39817676Y-70413571D02*
X39912914Y-70318333D01*
X39912914Y-70318333D02*
X39960533Y-70223095D01*
X39674819Y-71127857D02*
X39674819Y-71746904D01*
X39674819Y-71746904D02*
X40055771Y-71413571D01*
X40055771Y-71413571D02*
X40055771Y-71556428D01*
X40055771Y-71556428D02*
X40103390Y-71651666D01*
X40103390Y-71651666D02*
X40151009Y-71699285D01*
X40151009Y-71699285D02*
X40246247Y-71746904D01*
X40246247Y-71746904D02*
X40484342Y-71746904D01*
X40484342Y-71746904D02*
X40579580Y-71699285D01*
X40579580Y-71699285D02*
X40627200Y-71651666D01*
X40627200Y-71651666D02*
X40674819Y-71556428D01*
X40674819Y-71556428D02*
X40674819Y-71270714D01*
X40674819Y-71270714D02*
X40627200Y-71175476D01*
X40627200Y-71175476D02*
X40579580Y-71127857D01*
X40354819Y-74033095D02*
X39354819Y-74033095D01*
X40354819Y-74604523D02*
X39783390Y-74175952D01*
X39354819Y-74604523D02*
X39926247Y-74033095D01*
X291873181Y-69270714D02*
X290873181Y-69270714D01*
X290873181Y-69270714D02*
X290873181Y-69508809D01*
X290873181Y-69508809D02*
X290920800Y-69651666D01*
X290920800Y-69651666D02*
X291016038Y-69746904D01*
X291016038Y-69746904D02*
X291111276Y-69794523D01*
X291111276Y-69794523D02*
X291301752Y-69842142D01*
X291301752Y-69842142D02*
X291444609Y-69842142D01*
X291444609Y-69842142D02*
X291635085Y-69794523D01*
X291635085Y-69794523D02*
X291730323Y-69746904D01*
X291730323Y-69746904D02*
X291825562Y-69651666D01*
X291825562Y-69651666D02*
X291873181Y-69508809D01*
X291873181Y-69508809D02*
X291873181Y-69270714D01*
X291206514Y-70699285D02*
X291873181Y-70699285D01*
X290825562Y-70461190D02*
X291539847Y-70223095D01*
X291539847Y-70223095D02*
X291539847Y-70842142D01*
X290968419Y-71175476D02*
X290920800Y-71223095D01*
X290920800Y-71223095D02*
X290873181Y-71318333D01*
X290873181Y-71318333D02*
X290873181Y-71556428D01*
X290873181Y-71556428D02*
X290920800Y-71651666D01*
X290920800Y-71651666D02*
X290968419Y-71699285D01*
X290968419Y-71699285D02*
X291063657Y-71746904D01*
X291063657Y-71746904D02*
X291158895Y-71746904D01*
X291158895Y-71746904D02*
X291301752Y-71699285D01*
X291301752Y-71699285D02*
X291873181Y-71127857D01*
X291873181Y-71127857D02*
X291873181Y-71746904D01*
X291553181Y-74033095D02*
X290553181Y-74033095D01*
X291553181Y-74604523D02*
X290981752Y-74175952D01*
X290553181Y-74604523D02*
X291124609Y-74033095D01*
X177573181Y-64508214D02*
X176573181Y-64508214D01*
X176573181Y-64508214D02*
X176573181Y-64746309D01*
X176573181Y-64746309D02*
X176620800Y-64889166D01*
X176620800Y-64889166D02*
X176716038Y-64984404D01*
X176716038Y-64984404D02*
X176811276Y-65032023D01*
X176811276Y-65032023D02*
X177001752Y-65079642D01*
X177001752Y-65079642D02*
X177144609Y-65079642D01*
X177144609Y-65079642D02*
X177335085Y-65032023D01*
X177335085Y-65032023D02*
X177430323Y-64984404D01*
X177430323Y-64984404D02*
X177525562Y-64889166D01*
X177525562Y-64889166D02*
X177573181Y-64746309D01*
X177573181Y-64746309D02*
X177573181Y-64508214D01*
X176573181Y-65412976D02*
X176573181Y-66032023D01*
X176573181Y-66032023D02*
X176954133Y-65698690D01*
X176954133Y-65698690D02*
X176954133Y-65841547D01*
X176954133Y-65841547D02*
X177001752Y-65936785D01*
X177001752Y-65936785D02*
X177049371Y-65984404D01*
X177049371Y-65984404D02*
X177144609Y-66032023D01*
X177144609Y-66032023D02*
X177382704Y-66032023D01*
X177382704Y-66032023D02*
X177477942Y-65984404D01*
X177477942Y-65984404D02*
X177525562Y-65936785D01*
X177525562Y-65936785D02*
X177573181Y-65841547D01*
X177573181Y-65841547D02*
X177573181Y-65555833D01*
X177573181Y-65555833D02*
X177525562Y-65460595D01*
X177525562Y-65460595D02*
X177477942Y-65412976D01*
X176573181Y-66889166D02*
X176573181Y-66698690D01*
X176573181Y-66698690D02*
X176620800Y-66603452D01*
X176620800Y-66603452D02*
X176668419Y-66555833D01*
X176668419Y-66555833D02*
X176811276Y-66460595D01*
X176811276Y-66460595D02*
X177001752Y-66412976D01*
X177001752Y-66412976D02*
X177382704Y-66412976D01*
X177382704Y-66412976D02*
X177477942Y-66460595D01*
X177477942Y-66460595D02*
X177525562Y-66508214D01*
X177525562Y-66508214D02*
X177573181Y-66603452D01*
X177573181Y-66603452D02*
X177573181Y-66793928D01*
X177573181Y-66793928D02*
X177525562Y-66889166D01*
X177525562Y-66889166D02*
X177477942Y-66936785D01*
X177477942Y-66936785D02*
X177382704Y-66984404D01*
X177382704Y-66984404D02*
X177144609Y-66984404D01*
X177144609Y-66984404D02*
X177049371Y-66936785D01*
X177049371Y-66936785D02*
X177001752Y-66889166D01*
X177001752Y-66889166D02*
X176954133Y-66793928D01*
X176954133Y-66793928D02*
X176954133Y-66603452D01*
X176954133Y-66603452D02*
X177001752Y-66508214D01*
X177001752Y-66508214D02*
X177049371Y-66460595D01*
X177049371Y-66460595D02*
X177144609Y-66412976D01*
X177253181Y-69270595D02*
X176253181Y-69270595D01*
X177253181Y-69842023D02*
X176681752Y-69413452D01*
X176253181Y-69842023D02*
X176824609Y-69270595D01*
X97824819Y-59745714D02*
X96824819Y-59745714D01*
X96824819Y-59745714D02*
X96824819Y-59983809D01*
X96824819Y-59983809D02*
X96872438Y-60126666D01*
X96872438Y-60126666D02*
X96967676Y-60221904D01*
X96967676Y-60221904D02*
X97062914Y-60269523D01*
X97062914Y-60269523D02*
X97253390Y-60317142D01*
X97253390Y-60317142D02*
X97396247Y-60317142D01*
X97396247Y-60317142D02*
X97586723Y-60269523D01*
X97586723Y-60269523D02*
X97681961Y-60221904D01*
X97681961Y-60221904D02*
X97777200Y-60126666D01*
X97777200Y-60126666D02*
X97824819Y-59983809D01*
X97824819Y-59983809D02*
X97824819Y-59745714D01*
X97824819Y-61269523D02*
X97824819Y-60698095D01*
X97824819Y-60983809D02*
X96824819Y-60983809D01*
X96824819Y-60983809D02*
X96967676Y-60888571D01*
X96967676Y-60888571D02*
X97062914Y-60793333D01*
X97062914Y-60793333D02*
X97110533Y-60698095D01*
X96824819Y-62126666D02*
X96824819Y-61936190D01*
X96824819Y-61936190D02*
X96872438Y-61840952D01*
X96872438Y-61840952D02*
X96920057Y-61793333D01*
X96920057Y-61793333D02*
X97062914Y-61698095D01*
X97062914Y-61698095D02*
X97253390Y-61650476D01*
X97253390Y-61650476D02*
X97634342Y-61650476D01*
X97634342Y-61650476D02*
X97729580Y-61698095D01*
X97729580Y-61698095D02*
X97777200Y-61745714D01*
X97777200Y-61745714D02*
X97824819Y-61840952D01*
X97824819Y-61840952D02*
X97824819Y-62031428D01*
X97824819Y-62031428D02*
X97777200Y-62126666D01*
X97777200Y-62126666D02*
X97729580Y-62174285D01*
X97729580Y-62174285D02*
X97634342Y-62221904D01*
X97634342Y-62221904D02*
X97396247Y-62221904D01*
X97396247Y-62221904D02*
X97301009Y-62174285D01*
X97301009Y-62174285D02*
X97253390Y-62126666D01*
X97253390Y-62126666D02*
X97205771Y-62031428D01*
X97205771Y-62031428D02*
X97205771Y-61840952D01*
X97205771Y-61840952D02*
X97253390Y-61745714D01*
X97253390Y-61745714D02*
X97301009Y-61698095D01*
X97301009Y-61698095D02*
X97396247Y-61650476D01*
X97504819Y-64508095D02*
X96504819Y-64508095D01*
X97504819Y-65079523D02*
X96933390Y-64650952D01*
X96504819Y-65079523D02*
X97076247Y-64508095D01*
X253773181Y-45458214D02*
X252773181Y-45458214D01*
X252773181Y-45458214D02*
X252773181Y-45696309D01*
X252773181Y-45696309D02*
X252820800Y-45839166D01*
X252820800Y-45839166D02*
X252916038Y-45934404D01*
X252916038Y-45934404D02*
X253011276Y-45982023D01*
X253011276Y-45982023D02*
X253201752Y-46029642D01*
X253201752Y-46029642D02*
X253344609Y-46029642D01*
X253344609Y-46029642D02*
X253535085Y-45982023D01*
X253535085Y-45982023D02*
X253630323Y-45934404D01*
X253630323Y-45934404D02*
X253725562Y-45839166D01*
X253725562Y-45839166D02*
X253773181Y-45696309D01*
X253773181Y-45696309D02*
X253773181Y-45458214D01*
X252773181Y-46362976D02*
X252773181Y-46982023D01*
X252773181Y-46982023D02*
X253154133Y-46648690D01*
X253154133Y-46648690D02*
X253154133Y-46791547D01*
X253154133Y-46791547D02*
X253201752Y-46886785D01*
X253201752Y-46886785D02*
X253249371Y-46934404D01*
X253249371Y-46934404D02*
X253344609Y-46982023D01*
X253344609Y-46982023D02*
X253582704Y-46982023D01*
X253582704Y-46982023D02*
X253677942Y-46934404D01*
X253677942Y-46934404D02*
X253725562Y-46886785D01*
X253725562Y-46886785D02*
X253773181Y-46791547D01*
X253773181Y-46791547D02*
X253773181Y-46505833D01*
X253773181Y-46505833D02*
X253725562Y-46410595D01*
X253725562Y-46410595D02*
X253677942Y-46362976D01*
X252773181Y-47315357D02*
X252773181Y-47934404D01*
X252773181Y-47934404D02*
X253154133Y-47601071D01*
X253154133Y-47601071D02*
X253154133Y-47743928D01*
X253154133Y-47743928D02*
X253201752Y-47839166D01*
X253201752Y-47839166D02*
X253249371Y-47886785D01*
X253249371Y-47886785D02*
X253344609Y-47934404D01*
X253344609Y-47934404D02*
X253582704Y-47934404D01*
X253582704Y-47934404D02*
X253677942Y-47886785D01*
X253677942Y-47886785D02*
X253725562Y-47839166D01*
X253725562Y-47839166D02*
X253773181Y-47743928D01*
X253773181Y-47743928D02*
X253773181Y-47458214D01*
X253773181Y-47458214D02*
X253725562Y-47362976D01*
X253725562Y-47362976D02*
X253677942Y-47315357D01*
X253453181Y-50220595D02*
X252453181Y-50220595D01*
X253453181Y-50792023D02*
X252881752Y-50363452D01*
X252453181Y-50792023D02*
X253024609Y-50220595D01*
X196623181Y-50220714D02*
X195623181Y-50220714D01*
X195623181Y-50220714D02*
X195623181Y-50458809D01*
X195623181Y-50458809D02*
X195670800Y-50601666D01*
X195670800Y-50601666D02*
X195766038Y-50696904D01*
X195766038Y-50696904D02*
X195861276Y-50744523D01*
X195861276Y-50744523D02*
X196051752Y-50792142D01*
X196051752Y-50792142D02*
X196194609Y-50792142D01*
X196194609Y-50792142D02*
X196385085Y-50744523D01*
X196385085Y-50744523D02*
X196480323Y-50696904D01*
X196480323Y-50696904D02*
X196575562Y-50601666D01*
X196575562Y-50601666D02*
X196623181Y-50458809D01*
X196623181Y-50458809D02*
X196623181Y-50220714D01*
X195623181Y-51125476D02*
X195623181Y-51744523D01*
X195623181Y-51744523D02*
X196004133Y-51411190D01*
X196004133Y-51411190D02*
X196004133Y-51554047D01*
X196004133Y-51554047D02*
X196051752Y-51649285D01*
X196051752Y-51649285D02*
X196099371Y-51696904D01*
X196099371Y-51696904D02*
X196194609Y-51744523D01*
X196194609Y-51744523D02*
X196432704Y-51744523D01*
X196432704Y-51744523D02*
X196527942Y-51696904D01*
X196527942Y-51696904D02*
X196575562Y-51649285D01*
X196575562Y-51649285D02*
X196623181Y-51554047D01*
X196623181Y-51554047D02*
X196623181Y-51268333D01*
X196623181Y-51268333D02*
X196575562Y-51173095D01*
X196575562Y-51173095D02*
X196527942Y-51125476D01*
X195623181Y-52363571D02*
X195623181Y-52458809D01*
X195623181Y-52458809D02*
X195670800Y-52554047D01*
X195670800Y-52554047D02*
X195718419Y-52601666D01*
X195718419Y-52601666D02*
X195813657Y-52649285D01*
X195813657Y-52649285D02*
X196004133Y-52696904D01*
X196004133Y-52696904D02*
X196242228Y-52696904D01*
X196242228Y-52696904D02*
X196432704Y-52649285D01*
X196432704Y-52649285D02*
X196527942Y-52601666D01*
X196527942Y-52601666D02*
X196575562Y-52554047D01*
X196575562Y-52554047D02*
X196623181Y-52458809D01*
X196623181Y-52458809D02*
X196623181Y-52363571D01*
X196623181Y-52363571D02*
X196575562Y-52268333D01*
X196575562Y-52268333D02*
X196527942Y-52220714D01*
X196527942Y-52220714D02*
X196432704Y-52173095D01*
X196432704Y-52173095D02*
X196242228Y-52125476D01*
X196242228Y-52125476D02*
X196004133Y-52125476D01*
X196004133Y-52125476D02*
X195813657Y-52173095D01*
X195813657Y-52173095D02*
X195718419Y-52220714D01*
X195718419Y-52220714D02*
X195670800Y-52268333D01*
X195670800Y-52268333D02*
X195623181Y-52363571D01*
X196303181Y-54983095D02*
X195303181Y-54983095D01*
X196303181Y-55554523D02*
X195731752Y-55125952D01*
X195303181Y-55554523D02*
X195874609Y-54983095D01*
X88299819Y-83558214D02*
X87299819Y-83558214D01*
X87299819Y-83558214D02*
X87299819Y-83796309D01*
X87299819Y-83796309D02*
X87347438Y-83939166D01*
X87347438Y-83939166D02*
X87442676Y-84034404D01*
X87442676Y-84034404D02*
X87537914Y-84082023D01*
X87537914Y-84082023D02*
X87728390Y-84129642D01*
X87728390Y-84129642D02*
X87871247Y-84129642D01*
X87871247Y-84129642D02*
X88061723Y-84082023D01*
X88061723Y-84082023D02*
X88156961Y-84034404D01*
X88156961Y-84034404D02*
X88252200Y-83939166D01*
X88252200Y-83939166D02*
X88299819Y-83796309D01*
X88299819Y-83796309D02*
X88299819Y-83558214D01*
X87395057Y-84510595D02*
X87347438Y-84558214D01*
X87347438Y-84558214D02*
X87299819Y-84653452D01*
X87299819Y-84653452D02*
X87299819Y-84891547D01*
X87299819Y-84891547D02*
X87347438Y-84986785D01*
X87347438Y-84986785D02*
X87395057Y-85034404D01*
X87395057Y-85034404D02*
X87490295Y-85082023D01*
X87490295Y-85082023D02*
X87585533Y-85082023D01*
X87585533Y-85082023D02*
X87728390Y-85034404D01*
X87728390Y-85034404D02*
X88299819Y-84462976D01*
X88299819Y-84462976D02*
X88299819Y-85082023D01*
X87299819Y-85701071D02*
X87299819Y-85796309D01*
X87299819Y-85796309D02*
X87347438Y-85891547D01*
X87347438Y-85891547D02*
X87395057Y-85939166D01*
X87395057Y-85939166D02*
X87490295Y-85986785D01*
X87490295Y-85986785D02*
X87680771Y-86034404D01*
X87680771Y-86034404D02*
X87918866Y-86034404D01*
X87918866Y-86034404D02*
X88109342Y-85986785D01*
X88109342Y-85986785D02*
X88204580Y-85939166D01*
X88204580Y-85939166D02*
X88252200Y-85891547D01*
X88252200Y-85891547D02*
X88299819Y-85796309D01*
X88299819Y-85796309D02*
X88299819Y-85701071D01*
X88299819Y-85701071D02*
X88252200Y-85605833D01*
X88252200Y-85605833D02*
X88204580Y-85558214D01*
X88204580Y-85558214D02*
X88109342Y-85510595D01*
X88109342Y-85510595D02*
X87918866Y-85462976D01*
X87918866Y-85462976D02*
X87680771Y-85462976D01*
X87680771Y-85462976D02*
X87490295Y-85510595D01*
X87490295Y-85510595D02*
X87395057Y-85558214D01*
X87395057Y-85558214D02*
X87347438Y-85605833D01*
X87347438Y-85605833D02*
X87299819Y-85701071D01*
X87979819Y-88320595D02*
X86979819Y-88320595D01*
X87979819Y-88892023D02*
X87408390Y-88463452D01*
X86979819Y-88892023D02*
X87551247Y-88320595D01*
X97824819Y-22121905D02*
X96824819Y-22121905D01*
X96824819Y-22121905D02*
X96824819Y-22360000D01*
X96824819Y-22360000D02*
X96872438Y-22502857D01*
X96872438Y-22502857D02*
X96967676Y-22598095D01*
X96967676Y-22598095D02*
X97062914Y-22645714D01*
X97062914Y-22645714D02*
X97253390Y-22693333D01*
X97253390Y-22693333D02*
X97396247Y-22693333D01*
X97396247Y-22693333D02*
X97586723Y-22645714D01*
X97586723Y-22645714D02*
X97681961Y-22598095D01*
X97681961Y-22598095D02*
X97777200Y-22502857D01*
X97777200Y-22502857D02*
X97824819Y-22360000D01*
X97824819Y-22360000D02*
X97824819Y-22121905D01*
X97158152Y-23550476D02*
X97824819Y-23550476D01*
X96777200Y-23312381D02*
X97491485Y-23074286D01*
X97491485Y-23074286D02*
X97491485Y-23693333D01*
X97504819Y-26408095D02*
X96504819Y-26408095D01*
X97504819Y-26979523D02*
X96933390Y-26550952D01*
X96504819Y-26979523D02*
X97076247Y-26408095D01*
X116874819Y-26884405D02*
X115874819Y-26884405D01*
X115874819Y-26884405D02*
X115874819Y-27122500D01*
X115874819Y-27122500D02*
X115922438Y-27265357D01*
X115922438Y-27265357D02*
X116017676Y-27360595D01*
X116017676Y-27360595D02*
X116112914Y-27408214D01*
X116112914Y-27408214D02*
X116303390Y-27455833D01*
X116303390Y-27455833D02*
X116446247Y-27455833D01*
X116446247Y-27455833D02*
X116636723Y-27408214D01*
X116636723Y-27408214D02*
X116731961Y-27360595D01*
X116731961Y-27360595D02*
X116827200Y-27265357D01*
X116827200Y-27265357D02*
X116874819Y-27122500D01*
X116874819Y-27122500D02*
X116874819Y-26884405D01*
X115874819Y-28360595D02*
X115874819Y-27884405D01*
X115874819Y-27884405D02*
X116351009Y-27836786D01*
X116351009Y-27836786D02*
X116303390Y-27884405D01*
X116303390Y-27884405D02*
X116255771Y-27979643D01*
X116255771Y-27979643D02*
X116255771Y-28217738D01*
X116255771Y-28217738D02*
X116303390Y-28312976D01*
X116303390Y-28312976D02*
X116351009Y-28360595D01*
X116351009Y-28360595D02*
X116446247Y-28408214D01*
X116446247Y-28408214D02*
X116684342Y-28408214D01*
X116684342Y-28408214D02*
X116779580Y-28360595D01*
X116779580Y-28360595D02*
X116827200Y-28312976D01*
X116827200Y-28312976D02*
X116874819Y-28217738D01*
X116874819Y-28217738D02*
X116874819Y-27979643D01*
X116874819Y-27979643D02*
X116827200Y-27884405D01*
X116827200Y-27884405D02*
X116779580Y-27836786D01*
X116554819Y-31170595D02*
X115554819Y-31170595D01*
X116554819Y-31742023D02*
X115983390Y-31313452D01*
X115554819Y-31742023D02*
X116126247Y-31170595D01*
X215673181Y-64508214D02*
X214673181Y-64508214D01*
X214673181Y-64508214D02*
X214673181Y-64746309D01*
X214673181Y-64746309D02*
X214720800Y-64889166D01*
X214720800Y-64889166D02*
X214816038Y-64984404D01*
X214816038Y-64984404D02*
X214911276Y-65032023D01*
X214911276Y-65032023D02*
X215101752Y-65079642D01*
X215101752Y-65079642D02*
X215244609Y-65079642D01*
X215244609Y-65079642D02*
X215435085Y-65032023D01*
X215435085Y-65032023D02*
X215530323Y-64984404D01*
X215530323Y-64984404D02*
X215625562Y-64889166D01*
X215625562Y-64889166D02*
X215673181Y-64746309D01*
X215673181Y-64746309D02*
X215673181Y-64508214D01*
X214673181Y-65412976D02*
X214673181Y-66032023D01*
X214673181Y-66032023D02*
X215054133Y-65698690D01*
X215054133Y-65698690D02*
X215054133Y-65841547D01*
X215054133Y-65841547D02*
X215101752Y-65936785D01*
X215101752Y-65936785D02*
X215149371Y-65984404D01*
X215149371Y-65984404D02*
X215244609Y-66032023D01*
X215244609Y-66032023D02*
X215482704Y-66032023D01*
X215482704Y-66032023D02*
X215577942Y-65984404D01*
X215577942Y-65984404D02*
X215625562Y-65936785D01*
X215625562Y-65936785D02*
X215673181Y-65841547D01*
X215673181Y-65841547D02*
X215673181Y-65555833D01*
X215673181Y-65555833D02*
X215625562Y-65460595D01*
X215625562Y-65460595D02*
X215577942Y-65412976D01*
X215101752Y-66603452D02*
X215054133Y-66508214D01*
X215054133Y-66508214D02*
X215006514Y-66460595D01*
X215006514Y-66460595D02*
X214911276Y-66412976D01*
X214911276Y-66412976D02*
X214863657Y-66412976D01*
X214863657Y-66412976D02*
X214768419Y-66460595D01*
X214768419Y-66460595D02*
X214720800Y-66508214D01*
X214720800Y-66508214D02*
X214673181Y-66603452D01*
X214673181Y-66603452D02*
X214673181Y-66793928D01*
X214673181Y-66793928D02*
X214720800Y-66889166D01*
X214720800Y-66889166D02*
X214768419Y-66936785D01*
X214768419Y-66936785D02*
X214863657Y-66984404D01*
X214863657Y-66984404D02*
X214911276Y-66984404D01*
X214911276Y-66984404D02*
X215006514Y-66936785D01*
X215006514Y-66936785D02*
X215054133Y-66889166D01*
X215054133Y-66889166D02*
X215101752Y-66793928D01*
X215101752Y-66793928D02*
X215101752Y-66603452D01*
X215101752Y-66603452D02*
X215149371Y-66508214D01*
X215149371Y-66508214D02*
X215196990Y-66460595D01*
X215196990Y-66460595D02*
X215292228Y-66412976D01*
X215292228Y-66412976D02*
X215482704Y-66412976D01*
X215482704Y-66412976D02*
X215577942Y-66460595D01*
X215577942Y-66460595D02*
X215625562Y-66508214D01*
X215625562Y-66508214D02*
X215673181Y-66603452D01*
X215673181Y-66603452D02*
X215673181Y-66793928D01*
X215673181Y-66793928D02*
X215625562Y-66889166D01*
X215625562Y-66889166D02*
X215577942Y-66936785D01*
X215577942Y-66936785D02*
X215482704Y-66984404D01*
X215482704Y-66984404D02*
X215292228Y-66984404D01*
X215292228Y-66984404D02*
X215196990Y-66936785D01*
X215196990Y-66936785D02*
X215149371Y-66889166D01*
X215149371Y-66889166D02*
X215101752Y-66793928D01*
X215353181Y-69270595D02*
X214353181Y-69270595D01*
X215353181Y-69842023D02*
X214781752Y-69413452D01*
X214353181Y-69842023D02*
X214924609Y-69270595D01*
X135924819Y-69270714D02*
X134924819Y-69270714D01*
X134924819Y-69270714D02*
X134924819Y-69508809D01*
X134924819Y-69508809D02*
X134972438Y-69651666D01*
X134972438Y-69651666D02*
X135067676Y-69746904D01*
X135067676Y-69746904D02*
X135162914Y-69794523D01*
X135162914Y-69794523D02*
X135353390Y-69842142D01*
X135353390Y-69842142D02*
X135496247Y-69842142D01*
X135496247Y-69842142D02*
X135686723Y-69794523D01*
X135686723Y-69794523D02*
X135781961Y-69746904D01*
X135781961Y-69746904D02*
X135877200Y-69651666D01*
X135877200Y-69651666D02*
X135924819Y-69508809D01*
X135924819Y-69508809D02*
X135924819Y-69270714D01*
X135924819Y-70794523D02*
X135924819Y-70223095D01*
X135924819Y-70508809D02*
X134924819Y-70508809D01*
X134924819Y-70508809D02*
X135067676Y-70413571D01*
X135067676Y-70413571D02*
X135162914Y-70318333D01*
X135162914Y-70318333D02*
X135210533Y-70223095D01*
X135353390Y-71365952D02*
X135305771Y-71270714D01*
X135305771Y-71270714D02*
X135258152Y-71223095D01*
X135258152Y-71223095D02*
X135162914Y-71175476D01*
X135162914Y-71175476D02*
X135115295Y-71175476D01*
X135115295Y-71175476D02*
X135020057Y-71223095D01*
X135020057Y-71223095D02*
X134972438Y-71270714D01*
X134972438Y-71270714D02*
X134924819Y-71365952D01*
X134924819Y-71365952D02*
X134924819Y-71556428D01*
X134924819Y-71556428D02*
X134972438Y-71651666D01*
X134972438Y-71651666D02*
X135020057Y-71699285D01*
X135020057Y-71699285D02*
X135115295Y-71746904D01*
X135115295Y-71746904D02*
X135162914Y-71746904D01*
X135162914Y-71746904D02*
X135258152Y-71699285D01*
X135258152Y-71699285D02*
X135305771Y-71651666D01*
X135305771Y-71651666D02*
X135353390Y-71556428D01*
X135353390Y-71556428D02*
X135353390Y-71365952D01*
X135353390Y-71365952D02*
X135401009Y-71270714D01*
X135401009Y-71270714D02*
X135448628Y-71223095D01*
X135448628Y-71223095D02*
X135543866Y-71175476D01*
X135543866Y-71175476D02*
X135734342Y-71175476D01*
X135734342Y-71175476D02*
X135829580Y-71223095D01*
X135829580Y-71223095D02*
X135877200Y-71270714D01*
X135877200Y-71270714D02*
X135924819Y-71365952D01*
X135924819Y-71365952D02*
X135924819Y-71556428D01*
X135924819Y-71556428D02*
X135877200Y-71651666D01*
X135877200Y-71651666D02*
X135829580Y-71699285D01*
X135829580Y-71699285D02*
X135734342Y-71746904D01*
X135734342Y-71746904D02*
X135543866Y-71746904D01*
X135543866Y-71746904D02*
X135448628Y-71699285D01*
X135448628Y-71699285D02*
X135401009Y-71651666D01*
X135401009Y-71651666D02*
X135353390Y-71556428D01*
X135604819Y-74033095D02*
X134604819Y-74033095D01*
X135604819Y-74604523D02*
X135033390Y-74175952D01*
X134604819Y-74604523D02*
X135176247Y-74033095D01*
X78774819Y-45934405D02*
X77774819Y-45934405D01*
X77774819Y-45934405D02*
X77774819Y-46172500D01*
X77774819Y-46172500D02*
X77822438Y-46315357D01*
X77822438Y-46315357D02*
X77917676Y-46410595D01*
X77917676Y-46410595D02*
X78012914Y-46458214D01*
X78012914Y-46458214D02*
X78203390Y-46505833D01*
X78203390Y-46505833D02*
X78346247Y-46505833D01*
X78346247Y-46505833D02*
X78536723Y-46458214D01*
X78536723Y-46458214D02*
X78631961Y-46410595D01*
X78631961Y-46410595D02*
X78727200Y-46315357D01*
X78727200Y-46315357D02*
X78774819Y-46172500D01*
X78774819Y-46172500D02*
X78774819Y-45934405D01*
X78774819Y-46982024D02*
X78774819Y-47172500D01*
X78774819Y-47172500D02*
X78727200Y-47267738D01*
X78727200Y-47267738D02*
X78679580Y-47315357D01*
X78679580Y-47315357D02*
X78536723Y-47410595D01*
X78536723Y-47410595D02*
X78346247Y-47458214D01*
X78346247Y-47458214D02*
X77965295Y-47458214D01*
X77965295Y-47458214D02*
X77870057Y-47410595D01*
X77870057Y-47410595D02*
X77822438Y-47362976D01*
X77822438Y-47362976D02*
X77774819Y-47267738D01*
X77774819Y-47267738D02*
X77774819Y-47077262D01*
X77774819Y-47077262D02*
X77822438Y-46982024D01*
X77822438Y-46982024D02*
X77870057Y-46934405D01*
X77870057Y-46934405D02*
X77965295Y-46886786D01*
X77965295Y-46886786D02*
X78203390Y-46886786D01*
X78203390Y-46886786D02*
X78298628Y-46934405D01*
X78298628Y-46934405D02*
X78346247Y-46982024D01*
X78346247Y-46982024D02*
X78393866Y-47077262D01*
X78393866Y-47077262D02*
X78393866Y-47267738D01*
X78393866Y-47267738D02*
X78346247Y-47362976D01*
X78346247Y-47362976D02*
X78298628Y-47410595D01*
X78298628Y-47410595D02*
X78203390Y-47458214D01*
X78454819Y-50220595D02*
X77454819Y-50220595D01*
X78454819Y-50792023D02*
X77883390Y-50363452D01*
X77454819Y-50792023D02*
X78026247Y-50220595D01*
X78774819Y-64508214D02*
X77774819Y-64508214D01*
X77774819Y-64508214D02*
X77774819Y-64746309D01*
X77774819Y-64746309D02*
X77822438Y-64889166D01*
X77822438Y-64889166D02*
X77917676Y-64984404D01*
X77917676Y-64984404D02*
X78012914Y-65032023D01*
X78012914Y-65032023D02*
X78203390Y-65079642D01*
X78203390Y-65079642D02*
X78346247Y-65079642D01*
X78346247Y-65079642D02*
X78536723Y-65032023D01*
X78536723Y-65032023D02*
X78631961Y-64984404D01*
X78631961Y-64984404D02*
X78727200Y-64889166D01*
X78727200Y-64889166D02*
X78774819Y-64746309D01*
X78774819Y-64746309D02*
X78774819Y-64508214D01*
X78774819Y-66032023D02*
X78774819Y-65460595D01*
X78774819Y-65746309D02*
X77774819Y-65746309D01*
X77774819Y-65746309D02*
X77917676Y-65651071D01*
X77917676Y-65651071D02*
X78012914Y-65555833D01*
X78012914Y-65555833D02*
X78060533Y-65460595D01*
X77774819Y-66936785D02*
X77774819Y-66460595D01*
X77774819Y-66460595D02*
X78251009Y-66412976D01*
X78251009Y-66412976D02*
X78203390Y-66460595D01*
X78203390Y-66460595D02*
X78155771Y-66555833D01*
X78155771Y-66555833D02*
X78155771Y-66793928D01*
X78155771Y-66793928D02*
X78203390Y-66889166D01*
X78203390Y-66889166D02*
X78251009Y-66936785D01*
X78251009Y-66936785D02*
X78346247Y-66984404D01*
X78346247Y-66984404D02*
X78584342Y-66984404D01*
X78584342Y-66984404D02*
X78679580Y-66936785D01*
X78679580Y-66936785D02*
X78727200Y-66889166D01*
X78727200Y-66889166D02*
X78774819Y-66793928D01*
X78774819Y-66793928D02*
X78774819Y-66555833D01*
X78774819Y-66555833D02*
X78727200Y-66460595D01*
X78727200Y-66460595D02*
X78679580Y-66412976D01*
X78454819Y-69270595D02*
X77454819Y-69270595D01*
X78454819Y-69842023D02*
X77883390Y-69413452D01*
X77454819Y-69842023D02*
X78026247Y-69270595D01*
X234723181Y-40695714D02*
X233723181Y-40695714D01*
X233723181Y-40695714D02*
X233723181Y-40933809D01*
X233723181Y-40933809D02*
X233770800Y-41076666D01*
X233770800Y-41076666D02*
X233866038Y-41171904D01*
X233866038Y-41171904D02*
X233961276Y-41219523D01*
X233961276Y-41219523D02*
X234151752Y-41267142D01*
X234151752Y-41267142D02*
X234294609Y-41267142D01*
X234294609Y-41267142D02*
X234485085Y-41219523D01*
X234485085Y-41219523D02*
X234580323Y-41171904D01*
X234580323Y-41171904D02*
X234675562Y-41076666D01*
X234675562Y-41076666D02*
X234723181Y-40933809D01*
X234723181Y-40933809D02*
X234723181Y-40695714D01*
X233723181Y-41600476D02*
X233723181Y-42219523D01*
X233723181Y-42219523D02*
X234104133Y-41886190D01*
X234104133Y-41886190D02*
X234104133Y-42029047D01*
X234104133Y-42029047D02*
X234151752Y-42124285D01*
X234151752Y-42124285D02*
X234199371Y-42171904D01*
X234199371Y-42171904D02*
X234294609Y-42219523D01*
X234294609Y-42219523D02*
X234532704Y-42219523D01*
X234532704Y-42219523D02*
X234627942Y-42171904D01*
X234627942Y-42171904D02*
X234675562Y-42124285D01*
X234675562Y-42124285D02*
X234723181Y-42029047D01*
X234723181Y-42029047D02*
X234723181Y-41743333D01*
X234723181Y-41743333D02*
X234675562Y-41648095D01*
X234675562Y-41648095D02*
X234627942Y-41600476D01*
X233818419Y-42600476D02*
X233770800Y-42648095D01*
X233770800Y-42648095D02*
X233723181Y-42743333D01*
X233723181Y-42743333D02*
X233723181Y-42981428D01*
X233723181Y-42981428D02*
X233770800Y-43076666D01*
X233770800Y-43076666D02*
X233818419Y-43124285D01*
X233818419Y-43124285D02*
X233913657Y-43171904D01*
X233913657Y-43171904D02*
X234008895Y-43171904D01*
X234008895Y-43171904D02*
X234151752Y-43124285D01*
X234151752Y-43124285D02*
X234723181Y-42552857D01*
X234723181Y-42552857D02*
X234723181Y-43171904D01*
X234403181Y-45458095D02*
X233403181Y-45458095D01*
X234403181Y-46029523D02*
X233831752Y-45600952D01*
X233403181Y-46029523D02*
X233974609Y-45458095D01*
X135924819Y-50220714D02*
X134924819Y-50220714D01*
X134924819Y-50220714D02*
X134924819Y-50458809D01*
X134924819Y-50458809D02*
X134972438Y-50601666D01*
X134972438Y-50601666D02*
X135067676Y-50696904D01*
X135067676Y-50696904D02*
X135162914Y-50744523D01*
X135162914Y-50744523D02*
X135353390Y-50792142D01*
X135353390Y-50792142D02*
X135496247Y-50792142D01*
X135496247Y-50792142D02*
X135686723Y-50744523D01*
X135686723Y-50744523D02*
X135781961Y-50696904D01*
X135781961Y-50696904D02*
X135877200Y-50601666D01*
X135877200Y-50601666D02*
X135924819Y-50458809D01*
X135924819Y-50458809D02*
X135924819Y-50220714D01*
X135924819Y-51744523D02*
X135924819Y-51173095D01*
X135924819Y-51458809D02*
X134924819Y-51458809D01*
X134924819Y-51458809D02*
X135067676Y-51363571D01*
X135067676Y-51363571D02*
X135162914Y-51268333D01*
X135162914Y-51268333D02*
X135210533Y-51173095D01*
X135020057Y-52125476D02*
X134972438Y-52173095D01*
X134972438Y-52173095D02*
X134924819Y-52268333D01*
X134924819Y-52268333D02*
X134924819Y-52506428D01*
X134924819Y-52506428D02*
X134972438Y-52601666D01*
X134972438Y-52601666D02*
X135020057Y-52649285D01*
X135020057Y-52649285D02*
X135115295Y-52696904D01*
X135115295Y-52696904D02*
X135210533Y-52696904D01*
X135210533Y-52696904D02*
X135353390Y-52649285D01*
X135353390Y-52649285D02*
X135924819Y-52077857D01*
X135924819Y-52077857D02*
X135924819Y-52696904D01*
X135604819Y-54983095D02*
X134604819Y-54983095D01*
X135604819Y-55554523D02*
X135033390Y-55125952D01*
X134604819Y-55554523D02*
X135176247Y-54983095D01*
X154974819Y-64508214D02*
X153974819Y-64508214D01*
X153974819Y-64508214D02*
X153974819Y-64746309D01*
X153974819Y-64746309D02*
X154022438Y-64889166D01*
X154022438Y-64889166D02*
X154117676Y-64984404D01*
X154117676Y-64984404D02*
X154212914Y-65032023D01*
X154212914Y-65032023D02*
X154403390Y-65079642D01*
X154403390Y-65079642D02*
X154546247Y-65079642D01*
X154546247Y-65079642D02*
X154736723Y-65032023D01*
X154736723Y-65032023D02*
X154831961Y-64984404D01*
X154831961Y-64984404D02*
X154927200Y-64889166D01*
X154927200Y-64889166D02*
X154974819Y-64746309D01*
X154974819Y-64746309D02*
X154974819Y-64508214D01*
X154974819Y-66032023D02*
X154974819Y-65460595D01*
X154974819Y-65746309D02*
X153974819Y-65746309D01*
X153974819Y-65746309D02*
X154117676Y-65651071D01*
X154117676Y-65651071D02*
X154212914Y-65555833D01*
X154212914Y-65555833D02*
X154260533Y-65460595D01*
X154974819Y-66508214D02*
X154974819Y-66698690D01*
X154974819Y-66698690D02*
X154927200Y-66793928D01*
X154927200Y-66793928D02*
X154879580Y-66841547D01*
X154879580Y-66841547D02*
X154736723Y-66936785D01*
X154736723Y-66936785D02*
X154546247Y-66984404D01*
X154546247Y-66984404D02*
X154165295Y-66984404D01*
X154165295Y-66984404D02*
X154070057Y-66936785D01*
X154070057Y-66936785D02*
X154022438Y-66889166D01*
X154022438Y-66889166D02*
X153974819Y-66793928D01*
X153974819Y-66793928D02*
X153974819Y-66603452D01*
X153974819Y-66603452D02*
X154022438Y-66508214D01*
X154022438Y-66508214D02*
X154070057Y-66460595D01*
X154070057Y-66460595D02*
X154165295Y-66412976D01*
X154165295Y-66412976D02*
X154403390Y-66412976D01*
X154403390Y-66412976D02*
X154498628Y-66460595D01*
X154498628Y-66460595D02*
X154546247Y-66508214D01*
X154546247Y-66508214D02*
X154593866Y-66603452D01*
X154593866Y-66603452D02*
X154593866Y-66793928D01*
X154593866Y-66793928D02*
X154546247Y-66889166D01*
X154546247Y-66889166D02*
X154498628Y-66936785D01*
X154498628Y-66936785D02*
X154403390Y-66984404D01*
X154654819Y-69270595D02*
X153654819Y-69270595D01*
X154654819Y-69842023D02*
X154083390Y-69413452D01*
X153654819Y-69842023D02*
X154226247Y-69270595D01*
X272823181Y-69270714D02*
X271823181Y-69270714D01*
X271823181Y-69270714D02*
X271823181Y-69508809D01*
X271823181Y-69508809D02*
X271870800Y-69651666D01*
X271870800Y-69651666D02*
X271966038Y-69746904D01*
X271966038Y-69746904D02*
X272061276Y-69794523D01*
X272061276Y-69794523D02*
X272251752Y-69842142D01*
X272251752Y-69842142D02*
X272394609Y-69842142D01*
X272394609Y-69842142D02*
X272585085Y-69794523D01*
X272585085Y-69794523D02*
X272680323Y-69746904D01*
X272680323Y-69746904D02*
X272775562Y-69651666D01*
X272775562Y-69651666D02*
X272823181Y-69508809D01*
X272823181Y-69508809D02*
X272823181Y-69270714D01*
X272156514Y-70699285D02*
X272823181Y-70699285D01*
X271775562Y-70461190D02*
X272489847Y-70223095D01*
X272489847Y-70223095D02*
X272489847Y-70842142D01*
X272823181Y-71746904D02*
X272823181Y-71175476D01*
X272823181Y-71461190D02*
X271823181Y-71461190D01*
X271823181Y-71461190D02*
X271966038Y-71365952D01*
X271966038Y-71365952D02*
X272061276Y-71270714D01*
X272061276Y-71270714D02*
X272108895Y-71175476D01*
X272503181Y-74033095D02*
X271503181Y-74033095D01*
X272503181Y-74604523D02*
X271931752Y-74175952D01*
X271503181Y-74604523D02*
X272074609Y-74033095D01*
X59724819Y-31646905D02*
X58724819Y-31646905D01*
X58724819Y-31646905D02*
X58724819Y-31885000D01*
X58724819Y-31885000D02*
X58772438Y-32027857D01*
X58772438Y-32027857D02*
X58867676Y-32123095D01*
X58867676Y-32123095D02*
X58962914Y-32170714D01*
X58962914Y-32170714D02*
X59153390Y-32218333D01*
X59153390Y-32218333D02*
X59296247Y-32218333D01*
X59296247Y-32218333D02*
X59486723Y-32170714D01*
X59486723Y-32170714D02*
X59581961Y-32123095D01*
X59581961Y-32123095D02*
X59677200Y-32027857D01*
X59677200Y-32027857D02*
X59724819Y-31885000D01*
X59724819Y-31885000D02*
X59724819Y-31646905D01*
X58820057Y-32599286D02*
X58772438Y-32646905D01*
X58772438Y-32646905D02*
X58724819Y-32742143D01*
X58724819Y-32742143D02*
X58724819Y-32980238D01*
X58724819Y-32980238D02*
X58772438Y-33075476D01*
X58772438Y-33075476D02*
X58820057Y-33123095D01*
X58820057Y-33123095D02*
X58915295Y-33170714D01*
X58915295Y-33170714D02*
X59010533Y-33170714D01*
X59010533Y-33170714D02*
X59153390Y-33123095D01*
X59153390Y-33123095D02*
X59724819Y-32551667D01*
X59724819Y-32551667D02*
X59724819Y-33170714D01*
X59404819Y-35933095D02*
X58404819Y-35933095D01*
X59404819Y-36504523D02*
X58833390Y-36075952D01*
X58404819Y-36504523D02*
X58976247Y-35933095D01*
X107349819Y-83558214D02*
X106349819Y-83558214D01*
X106349819Y-83558214D02*
X106349819Y-83796309D01*
X106349819Y-83796309D02*
X106397438Y-83939166D01*
X106397438Y-83939166D02*
X106492676Y-84034404D01*
X106492676Y-84034404D02*
X106587914Y-84082023D01*
X106587914Y-84082023D02*
X106778390Y-84129642D01*
X106778390Y-84129642D02*
X106921247Y-84129642D01*
X106921247Y-84129642D02*
X107111723Y-84082023D01*
X107111723Y-84082023D02*
X107206961Y-84034404D01*
X107206961Y-84034404D02*
X107302200Y-83939166D01*
X107302200Y-83939166D02*
X107349819Y-83796309D01*
X107349819Y-83796309D02*
X107349819Y-83558214D01*
X106445057Y-84510595D02*
X106397438Y-84558214D01*
X106397438Y-84558214D02*
X106349819Y-84653452D01*
X106349819Y-84653452D02*
X106349819Y-84891547D01*
X106349819Y-84891547D02*
X106397438Y-84986785D01*
X106397438Y-84986785D02*
X106445057Y-85034404D01*
X106445057Y-85034404D02*
X106540295Y-85082023D01*
X106540295Y-85082023D02*
X106635533Y-85082023D01*
X106635533Y-85082023D02*
X106778390Y-85034404D01*
X106778390Y-85034404D02*
X107349819Y-84462976D01*
X107349819Y-84462976D02*
X107349819Y-85082023D01*
X107349819Y-86034404D02*
X107349819Y-85462976D01*
X107349819Y-85748690D02*
X106349819Y-85748690D01*
X106349819Y-85748690D02*
X106492676Y-85653452D01*
X106492676Y-85653452D02*
X106587914Y-85558214D01*
X106587914Y-85558214D02*
X106635533Y-85462976D01*
X107029819Y-88320595D02*
X106029819Y-88320595D01*
X107029819Y-88892023D02*
X106458390Y-88463452D01*
X106029819Y-88892023D02*
X106601247Y-88320595D01*
X182335681Y-88320714D02*
X181335681Y-88320714D01*
X181335681Y-88320714D02*
X181335681Y-88558809D01*
X181335681Y-88558809D02*
X181383300Y-88701666D01*
X181383300Y-88701666D02*
X181478538Y-88796904D01*
X181478538Y-88796904D02*
X181573776Y-88844523D01*
X181573776Y-88844523D02*
X181764252Y-88892142D01*
X181764252Y-88892142D02*
X181907109Y-88892142D01*
X181907109Y-88892142D02*
X182097585Y-88844523D01*
X182097585Y-88844523D02*
X182192823Y-88796904D01*
X182192823Y-88796904D02*
X182288062Y-88701666D01*
X182288062Y-88701666D02*
X182335681Y-88558809D01*
X182335681Y-88558809D02*
X182335681Y-88320714D01*
X181669014Y-89749285D02*
X182335681Y-89749285D01*
X181288062Y-89511190D02*
X182002347Y-89273095D01*
X182002347Y-89273095D02*
X182002347Y-89892142D01*
X181335681Y-90177857D02*
X181335681Y-90796904D01*
X181335681Y-90796904D02*
X181716633Y-90463571D01*
X181716633Y-90463571D02*
X181716633Y-90606428D01*
X181716633Y-90606428D02*
X181764252Y-90701666D01*
X181764252Y-90701666D02*
X181811871Y-90749285D01*
X181811871Y-90749285D02*
X181907109Y-90796904D01*
X181907109Y-90796904D02*
X182145204Y-90796904D01*
X182145204Y-90796904D02*
X182240442Y-90749285D01*
X182240442Y-90749285D02*
X182288062Y-90701666D01*
X182288062Y-90701666D02*
X182335681Y-90606428D01*
X182335681Y-90606428D02*
X182335681Y-90320714D01*
X182335681Y-90320714D02*
X182288062Y-90225476D01*
X182288062Y-90225476D02*
X182240442Y-90177857D01*
X182015681Y-93083095D02*
X181015681Y-93083095D01*
X182015681Y-93654523D02*
X181444252Y-93225952D01*
X181015681Y-93654523D02*
X181587109Y-93083095D01*
X59724819Y-69270714D02*
X58724819Y-69270714D01*
X58724819Y-69270714D02*
X58724819Y-69508809D01*
X58724819Y-69508809D02*
X58772438Y-69651666D01*
X58772438Y-69651666D02*
X58867676Y-69746904D01*
X58867676Y-69746904D02*
X58962914Y-69794523D01*
X58962914Y-69794523D02*
X59153390Y-69842142D01*
X59153390Y-69842142D02*
X59296247Y-69842142D01*
X59296247Y-69842142D02*
X59486723Y-69794523D01*
X59486723Y-69794523D02*
X59581961Y-69746904D01*
X59581961Y-69746904D02*
X59677200Y-69651666D01*
X59677200Y-69651666D02*
X59724819Y-69508809D01*
X59724819Y-69508809D02*
X59724819Y-69270714D01*
X59724819Y-70794523D02*
X59724819Y-70223095D01*
X59724819Y-70508809D02*
X58724819Y-70508809D01*
X58724819Y-70508809D02*
X58867676Y-70413571D01*
X58867676Y-70413571D02*
X58962914Y-70318333D01*
X58962914Y-70318333D02*
X59010533Y-70223095D01*
X59058152Y-71651666D02*
X59724819Y-71651666D01*
X58677200Y-71413571D02*
X59391485Y-71175476D01*
X59391485Y-71175476D02*
X59391485Y-71794523D01*
X59404819Y-74033095D02*
X58404819Y-74033095D01*
X59404819Y-74604523D02*
X58833390Y-74175952D01*
X58404819Y-74604523D02*
X58976247Y-74033095D01*
X196623181Y-31170714D02*
X195623181Y-31170714D01*
X195623181Y-31170714D02*
X195623181Y-31408809D01*
X195623181Y-31408809D02*
X195670800Y-31551666D01*
X195670800Y-31551666D02*
X195766038Y-31646904D01*
X195766038Y-31646904D02*
X195861276Y-31694523D01*
X195861276Y-31694523D02*
X196051752Y-31742142D01*
X196051752Y-31742142D02*
X196194609Y-31742142D01*
X196194609Y-31742142D02*
X196385085Y-31694523D01*
X196385085Y-31694523D02*
X196480323Y-31646904D01*
X196480323Y-31646904D02*
X196575562Y-31551666D01*
X196575562Y-31551666D02*
X196623181Y-31408809D01*
X196623181Y-31408809D02*
X196623181Y-31170714D01*
X195718419Y-32123095D02*
X195670800Y-32170714D01*
X195670800Y-32170714D02*
X195623181Y-32265952D01*
X195623181Y-32265952D02*
X195623181Y-32504047D01*
X195623181Y-32504047D02*
X195670800Y-32599285D01*
X195670800Y-32599285D02*
X195718419Y-32646904D01*
X195718419Y-32646904D02*
X195813657Y-32694523D01*
X195813657Y-32694523D02*
X195908895Y-32694523D01*
X195908895Y-32694523D02*
X196051752Y-32646904D01*
X196051752Y-32646904D02*
X196623181Y-32075476D01*
X196623181Y-32075476D02*
X196623181Y-32694523D01*
X195956514Y-33551666D02*
X196623181Y-33551666D01*
X195575562Y-33313571D02*
X196289847Y-33075476D01*
X196289847Y-33075476D02*
X196289847Y-33694523D01*
X196303181Y-35933095D02*
X195303181Y-35933095D01*
X196303181Y-36504523D02*
X195731752Y-36075952D01*
X195303181Y-36504523D02*
X195874609Y-35933095D01*
X59724819Y-50696905D02*
X58724819Y-50696905D01*
X58724819Y-50696905D02*
X58724819Y-50935000D01*
X58724819Y-50935000D02*
X58772438Y-51077857D01*
X58772438Y-51077857D02*
X58867676Y-51173095D01*
X58867676Y-51173095D02*
X58962914Y-51220714D01*
X58962914Y-51220714D02*
X59153390Y-51268333D01*
X59153390Y-51268333D02*
X59296247Y-51268333D01*
X59296247Y-51268333D02*
X59486723Y-51220714D01*
X59486723Y-51220714D02*
X59581961Y-51173095D01*
X59581961Y-51173095D02*
X59677200Y-51077857D01*
X59677200Y-51077857D02*
X59724819Y-50935000D01*
X59724819Y-50935000D02*
X59724819Y-50696905D01*
X59153390Y-51839762D02*
X59105771Y-51744524D01*
X59105771Y-51744524D02*
X59058152Y-51696905D01*
X59058152Y-51696905D02*
X58962914Y-51649286D01*
X58962914Y-51649286D02*
X58915295Y-51649286D01*
X58915295Y-51649286D02*
X58820057Y-51696905D01*
X58820057Y-51696905D02*
X58772438Y-51744524D01*
X58772438Y-51744524D02*
X58724819Y-51839762D01*
X58724819Y-51839762D02*
X58724819Y-52030238D01*
X58724819Y-52030238D02*
X58772438Y-52125476D01*
X58772438Y-52125476D02*
X58820057Y-52173095D01*
X58820057Y-52173095D02*
X58915295Y-52220714D01*
X58915295Y-52220714D02*
X58962914Y-52220714D01*
X58962914Y-52220714D02*
X59058152Y-52173095D01*
X59058152Y-52173095D02*
X59105771Y-52125476D01*
X59105771Y-52125476D02*
X59153390Y-52030238D01*
X59153390Y-52030238D02*
X59153390Y-51839762D01*
X59153390Y-51839762D02*
X59201009Y-51744524D01*
X59201009Y-51744524D02*
X59248628Y-51696905D01*
X59248628Y-51696905D02*
X59343866Y-51649286D01*
X59343866Y-51649286D02*
X59534342Y-51649286D01*
X59534342Y-51649286D02*
X59629580Y-51696905D01*
X59629580Y-51696905D02*
X59677200Y-51744524D01*
X59677200Y-51744524D02*
X59724819Y-51839762D01*
X59724819Y-51839762D02*
X59724819Y-52030238D01*
X59724819Y-52030238D02*
X59677200Y-52125476D01*
X59677200Y-52125476D02*
X59629580Y-52173095D01*
X59629580Y-52173095D02*
X59534342Y-52220714D01*
X59534342Y-52220714D02*
X59343866Y-52220714D01*
X59343866Y-52220714D02*
X59248628Y-52173095D01*
X59248628Y-52173095D02*
X59201009Y-52125476D01*
X59201009Y-52125476D02*
X59153390Y-52030238D01*
X59404819Y-54983095D02*
X58404819Y-54983095D01*
X59404819Y-55554523D02*
X58833390Y-55125952D01*
X58404819Y-55554523D02*
X58976247Y-54983095D01*
X116874819Y-45458214D02*
X115874819Y-45458214D01*
X115874819Y-45458214D02*
X115874819Y-45696309D01*
X115874819Y-45696309D02*
X115922438Y-45839166D01*
X115922438Y-45839166D02*
X116017676Y-45934404D01*
X116017676Y-45934404D02*
X116112914Y-45982023D01*
X116112914Y-45982023D02*
X116303390Y-46029642D01*
X116303390Y-46029642D02*
X116446247Y-46029642D01*
X116446247Y-46029642D02*
X116636723Y-45982023D01*
X116636723Y-45982023D02*
X116731961Y-45934404D01*
X116731961Y-45934404D02*
X116827200Y-45839166D01*
X116827200Y-45839166D02*
X116874819Y-45696309D01*
X116874819Y-45696309D02*
X116874819Y-45458214D01*
X116874819Y-46982023D02*
X116874819Y-46410595D01*
X116874819Y-46696309D02*
X115874819Y-46696309D01*
X115874819Y-46696309D02*
X116017676Y-46601071D01*
X116017676Y-46601071D02*
X116112914Y-46505833D01*
X116112914Y-46505833D02*
X116160533Y-46410595D01*
X116874819Y-47934404D02*
X116874819Y-47362976D01*
X116874819Y-47648690D02*
X115874819Y-47648690D01*
X115874819Y-47648690D02*
X116017676Y-47553452D01*
X116017676Y-47553452D02*
X116112914Y-47458214D01*
X116112914Y-47458214D02*
X116160533Y-47362976D01*
X116554819Y-50220595D02*
X115554819Y-50220595D01*
X116554819Y-50792023D02*
X115983390Y-50363452D01*
X115554819Y-50792023D02*
X116126247Y-50220595D01*
X126399819Y-88320714D02*
X125399819Y-88320714D01*
X125399819Y-88320714D02*
X125399819Y-88558809D01*
X125399819Y-88558809D02*
X125447438Y-88701666D01*
X125447438Y-88701666D02*
X125542676Y-88796904D01*
X125542676Y-88796904D02*
X125637914Y-88844523D01*
X125637914Y-88844523D02*
X125828390Y-88892142D01*
X125828390Y-88892142D02*
X125971247Y-88892142D01*
X125971247Y-88892142D02*
X126161723Y-88844523D01*
X126161723Y-88844523D02*
X126256961Y-88796904D01*
X126256961Y-88796904D02*
X126352200Y-88701666D01*
X126352200Y-88701666D02*
X126399819Y-88558809D01*
X126399819Y-88558809D02*
X126399819Y-88320714D01*
X125495057Y-89273095D02*
X125447438Y-89320714D01*
X125447438Y-89320714D02*
X125399819Y-89415952D01*
X125399819Y-89415952D02*
X125399819Y-89654047D01*
X125399819Y-89654047D02*
X125447438Y-89749285D01*
X125447438Y-89749285D02*
X125495057Y-89796904D01*
X125495057Y-89796904D02*
X125590295Y-89844523D01*
X125590295Y-89844523D02*
X125685533Y-89844523D01*
X125685533Y-89844523D02*
X125828390Y-89796904D01*
X125828390Y-89796904D02*
X126399819Y-89225476D01*
X126399819Y-89225476D02*
X126399819Y-89844523D01*
X125495057Y-90225476D02*
X125447438Y-90273095D01*
X125447438Y-90273095D02*
X125399819Y-90368333D01*
X125399819Y-90368333D02*
X125399819Y-90606428D01*
X125399819Y-90606428D02*
X125447438Y-90701666D01*
X125447438Y-90701666D02*
X125495057Y-90749285D01*
X125495057Y-90749285D02*
X125590295Y-90796904D01*
X125590295Y-90796904D02*
X125685533Y-90796904D01*
X125685533Y-90796904D02*
X125828390Y-90749285D01*
X125828390Y-90749285D02*
X126399819Y-90177857D01*
X126399819Y-90177857D02*
X126399819Y-90796904D01*
X126079819Y-93083095D02*
X125079819Y-93083095D01*
X126079819Y-93654523D02*
X125508390Y-93225952D01*
X125079819Y-93654523D02*
X125651247Y-93083095D01*
X97824819Y-40695714D02*
X96824819Y-40695714D01*
X96824819Y-40695714D02*
X96824819Y-40933809D01*
X96824819Y-40933809D02*
X96872438Y-41076666D01*
X96872438Y-41076666D02*
X96967676Y-41171904D01*
X96967676Y-41171904D02*
X97062914Y-41219523D01*
X97062914Y-41219523D02*
X97253390Y-41267142D01*
X97253390Y-41267142D02*
X97396247Y-41267142D01*
X97396247Y-41267142D02*
X97586723Y-41219523D01*
X97586723Y-41219523D02*
X97681961Y-41171904D01*
X97681961Y-41171904D02*
X97777200Y-41076666D01*
X97777200Y-41076666D02*
X97824819Y-40933809D01*
X97824819Y-40933809D02*
X97824819Y-40695714D01*
X97824819Y-42219523D02*
X97824819Y-41648095D01*
X97824819Y-41933809D02*
X96824819Y-41933809D01*
X96824819Y-41933809D02*
X96967676Y-41838571D01*
X96967676Y-41838571D02*
X97062914Y-41743333D01*
X97062914Y-41743333D02*
X97110533Y-41648095D01*
X96824819Y-42838571D02*
X96824819Y-42933809D01*
X96824819Y-42933809D02*
X96872438Y-43029047D01*
X96872438Y-43029047D02*
X96920057Y-43076666D01*
X96920057Y-43076666D02*
X97015295Y-43124285D01*
X97015295Y-43124285D02*
X97205771Y-43171904D01*
X97205771Y-43171904D02*
X97443866Y-43171904D01*
X97443866Y-43171904D02*
X97634342Y-43124285D01*
X97634342Y-43124285D02*
X97729580Y-43076666D01*
X97729580Y-43076666D02*
X97777200Y-43029047D01*
X97777200Y-43029047D02*
X97824819Y-42933809D01*
X97824819Y-42933809D02*
X97824819Y-42838571D01*
X97824819Y-42838571D02*
X97777200Y-42743333D01*
X97777200Y-42743333D02*
X97729580Y-42695714D01*
X97729580Y-42695714D02*
X97634342Y-42648095D01*
X97634342Y-42648095D02*
X97443866Y-42600476D01*
X97443866Y-42600476D02*
X97205771Y-42600476D01*
X97205771Y-42600476D02*
X97015295Y-42648095D01*
X97015295Y-42648095D02*
X96920057Y-42695714D01*
X96920057Y-42695714D02*
X96872438Y-42743333D01*
X96872438Y-42743333D02*
X96824819Y-42838571D01*
X97504819Y-45458095D02*
X96504819Y-45458095D01*
X97504819Y-46029523D02*
X96933390Y-45600952D01*
X96504819Y-46029523D02*
X97076247Y-45458095D01*
X291873181Y-31170714D02*
X290873181Y-31170714D01*
X290873181Y-31170714D02*
X290873181Y-31408809D01*
X290873181Y-31408809D02*
X290920800Y-31551666D01*
X290920800Y-31551666D02*
X291016038Y-31646904D01*
X291016038Y-31646904D02*
X291111276Y-31694523D01*
X291111276Y-31694523D02*
X291301752Y-31742142D01*
X291301752Y-31742142D02*
X291444609Y-31742142D01*
X291444609Y-31742142D02*
X291635085Y-31694523D01*
X291635085Y-31694523D02*
X291730323Y-31646904D01*
X291730323Y-31646904D02*
X291825562Y-31551666D01*
X291825562Y-31551666D02*
X291873181Y-31408809D01*
X291873181Y-31408809D02*
X291873181Y-31170714D01*
X290968419Y-32123095D02*
X290920800Y-32170714D01*
X290920800Y-32170714D02*
X290873181Y-32265952D01*
X290873181Y-32265952D02*
X290873181Y-32504047D01*
X290873181Y-32504047D02*
X290920800Y-32599285D01*
X290920800Y-32599285D02*
X290968419Y-32646904D01*
X290968419Y-32646904D02*
X291063657Y-32694523D01*
X291063657Y-32694523D02*
X291158895Y-32694523D01*
X291158895Y-32694523D02*
X291301752Y-32646904D01*
X291301752Y-32646904D02*
X291873181Y-32075476D01*
X291873181Y-32075476D02*
X291873181Y-32694523D01*
X291873181Y-33170714D02*
X291873181Y-33361190D01*
X291873181Y-33361190D02*
X291825562Y-33456428D01*
X291825562Y-33456428D02*
X291777942Y-33504047D01*
X291777942Y-33504047D02*
X291635085Y-33599285D01*
X291635085Y-33599285D02*
X291444609Y-33646904D01*
X291444609Y-33646904D02*
X291063657Y-33646904D01*
X291063657Y-33646904D02*
X290968419Y-33599285D01*
X290968419Y-33599285D02*
X290920800Y-33551666D01*
X290920800Y-33551666D02*
X290873181Y-33456428D01*
X290873181Y-33456428D02*
X290873181Y-33265952D01*
X290873181Y-33265952D02*
X290920800Y-33170714D01*
X290920800Y-33170714D02*
X290968419Y-33123095D01*
X290968419Y-33123095D02*
X291063657Y-33075476D01*
X291063657Y-33075476D02*
X291301752Y-33075476D01*
X291301752Y-33075476D02*
X291396990Y-33123095D01*
X291396990Y-33123095D02*
X291444609Y-33170714D01*
X291444609Y-33170714D02*
X291492228Y-33265952D01*
X291492228Y-33265952D02*
X291492228Y-33456428D01*
X291492228Y-33456428D02*
X291444609Y-33551666D01*
X291444609Y-33551666D02*
X291396990Y-33599285D01*
X291396990Y-33599285D02*
X291301752Y-33646904D01*
X291553181Y-35933095D02*
X290553181Y-35933095D01*
X291553181Y-36504523D02*
X290981752Y-36075952D01*
X290553181Y-36504523D02*
X291124609Y-35933095D01*
D11*
%TO.C,U1*%
X136366250Y-23495000D02*
X136366250Y-56515000D01*
X136366250Y-56515000D02*
X154146250Y-56515000D01*
X138906250Y-26035000D02*
X136366250Y-26035000D01*
X138906250Y-26035000D02*
X138906250Y-28575000D01*
X138906250Y-28575000D02*
X136366250Y-28575000D01*
X154146250Y-23495000D02*
X136366250Y-23495000D01*
X154146250Y-56515000D02*
X154146250Y-23495000D01*
D10*
X151600885Y-32024030D02*
X151100885Y-32024030D01*
X151100885Y-31924030D01*
X151600885Y-31924030D01*
X151600885Y-32024030D01*
G36*
X151600885Y-32024030D02*
G01*
X151100885Y-32024030D01*
X151100885Y-31924030D01*
X151600885Y-31924030D01*
X151600885Y-32024030D01*
G37*
X151200885Y-32224030D02*
X151100885Y-32224030D01*
X151100885Y-31924030D01*
X151200885Y-31924030D01*
X151200885Y-32224030D01*
G36*
X151200885Y-32224030D02*
G01*
X151100885Y-32224030D01*
X151100885Y-31924030D01*
X151200885Y-31924030D01*
X151200885Y-32224030D01*
G37*
X151200885Y-32724030D02*
X151100885Y-32724030D01*
X151100885Y-32524030D01*
X151200885Y-32524030D01*
X151200885Y-32724030D01*
G36*
X151200885Y-32724030D02*
G01*
X151100885Y-32724030D01*
X151100885Y-32524030D01*
X151200885Y-32524030D01*
X151200885Y-32724030D01*
G37*
X151400885Y-32424030D02*
X151300885Y-32424030D01*
X151300885Y-32324030D01*
X151400885Y-32324030D01*
X151400885Y-32424030D01*
G36*
X151400885Y-32424030D02*
G01*
X151300885Y-32424030D01*
X151300885Y-32324030D01*
X151400885Y-32324030D01*
X151400885Y-32424030D01*
G37*
X151600885Y-32724030D02*
X151500885Y-32724030D01*
X151500885Y-31924030D01*
X151600885Y-31924030D01*
X151600885Y-32724030D01*
G36*
X151600885Y-32724030D02*
G01*
X151500885Y-32724030D01*
X151500885Y-31924030D01*
X151600885Y-31924030D01*
X151600885Y-32724030D01*
G37*
D11*
%TO.C,U2*%
X173252112Y-23495000D02*
X173252112Y-56515000D01*
X173252112Y-56515000D02*
X191032112Y-56515000D01*
X175792112Y-26035000D02*
X173252112Y-26035000D01*
X175792112Y-26035000D02*
X175792112Y-28575000D01*
X175792112Y-28575000D02*
X173252112Y-28575000D01*
X191032112Y-23495000D02*
X173252112Y-23495000D01*
X191032112Y-56515000D02*
X191032112Y-23495000D01*
D10*
X188486747Y-32024030D02*
X187986747Y-32024030D01*
X187986747Y-31924030D01*
X188486747Y-31924030D01*
X188486747Y-32024030D01*
G36*
X188486747Y-32024030D02*
G01*
X187986747Y-32024030D01*
X187986747Y-31924030D01*
X188486747Y-31924030D01*
X188486747Y-32024030D01*
G37*
X188086747Y-32224030D02*
X187986747Y-32224030D01*
X187986747Y-31924030D01*
X188086747Y-31924030D01*
X188086747Y-32224030D01*
G36*
X188086747Y-32224030D02*
G01*
X187986747Y-32224030D01*
X187986747Y-31924030D01*
X188086747Y-31924030D01*
X188086747Y-32224030D01*
G37*
X188086747Y-32724030D02*
X187986747Y-32724030D01*
X187986747Y-32524030D01*
X188086747Y-32524030D01*
X188086747Y-32724030D01*
G36*
X188086747Y-32724030D02*
G01*
X187986747Y-32724030D01*
X187986747Y-32524030D01*
X188086747Y-32524030D01*
X188086747Y-32724030D01*
G37*
X188286747Y-32424030D02*
X188186747Y-32424030D01*
X188186747Y-32324030D01*
X188286747Y-32324030D01*
X188286747Y-32424030D01*
G36*
X188286747Y-32424030D02*
G01*
X188186747Y-32424030D01*
X188186747Y-32324030D01*
X188286747Y-32324030D01*
X188286747Y-32424030D01*
G37*
X188486747Y-32724030D02*
X188386747Y-32724030D01*
X188386747Y-31924030D01*
X188486747Y-31924030D01*
X188486747Y-32724030D01*
G36*
X188486747Y-32724030D02*
G01*
X188386747Y-32724030D01*
X188386747Y-31924030D01*
X188486747Y-31924030D01*
X188486747Y-32724030D01*
G37*
D12*
%TO.C,D44*%
X203573362Y-92305000D02*
X203573362Y-91655000D01*
X202453362Y-91655000D02*
X202453362Y-87415000D01*
X204693362Y-91655000D02*
X202453362Y-91655000D01*
X204693362Y-91055000D02*
X202453362Y-91055000D01*
X204693362Y-90935000D02*
X202453362Y-90935000D01*
X204693362Y-90815000D02*
X202453362Y-90815000D01*
X202453362Y-87415000D02*
X204693362Y-87415000D01*
X204693362Y-87415000D02*
X204693362Y-91655000D01*
X203573362Y-86765000D02*
X203573362Y-87415000D01*
%TO.C,D26*%
X232148362Y-25630000D02*
X232148362Y-24980000D01*
X231028362Y-24980000D02*
X231028362Y-20740000D01*
X233268362Y-24980000D02*
X231028362Y-24980000D01*
X233268362Y-24380000D02*
X231028362Y-24380000D01*
X233268362Y-24260000D02*
X231028362Y-24260000D01*
X233268362Y-24140000D02*
X231028362Y-24140000D01*
X231028362Y-20740000D02*
X233268362Y-20740000D01*
X233268362Y-20740000D02*
X233268362Y-24980000D01*
X232148362Y-20090000D02*
X232148362Y-20740000D01*
%TO.C,D28*%
X270248362Y-35155000D02*
X270248362Y-34505000D01*
X269128362Y-34505000D02*
X269128362Y-30265000D01*
X271368362Y-34505000D02*
X269128362Y-34505000D01*
X271368362Y-33905000D02*
X269128362Y-33905000D01*
X271368362Y-33785000D02*
X269128362Y-33785000D01*
X271368362Y-33665000D02*
X269128362Y-33665000D01*
X269128362Y-30265000D02*
X271368362Y-30265000D01*
X271368362Y-30265000D02*
X271368362Y-34505000D01*
X270248362Y-29615000D02*
X270248362Y-30265000D01*
%TO.C,D25*%
X213098362Y-30392500D02*
X213098362Y-29742500D01*
X211978362Y-29742500D02*
X211978362Y-25502500D01*
X214218362Y-29742500D02*
X211978362Y-29742500D01*
X214218362Y-29142500D02*
X211978362Y-29142500D01*
X214218362Y-29022500D02*
X211978362Y-29022500D01*
X214218362Y-28902500D02*
X211978362Y-28902500D01*
X211978362Y-25502500D02*
X214218362Y-25502500D01*
X214218362Y-25502500D02*
X214218362Y-29742500D01*
X213098362Y-24852500D02*
X213098362Y-25502500D01*
%TO.C,D6*%
X133350000Y-35155000D02*
X133350000Y-34505000D01*
X132230000Y-34505000D02*
X132230000Y-30265000D01*
X134470000Y-34505000D02*
X132230000Y-34505000D01*
X134470000Y-33905000D02*
X132230000Y-33905000D01*
X134470000Y-33785000D02*
X132230000Y-33785000D01*
X134470000Y-33665000D02*
X132230000Y-33665000D01*
X132230000Y-30265000D02*
X134470000Y-30265000D01*
X134470000Y-30265000D02*
X134470000Y-34505000D01*
X133350000Y-29615000D02*
X133350000Y-30265000D01*
%TO.C,D35*%
X289298362Y-54205000D02*
X289298362Y-53555000D01*
X288178362Y-53555000D02*
X288178362Y-49315000D01*
X290418362Y-53555000D02*
X288178362Y-53555000D01*
X290418362Y-52955000D02*
X288178362Y-52955000D01*
X290418362Y-52835000D02*
X288178362Y-52835000D01*
X290418362Y-52715000D02*
X288178362Y-52715000D01*
X288178362Y-49315000D02*
X290418362Y-49315000D01*
X290418362Y-49315000D02*
X290418362Y-53555000D01*
X289298362Y-48665000D02*
X289298362Y-49315000D01*
%TO.C,D27*%
X251198362Y-30392500D02*
X251198362Y-29742500D01*
X250078362Y-29742500D02*
X250078362Y-25502500D01*
X252318362Y-29742500D02*
X250078362Y-29742500D01*
X252318362Y-29142500D02*
X250078362Y-29142500D01*
X252318362Y-29022500D02*
X250078362Y-29022500D01*
X252318362Y-28902500D02*
X250078362Y-28902500D01*
X250078362Y-25502500D02*
X252318362Y-25502500D01*
X252318362Y-25502500D02*
X252318362Y-29742500D01*
X251198362Y-24852500D02*
X251198362Y-25502500D01*
%TO.C,D1*%
X38100000Y-35155000D02*
X38100000Y-34505000D01*
X36980000Y-34505000D02*
X36980000Y-30265000D01*
X39220000Y-34505000D02*
X36980000Y-34505000D01*
X39220000Y-33905000D02*
X36980000Y-33905000D01*
X39220000Y-33785000D02*
X36980000Y-33785000D01*
X39220000Y-33665000D02*
X36980000Y-33665000D01*
X36980000Y-30265000D02*
X39220000Y-30265000D01*
X39220000Y-30265000D02*
X39220000Y-34505000D01*
X38100000Y-29615000D02*
X38100000Y-30265000D01*
%TO.C,D7*%
X38100000Y-54205000D02*
X38100000Y-53555000D01*
X36980000Y-53555000D02*
X36980000Y-49315000D01*
X39220000Y-53555000D02*
X36980000Y-53555000D01*
X39220000Y-52955000D02*
X36980000Y-52955000D01*
X39220000Y-52835000D02*
X36980000Y-52835000D01*
X39220000Y-52715000D02*
X36980000Y-52715000D01*
X36980000Y-49315000D02*
X39220000Y-49315000D01*
X39220000Y-49315000D02*
X39220000Y-53555000D01*
X38100000Y-48665000D02*
X38100000Y-49315000D01*
%TO.C,D34*%
X270248362Y-54205000D02*
X270248362Y-53555000D01*
X269128362Y-53555000D02*
X269128362Y-49315000D01*
X271368362Y-53555000D02*
X269128362Y-53555000D01*
X271368362Y-52955000D02*
X269128362Y-52955000D01*
X271368362Y-52835000D02*
X269128362Y-52835000D01*
X271368362Y-52715000D02*
X269128362Y-52715000D01*
X269128362Y-49315000D02*
X271368362Y-49315000D01*
X271368362Y-49315000D02*
X271368362Y-53555000D01*
X270248362Y-48665000D02*
X270248362Y-49315000D01*
%TO.C,D45*%
X222623362Y-87542500D02*
X222623362Y-86892500D01*
X221503362Y-86892500D02*
X221503362Y-82652500D01*
X223743362Y-86892500D02*
X221503362Y-86892500D01*
X223743362Y-86292500D02*
X221503362Y-86292500D01*
X223743362Y-86172500D02*
X221503362Y-86172500D01*
X223743362Y-86052500D02*
X221503362Y-86052500D01*
X221503362Y-82652500D02*
X223743362Y-82652500D01*
X223743362Y-82652500D02*
X223743362Y-86892500D01*
X222623362Y-82002500D02*
X222623362Y-82652500D01*
%TO.C,D39*%
X232148362Y-63730000D02*
X232148362Y-63080000D01*
X231028362Y-63080000D02*
X231028362Y-58840000D01*
X233268362Y-63080000D02*
X231028362Y-63080000D01*
X233268362Y-62480000D02*
X231028362Y-62480000D01*
X233268362Y-62360000D02*
X231028362Y-62360000D01*
X233268362Y-62240000D02*
X231028362Y-62240000D01*
X231028362Y-58840000D02*
X233268362Y-58840000D01*
X233268362Y-58840000D02*
X233268362Y-63080000D01*
X232148362Y-58190000D02*
X232148362Y-58840000D01*
%TO.C,D3*%
X76200000Y-30392500D02*
X76200000Y-29742500D01*
X75080000Y-29742500D02*
X75080000Y-25502500D01*
X77320000Y-29742500D02*
X75080000Y-29742500D01*
X77320000Y-29142500D02*
X75080000Y-29142500D01*
X77320000Y-29022500D02*
X75080000Y-29022500D01*
X77320000Y-28902500D02*
X75080000Y-28902500D01*
X75080000Y-25502500D02*
X77320000Y-25502500D01*
X77320000Y-25502500D02*
X77320000Y-29742500D01*
X76200000Y-24852500D02*
X76200000Y-25502500D01*
%TO.C,D23*%
X147637500Y-92305000D02*
X147637500Y-91655000D01*
X146517500Y-91655000D02*
X146517500Y-87415000D01*
X148757500Y-91655000D02*
X146517500Y-91655000D01*
X148757500Y-91055000D02*
X146517500Y-91055000D01*
X148757500Y-90935000D02*
X146517500Y-90935000D01*
X148757500Y-90815000D02*
X146517500Y-90815000D01*
X146517500Y-87415000D02*
X148757500Y-87415000D01*
X148757500Y-87415000D02*
X148757500Y-91655000D01*
X147637500Y-86765000D02*
X147637500Y-87415000D01*
%TO.C,D37*%
X194048362Y-73255000D02*
X194048362Y-72605000D01*
X192928362Y-72605000D02*
X192928362Y-68365000D01*
X195168362Y-72605000D02*
X192928362Y-72605000D01*
X195168362Y-72005000D02*
X192928362Y-72005000D01*
X195168362Y-71885000D02*
X192928362Y-71885000D01*
X195168362Y-71765000D02*
X192928362Y-71765000D01*
X192928362Y-68365000D02*
X195168362Y-68365000D01*
X195168362Y-68365000D02*
X195168362Y-72605000D01*
X194048362Y-67715000D02*
X194048362Y-68365000D01*
%TO.C,D17*%
X114300000Y-68492500D02*
X114300000Y-67842500D01*
X113180000Y-67842500D02*
X113180000Y-63602500D01*
X115420000Y-67842500D02*
X113180000Y-67842500D01*
X115420000Y-67242500D02*
X113180000Y-67242500D01*
X115420000Y-67122500D02*
X113180000Y-67122500D01*
X115420000Y-67002500D02*
X113180000Y-67002500D01*
X113180000Y-63602500D02*
X115420000Y-63602500D01*
X115420000Y-63602500D02*
X115420000Y-67842500D01*
X114300000Y-62952500D02*
X114300000Y-63602500D01*
%TO.C,D46*%
X241673362Y-87542500D02*
X241673362Y-86892500D01*
X240553362Y-86892500D02*
X240553362Y-82652500D01*
X242793362Y-86892500D02*
X240553362Y-86892500D01*
X242793362Y-86292500D02*
X240553362Y-86292500D01*
X242793362Y-86172500D02*
X240553362Y-86172500D01*
X242793362Y-86052500D02*
X240553362Y-86052500D01*
X240553362Y-82652500D02*
X242793362Y-82652500D01*
X242793362Y-82652500D02*
X242793362Y-86892500D01*
X241673362Y-82002500D02*
X241673362Y-82652500D01*
%TO.C,D40*%
X251198362Y-68492500D02*
X251198362Y-67842500D01*
X250078362Y-67842500D02*
X250078362Y-63602500D01*
X252318362Y-67842500D02*
X250078362Y-67842500D01*
X252318362Y-67242500D02*
X250078362Y-67242500D01*
X252318362Y-67122500D02*
X250078362Y-67122500D01*
X252318362Y-67002500D02*
X250078362Y-67002500D01*
X250078362Y-63602500D02*
X252318362Y-63602500D01*
X252318362Y-63602500D02*
X252318362Y-67842500D01*
X251198362Y-62952500D02*
X251198362Y-63602500D01*
%TO.C,D31*%
X213098362Y-49442500D02*
X213098362Y-48792500D01*
X211978362Y-48792500D02*
X211978362Y-44552500D01*
X214218362Y-48792500D02*
X211978362Y-48792500D01*
X214218362Y-48192500D02*
X211978362Y-48192500D01*
X214218362Y-48072500D02*
X211978362Y-48072500D01*
X214218362Y-47952500D02*
X211978362Y-47952500D01*
X211978362Y-44552500D02*
X214218362Y-44552500D01*
X214218362Y-44552500D02*
X214218362Y-48792500D01*
X213098362Y-43902500D02*
X213098362Y-44552500D01*
%TO.C,D13*%
X38100000Y-73255000D02*
X38100000Y-72605000D01*
X36980000Y-72605000D02*
X36980000Y-68365000D01*
X39220000Y-72605000D02*
X36980000Y-72605000D01*
X39220000Y-72005000D02*
X36980000Y-72005000D01*
X39220000Y-71885000D02*
X36980000Y-71885000D01*
X39220000Y-71765000D02*
X36980000Y-71765000D01*
X36980000Y-68365000D02*
X39220000Y-68365000D01*
X39220000Y-68365000D02*
X39220000Y-72605000D01*
X38100000Y-67715000D02*
X38100000Y-68365000D01*
%TO.C,D42*%
X289298362Y-73255000D02*
X289298362Y-72605000D01*
X288178362Y-72605000D02*
X288178362Y-68365000D01*
X290418362Y-72605000D02*
X288178362Y-72605000D01*
X290418362Y-72005000D02*
X288178362Y-72005000D01*
X290418362Y-71885000D02*
X288178362Y-71885000D01*
X290418362Y-71765000D02*
X288178362Y-71765000D01*
X288178362Y-68365000D02*
X290418362Y-68365000D01*
X290418362Y-68365000D02*
X290418362Y-72605000D01*
X289298362Y-67715000D02*
X289298362Y-68365000D01*
%TO.C,D36*%
X174998362Y-68492500D02*
X174998362Y-67842500D01*
X173878362Y-67842500D02*
X173878362Y-63602500D01*
X176118362Y-67842500D02*
X173878362Y-67842500D01*
X176118362Y-67242500D02*
X173878362Y-67242500D01*
X176118362Y-67122500D02*
X173878362Y-67122500D01*
X176118362Y-67002500D02*
X173878362Y-67002500D01*
X173878362Y-63602500D02*
X176118362Y-63602500D01*
X176118362Y-63602500D02*
X176118362Y-67842500D01*
X174998362Y-62952500D02*
X174998362Y-63602500D01*
%TO.C,D16*%
X95250000Y-63730000D02*
X95250000Y-63080000D01*
X94130000Y-63080000D02*
X94130000Y-58840000D01*
X96370000Y-63080000D02*
X94130000Y-63080000D01*
X96370000Y-62480000D02*
X94130000Y-62480000D01*
X96370000Y-62360000D02*
X94130000Y-62360000D01*
X96370000Y-62240000D02*
X94130000Y-62240000D01*
X94130000Y-58840000D02*
X96370000Y-58840000D01*
X96370000Y-58840000D02*
X96370000Y-63080000D01*
X95250000Y-58190000D02*
X95250000Y-58840000D01*
%TO.C,D33*%
X251198362Y-49442500D02*
X251198362Y-48792500D01*
X250078362Y-48792500D02*
X250078362Y-44552500D01*
X252318362Y-48792500D02*
X250078362Y-48792500D01*
X252318362Y-48192500D02*
X250078362Y-48192500D01*
X252318362Y-48072500D02*
X250078362Y-48072500D01*
X252318362Y-47952500D02*
X250078362Y-47952500D01*
X250078362Y-44552500D02*
X252318362Y-44552500D01*
X252318362Y-44552500D02*
X252318362Y-48792500D01*
X251198362Y-43902500D02*
X251198362Y-44552500D01*
%TO.C,D30*%
X194048362Y-54205000D02*
X194048362Y-53555000D01*
X192928362Y-53555000D02*
X192928362Y-49315000D01*
X195168362Y-53555000D02*
X192928362Y-53555000D01*
X195168362Y-52955000D02*
X192928362Y-52955000D01*
X195168362Y-52835000D02*
X192928362Y-52835000D01*
X195168362Y-52715000D02*
X192928362Y-52715000D01*
X192928362Y-49315000D02*
X195168362Y-49315000D01*
X195168362Y-49315000D02*
X195168362Y-53555000D01*
X194048362Y-48665000D02*
X194048362Y-49315000D01*
%TO.C,D20*%
X85725000Y-87542500D02*
X85725000Y-86892500D01*
X84605000Y-86892500D02*
X84605000Y-82652500D01*
X86845000Y-86892500D02*
X84605000Y-86892500D01*
X86845000Y-86292500D02*
X84605000Y-86292500D01*
X86845000Y-86172500D02*
X84605000Y-86172500D01*
X86845000Y-86052500D02*
X84605000Y-86052500D01*
X84605000Y-82652500D02*
X86845000Y-82652500D01*
X86845000Y-82652500D02*
X86845000Y-86892500D01*
X85725000Y-82002500D02*
X85725000Y-82652500D01*
%TO.C,D4*%
X95250000Y-25630000D02*
X95250000Y-24980000D01*
X94130000Y-24980000D02*
X94130000Y-20740000D01*
X96370000Y-24980000D02*
X94130000Y-24980000D01*
X96370000Y-24380000D02*
X94130000Y-24380000D01*
X96370000Y-24260000D02*
X94130000Y-24260000D01*
X96370000Y-24140000D02*
X94130000Y-24140000D01*
X94130000Y-20740000D02*
X96370000Y-20740000D01*
X96370000Y-20740000D02*
X96370000Y-24980000D01*
X95250000Y-20090000D02*
X95250000Y-20740000D01*
%TO.C,D5*%
X114300000Y-30392500D02*
X114300000Y-29742500D01*
X113180000Y-29742500D02*
X113180000Y-25502500D01*
X115420000Y-29742500D02*
X113180000Y-29742500D01*
X115420000Y-29142500D02*
X113180000Y-29142500D01*
X115420000Y-29022500D02*
X113180000Y-29022500D01*
X115420000Y-28902500D02*
X113180000Y-28902500D01*
X113180000Y-25502500D02*
X115420000Y-25502500D01*
X115420000Y-25502500D02*
X115420000Y-29742500D01*
X114300000Y-24852500D02*
X114300000Y-25502500D01*
%TO.C,D38*%
X213098362Y-68492500D02*
X213098362Y-67842500D01*
X211978362Y-67842500D02*
X211978362Y-63602500D01*
X214218362Y-67842500D02*
X211978362Y-67842500D01*
X214218362Y-67242500D02*
X211978362Y-67242500D01*
X214218362Y-67122500D02*
X211978362Y-67122500D01*
X214218362Y-67002500D02*
X211978362Y-67002500D01*
X211978362Y-63602500D02*
X214218362Y-63602500D01*
X214218362Y-63602500D02*
X214218362Y-67842500D01*
X213098362Y-62952500D02*
X213098362Y-63602500D01*
%TO.C,D18*%
X133350000Y-73255000D02*
X133350000Y-72605000D01*
X132230000Y-72605000D02*
X132230000Y-68365000D01*
X134470000Y-72605000D02*
X132230000Y-72605000D01*
X134470000Y-72005000D02*
X132230000Y-72005000D01*
X134470000Y-71885000D02*
X132230000Y-71885000D01*
X134470000Y-71765000D02*
X132230000Y-71765000D01*
X132230000Y-68365000D02*
X134470000Y-68365000D01*
X134470000Y-68365000D02*
X134470000Y-72605000D01*
X133350000Y-67715000D02*
X133350000Y-68365000D01*
%TO.C,D9*%
X76200000Y-49442500D02*
X76200000Y-48792500D01*
X75080000Y-48792500D02*
X75080000Y-44552500D01*
X77320000Y-48792500D02*
X75080000Y-48792500D01*
X77320000Y-48192500D02*
X75080000Y-48192500D01*
X77320000Y-48072500D02*
X75080000Y-48072500D01*
X77320000Y-47952500D02*
X75080000Y-47952500D01*
X75080000Y-44552500D02*
X77320000Y-44552500D01*
X77320000Y-44552500D02*
X77320000Y-48792500D01*
X76200000Y-43902500D02*
X76200000Y-44552500D01*
%TO.C,D15*%
X76200000Y-68492500D02*
X76200000Y-67842500D01*
X75080000Y-67842500D02*
X75080000Y-63602500D01*
X77320000Y-67842500D02*
X75080000Y-67842500D01*
X77320000Y-67242500D02*
X75080000Y-67242500D01*
X77320000Y-67122500D02*
X75080000Y-67122500D01*
X77320000Y-67002500D02*
X75080000Y-67002500D01*
X75080000Y-63602500D02*
X77320000Y-63602500D01*
X77320000Y-63602500D02*
X77320000Y-67842500D01*
X76200000Y-62952500D02*
X76200000Y-63602500D01*
%TO.C,D32*%
X232148362Y-44680000D02*
X232148362Y-44030000D01*
X231028362Y-44030000D02*
X231028362Y-39790000D01*
X233268362Y-44030000D02*
X231028362Y-44030000D01*
X233268362Y-43430000D02*
X231028362Y-43430000D01*
X233268362Y-43310000D02*
X231028362Y-43310000D01*
X233268362Y-43190000D02*
X231028362Y-43190000D01*
X231028362Y-39790000D02*
X233268362Y-39790000D01*
X233268362Y-39790000D02*
X233268362Y-44030000D01*
X232148362Y-39140000D02*
X232148362Y-39790000D01*
%TO.C,D12*%
X133350000Y-54205000D02*
X133350000Y-53555000D01*
X132230000Y-53555000D02*
X132230000Y-49315000D01*
X134470000Y-53555000D02*
X132230000Y-53555000D01*
X134470000Y-52955000D02*
X132230000Y-52955000D01*
X134470000Y-52835000D02*
X132230000Y-52835000D01*
X134470000Y-52715000D02*
X132230000Y-52715000D01*
X132230000Y-49315000D02*
X134470000Y-49315000D01*
X134470000Y-49315000D02*
X134470000Y-53555000D01*
X133350000Y-48665000D02*
X133350000Y-49315000D01*
%TO.C,D19*%
X152400000Y-68492500D02*
X152400000Y-67842500D01*
X151280000Y-67842500D02*
X151280000Y-63602500D01*
X153520000Y-67842500D02*
X151280000Y-67842500D01*
X153520000Y-67242500D02*
X151280000Y-67242500D01*
X153520000Y-67122500D02*
X151280000Y-67122500D01*
X153520000Y-67002500D02*
X151280000Y-67002500D01*
X151280000Y-63602500D02*
X153520000Y-63602500D01*
X153520000Y-63602500D02*
X153520000Y-67842500D01*
X152400000Y-62952500D02*
X152400000Y-63602500D01*
%TO.C,D41*%
X270248362Y-73255000D02*
X270248362Y-72605000D01*
X269128362Y-72605000D02*
X269128362Y-68365000D01*
X271368362Y-72605000D02*
X269128362Y-72605000D01*
X271368362Y-72005000D02*
X269128362Y-72005000D01*
X271368362Y-71885000D02*
X269128362Y-71885000D01*
X271368362Y-71765000D02*
X269128362Y-71765000D01*
X269128362Y-68365000D02*
X271368362Y-68365000D01*
X271368362Y-68365000D02*
X271368362Y-72605000D01*
X270248362Y-67715000D02*
X270248362Y-68365000D01*
%TO.C,D2*%
X57150000Y-35155000D02*
X57150000Y-34505000D01*
X56030000Y-34505000D02*
X56030000Y-30265000D01*
X58270000Y-34505000D02*
X56030000Y-34505000D01*
X58270000Y-33905000D02*
X56030000Y-33905000D01*
X58270000Y-33785000D02*
X56030000Y-33785000D01*
X58270000Y-33665000D02*
X56030000Y-33665000D01*
X56030000Y-30265000D02*
X58270000Y-30265000D01*
X58270000Y-30265000D02*
X58270000Y-34505000D01*
X57150000Y-29615000D02*
X57150000Y-30265000D01*
%TO.C,D21*%
X104775000Y-87542500D02*
X104775000Y-86892500D01*
X103655000Y-86892500D02*
X103655000Y-82652500D01*
X105895000Y-86892500D02*
X103655000Y-86892500D01*
X105895000Y-86292500D02*
X103655000Y-86292500D01*
X105895000Y-86172500D02*
X103655000Y-86172500D01*
X105895000Y-86052500D02*
X103655000Y-86052500D01*
X103655000Y-82652500D02*
X105895000Y-82652500D01*
X105895000Y-82652500D02*
X105895000Y-86892500D01*
X104775000Y-82002500D02*
X104775000Y-82652500D01*
%TO.C,D43*%
X179760862Y-92305000D02*
X179760862Y-91655000D01*
X178640862Y-91655000D02*
X178640862Y-87415000D01*
X180880862Y-91655000D02*
X178640862Y-91655000D01*
X180880862Y-91055000D02*
X178640862Y-91055000D01*
X180880862Y-90935000D02*
X178640862Y-90935000D01*
X180880862Y-90815000D02*
X178640862Y-90815000D01*
X178640862Y-87415000D02*
X180880862Y-87415000D01*
X180880862Y-87415000D02*
X180880862Y-91655000D01*
X179760862Y-86765000D02*
X179760862Y-87415000D01*
%TO.C,D14*%
X57150000Y-73255000D02*
X57150000Y-72605000D01*
X56030000Y-72605000D02*
X56030000Y-68365000D01*
X58270000Y-72605000D02*
X56030000Y-72605000D01*
X58270000Y-72005000D02*
X56030000Y-72005000D01*
X58270000Y-71885000D02*
X56030000Y-71885000D01*
X58270000Y-71765000D02*
X56030000Y-71765000D01*
X56030000Y-68365000D02*
X58270000Y-68365000D01*
X58270000Y-68365000D02*
X58270000Y-72605000D01*
X57150000Y-67715000D02*
X57150000Y-68365000D01*
%TO.C,D24*%
X194048362Y-35155000D02*
X194048362Y-34505000D01*
X192928362Y-34505000D02*
X192928362Y-30265000D01*
X195168362Y-34505000D02*
X192928362Y-34505000D01*
X195168362Y-33905000D02*
X192928362Y-33905000D01*
X195168362Y-33785000D02*
X192928362Y-33785000D01*
X195168362Y-33665000D02*
X192928362Y-33665000D01*
X192928362Y-30265000D02*
X195168362Y-30265000D01*
X195168362Y-30265000D02*
X195168362Y-34505000D01*
X194048362Y-29615000D02*
X194048362Y-30265000D01*
%TO.C,D8*%
X57150000Y-54205000D02*
X57150000Y-53555000D01*
X56030000Y-53555000D02*
X56030000Y-49315000D01*
X58270000Y-53555000D02*
X56030000Y-53555000D01*
X58270000Y-52955000D02*
X56030000Y-52955000D01*
X58270000Y-52835000D02*
X56030000Y-52835000D01*
X58270000Y-52715000D02*
X56030000Y-52715000D01*
X56030000Y-49315000D02*
X58270000Y-49315000D01*
X58270000Y-49315000D02*
X58270000Y-53555000D01*
X57150000Y-48665000D02*
X57150000Y-49315000D01*
%TO.C,D11*%
X114300000Y-49442500D02*
X114300000Y-48792500D01*
X113180000Y-48792500D02*
X113180000Y-44552500D01*
X115420000Y-48792500D02*
X113180000Y-48792500D01*
X115420000Y-48192500D02*
X113180000Y-48192500D01*
X115420000Y-48072500D02*
X113180000Y-48072500D01*
X115420000Y-47952500D02*
X113180000Y-47952500D01*
X113180000Y-44552500D02*
X115420000Y-44552500D01*
X115420000Y-44552500D02*
X115420000Y-48792500D01*
X114300000Y-43902500D02*
X114300000Y-44552500D01*
%TO.C,D22*%
X123825000Y-92305000D02*
X123825000Y-91655000D01*
X122705000Y-91655000D02*
X122705000Y-87415000D01*
X124945000Y-91655000D02*
X122705000Y-91655000D01*
X124945000Y-91055000D02*
X122705000Y-91055000D01*
X124945000Y-90935000D02*
X122705000Y-90935000D01*
X124945000Y-90815000D02*
X122705000Y-90815000D01*
X122705000Y-87415000D02*
X124945000Y-87415000D01*
X124945000Y-87415000D02*
X124945000Y-91655000D01*
X123825000Y-86765000D02*
X123825000Y-87415000D01*
%TO.C,D10*%
X95250000Y-44680000D02*
X95250000Y-44030000D01*
X94130000Y-44030000D02*
X94130000Y-39790000D01*
X96370000Y-44030000D02*
X94130000Y-44030000D01*
X96370000Y-43430000D02*
X94130000Y-43430000D01*
X96370000Y-43310000D02*
X94130000Y-43310000D01*
X96370000Y-43190000D02*
X94130000Y-43190000D01*
X94130000Y-39790000D02*
X96370000Y-39790000D01*
X96370000Y-39790000D02*
X96370000Y-44030000D01*
X95250000Y-39140000D02*
X95250000Y-39790000D01*
%TO.C,D29*%
X289298362Y-35155000D02*
X289298362Y-34505000D01*
X288178362Y-34505000D02*
X288178362Y-30265000D01*
X290418362Y-34505000D02*
X288178362Y-34505000D01*
X290418362Y-33905000D02*
X288178362Y-33905000D01*
X290418362Y-33785000D02*
X288178362Y-33785000D01*
X290418362Y-33665000D02*
X288178362Y-33665000D01*
X288178362Y-30265000D02*
X290418362Y-30265000D01*
X290418362Y-30265000D02*
X290418362Y-34505000D01*
X289298362Y-29615000D02*
X289298362Y-30265000D01*
%TD*%
D13*
%TO.C,U1*%
X137636250Y-27305000D03*
D14*
X137636250Y-29845000D03*
X137636250Y-32385000D03*
X137636250Y-34925000D03*
X137636250Y-37465000D03*
X137636250Y-40005000D03*
X137636250Y-42545000D03*
X137636250Y-45085000D03*
X137636250Y-47625000D03*
X137636250Y-50165000D03*
X137636250Y-52705000D03*
X137636250Y-55245000D03*
X152876250Y-55245000D03*
X152876250Y-52705000D03*
X152876250Y-50165000D03*
X152876250Y-47625000D03*
X152876250Y-45085000D03*
X152876250Y-42545000D03*
X152876250Y-40005000D03*
X152876250Y-37465000D03*
X152876250Y-34925000D03*
X152876250Y-32385000D03*
X152876250Y-29845000D03*
X152876250Y-27305000D03*
%TD*%
D13*
%TO.C,U2*%
X174522112Y-27305000D03*
D14*
X174522112Y-29845000D03*
X174522112Y-32385000D03*
X174522112Y-34925000D03*
X174522112Y-37465000D03*
X174522112Y-40005000D03*
X174522112Y-42545000D03*
X174522112Y-45085000D03*
X174522112Y-47625000D03*
X174522112Y-50165000D03*
X174522112Y-52705000D03*
X174522112Y-55245000D03*
X189762112Y-55245000D03*
X189762112Y-52705000D03*
X189762112Y-50165000D03*
X189762112Y-47625000D03*
X189762112Y-45085000D03*
X189762112Y-42545000D03*
X189762112Y-40005000D03*
X189762112Y-37465000D03*
X189762112Y-34925000D03*
X189762112Y-32385000D03*
X189762112Y-29845000D03*
X189762112Y-27305000D03*
%TD*%
M02*
