M48
; DRILL file {KiCad 7.0.8} date 2023 November 04, Saturday 09:21:34
; FORMAT={-:-/ absolute / metric / decimal}
; #@! TF.CreationDate,2023-11-04T09:21:34+09:00
; #@! TF.GenerationSoftware,Kicad,Pcbnew,7.0.8
; #@! TF.FileFunction,NonPlated,1,2,NPTH
FMAT,2
METRIC
; #@! TA.AperFunction,NonPlated,NPTH,ComponentDrill
T1C0.800
; #@! TA.AperFunction,NonPlated,NPTH,ComponentDrill
T2C1.750
; #@! TA.AperFunction,NonPlated,NPTH,ComponentDrill
T3C2.200
; #@! TA.AperFunction,NonPlated,NPTH,ComponentDrill
T4C4.000
%
G90
G05
T1
X158.353Y-28.575
X158.353Y-35.575
X169.045Y-28.575
X169.045Y-35.575
T2
X23.495Y-33.337
X23.495Y-52.387
X23.495Y-71.438
X33.655Y-33.337
X33.655Y-52.387
X33.655Y-71.438
X42.545Y-33.337
X42.545Y-52.387
X42.545Y-71.438
X52.705Y-33.337
X52.705Y-52.387
X52.705Y-71.438
X61.595Y-28.575
X61.595Y-47.625
X61.595Y-66.675
X71.12Y-85.725
X71.755Y-28.575
X71.755Y-47.625
X71.755Y-66.675
X80.645Y-23.812
X80.645Y-42.862
X80.645Y-61.912
X81.28Y-85.725
X90.17Y-85.725
X90.805Y-23.812
X90.805Y-42.862
X90.805Y-61.912
X99.695Y-28.575
X99.695Y-47.625
X99.695Y-66.675
X100.33Y-85.725
X109.22Y-90.487
X109.855Y-28.575
X109.855Y-47.625
X109.855Y-66.675
X118.745Y-33.337
X118.745Y-52.387
X118.745Y-71.438
X119.38Y-90.487
X128.905Y-33.337
X128.905Y-52.387
X128.905Y-71.438
X133.032Y-90.487
X137.795Y-66.675
X143.192Y-90.487
X147.955Y-66.675
X179.443Y-66.675
X184.206Y-90.487
X189.603Y-66.675
X194.366Y-90.487
X198.493Y-33.337
X198.493Y-52.387
X198.493Y-71.438
X208.018Y-90.487
X208.653Y-33.337
X208.653Y-52.387
X208.653Y-71.438
X217.543Y-28.575
X217.543Y-47.625
X217.543Y-66.675
X218.178Y-90.487
X227.068Y-85.725
X227.703Y-28.575
X227.703Y-47.625
X227.703Y-66.675
X236.593Y-23.812
X236.593Y-42.862
X236.593Y-61.912
X237.228Y-85.725
X246.118Y-85.725
X246.753Y-23.812
X246.753Y-42.862
X246.753Y-61.912
X255.643Y-28.575
X255.643Y-47.625
X255.643Y-66.675
X256.278Y-85.725
X265.803Y-28.575
X265.803Y-47.625
X265.803Y-66.675
X274.693Y-33.337
X274.693Y-52.387
X274.693Y-71.438
X284.853Y-33.337
X284.853Y-52.387
X284.853Y-71.438
X293.743Y-33.337
X293.743Y-52.387
X293.743Y-71.438
X303.903Y-33.337
X303.903Y-52.387
X303.903Y-71.438
T3
X19.05Y-23.812
X19.05Y-80.962
X57.15Y-19.05
X64.294Y-78.581
X102.394Y-97.631
X133.35Y-23.812
X150.019Y-78.581
X177.38Y-78.581
X194.048Y-23.812
X225.005Y-97.631
X263.105Y-78.581
X270.248Y-19.05
X308.348Y-23.812
X308.348Y-80.962
T4
X28.575Y-33.337
X28.575Y-52.387
X28.575Y-71.438
X47.625Y-33.337
X47.625Y-52.387
X47.625Y-71.438
X66.675Y-28.575
X66.675Y-47.625
X66.675Y-66.675
X76.2Y-85.725
X85.725Y-23.812
X85.725Y-42.862
X85.725Y-61.912
X95.25Y-85.725
X104.775Y-28.575
X104.775Y-47.625
X104.775Y-66.675
X114.3Y-90.487
X123.825Y-33.337
X123.825Y-52.387
X123.825Y-71.438
X138.112Y-90.487
X142.875Y-66.675
X184.523Y-66.675
X189.286Y-90.487
X203.573Y-33.337
X203.573Y-52.387
X203.573Y-71.438
X213.098Y-90.487
X222.623Y-28.575
X222.623Y-47.625
X222.623Y-66.675
X232.148Y-85.725
X241.673Y-23.812
X241.673Y-42.862
X241.673Y-61.912
X251.198Y-85.725
X260.723Y-28.575
X260.723Y-47.625
X260.723Y-66.675
X279.773Y-33.337
X279.773Y-52.387
X279.773Y-71.438
X298.823Y-33.337
X298.823Y-52.387
X298.823Y-71.438
T0
M30
