%TF.GenerationSoftware,KiCad,Pcbnew,7.0.8*%
%TF.CreationDate,2023-11-04T09:20:36+09:00*%
%TF.ProjectId,scene46,7363656e-6534-4362-9e6b-696361645f70,rev?*%
%TF.SameCoordinates,Original*%
%TF.FileFunction,Profile,NP*%
%FSLAX46Y46*%
G04 Gerber Fmt 4.6, Leading zero omitted, Abs format (unit mm)*
G04 Created by KiCad (PCBNEW 7.0.8) date 2023-11-04 09:20:36*
%MOMM*%
%LPD*%
G01*
G04 APERTURE LIST*
%TA.AperFunction,Profile*%
%ADD10C,0.100000*%
%TD*%
G04 APERTURE END LIST*
D10*
X171450000Y-84534375D02*
X155971875Y-84534375D01*
X155971875Y-79771875D02*
X171450000Y-79771875D01*
X169068750Y-55959375D02*
X158353125Y-55959375D01*
X158353125Y-51196875D02*
X169068750Y-51196875D01*
X175021875Y-20240625D02*
X208359375Y-20240625D01*
X117871875Y-19050000D02*
G75*
G03*
X119062500Y-20240625I1190625J0D01*
G01*
X165496875Y-27384375D02*
X165496875Y-23812500D01*
X63103125Y-95250000D02*
G75*
G03*
X66675000Y-98821875I3571875J0D01*
G01*
X311943750Y-78581250D02*
X311943750Y-23812500D01*
X165496875Y-32146875D02*
X165496875Y-39290625D01*
X264318750Y-95250000D02*
X264318750Y-88106250D01*
X52387500Y-20240625D02*
G75*
G03*
X53578125Y-19050000I0J1190625D01*
G01*
X267890625Y-84534450D02*
G75*
G03*
X264318750Y-88106250I-25J-3571850D01*
G01*
X157162500Y-70246875D02*
X155971875Y-79771875D01*
X19050000Y-84534375D02*
X57150000Y-84534375D01*
X161925000Y-23812500D02*
X161925000Y-27384375D01*
X19050000Y-20240625D02*
G75*
G03*
X15478125Y-23812500I0J-3571875D01*
G01*
X19050000Y-20240625D02*
X52387500Y-20240625D01*
X171450000Y-79771875D02*
X170259375Y-70246875D01*
X154781250Y-22621875D02*
X160734375Y-22621875D01*
X161925000Y-32146875D02*
X165496875Y-32146875D01*
X230981250Y-98821875D02*
G75*
G03*
X227409375Y-102393750I-50J-3571825D01*
G01*
X171450025Y-100012500D02*
G75*
G03*
X175021875Y-103584375I3571875J0D01*
G01*
X66675000Y-98821875D02*
X96440625Y-98821875D01*
X166687500Y-22621875D02*
X172640625Y-22621875D01*
X169068750Y-41671875D02*
G75*
G03*
X167878125Y-40481250I-1190650J-25D01*
G01*
X161925025Y-23812500D02*
G75*
G03*
X160734375Y-22621875I-1190625J0D01*
G01*
X76200000Y-10715625D02*
X95250000Y-10715625D01*
X100012525Y-102393750D02*
G75*
G03*
X96440625Y-98821875I-3571925J-50D01*
G01*
X311943775Y-23812500D02*
G75*
G03*
X308371875Y-20240625I-3571875J0D01*
G01*
X170259375Y-65484375D02*
X169068750Y-55959375D01*
X226218750Y-103584375D02*
G75*
G03*
X227409375Y-102393750I-50J1190675D01*
G01*
X232171875Y-10715625D02*
X251221875Y-10715625D01*
X275034375Y-20240625D02*
X308371875Y-20240625D01*
X254793775Y-14287500D02*
G75*
G03*
X251221875Y-10715625I-3571875J0D01*
G01*
X227409375Y-15478100D02*
G75*
G03*
X228600000Y-14287500I25J1190600D01*
G01*
X160734375Y-40481200D02*
G75*
G03*
X161925000Y-39290625I25J1190600D01*
G01*
X165496850Y-39290625D02*
G75*
G03*
X166687500Y-40481250I1190650J25D01*
G01*
X213121875Y-15478125D02*
X215503125Y-15478125D01*
X175021875Y-103584375D02*
X226218750Y-103584375D01*
X63103125Y-88106250D02*
X63103125Y-95250000D01*
X98821875Y-14287500D02*
G75*
G03*
X95250000Y-10715625I-3571875J0D01*
G01*
X159543750Y-40481225D02*
G75*
G03*
X158353125Y-41671875I50J-1190675D01*
G01*
X230981250Y-98821875D02*
X260746875Y-98821875D01*
X153590625Y-21431250D02*
G75*
G03*
X154781250Y-22621875I1190675J50D01*
G01*
X161925000Y-39290625D02*
X161925000Y-32146875D01*
X273843775Y-19050000D02*
G75*
G03*
X270271875Y-15478125I-3571875J0D01*
G01*
X166687500Y-40481250D02*
X167878125Y-40481250D01*
X171450000Y-84534375D02*
X171450000Y-100012500D01*
X215503125Y-15478125D02*
X227409375Y-15478125D01*
X119062500Y-20240625D02*
X152400000Y-20240625D01*
X15478125Y-78581250D02*
X15478125Y-80962500D01*
X166687500Y-22621875D02*
G75*
G03*
X165496875Y-23812500I100J-1190725D01*
G01*
X172640625Y-22621850D02*
G75*
G03*
X173831250Y-21431250I-25J1190650D01*
G01*
X270271875Y-84534375D02*
X308371875Y-84534375D01*
X213121875Y-15478100D02*
G75*
G03*
X209550000Y-19050000I25J-3571900D01*
G01*
X57150000Y-15478125D02*
G75*
G03*
X53578125Y-19050000I0J-3571875D01*
G01*
X63103125Y-88106250D02*
G75*
G03*
X59531250Y-84534375I-3571925J-50D01*
G01*
X155971875Y-100012500D02*
X155971875Y-84534375D01*
X255984375Y-15478125D02*
X270271875Y-15478125D01*
X158353125Y-51196875D02*
X158353125Y-41671875D01*
X308371875Y-84534350D02*
G75*
G03*
X311943750Y-80962500I25J3571850D01*
G01*
X71437500Y-15478125D02*
G75*
G03*
X72628125Y-14287500I0J1190625D01*
G01*
X57150000Y-15478125D02*
X71437500Y-15478125D01*
X15478125Y-80962500D02*
G75*
G03*
X19050000Y-84534375I3571875J0D01*
G01*
X100012500Y-15478125D02*
X111918750Y-15478125D01*
X311943750Y-80962500D02*
X311943750Y-78581250D01*
X101203125Y-103584375D02*
X152400000Y-103584375D01*
X152400000Y-103584375D02*
G75*
G03*
X155971875Y-100012500I0J3571875D01*
G01*
X57150000Y-84534375D02*
X59531250Y-84534375D01*
X273843775Y-19050000D02*
G75*
G03*
X275034375Y-20240625I1190625J0D01*
G01*
X157162500Y-65484375D02*
X157162500Y-70246875D01*
X169068750Y-41671875D02*
X169068750Y-51196875D01*
X117871875Y-19050000D02*
G75*
G03*
X114300000Y-15478125I-3571875J0D01*
G01*
X175021875Y-20240650D02*
G75*
G03*
X173831250Y-21431250I-75J-1190550D01*
G01*
X208359375Y-20240600D02*
G75*
G03*
X209550000Y-19050000I25J1190600D01*
G01*
X232171875Y-10715600D02*
G75*
G03*
X228600000Y-14287500I25J-3571900D01*
G01*
X267890625Y-84534375D02*
X270271875Y-84534375D01*
X111918750Y-15478125D02*
X114300000Y-15478125D01*
X98821875Y-14287500D02*
G75*
G03*
X100012500Y-15478125I1190625J0D01*
G01*
X100012425Y-102393750D02*
G75*
G03*
X101203125Y-103584375I1190675J50D01*
G01*
X158353125Y-55959375D02*
X157162500Y-65484375D01*
X153590675Y-21431250D02*
G75*
G03*
X152400000Y-20240625I-1190675J-50D01*
G01*
X161925000Y-27384375D02*
X165496875Y-27384375D01*
X15478125Y-23812500D02*
X15478125Y-78581250D01*
X160734375Y-40481250D02*
X159543750Y-40481250D01*
X170259375Y-70246875D02*
X170259375Y-65484375D01*
X254793775Y-14287500D02*
G75*
G03*
X255984375Y-15478125I1190625J0D01*
G01*
X260746875Y-98821850D02*
G75*
G03*
X264318750Y-95250000I25J3571850D01*
G01*
X76200000Y-10715625D02*
G75*
G03*
X72628125Y-14287500I0J-3571875D01*
G01*
M02*
