M48
; DRILL file {KiCad 7.0.8} date 2023 November 04, Saturday 09:21:34
; FORMAT={-:-/ absolute / metric / decimal}
; #@! TF.CreationDate,2023-11-04T09:21:34+09:00
; #@! TF.GenerationSoftware,Kicad,Pcbnew,7.0.8
; #@! TF.FileFunction,Plated,1,2,PTH
FMAT,2
METRIC
; #@! TA.AperFunction,Plated,PTH,ViaDrill
T1C0.400
; #@! TA.AperFunction,Plated,PTH,ComponentDrill
T2C0.800
; #@! TA.AperFunction,Plated,PTH,ComponentDrill
T3C0.900
; #@! TA.AperFunction,Plated,PTH,ComponentDrill
T4C1.092
; #@! TA.AperFunction,Plated,PTH,ComponentDrill
T5C1.500
%
G90
G05
T1
X126.206Y-21.431
X126.206Y-22.622
X126.206Y-23.812
X126.206Y-25.003
X126.206Y-26.194
X184.547Y-25.003
X185.737Y-29.766
X185.737Y-38.1
X192.881Y-41.672
X192.881Y-44.053
X194.072Y-40.481
T2
X38.1Y-28.575
X38.1Y-36.195
X38.1Y-47.625
X38.1Y-55.245
X38.1Y-66.675
X38.1Y-74.295
X57.15Y-28.575
X57.15Y-36.195
X57.15Y-47.625
X57.15Y-55.245
X57.15Y-66.675
X57.15Y-74.295
X76.2Y-23.812
X76.2Y-31.432
X76.2Y-42.862
X76.2Y-50.482
X76.2Y-61.912
X76.2Y-69.532
X85.725Y-80.962
X85.725Y-88.582
X95.25Y-19.05
X95.25Y-26.67
X95.25Y-38.1
X95.25Y-45.72
X95.25Y-57.15
X95.25Y-64.77
X104.775Y-80.962
X104.775Y-88.582
X114.3Y-23.812
X114.3Y-31.432
X114.3Y-42.862
X114.3Y-50.482
X114.3Y-61.912
X114.3Y-69.532
X123.825Y-85.725
X123.825Y-93.345
X133.35Y-28.575
X133.35Y-36.195
X133.35Y-47.625
X133.35Y-55.245
X133.35Y-66.675
X133.35Y-74.295
X147.637Y-85.725
X147.637Y-93.345
X152.4Y-61.912
X152.4Y-69.532
X174.998Y-61.912
X174.998Y-69.532
X179.761Y-85.725
X179.761Y-93.345
X194.048Y-28.575
X194.048Y-36.195
X194.048Y-47.625
X194.048Y-55.245
X194.048Y-66.675
X194.048Y-74.295
X203.573Y-85.725
X203.573Y-93.345
X213.098Y-23.812
X213.098Y-31.432
X213.098Y-42.862
X213.098Y-50.482
X213.098Y-61.912
X213.098Y-69.532
X222.623Y-80.962
X222.623Y-88.582
X232.148Y-19.05
X232.148Y-26.67
X232.148Y-38.1
X232.148Y-45.72
X232.148Y-57.15
X232.148Y-64.77
X241.673Y-80.962
X241.673Y-88.582
X251.198Y-23.812
X251.198Y-31.432
X251.198Y-42.862
X251.198Y-50.482
X251.198Y-61.912
X251.198Y-69.532
X270.248Y-28.575
X270.248Y-36.195
X270.248Y-47.625
X270.248Y-55.245
X270.248Y-66.675
X270.248Y-74.295
X289.298Y-28.575
X289.298Y-36.195
X289.298Y-47.625
X289.298Y-55.245
X289.298Y-66.675
X289.298Y-74.295
T4
X137.636Y-27.305
X137.636Y-29.845
X137.636Y-32.385
X137.636Y-34.925
X137.636Y-37.465
X137.636Y-40.005
X137.636Y-42.545
X137.636Y-45.085
X137.636Y-47.625
X137.636Y-50.165
X137.636Y-52.705
X137.636Y-55.245
X152.876Y-27.305
X152.876Y-29.845
X152.876Y-32.385
X152.876Y-34.925
X152.876Y-37.465
X152.876Y-40.005
X152.876Y-42.545
X152.876Y-45.085
X152.876Y-47.625
X152.876Y-50.165
X152.876Y-52.705
X152.876Y-55.245
X174.522Y-27.305
X174.522Y-29.845
X174.522Y-32.385
X174.522Y-34.925
X174.522Y-37.465
X174.522Y-40.005
X174.522Y-42.545
X174.522Y-45.085
X174.522Y-47.625
X174.522Y-50.165
X174.522Y-52.705
X174.522Y-55.245
X189.762Y-27.305
X189.762Y-29.845
X189.762Y-32.385
X189.762Y-34.925
X189.762Y-37.465
X189.762Y-40.005
X189.762Y-42.545
X189.762Y-45.085
X189.762Y-47.625
X189.762Y-50.165
X189.762Y-52.705
X189.762Y-55.245
T5
X24.765Y-30.797
X24.765Y-49.847
X24.765Y-68.897
X31.115Y-28.258
X31.115Y-47.307
X31.115Y-66.358
X43.815Y-30.797
X43.815Y-49.847
X43.815Y-68.897
X50.165Y-28.258
X50.165Y-47.307
X50.165Y-66.358
X62.865Y-26.035
X62.865Y-45.085
X62.865Y-64.135
X69.215Y-23.495
X69.215Y-42.545
X69.215Y-61.595
X72.39Y-83.185
X78.74Y-80.645
X81.915Y-21.272
X81.915Y-40.322
X81.915Y-59.372
X88.265Y-18.732
X88.265Y-37.782
X88.265Y-56.832
X91.44Y-83.185
X97.79Y-80.645
X100.965Y-26.035
X100.965Y-45.085
X100.965Y-64.135
X107.315Y-23.495
X107.315Y-42.545
X107.315Y-61.595
X110.49Y-87.947
X116.84Y-85.407
X120.015Y-30.797
X120.015Y-49.847
X120.015Y-68.897
X126.365Y-28.258
X126.365Y-47.307
X126.365Y-66.358
X134.302Y-87.947
X139.065Y-64.135
X140.653Y-85.407
X145.415Y-61.595
X180.713Y-64.135
X185.476Y-87.947
X187.063Y-61.595
X191.826Y-85.407
X199.763Y-30.797
X199.763Y-49.847
X199.763Y-68.897
X206.113Y-28.258
X206.113Y-47.307
X206.113Y-66.358
X209.288Y-87.947
X215.638Y-85.407
X218.813Y-26.035
X218.813Y-45.085
X218.813Y-64.135
X225.163Y-23.495
X225.163Y-42.545
X225.163Y-61.595
X228.338Y-83.185
X234.688Y-80.645
X237.863Y-21.272
X237.863Y-40.322
X237.863Y-59.372
X244.213Y-18.732
X244.213Y-37.782
X244.213Y-56.832
X247.388Y-83.185
X253.738Y-80.645
X256.913Y-26.035
X256.913Y-45.085
X256.913Y-64.135
X263.263Y-23.495
X263.263Y-42.545
X263.263Y-61.595
X275.963Y-30.797
X275.963Y-49.847
X275.963Y-68.897
X282.313Y-28.258
X282.313Y-47.307
X282.313Y-66.358
X295.013Y-30.797
X295.013Y-49.847
X295.013Y-68.897
X301.363Y-28.258
X301.363Y-47.307
X301.363Y-66.358
T3
X156.053Y-38.075G85X156.053Y-38.475
G05
X160.653Y-29.975G85X160.653Y-30.375
G05
X160.653Y-32.975G85X160.653Y-33.375
G05
X160.653Y-36.975G85X160.653Y-37.375
G05
X166.745Y-38.075G85X166.745Y-38.475
G05
X171.345Y-29.975G85X171.345Y-30.375
G05
X171.345Y-32.975G85X171.345Y-33.375
G05
X171.345Y-36.975G85X171.345Y-37.375
G05
T0
M30
