%TF.GenerationSoftware,KiCad,Pcbnew,7.0.8*%
%TF.CreationDate,2023-11-04T09:20:36+09:00*%
%TF.ProjectId,scene46,7363656e-6534-4362-9e6b-696361645f70,rev?*%
%TF.SameCoordinates,Original*%
%TF.FileFunction,Legend,Top*%
%TF.FilePolarity,Positive*%
%FSLAX46Y46*%
G04 Gerber Fmt 4.6, Leading zero omitted, Abs format (unit mm)*
G04 Created by KiCad (PCBNEW 7.0.8) date 2023-11-04 09:20:36*
%MOMM*%
%LPD*%
G01*
G04 APERTURE LIST*
%ADD10C,0.150000*%
%ADD11C,0.120000*%
%ADD12C,0.200000*%
%ADD13R,1.752600X1.752600*%
%ADD14C,1.752600*%
G04 APERTURE END LIST*
D10*
X240435267Y-35269700D02*
X240578124Y-35317319D01*
X240578124Y-35317319D02*
X240816219Y-35317319D01*
X240816219Y-35317319D02*
X240911457Y-35269700D01*
X240911457Y-35269700D02*
X240959076Y-35222080D01*
X240959076Y-35222080D02*
X241006695Y-35126842D01*
X241006695Y-35126842D02*
X241006695Y-35031604D01*
X241006695Y-35031604D02*
X240959076Y-34936366D01*
X240959076Y-34936366D02*
X240911457Y-34888747D01*
X240911457Y-34888747D02*
X240816219Y-34841128D01*
X240816219Y-34841128D02*
X240625743Y-34793509D01*
X240625743Y-34793509D02*
X240530505Y-34745890D01*
X240530505Y-34745890D02*
X240482886Y-34698271D01*
X240482886Y-34698271D02*
X240435267Y-34603033D01*
X240435267Y-34603033D02*
X240435267Y-34507795D01*
X240435267Y-34507795D02*
X240482886Y-34412557D01*
X240482886Y-34412557D02*
X240530505Y-34364938D01*
X240530505Y-34364938D02*
X240625743Y-34317319D01*
X240625743Y-34317319D02*
X240863838Y-34317319D01*
X240863838Y-34317319D02*
X241006695Y-34364938D01*
X241340029Y-34317319D02*
X241959076Y-34317319D01*
X241959076Y-34317319D02*
X241625743Y-34698271D01*
X241625743Y-34698271D02*
X241768600Y-34698271D01*
X241768600Y-34698271D02*
X241863838Y-34745890D01*
X241863838Y-34745890D02*
X241911457Y-34793509D01*
X241911457Y-34793509D02*
X241959076Y-34888747D01*
X241959076Y-34888747D02*
X241959076Y-35126842D01*
X241959076Y-35126842D02*
X241911457Y-35222080D01*
X241911457Y-35222080D02*
X241863838Y-35269700D01*
X241863838Y-35269700D02*
X241768600Y-35317319D01*
X241768600Y-35317319D02*
X241482886Y-35317319D01*
X241482886Y-35317319D02*
X241387648Y-35269700D01*
X241387648Y-35269700D02*
X241340029Y-35222080D01*
X242340029Y-34412557D02*
X242387648Y-34364938D01*
X242387648Y-34364938D02*
X242482886Y-34317319D01*
X242482886Y-34317319D02*
X242720981Y-34317319D01*
X242720981Y-34317319D02*
X242816219Y-34364938D01*
X242816219Y-34364938D02*
X242863838Y-34412557D01*
X242863838Y-34412557D02*
X242911457Y-34507795D01*
X242911457Y-34507795D02*
X242911457Y-34603033D01*
X242911457Y-34603033D02*
X242863838Y-34745890D01*
X242863838Y-34745890D02*
X242292410Y-35317319D01*
X242292410Y-35317319D02*
X242911457Y-35317319D01*
X61150595Y-81417319D02*
X61150595Y-80417319D01*
X61150595Y-80893509D02*
X61722023Y-80893509D01*
X61722023Y-81417319D02*
X61722023Y-80417319D01*
X62674404Y-80417319D02*
X62198214Y-80417319D01*
X62198214Y-80417319D02*
X62150595Y-80893509D01*
X62150595Y-80893509D02*
X62198214Y-80845890D01*
X62198214Y-80845890D02*
X62293452Y-80798271D01*
X62293452Y-80798271D02*
X62531547Y-80798271D01*
X62531547Y-80798271D02*
X62626785Y-80845890D01*
X62626785Y-80845890D02*
X62674404Y-80893509D01*
X62674404Y-80893509D02*
X62722023Y-80988747D01*
X62722023Y-80988747D02*
X62722023Y-81226842D01*
X62722023Y-81226842D02*
X62674404Y-81322080D01*
X62674404Y-81322080D02*
X62626785Y-81369700D01*
X62626785Y-81369700D02*
X62531547Y-81417319D01*
X62531547Y-81417319D02*
X62293452Y-81417319D01*
X62293452Y-81417319D02*
X62198214Y-81369700D01*
X62198214Y-81369700D02*
X62150595Y-81322080D01*
X297585267Y-44794700D02*
X297728124Y-44842319D01*
X297728124Y-44842319D02*
X297966219Y-44842319D01*
X297966219Y-44842319D02*
X298061457Y-44794700D01*
X298061457Y-44794700D02*
X298109076Y-44747080D01*
X298109076Y-44747080D02*
X298156695Y-44651842D01*
X298156695Y-44651842D02*
X298156695Y-44556604D01*
X298156695Y-44556604D02*
X298109076Y-44461366D01*
X298109076Y-44461366D02*
X298061457Y-44413747D01*
X298061457Y-44413747D02*
X297966219Y-44366128D01*
X297966219Y-44366128D02*
X297775743Y-44318509D01*
X297775743Y-44318509D02*
X297680505Y-44270890D01*
X297680505Y-44270890D02*
X297632886Y-44223271D01*
X297632886Y-44223271D02*
X297585267Y-44128033D01*
X297585267Y-44128033D02*
X297585267Y-44032795D01*
X297585267Y-44032795D02*
X297632886Y-43937557D01*
X297632886Y-43937557D02*
X297680505Y-43889938D01*
X297680505Y-43889938D02*
X297775743Y-43842319D01*
X297775743Y-43842319D02*
X298013838Y-43842319D01*
X298013838Y-43842319D02*
X298156695Y-43889938D01*
X298490029Y-43842319D02*
X299109076Y-43842319D01*
X299109076Y-43842319D02*
X298775743Y-44223271D01*
X298775743Y-44223271D02*
X298918600Y-44223271D01*
X298918600Y-44223271D02*
X299013838Y-44270890D01*
X299013838Y-44270890D02*
X299061457Y-44318509D01*
X299061457Y-44318509D02*
X299109076Y-44413747D01*
X299109076Y-44413747D02*
X299109076Y-44651842D01*
X299109076Y-44651842D02*
X299061457Y-44747080D01*
X299061457Y-44747080D02*
X299013838Y-44794700D01*
X299013838Y-44794700D02*
X298918600Y-44842319D01*
X298918600Y-44842319D02*
X298632886Y-44842319D01*
X298632886Y-44842319D02*
X298537648Y-44794700D01*
X298537648Y-44794700D02*
X298490029Y-44747080D01*
X300013838Y-43842319D02*
X299537648Y-43842319D01*
X299537648Y-43842319D02*
X299490029Y-44318509D01*
X299490029Y-44318509D02*
X299537648Y-44270890D01*
X299537648Y-44270890D02*
X299632886Y-44223271D01*
X299632886Y-44223271D02*
X299870981Y-44223271D01*
X299870981Y-44223271D02*
X299966219Y-44270890D01*
X299966219Y-44270890D02*
X300013838Y-44318509D01*
X300013838Y-44318509D02*
X300061457Y-44413747D01*
X300061457Y-44413747D02*
X300061457Y-44651842D01*
X300061457Y-44651842D02*
X300013838Y-44747080D01*
X300013838Y-44747080D02*
X299966219Y-44794700D01*
X299966219Y-44794700D02*
X299870981Y-44842319D01*
X299870981Y-44842319D02*
X299632886Y-44842319D01*
X299632886Y-44842319D02*
X299537648Y-44794700D01*
X299537648Y-44794700D02*
X299490029Y-44747080D01*
X65913095Y-40032200D02*
X66055952Y-40079819D01*
X66055952Y-40079819D02*
X66294047Y-40079819D01*
X66294047Y-40079819D02*
X66389285Y-40032200D01*
X66389285Y-40032200D02*
X66436904Y-39984580D01*
X66436904Y-39984580D02*
X66484523Y-39889342D01*
X66484523Y-39889342D02*
X66484523Y-39794104D01*
X66484523Y-39794104D02*
X66436904Y-39698866D01*
X66436904Y-39698866D02*
X66389285Y-39651247D01*
X66389285Y-39651247D02*
X66294047Y-39603628D01*
X66294047Y-39603628D02*
X66103571Y-39556009D01*
X66103571Y-39556009D02*
X66008333Y-39508390D01*
X66008333Y-39508390D02*
X65960714Y-39460771D01*
X65960714Y-39460771D02*
X65913095Y-39365533D01*
X65913095Y-39365533D02*
X65913095Y-39270295D01*
X65913095Y-39270295D02*
X65960714Y-39175057D01*
X65960714Y-39175057D02*
X66008333Y-39127438D01*
X66008333Y-39127438D02*
X66103571Y-39079819D01*
X66103571Y-39079819D02*
X66341666Y-39079819D01*
X66341666Y-39079819D02*
X66484523Y-39127438D01*
X66960714Y-40079819D02*
X67151190Y-40079819D01*
X67151190Y-40079819D02*
X67246428Y-40032200D01*
X67246428Y-40032200D02*
X67294047Y-39984580D01*
X67294047Y-39984580D02*
X67389285Y-39841723D01*
X67389285Y-39841723D02*
X67436904Y-39651247D01*
X67436904Y-39651247D02*
X67436904Y-39270295D01*
X67436904Y-39270295D02*
X67389285Y-39175057D01*
X67389285Y-39175057D02*
X67341666Y-39127438D01*
X67341666Y-39127438D02*
X67246428Y-39079819D01*
X67246428Y-39079819D02*
X67055952Y-39079819D01*
X67055952Y-39079819D02*
X66960714Y-39127438D01*
X66960714Y-39127438D02*
X66913095Y-39175057D01*
X66913095Y-39175057D02*
X66865476Y-39270295D01*
X66865476Y-39270295D02*
X66865476Y-39508390D01*
X66865476Y-39508390D02*
X66913095Y-39603628D01*
X66913095Y-39603628D02*
X66960714Y-39651247D01*
X66960714Y-39651247D02*
X67055952Y-39698866D01*
X67055952Y-39698866D02*
X67246428Y-39698866D01*
X67246428Y-39698866D02*
X67341666Y-39651247D01*
X67341666Y-39651247D02*
X67389285Y-39603628D01*
X67389285Y-39603628D02*
X67436904Y-39508390D01*
X240435267Y-16219700D02*
X240578124Y-16267319D01*
X240578124Y-16267319D02*
X240816219Y-16267319D01*
X240816219Y-16267319D02*
X240911457Y-16219700D01*
X240911457Y-16219700D02*
X240959076Y-16172080D01*
X240959076Y-16172080D02*
X241006695Y-16076842D01*
X241006695Y-16076842D02*
X241006695Y-15981604D01*
X241006695Y-15981604D02*
X240959076Y-15886366D01*
X240959076Y-15886366D02*
X240911457Y-15838747D01*
X240911457Y-15838747D02*
X240816219Y-15791128D01*
X240816219Y-15791128D02*
X240625743Y-15743509D01*
X240625743Y-15743509D02*
X240530505Y-15695890D01*
X240530505Y-15695890D02*
X240482886Y-15648271D01*
X240482886Y-15648271D02*
X240435267Y-15553033D01*
X240435267Y-15553033D02*
X240435267Y-15457795D01*
X240435267Y-15457795D02*
X240482886Y-15362557D01*
X240482886Y-15362557D02*
X240530505Y-15314938D01*
X240530505Y-15314938D02*
X240625743Y-15267319D01*
X240625743Y-15267319D02*
X240863838Y-15267319D01*
X240863838Y-15267319D02*
X241006695Y-15314938D01*
X241387648Y-15362557D02*
X241435267Y-15314938D01*
X241435267Y-15314938D02*
X241530505Y-15267319D01*
X241530505Y-15267319D02*
X241768600Y-15267319D01*
X241768600Y-15267319D02*
X241863838Y-15314938D01*
X241863838Y-15314938D02*
X241911457Y-15362557D01*
X241911457Y-15362557D02*
X241959076Y-15457795D01*
X241959076Y-15457795D02*
X241959076Y-15553033D01*
X241959076Y-15553033D02*
X241911457Y-15695890D01*
X241911457Y-15695890D02*
X241340029Y-16267319D01*
X241340029Y-16267319D02*
X241959076Y-16267319D01*
X242816219Y-15267319D02*
X242625743Y-15267319D01*
X242625743Y-15267319D02*
X242530505Y-15314938D01*
X242530505Y-15314938D02*
X242482886Y-15362557D01*
X242482886Y-15362557D02*
X242387648Y-15505414D01*
X242387648Y-15505414D02*
X242340029Y-15695890D01*
X242340029Y-15695890D02*
X242340029Y-16076842D01*
X242340029Y-16076842D02*
X242387648Y-16172080D01*
X242387648Y-16172080D02*
X242435267Y-16219700D01*
X242435267Y-16219700D02*
X242530505Y-16267319D01*
X242530505Y-16267319D02*
X242720981Y-16267319D01*
X242720981Y-16267319D02*
X242816219Y-16219700D01*
X242816219Y-16219700D02*
X242863838Y-16172080D01*
X242863838Y-16172080D02*
X242911457Y-16076842D01*
X242911457Y-16076842D02*
X242911457Y-15838747D01*
X242911457Y-15838747D02*
X242863838Y-15743509D01*
X242863838Y-15743509D02*
X242816219Y-15695890D01*
X242816219Y-15695890D02*
X242720981Y-15648271D01*
X242720981Y-15648271D02*
X242530505Y-15648271D01*
X242530505Y-15648271D02*
X242435267Y-15695890D01*
X242435267Y-15695890D02*
X242387648Y-15743509D01*
X242387648Y-15743509D02*
X242340029Y-15838747D01*
X15906845Y-26648569D02*
X15906845Y-25648569D01*
X15906845Y-26124759D02*
X16478273Y-26124759D01*
X16478273Y-26648569D02*
X16478273Y-25648569D01*
X17478273Y-26648569D02*
X16906845Y-26648569D01*
X17192559Y-26648569D02*
X17192559Y-25648569D01*
X17192559Y-25648569D02*
X17097321Y-25791426D01*
X17097321Y-25791426D02*
X17002083Y-25886664D01*
X17002083Y-25886664D02*
X16906845Y-25934283D01*
X240435267Y-54319700D02*
X240578124Y-54367319D01*
X240578124Y-54367319D02*
X240816219Y-54367319D01*
X240816219Y-54367319D02*
X240911457Y-54319700D01*
X240911457Y-54319700D02*
X240959076Y-54272080D01*
X240959076Y-54272080D02*
X241006695Y-54176842D01*
X241006695Y-54176842D02*
X241006695Y-54081604D01*
X241006695Y-54081604D02*
X240959076Y-53986366D01*
X240959076Y-53986366D02*
X240911457Y-53938747D01*
X240911457Y-53938747D02*
X240816219Y-53891128D01*
X240816219Y-53891128D02*
X240625743Y-53843509D01*
X240625743Y-53843509D02*
X240530505Y-53795890D01*
X240530505Y-53795890D02*
X240482886Y-53748271D01*
X240482886Y-53748271D02*
X240435267Y-53653033D01*
X240435267Y-53653033D02*
X240435267Y-53557795D01*
X240435267Y-53557795D02*
X240482886Y-53462557D01*
X240482886Y-53462557D02*
X240530505Y-53414938D01*
X240530505Y-53414938D02*
X240625743Y-53367319D01*
X240625743Y-53367319D02*
X240863838Y-53367319D01*
X240863838Y-53367319D02*
X241006695Y-53414938D01*
X241340029Y-53367319D02*
X241959076Y-53367319D01*
X241959076Y-53367319D02*
X241625743Y-53748271D01*
X241625743Y-53748271D02*
X241768600Y-53748271D01*
X241768600Y-53748271D02*
X241863838Y-53795890D01*
X241863838Y-53795890D02*
X241911457Y-53843509D01*
X241911457Y-53843509D02*
X241959076Y-53938747D01*
X241959076Y-53938747D02*
X241959076Y-54176842D01*
X241959076Y-54176842D02*
X241911457Y-54272080D01*
X241911457Y-54272080D02*
X241863838Y-54319700D01*
X241863838Y-54319700D02*
X241768600Y-54367319D01*
X241768600Y-54367319D02*
X241482886Y-54367319D01*
X241482886Y-54367319D02*
X241387648Y-54319700D01*
X241387648Y-54319700D02*
X241340029Y-54272080D01*
X242435267Y-54367319D02*
X242625743Y-54367319D01*
X242625743Y-54367319D02*
X242720981Y-54319700D01*
X242720981Y-54319700D02*
X242768600Y-54272080D01*
X242768600Y-54272080D02*
X242863838Y-54129223D01*
X242863838Y-54129223D02*
X242911457Y-53938747D01*
X242911457Y-53938747D02*
X242911457Y-53557795D01*
X242911457Y-53557795D02*
X242863838Y-53462557D01*
X242863838Y-53462557D02*
X242816219Y-53414938D01*
X242816219Y-53414938D02*
X242720981Y-53367319D01*
X242720981Y-53367319D02*
X242530505Y-53367319D01*
X242530505Y-53367319D02*
X242435267Y-53414938D01*
X242435267Y-53414938D02*
X242387648Y-53462557D01*
X242387648Y-53462557D02*
X242340029Y-53557795D01*
X242340029Y-53557795D02*
X242340029Y-53795890D01*
X242340029Y-53795890D02*
X242387648Y-53891128D01*
X242387648Y-53891128D02*
X242435267Y-53938747D01*
X242435267Y-53938747D02*
X242530505Y-53986366D01*
X242530505Y-53986366D02*
X242720981Y-53986366D01*
X242720981Y-53986366D02*
X242816219Y-53938747D01*
X242816219Y-53938747D02*
X242863838Y-53891128D01*
X242863838Y-53891128D02*
X242911457Y-53795890D01*
X84486905Y-54319700D02*
X84629762Y-54367319D01*
X84629762Y-54367319D02*
X84867857Y-54367319D01*
X84867857Y-54367319D02*
X84963095Y-54319700D01*
X84963095Y-54319700D02*
X85010714Y-54272080D01*
X85010714Y-54272080D02*
X85058333Y-54176842D01*
X85058333Y-54176842D02*
X85058333Y-54081604D01*
X85058333Y-54081604D02*
X85010714Y-53986366D01*
X85010714Y-53986366D02*
X84963095Y-53938747D01*
X84963095Y-53938747D02*
X84867857Y-53891128D01*
X84867857Y-53891128D02*
X84677381Y-53843509D01*
X84677381Y-53843509D02*
X84582143Y-53795890D01*
X84582143Y-53795890D02*
X84534524Y-53748271D01*
X84534524Y-53748271D02*
X84486905Y-53653033D01*
X84486905Y-53653033D02*
X84486905Y-53557795D01*
X84486905Y-53557795D02*
X84534524Y-53462557D01*
X84534524Y-53462557D02*
X84582143Y-53414938D01*
X84582143Y-53414938D02*
X84677381Y-53367319D01*
X84677381Y-53367319D02*
X84915476Y-53367319D01*
X84915476Y-53367319D02*
X85058333Y-53414938D01*
X86010714Y-54367319D02*
X85439286Y-54367319D01*
X85725000Y-54367319D02*
X85725000Y-53367319D01*
X85725000Y-53367319D02*
X85629762Y-53510176D01*
X85629762Y-53510176D02*
X85534524Y-53605414D01*
X85534524Y-53605414D02*
X85439286Y-53653033D01*
X86867857Y-53367319D02*
X86677381Y-53367319D01*
X86677381Y-53367319D02*
X86582143Y-53414938D01*
X86582143Y-53414938D02*
X86534524Y-53462557D01*
X86534524Y-53462557D02*
X86439286Y-53605414D01*
X86439286Y-53605414D02*
X86391667Y-53795890D01*
X86391667Y-53795890D02*
X86391667Y-54176842D01*
X86391667Y-54176842D02*
X86439286Y-54272080D01*
X86439286Y-54272080D02*
X86486905Y-54319700D01*
X86486905Y-54319700D02*
X86582143Y-54367319D01*
X86582143Y-54367319D02*
X86772619Y-54367319D01*
X86772619Y-54367319D02*
X86867857Y-54319700D01*
X86867857Y-54319700D02*
X86915476Y-54272080D01*
X86915476Y-54272080D02*
X86963095Y-54176842D01*
X86963095Y-54176842D02*
X86963095Y-53938747D01*
X86963095Y-53938747D02*
X86915476Y-53843509D01*
X86915476Y-53843509D02*
X86867857Y-53795890D01*
X86867857Y-53795890D02*
X86772619Y-53748271D01*
X86772619Y-53748271D02*
X86582143Y-53748271D01*
X86582143Y-53748271D02*
X86486905Y-53795890D01*
X86486905Y-53795890D02*
X86439286Y-53843509D01*
X86439286Y-53843509D02*
X86391667Y-53938747D01*
X188047767Y-82894700D02*
X188190624Y-82942319D01*
X188190624Y-82942319D02*
X188428719Y-82942319D01*
X188428719Y-82942319D02*
X188523957Y-82894700D01*
X188523957Y-82894700D02*
X188571576Y-82847080D01*
X188571576Y-82847080D02*
X188619195Y-82751842D01*
X188619195Y-82751842D02*
X188619195Y-82656604D01*
X188619195Y-82656604D02*
X188571576Y-82561366D01*
X188571576Y-82561366D02*
X188523957Y-82513747D01*
X188523957Y-82513747D02*
X188428719Y-82466128D01*
X188428719Y-82466128D02*
X188238243Y-82418509D01*
X188238243Y-82418509D02*
X188143005Y-82370890D01*
X188143005Y-82370890D02*
X188095386Y-82323271D01*
X188095386Y-82323271D02*
X188047767Y-82228033D01*
X188047767Y-82228033D02*
X188047767Y-82132795D01*
X188047767Y-82132795D02*
X188095386Y-82037557D01*
X188095386Y-82037557D02*
X188143005Y-81989938D01*
X188143005Y-81989938D02*
X188238243Y-81942319D01*
X188238243Y-81942319D02*
X188476338Y-81942319D01*
X188476338Y-81942319D02*
X188619195Y-81989938D01*
X189476338Y-82275652D02*
X189476338Y-82942319D01*
X189238243Y-81894700D02*
X189000148Y-82608985D01*
X189000148Y-82608985D02*
X189619195Y-82608985D01*
X189904910Y-81942319D02*
X190523957Y-81942319D01*
X190523957Y-81942319D02*
X190190624Y-82323271D01*
X190190624Y-82323271D02*
X190333481Y-82323271D01*
X190333481Y-82323271D02*
X190428719Y-82370890D01*
X190428719Y-82370890D02*
X190476338Y-82418509D01*
X190476338Y-82418509D02*
X190523957Y-82513747D01*
X190523957Y-82513747D02*
X190523957Y-82751842D01*
X190523957Y-82751842D02*
X190476338Y-82847080D01*
X190476338Y-82847080D02*
X190428719Y-82894700D01*
X190428719Y-82894700D02*
X190333481Y-82942319D01*
X190333481Y-82942319D02*
X190047767Y-82942319D01*
X190047767Y-82942319D02*
X189952529Y-82894700D01*
X189952529Y-82894700D02*
X189904910Y-82847080D01*
X27336905Y-63844700D02*
X27479762Y-63892319D01*
X27479762Y-63892319D02*
X27717857Y-63892319D01*
X27717857Y-63892319D02*
X27813095Y-63844700D01*
X27813095Y-63844700D02*
X27860714Y-63797080D01*
X27860714Y-63797080D02*
X27908333Y-63701842D01*
X27908333Y-63701842D02*
X27908333Y-63606604D01*
X27908333Y-63606604D02*
X27860714Y-63511366D01*
X27860714Y-63511366D02*
X27813095Y-63463747D01*
X27813095Y-63463747D02*
X27717857Y-63416128D01*
X27717857Y-63416128D02*
X27527381Y-63368509D01*
X27527381Y-63368509D02*
X27432143Y-63320890D01*
X27432143Y-63320890D02*
X27384524Y-63273271D01*
X27384524Y-63273271D02*
X27336905Y-63178033D01*
X27336905Y-63178033D02*
X27336905Y-63082795D01*
X27336905Y-63082795D02*
X27384524Y-62987557D01*
X27384524Y-62987557D02*
X27432143Y-62939938D01*
X27432143Y-62939938D02*
X27527381Y-62892319D01*
X27527381Y-62892319D02*
X27765476Y-62892319D01*
X27765476Y-62892319D02*
X27908333Y-62939938D01*
X28860714Y-63892319D02*
X28289286Y-63892319D01*
X28575000Y-63892319D02*
X28575000Y-62892319D01*
X28575000Y-62892319D02*
X28479762Y-63035176D01*
X28479762Y-63035176D02*
X28384524Y-63130414D01*
X28384524Y-63130414D02*
X28289286Y-63178033D01*
X29194048Y-62892319D02*
X29813095Y-62892319D01*
X29813095Y-62892319D02*
X29479762Y-63273271D01*
X29479762Y-63273271D02*
X29622619Y-63273271D01*
X29622619Y-63273271D02*
X29717857Y-63320890D01*
X29717857Y-63320890D02*
X29765476Y-63368509D01*
X29765476Y-63368509D02*
X29813095Y-63463747D01*
X29813095Y-63463747D02*
X29813095Y-63701842D01*
X29813095Y-63701842D02*
X29765476Y-63797080D01*
X29765476Y-63797080D02*
X29717857Y-63844700D01*
X29717857Y-63844700D02*
X29622619Y-63892319D01*
X29622619Y-63892319D02*
X29336905Y-63892319D01*
X29336905Y-63892319D02*
X29241667Y-63844700D01*
X29241667Y-63844700D02*
X29194048Y-63797080D01*
X84486905Y-35269700D02*
X84629762Y-35317319D01*
X84629762Y-35317319D02*
X84867857Y-35317319D01*
X84867857Y-35317319D02*
X84963095Y-35269700D01*
X84963095Y-35269700D02*
X85010714Y-35222080D01*
X85010714Y-35222080D02*
X85058333Y-35126842D01*
X85058333Y-35126842D02*
X85058333Y-35031604D01*
X85058333Y-35031604D02*
X85010714Y-34936366D01*
X85010714Y-34936366D02*
X84963095Y-34888747D01*
X84963095Y-34888747D02*
X84867857Y-34841128D01*
X84867857Y-34841128D02*
X84677381Y-34793509D01*
X84677381Y-34793509D02*
X84582143Y-34745890D01*
X84582143Y-34745890D02*
X84534524Y-34698271D01*
X84534524Y-34698271D02*
X84486905Y-34603033D01*
X84486905Y-34603033D02*
X84486905Y-34507795D01*
X84486905Y-34507795D02*
X84534524Y-34412557D01*
X84534524Y-34412557D02*
X84582143Y-34364938D01*
X84582143Y-34364938D02*
X84677381Y-34317319D01*
X84677381Y-34317319D02*
X84915476Y-34317319D01*
X84915476Y-34317319D02*
X85058333Y-34364938D01*
X86010714Y-35317319D02*
X85439286Y-35317319D01*
X85725000Y-35317319D02*
X85725000Y-34317319D01*
X85725000Y-34317319D02*
X85629762Y-34460176D01*
X85629762Y-34460176D02*
X85534524Y-34555414D01*
X85534524Y-34555414D02*
X85439286Y-34603033D01*
X86629762Y-34317319D02*
X86725000Y-34317319D01*
X86725000Y-34317319D02*
X86820238Y-34364938D01*
X86820238Y-34364938D02*
X86867857Y-34412557D01*
X86867857Y-34412557D02*
X86915476Y-34507795D01*
X86915476Y-34507795D02*
X86963095Y-34698271D01*
X86963095Y-34698271D02*
X86963095Y-34936366D01*
X86963095Y-34936366D02*
X86915476Y-35126842D01*
X86915476Y-35126842D02*
X86867857Y-35222080D01*
X86867857Y-35222080D02*
X86820238Y-35269700D01*
X86820238Y-35269700D02*
X86725000Y-35317319D01*
X86725000Y-35317319D02*
X86629762Y-35317319D01*
X86629762Y-35317319D02*
X86534524Y-35269700D01*
X86534524Y-35269700D02*
X86486905Y-35222080D01*
X86486905Y-35222080D02*
X86439286Y-35126842D01*
X86439286Y-35126842D02*
X86391667Y-34936366D01*
X86391667Y-34936366D02*
X86391667Y-34698271D01*
X86391667Y-34698271D02*
X86439286Y-34507795D01*
X86439286Y-34507795D02*
X86486905Y-34412557D01*
X86486905Y-34412557D02*
X86534524Y-34364938D01*
X86534524Y-34364938D02*
X86629762Y-34317319D01*
X46863095Y-25744700D02*
X47005952Y-25792319D01*
X47005952Y-25792319D02*
X47244047Y-25792319D01*
X47244047Y-25792319D02*
X47339285Y-25744700D01*
X47339285Y-25744700D02*
X47386904Y-25697080D01*
X47386904Y-25697080D02*
X47434523Y-25601842D01*
X47434523Y-25601842D02*
X47434523Y-25506604D01*
X47434523Y-25506604D02*
X47386904Y-25411366D01*
X47386904Y-25411366D02*
X47339285Y-25363747D01*
X47339285Y-25363747D02*
X47244047Y-25316128D01*
X47244047Y-25316128D02*
X47053571Y-25268509D01*
X47053571Y-25268509D02*
X46958333Y-25220890D01*
X46958333Y-25220890D02*
X46910714Y-25173271D01*
X46910714Y-25173271D02*
X46863095Y-25078033D01*
X46863095Y-25078033D02*
X46863095Y-24982795D01*
X46863095Y-24982795D02*
X46910714Y-24887557D01*
X46910714Y-24887557D02*
X46958333Y-24839938D01*
X46958333Y-24839938D02*
X47053571Y-24792319D01*
X47053571Y-24792319D02*
X47291666Y-24792319D01*
X47291666Y-24792319D02*
X47434523Y-24839938D01*
X47815476Y-24887557D02*
X47863095Y-24839938D01*
X47863095Y-24839938D02*
X47958333Y-24792319D01*
X47958333Y-24792319D02*
X48196428Y-24792319D01*
X48196428Y-24792319D02*
X48291666Y-24839938D01*
X48291666Y-24839938D02*
X48339285Y-24887557D01*
X48339285Y-24887557D02*
X48386904Y-24982795D01*
X48386904Y-24982795D02*
X48386904Y-25078033D01*
X48386904Y-25078033D02*
X48339285Y-25220890D01*
X48339285Y-25220890D02*
X47767857Y-25792319D01*
X47767857Y-25792319D02*
X48386904Y-25792319D01*
X179736905Y-81417319D02*
X179736905Y-80417319D01*
X179736905Y-80893509D02*
X180308333Y-80893509D01*
X180308333Y-81417319D02*
X180308333Y-80417319D01*
X181308333Y-81417319D02*
X180736905Y-81417319D01*
X181022619Y-81417319D02*
X181022619Y-80417319D01*
X181022619Y-80417319D02*
X180927381Y-80560176D01*
X180927381Y-80560176D02*
X180832143Y-80655414D01*
X180832143Y-80655414D02*
X180736905Y-80703033D01*
X181927381Y-80417319D02*
X182022619Y-80417319D01*
X182022619Y-80417319D02*
X182117857Y-80464938D01*
X182117857Y-80464938D02*
X182165476Y-80512557D01*
X182165476Y-80512557D02*
X182213095Y-80607795D01*
X182213095Y-80607795D02*
X182260714Y-80798271D01*
X182260714Y-80798271D02*
X182260714Y-81036366D01*
X182260714Y-81036366D02*
X182213095Y-81226842D01*
X182213095Y-81226842D02*
X182165476Y-81322080D01*
X182165476Y-81322080D02*
X182117857Y-81369700D01*
X182117857Y-81369700D02*
X182022619Y-81417319D01*
X182022619Y-81417319D02*
X181927381Y-81417319D01*
X181927381Y-81417319D02*
X181832143Y-81369700D01*
X181832143Y-81369700D02*
X181784524Y-81322080D01*
X181784524Y-81322080D02*
X181736905Y-81226842D01*
X181736905Y-81226842D02*
X181689286Y-81036366D01*
X181689286Y-81036366D02*
X181689286Y-80798271D01*
X181689286Y-80798271D02*
X181736905Y-80607795D01*
X181736905Y-80607795D02*
X181784524Y-80512557D01*
X181784524Y-80512557D02*
X181832143Y-80464938D01*
X181832143Y-80464938D02*
X181927381Y-80417319D01*
X103536905Y-59082200D02*
X103679762Y-59129819D01*
X103679762Y-59129819D02*
X103917857Y-59129819D01*
X103917857Y-59129819D02*
X104013095Y-59082200D01*
X104013095Y-59082200D02*
X104060714Y-59034580D01*
X104060714Y-59034580D02*
X104108333Y-58939342D01*
X104108333Y-58939342D02*
X104108333Y-58844104D01*
X104108333Y-58844104D02*
X104060714Y-58748866D01*
X104060714Y-58748866D02*
X104013095Y-58701247D01*
X104013095Y-58701247D02*
X103917857Y-58653628D01*
X103917857Y-58653628D02*
X103727381Y-58606009D01*
X103727381Y-58606009D02*
X103632143Y-58558390D01*
X103632143Y-58558390D02*
X103584524Y-58510771D01*
X103584524Y-58510771D02*
X103536905Y-58415533D01*
X103536905Y-58415533D02*
X103536905Y-58320295D01*
X103536905Y-58320295D02*
X103584524Y-58225057D01*
X103584524Y-58225057D02*
X103632143Y-58177438D01*
X103632143Y-58177438D02*
X103727381Y-58129819D01*
X103727381Y-58129819D02*
X103965476Y-58129819D01*
X103965476Y-58129819D02*
X104108333Y-58177438D01*
X105060714Y-59129819D02*
X104489286Y-59129819D01*
X104775000Y-59129819D02*
X104775000Y-58129819D01*
X104775000Y-58129819D02*
X104679762Y-58272676D01*
X104679762Y-58272676D02*
X104584524Y-58367914D01*
X104584524Y-58367914D02*
X104489286Y-58415533D01*
X105394048Y-58129819D02*
X106060714Y-58129819D01*
X106060714Y-58129819D02*
X105632143Y-59129819D01*
X98059970Y-98086069D02*
X98059970Y-97086069D01*
X98059970Y-97562259D02*
X98631398Y-97562259D01*
X98631398Y-98086069D02*
X98631398Y-97086069D01*
X99536160Y-97419402D02*
X99536160Y-98086069D01*
X99298065Y-97038450D02*
X99059970Y-97752735D01*
X99059970Y-97752735D02*
X99679017Y-97752735D01*
X303561905Y-83798569D02*
X303561905Y-82798569D01*
X303561905Y-83274759D02*
X304133333Y-83274759D01*
X304133333Y-83798569D02*
X304133333Y-82798569D01*
X305133333Y-83798569D02*
X304561905Y-83798569D01*
X304847619Y-83798569D02*
X304847619Y-82798569D01*
X304847619Y-82798569D02*
X304752381Y-82941426D01*
X304752381Y-82941426D02*
X304657143Y-83036664D01*
X304657143Y-83036664D02*
X304561905Y-83084283D01*
X305466667Y-82798569D02*
X306085714Y-82798569D01*
X306085714Y-82798569D02*
X305752381Y-83179521D01*
X305752381Y-83179521D02*
X305895238Y-83179521D01*
X305895238Y-83179521D02*
X305990476Y-83227140D01*
X305990476Y-83227140D02*
X306038095Y-83274759D01*
X306038095Y-83274759D02*
X306085714Y-83369997D01*
X306085714Y-83369997D02*
X306085714Y-83608092D01*
X306085714Y-83608092D02*
X306038095Y-83703330D01*
X306038095Y-83703330D02*
X305990476Y-83750950D01*
X305990476Y-83750950D02*
X305895238Y-83798569D01*
X305895238Y-83798569D02*
X305609524Y-83798569D01*
X305609524Y-83798569D02*
X305514286Y-83750950D01*
X305514286Y-83750950D02*
X305466667Y-83703330D01*
X74961905Y-78132200D02*
X75104762Y-78179819D01*
X75104762Y-78179819D02*
X75342857Y-78179819D01*
X75342857Y-78179819D02*
X75438095Y-78132200D01*
X75438095Y-78132200D02*
X75485714Y-78084580D01*
X75485714Y-78084580D02*
X75533333Y-77989342D01*
X75533333Y-77989342D02*
X75533333Y-77894104D01*
X75533333Y-77894104D02*
X75485714Y-77798866D01*
X75485714Y-77798866D02*
X75438095Y-77751247D01*
X75438095Y-77751247D02*
X75342857Y-77703628D01*
X75342857Y-77703628D02*
X75152381Y-77656009D01*
X75152381Y-77656009D02*
X75057143Y-77608390D01*
X75057143Y-77608390D02*
X75009524Y-77560771D01*
X75009524Y-77560771D02*
X74961905Y-77465533D01*
X74961905Y-77465533D02*
X74961905Y-77370295D01*
X74961905Y-77370295D02*
X75009524Y-77275057D01*
X75009524Y-77275057D02*
X75057143Y-77227438D01*
X75057143Y-77227438D02*
X75152381Y-77179819D01*
X75152381Y-77179819D02*
X75390476Y-77179819D01*
X75390476Y-77179819D02*
X75533333Y-77227438D01*
X75914286Y-77275057D02*
X75961905Y-77227438D01*
X75961905Y-77227438D02*
X76057143Y-77179819D01*
X76057143Y-77179819D02*
X76295238Y-77179819D01*
X76295238Y-77179819D02*
X76390476Y-77227438D01*
X76390476Y-77227438D02*
X76438095Y-77275057D01*
X76438095Y-77275057D02*
X76485714Y-77370295D01*
X76485714Y-77370295D02*
X76485714Y-77465533D01*
X76485714Y-77465533D02*
X76438095Y-77608390D01*
X76438095Y-77608390D02*
X75866667Y-78179819D01*
X75866667Y-78179819D02*
X76485714Y-78179819D01*
X77104762Y-77179819D02*
X77200000Y-77179819D01*
X77200000Y-77179819D02*
X77295238Y-77227438D01*
X77295238Y-77227438D02*
X77342857Y-77275057D01*
X77342857Y-77275057D02*
X77390476Y-77370295D01*
X77390476Y-77370295D02*
X77438095Y-77560771D01*
X77438095Y-77560771D02*
X77438095Y-77798866D01*
X77438095Y-77798866D02*
X77390476Y-77989342D01*
X77390476Y-77989342D02*
X77342857Y-78084580D01*
X77342857Y-78084580D02*
X77295238Y-78132200D01*
X77295238Y-78132200D02*
X77200000Y-78179819D01*
X77200000Y-78179819D02*
X77104762Y-78179819D01*
X77104762Y-78179819D02*
X77009524Y-78132200D01*
X77009524Y-78132200D02*
X76961905Y-78084580D01*
X76961905Y-78084580D02*
X76914286Y-77989342D01*
X76914286Y-77989342D02*
X76866667Y-77798866D01*
X76866667Y-77798866D02*
X76866667Y-77560771D01*
X76866667Y-77560771D02*
X76914286Y-77370295D01*
X76914286Y-77370295D02*
X76961905Y-77275057D01*
X76961905Y-77275057D02*
X77009524Y-77227438D01*
X77009524Y-77227438D02*
X77104762Y-77179819D01*
X94011905Y-78132200D02*
X94154762Y-78179819D01*
X94154762Y-78179819D02*
X94392857Y-78179819D01*
X94392857Y-78179819D02*
X94488095Y-78132200D01*
X94488095Y-78132200D02*
X94535714Y-78084580D01*
X94535714Y-78084580D02*
X94583333Y-77989342D01*
X94583333Y-77989342D02*
X94583333Y-77894104D01*
X94583333Y-77894104D02*
X94535714Y-77798866D01*
X94535714Y-77798866D02*
X94488095Y-77751247D01*
X94488095Y-77751247D02*
X94392857Y-77703628D01*
X94392857Y-77703628D02*
X94202381Y-77656009D01*
X94202381Y-77656009D02*
X94107143Y-77608390D01*
X94107143Y-77608390D02*
X94059524Y-77560771D01*
X94059524Y-77560771D02*
X94011905Y-77465533D01*
X94011905Y-77465533D02*
X94011905Y-77370295D01*
X94011905Y-77370295D02*
X94059524Y-77275057D01*
X94059524Y-77275057D02*
X94107143Y-77227438D01*
X94107143Y-77227438D02*
X94202381Y-77179819D01*
X94202381Y-77179819D02*
X94440476Y-77179819D01*
X94440476Y-77179819D02*
X94583333Y-77227438D01*
X94964286Y-77275057D02*
X95011905Y-77227438D01*
X95011905Y-77227438D02*
X95107143Y-77179819D01*
X95107143Y-77179819D02*
X95345238Y-77179819D01*
X95345238Y-77179819D02*
X95440476Y-77227438D01*
X95440476Y-77227438D02*
X95488095Y-77275057D01*
X95488095Y-77275057D02*
X95535714Y-77370295D01*
X95535714Y-77370295D02*
X95535714Y-77465533D01*
X95535714Y-77465533D02*
X95488095Y-77608390D01*
X95488095Y-77608390D02*
X94916667Y-78179819D01*
X94916667Y-78179819D02*
X95535714Y-78179819D01*
X96488095Y-78179819D02*
X95916667Y-78179819D01*
X96202381Y-78179819D02*
X96202381Y-77179819D01*
X96202381Y-77179819D02*
X96107143Y-77322676D01*
X96107143Y-77322676D02*
X96011905Y-77417914D01*
X96011905Y-77417914D02*
X95916667Y-77465533D01*
X309991220Y-26648569D02*
X309991220Y-25648569D01*
X309991220Y-26124759D02*
X310562648Y-26124759D01*
X310562648Y-26648569D02*
X310562648Y-25648569D01*
X311181696Y-26077140D02*
X311086458Y-26029521D01*
X311086458Y-26029521D02*
X311038839Y-25981902D01*
X311038839Y-25981902D02*
X310991220Y-25886664D01*
X310991220Y-25886664D02*
X310991220Y-25839045D01*
X310991220Y-25839045D02*
X311038839Y-25743807D01*
X311038839Y-25743807D02*
X311086458Y-25696188D01*
X311086458Y-25696188D02*
X311181696Y-25648569D01*
X311181696Y-25648569D02*
X311372172Y-25648569D01*
X311372172Y-25648569D02*
X311467410Y-25696188D01*
X311467410Y-25696188D02*
X311515029Y-25743807D01*
X311515029Y-25743807D02*
X311562648Y-25839045D01*
X311562648Y-25839045D02*
X311562648Y-25886664D01*
X311562648Y-25886664D02*
X311515029Y-25981902D01*
X311515029Y-25981902D02*
X311467410Y-26029521D01*
X311467410Y-26029521D02*
X311372172Y-26077140D01*
X311372172Y-26077140D02*
X311181696Y-26077140D01*
X311181696Y-26077140D02*
X311086458Y-26124759D01*
X311086458Y-26124759D02*
X311038839Y-26172378D01*
X311038839Y-26172378D02*
X310991220Y-26267616D01*
X310991220Y-26267616D02*
X310991220Y-26458092D01*
X310991220Y-26458092D02*
X311038839Y-26553330D01*
X311038839Y-26553330D02*
X311086458Y-26600950D01*
X311086458Y-26600950D02*
X311181696Y-26648569D01*
X311181696Y-26648569D02*
X311372172Y-26648569D01*
X311372172Y-26648569D02*
X311467410Y-26600950D01*
X311467410Y-26600950D02*
X311515029Y-26553330D01*
X311515029Y-26553330D02*
X311562648Y-26458092D01*
X311562648Y-26458092D02*
X311562648Y-26267616D01*
X311562648Y-26267616D02*
X311515029Y-26172378D01*
X311515029Y-26172378D02*
X311467410Y-26124759D01*
X311467410Y-26124759D02*
X311372172Y-26077140D01*
X278535267Y-44794700D02*
X278678124Y-44842319D01*
X278678124Y-44842319D02*
X278916219Y-44842319D01*
X278916219Y-44842319D02*
X279011457Y-44794700D01*
X279011457Y-44794700D02*
X279059076Y-44747080D01*
X279059076Y-44747080D02*
X279106695Y-44651842D01*
X279106695Y-44651842D02*
X279106695Y-44556604D01*
X279106695Y-44556604D02*
X279059076Y-44461366D01*
X279059076Y-44461366D02*
X279011457Y-44413747D01*
X279011457Y-44413747D02*
X278916219Y-44366128D01*
X278916219Y-44366128D02*
X278725743Y-44318509D01*
X278725743Y-44318509D02*
X278630505Y-44270890D01*
X278630505Y-44270890D02*
X278582886Y-44223271D01*
X278582886Y-44223271D02*
X278535267Y-44128033D01*
X278535267Y-44128033D02*
X278535267Y-44032795D01*
X278535267Y-44032795D02*
X278582886Y-43937557D01*
X278582886Y-43937557D02*
X278630505Y-43889938D01*
X278630505Y-43889938D02*
X278725743Y-43842319D01*
X278725743Y-43842319D02*
X278963838Y-43842319D01*
X278963838Y-43842319D02*
X279106695Y-43889938D01*
X279440029Y-43842319D02*
X280059076Y-43842319D01*
X280059076Y-43842319D02*
X279725743Y-44223271D01*
X279725743Y-44223271D02*
X279868600Y-44223271D01*
X279868600Y-44223271D02*
X279963838Y-44270890D01*
X279963838Y-44270890D02*
X280011457Y-44318509D01*
X280011457Y-44318509D02*
X280059076Y-44413747D01*
X280059076Y-44413747D02*
X280059076Y-44651842D01*
X280059076Y-44651842D02*
X280011457Y-44747080D01*
X280011457Y-44747080D02*
X279963838Y-44794700D01*
X279963838Y-44794700D02*
X279868600Y-44842319D01*
X279868600Y-44842319D02*
X279582886Y-44842319D01*
X279582886Y-44842319D02*
X279487648Y-44794700D01*
X279487648Y-44794700D02*
X279440029Y-44747080D01*
X280916219Y-44175652D02*
X280916219Y-44842319D01*
X280678124Y-43794700D02*
X280440029Y-44508985D01*
X280440029Y-44508985D02*
X281059076Y-44508985D01*
X136159970Y-23076694D02*
X136159970Y-22076694D01*
X136159970Y-22552884D02*
X136731398Y-22552884D01*
X136731398Y-23076694D02*
X136731398Y-22076694D01*
X137112351Y-22076694D02*
X137779017Y-22076694D01*
X137779017Y-22076694D02*
X137350446Y-23076694D01*
X202335267Y-44794700D02*
X202478124Y-44842319D01*
X202478124Y-44842319D02*
X202716219Y-44842319D01*
X202716219Y-44842319D02*
X202811457Y-44794700D01*
X202811457Y-44794700D02*
X202859076Y-44747080D01*
X202859076Y-44747080D02*
X202906695Y-44651842D01*
X202906695Y-44651842D02*
X202906695Y-44556604D01*
X202906695Y-44556604D02*
X202859076Y-44461366D01*
X202859076Y-44461366D02*
X202811457Y-44413747D01*
X202811457Y-44413747D02*
X202716219Y-44366128D01*
X202716219Y-44366128D02*
X202525743Y-44318509D01*
X202525743Y-44318509D02*
X202430505Y-44270890D01*
X202430505Y-44270890D02*
X202382886Y-44223271D01*
X202382886Y-44223271D02*
X202335267Y-44128033D01*
X202335267Y-44128033D02*
X202335267Y-44032795D01*
X202335267Y-44032795D02*
X202382886Y-43937557D01*
X202382886Y-43937557D02*
X202430505Y-43889938D01*
X202430505Y-43889938D02*
X202525743Y-43842319D01*
X202525743Y-43842319D02*
X202763838Y-43842319D01*
X202763838Y-43842319D02*
X202906695Y-43889938D01*
X203240029Y-43842319D02*
X203859076Y-43842319D01*
X203859076Y-43842319D02*
X203525743Y-44223271D01*
X203525743Y-44223271D02*
X203668600Y-44223271D01*
X203668600Y-44223271D02*
X203763838Y-44270890D01*
X203763838Y-44270890D02*
X203811457Y-44318509D01*
X203811457Y-44318509D02*
X203859076Y-44413747D01*
X203859076Y-44413747D02*
X203859076Y-44651842D01*
X203859076Y-44651842D02*
X203811457Y-44747080D01*
X203811457Y-44747080D02*
X203763838Y-44794700D01*
X203763838Y-44794700D02*
X203668600Y-44842319D01*
X203668600Y-44842319D02*
X203382886Y-44842319D01*
X203382886Y-44842319D02*
X203287648Y-44794700D01*
X203287648Y-44794700D02*
X203240029Y-44747080D01*
X204478124Y-43842319D02*
X204573362Y-43842319D01*
X204573362Y-43842319D02*
X204668600Y-43889938D01*
X204668600Y-43889938D02*
X204716219Y-43937557D01*
X204716219Y-43937557D02*
X204763838Y-44032795D01*
X204763838Y-44032795D02*
X204811457Y-44223271D01*
X204811457Y-44223271D02*
X204811457Y-44461366D01*
X204811457Y-44461366D02*
X204763838Y-44651842D01*
X204763838Y-44651842D02*
X204716219Y-44747080D01*
X204716219Y-44747080D02*
X204668600Y-44794700D01*
X204668600Y-44794700D02*
X204573362Y-44842319D01*
X204573362Y-44842319D02*
X204478124Y-44842319D01*
X204478124Y-44842319D02*
X204382886Y-44794700D01*
X204382886Y-44794700D02*
X204335267Y-44747080D01*
X204335267Y-44747080D02*
X204287648Y-44651842D01*
X204287648Y-44651842D02*
X204240029Y-44461366D01*
X204240029Y-44461366D02*
X204240029Y-44223271D01*
X204240029Y-44223271D02*
X204287648Y-44032795D01*
X204287648Y-44032795D02*
X204335267Y-43937557D01*
X204335267Y-43937557D02*
X204382886Y-43889938D01*
X204382886Y-43889938D02*
X204478124Y-43842319D01*
X278535267Y-25744700D02*
X278678124Y-25792319D01*
X278678124Y-25792319D02*
X278916219Y-25792319D01*
X278916219Y-25792319D02*
X279011457Y-25744700D01*
X279011457Y-25744700D02*
X279059076Y-25697080D01*
X279059076Y-25697080D02*
X279106695Y-25601842D01*
X279106695Y-25601842D02*
X279106695Y-25506604D01*
X279106695Y-25506604D02*
X279059076Y-25411366D01*
X279059076Y-25411366D02*
X279011457Y-25363747D01*
X279011457Y-25363747D02*
X278916219Y-25316128D01*
X278916219Y-25316128D02*
X278725743Y-25268509D01*
X278725743Y-25268509D02*
X278630505Y-25220890D01*
X278630505Y-25220890D02*
X278582886Y-25173271D01*
X278582886Y-25173271D02*
X278535267Y-25078033D01*
X278535267Y-25078033D02*
X278535267Y-24982795D01*
X278535267Y-24982795D02*
X278582886Y-24887557D01*
X278582886Y-24887557D02*
X278630505Y-24839938D01*
X278630505Y-24839938D02*
X278725743Y-24792319D01*
X278725743Y-24792319D02*
X278963838Y-24792319D01*
X278963838Y-24792319D02*
X279106695Y-24839938D01*
X279487648Y-24887557D02*
X279535267Y-24839938D01*
X279535267Y-24839938D02*
X279630505Y-24792319D01*
X279630505Y-24792319D02*
X279868600Y-24792319D01*
X279868600Y-24792319D02*
X279963838Y-24839938D01*
X279963838Y-24839938D02*
X280011457Y-24887557D01*
X280011457Y-24887557D02*
X280059076Y-24982795D01*
X280059076Y-24982795D02*
X280059076Y-25078033D01*
X280059076Y-25078033D02*
X280011457Y-25220890D01*
X280011457Y-25220890D02*
X279440029Y-25792319D01*
X279440029Y-25792319D02*
X280059076Y-25792319D01*
X280630505Y-25220890D02*
X280535267Y-25173271D01*
X280535267Y-25173271D02*
X280487648Y-25125652D01*
X280487648Y-25125652D02*
X280440029Y-25030414D01*
X280440029Y-25030414D02*
X280440029Y-24982795D01*
X280440029Y-24982795D02*
X280487648Y-24887557D01*
X280487648Y-24887557D02*
X280535267Y-24839938D01*
X280535267Y-24839938D02*
X280630505Y-24792319D01*
X280630505Y-24792319D02*
X280820981Y-24792319D01*
X280820981Y-24792319D02*
X280916219Y-24839938D01*
X280916219Y-24839938D02*
X280963838Y-24887557D01*
X280963838Y-24887557D02*
X281011457Y-24982795D01*
X281011457Y-24982795D02*
X281011457Y-25030414D01*
X281011457Y-25030414D02*
X280963838Y-25125652D01*
X280963838Y-25125652D02*
X280916219Y-25173271D01*
X280916219Y-25173271D02*
X280820981Y-25220890D01*
X280820981Y-25220890D02*
X280630505Y-25220890D01*
X280630505Y-25220890D02*
X280535267Y-25268509D01*
X280535267Y-25268509D02*
X280487648Y-25316128D01*
X280487648Y-25316128D02*
X280440029Y-25411366D01*
X280440029Y-25411366D02*
X280440029Y-25601842D01*
X280440029Y-25601842D02*
X280487648Y-25697080D01*
X280487648Y-25697080D02*
X280535267Y-25744700D01*
X280535267Y-25744700D02*
X280630505Y-25792319D01*
X280630505Y-25792319D02*
X280820981Y-25792319D01*
X280820981Y-25792319D02*
X280916219Y-25744700D01*
X280916219Y-25744700D02*
X280963838Y-25697080D01*
X280963838Y-25697080D02*
X281011457Y-25601842D01*
X281011457Y-25601842D02*
X281011457Y-25411366D01*
X281011457Y-25411366D02*
X280963838Y-25316128D01*
X280963838Y-25316128D02*
X280916219Y-25268509D01*
X280916219Y-25268509D02*
X280820981Y-25220890D01*
X123063095Y-25744700D02*
X123205952Y-25792319D01*
X123205952Y-25792319D02*
X123444047Y-25792319D01*
X123444047Y-25792319D02*
X123539285Y-25744700D01*
X123539285Y-25744700D02*
X123586904Y-25697080D01*
X123586904Y-25697080D02*
X123634523Y-25601842D01*
X123634523Y-25601842D02*
X123634523Y-25506604D01*
X123634523Y-25506604D02*
X123586904Y-25411366D01*
X123586904Y-25411366D02*
X123539285Y-25363747D01*
X123539285Y-25363747D02*
X123444047Y-25316128D01*
X123444047Y-25316128D02*
X123253571Y-25268509D01*
X123253571Y-25268509D02*
X123158333Y-25220890D01*
X123158333Y-25220890D02*
X123110714Y-25173271D01*
X123110714Y-25173271D02*
X123063095Y-25078033D01*
X123063095Y-25078033D02*
X123063095Y-24982795D01*
X123063095Y-24982795D02*
X123110714Y-24887557D01*
X123110714Y-24887557D02*
X123158333Y-24839938D01*
X123158333Y-24839938D02*
X123253571Y-24792319D01*
X123253571Y-24792319D02*
X123491666Y-24792319D01*
X123491666Y-24792319D02*
X123634523Y-24839938D01*
X124491666Y-24792319D02*
X124301190Y-24792319D01*
X124301190Y-24792319D02*
X124205952Y-24839938D01*
X124205952Y-24839938D02*
X124158333Y-24887557D01*
X124158333Y-24887557D02*
X124063095Y-25030414D01*
X124063095Y-25030414D02*
X124015476Y-25220890D01*
X124015476Y-25220890D02*
X124015476Y-25601842D01*
X124015476Y-25601842D02*
X124063095Y-25697080D01*
X124063095Y-25697080D02*
X124110714Y-25744700D01*
X124110714Y-25744700D02*
X124205952Y-25792319D01*
X124205952Y-25792319D02*
X124396428Y-25792319D01*
X124396428Y-25792319D02*
X124491666Y-25744700D01*
X124491666Y-25744700D02*
X124539285Y-25697080D01*
X124539285Y-25697080D02*
X124586904Y-25601842D01*
X124586904Y-25601842D02*
X124586904Y-25363747D01*
X124586904Y-25363747D02*
X124539285Y-25268509D01*
X124539285Y-25268509D02*
X124491666Y-25220890D01*
X124491666Y-25220890D02*
X124396428Y-25173271D01*
X124396428Y-25173271D02*
X124205952Y-25173271D01*
X124205952Y-25173271D02*
X124110714Y-25220890D01*
X124110714Y-25220890D02*
X124063095Y-25268509D01*
X124063095Y-25268509D02*
X124015476Y-25363747D01*
X230910267Y-78132200D02*
X231053124Y-78179819D01*
X231053124Y-78179819D02*
X231291219Y-78179819D01*
X231291219Y-78179819D02*
X231386457Y-78132200D01*
X231386457Y-78132200D02*
X231434076Y-78084580D01*
X231434076Y-78084580D02*
X231481695Y-77989342D01*
X231481695Y-77989342D02*
X231481695Y-77894104D01*
X231481695Y-77894104D02*
X231434076Y-77798866D01*
X231434076Y-77798866D02*
X231386457Y-77751247D01*
X231386457Y-77751247D02*
X231291219Y-77703628D01*
X231291219Y-77703628D02*
X231100743Y-77656009D01*
X231100743Y-77656009D02*
X231005505Y-77608390D01*
X231005505Y-77608390D02*
X230957886Y-77560771D01*
X230957886Y-77560771D02*
X230910267Y-77465533D01*
X230910267Y-77465533D02*
X230910267Y-77370295D01*
X230910267Y-77370295D02*
X230957886Y-77275057D01*
X230957886Y-77275057D02*
X231005505Y-77227438D01*
X231005505Y-77227438D02*
X231100743Y-77179819D01*
X231100743Y-77179819D02*
X231338838Y-77179819D01*
X231338838Y-77179819D02*
X231481695Y-77227438D01*
X232338838Y-77513152D02*
X232338838Y-78179819D01*
X232100743Y-77132200D02*
X231862648Y-77846485D01*
X231862648Y-77846485D02*
X232481695Y-77846485D01*
X233338838Y-77179819D02*
X232862648Y-77179819D01*
X232862648Y-77179819D02*
X232815029Y-77656009D01*
X232815029Y-77656009D02*
X232862648Y-77608390D01*
X232862648Y-77608390D02*
X232957886Y-77560771D01*
X232957886Y-77560771D02*
X233195981Y-77560771D01*
X233195981Y-77560771D02*
X233291219Y-77608390D01*
X233291219Y-77608390D02*
X233338838Y-77656009D01*
X233338838Y-77656009D02*
X233386457Y-77751247D01*
X233386457Y-77751247D02*
X233386457Y-77989342D01*
X233386457Y-77989342D02*
X233338838Y-78084580D01*
X233338838Y-78084580D02*
X233291219Y-78132200D01*
X233291219Y-78132200D02*
X233195981Y-78179819D01*
X233195981Y-78179819D02*
X232957886Y-78179819D01*
X232957886Y-78179819D02*
X232862648Y-78132200D01*
X232862648Y-78132200D02*
X232815029Y-78084580D01*
X122586905Y-63844700D02*
X122729762Y-63892319D01*
X122729762Y-63892319D02*
X122967857Y-63892319D01*
X122967857Y-63892319D02*
X123063095Y-63844700D01*
X123063095Y-63844700D02*
X123110714Y-63797080D01*
X123110714Y-63797080D02*
X123158333Y-63701842D01*
X123158333Y-63701842D02*
X123158333Y-63606604D01*
X123158333Y-63606604D02*
X123110714Y-63511366D01*
X123110714Y-63511366D02*
X123063095Y-63463747D01*
X123063095Y-63463747D02*
X122967857Y-63416128D01*
X122967857Y-63416128D02*
X122777381Y-63368509D01*
X122777381Y-63368509D02*
X122682143Y-63320890D01*
X122682143Y-63320890D02*
X122634524Y-63273271D01*
X122634524Y-63273271D02*
X122586905Y-63178033D01*
X122586905Y-63178033D02*
X122586905Y-63082795D01*
X122586905Y-63082795D02*
X122634524Y-62987557D01*
X122634524Y-62987557D02*
X122682143Y-62939938D01*
X122682143Y-62939938D02*
X122777381Y-62892319D01*
X122777381Y-62892319D02*
X123015476Y-62892319D01*
X123015476Y-62892319D02*
X123158333Y-62939938D01*
X124110714Y-63892319D02*
X123539286Y-63892319D01*
X123825000Y-63892319D02*
X123825000Y-62892319D01*
X123825000Y-62892319D02*
X123729762Y-63035176D01*
X123729762Y-63035176D02*
X123634524Y-63130414D01*
X123634524Y-63130414D02*
X123539286Y-63178033D01*
X124682143Y-63320890D02*
X124586905Y-63273271D01*
X124586905Y-63273271D02*
X124539286Y-63225652D01*
X124539286Y-63225652D02*
X124491667Y-63130414D01*
X124491667Y-63130414D02*
X124491667Y-63082795D01*
X124491667Y-63082795D02*
X124539286Y-62987557D01*
X124539286Y-62987557D02*
X124586905Y-62939938D01*
X124586905Y-62939938D02*
X124682143Y-62892319D01*
X124682143Y-62892319D02*
X124872619Y-62892319D01*
X124872619Y-62892319D02*
X124967857Y-62939938D01*
X124967857Y-62939938D02*
X125015476Y-62987557D01*
X125015476Y-62987557D02*
X125063095Y-63082795D01*
X125063095Y-63082795D02*
X125063095Y-63130414D01*
X125063095Y-63130414D02*
X125015476Y-63225652D01*
X125015476Y-63225652D02*
X124967857Y-63273271D01*
X124967857Y-63273271D02*
X124872619Y-63320890D01*
X124872619Y-63320890D02*
X124682143Y-63320890D01*
X124682143Y-63320890D02*
X124586905Y-63368509D01*
X124586905Y-63368509D02*
X124539286Y-63416128D01*
X124539286Y-63416128D02*
X124491667Y-63511366D01*
X124491667Y-63511366D02*
X124491667Y-63701842D01*
X124491667Y-63701842D02*
X124539286Y-63797080D01*
X124539286Y-63797080D02*
X124586905Y-63844700D01*
X124586905Y-63844700D02*
X124682143Y-63892319D01*
X124682143Y-63892319D02*
X124872619Y-63892319D01*
X124872619Y-63892319D02*
X124967857Y-63844700D01*
X124967857Y-63844700D02*
X125015476Y-63797080D01*
X125015476Y-63797080D02*
X125063095Y-63701842D01*
X125063095Y-63701842D02*
X125063095Y-63511366D01*
X125063095Y-63511366D02*
X125015476Y-63416128D01*
X125015476Y-63416128D02*
X124967857Y-63368509D01*
X124967857Y-63368509D02*
X124872619Y-63320890D01*
X113061905Y-82894700D02*
X113204762Y-82942319D01*
X113204762Y-82942319D02*
X113442857Y-82942319D01*
X113442857Y-82942319D02*
X113538095Y-82894700D01*
X113538095Y-82894700D02*
X113585714Y-82847080D01*
X113585714Y-82847080D02*
X113633333Y-82751842D01*
X113633333Y-82751842D02*
X113633333Y-82656604D01*
X113633333Y-82656604D02*
X113585714Y-82561366D01*
X113585714Y-82561366D02*
X113538095Y-82513747D01*
X113538095Y-82513747D02*
X113442857Y-82466128D01*
X113442857Y-82466128D02*
X113252381Y-82418509D01*
X113252381Y-82418509D02*
X113157143Y-82370890D01*
X113157143Y-82370890D02*
X113109524Y-82323271D01*
X113109524Y-82323271D02*
X113061905Y-82228033D01*
X113061905Y-82228033D02*
X113061905Y-82132795D01*
X113061905Y-82132795D02*
X113109524Y-82037557D01*
X113109524Y-82037557D02*
X113157143Y-81989938D01*
X113157143Y-81989938D02*
X113252381Y-81942319D01*
X113252381Y-81942319D02*
X113490476Y-81942319D01*
X113490476Y-81942319D02*
X113633333Y-81989938D01*
X114014286Y-82037557D02*
X114061905Y-81989938D01*
X114061905Y-81989938D02*
X114157143Y-81942319D01*
X114157143Y-81942319D02*
X114395238Y-81942319D01*
X114395238Y-81942319D02*
X114490476Y-81989938D01*
X114490476Y-81989938D02*
X114538095Y-82037557D01*
X114538095Y-82037557D02*
X114585714Y-82132795D01*
X114585714Y-82132795D02*
X114585714Y-82228033D01*
X114585714Y-82228033D02*
X114538095Y-82370890D01*
X114538095Y-82370890D02*
X113966667Y-82942319D01*
X113966667Y-82942319D02*
X114585714Y-82942319D01*
X114966667Y-82037557D02*
X115014286Y-81989938D01*
X115014286Y-81989938D02*
X115109524Y-81942319D01*
X115109524Y-81942319D02*
X115347619Y-81942319D01*
X115347619Y-81942319D02*
X115442857Y-81989938D01*
X115442857Y-81989938D02*
X115490476Y-82037557D01*
X115490476Y-82037557D02*
X115538095Y-82132795D01*
X115538095Y-82132795D02*
X115538095Y-82228033D01*
X115538095Y-82228033D02*
X115490476Y-82370890D01*
X115490476Y-82370890D02*
X114919048Y-82942319D01*
X114919048Y-82942319D02*
X115538095Y-82942319D01*
X278535267Y-63844700D02*
X278678124Y-63892319D01*
X278678124Y-63892319D02*
X278916219Y-63892319D01*
X278916219Y-63892319D02*
X279011457Y-63844700D01*
X279011457Y-63844700D02*
X279059076Y-63797080D01*
X279059076Y-63797080D02*
X279106695Y-63701842D01*
X279106695Y-63701842D02*
X279106695Y-63606604D01*
X279106695Y-63606604D02*
X279059076Y-63511366D01*
X279059076Y-63511366D02*
X279011457Y-63463747D01*
X279011457Y-63463747D02*
X278916219Y-63416128D01*
X278916219Y-63416128D02*
X278725743Y-63368509D01*
X278725743Y-63368509D02*
X278630505Y-63320890D01*
X278630505Y-63320890D02*
X278582886Y-63273271D01*
X278582886Y-63273271D02*
X278535267Y-63178033D01*
X278535267Y-63178033D02*
X278535267Y-63082795D01*
X278535267Y-63082795D02*
X278582886Y-62987557D01*
X278582886Y-62987557D02*
X278630505Y-62939938D01*
X278630505Y-62939938D02*
X278725743Y-62892319D01*
X278725743Y-62892319D02*
X278963838Y-62892319D01*
X278963838Y-62892319D02*
X279106695Y-62939938D01*
X279963838Y-63225652D02*
X279963838Y-63892319D01*
X279725743Y-62844700D02*
X279487648Y-63558985D01*
X279487648Y-63558985D02*
X280106695Y-63558985D01*
X281011457Y-63892319D02*
X280440029Y-63892319D01*
X280725743Y-63892319D02*
X280725743Y-62892319D01*
X280725743Y-62892319D02*
X280630505Y-63035176D01*
X280630505Y-63035176D02*
X280535267Y-63130414D01*
X280535267Y-63130414D02*
X280440029Y-63178033D01*
X297585267Y-25744700D02*
X297728124Y-25792319D01*
X297728124Y-25792319D02*
X297966219Y-25792319D01*
X297966219Y-25792319D02*
X298061457Y-25744700D01*
X298061457Y-25744700D02*
X298109076Y-25697080D01*
X298109076Y-25697080D02*
X298156695Y-25601842D01*
X298156695Y-25601842D02*
X298156695Y-25506604D01*
X298156695Y-25506604D02*
X298109076Y-25411366D01*
X298109076Y-25411366D02*
X298061457Y-25363747D01*
X298061457Y-25363747D02*
X297966219Y-25316128D01*
X297966219Y-25316128D02*
X297775743Y-25268509D01*
X297775743Y-25268509D02*
X297680505Y-25220890D01*
X297680505Y-25220890D02*
X297632886Y-25173271D01*
X297632886Y-25173271D02*
X297585267Y-25078033D01*
X297585267Y-25078033D02*
X297585267Y-24982795D01*
X297585267Y-24982795D02*
X297632886Y-24887557D01*
X297632886Y-24887557D02*
X297680505Y-24839938D01*
X297680505Y-24839938D02*
X297775743Y-24792319D01*
X297775743Y-24792319D02*
X298013838Y-24792319D01*
X298013838Y-24792319D02*
X298156695Y-24839938D01*
X298537648Y-24887557D02*
X298585267Y-24839938D01*
X298585267Y-24839938D02*
X298680505Y-24792319D01*
X298680505Y-24792319D02*
X298918600Y-24792319D01*
X298918600Y-24792319D02*
X299013838Y-24839938D01*
X299013838Y-24839938D02*
X299061457Y-24887557D01*
X299061457Y-24887557D02*
X299109076Y-24982795D01*
X299109076Y-24982795D02*
X299109076Y-25078033D01*
X299109076Y-25078033D02*
X299061457Y-25220890D01*
X299061457Y-25220890D02*
X298490029Y-25792319D01*
X298490029Y-25792319D02*
X299109076Y-25792319D01*
X299585267Y-25792319D02*
X299775743Y-25792319D01*
X299775743Y-25792319D02*
X299870981Y-25744700D01*
X299870981Y-25744700D02*
X299918600Y-25697080D01*
X299918600Y-25697080D02*
X300013838Y-25554223D01*
X300013838Y-25554223D02*
X300061457Y-25363747D01*
X300061457Y-25363747D02*
X300061457Y-24982795D01*
X300061457Y-24982795D02*
X300013838Y-24887557D01*
X300013838Y-24887557D02*
X299966219Y-24839938D01*
X299966219Y-24839938D02*
X299870981Y-24792319D01*
X299870981Y-24792319D02*
X299680505Y-24792319D01*
X299680505Y-24792319D02*
X299585267Y-24839938D01*
X299585267Y-24839938D02*
X299537648Y-24887557D01*
X299537648Y-24887557D02*
X299490029Y-24982795D01*
X299490029Y-24982795D02*
X299490029Y-25220890D01*
X299490029Y-25220890D02*
X299537648Y-25316128D01*
X299537648Y-25316128D02*
X299585267Y-25363747D01*
X299585267Y-25363747D02*
X299680505Y-25411366D01*
X299680505Y-25411366D02*
X299870981Y-25411366D01*
X299870981Y-25411366D02*
X299966219Y-25363747D01*
X299966219Y-25363747D02*
X300013838Y-25316128D01*
X300013838Y-25316128D02*
X300061457Y-25220890D01*
X65913095Y-20982200D02*
X66055952Y-21029819D01*
X66055952Y-21029819D02*
X66294047Y-21029819D01*
X66294047Y-21029819D02*
X66389285Y-20982200D01*
X66389285Y-20982200D02*
X66436904Y-20934580D01*
X66436904Y-20934580D02*
X66484523Y-20839342D01*
X66484523Y-20839342D02*
X66484523Y-20744104D01*
X66484523Y-20744104D02*
X66436904Y-20648866D01*
X66436904Y-20648866D02*
X66389285Y-20601247D01*
X66389285Y-20601247D02*
X66294047Y-20553628D01*
X66294047Y-20553628D02*
X66103571Y-20506009D01*
X66103571Y-20506009D02*
X66008333Y-20458390D01*
X66008333Y-20458390D02*
X65960714Y-20410771D01*
X65960714Y-20410771D02*
X65913095Y-20315533D01*
X65913095Y-20315533D02*
X65913095Y-20220295D01*
X65913095Y-20220295D02*
X65960714Y-20125057D01*
X65960714Y-20125057D02*
X66008333Y-20077438D01*
X66008333Y-20077438D02*
X66103571Y-20029819D01*
X66103571Y-20029819D02*
X66341666Y-20029819D01*
X66341666Y-20029819D02*
X66484523Y-20077438D01*
X66817857Y-20029819D02*
X67436904Y-20029819D01*
X67436904Y-20029819D02*
X67103571Y-20410771D01*
X67103571Y-20410771D02*
X67246428Y-20410771D01*
X67246428Y-20410771D02*
X67341666Y-20458390D01*
X67341666Y-20458390D02*
X67389285Y-20506009D01*
X67389285Y-20506009D02*
X67436904Y-20601247D01*
X67436904Y-20601247D02*
X67436904Y-20839342D01*
X67436904Y-20839342D02*
X67389285Y-20934580D01*
X67389285Y-20934580D02*
X67341666Y-20982200D01*
X67341666Y-20982200D02*
X67246428Y-21029819D01*
X67246428Y-21029819D02*
X66960714Y-21029819D01*
X66960714Y-21029819D02*
X66865476Y-20982200D01*
X66865476Y-20982200D02*
X66817857Y-20934580D01*
X136874405Y-82894700D02*
X137017262Y-82942319D01*
X137017262Y-82942319D02*
X137255357Y-82942319D01*
X137255357Y-82942319D02*
X137350595Y-82894700D01*
X137350595Y-82894700D02*
X137398214Y-82847080D01*
X137398214Y-82847080D02*
X137445833Y-82751842D01*
X137445833Y-82751842D02*
X137445833Y-82656604D01*
X137445833Y-82656604D02*
X137398214Y-82561366D01*
X137398214Y-82561366D02*
X137350595Y-82513747D01*
X137350595Y-82513747D02*
X137255357Y-82466128D01*
X137255357Y-82466128D02*
X137064881Y-82418509D01*
X137064881Y-82418509D02*
X136969643Y-82370890D01*
X136969643Y-82370890D02*
X136922024Y-82323271D01*
X136922024Y-82323271D02*
X136874405Y-82228033D01*
X136874405Y-82228033D02*
X136874405Y-82132795D01*
X136874405Y-82132795D02*
X136922024Y-82037557D01*
X136922024Y-82037557D02*
X136969643Y-81989938D01*
X136969643Y-81989938D02*
X137064881Y-81942319D01*
X137064881Y-81942319D02*
X137302976Y-81942319D01*
X137302976Y-81942319D02*
X137445833Y-81989938D01*
X137826786Y-82037557D02*
X137874405Y-81989938D01*
X137874405Y-81989938D02*
X137969643Y-81942319D01*
X137969643Y-81942319D02*
X138207738Y-81942319D01*
X138207738Y-81942319D02*
X138302976Y-81989938D01*
X138302976Y-81989938D02*
X138350595Y-82037557D01*
X138350595Y-82037557D02*
X138398214Y-82132795D01*
X138398214Y-82132795D02*
X138398214Y-82228033D01*
X138398214Y-82228033D02*
X138350595Y-82370890D01*
X138350595Y-82370890D02*
X137779167Y-82942319D01*
X137779167Y-82942319D02*
X138398214Y-82942319D01*
X138731548Y-81942319D02*
X139350595Y-81942319D01*
X139350595Y-81942319D02*
X139017262Y-82323271D01*
X139017262Y-82323271D02*
X139160119Y-82323271D01*
X139160119Y-82323271D02*
X139255357Y-82370890D01*
X139255357Y-82370890D02*
X139302976Y-82418509D01*
X139302976Y-82418509D02*
X139350595Y-82513747D01*
X139350595Y-82513747D02*
X139350595Y-82751842D01*
X139350595Y-82751842D02*
X139302976Y-82847080D01*
X139302976Y-82847080D02*
X139255357Y-82894700D01*
X139255357Y-82894700D02*
X139160119Y-82942319D01*
X139160119Y-82942319D02*
X138874405Y-82942319D01*
X138874405Y-82942319D02*
X138779167Y-82894700D01*
X138779167Y-82894700D02*
X138731548Y-82847080D01*
X104013095Y-20982200D02*
X104155952Y-21029819D01*
X104155952Y-21029819D02*
X104394047Y-21029819D01*
X104394047Y-21029819D02*
X104489285Y-20982200D01*
X104489285Y-20982200D02*
X104536904Y-20934580D01*
X104536904Y-20934580D02*
X104584523Y-20839342D01*
X104584523Y-20839342D02*
X104584523Y-20744104D01*
X104584523Y-20744104D02*
X104536904Y-20648866D01*
X104536904Y-20648866D02*
X104489285Y-20601247D01*
X104489285Y-20601247D02*
X104394047Y-20553628D01*
X104394047Y-20553628D02*
X104203571Y-20506009D01*
X104203571Y-20506009D02*
X104108333Y-20458390D01*
X104108333Y-20458390D02*
X104060714Y-20410771D01*
X104060714Y-20410771D02*
X104013095Y-20315533D01*
X104013095Y-20315533D02*
X104013095Y-20220295D01*
X104013095Y-20220295D02*
X104060714Y-20125057D01*
X104060714Y-20125057D02*
X104108333Y-20077438D01*
X104108333Y-20077438D02*
X104203571Y-20029819D01*
X104203571Y-20029819D02*
X104441666Y-20029819D01*
X104441666Y-20029819D02*
X104584523Y-20077438D01*
X105489285Y-20029819D02*
X105013095Y-20029819D01*
X105013095Y-20029819D02*
X104965476Y-20506009D01*
X104965476Y-20506009D02*
X105013095Y-20458390D01*
X105013095Y-20458390D02*
X105108333Y-20410771D01*
X105108333Y-20410771D02*
X105346428Y-20410771D01*
X105346428Y-20410771D02*
X105441666Y-20458390D01*
X105441666Y-20458390D02*
X105489285Y-20506009D01*
X105489285Y-20506009D02*
X105536904Y-20601247D01*
X105536904Y-20601247D02*
X105536904Y-20839342D01*
X105536904Y-20839342D02*
X105489285Y-20934580D01*
X105489285Y-20934580D02*
X105441666Y-20982200D01*
X105441666Y-20982200D02*
X105346428Y-21029819D01*
X105346428Y-21029819D02*
X105108333Y-21029819D01*
X105108333Y-21029819D02*
X105013095Y-20982200D01*
X105013095Y-20982200D02*
X104965476Y-20934580D01*
X211860267Y-82894700D02*
X212003124Y-82942319D01*
X212003124Y-82942319D02*
X212241219Y-82942319D01*
X212241219Y-82942319D02*
X212336457Y-82894700D01*
X212336457Y-82894700D02*
X212384076Y-82847080D01*
X212384076Y-82847080D02*
X212431695Y-82751842D01*
X212431695Y-82751842D02*
X212431695Y-82656604D01*
X212431695Y-82656604D02*
X212384076Y-82561366D01*
X212384076Y-82561366D02*
X212336457Y-82513747D01*
X212336457Y-82513747D02*
X212241219Y-82466128D01*
X212241219Y-82466128D02*
X212050743Y-82418509D01*
X212050743Y-82418509D02*
X211955505Y-82370890D01*
X211955505Y-82370890D02*
X211907886Y-82323271D01*
X211907886Y-82323271D02*
X211860267Y-82228033D01*
X211860267Y-82228033D02*
X211860267Y-82132795D01*
X211860267Y-82132795D02*
X211907886Y-82037557D01*
X211907886Y-82037557D02*
X211955505Y-81989938D01*
X211955505Y-81989938D02*
X212050743Y-81942319D01*
X212050743Y-81942319D02*
X212288838Y-81942319D01*
X212288838Y-81942319D02*
X212431695Y-81989938D01*
X213288838Y-82275652D02*
X213288838Y-82942319D01*
X213050743Y-81894700D02*
X212812648Y-82608985D01*
X212812648Y-82608985D02*
X213431695Y-82608985D01*
X214241219Y-82275652D02*
X214241219Y-82942319D01*
X214003124Y-81894700D02*
X213765029Y-82608985D01*
X213765029Y-82608985D02*
X214384076Y-82608985D01*
X271891220Y-21886069D02*
X271891220Y-20886069D01*
X271891220Y-21362259D02*
X272462648Y-21362259D01*
X272462648Y-21886069D02*
X272462648Y-20886069D01*
X272986458Y-21886069D02*
X273176934Y-21886069D01*
X273176934Y-21886069D02*
X273272172Y-21838450D01*
X273272172Y-21838450D02*
X273319791Y-21790830D01*
X273319791Y-21790830D02*
X273415029Y-21647973D01*
X273415029Y-21647973D02*
X273462648Y-21457497D01*
X273462648Y-21457497D02*
X273462648Y-21076545D01*
X273462648Y-21076545D02*
X273415029Y-20981307D01*
X273415029Y-20981307D02*
X273367410Y-20933688D01*
X273367410Y-20933688D02*
X273272172Y-20886069D01*
X273272172Y-20886069D02*
X273081696Y-20886069D01*
X273081696Y-20886069D02*
X272986458Y-20933688D01*
X272986458Y-20933688D02*
X272938839Y-20981307D01*
X272938839Y-20981307D02*
X272891220Y-21076545D01*
X272891220Y-21076545D02*
X272891220Y-21314640D01*
X272891220Y-21314640D02*
X272938839Y-21409878D01*
X272938839Y-21409878D02*
X272986458Y-21457497D01*
X272986458Y-21457497D02*
X273081696Y-21505116D01*
X273081696Y-21505116D02*
X273272172Y-21505116D01*
X273272172Y-21505116D02*
X273367410Y-21457497D01*
X273367410Y-21457497D02*
X273415029Y-21409878D01*
X273415029Y-21409878D02*
X273462648Y-21314640D01*
X150393440Y-47568247D02*
X150507726Y-47606342D01*
X150507726Y-47606342D02*
X150545821Y-47644438D01*
X150545821Y-47644438D02*
X150583917Y-47720628D01*
X150583917Y-47720628D02*
X150583917Y-47834914D01*
X150583917Y-47834914D02*
X150545821Y-47911104D01*
X150545821Y-47911104D02*
X150507726Y-47949200D01*
X150507726Y-47949200D02*
X150431536Y-47987295D01*
X150431536Y-47987295D02*
X150126774Y-47987295D01*
X150126774Y-47987295D02*
X150126774Y-47187295D01*
X150126774Y-47187295D02*
X150393440Y-47187295D01*
X150393440Y-47187295D02*
X150469631Y-47225390D01*
X150469631Y-47225390D02*
X150507726Y-47263485D01*
X150507726Y-47263485D02*
X150545821Y-47339676D01*
X150545821Y-47339676D02*
X150545821Y-47415866D01*
X150545821Y-47415866D02*
X150507726Y-47492057D01*
X150507726Y-47492057D02*
X150469631Y-47530152D01*
X150469631Y-47530152D02*
X150393440Y-47568247D01*
X150393440Y-47568247D02*
X150126774Y-47568247D01*
X151345821Y-47987295D02*
X150888678Y-47987295D01*
X151117250Y-47987295D02*
X151117250Y-47187295D01*
X151117250Y-47187295D02*
X151041059Y-47301580D01*
X151041059Y-47301580D02*
X150964869Y-47377771D01*
X150964869Y-47377771D02*
X150888678Y-47415866D01*
X139661917Y-45371104D02*
X139623821Y-45409200D01*
X139623821Y-45409200D02*
X139509536Y-45447295D01*
X139509536Y-45447295D02*
X139433345Y-45447295D01*
X139433345Y-45447295D02*
X139319059Y-45409200D01*
X139319059Y-45409200D02*
X139242869Y-45333009D01*
X139242869Y-45333009D02*
X139204774Y-45256819D01*
X139204774Y-45256819D02*
X139166678Y-45104438D01*
X139166678Y-45104438D02*
X139166678Y-44990152D01*
X139166678Y-44990152D02*
X139204774Y-44837771D01*
X139204774Y-44837771D02*
X139242869Y-44761580D01*
X139242869Y-44761580D02*
X139319059Y-44685390D01*
X139319059Y-44685390D02*
X139433345Y-44647295D01*
X139433345Y-44647295D02*
X139509536Y-44647295D01*
X139509536Y-44647295D02*
X139623821Y-44685390D01*
X139623821Y-44685390D02*
X139661917Y-44723485D01*
X140347631Y-44647295D02*
X140195250Y-44647295D01*
X140195250Y-44647295D02*
X140119059Y-44685390D01*
X140119059Y-44685390D02*
X140080964Y-44723485D01*
X140080964Y-44723485D02*
X140004774Y-44837771D01*
X140004774Y-44837771D02*
X139966678Y-44990152D01*
X139966678Y-44990152D02*
X139966678Y-45294914D01*
X139966678Y-45294914D02*
X140004774Y-45371104D01*
X140004774Y-45371104D02*
X140042869Y-45409200D01*
X140042869Y-45409200D02*
X140119059Y-45447295D01*
X140119059Y-45447295D02*
X140271440Y-45447295D01*
X140271440Y-45447295D02*
X140347631Y-45409200D01*
X140347631Y-45409200D02*
X140385726Y-45371104D01*
X140385726Y-45371104D02*
X140423821Y-45294914D01*
X140423821Y-45294914D02*
X140423821Y-45104438D01*
X140423821Y-45104438D02*
X140385726Y-45028247D01*
X140385726Y-45028247D02*
X140347631Y-44990152D01*
X140347631Y-44990152D02*
X140271440Y-44952057D01*
X140271440Y-44952057D02*
X140119059Y-44952057D01*
X140119059Y-44952057D02*
X140042869Y-44990152D01*
X140042869Y-44990152D02*
X140004774Y-45028247D01*
X140004774Y-45028247D02*
X139966678Y-45104438D01*
X150393440Y-50108247D02*
X150507726Y-50146342D01*
X150507726Y-50146342D02*
X150545821Y-50184438D01*
X150545821Y-50184438D02*
X150583917Y-50260628D01*
X150583917Y-50260628D02*
X150583917Y-50374914D01*
X150583917Y-50374914D02*
X150545821Y-50451104D01*
X150545821Y-50451104D02*
X150507726Y-50489200D01*
X150507726Y-50489200D02*
X150431536Y-50527295D01*
X150431536Y-50527295D02*
X150126774Y-50527295D01*
X150126774Y-50527295D02*
X150126774Y-49727295D01*
X150126774Y-49727295D02*
X150393440Y-49727295D01*
X150393440Y-49727295D02*
X150469631Y-49765390D01*
X150469631Y-49765390D02*
X150507726Y-49803485D01*
X150507726Y-49803485D02*
X150545821Y-49879676D01*
X150545821Y-49879676D02*
X150545821Y-49955866D01*
X150545821Y-49955866D02*
X150507726Y-50032057D01*
X150507726Y-50032057D02*
X150469631Y-50070152D01*
X150469631Y-50070152D02*
X150393440Y-50108247D01*
X150393440Y-50108247D02*
X150126774Y-50108247D01*
X150850583Y-49727295D02*
X151345821Y-49727295D01*
X151345821Y-49727295D02*
X151079155Y-50032057D01*
X151079155Y-50032057D02*
X151193440Y-50032057D01*
X151193440Y-50032057D02*
X151269631Y-50070152D01*
X151269631Y-50070152D02*
X151307726Y-50108247D01*
X151307726Y-50108247D02*
X151345821Y-50184438D01*
X151345821Y-50184438D02*
X151345821Y-50374914D01*
X151345821Y-50374914D02*
X151307726Y-50451104D01*
X151307726Y-50451104D02*
X151269631Y-50489200D01*
X151269631Y-50489200D02*
X151193440Y-50527295D01*
X151193440Y-50527295D02*
X150964869Y-50527295D01*
X150964869Y-50527295D02*
X150888678Y-50489200D01*
X150888678Y-50489200D02*
X150850583Y-50451104D01*
X139204774Y-30207295D02*
X139204774Y-29407295D01*
X139204774Y-29407295D02*
X139395250Y-29407295D01*
X139395250Y-29407295D02*
X139509536Y-29445390D01*
X139509536Y-29445390D02*
X139585726Y-29521580D01*
X139585726Y-29521580D02*
X139623821Y-29597771D01*
X139623821Y-29597771D02*
X139661917Y-29750152D01*
X139661917Y-29750152D02*
X139661917Y-29864438D01*
X139661917Y-29864438D02*
X139623821Y-30016819D01*
X139623821Y-30016819D02*
X139585726Y-30093009D01*
X139585726Y-30093009D02*
X139509536Y-30169200D01*
X139509536Y-30169200D02*
X139395250Y-30207295D01*
X139395250Y-30207295D02*
X139204774Y-30207295D01*
X139966678Y-29483485D02*
X140004774Y-29445390D01*
X140004774Y-29445390D02*
X140080964Y-29407295D01*
X140080964Y-29407295D02*
X140271440Y-29407295D01*
X140271440Y-29407295D02*
X140347631Y-29445390D01*
X140347631Y-29445390D02*
X140385726Y-29483485D01*
X140385726Y-29483485D02*
X140423821Y-29559676D01*
X140423821Y-29559676D02*
X140423821Y-29635866D01*
X140423821Y-29635866D02*
X140385726Y-29750152D01*
X140385726Y-29750152D02*
X139928583Y-30207295D01*
X139928583Y-30207295D02*
X140423821Y-30207295D01*
X139185726Y-34525390D02*
X139109536Y-34487295D01*
X139109536Y-34487295D02*
X138995250Y-34487295D01*
X138995250Y-34487295D02*
X138880964Y-34525390D01*
X138880964Y-34525390D02*
X138804774Y-34601580D01*
X138804774Y-34601580D02*
X138766679Y-34677771D01*
X138766679Y-34677771D02*
X138728583Y-34830152D01*
X138728583Y-34830152D02*
X138728583Y-34944438D01*
X138728583Y-34944438D02*
X138766679Y-35096819D01*
X138766679Y-35096819D02*
X138804774Y-35173009D01*
X138804774Y-35173009D02*
X138880964Y-35249200D01*
X138880964Y-35249200D02*
X138995250Y-35287295D01*
X138995250Y-35287295D02*
X139071441Y-35287295D01*
X139071441Y-35287295D02*
X139185726Y-35249200D01*
X139185726Y-35249200D02*
X139223822Y-35211104D01*
X139223822Y-35211104D02*
X139223822Y-34944438D01*
X139223822Y-34944438D02*
X139071441Y-34944438D01*
X139566679Y-35287295D02*
X139566679Y-34487295D01*
X139566679Y-34487295D02*
X140023822Y-35287295D01*
X140023822Y-35287295D02*
X140023822Y-34487295D01*
X140404774Y-35287295D02*
X140404774Y-34487295D01*
X140404774Y-34487295D02*
X140595250Y-34487295D01*
X140595250Y-34487295D02*
X140709536Y-34525390D01*
X140709536Y-34525390D02*
X140785726Y-34601580D01*
X140785726Y-34601580D02*
X140823821Y-34677771D01*
X140823821Y-34677771D02*
X140861917Y-34830152D01*
X140861917Y-34830152D02*
X140861917Y-34944438D01*
X140861917Y-34944438D02*
X140823821Y-35096819D01*
X140823821Y-35096819D02*
X140785726Y-35173009D01*
X140785726Y-35173009D02*
X140709536Y-35249200D01*
X140709536Y-35249200D02*
X140595250Y-35287295D01*
X140595250Y-35287295D02*
X140404774Y-35287295D01*
X139204774Y-42907295D02*
X139204774Y-42107295D01*
X139204774Y-42107295D02*
X139395250Y-42107295D01*
X139395250Y-42107295D02*
X139509536Y-42145390D01*
X139509536Y-42145390D02*
X139585726Y-42221580D01*
X139585726Y-42221580D02*
X139623821Y-42297771D01*
X139623821Y-42297771D02*
X139661917Y-42450152D01*
X139661917Y-42450152D02*
X139661917Y-42564438D01*
X139661917Y-42564438D02*
X139623821Y-42716819D01*
X139623821Y-42716819D02*
X139585726Y-42793009D01*
X139585726Y-42793009D02*
X139509536Y-42869200D01*
X139509536Y-42869200D02*
X139395250Y-42907295D01*
X139395250Y-42907295D02*
X139204774Y-42907295D01*
X140347631Y-42373961D02*
X140347631Y-42907295D01*
X140157155Y-42069200D02*
X139966678Y-42640628D01*
X139966678Y-42640628D02*
X140461917Y-42640628D01*
X150450583Y-42488247D02*
X150183917Y-42488247D01*
X150183917Y-42907295D02*
X150183917Y-42107295D01*
X150183917Y-42107295D02*
X150564869Y-42107295D01*
X151212488Y-42107295D02*
X151060107Y-42107295D01*
X151060107Y-42107295D02*
X150983916Y-42145390D01*
X150983916Y-42145390D02*
X150945821Y-42183485D01*
X150945821Y-42183485D02*
X150869631Y-42297771D01*
X150869631Y-42297771D02*
X150831535Y-42450152D01*
X150831535Y-42450152D02*
X150831535Y-42754914D01*
X150831535Y-42754914D02*
X150869631Y-42831104D01*
X150869631Y-42831104D02*
X150907726Y-42869200D01*
X150907726Y-42869200D02*
X150983916Y-42907295D01*
X150983916Y-42907295D02*
X151136297Y-42907295D01*
X151136297Y-42907295D02*
X151212488Y-42869200D01*
X151212488Y-42869200D02*
X151250583Y-42831104D01*
X151250583Y-42831104D02*
X151288678Y-42754914D01*
X151288678Y-42754914D02*
X151288678Y-42564438D01*
X151288678Y-42564438D02*
X151250583Y-42488247D01*
X151250583Y-42488247D02*
X151212488Y-42450152D01*
X151212488Y-42450152D02*
X151136297Y-42412057D01*
X151136297Y-42412057D02*
X150983916Y-42412057D01*
X150983916Y-42412057D02*
X150907726Y-42450152D01*
X150907726Y-42450152D02*
X150869631Y-42488247D01*
X150869631Y-42488247D02*
X150831535Y-42564438D01*
X139185726Y-31985390D02*
X139109536Y-31947295D01*
X139109536Y-31947295D02*
X138995250Y-31947295D01*
X138995250Y-31947295D02*
X138880964Y-31985390D01*
X138880964Y-31985390D02*
X138804774Y-32061580D01*
X138804774Y-32061580D02*
X138766679Y-32137771D01*
X138766679Y-32137771D02*
X138728583Y-32290152D01*
X138728583Y-32290152D02*
X138728583Y-32404438D01*
X138728583Y-32404438D02*
X138766679Y-32556819D01*
X138766679Y-32556819D02*
X138804774Y-32633009D01*
X138804774Y-32633009D02*
X138880964Y-32709200D01*
X138880964Y-32709200D02*
X138995250Y-32747295D01*
X138995250Y-32747295D02*
X139071441Y-32747295D01*
X139071441Y-32747295D02*
X139185726Y-32709200D01*
X139185726Y-32709200D02*
X139223822Y-32671104D01*
X139223822Y-32671104D02*
X139223822Y-32404438D01*
X139223822Y-32404438D02*
X139071441Y-32404438D01*
X139566679Y-32747295D02*
X139566679Y-31947295D01*
X139566679Y-31947295D02*
X140023822Y-32747295D01*
X140023822Y-32747295D02*
X140023822Y-31947295D01*
X140404774Y-32747295D02*
X140404774Y-31947295D01*
X140404774Y-31947295D02*
X140595250Y-31947295D01*
X140595250Y-31947295D02*
X140709536Y-31985390D01*
X140709536Y-31985390D02*
X140785726Y-32061580D01*
X140785726Y-32061580D02*
X140823821Y-32137771D01*
X140823821Y-32137771D02*
X140861917Y-32290152D01*
X140861917Y-32290152D02*
X140861917Y-32404438D01*
X140861917Y-32404438D02*
X140823821Y-32556819D01*
X140823821Y-32556819D02*
X140785726Y-32633009D01*
X140785726Y-32633009D02*
X140709536Y-32709200D01*
X140709536Y-32709200D02*
X140595250Y-32747295D01*
X140595250Y-32747295D02*
X140404774Y-32747295D01*
X150450583Y-39948247D02*
X150183917Y-39948247D01*
X150183917Y-40367295D02*
X150183917Y-39567295D01*
X150183917Y-39567295D02*
X150564869Y-39567295D01*
X151250583Y-39567295D02*
X150869631Y-39567295D01*
X150869631Y-39567295D02*
X150831535Y-39948247D01*
X150831535Y-39948247D02*
X150869631Y-39910152D01*
X150869631Y-39910152D02*
X150945821Y-39872057D01*
X150945821Y-39872057D02*
X151136297Y-39872057D01*
X151136297Y-39872057D02*
X151212488Y-39910152D01*
X151212488Y-39910152D02*
X151250583Y-39948247D01*
X151250583Y-39948247D02*
X151288678Y-40024438D01*
X151288678Y-40024438D02*
X151288678Y-40214914D01*
X151288678Y-40214914D02*
X151250583Y-40291104D01*
X151250583Y-40291104D02*
X151212488Y-40329200D01*
X151212488Y-40329200D02*
X151136297Y-40367295D01*
X151136297Y-40367295D02*
X150945821Y-40367295D01*
X150945821Y-40367295D02*
X150869631Y-40329200D01*
X150869631Y-40329200D02*
X150831535Y-40291104D01*
X150164869Y-27667295D02*
X149898202Y-27286342D01*
X149707726Y-27667295D02*
X149707726Y-26867295D01*
X149707726Y-26867295D02*
X150012488Y-26867295D01*
X150012488Y-26867295D02*
X150088678Y-26905390D01*
X150088678Y-26905390D02*
X150126773Y-26943485D01*
X150126773Y-26943485D02*
X150164869Y-27019676D01*
X150164869Y-27019676D02*
X150164869Y-27133961D01*
X150164869Y-27133961D02*
X150126773Y-27210152D01*
X150126773Y-27210152D02*
X150088678Y-27248247D01*
X150088678Y-27248247D02*
X150012488Y-27286342D01*
X150012488Y-27286342D02*
X149707726Y-27286342D01*
X150469630Y-27438723D02*
X150850583Y-27438723D01*
X150393440Y-27667295D02*
X150660107Y-26867295D01*
X150660107Y-26867295D02*
X150926773Y-27667295D01*
X151117249Y-26867295D02*
X151307725Y-27667295D01*
X151307725Y-27667295D02*
X151460106Y-27095866D01*
X151460106Y-27095866D02*
X151612487Y-27667295D01*
X151612487Y-27667295D02*
X151802964Y-26867295D01*
X139242869Y-50108247D02*
X139509535Y-50108247D01*
X139623821Y-50527295D02*
X139242869Y-50527295D01*
X139242869Y-50527295D02*
X139242869Y-49727295D01*
X139242869Y-49727295D02*
X139623821Y-49727295D01*
X140309536Y-49727295D02*
X140157155Y-49727295D01*
X140157155Y-49727295D02*
X140080964Y-49765390D01*
X140080964Y-49765390D02*
X140042869Y-49803485D01*
X140042869Y-49803485D02*
X139966679Y-49917771D01*
X139966679Y-49917771D02*
X139928583Y-50070152D01*
X139928583Y-50070152D02*
X139928583Y-50374914D01*
X139928583Y-50374914D02*
X139966679Y-50451104D01*
X139966679Y-50451104D02*
X140004774Y-50489200D01*
X140004774Y-50489200D02*
X140080964Y-50527295D01*
X140080964Y-50527295D02*
X140233345Y-50527295D01*
X140233345Y-50527295D02*
X140309536Y-50489200D01*
X140309536Y-50489200D02*
X140347631Y-50451104D01*
X140347631Y-50451104D02*
X140385726Y-50374914D01*
X140385726Y-50374914D02*
X140385726Y-50184438D01*
X140385726Y-50184438D02*
X140347631Y-50108247D01*
X140347631Y-50108247D02*
X140309536Y-50070152D01*
X140309536Y-50070152D02*
X140233345Y-50032057D01*
X140233345Y-50032057D02*
X140080964Y-50032057D01*
X140080964Y-50032057D02*
X140004774Y-50070152D01*
X140004774Y-50070152D02*
X139966679Y-50108247D01*
X139966679Y-50108247D02*
X139928583Y-50184438D01*
X150456036Y-32679200D02*
X150570322Y-32717295D01*
X150570322Y-32717295D02*
X150760798Y-32717295D01*
X150760798Y-32717295D02*
X150836989Y-32679200D01*
X150836989Y-32679200D02*
X150875084Y-32641104D01*
X150875084Y-32641104D02*
X150913179Y-32564914D01*
X150913179Y-32564914D02*
X150913179Y-32488723D01*
X150913179Y-32488723D02*
X150875084Y-32412533D01*
X150875084Y-32412533D02*
X150836989Y-32374438D01*
X150836989Y-32374438D02*
X150760798Y-32336342D01*
X150760798Y-32336342D02*
X150608417Y-32298247D01*
X150608417Y-32298247D02*
X150532227Y-32260152D01*
X150532227Y-32260152D02*
X150494132Y-32222057D01*
X150494132Y-32222057D02*
X150456036Y-32145866D01*
X150456036Y-32145866D02*
X150456036Y-32069676D01*
X150456036Y-32069676D02*
X150494132Y-31993485D01*
X150494132Y-31993485D02*
X150532227Y-31955390D01*
X150532227Y-31955390D02*
X150608417Y-31917295D01*
X150608417Y-31917295D02*
X150798894Y-31917295D01*
X150798894Y-31917295D02*
X150913179Y-31955390D01*
X151141751Y-31917295D02*
X151598894Y-31917295D01*
X151370322Y-32717295D02*
X151370322Y-31917295D01*
X149650583Y-34487295D02*
X149917250Y-35287295D01*
X149917250Y-35287295D02*
X150183916Y-34487295D01*
X150907726Y-35211104D02*
X150869630Y-35249200D01*
X150869630Y-35249200D02*
X150755345Y-35287295D01*
X150755345Y-35287295D02*
X150679154Y-35287295D01*
X150679154Y-35287295D02*
X150564868Y-35249200D01*
X150564868Y-35249200D02*
X150488678Y-35173009D01*
X150488678Y-35173009D02*
X150450583Y-35096819D01*
X150450583Y-35096819D02*
X150412487Y-34944438D01*
X150412487Y-34944438D02*
X150412487Y-34830152D01*
X150412487Y-34830152D02*
X150450583Y-34677771D01*
X150450583Y-34677771D02*
X150488678Y-34601580D01*
X150488678Y-34601580D02*
X150564868Y-34525390D01*
X150564868Y-34525390D02*
X150679154Y-34487295D01*
X150679154Y-34487295D02*
X150755345Y-34487295D01*
X150755345Y-34487295D02*
X150869630Y-34525390D01*
X150869630Y-34525390D02*
X150907726Y-34563485D01*
X151707726Y-35211104D02*
X151669630Y-35249200D01*
X151669630Y-35249200D02*
X151555345Y-35287295D01*
X151555345Y-35287295D02*
X151479154Y-35287295D01*
X151479154Y-35287295D02*
X151364868Y-35249200D01*
X151364868Y-35249200D02*
X151288678Y-35173009D01*
X151288678Y-35173009D02*
X151250583Y-35096819D01*
X151250583Y-35096819D02*
X151212487Y-34944438D01*
X151212487Y-34944438D02*
X151212487Y-34830152D01*
X151212487Y-34830152D02*
X151250583Y-34677771D01*
X151250583Y-34677771D02*
X151288678Y-34601580D01*
X151288678Y-34601580D02*
X151364868Y-34525390D01*
X151364868Y-34525390D02*
X151479154Y-34487295D01*
X151479154Y-34487295D02*
X151555345Y-34487295D01*
X151555345Y-34487295D02*
X151669630Y-34525390D01*
X151669630Y-34525390D02*
X151707726Y-34563485D01*
X139493901Y-26867295D02*
X139951044Y-26867295D01*
X139722472Y-27667295D02*
X139722472Y-26867295D01*
X140141520Y-26867295D02*
X140674854Y-27667295D01*
X140674854Y-26867295D02*
X140141520Y-27667295D01*
X141131997Y-26867295D02*
X141208187Y-26867295D01*
X141208187Y-26867295D02*
X141284378Y-26905390D01*
X141284378Y-26905390D02*
X141322473Y-26943485D01*
X141322473Y-26943485D02*
X141360568Y-27019676D01*
X141360568Y-27019676D02*
X141398663Y-27172057D01*
X141398663Y-27172057D02*
X141398663Y-27362533D01*
X141398663Y-27362533D02*
X141360568Y-27514914D01*
X141360568Y-27514914D02*
X141322473Y-27591104D01*
X141322473Y-27591104D02*
X141284378Y-27629200D01*
X141284378Y-27629200D02*
X141208187Y-27667295D01*
X141208187Y-27667295D02*
X141131997Y-27667295D01*
X141131997Y-27667295D02*
X141055806Y-27629200D01*
X141055806Y-27629200D02*
X141017711Y-27591104D01*
X141017711Y-27591104D02*
X140979616Y-27514914D01*
X140979616Y-27514914D02*
X140941520Y-27362533D01*
X140941520Y-27362533D02*
X140941520Y-27172057D01*
X140941520Y-27172057D02*
X140979616Y-27019676D01*
X140979616Y-27019676D02*
X141017711Y-26943485D01*
X141017711Y-26943485D02*
X141055806Y-26905390D01*
X141055806Y-26905390D02*
X141131997Y-26867295D01*
X142312949Y-26829200D02*
X141627235Y-27857771D01*
X142579616Y-27667295D02*
X142579616Y-26867295D01*
X142579616Y-26867295D02*
X142770092Y-26867295D01*
X142770092Y-26867295D02*
X142884378Y-26905390D01*
X142884378Y-26905390D02*
X142960568Y-26981580D01*
X142960568Y-26981580D02*
X142998663Y-27057771D01*
X142998663Y-27057771D02*
X143036759Y-27210152D01*
X143036759Y-27210152D02*
X143036759Y-27324438D01*
X143036759Y-27324438D02*
X142998663Y-27476819D01*
X142998663Y-27476819D02*
X142960568Y-27553009D01*
X142960568Y-27553009D02*
X142884378Y-27629200D01*
X142884378Y-27629200D02*
X142770092Y-27667295D01*
X142770092Y-27667295D02*
X142579616Y-27667295D01*
X143303425Y-26867295D02*
X143798663Y-26867295D01*
X143798663Y-26867295D02*
X143531997Y-27172057D01*
X143531997Y-27172057D02*
X143646282Y-27172057D01*
X143646282Y-27172057D02*
X143722473Y-27210152D01*
X143722473Y-27210152D02*
X143760568Y-27248247D01*
X143760568Y-27248247D02*
X143798663Y-27324438D01*
X143798663Y-27324438D02*
X143798663Y-27514914D01*
X143798663Y-27514914D02*
X143760568Y-27591104D01*
X143760568Y-27591104D02*
X143722473Y-27629200D01*
X143722473Y-27629200D02*
X143646282Y-27667295D01*
X143646282Y-27667295D02*
X143417711Y-27667295D01*
X143417711Y-27667295D02*
X143341520Y-27629200D01*
X143341520Y-27629200D02*
X143303425Y-27591104D01*
X150450583Y-45028247D02*
X150183917Y-45028247D01*
X150183917Y-45447295D02*
X150183917Y-44647295D01*
X150183917Y-44647295D02*
X150564869Y-44647295D01*
X150793440Y-44647295D02*
X151326774Y-44647295D01*
X151326774Y-44647295D02*
X150983916Y-45447295D01*
X139471440Y-55188247D02*
X139585726Y-55226342D01*
X139585726Y-55226342D02*
X139623821Y-55264438D01*
X139623821Y-55264438D02*
X139661917Y-55340628D01*
X139661917Y-55340628D02*
X139661917Y-55454914D01*
X139661917Y-55454914D02*
X139623821Y-55531104D01*
X139623821Y-55531104D02*
X139585726Y-55569200D01*
X139585726Y-55569200D02*
X139509536Y-55607295D01*
X139509536Y-55607295D02*
X139204774Y-55607295D01*
X139204774Y-55607295D02*
X139204774Y-54807295D01*
X139204774Y-54807295D02*
X139471440Y-54807295D01*
X139471440Y-54807295D02*
X139547631Y-54845390D01*
X139547631Y-54845390D02*
X139585726Y-54883485D01*
X139585726Y-54883485D02*
X139623821Y-54959676D01*
X139623821Y-54959676D02*
X139623821Y-55035866D01*
X139623821Y-55035866D02*
X139585726Y-55112057D01*
X139585726Y-55112057D02*
X139547631Y-55150152D01*
X139547631Y-55150152D02*
X139471440Y-55188247D01*
X139471440Y-55188247D02*
X139204774Y-55188247D01*
X140385726Y-54807295D02*
X140004774Y-54807295D01*
X140004774Y-54807295D02*
X139966678Y-55188247D01*
X139966678Y-55188247D02*
X140004774Y-55150152D01*
X140004774Y-55150152D02*
X140080964Y-55112057D01*
X140080964Y-55112057D02*
X140271440Y-55112057D01*
X140271440Y-55112057D02*
X140347631Y-55150152D01*
X140347631Y-55150152D02*
X140385726Y-55188247D01*
X140385726Y-55188247D02*
X140423821Y-55264438D01*
X140423821Y-55264438D02*
X140423821Y-55454914D01*
X140423821Y-55454914D02*
X140385726Y-55531104D01*
X140385726Y-55531104D02*
X140347631Y-55569200D01*
X140347631Y-55569200D02*
X140271440Y-55607295D01*
X140271440Y-55607295D02*
X140080964Y-55607295D01*
X140080964Y-55607295D02*
X140004774Y-55569200D01*
X140004774Y-55569200D02*
X139966678Y-55531104D01*
X150450583Y-37408247D02*
X150183917Y-37408247D01*
X150183917Y-37827295D02*
X150183917Y-37027295D01*
X150183917Y-37027295D02*
X150564869Y-37027295D01*
X151212488Y-37293961D02*
X151212488Y-37827295D01*
X151022012Y-36989200D02*
X150831535Y-37560628D01*
X150831535Y-37560628D02*
X151326774Y-37560628D01*
X150393440Y-52648247D02*
X150507726Y-52686342D01*
X150507726Y-52686342D02*
X150545821Y-52724438D01*
X150545821Y-52724438D02*
X150583917Y-52800628D01*
X150583917Y-52800628D02*
X150583917Y-52914914D01*
X150583917Y-52914914D02*
X150545821Y-52991104D01*
X150545821Y-52991104D02*
X150507726Y-53029200D01*
X150507726Y-53029200D02*
X150431536Y-53067295D01*
X150431536Y-53067295D02*
X150126774Y-53067295D01*
X150126774Y-53067295D02*
X150126774Y-52267295D01*
X150126774Y-52267295D02*
X150393440Y-52267295D01*
X150393440Y-52267295D02*
X150469631Y-52305390D01*
X150469631Y-52305390D02*
X150507726Y-52343485D01*
X150507726Y-52343485D02*
X150545821Y-52419676D01*
X150545821Y-52419676D02*
X150545821Y-52495866D01*
X150545821Y-52495866D02*
X150507726Y-52572057D01*
X150507726Y-52572057D02*
X150469631Y-52610152D01*
X150469631Y-52610152D02*
X150393440Y-52648247D01*
X150393440Y-52648247D02*
X150126774Y-52648247D01*
X150888678Y-52343485D02*
X150926774Y-52305390D01*
X150926774Y-52305390D02*
X151002964Y-52267295D01*
X151002964Y-52267295D02*
X151193440Y-52267295D01*
X151193440Y-52267295D02*
X151269631Y-52305390D01*
X151269631Y-52305390D02*
X151307726Y-52343485D01*
X151307726Y-52343485D02*
X151345821Y-52419676D01*
X151345821Y-52419676D02*
X151345821Y-52495866D01*
X151345821Y-52495866D02*
X151307726Y-52610152D01*
X151307726Y-52610152D02*
X150850583Y-53067295D01*
X150850583Y-53067295D02*
X151345821Y-53067295D01*
X150107726Y-29445390D02*
X150031536Y-29407295D01*
X150031536Y-29407295D02*
X149917250Y-29407295D01*
X149917250Y-29407295D02*
X149802964Y-29445390D01*
X149802964Y-29445390D02*
X149726774Y-29521580D01*
X149726774Y-29521580D02*
X149688679Y-29597771D01*
X149688679Y-29597771D02*
X149650583Y-29750152D01*
X149650583Y-29750152D02*
X149650583Y-29864438D01*
X149650583Y-29864438D02*
X149688679Y-30016819D01*
X149688679Y-30016819D02*
X149726774Y-30093009D01*
X149726774Y-30093009D02*
X149802964Y-30169200D01*
X149802964Y-30169200D02*
X149917250Y-30207295D01*
X149917250Y-30207295D02*
X149993441Y-30207295D01*
X149993441Y-30207295D02*
X150107726Y-30169200D01*
X150107726Y-30169200D02*
X150145822Y-30131104D01*
X150145822Y-30131104D02*
X150145822Y-29864438D01*
X150145822Y-29864438D02*
X149993441Y-29864438D01*
X150488679Y-30207295D02*
X150488679Y-29407295D01*
X150488679Y-29407295D02*
X150945822Y-30207295D01*
X150945822Y-30207295D02*
X150945822Y-29407295D01*
X151326774Y-30207295D02*
X151326774Y-29407295D01*
X151326774Y-29407295D02*
X151517250Y-29407295D01*
X151517250Y-29407295D02*
X151631536Y-29445390D01*
X151631536Y-29445390D02*
X151707726Y-29521580D01*
X151707726Y-29521580D02*
X151745821Y-29597771D01*
X151745821Y-29597771D02*
X151783917Y-29750152D01*
X151783917Y-29750152D02*
X151783917Y-29864438D01*
X151783917Y-29864438D02*
X151745821Y-30016819D01*
X151745821Y-30016819D02*
X151707726Y-30093009D01*
X151707726Y-30093009D02*
X151631536Y-30169200D01*
X151631536Y-30169200D02*
X151517250Y-30207295D01*
X151517250Y-30207295D02*
X151326774Y-30207295D01*
X150393440Y-55188247D02*
X150507726Y-55226342D01*
X150507726Y-55226342D02*
X150545821Y-55264438D01*
X150545821Y-55264438D02*
X150583917Y-55340628D01*
X150583917Y-55340628D02*
X150583917Y-55454914D01*
X150583917Y-55454914D02*
X150545821Y-55531104D01*
X150545821Y-55531104D02*
X150507726Y-55569200D01*
X150507726Y-55569200D02*
X150431536Y-55607295D01*
X150431536Y-55607295D02*
X150126774Y-55607295D01*
X150126774Y-55607295D02*
X150126774Y-54807295D01*
X150126774Y-54807295D02*
X150393440Y-54807295D01*
X150393440Y-54807295D02*
X150469631Y-54845390D01*
X150469631Y-54845390D02*
X150507726Y-54883485D01*
X150507726Y-54883485D02*
X150545821Y-54959676D01*
X150545821Y-54959676D02*
X150545821Y-55035866D01*
X150545821Y-55035866D02*
X150507726Y-55112057D01*
X150507726Y-55112057D02*
X150469631Y-55150152D01*
X150469631Y-55150152D02*
X150393440Y-55188247D01*
X150393440Y-55188247D02*
X150126774Y-55188247D01*
X151269631Y-54807295D02*
X151117250Y-54807295D01*
X151117250Y-54807295D02*
X151041059Y-54845390D01*
X151041059Y-54845390D02*
X151002964Y-54883485D01*
X151002964Y-54883485D02*
X150926774Y-54997771D01*
X150926774Y-54997771D02*
X150888678Y-55150152D01*
X150888678Y-55150152D02*
X150888678Y-55454914D01*
X150888678Y-55454914D02*
X150926774Y-55531104D01*
X150926774Y-55531104D02*
X150964869Y-55569200D01*
X150964869Y-55569200D02*
X151041059Y-55607295D01*
X151041059Y-55607295D02*
X151193440Y-55607295D01*
X151193440Y-55607295D02*
X151269631Y-55569200D01*
X151269631Y-55569200D02*
X151307726Y-55531104D01*
X151307726Y-55531104D02*
X151345821Y-55454914D01*
X151345821Y-55454914D02*
X151345821Y-55264438D01*
X151345821Y-55264438D02*
X151307726Y-55188247D01*
X151307726Y-55188247D02*
X151269631Y-55150152D01*
X151269631Y-55150152D02*
X151193440Y-55112057D01*
X151193440Y-55112057D02*
X151041059Y-55112057D01*
X151041059Y-55112057D02*
X150964869Y-55150152D01*
X150964869Y-55150152D02*
X150926774Y-55188247D01*
X150926774Y-55188247D02*
X150888678Y-55264438D01*
X139204774Y-37827295D02*
X139204774Y-37027295D01*
X139204774Y-37027295D02*
X139395250Y-37027295D01*
X139395250Y-37027295D02*
X139509536Y-37065390D01*
X139509536Y-37065390D02*
X139585726Y-37141580D01*
X139585726Y-37141580D02*
X139623821Y-37217771D01*
X139623821Y-37217771D02*
X139661917Y-37370152D01*
X139661917Y-37370152D02*
X139661917Y-37484438D01*
X139661917Y-37484438D02*
X139623821Y-37636819D01*
X139623821Y-37636819D02*
X139585726Y-37713009D01*
X139585726Y-37713009D02*
X139509536Y-37789200D01*
X139509536Y-37789200D02*
X139395250Y-37827295D01*
X139395250Y-37827295D02*
X139204774Y-37827295D01*
X140423821Y-37827295D02*
X139966678Y-37827295D01*
X140195250Y-37827295D02*
X140195250Y-37027295D01*
X140195250Y-37027295D02*
X140119059Y-37141580D01*
X140119059Y-37141580D02*
X140042869Y-37217771D01*
X140042869Y-37217771D02*
X139966678Y-37255866D01*
X139204774Y-47987295D02*
X139204774Y-47187295D01*
X139204774Y-47187295D02*
X139395250Y-47187295D01*
X139395250Y-47187295D02*
X139509536Y-47225390D01*
X139509536Y-47225390D02*
X139585726Y-47301580D01*
X139585726Y-47301580D02*
X139623821Y-47377771D01*
X139623821Y-47377771D02*
X139661917Y-47530152D01*
X139661917Y-47530152D02*
X139661917Y-47644438D01*
X139661917Y-47644438D02*
X139623821Y-47796819D01*
X139623821Y-47796819D02*
X139585726Y-47873009D01*
X139585726Y-47873009D02*
X139509536Y-47949200D01*
X139509536Y-47949200D02*
X139395250Y-47987295D01*
X139395250Y-47987295D02*
X139204774Y-47987295D01*
X139928583Y-47187295D02*
X140461917Y-47187295D01*
X140461917Y-47187295D02*
X140119059Y-47987295D01*
X139471440Y-52648247D02*
X139585726Y-52686342D01*
X139585726Y-52686342D02*
X139623821Y-52724438D01*
X139623821Y-52724438D02*
X139661917Y-52800628D01*
X139661917Y-52800628D02*
X139661917Y-52914914D01*
X139661917Y-52914914D02*
X139623821Y-52991104D01*
X139623821Y-52991104D02*
X139585726Y-53029200D01*
X139585726Y-53029200D02*
X139509536Y-53067295D01*
X139509536Y-53067295D02*
X139204774Y-53067295D01*
X139204774Y-53067295D02*
X139204774Y-52267295D01*
X139204774Y-52267295D02*
X139471440Y-52267295D01*
X139471440Y-52267295D02*
X139547631Y-52305390D01*
X139547631Y-52305390D02*
X139585726Y-52343485D01*
X139585726Y-52343485D02*
X139623821Y-52419676D01*
X139623821Y-52419676D02*
X139623821Y-52495866D01*
X139623821Y-52495866D02*
X139585726Y-52572057D01*
X139585726Y-52572057D02*
X139547631Y-52610152D01*
X139547631Y-52610152D02*
X139471440Y-52648247D01*
X139471440Y-52648247D02*
X139204774Y-52648247D01*
X140347631Y-52533961D02*
X140347631Y-53067295D01*
X140157155Y-52229200D02*
X139966678Y-52800628D01*
X139966678Y-52800628D02*
X140461917Y-52800628D01*
X139204774Y-40367295D02*
X139204774Y-39567295D01*
X139204774Y-39567295D02*
X139395250Y-39567295D01*
X139395250Y-39567295D02*
X139509536Y-39605390D01*
X139509536Y-39605390D02*
X139585726Y-39681580D01*
X139585726Y-39681580D02*
X139623821Y-39757771D01*
X139623821Y-39757771D02*
X139661917Y-39910152D01*
X139661917Y-39910152D02*
X139661917Y-40024438D01*
X139661917Y-40024438D02*
X139623821Y-40176819D01*
X139623821Y-40176819D02*
X139585726Y-40253009D01*
X139585726Y-40253009D02*
X139509536Y-40329200D01*
X139509536Y-40329200D02*
X139395250Y-40367295D01*
X139395250Y-40367295D02*
X139204774Y-40367295D01*
X140157155Y-39567295D02*
X140233345Y-39567295D01*
X140233345Y-39567295D02*
X140309536Y-39605390D01*
X140309536Y-39605390D02*
X140347631Y-39643485D01*
X140347631Y-39643485D02*
X140385726Y-39719676D01*
X140385726Y-39719676D02*
X140423821Y-39872057D01*
X140423821Y-39872057D02*
X140423821Y-40062533D01*
X140423821Y-40062533D02*
X140385726Y-40214914D01*
X140385726Y-40214914D02*
X140347631Y-40291104D01*
X140347631Y-40291104D02*
X140309536Y-40329200D01*
X140309536Y-40329200D02*
X140233345Y-40367295D01*
X140233345Y-40367295D02*
X140157155Y-40367295D01*
X140157155Y-40367295D02*
X140080964Y-40329200D01*
X140080964Y-40329200D02*
X140042869Y-40291104D01*
X140042869Y-40291104D02*
X140004774Y-40214914D01*
X140004774Y-40214914D02*
X139966678Y-40062533D01*
X139966678Y-40062533D02*
X139966678Y-39872057D01*
X139966678Y-39872057D02*
X140004774Y-39719676D01*
X140004774Y-39719676D02*
X140042869Y-39643485D01*
X140042869Y-39643485D02*
X140080964Y-39605390D01*
X140080964Y-39605390D02*
X140157155Y-39567295D01*
X249960267Y-78132200D02*
X250103124Y-78179819D01*
X250103124Y-78179819D02*
X250341219Y-78179819D01*
X250341219Y-78179819D02*
X250436457Y-78132200D01*
X250436457Y-78132200D02*
X250484076Y-78084580D01*
X250484076Y-78084580D02*
X250531695Y-77989342D01*
X250531695Y-77989342D02*
X250531695Y-77894104D01*
X250531695Y-77894104D02*
X250484076Y-77798866D01*
X250484076Y-77798866D02*
X250436457Y-77751247D01*
X250436457Y-77751247D02*
X250341219Y-77703628D01*
X250341219Y-77703628D02*
X250150743Y-77656009D01*
X250150743Y-77656009D02*
X250055505Y-77608390D01*
X250055505Y-77608390D02*
X250007886Y-77560771D01*
X250007886Y-77560771D02*
X249960267Y-77465533D01*
X249960267Y-77465533D02*
X249960267Y-77370295D01*
X249960267Y-77370295D02*
X250007886Y-77275057D01*
X250007886Y-77275057D02*
X250055505Y-77227438D01*
X250055505Y-77227438D02*
X250150743Y-77179819D01*
X250150743Y-77179819D02*
X250388838Y-77179819D01*
X250388838Y-77179819D02*
X250531695Y-77227438D01*
X251388838Y-77513152D02*
X251388838Y-78179819D01*
X251150743Y-77132200D02*
X250912648Y-77846485D01*
X250912648Y-77846485D02*
X251531695Y-77846485D01*
X252341219Y-77179819D02*
X252150743Y-77179819D01*
X252150743Y-77179819D02*
X252055505Y-77227438D01*
X252055505Y-77227438D02*
X252007886Y-77275057D01*
X252007886Y-77275057D02*
X251912648Y-77417914D01*
X251912648Y-77417914D02*
X251865029Y-77608390D01*
X251865029Y-77608390D02*
X251865029Y-77989342D01*
X251865029Y-77989342D02*
X251912648Y-78084580D01*
X251912648Y-78084580D02*
X251960267Y-78132200D01*
X251960267Y-78132200D02*
X252055505Y-78179819D01*
X252055505Y-78179819D02*
X252245981Y-78179819D01*
X252245981Y-78179819D02*
X252341219Y-78132200D01*
X252341219Y-78132200D02*
X252388838Y-78084580D01*
X252388838Y-78084580D02*
X252436457Y-77989342D01*
X252436457Y-77989342D02*
X252436457Y-77751247D01*
X252436457Y-77751247D02*
X252388838Y-77656009D01*
X252388838Y-77656009D02*
X252341219Y-77608390D01*
X252341219Y-77608390D02*
X252245981Y-77560771D01*
X252245981Y-77560771D02*
X252055505Y-77560771D01*
X252055505Y-77560771D02*
X251960267Y-77608390D01*
X251960267Y-77608390D02*
X251912648Y-77656009D01*
X251912648Y-77656009D02*
X251865029Y-77751247D01*
X297585267Y-63844700D02*
X297728124Y-63892319D01*
X297728124Y-63892319D02*
X297966219Y-63892319D01*
X297966219Y-63892319D02*
X298061457Y-63844700D01*
X298061457Y-63844700D02*
X298109076Y-63797080D01*
X298109076Y-63797080D02*
X298156695Y-63701842D01*
X298156695Y-63701842D02*
X298156695Y-63606604D01*
X298156695Y-63606604D02*
X298109076Y-63511366D01*
X298109076Y-63511366D02*
X298061457Y-63463747D01*
X298061457Y-63463747D02*
X297966219Y-63416128D01*
X297966219Y-63416128D02*
X297775743Y-63368509D01*
X297775743Y-63368509D02*
X297680505Y-63320890D01*
X297680505Y-63320890D02*
X297632886Y-63273271D01*
X297632886Y-63273271D02*
X297585267Y-63178033D01*
X297585267Y-63178033D02*
X297585267Y-63082795D01*
X297585267Y-63082795D02*
X297632886Y-62987557D01*
X297632886Y-62987557D02*
X297680505Y-62939938D01*
X297680505Y-62939938D02*
X297775743Y-62892319D01*
X297775743Y-62892319D02*
X298013838Y-62892319D01*
X298013838Y-62892319D02*
X298156695Y-62939938D01*
X299013838Y-63225652D02*
X299013838Y-63892319D01*
X298775743Y-62844700D02*
X298537648Y-63558985D01*
X298537648Y-63558985D02*
X299156695Y-63558985D01*
X299490029Y-62987557D02*
X299537648Y-62939938D01*
X299537648Y-62939938D02*
X299632886Y-62892319D01*
X299632886Y-62892319D02*
X299870981Y-62892319D01*
X299870981Y-62892319D02*
X299966219Y-62939938D01*
X299966219Y-62939938D02*
X300013838Y-62987557D01*
X300013838Y-62987557D02*
X300061457Y-63082795D01*
X300061457Y-63082795D02*
X300061457Y-63178033D01*
X300061457Y-63178033D02*
X300013838Y-63320890D01*
X300013838Y-63320890D02*
X299442410Y-63892319D01*
X299442410Y-63892319D02*
X300061457Y-63892319D01*
X103536905Y-40032200D02*
X103679762Y-40079819D01*
X103679762Y-40079819D02*
X103917857Y-40079819D01*
X103917857Y-40079819D02*
X104013095Y-40032200D01*
X104013095Y-40032200D02*
X104060714Y-39984580D01*
X104060714Y-39984580D02*
X104108333Y-39889342D01*
X104108333Y-39889342D02*
X104108333Y-39794104D01*
X104108333Y-39794104D02*
X104060714Y-39698866D01*
X104060714Y-39698866D02*
X104013095Y-39651247D01*
X104013095Y-39651247D02*
X103917857Y-39603628D01*
X103917857Y-39603628D02*
X103727381Y-39556009D01*
X103727381Y-39556009D02*
X103632143Y-39508390D01*
X103632143Y-39508390D02*
X103584524Y-39460771D01*
X103584524Y-39460771D02*
X103536905Y-39365533D01*
X103536905Y-39365533D02*
X103536905Y-39270295D01*
X103536905Y-39270295D02*
X103584524Y-39175057D01*
X103584524Y-39175057D02*
X103632143Y-39127438D01*
X103632143Y-39127438D02*
X103727381Y-39079819D01*
X103727381Y-39079819D02*
X103965476Y-39079819D01*
X103965476Y-39079819D02*
X104108333Y-39127438D01*
X105060714Y-40079819D02*
X104489286Y-40079819D01*
X104775000Y-40079819D02*
X104775000Y-39079819D01*
X104775000Y-39079819D02*
X104679762Y-39222676D01*
X104679762Y-39222676D02*
X104584524Y-39317914D01*
X104584524Y-39317914D02*
X104489286Y-39365533D01*
X106013095Y-40079819D02*
X105441667Y-40079819D01*
X105727381Y-40079819D02*
X105727381Y-39079819D01*
X105727381Y-39079819D02*
X105632143Y-39222676D01*
X105632143Y-39222676D02*
X105536905Y-39317914D01*
X105536905Y-39317914D02*
X105441667Y-39365533D01*
X141636905Y-59082200D02*
X141779762Y-59129819D01*
X141779762Y-59129819D02*
X142017857Y-59129819D01*
X142017857Y-59129819D02*
X142113095Y-59082200D01*
X142113095Y-59082200D02*
X142160714Y-59034580D01*
X142160714Y-59034580D02*
X142208333Y-58939342D01*
X142208333Y-58939342D02*
X142208333Y-58844104D01*
X142208333Y-58844104D02*
X142160714Y-58748866D01*
X142160714Y-58748866D02*
X142113095Y-58701247D01*
X142113095Y-58701247D02*
X142017857Y-58653628D01*
X142017857Y-58653628D02*
X141827381Y-58606009D01*
X141827381Y-58606009D02*
X141732143Y-58558390D01*
X141732143Y-58558390D02*
X141684524Y-58510771D01*
X141684524Y-58510771D02*
X141636905Y-58415533D01*
X141636905Y-58415533D02*
X141636905Y-58320295D01*
X141636905Y-58320295D02*
X141684524Y-58225057D01*
X141684524Y-58225057D02*
X141732143Y-58177438D01*
X141732143Y-58177438D02*
X141827381Y-58129819D01*
X141827381Y-58129819D02*
X142065476Y-58129819D01*
X142065476Y-58129819D02*
X142208333Y-58177438D01*
X143160714Y-59129819D02*
X142589286Y-59129819D01*
X142875000Y-59129819D02*
X142875000Y-58129819D01*
X142875000Y-58129819D02*
X142779762Y-58272676D01*
X142779762Y-58272676D02*
X142684524Y-58367914D01*
X142684524Y-58367914D02*
X142589286Y-58415533D01*
X143636905Y-59129819D02*
X143827381Y-59129819D01*
X143827381Y-59129819D02*
X143922619Y-59082200D01*
X143922619Y-59082200D02*
X143970238Y-59034580D01*
X143970238Y-59034580D02*
X144065476Y-58891723D01*
X144065476Y-58891723D02*
X144113095Y-58701247D01*
X144113095Y-58701247D02*
X144113095Y-58320295D01*
X144113095Y-58320295D02*
X144065476Y-58225057D01*
X144065476Y-58225057D02*
X144017857Y-58177438D01*
X144017857Y-58177438D02*
X143922619Y-58129819D01*
X143922619Y-58129819D02*
X143732143Y-58129819D01*
X143732143Y-58129819D02*
X143636905Y-58177438D01*
X143636905Y-58177438D02*
X143589286Y-58225057D01*
X143589286Y-58225057D02*
X143541667Y-58320295D01*
X143541667Y-58320295D02*
X143541667Y-58558390D01*
X143541667Y-58558390D02*
X143589286Y-58653628D01*
X143589286Y-58653628D02*
X143636905Y-58701247D01*
X143636905Y-58701247D02*
X143732143Y-58748866D01*
X143732143Y-58748866D02*
X143922619Y-58748866D01*
X143922619Y-58748866D02*
X144017857Y-58701247D01*
X144017857Y-58701247D02*
X144065476Y-58653628D01*
X144065476Y-58653628D02*
X144113095Y-58558390D01*
X259485267Y-59082200D02*
X259628124Y-59129819D01*
X259628124Y-59129819D02*
X259866219Y-59129819D01*
X259866219Y-59129819D02*
X259961457Y-59082200D01*
X259961457Y-59082200D02*
X260009076Y-59034580D01*
X260009076Y-59034580D02*
X260056695Y-58939342D01*
X260056695Y-58939342D02*
X260056695Y-58844104D01*
X260056695Y-58844104D02*
X260009076Y-58748866D01*
X260009076Y-58748866D02*
X259961457Y-58701247D01*
X259961457Y-58701247D02*
X259866219Y-58653628D01*
X259866219Y-58653628D02*
X259675743Y-58606009D01*
X259675743Y-58606009D02*
X259580505Y-58558390D01*
X259580505Y-58558390D02*
X259532886Y-58510771D01*
X259532886Y-58510771D02*
X259485267Y-58415533D01*
X259485267Y-58415533D02*
X259485267Y-58320295D01*
X259485267Y-58320295D02*
X259532886Y-58225057D01*
X259532886Y-58225057D02*
X259580505Y-58177438D01*
X259580505Y-58177438D02*
X259675743Y-58129819D01*
X259675743Y-58129819D02*
X259913838Y-58129819D01*
X259913838Y-58129819D02*
X260056695Y-58177438D01*
X260913838Y-58463152D02*
X260913838Y-59129819D01*
X260675743Y-58082200D02*
X260437648Y-58796485D01*
X260437648Y-58796485D02*
X261056695Y-58796485D01*
X261628124Y-58129819D02*
X261723362Y-58129819D01*
X261723362Y-58129819D02*
X261818600Y-58177438D01*
X261818600Y-58177438D02*
X261866219Y-58225057D01*
X261866219Y-58225057D02*
X261913838Y-58320295D01*
X261913838Y-58320295D02*
X261961457Y-58510771D01*
X261961457Y-58510771D02*
X261961457Y-58748866D01*
X261961457Y-58748866D02*
X261913838Y-58939342D01*
X261913838Y-58939342D02*
X261866219Y-59034580D01*
X261866219Y-59034580D02*
X261818600Y-59082200D01*
X261818600Y-59082200D02*
X261723362Y-59129819D01*
X261723362Y-59129819D02*
X261628124Y-59129819D01*
X261628124Y-59129819D02*
X261532886Y-59082200D01*
X261532886Y-59082200D02*
X261485267Y-59034580D01*
X261485267Y-59034580D02*
X261437648Y-58939342D01*
X261437648Y-58939342D02*
X261390029Y-58748866D01*
X261390029Y-58748866D02*
X261390029Y-58510771D01*
X261390029Y-58510771D02*
X261437648Y-58320295D01*
X261437648Y-58320295D02*
X261485267Y-58225057D01*
X261485267Y-58225057D02*
X261532886Y-58177438D01*
X261532886Y-58177438D02*
X261628124Y-58129819D01*
X27813095Y-25744700D02*
X27955952Y-25792319D01*
X27955952Y-25792319D02*
X28194047Y-25792319D01*
X28194047Y-25792319D02*
X28289285Y-25744700D01*
X28289285Y-25744700D02*
X28336904Y-25697080D01*
X28336904Y-25697080D02*
X28384523Y-25601842D01*
X28384523Y-25601842D02*
X28384523Y-25506604D01*
X28384523Y-25506604D02*
X28336904Y-25411366D01*
X28336904Y-25411366D02*
X28289285Y-25363747D01*
X28289285Y-25363747D02*
X28194047Y-25316128D01*
X28194047Y-25316128D02*
X28003571Y-25268509D01*
X28003571Y-25268509D02*
X27908333Y-25220890D01*
X27908333Y-25220890D02*
X27860714Y-25173271D01*
X27860714Y-25173271D02*
X27813095Y-25078033D01*
X27813095Y-25078033D02*
X27813095Y-24982795D01*
X27813095Y-24982795D02*
X27860714Y-24887557D01*
X27860714Y-24887557D02*
X27908333Y-24839938D01*
X27908333Y-24839938D02*
X28003571Y-24792319D01*
X28003571Y-24792319D02*
X28241666Y-24792319D01*
X28241666Y-24792319D02*
X28384523Y-24839938D01*
X29336904Y-25792319D02*
X28765476Y-25792319D01*
X29051190Y-25792319D02*
X29051190Y-24792319D01*
X29051190Y-24792319D02*
X28955952Y-24935176D01*
X28955952Y-24935176D02*
X28860714Y-25030414D01*
X28860714Y-25030414D02*
X28765476Y-25078033D01*
X122586905Y-44794700D02*
X122729762Y-44842319D01*
X122729762Y-44842319D02*
X122967857Y-44842319D01*
X122967857Y-44842319D02*
X123063095Y-44794700D01*
X123063095Y-44794700D02*
X123110714Y-44747080D01*
X123110714Y-44747080D02*
X123158333Y-44651842D01*
X123158333Y-44651842D02*
X123158333Y-44556604D01*
X123158333Y-44556604D02*
X123110714Y-44461366D01*
X123110714Y-44461366D02*
X123063095Y-44413747D01*
X123063095Y-44413747D02*
X122967857Y-44366128D01*
X122967857Y-44366128D02*
X122777381Y-44318509D01*
X122777381Y-44318509D02*
X122682143Y-44270890D01*
X122682143Y-44270890D02*
X122634524Y-44223271D01*
X122634524Y-44223271D02*
X122586905Y-44128033D01*
X122586905Y-44128033D02*
X122586905Y-44032795D01*
X122586905Y-44032795D02*
X122634524Y-43937557D01*
X122634524Y-43937557D02*
X122682143Y-43889938D01*
X122682143Y-43889938D02*
X122777381Y-43842319D01*
X122777381Y-43842319D02*
X123015476Y-43842319D01*
X123015476Y-43842319D02*
X123158333Y-43889938D01*
X124110714Y-44842319D02*
X123539286Y-44842319D01*
X123825000Y-44842319D02*
X123825000Y-43842319D01*
X123825000Y-43842319D02*
X123729762Y-43985176D01*
X123729762Y-43985176D02*
X123634524Y-44080414D01*
X123634524Y-44080414D02*
X123539286Y-44128033D01*
X124491667Y-43937557D02*
X124539286Y-43889938D01*
X124539286Y-43889938D02*
X124634524Y-43842319D01*
X124634524Y-43842319D02*
X124872619Y-43842319D01*
X124872619Y-43842319D02*
X124967857Y-43889938D01*
X124967857Y-43889938D02*
X125015476Y-43937557D01*
X125015476Y-43937557D02*
X125063095Y-44032795D01*
X125063095Y-44032795D02*
X125063095Y-44128033D01*
X125063095Y-44128033D02*
X125015476Y-44270890D01*
X125015476Y-44270890D02*
X124444048Y-44842319D01*
X124444048Y-44842319D02*
X125063095Y-44842319D01*
X202335267Y-63844700D02*
X202478124Y-63892319D01*
X202478124Y-63892319D02*
X202716219Y-63892319D01*
X202716219Y-63892319D02*
X202811457Y-63844700D01*
X202811457Y-63844700D02*
X202859076Y-63797080D01*
X202859076Y-63797080D02*
X202906695Y-63701842D01*
X202906695Y-63701842D02*
X202906695Y-63606604D01*
X202906695Y-63606604D02*
X202859076Y-63511366D01*
X202859076Y-63511366D02*
X202811457Y-63463747D01*
X202811457Y-63463747D02*
X202716219Y-63416128D01*
X202716219Y-63416128D02*
X202525743Y-63368509D01*
X202525743Y-63368509D02*
X202430505Y-63320890D01*
X202430505Y-63320890D02*
X202382886Y-63273271D01*
X202382886Y-63273271D02*
X202335267Y-63178033D01*
X202335267Y-63178033D02*
X202335267Y-63082795D01*
X202335267Y-63082795D02*
X202382886Y-62987557D01*
X202382886Y-62987557D02*
X202430505Y-62939938D01*
X202430505Y-62939938D02*
X202525743Y-62892319D01*
X202525743Y-62892319D02*
X202763838Y-62892319D01*
X202763838Y-62892319D02*
X202906695Y-62939938D01*
X203240029Y-62892319D02*
X203859076Y-62892319D01*
X203859076Y-62892319D02*
X203525743Y-63273271D01*
X203525743Y-63273271D02*
X203668600Y-63273271D01*
X203668600Y-63273271D02*
X203763838Y-63320890D01*
X203763838Y-63320890D02*
X203811457Y-63368509D01*
X203811457Y-63368509D02*
X203859076Y-63463747D01*
X203859076Y-63463747D02*
X203859076Y-63701842D01*
X203859076Y-63701842D02*
X203811457Y-63797080D01*
X203811457Y-63797080D02*
X203763838Y-63844700D01*
X203763838Y-63844700D02*
X203668600Y-63892319D01*
X203668600Y-63892319D02*
X203382886Y-63892319D01*
X203382886Y-63892319D02*
X203287648Y-63844700D01*
X203287648Y-63844700D02*
X203240029Y-63797080D01*
X204192410Y-62892319D02*
X204859076Y-62892319D01*
X204859076Y-62892319D02*
X204430505Y-63892319D01*
X202335267Y-25744700D02*
X202478124Y-25792319D01*
X202478124Y-25792319D02*
X202716219Y-25792319D01*
X202716219Y-25792319D02*
X202811457Y-25744700D01*
X202811457Y-25744700D02*
X202859076Y-25697080D01*
X202859076Y-25697080D02*
X202906695Y-25601842D01*
X202906695Y-25601842D02*
X202906695Y-25506604D01*
X202906695Y-25506604D02*
X202859076Y-25411366D01*
X202859076Y-25411366D02*
X202811457Y-25363747D01*
X202811457Y-25363747D02*
X202716219Y-25316128D01*
X202716219Y-25316128D02*
X202525743Y-25268509D01*
X202525743Y-25268509D02*
X202430505Y-25220890D01*
X202430505Y-25220890D02*
X202382886Y-25173271D01*
X202382886Y-25173271D02*
X202335267Y-25078033D01*
X202335267Y-25078033D02*
X202335267Y-24982795D01*
X202335267Y-24982795D02*
X202382886Y-24887557D01*
X202382886Y-24887557D02*
X202430505Y-24839938D01*
X202430505Y-24839938D02*
X202525743Y-24792319D01*
X202525743Y-24792319D02*
X202763838Y-24792319D01*
X202763838Y-24792319D02*
X202906695Y-24839938D01*
X203287648Y-24887557D02*
X203335267Y-24839938D01*
X203335267Y-24839938D02*
X203430505Y-24792319D01*
X203430505Y-24792319D02*
X203668600Y-24792319D01*
X203668600Y-24792319D02*
X203763838Y-24839938D01*
X203763838Y-24839938D02*
X203811457Y-24887557D01*
X203811457Y-24887557D02*
X203859076Y-24982795D01*
X203859076Y-24982795D02*
X203859076Y-25078033D01*
X203859076Y-25078033D02*
X203811457Y-25220890D01*
X203811457Y-25220890D02*
X203240029Y-25792319D01*
X203240029Y-25792319D02*
X203859076Y-25792319D01*
X204716219Y-25125652D02*
X204716219Y-25792319D01*
X204478124Y-24744700D02*
X204240029Y-25458985D01*
X204240029Y-25458985D02*
X204859076Y-25458985D01*
X221385267Y-20982200D02*
X221528124Y-21029819D01*
X221528124Y-21029819D02*
X221766219Y-21029819D01*
X221766219Y-21029819D02*
X221861457Y-20982200D01*
X221861457Y-20982200D02*
X221909076Y-20934580D01*
X221909076Y-20934580D02*
X221956695Y-20839342D01*
X221956695Y-20839342D02*
X221956695Y-20744104D01*
X221956695Y-20744104D02*
X221909076Y-20648866D01*
X221909076Y-20648866D02*
X221861457Y-20601247D01*
X221861457Y-20601247D02*
X221766219Y-20553628D01*
X221766219Y-20553628D02*
X221575743Y-20506009D01*
X221575743Y-20506009D02*
X221480505Y-20458390D01*
X221480505Y-20458390D02*
X221432886Y-20410771D01*
X221432886Y-20410771D02*
X221385267Y-20315533D01*
X221385267Y-20315533D02*
X221385267Y-20220295D01*
X221385267Y-20220295D02*
X221432886Y-20125057D01*
X221432886Y-20125057D02*
X221480505Y-20077438D01*
X221480505Y-20077438D02*
X221575743Y-20029819D01*
X221575743Y-20029819D02*
X221813838Y-20029819D01*
X221813838Y-20029819D02*
X221956695Y-20077438D01*
X222337648Y-20125057D02*
X222385267Y-20077438D01*
X222385267Y-20077438D02*
X222480505Y-20029819D01*
X222480505Y-20029819D02*
X222718600Y-20029819D01*
X222718600Y-20029819D02*
X222813838Y-20077438D01*
X222813838Y-20077438D02*
X222861457Y-20125057D01*
X222861457Y-20125057D02*
X222909076Y-20220295D01*
X222909076Y-20220295D02*
X222909076Y-20315533D01*
X222909076Y-20315533D02*
X222861457Y-20458390D01*
X222861457Y-20458390D02*
X222290029Y-21029819D01*
X222290029Y-21029819D02*
X222909076Y-21029819D01*
X223813838Y-20029819D02*
X223337648Y-20029819D01*
X223337648Y-20029819D02*
X223290029Y-20506009D01*
X223290029Y-20506009D02*
X223337648Y-20458390D01*
X223337648Y-20458390D02*
X223432886Y-20410771D01*
X223432886Y-20410771D02*
X223670981Y-20410771D01*
X223670981Y-20410771D02*
X223766219Y-20458390D01*
X223766219Y-20458390D02*
X223813838Y-20506009D01*
X223813838Y-20506009D02*
X223861457Y-20601247D01*
X223861457Y-20601247D02*
X223861457Y-20839342D01*
X223861457Y-20839342D02*
X223813838Y-20934580D01*
X223813838Y-20934580D02*
X223766219Y-20982200D01*
X223766219Y-20982200D02*
X223670981Y-21029819D01*
X223670981Y-21029819D02*
X223432886Y-21029819D01*
X223432886Y-21029819D02*
X223337648Y-20982200D01*
X223337648Y-20982200D02*
X223290029Y-20934580D01*
X145684970Y-81417319D02*
X145684970Y-80417319D01*
X145684970Y-80893509D02*
X146256398Y-80893509D01*
X146256398Y-81417319D02*
X146256398Y-80417319D01*
X146637351Y-80417319D02*
X147256398Y-80417319D01*
X147256398Y-80417319D02*
X146923065Y-80798271D01*
X146923065Y-80798271D02*
X147065922Y-80798271D01*
X147065922Y-80798271D02*
X147161160Y-80845890D01*
X147161160Y-80845890D02*
X147208779Y-80893509D01*
X147208779Y-80893509D02*
X147256398Y-80988747D01*
X147256398Y-80988747D02*
X147256398Y-81226842D01*
X147256398Y-81226842D02*
X147208779Y-81322080D01*
X147208779Y-81322080D02*
X147161160Y-81369700D01*
X147161160Y-81369700D02*
X147065922Y-81417319D01*
X147065922Y-81417319D02*
X146780208Y-81417319D01*
X146780208Y-81417319D02*
X146684970Y-81369700D01*
X146684970Y-81369700D02*
X146637351Y-81322080D01*
X228552530Y-98086069D02*
X228552530Y-97086069D01*
X228552530Y-97562259D02*
X229123958Y-97562259D01*
X229123958Y-98086069D02*
X229123958Y-97086069D01*
X230123958Y-98086069D02*
X229552530Y-98086069D01*
X229838244Y-98086069D02*
X229838244Y-97086069D01*
X229838244Y-97086069D02*
X229743006Y-97228926D01*
X229743006Y-97228926D02*
X229647768Y-97324164D01*
X229647768Y-97324164D02*
X229552530Y-97371783D01*
X231076339Y-98086069D02*
X230504911Y-98086069D01*
X230790625Y-98086069D02*
X230790625Y-97086069D01*
X230790625Y-97086069D02*
X230695387Y-97228926D01*
X230695387Y-97228926D02*
X230600149Y-97324164D01*
X230600149Y-97324164D02*
X230504911Y-97371783D01*
X259485267Y-40032200D02*
X259628124Y-40079819D01*
X259628124Y-40079819D02*
X259866219Y-40079819D01*
X259866219Y-40079819D02*
X259961457Y-40032200D01*
X259961457Y-40032200D02*
X260009076Y-39984580D01*
X260009076Y-39984580D02*
X260056695Y-39889342D01*
X260056695Y-39889342D02*
X260056695Y-39794104D01*
X260056695Y-39794104D02*
X260009076Y-39698866D01*
X260009076Y-39698866D02*
X259961457Y-39651247D01*
X259961457Y-39651247D02*
X259866219Y-39603628D01*
X259866219Y-39603628D02*
X259675743Y-39556009D01*
X259675743Y-39556009D02*
X259580505Y-39508390D01*
X259580505Y-39508390D02*
X259532886Y-39460771D01*
X259532886Y-39460771D02*
X259485267Y-39365533D01*
X259485267Y-39365533D02*
X259485267Y-39270295D01*
X259485267Y-39270295D02*
X259532886Y-39175057D01*
X259532886Y-39175057D02*
X259580505Y-39127438D01*
X259580505Y-39127438D02*
X259675743Y-39079819D01*
X259675743Y-39079819D02*
X259913838Y-39079819D01*
X259913838Y-39079819D02*
X260056695Y-39127438D01*
X260390029Y-39079819D02*
X261009076Y-39079819D01*
X261009076Y-39079819D02*
X260675743Y-39460771D01*
X260675743Y-39460771D02*
X260818600Y-39460771D01*
X260818600Y-39460771D02*
X260913838Y-39508390D01*
X260913838Y-39508390D02*
X260961457Y-39556009D01*
X260961457Y-39556009D02*
X261009076Y-39651247D01*
X261009076Y-39651247D02*
X261009076Y-39889342D01*
X261009076Y-39889342D02*
X260961457Y-39984580D01*
X260961457Y-39984580D02*
X260913838Y-40032200D01*
X260913838Y-40032200D02*
X260818600Y-40079819D01*
X260818600Y-40079819D02*
X260532886Y-40079819D01*
X260532886Y-40079819D02*
X260437648Y-40032200D01*
X260437648Y-40032200D02*
X260390029Y-39984580D01*
X261342410Y-39079819D02*
X261961457Y-39079819D01*
X261961457Y-39079819D02*
X261628124Y-39460771D01*
X261628124Y-39460771D02*
X261770981Y-39460771D01*
X261770981Y-39460771D02*
X261866219Y-39508390D01*
X261866219Y-39508390D02*
X261913838Y-39556009D01*
X261913838Y-39556009D02*
X261961457Y-39651247D01*
X261961457Y-39651247D02*
X261961457Y-39889342D01*
X261961457Y-39889342D02*
X261913838Y-39984580D01*
X261913838Y-39984580D02*
X261866219Y-40032200D01*
X261866219Y-40032200D02*
X261770981Y-40079819D01*
X261770981Y-40079819D02*
X261485267Y-40079819D01*
X261485267Y-40079819D02*
X261390029Y-40032200D01*
X261390029Y-40032200D02*
X261342410Y-39984580D01*
X54006845Y-21886069D02*
X54006845Y-20886069D01*
X54006845Y-21362259D02*
X54578273Y-21362259D01*
X54578273Y-21886069D02*
X54578273Y-20886069D01*
X55006845Y-20981307D02*
X55054464Y-20933688D01*
X55054464Y-20933688D02*
X55149702Y-20886069D01*
X55149702Y-20886069D02*
X55387797Y-20886069D01*
X55387797Y-20886069D02*
X55483035Y-20933688D01*
X55483035Y-20933688D02*
X55530654Y-20981307D01*
X55530654Y-20981307D02*
X55578273Y-21076545D01*
X55578273Y-21076545D02*
X55578273Y-21171783D01*
X55578273Y-21171783D02*
X55530654Y-21314640D01*
X55530654Y-21314640D02*
X54959226Y-21886069D01*
X54959226Y-21886069D02*
X55578273Y-21886069D01*
X221385267Y-59082200D02*
X221528124Y-59129819D01*
X221528124Y-59129819D02*
X221766219Y-59129819D01*
X221766219Y-59129819D02*
X221861457Y-59082200D01*
X221861457Y-59082200D02*
X221909076Y-59034580D01*
X221909076Y-59034580D02*
X221956695Y-58939342D01*
X221956695Y-58939342D02*
X221956695Y-58844104D01*
X221956695Y-58844104D02*
X221909076Y-58748866D01*
X221909076Y-58748866D02*
X221861457Y-58701247D01*
X221861457Y-58701247D02*
X221766219Y-58653628D01*
X221766219Y-58653628D02*
X221575743Y-58606009D01*
X221575743Y-58606009D02*
X221480505Y-58558390D01*
X221480505Y-58558390D02*
X221432886Y-58510771D01*
X221432886Y-58510771D02*
X221385267Y-58415533D01*
X221385267Y-58415533D02*
X221385267Y-58320295D01*
X221385267Y-58320295D02*
X221432886Y-58225057D01*
X221432886Y-58225057D02*
X221480505Y-58177438D01*
X221480505Y-58177438D02*
X221575743Y-58129819D01*
X221575743Y-58129819D02*
X221813838Y-58129819D01*
X221813838Y-58129819D02*
X221956695Y-58177438D01*
X222290029Y-58129819D02*
X222909076Y-58129819D01*
X222909076Y-58129819D02*
X222575743Y-58510771D01*
X222575743Y-58510771D02*
X222718600Y-58510771D01*
X222718600Y-58510771D02*
X222813838Y-58558390D01*
X222813838Y-58558390D02*
X222861457Y-58606009D01*
X222861457Y-58606009D02*
X222909076Y-58701247D01*
X222909076Y-58701247D02*
X222909076Y-58939342D01*
X222909076Y-58939342D02*
X222861457Y-59034580D01*
X222861457Y-59034580D02*
X222813838Y-59082200D01*
X222813838Y-59082200D02*
X222718600Y-59129819D01*
X222718600Y-59129819D02*
X222432886Y-59129819D01*
X222432886Y-59129819D02*
X222337648Y-59082200D01*
X222337648Y-59082200D02*
X222290029Y-59034580D01*
X223480505Y-58558390D02*
X223385267Y-58510771D01*
X223385267Y-58510771D02*
X223337648Y-58463152D01*
X223337648Y-58463152D02*
X223290029Y-58367914D01*
X223290029Y-58367914D02*
X223290029Y-58320295D01*
X223290029Y-58320295D02*
X223337648Y-58225057D01*
X223337648Y-58225057D02*
X223385267Y-58177438D01*
X223385267Y-58177438D02*
X223480505Y-58129819D01*
X223480505Y-58129819D02*
X223670981Y-58129819D01*
X223670981Y-58129819D02*
X223766219Y-58177438D01*
X223766219Y-58177438D02*
X223813838Y-58225057D01*
X223813838Y-58225057D02*
X223861457Y-58320295D01*
X223861457Y-58320295D02*
X223861457Y-58367914D01*
X223861457Y-58367914D02*
X223813838Y-58463152D01*
X223813838Y-58463152D02*
X223766219Y-58510771D01*
X223766219Y-58510771D02*
X223670981Y-58558390D01*
X223670981Y-58558390D02*
X223480505Y-58558390D01*
X223480505Y-58558390D02*
X223385267Y-58606009D01*
X223385267Y-58606009D02*
X223337648Y-58653628D01*
X223337648Y-58653628D02*
X223290029Y-58748866D01*
X223290029Y-58748866D02*
X223290029Y-58939342D01*
X223290029Y-58939342D02*
X223337648Y-59034580D01*
X223337648Y-59034580D02*
X223385267Y-59082200D01*
X223385267Y-59082200D02*
X223480505Y-59129819D01*
X223480505Y-59129819D02*
X223670981Y-59129819D01*
X223670981Y-59129819D02*
X223766219Y-59082200D01*
X223766219Y-59082200D02*
X223813838Y-59034580D01*
X223813838Y-59034580D02*
X223861457Y-58939342D01*
X223861457Y-58939342D02*
X223861457Y-58748866D01*
X223861457Y-58748866D02*
X223813838Y-58653628D01*
X223813838Y-58653628D02*
X223766219Y-58606009D01*
X223766219Y-58606009D02*
X223670981Y-58558390D01*
X27813095Y-44794700D02*
X27955952Y-44842319D01*
X27955952Y-44842319D02*
X28194047Y-44842319D01*
X28194047Y-44842319D02*
X28289285Y-44794700D01*
X28289285Y-44794700D02*
X28336904Y-44747080D01*
X28336904Y-44747080D02*
X28384523Y-44651842D01*
X28384523Y-44651842D02*
X28384523Y-44556604D01*
X28384523Y-44556604D02*
X28336904Y-44461366D01*
X28336904Y-44461366D02*
X28289285Y-44413747D01*
X28289285Y-44413747D02*
X28194047Y-44366128D01*
X28194047Y-44366128D02*
X28003571Y-44318509D01*
X28003571Y-44318509D02*
X27908333Y-44270890D01*
X27908333Y-44270890D02*
X27860714Y-44223271D01*
X27860714Y-44223271D02*
X27813095Y-44128033D01*
X27813095Y-44128033D02*
X27813095Y-44032795D01*
X27813095Y-44032795D02*
X27860714Y-43937557D01*
X27860714Y-43937557D02*
X27908333Y-43889938D01*
X27908333Y-43889938D02*
X28003571Y-43842319D01*
X28003571Y-43842319D02*
X28241666Y-43842319D01*
X28241666Y-43842319D02*
X28384523Y-43889938D01*
X28717857Y-43842319D02*
X29384523Y-43842319D01*
X29384523Y-43842319D02*
X28955952Y-44842319D01*
X183285267Y-59082200D02*
X183428124Y-59129819D01*
X183428124Y-59129819D02*
X183666219Y-59129819D01*
X183666219Y-59129819D02*
X183761457Y-59082200D01*
X183761457Y-59082200D02*
X183809076Y-59034580D01*
X183809076Y-59034580D02*
X183856695Y-58939342D01*
X183856695Y-58939342D02*
X183856695Y-58844104D01*
X183856695Y-58844104D02*
X183809076Y-58748866D01*
X183809076Y-58748866D02*
X183761457Y-58701247D01*
X183761457Y-58701247D02*
X183666219Y-58653628D01*
X183666219Y-58653628D02*
X183475743Y-58606009D01*
X183475743Y-58606009D02*
X183380505Y-58558390D01*
X183380505Y-58558390D02*
X183332886Y-58510771D01*
X183332886Y-58510771D02*
X183285267Y-58415533D01*
X183285267Y-58415533D02*
X183285267Y-58320295D01*
X183285267Y-58320295D02*
X183332886Y-58225057D01*
X183332886Y-58225057D02*
X183380505Y-58177438D01*
X183380505Y-58177438D02*
X183475743Y-58129819D01*
X183475743Y-58129819D02*
X183713838Y-58129819D01*
X183713838Y-58129819D02*
X183856695Y-58177438D01*
X184190029Y-58129819D02*
X184809076Y-58129819D01*
X184809076Y-58129819D02*
X184475743Y-58510771D01*
X184475743Y-58510771D02*
X184618600Y-58510771D01*
X184618600Y-58510771D02*
X184713838Y-58558390D01*
X184713838Y-58558390D02*
X184761457Y-58606009D01*
X184761457Y-58606009D02*
X184809076Y-58701247D01*
X184809076Y-58701247D02*
X184809076Y-58939342D01*
X184809076Y-58939342D02*
X184761457Y-59034580D01*
X184761457Y-59034580D02*
X184713838Y-59082200D01*
X184713838Y-59082200D02*
X184618600Y-59129819D01*
X184618600Y-59129819D02*
X184332886Y-59129819D01*
X184332886Y-59129819D02*
X184237648Y-59082200D01*
X184237648Y-59082200D02*
X184190029Y-59034580D01*
X185666219Y-58129819D02*
X185475743Y-58129819D01*
X185475743Y-58129819D02*
X185380505Y-58177438D01*
X185380505Y-58177438D02*
X185332886Y-58225057D01*
X185332886Y-58225057D02*
X185237648Y-58367914D01*
X185237648Y-58367914D02*
X185190029Y-58558390D01*
X185190029Y-58558390D02*
X185190029Y-58939342D01*
X185190029Y-58939342D02*
X185237648Y-59034580D01*
X185237648Y-59034580D02*
X185285267Y-59082200D01*
X185285267Y-59082200D02*
X185380505Y-59129819D01*
X185380505Y-59129819D02*
X185570981Y-59129819D01*
X185570981Y-59129819D02*
X185666219Y-59082200D01*
X185666219Y-59082200D02*
X185713838Y-59034580D01*
X185713838Y-59034580D02*
X185761457Y-58939342D01*
X185761457Y-58939342D02*
X185761457Y-58701247D01*
X185761457Y-58701247D02*
X185713838Y-58606009D01*
X185713838Y-58606009D02*
X185666219Y-58558390D01*
X185666219Y-58558390D02*
X185570981Y-58510771D01*
X185570981Y-58510771D02*
X185380505Y-58510771D01*
X185380505Y-58510771D02*
X185285267Y-58558390D01*
X185285267Y-58558390D02*
X185237648Y-58606009D01*
X185237648Y-58606009D02*
X185190029Y-58701247D01*
X20669345Y-83798569D02*
X20669345Y-82798569D01*
X20669345Y-83274759D02*
X21240773Y-83274759D01*
X21240773Y-83798569D02*
X21240773Y-82798569D01*
X22145535Y-82798569D02*
X21955059Y-82798569D01*
X21955059Y-82798569D02*
X21859821Y-82846188D01*
X21859821Y-82846188D02*
X21812202Y-82893807D01*
X21812202Y-82893807D02*
X21716964Y-83036664D01*
X21716964Y-83036664D02*
X21669345Y-83227140D01*
X21669345Y-83227140D02*
X21669345Y-83608092D01*
X21669345Y-83608092D02*
X21716964Y-83703330D01*
X21716964Y-83703330D02*
X21764583Y-83750950D01*
X21764583Y-83750950D02*
X21859821Y-83798569D01*
X21859821Y-83798569D02*
X22050297Y-83798569D01*
X22050297Y-83798569D02*
X22145535Y-83750950D01*
X22145535Y-83750950D02*
X22193154Y-83703330D01*
X22193154Y-83703330D02*
X22240773Y-83608092D01*
X22240773Y-83608092D02*
X22240773Y-83369997D01*
X22240773Y-83369997D02*
X22193154Y-83274759D01*
X22193154Y-83274759D02*
X22145535Y-83227140D01*
X22145535Y-83227140D02*
X22050297Y-83179521D01*
X22050297Y-83179521D02*
X21859821Y-83179521D01*
X21859821Y-83179521D02*
X21764583Y-83227140D01*
X21764583Y-83227140D02*
X21716964Y-83274759D01*
X21716964Y-83274759D02*
X21669345Y-83369997D01*
X221385267Y-40032200D02*
X221528124Y-40079819D01*
X221528124Y-40079819D02*
X221766219Y-40079819D01*
X221766219Y-40079819D02*
X221861457Y-40032200D01*
X221861457Y-40032200D02*
X221909076Y-39984580D01*
X221909076Y-39984580D02*
X221956695Y-39889342D01*
X221956695Y-39889342D02*
X221956695Y-39794104D01*
X221956695Y-39794104D02*
X221909076Y-39698866D01*
X221909076Y-39698866D02*
X221861457Y-39651247D01*
X221861457Y-39651247D02*
X221766219Y-39603628D01*
X221766219Y-39603628D02*
X221575743Y-39556009D01*
X221575743Y-39556009D02*
X221480505Y-39508390D01*
X221480505Y-39508390D02*
X221432886Y-39460771D01*
X221432886Y-39460771D02*
X221385267Y-39365533D01*
X221385267Y-39365533D02*
X221385267Y-39270295D01*
X221385267Y-39270295D02*
X221432886Y-39175057D01*
X221432886Y-39175057D02*
X221480505Y-39127438D01*
X221480505Y-39127438D02*
X221575743Y-39079819D01*
X221575743Y-39079819D02*
X221813838Y-39079819D01*
X221813838Y-39079819D02*
X221956695Y-39127438D01*
X222290029Y-39079819D02*
X222909076Y-39079819D01*
X222909076Y-39079819D02*
X222575743Y-39460771D01*
X222575743Y-39460771D02*
X222718600Y-39460771D01*
X222718600Y-39460771D02*
X222813838Y-39508390D01*
X222813838Y-39508390D02*
X222861457Y-39556009D01*
X222861457Y-39556009D02*
X222909076Y-39651247D01*
X222909076Y-39651247D02*
X222909076Y-39889342D01*
X222909076Y-39889342D02*
X222861457Y-39984580D01*
X222861457Y-39984580D02*
X222813838Y-40032200D01*
X222813838Y-40032200D02*
X222718600Y-40079819D01*
X222718600Y-40079819D02*
X222432886Y-40079819D01*
X222432886Y-40079819D02*
X222337648Y-40032200D01*
X222337648Y-40032200D02*
X222290029Y-39984580D01*
X223861457Y-40079819D02*
X223290029Y-40079819D01*
X223575743Y-40079819D02*
X223575743Y-39079819D01*
X223575743Y-39079819D02*
X223480505Y-39222676D01*
X223480505Y-39222676D02*
X223385267Y-39317914D01*
X223385267Y-39317914D02*
X223290029Y-39365533D01*
X84963095Y-16219700D02*
X85105952Y-16267319D01*
X85105952Y-16267319D02*
X85344047Y-16267319D01*
X85344047Y-16267319D02*
X85439285Y-16219700D01*
X85439285Y-16219700D02*
X85486904Y-16172080D01*
X85486904Y-16172080D02*
X85534523Y-16076842D01*
X85534523Y-16076842D02*
X85534523Y-15981604D01*
X85534523Y-15981604D02*
X85486904Y-15886366D01*
X85486904Y-15886366D02*
X85439285Y-15838747D01*
X85439285Y-15838747D02*
X85344047Y-15791128D01*
X85344047Y-15791128D02*
X85153571Y-15743509D01*
X85153571Y-15743509D02*
X85058333Y-15695890D01*
X85058333Y-15695890D02*
X85010714Y-15648271D01*
X85010714Y-15648271D02*
X84963095Y-15553033D01*
X84963095Y-15553033D02*
X84963095Y-15457795D01*
X84963095Y-15457795D02*
X85010714Y-15362557D01*
X85010714Y-15362557D02*
X85058333Y-15314938D01*
X85058333Y-15314938D02*
X85153571Y-15267319D01*
X85153571Y-15267319D02*
X85391666Y-15267319D01*
X85391666Y-15267319D02*
X85534523Y-15314938D01*
X86391666Y-15600652D02*
X86391666Y-16267319D01*
X86153571Y-15219700D02*
X85915476Y-15933985D01*
X85915476Y-15933985D02*
X86534523Y-15933985D01*
X259485267Y-20982200D02*
X259628124Y-21029819D01*
X259628124Y-21029819D02*
X259866219Y-21029819D01*
X259866219Y-21029819D02*
X259961457Y-20982200D01*
X259961457Y-20982200D02*
X260009076Y-20934580D01*
X260009076Y-20934580D02*
X260056695Y-20839342D01*
X260056695Y-20839342D02*
X260056695Y-20744104D01*
X260056695Y-20744104D02*
X260009076Y-20648866D01*
X260009076Y-20648866D02*
X259961457Y-20601247D01*
X259961457Y-20601247D02*
X259866219Y-20553628D01*
X259866219Y-20553628D02*
X259675743Y-20506009D01*
X259675743Y-20506009D02*
X259580505Y-20458390D01*
X259580505Y-20458390D02*
X259532886Y-20410771D01*
X259532886Y-20410771D02*
X259485267Y-20315533D01*
X259485267Y-20315533D02*
X259485267Y-20220295D01*
X259485267Y-20220295D02*
X259532886Y-20125057D01*
X259532886Y-20125057D02*
X259580505Y-20077438D01*
X259580505Y-20077438D02*
X259675743Y-20029819D01*
X259675743Y-20029819D02*
X259913838Y-20029819D01*
X259913838Y-20029819D02*
X260056695Y-20077438D01*
X260437648Y-20125057D02*
X260485267Y-20077438D01*
X260485267Y-20077438D02*
X260580505Y-20029819D01*
X260580505Y-20029819D02*
X260818600Y-20029819D01*
X260818600Y-20029819D02*
X260913838Y-20077438D01*
X260913838Y-20077438D02*
X260961457Y-20125057D01*
X260961457Y-20125057D02*
X261009076Y-20220295D01*
X261009076Y-20220295D02*
X261009076Y-20315533D01*
X261009076Y-20315533D02*
X260961457Y-20458390D01*
X260961457Y-20458390D02*
X260390029Y-21029819D01*
X260390029Y-21029819D02*
X261009076Y-21029819D01*
X261342410Y-20029819D02*
X262009076Y-20029819D01*
X262009076Y-20029819D02*
X261580505Y-21029819D01*
X46386905Y-63844700D02*
X46529762Y-63892319D01*
X46529762Y-63892319D02*
X46767857Y-63892319D01*
X46767857Y-63892319D02*
X46863095Y-63844700D01*
X46863095Y-63844700D02*
X46910714Y-63797080D01*
X46910714Y-63797080D02*
X46958333Y-63701842D01*
X46958333Y-63701842D02*
X46958333Y-63606604D01*
X46958333Y-63606604D02*
X46910714Y-63511366D01*
X46910714Y-63511366D02*
X46863095Y-63463747D01*
X46863095Y-63463747D02*
X46767857Y-63416128D01*
X46767857Y-63416128D02*
X46577381Y-63368509D01*
X46577381Y-63368509D02*
X46482143Y-63320890D01*
X46482143Y-63320890D02*
X46434524Y-63273271D01*
X46434524Y-63273271D02*
X46386905Y-63178033D01*
X46386905Y-63178033D02*
X46386905Y-63082795D01*
X46386905Y-63082795D02*
X46434524Y-62987557D01*
X46434524Y-62987557D02*
X46482143Y-62939938D01*
X46482143Y-62939938D02*
X46577381Y-62892319D01*
X46577381Y-62892319D02*
X46815476Y-62892319D01*
X46815476Y-62892319D02*
X46958333Y-62939938D01*
X47910714Y-63892319D02*
X47339286Y-63892319D01*
X47625000Y-63892319D02*
X47625000Y-62892319D01*
X47625000Y-62892319D02*
X47529762Y-63035176D01*
X47529762Y-63035176D02*
X47434524Y-63130414D01*
X47434524Y-63130414D02*
X47339286Y-63178033D01*
X48767857Y-63225652D02*
X48767857Y-63892319D01*
X48529762Y-62844700D02*
X48291667Y-63558985D01*
X48291667Y-63558985D02*
X48910714Y-63558985D01*
X176090636Y-40367295D02*
X176090636Y-39567295D01*
X176090636Y-39567295D02*
X176281112Y-39567295D01*
X176281112Y-39567295D02*
X176395398Y-39605390D01*
X176395398Y-39605390D02*
X176471588Y-39681580D01*
X176471588Y-39681580D02*
X176509683Y-39757771D01*
X176509683Y-39757771D02*
X176547779Y-39910152D01*
X176547779Y-39910152D02*
X176547779Y-40024438D01*
X176547779Y-40024438D02*
X176509683Y-40176819D01*
X176509683Y-40176819D02*
X176471588Y-40253009D01*
X176471588Y-40253009D02*
X176395398Y-40329200D01*
X176395398Y-40329200D02*
X176281112Y-40367295D01*
X176281112Y-40367295D02*
X176090636Y-40367295D01*
X177043017Y-39567295D02*
X177119207Y-39567295D01*
X177119207Y-39567295D02*
X177195398Y-39605390D01*
X177195398Y-39605390D02*
X177233493Y-39643485D01*
X177233493Y-39643485D02*
X177271588Y-39719676D01*
X177271588Y-39719676D02*
X177309683Y-39872057D01*
X177309683Y-39872057D02*
X177309683Y-40062533D01*
X177309683Y-40062533D02*
X177271588Y-40214914D01*
X177271588Y-40214914D02*
X177233493Y-40291104D01*
X177233493Y-40291104D02*
X177195398Y-40329200D01*
X177195398Y-40329200D02*
X177119207Y-40367295D01*
X177119207Y-40367295D02*
X177043017Y-40367295D01*
X177043017Y-40367295D02*
X176966826Y-40329200D01*
X176966826Y-40329200D02*
X176928731Y-40291104D01*
X176928731Y-40291104D02*
X176890636Y-40214914D01*
X176890636Y-40214914D02*
X176852540Y-40062533D01*
X176852540Y-40062533D02*
X176852540Y-39872057D01*
X176852540Y-39872057D02*
X176890636Y-39719676D01*
X176890636Y-39719676D02*
X176928731Y-39643485D01*
X176928731Y-39643485D02*
X176966826Y-39605390D01*
X176966826Y-39605390D02*
X177043017Y-39567295D01*
X176071588Y-31985390D02*
X175995398Y-31947295D01*
X175995398Y-31947295D02*
X175881112Y-31947295D01*
X175881112Y-31947295D02*
X175766826Y-31985390D01*
X175766826Y-31985390D02*
X175690636Y-32061580D01*
X175690636Y-32061580D02*
X175652541Y-32137771D01*
X175652541Y-32137771D02*
X175614445Y-32290152D01*
X175614445Y-32290152D02*
X175614445Y-32404438D01*
X175614445Y-32404438D02*
X175652541Y-32556819D01*
X175652541Y-32556819D02*
X175690636Y-32633009D01*
X175690636Y-32633009D02*
X175766826Y-32709200D01*
X175766826Y-32709200D02*
X175881112Y-32747295D01*
X175881112Y-32747295D02*
X175957303Y-32747295D01*
X175957303Y-32747295D02*
X176071588Y-32709200D01*
X176071588Y-32709200D02*
X176109684Y-32671104D01*
X176109684Y-32671104D02*
X176109684Y-32404438D01*
X176109684Y-32404438D02*
X175957303Y-32404438D01*
X176452541Y-32747295D02*
X176452541Y-31947295D01*
X176452541Y-31947295D02*
X176909684Y-32747295D01*
X176909684Y-32747295D02*
X176909684Y-31947295D01*
X177290636Y-32747295D02*
X177290636Y-31947295D01*
X177290636Y-31947295D02*
X177481112Y-31947295D01*
X177481112Y-31947295D02*
X177595398Y-31985390D01*
X177595398Y-31985390D02*
X177671588Y-32061580D01*
X177671588Y-32061580D02*
X177709683Y-32137771D01*
X177709683Y-32137771D02*
X177747779Y-32290152D01*
X177747779Y-32290152D02*
X177747779Y-32404438D01*
X177747779Y-32404438D02*
X177709683Y-32556819D01*
X177709683Y-32556819D02*
X177671588Y-32633009D01*
X177671588Y-32633009D02*
X177595398Y-32709200D01*
X177595398Y-32709200D02*
X177481112Y-32747295D01*
X177481112Y-32747295D02*
X177290636Y-32747295D01*
X176357302Y-55188247D02*
X176471588Y-55226342D01*
X176471588Y-55226342D02*
X176509683Y-55264438D01*
X176509683Y-55264438D02*
X176547779Y-55340628D01*
X176547779Y-55340628D02*
X176547779Y-55454914D01*
X176547779Y-55454914D02*
X176509683Y-55531104D01*
X176509683Y-55531104D02*
X176471588Y-55569200D01*
X176471588Y-55569200D02*
X176395398Y-55607295D01*
X176395398Y-55607295D02*
X176090636Y-55607295D01*
X176090636Y-55607295D02*
X176090636Y-54807295D01*
X176090636Y-54807295D02*
X176357302Y-54807295D01*
X176357302Y-54807295D02*
X176433493Y-54845390D01*
X176433493Y-54845390D02*
X176471588Y-54883485D01*
X176471588Y-54883485D02*
X176509683Y-54959676D01*
X176509683Y-54959676D02*
X176509683Y-55035866D01*
X176509683Y-55035866D02*
X176471588Y-55112057D01*
X176471588Y-55112057D02*
X176433493Y-55150152D01*
X176433493Y-55150152D02*
X176357302Y-55188247D01*
X176357302Y-55188247D02*
X176090636Y-55188247D01*
X177271588Y-54807295D02*
X176890636Y-54807295D01*
X176890636Y-54807295D02*
X176852540Y-55188247D01*
X176852540Y-55188247D02*
X176890636Y-55150152D01*
X176890636Y-55150152D02*
X176966826Y-55112057D01*
X176966826Y-55112057D02*
X177157302Y-55112057D01*
X177157302Y-55112057D02*
X177233493Y-55150152D01*
X177233493Y-55150152D02*
X177271588Y-55188247D01*
X177271588Y-55188247D02*
X177309683Y-55264438D01*
X177309683Y-55264438D02*
X177309683Y-55454914D01*
X177309683Y-55454914D02*
X177271588Y-55531104D01*
X177271588Y-55531104D02*
X177233493Y-55569200D01*
X177233493Y-55569200D02*
X177157302Y-55607295D01*
X177157302Y-55607295D02*
X176966826Y-55607295D01*
X176966826Y-55607295D02*
X176890636Y-55569200D01*
X176890636Y-55569200D02*
X176852540Y-55531104D01*
X176357302Y-52648247D02*
X176471588Y-52686342D01*
X176471588Y-52686342D02*
X176509683Y-52724438D01*
X176509683Y-52724438D02*
X176547779Y-52800628D01*
X176547779Y-52800628D02*
X176547779Y-52914914D01*
X176547779Y-52914914D02*
X176509683Y-52991104D01*
X176509683Y-52991104D02*
X176471588Y-53029200D01*
X176471588Y-53029200D02*
X176395398Y-53067295D01*
X176395398Y-53067295D02*
X176090636Y-53067295D01*
X176090636Y-53067295D02*
X176090636Y-52267295D01*
X176090636Y-52267295D02*
X176357302Y-52267295D01*
X176357302Y-52267295D02*
X176433493Y-52305390D01*
X176433493Y-52305390D02*
X176471588Y-52343485D01*
X176471588Y-52343485D02*
X176509683Y-52419676D01*
X176509683Y-52419676D02*
X176509683Y-52495866D01*
X176509683Y-52495866D02*
X176471588Y-52572057D01*
X176471588Y-52572057D02*
X176433493Y-52610152D01*
X176433493Y-52610152D02*
X176357302Y-52648247D01*
X176357302Y-52648247D02*
X176090636Y-52648247D01*
X177233493Y-52533961D02*
X177233493Y-53067295D01*
X177043017Y-52229200D02*
X176852540Y-52800628D01*
X176852540Y-52800628D02*
X177347779Y-52800628D01*
X187050731Y-27667295D02*
X186784064Y-27286342D01*
X186593588Y-27667295D02*
X186593588Y-26867295D01*
X186593588Y-26867295D02*
X186898350Y-26867295D01*
X186898350Y-26867295D02*
X186974540Y-26905390D01*
X186974540Y-26905390D02*
X187012635Y-26943485D01*
X187012635Y-26943485D02*
X187050731Y-27019676D01*
X187050731Y-27019676D02*
X187050731Y-27133961D01*
X187050731Y-27133961D02*
X187012635Y-27210152D01*
X187012635Y-27210152D02*
X186974540Y-27248247D01*
X186974540Y-27248247D02*
X186898350Y-27286342D01*
X186898350Y-27286342D02*
X186593588Y-27286342D01*
X187355492Y-27438723D02*
X187736445Y-27438723D01*
X187279302Y-27667295D02*
X187545969Y-26867295D01*
X187545969Y-26867295D02*
X187812635Y-27667295D01*
X188003111Y-26867295D02*
X188193587Y-27667295D01*
X188193587Y-27667295D02*
X188345968Y-27095866D01*
X188345968Y-27095866D02*
X188498349Y-27667295D01*
X188498349Y-27667295D02*
X188688826Y-26867295D01*
X187279302Y-55188247D02*
X187393588Y-55226342D01*
X187393588Y-55226342D02*
X187431683Y-55264438D01*
X187431683Y-55264438D02*
X187469779Y-55340628D01*
X187469779Y-55340628D02*
X187469779Y-55454914D01*
X187469779Y-55454914D02*
X187431683Y-55531104D01*
X187431683Y-55531104D02*
X187393588Y-55569200D01*
X187393588Y-55569200D02*
X187317398Y-55607295D01*
X187317398Y-55607295D02*
X187012636Y-55607295D01*
X187012636Y-55607295D02*
X187012636Y-54807295D01*
X187012636Y-54807295D02*
X187279302Y-54807295D01*
X187279302Y-54807295D02*
X187355493Y-54845390D01*
X187355493Y-54845390D02*
X187393588Y-54883485D01*
X187393588Y-54883485D02*
X187431683Y-54959676D01*
X187431683Y-54959676D02*
X187431683Y-55035866D01*
X187431683Y-55035866D02*
X187393588Y-55112057D01*
X187393588Y-55112057D02*
X187355493Y-55150152D01*
X187355493Y-55150152D02*
X187279302Y-55188247D01*
X187279302Y-55188247D02*
X187012636Y-55188247D01*
X188155493Y-54807295D02*
X188003112Y-54807295D01*
X188003112Y-54807295D02*
X187926921Y-54845390D01*
X187926921Y-54845390D02*
X187888826Y-54883485D01*
X187888826Y-54883485D02*
X187812636Y-54997771D01*
X187812636Y-54997771D02*
X187774540Y-55150152D01*
X187774540Y-55150152D02*
X187774540Y-55454914D01*
X187774540Y-55454914D02*
X187812636Y-55531104D01*
X187812636Y-55531104D02*
X187850731Y-55569200D01*
X187850731Y-55569200D02*
X187926921Y-55607295D01*
X187926921Y-55607295D02*
X188079302Y-55607295D01*
X188079302Y-55607295D02*
X188155493Y-55569200D01*
X188155493Y-55569200D02*
X188193588Y-55531104D01*
X188193588Y-55531104D02*
X188231683Y-55454914D01*
X188231683Y-55454914D02*
X188231683Y-55264438D01*
X188231683Y-55264438D02*
X188193588Y-55188247D01*
X188193588Y-55188247D02*
X188155493Y-55150152D01*
X188155493Y-55150152D02*
X188079302Y-55112057D01*
X188079302Y-55112057D02*
X187926921Y-55112057D01*
X187926921Y-55112057D02*
X187850731Y-55150152D01*
X187850731Y-55150152D02*
X187812636Y-55188247D01*
X187812636Y-55188247D02*
X187774540Y-55264438D01*
X187336445Y-39948247D02*
X187069779Y-39948247D01*
X187069779Y-40367295D02*
X187069779Y-39567295D01*
X187069779Y-39567295D02*
X187450731Y-39567295D01*
X188136445Y-39567295D02*
X187755493Y-39567295D01*
X187755493Y-39567295D02*
X187717397Y-39948247D01*
X187717397Y-39948247D02*
X187755493Y-39910152D01*
X187755493Y-39910152D02*
X187831683Y-39872057D01*
X187831683Y-39872057D02*
X188022159Y-39872057D01*
X188022159Y-39872057D02*
X188098350Y-39910152D01*
X188098350Y-39910152D02*
X188136445Y-39948247D01*
X188136445Y-39948247D02*
X188174540Y-40024438D01*
X188174540Y-40024438D02*
X188174540Y-40214914D01*
X188174540Y-40214914D02*
X188136445Y-40291104D01*
X188136445Y-40291104D02*
X188098350Y-40329200D01*
X188098350Y-40329200D02*
X188022159Y-40367295D01*
X188022159Y-40367295D02*
X187831683Y-40367295D01*
X187831683Y-40367295D02*
X187755493Y-40329200D01*
X187755493Y-40329200D02*
X187717397Y-40291104D01*
X187341898Y-32679200D02*
X187456184Y-32717295D01*
X187456184Y-32717295D02*
X187646660Y-32717295D01*
X187646660Y-32717295D02*
X187722851Y-32679200D01*
X187722851Y-32679200D02*
X187760946Y-32641104D01*
X187760946Y-32641104D02*
X187799041Y-32564914D01*
X187799041Y-32564914D02*
X187799041Y-32488723D01*
X187799041Y-32488723D02*
X187760946Y-32412533D01*
X187760946Y-32412533D02*
X187722851Y-32374438D01*
X187722851Y-32374438D02*
X187646660Y-32336342D01*
X187646660Y-32336342D02*
X187494279Y-32298247D01*
X187494279Y-32298247D02*
X187418089Y-32260152D01*
X187418089Y-32260152D02*
X187379994Y-32222057D01*
X187379994Y-32222057D02*
X187341898Y-32145866D01*
X187341898Y-32145866D02*
X187341898Y-32069676D01*
X187341898Y-32069676D02*
X187379994Y-31993485D01*
X187379994Y-31993485D02*
X187418089Y-31955390D01*
X187418089Y-31955390D02*
X187494279Y-31917295D01*
X187494279Y-31917295D02*
X187684756Y-31917295D01*
X187684756Y-31917295D02*
X187799041Y-31955390D01*
X188027613Y-31917295D02*
X188484756Y-31917295D01*
X188256184Y-32717295D02*
X188256184Y-31917295D01*
X186993588Y-29445390D02*
X186917398Y-29407295D01*
X186917398Y-29407295D02*
X186803112Y-29407295D01*
X186803112Y-29407295D02*
X186688826Y-29445390D01*
X186688826Y-29445390D02*
X186612636Y-29521580D01*
X186612636Y-29521580D02*
X186574541Y-29597771D01*
X186574541Y-29597771D02*
X186536445Y-29750152D01*
X186536445Y-29750152D02*
X186536445Y-29864438D01*
X186536445Y-29864438D02*
X186574541Y-30016819D01*
X186574541Y-30016819D02*
X186612636Y-30093009D01*
X186612636Y-30093009D02*
X186688826Y-30169200D01*
X186688826Y-30169200D02*
X186803112Y-30207295D01*
X186803112Y-30207295D02*
X186879303Y-30207295D01*
X186879303Y-30207295D02*
X186993588Y-30169200D01*
X186993588Y-30169200D02*
X187031684Y-30131104D01*
X187031684Y-30131104D02*
X187031684Y-29864438D01*
X187031684Y-29864438D02*
X186879303Y-29864438D01*
X187374541Y-30207295D02*
X187374541Y-29407295D01*
X187374541Y-29407295D02*
X187831684Y-30207295D01*
X187831684Y-30207295D02*
X187831684Y-29407295D01*
X188212636Y-30207295D02*
X188212636Y-29407295D01*
X188212636Y-29407295D02*
X188403112Y-29407295D01*
X188403112Y-29407295D02*
X188517398Y-29445390D01*
X188517398Y-29445390D02*
X188593588Y-29521580D01*
X188593588Y-29521580D02*
X188631683Y-29597771D01*
X188631683Y-29597771D02*
X188669779Y-29750152D01*
X188669779Y-29750152D02*
X188669779Y-29864438D01*
X188669779Y-29864438D02*
X188631683Y-30016819D01*
X188631683Y-30016819D02*
X188593588Y-30093009D01*
X188593588Y-30093009D02*
X188517398Y-30169200D01*
X188517398Y-30169200D02*
X188403112Y-30207295D01*
X188403112Y-30207295D02*
X188212636Y-30207295D01*
X176379763Y-26867295D02*
X176836906Y-26867295D01*
X176608334Y-27667295D02*
X176608334Y-26867295D01*
X177027382Y-26867295D02*
X177560716Y-27667295D01*
X177560716Y-26867295D02*
X177027382Y-27667295D01*
X178017859Y-26867295D02*
X178094049Y-26867295D01*
X178094049Y-26867295D02*
X178170240Y-26905390D01*
X178170240Y-26905390D02*
X178208335Y-26943485D01*
X178208335Y-26943485D02*
X178246430Y-27019676D01*
X178246430Y-27019676D02*
X178284525Y-27172057D01*
X178284525Y-27172057D02*
X178284525Y-27362533D01*
X178284525Y-27362533D02*
X178246430Y-27514914D01*
X178246430Y-27514914D02*
X178208335Y-27591104D01*
X178208335Y-27591104D02*
X178170240Y-27629200D01*
X178170240Y-27629200D02*
X178094049Y-27667295D01*
X178094049Y-27667295D02*
X178017859Y-27667295D01*
X178017859Y-27667295D02*
X177941668Y-27629200D01*
X177941668Y-27629200D02*
X177903573Y-27591104D01*
X177903573Y-27591104D02*
X177865478Y-27514914D01*
X177865478Y-27514914D02*
X177827382Y-27362533D01*
X177827382Y-27362533D02*
X177827382Y-27172057D01*
X177827382Y-27172057D02*
X177865478Y-27019676D01*
X177865478Y-27019676D02*
X177903573Y-26943485D01*
X177903573Y-26943485D02*
X177941668Y-26905390D01*
X177941668Y-26905390D02*
X178017859Y-26867295D01*
X179198811Y-26829200D02*
X178513097Y-27857771D01*
X179465478Y-27667295D02*
X179465478Y-26867295D01*
X179465478Y-26867295D02*
X179655954Y-26867295D01*
X179655954Y-26867295D02*
X179770240Y-26905390D01*
X179770240Y-26905390D02*
X179846430Y-26981580D01*
X179846430Y-26981580D02*
X179884525Y-27057771D01*
X179884525Y-27057771D02*
X179922621Y-27210152D01*
X179922621Y-27210152D02*
X179922621Y-27324438D01*
X179922621Y-27324438D02*
X179884525Y-27476819D01*
X179884525Y-27476819D02*
X179846430Y-27553009D01*
X179846430Y-27553009D02*
X179770240Y-27629200D01*
X179770240Y-27629200D02*
X179655954Y-27667295D01*
X179655954Y-27667295D02*
X179465478Y-27667295D01*
X180189287Y-26867295D02*
X180684525Y-26867295D01*
X180684525Y-26867295D02*
X180417859Y-27172057D01*
X180417859Y-27172057D02*
X180532144Y-27172057D01*
X180532144Y-27172057D02*
X180608335Y-27210152D01*
X180608335Y-27210152D02*
X180646430Y-27248247D01*
X180646430Y-27248247D02*
X180684525Y-27324438D01*
X180684525Y-27324438D02*
X180684525Y-27514914D01*
X180684525Y-27514914D02*
X180646430Y-27591104D01*
X180646430Y-27591104D02*
X180608335Y-27629200D01*
X180608335Y-27629200D02*
X180532144Y-27667295D01*
X180532144Y-27667295D02*
X180303573Y-27667295D01*
X180303573Y-27667295D02*
X180227382Y-27629200D01*
X180227382Y-27629200D02*
X180189287Y-27591104D01*
X176090636Y-47987295D02*
X176090636Y-47187295D01*
X176090636Y-47187295D02*
X176281112Y-47187295D01*
X176281112Y-47187295D02*
X176395398Y-47225390D01*
X176395398Y-47225390D02*
X176471588Y-47301580D01*
X176471588Y-47301580D02*
X176509683Y-47377771D01*
X176509683Y-47377771D02*
X176547779Y-47530152D01*
X176547779Y-47530152D02*
X176547779Y-47644438D01*
X176547779Y-47644438D02*
X176509683Y-47796819D01*
X176509683Y-47796819D02*
X176471588Y-47873009D01*
X176471588Y-47873009D02*
X176395398Y-47949200D01*
X176395398Y-47949200D02*
X176281112Y-47987295D01*
X176281112Y-47987295D02*
X176090636Y-47987295D01*
X176814445Y-47187295D02*
X177347779Y-47187295D01*
X177347779Y-47187295D02*
X177004921Y-47987295D01*
X187336445Y-42488247D02*
X187069779Y-42488247D01*
X187069779Y-42907295D02*
X187069779Y-42107295D01*
X187069779Y-42107295D02*
X187450731Y-42107295D01*
X188098350Y-42107295D02*
X187945969Y-42107295D01*
X187945969Y-42107295D02*
X187869778Y-42145390D01*
X187869778Y-42145390D02*
X187831683Y-42183485D01*
X187831683Y-42183485D02*
X187755493Y-42297771D01*
X187755493Y-42297771D02*
X187717397Y-42450152D01*
X187717397Y-42450152D02*
X187717397Y-42754914D01*
X187717397Y-42754914D02*
X187755493Y-42831104D01*
X187755493Y-42831104D02*
X187793588Y-42869200D01*
X187793588Y-42869200D02*
X187869778Y-42907295D01*
X187869778Y-42907295D02*
X188022159Y-42907295D01*
X188022159Y-42907295D02*
X188098350Y-42869200D01*
X188098350Y-42869200D02*
X188136445Y-42831104D01*
X188136445Y-42831104D02*
X188174540Y-42754914D01*
X188174540Y-42754914D02*
X188174540Y-42564438D01*
X188174540Y-42564438D02*
X188136445Y-42488247D01*
X188136445Y-42488247D02*
X188098350Y-42450152D01*
X188098350Y-42450152D02*
X188022159Y-42412057D01*
X188022159Y-42412057D02*
X187869778Y-42412057D01*
X187869778Y-42412057D02*
X187793588Y-42450152D01*
X187793588Y-42450152D02*
X187755493Y-42488247D01*
X187755493Y-42488247D02*
X187717397Y-42564438D01*
X186536445Y-34487295D02*
X186803112Y-35287295D01*
X186803112Y-35287295D02*
X187069778Y-34487295D01*
X187793588Y-35211104D02*
X187755492Y-35249200D01*
X187755492Y-35249200D02*
X187641207Y-35287295D01*
X187641207Y-35287295D02*
X187565016Y-35287295D01*
X187565016Y-35287295D02*
X187450730Y-35249200D01*
X187450730Y-35249200D02*
X187374540Y-35173009D01*
X187374540Y-35173009D02*
X187336445Y-35096819D01*
X187336445Y-35096819D02*
X187298349Y-34944438D01*
X187298349Y-34944438D02*
X187298349Y-34830152D01*
X187298349Y-34830152D02*
X187336445Y-34677771D01*
X187336445Y-34677771D02*
X187374540Y-34601580D01*
X187374540Y-34601580D02*
X187450730Y-34525390D01*
X187450730Y-34525390D02*
X187565016Y-34487295D01*
X187565016Y-34487295D02*
X187641207Y-34487295D01*
X187641207Y-34487295D02*
X187755492Y-34525390D01*
X187755492Y-34525390D02*
X187793588Y-34563485D01*
X188593588Y-35211104D02*
X188555492Y-35249200D01*
X188555492Y-35249200D02*
X188441207Y-35287295D01*
X188441207Y-35287295D02*
X188365016Y-35287295D01*
X188365016Y-35287295D02*
X188250730Y-35249200D01*
X188250730Y-35249200D02*
X188174540Y-35173009D01*
X188174540Y-35173009D02*
X188136445Y-35096819D01*
X188136445Y-35096819D02*
X188098349Y-34944438D01*
X188098349Y-34944438D02*
X188098349Y-34830152D01*
X188098349Y-34830152D02*
X188136445Y-34677771D01*
X188136445Y-34677771D02*
X188174540Y-34601580D01*
X188174540Y-34601580D02*
X188250730Y-34525390D01*
X188250730Y-34525390D02*
X188365016Y-34487295D01*
X188365016Y-34487295D02*
X188441207Y-34487295D01*
X188441207Y-34487295D02*
X188555492Y-34525390D01*
X188555492Y-34525390D02*
X188593588Y-34563485D01*
X176071588Y-34525390D02*
X175995398Y-34487295D01*
X175995398Y-34487295D02*
X175881112Y-34487295D01*
X175881112Y-34487295D02*
X175766826Y-34525390D01*
X175766826Y-34525390D02*
X175690636Y-34601580D01*
X175690636Y-34601580D02*
X175652541Y-34677771D01*
X175652541Y-34677771D02*
X175614445Y-34830152D01*
X175614445Y-34830152D02*
X175614445Y-34944438D01*
X175614445Y-34944438D02*
X175652541Y-35096819D01*
X175652541Y-35096819D02*
X175690636Y-35173009D01*
X175690636Y-35173009D02*
X175766826Y-35249200D01*
X175766826Y-35249200D02*
X175881112Y-35287295D01*
X175881112Y-35287295D02*
X175957303Y-35287295D01*
X175957303Y-35287295D02*
X176071588Y-35249200D01*
X176071588Y-35249200D02*
X176109684Y-35211104D01*
X176109684Y-35211104D02*
X176109684Y-34944438D01*
X176109684Y-34944438D02*
X175957303Y-34944438D01*
X176452541Y-35287295D02*
X176452541Y-34487295D01*
X176452541Y-34487295D02*
X176909684Y-35287295D01*
X176909684Y-35287295D02*
X176909684Y-34487295D01*
X177290636Y-35287295D02*
X177290636Y-34487295D01*
X177290636Y-34487295D02*
X177481112Y-34487295D01*
X177481112Y-34487295D02*
X177595398Y-34525390D01*
X177595398Y-34525390D02*
X177671588Y-34601580D01*
X177671588Y-34601580D02*
X177709683Y-34677771D01*
X177709683Y-34677771D02*
X177747779Y-34830152D01*
X177747779Y-34830152D02*
X177747779Y-34944438D01*
X177747779Y-34944438D02*
X177709683Y-35096819D01*
X177709683Y-35096819D02*
X177671588Y-35173009D01*
X177671588Y-35173009D02*
X177595398Y-35249200D01*
X177595398Y-35249200D02*
X177481112Y-35287295D01*
X177481112Y-35287295D02*
X177290636Y-35287295D01*
X187279302Y-52648247D02*
X187393588Y-52686342D01*
X187393588Y-52686342D02*
X187431683Y-52724438D01*
X187431683Y-52724438D02*
X187469779Y-52800628D01*
X187469779Y-52800628D02*
X187469779Y-52914914D01*
X187469779Y-52914914D02*
X187431683Y-52991104D01*
X187431683Y-52991104D02*
X187393588Y-53029200D01*
X187393588Y-53029200D02*
X187317398Y-53067295D01*
X187317398Y-53067295D02*
X187012636Y-53067295D01*
X187012636Y-53067295D02*
X187012636Y-52267295D01*
X187012636Y-52267295D02*
X187279302Y-52267295D01*
X187279302Y-52267295D02*
X187355493Y-52305390D01*
X187355493Y-52305390D02*
X187393588Y-52343485D01*
X187393588Y-52343485D02*
X187431683Y-52419676D01*
X187431683Y-52419676D02*
X187431683Y-52495866D01*
X187431683Y-52495866D02*
X187393588Y-52572057D01*
X187393588Y-52572057D02*
X187355493Y-52610152D01*
X187355493Y-52610152D02*
X187279302Y-52648247D01*
X187279302Y-52648247D02*
X187012636Y-52648247D01*
X187774540Y-52343485D02*
X187812636Y-52305390D01*
X187812636Y-52305390D02*
X187888826Y-52267295D01*
X187888826Y-52267295D02*
X188079302Y-52267295D01*
X188079302Y-52267295D02*
X188155493Y-52305390D01*
X188155493Y-52305390D02*
X188193588Y-52343485D01*
X188193588Y-52343485D02*
X188231683Y-52419676D01*
X188231683Y-52419676D02*
X188231683Y-52495866D01*
X188231683Y-52495866D02*
X188193588Y-52610152D01*
X188193588Y-52610152D02*
X187736445Y-53067295D01*
X187736445Y-53067295D02*
X188231683Y-53067295D01*
X176547779Y-45371104D02*
X176509683Y-45409200D01*
X176509683Y-45409200D02*
X176395398Y-45447295D01*
X176395398Y-45447295D02*
X176319207Y-45447295D01*
X176319207Y-45447295D02*
X176204921Y-45409200D01*
X176204921Y-45409200D02*
X176128731Y-45333009D01*
X176128731Y-45333009D02*
X176090636Y-45256819D01*
X176090636Y-45256819D02*
X176052540Y-45104438D01*
X176052540Y-45104438D02*
X176052540Y-44990152D01*
X176052540Y-44990152D02*
X176090636Y-44837771D01*
X176090636Y-44837771D02*
X176128731Y-44761580D01*
X176128731Y-44761580D02*
X176204921Y-44685390D01*
X176204921Y-44685390D02*
X176319207Y-44647295D01*
X176319207Y-44647295D02*
X176395398Y-44647295D01*
X176395398Y-44647295D02*
X176509683Y-44685390D01*
X176509683Y-44685390D02*
X176547779Y-44723485D01*
X177233493Y-44647295D02*
X177081112Y-44647295D01*
X177081112Y-44647295D02*
X177004921Y-44685390D01*
X177004921Y-44685390D02*
X176966826Y-44723485D01*
X176966826Y-44723485D02*
X176890636Y-44837771D01*
X176890636Y-44837771D02*
X176852540Y-44990152D01*
X176852540Y-44990152D02*
X176852540Y-45294914D01*
X176852540Y-45294914D02*
X176890636Y-45371104D01*
X176890636Y-45371104D02*
X176928731Y-45409200D01*
X176928731Y-45409200D02*
X177004921Y-45447295D01*
X177004921Y-45447295D02*
X177157302Y-45447295D01*
X177157302Y-45447295D02*
X177233493Y-45409200D01*
X177233493Y-45409200D02*
X177271588Y-45371104D01*
X177271588Y-45371104D02*
X177309683Y-45294914D01*
X177309683Y-45294914D02*
X177309683Y-45104438D01*
X177309683Y-45104438D02*
X177271588Y-45028247D01*
X177271588Y-45028247D02*
X177233493Y-44990152D01*
X177233493Y-44990152D02*
X177157302Y-44952057D01*
X177157302Y-44952057D02*
X177004921Y-44952057D01*
X177004921Y-44952057D02*
X176928731Y-44990152D01*
X176928731Y-44990152D02*
X176890636Y-45028247D01*
X176890636Y-45028247D02*
X176852540Y-45104438D01*
X176090636Y-37827295D02*
X176090636Y-37027295D01*
X176090636Y-37027295D02*
X176281112Y-37027295D01*
X176281112Y-37027295D02*
X176395398Y-37065390D01*
X176395398Y-37065390D02*
X176471588Y-37141580D01*
X176471588Y-37141580D02*
X176509683Y-37217771D01*
X176509683Y-37217771D02*
X176547779Y-37370152D01*
X176547779Y-37370152D02*
X176547779Y-37484438D01*
X176547779Y-37484438D02*
X176509683Y-37636819D01*
X176509683Y-37636819D02*
X176471588Y-37713009D01*
X176471588Y-37713009D02*
X176395398Y-37789200D01*
X176395398Y-37789200D02*
X176281112Y-37827295D01*
X176281112Y-37827295D02*
X176090636Y-37827295D01*
X177309683Y-37827295D02*
X176852540Y-37827295D01*
X177081112Y-37827295D02*
X177081112Y-37027295D01*
X177081112Y-37027295D02*
X177004921Y-37141580D01*
X177004921Y-37141580D02*
X176928731Y-37217771D01*
X176928731Y-37217771D02*
X176852540Y-37255866D01*
X187336445Y-45028247D02*
X187069779Y-45028247D01*
X187069779Y-45447295D02*
X187069779Y-44647295D01*
X187069779Y-44647295D02*
X187450731Y-44647295D01*
X187679302Y-44647295D02*
X188212636Y-44647295D01*
X188212636Y-44647295D02*
X187869778Y-45447295D01*
X187279302Y-50108247D02*
X187393588Y-50146342D01*
X187393588Y-50146342D02*
X187431683Y-50184438D01*
X187431683Y-50184438D02*
X187469779Y-50260628D01*
X187469779Y-50260628D02*
X187469779Y-50374914D01*
X187469779Y-50374914D02*
X187431683Y-50451104D01*
X187431683Y-50451104D02*
X187393588Y-50489200D01*
X187393588Y-50489200D02*
X187317398Y-50527295D01*
X187317398Y-50527295D02*
X187012636Y-50527295D01*
X187012636Y-50527295D02*
X187012636Y-49727295D01*
X187012636Y-49727295D02*
X187279302Y-49727295D01*
X187279302Y-49727295D02*
X187355493Y-49765390D01*
X187355493Y-49765390D02*
X187393588Y-49803485D01*
X187393588Y-49803485D02*
X187431683Y-49879676D01*
X187431683Y-49879676D02*
X187431683Y-49955866D01*
X187431683Y-49955866D02*
X187393588Y-50032057D01*
X187393588Y-50032057D02*
X187355493Y-50070152D01*
X187355493Y-50070152D02*
X187279302Y-50108247D01*
X187279302Y-50108247D02*
X187012636Y-50108247D01*
X187736445Y-49727295D02*
X188231683Y-49727295D01*
X188231683Y-49727295D02*
X187965017Y-50032057D01*
X187965017Y-50032057D02*
X188079302Y-50032057D01*
X188079302Y-50032057D02*
X188155493Y-50070152D01*
X188155493Y-50070152D02*
X188193588Y-50108247D01*
X188193588Y-50108247D02*
X188231683Y-50184438D01*
X188231683Y-50184438D02*
X188231683Y-50374914D01*
X188231683Y-50374914D02*
X188193588Y-50451104D01*
X188193588Y-50451104D02*
X188155493Y-50489200D01*
X188155493Y-50489200D02*
X188079302Y-50527295D01*
X188079302Y-50527295D02*
X187850731Y-50527295D01*
X187850731Y-50527295D02*
X187774540Y-50489200D01*
X187774540Y-50489200D02*
X187736445Y-50451104D01*
X176090636Y-30207295D02*
X176090636Y-29407295D01*
X176090636Y-29407295D02*
X176281112Y-29407295D01*
X176281112Y-29407295D02*
X176395398Y-29445390D01*
X176395398Y-29445390D02*
X176471588Y-29521580D01*
X176471588Y-29521580D02*
X176509683Y-29597771D01*
X176509683Y-29597771D02*
X176547779Y-29750152D01*
X176547779Y-29750152D02*
X176547779Y-29864438D01*
X176547779Y-29864438D02*
X176509683Y-30016819D01*
X176509683Y-30016819D02*
X176471588Y-30093009D01*
X176471588Y-30093009D02*
X176395398Y-30169200D01*
X176395398Y-30169200D02*
X176281112Y-30207295D01*
X176281112Y-30207295D02*
X176090636Y-30207295D01*
X176852540Y-29483485D02*
X176890636Y-29445390D01*
X176890636Y-29445390D02*
X176966826Y-29407295D01*
X176966826Y-29407295D02*
X177157302Y-29407295D01*
X177157302Y-29407295D02*
X177233493Y-29445390D01*
X177233493Y-29445390D02*
X177271588Y-29483485D01*
X177271588Y-29483485D02*
X177309683Y-29559676D01*
X177309683Y-29559676D02*
X177309683Y-29635866D01*
X177309683Y-29635866D02*
X177271588Y-29750152D01*
X177271588Y-29750152D02*
X176814445Y-30207295D01*
X176814445Y-30207295D02*
X177309683Y-30207295D01*
X187336445Y-37408247D02*
X187069779Y-37408247D01*
X187069779Y-37827295D02*
X187069779Y-37027295D01*
X187069779Y-37027295D02*
X187450731Y-37027295D01*
X188098350Y-37293961D02*
X188098350Y-37827295D01*
X187907874Y-36989200D02*
X187717397Y-37560628D01*
X187717397Y-37560628D02*
X188212636Y-37560628D01*
X176090636Y-42907295D02*
X176090636Y-42107295D01*
X176090636Y-42107295D02*
X176281112Y-42107295D01*
X176281112Y-42107295D02*
X176395398Y-42145390D01*
X176395398Y-42145390D02*
X176471588Y-42221580D01*
X176471588Y-42221580D02*
X176509683Y-42297771D01*
X176509683Y-42297771D02*
X176547779Y-42450152D01*
X176547779Y-42450152D02*
X176547779Y-42564438D01*
X176547779Y-42564438D02*
X176509683Y-42716819D01*
X176509683Y-42716819D02*
X176471588Y-42793009D01*
X176471588Y-42793009D02*
X176395398Y-42869200D01*
X176395398Y-42869200D02*
X176281112Y-42907295D01*
X176281112Y-42907295D02*
X176090636Y-42907295D01*
X177233493Y-42373961D02*
X177233493Y-42907295D01*
X177043017Y-42069200D02*
X176852540Y-42640628D01*
X176852540Y-42640628D02*
X177347779Y-42640628D01*
X176128731Y-50108247D02*
X176395397Y-50108247D01*
X176509683Y-50527295D02*
X176128731Y-50527295D01*
X176128731Y-50527295D02*
X176128731Y-49727295D01*
X176128731Y-49727295D02*
X176509683Y-49727295D01*
X177195398Y-49727295D02*
X177043017Y-49727295D01*
X177043017Y-49727295D02*
X176966826Y-49765390D01*
X176966826Y-49765390D02*
X176928731Y-49803485D01*
X176928731Y-49803485D02*
X176852541Y-49917771D01*
X176852541Y-49917771D02*
X176814445Y-50070152D01*
X176814445Y-50070152D02*
X176814445Y-50374914D01*
X176814445Y-50374914D02*
X176852541Y-50451104D01*
X176852541Y-50451104D02*
X176890636Y-50489200D01*
X176890636Y-50489200D02*
X176966826Y-50527295D01*
X176966826Y-50527295D02*
X177119207Y-50527295D01*
X177119207Y-50527295D02*
X177195398Y-50489200D01*
X177195398Y-50489200D02*
X177233493Y-50451104D01*
X177233493Y-50451104D02*
X177271588Y-50374914D01*
X177271588Y-50374914D02*
X177271588Y-50184438D01*
X177271588Y-50184438D02*
X177233493Y-50108247D01*
X177233493Y-50108247D02*
X177195398Y-50070152D01*
X177195398Y-50070152D02*
X177119207Y-50032057D01*
X177119207Y-50032057D02*
X176966826Y-50032057D01*
X176966826Y-50032057D02*
X176890636Y-50070152D01*
X176890636Y-50070152D02*
X176852541Y-50108247D01*
X176852541Y-50108247D02*
X176814445Y-50184438D01*
X187279302Y-47568247D02*
X187393588Y-47606342D01*
X187393588Y-47606342D02*
X187431683Y-47644438D01*
X187431683Y-47644438D02*
X187469779Y-47720628D01*
X187469779Y-47720628D02*
X187469779Y-47834914D01*
X187469779Y-47834914D02*
X187431683Y-47911104D01*
X187431683Y-47911104D02*
X187393588Y-47949200D01*
X187393588Y-47949200D02*
X187317398Y-47987295D01*
X187317398Y-47987295D02*
X187012636Y-47987295D01*
X187012636Y-47987295D02*
X187012636Y-47187295D01*
X187012636Y-47187295D02*
X187279302Y-47187295D01*
X187279302Y-47187295D02*
X187355493Y-47225390D01*
X187355493Y-47225390D02*
X187393588Y-47263485D01*
X187393588Y-47263485D02*
X187431683Y-47339676D01*
X187431683Y-47339676D02*
X187431683Y-47415866D01*
X187431683Y-47415866D02*
X187393588Y-47492057D01*
X187393588Y-47492057D02*
X187355493Y-47530152D01*
X187355493Y-47530152D02*
X187279302Y-47568247D01*
X187279302Y-47568247D02*
X187012636Y-47568247D01*
X188231683Y-47987295D02*
X187774540Y-47987295D01*
X188003112Y-47987295D02*
X188003112Y-47187295D01*
X188003112Y-47187295D02*
X187926921Y-47301580D01*
X187926921Y-47301580D02*
X187850731Y-47377771D01*
X187850731Y-47377771D02*
X187774540Y-47415866D01*
X265461905Y-81417319D02*
X265461905Y-80417319D01*
X265461905Y-80893509D02*
X266033333Y-80893509D01*
X266033333Y-81417319D02*
X266033333Y-80417319D01*
X267033333Y-81417319D02*
X266461905Y-81417319D01*
X266747619Y-81417319D02*
X266747619Y-80417319D01*
X266747619Y-80417319D02*
X266652381Y-80560176D01*
X266652381Y-80560176D02*
X266557143Y-80655414D01*
X266557143Y-80655414D02*
X266461905Y-80703033D01*
X267414286Y-80512557D02*
X267461905Y-80464938D01*
X267461905Y-80464938D02*
X267557143Y-80417319D01*
X267557143Y-80417319D02*
X267795238Y-80417319D01*
X267795238Y-80417319D02*
X267890476Y-80464938D01*
X267890476Y-80464938D02*
X267938095Y-80512557D01*
X267938095Y-80512557D02*
X267985714Y-80607795D01*
X267985714Y-80607795D02*
X267985714Y-80703033D01*
X267985714Y-80703033D02*
X267938095Y-80845890D01*
X267938095Y-80845890D02*
X267366667Y-81417319D01*
X267366667Y-81417319D02*
X267985714Y-81417319D01*
X65436905Y-59082200D02*
X65579762Y-59129819D01*
X65579762Y-59129819D02*
X65817857Y-59129819D01*
X65817857Y-59129819D02*
X65913095Y-59082200D01*
X65913095Y-59082200D02*
X65960714Y-59034580D01*
X65960714Y-59034580D02*
X66008333Y-58939342D01*
X66008333Y-58939342D02*
X66008333Y-58844104D01*
X66008333Y-58844104D02*
X65960714Y-58748866D01*
X65960714Y-58748866D02*
X65913095Y-58701247D01*
X65913095Y-58701247D02*
X65817857Y-58653628D01*
X65817857Y-58653628D02*
X65627381Y-58606009D01*
X65627381Y-58606009D02*
X65532143Y-58558390D01*
X65532143Y-58558390D02*
X65484524Y-58510771D01*
X65484524Y-58510771D02*
X65436905Y-58415533D01*
X65436905Y-58415533D02*
X65436905Y-58320295D01*
X65436905Y-58320295D02*
X65484524Y-58225057D01*
X65484524Y-58225057D02*
X65532143Y-58177438D01*
X65532143Y-58177438D02*
X65627381Y-58129819D01*
X65627381Y-58129819D02*
X65865476Y-58129819D01*
X65865476Y-58129819D02*
X66008333Y-58177438D01*
X66960714Y-59129819D02*
X66389286Y-59129819D01*
X66675000Y-59129819D02*
X66675000Y-58129819D01*
X66675000Y-58129819D02*
X66579762Y-58272676D01*
X66579762Y-58272676D02*
X66484524Y-58367914D01*
X66484524Y-58367914D02*
X66389286Y-58415533D01*
X67865476Y-58129819D02*
X67389286Y-58129819D01*
X67389286Y-58129819D02*
X67341667Y-58606009D01*
X67341667Y-58606009D02*
X67389286Y-58558390D01*
X67389286Y-58558390D02*
X67484524Y-58510771D01*
X67484524Y-58510771D02*
X67722619Y-58510771D01*
X67722619Y-58510771D02*
X67817857Y-58558390D01*
X67817857Y-58558390D02*
X67865476Y-58606009D01*
X67865476Y-58606009D02*
X67913095Y-58701247D01*
X67913095Y-58701247D02*
X67913095Y-58939342D01*
X67913095Y-58939342D02*
X67865476Y-59034580D01*
X67865476Y-59034580D02*
X67817857Y-59082200D01*
X67817857Y-59082200D02*
X67722619Y-59129819D01*
X67722619Y-59129819D02*
X67484524Y-59129819D01*
X67484524Y-59129819D02*
X67389286Y-59082200D01*
X67389286Y-59082200D02*
X67341667Y-59034580D01*
X46863095Y-44794700D02*
X47005952Y-44842319D01*
X47005952Y-44842319D02*
X47244047Y-44842319D01*
X47244047Y-44842319D02*
X47339285Y-44794700D01*
X47339285Y-44794700D02*
X47386904Y-44747080D01*
X47386904Y-44747080D02*
X47434523Y-44651842D01*
X47434523Y-44651842D02*
X47434523Y-44556604D01*
X47434523Y-44556604D02*
X47386904Y-44461366D01*
X47386904Y-44461366D02*
X47339285Y-44413747D01*
X47339285Y-44413747D02*
X47244047Y-44366128D01*
X47244047Y-44366128D02*
X47053571Y-44318509D01*
X47053571Y-44318509D02*
X46958333Y-44270890D01*
X46958333Y-44270890D02*
X46910714Y-44223271D01*
X46910714Y-44223271D02*
X46863095Y-44128033D01*
X46863095Y-44128033D02*
X46863095Y-44032795D01*
X46863095Y-44032795D02*
X46910714Y-43937557D01*
X46910714Y-43937557D02*
X46958333Y-43889938D01*
X46958333Y-43889938D02*
X47053571Y-43842319D01*
X47053571Y-43842319D02*
X47291666Y-43842319D01*
X47291666Y-43842319D02*
X47434523Y-43889938D01*
X48005952Y-44270890D02*
X47910714Y-44223271D01*
X47910714Y-44223271D02*
X47863095Y-44175652D01*
X47863095Y-44175652D02*
X47815476Y-44080414D01*
X47815476Y-44080414D02*
X47815476Y-44032795D01*
X47815476Y-44032795D02*
X47863095Y-43937557D01*
X47863095Y-43937557D02*
X47910714Y-43889938D01*
X47910714Y-43889938D02*
X48005952Y-43842319D01*
X48005952Y-43842319D02*
X48196428Y-43842319D01*
X48196428Y-43842319D02*
X48291666Y-43889938D01*
X48291666Y-43889938D02*
X48339285Y-43937557D01*
X48339285Y-43937557D02*
X48386904Y-44032795D01*
X48386904Y-44032795D02*
X48386904Y-44080414D01*
X48386904Y-44080414D02*
X48339285Y-44175652D01*
X48339285Y-44175652D02*
X48291666Y-44223271D01*
X48291666Y-44223271D02*
X48196428Y-44270890D01*
X48196428Y-44270890D02*
X48005952Y-44270890D01*
X48005952Y-44270890D02*
X47910714Y-44318509D01*
X47910714Y-44318509D02*
X47863095Y-44366128D01*
X47863095Y-44366128D02*
X47815476Y-44461366D01*
X47815476Y-44461366D02*
X47815476Y-44651842D01*
X47815476Y-44651842D02*
X47863095Y-44747080D01*
X47863095Y-44747080D02*
X47910714Y-44794700D01*
X47910714Y-44794700D02*
X48005952Y-44842319D01*
X48005952Y-44842319D02*
X48196428Y-44842319D01*
X48196428Y-44842319D02*
X48291666Y-44794700D01*
X48291666Y-44794700D02*
X48339285Y-44747080D01*
X48339285Y-44747080D02*
X48386904Y-44651842D01*
X48386904Y-44651842D02*
X48386904Y-44461366D01*
X48386904Y-44461366D02*
X48339285Y-44366128D01*
X48339285Y-44366128D02*
X48291666Y-44318509D01*
X48291666Y-44318509D02*
X48196428Y-44270890D01*
X189261905Y-23076694D02*
X189261905Y-22076694D01*
X189261905Y-22552884D02*
X189833333Y-22552884D01*
X189833333Y-23076694D02*
X189833333Y-22076694D01*
X190833333Y-23076694D02*
X190261905Y-23076694D01*
X190547619Y-23076694D02*
X190547619Y-22076694D01*
X190547619Y-22076694D02*
X190452381Y-22219551D01*
X190452381Y-22219551D02*
X190357143Y-22314789D01*
X190357143Y-22314789D02*
X190261905Y-22362408D01*
X191690476Y-22410027D02*
X191690476Y-23076694D01*
X191452381Y-22029075D02*
X191214286Y-22743360D01*
X191214286Y-22743360D02*
X191833333Y-22743360D01*
%TO.C,U3*%
X155303125Y-26975000D02*
X155303125Y-39075000D01*
X155553125Y-26975000D02*
X155553125Y-24975000D01*
X161153125Y-24975000D02*
X155553125Y-24975000D01*
X161153125Y-26975000D02*
X161153125Y-24975000D01*
X161403125Y-26975000D02*
X155303125Y-26975000D01*
X161403125Y-26975000D02*
X161403125Y-39075000D01*
X161403125Y-39075000D02*
X155303125Y-39075000D01*
D11*
%TO.C,S32*%
X234573362Y-35762500D02*
X234573362Y-49962500D01*
X234573362Y-49962500D02*
X248773362Y-49962500D01*
X248773362Y-35762500D02*
X234573362Y-35762500D01*
X248773362Y-49962500D02*
X248773362Y-35762500D01*
%TO.C,S35*%
X291723362Y-45287500D02*
X291723362Y-59487500D01*
X291723362Y-59487500D02*
X305923362Y-59487500D01*
X305923362Y-45287500D02*
X291723362Y-45287500D01*
X305923362Y-59487500D02*
X305923362Y-45287500D01*
%TO.C,S9*%
X59575000Y-40525000D02*
X59575000Y-54725000D01*
X59575000Y-54725000D02*
X73775000Y-54725000D01*
X73775000Y-40525000D02*
X59575000Y-40525000D01*
X73775000Y-54725000D02*
X73775000Y-40525000D01*
%TO.C,S26*%
X234573362Y-16712500D02*
X234573362Y-30912500D01*
X234573362Y-30912500D02*
X248773362Y-30912500D01*
X248773362Y-16712500D02*
X234573362Y-16712500D01*
X248773362Y-30912500D02*
X248773362Y-16712500D01*
%TO.C,S39*%
X234573362Y-54812500D02*
X234573362Y-69012500D01*
X234573362Y-69012500D02*
X248773362Y-69012500D01*
X248773362Y-54812500D02*
X234573362Y-54812500D01*
X248773362Y-69012500D02*
X248773362Y-54812500D01*
%TO.C,S16*%
X78625000Y-54812500D02*
X78625000Y-69012500D01*
X78625000Y-69012500D02*
X92825000Y-69012500D01*
X92825000Y-54812500D02*
X78625000Y-54812500D01*
X92825000Y-69012500D02*
X92825000Y-54812500D01*
%TO.C,S43*%
X182185862Y-83387500D02*
X182185862Y-97587500D01*
X182185862Y-97587500D02*
X196385862Y-97587500D01*
X196385862Y-83387500D02*
X182185862Y-83387500D01*
X196385862Y-97587500D02*
X196385862Y-83387500D01*
%TO.C,S13*%
X21475000Y-64337500D02*
X21475000Y-78537500D01*
X21475000Y-78537500D02*
X35675000Y-78537500D01*
X35675000Y-64337500D02*
X21475000Y-64337500D01*
X35675000Y-78537500D02*
X35675000Y-64337500D01*
%TO.C,S10*%
X78625000Y-35762500D02*
X78625000Y-49962500D01*
X78625000Y-49962500D02*
X92825000Y-49962500D01*
X92825000Y-35762500D02*
X78625000Y-35762500D01*
X92825000Y-49962500D02*
X92825000Y-35762500D01*
%TO.C,S2*%
X40525000Y-26237500D02*
X40525000Y-40437500D01*
X40525000Y-40437500D02*
X54725000Y-40437500D01*
X54725000Y-26237500D02*
X40525000Y-26237500D01*
X54725000Y-40437500D02*
X54725000Y-26237500D01*
%TO.C,S17*%
X97675000Y-59575000D02*
X97675000Y-73775000D01*
X97675000Y-73775000D02*
X111875000Y-73775000D01*
X111875000Y-59575000D02*
X97675000Y-59575000D01*
X111875000Y-73775000D02*
X111875000Y-59575000D01*
D10*
%TO.C,U4*%
X165995237Y-26975000D02*
X165995237Y-39075000D01*
X166245237Y-26975000D02*
X166245237Y-24975000D01*
X171845237Y-24975000D02*
X166245237Y-24975000D01*
X171845237Y-26975000D02*
X171845237Y-24975000D01*
X172095237Y-26975000D02*
X165995237Y-26975000D01*
X172095237Y-26975000D02*
X172095237Y-39075000D01*
X172095237Y-39075000D02*
X165995237Y-39075000D01*
D11*
%TO.C,S20*%
X69100000Y-78625000D02*
X69100000Y-92825000D01*
X69100000Y-92825000D02*
X83300000Y-92825000D01*
X83300000Y-78625000D02*
X69100000Y-78625000D01*
X83300000Y-92825000D02*
X83300000Y-78625000D01*
%TO.C,S21*%
X88150000Y-78625000D02*
X88150000Y-92825000D01*
X88150000Y-92825000D02*
X102350000Y-92825000D01*
X102350000Y-78625000D02*
X88150000Y-78625000D01*
X102350000Y-92825000D02*
X102350000Y-78625000D01*
%TO.C,S34*%
X272673362Y-45287500D02*
X272673362Y-59487500D01*
X272673362Y-59487500D02*
X286873362Y-59487500D01*
X286873362Y-45287500D02*
X272673362Y-45287500D01*
X286873362Y-59487500D02*
X286873362Y-45287500D01*
%TO.C,S30*%
X196473362Y-45287500D02*
X196473362Y-59487500D01*
X196473362Y-59487500D02*
X210673362Y-59487500D01*
X210673362Y-45287500D02*
X196473362Y-45287500D01*
X210673362Y-59487500D02*
X210673362Y-45287500D01*
%TO.C,S28*%
X272673362Y-26237500D02*
X272673362Y-40437500D01*
X272673362Y-40437500D02*
X286873362Y-40437500D01*
X286873362Y-26237500D02*
X272673362Y-26237500D01*
X286873362Y-40437500D02*
X286873362Y-26237500D01*
%TO.C,S6*%
X116725000Y-26237500D02*
X116725000Y-40437500D01*
X116725000Y-40437500D02*
X130925000Y-40437500D01*
X130925000Y-26237500D02*
X116725000Y-26237500D01*
X130925000Y-40437500D02*
X130925000Y-26237500D01*
%TO.C,S45*%
X225048362Y-78625000D02*
X225048362Y-92825000D01*
X225048362Y-92825000D02*
X239248362Y-92825000D01*
X239248362Y-78625000D02*
X225048362Y-78625000D01*
X239248362Y-92825000D02*
X239248362Y-78625000D01*
%TO.C,S18*%
X116725000Y-64337500D02*
X116725000Y-78537500D01*
X116725000Y-78537500D02*
X130925000Y-78537500D01*
X130925000Y-64337500D02*
X116725000Y-64337500D01*
X130925000Y-78537500D02*
X130925000Y-64337500D01*
%TO.C,S22*%
X107200000Y-83387500D02*
X107200000Y-97587500D01*
X107200000Y-97587500D02*
X121400000Y-97587500D01*
X121400000Y-83387500D02*
X107200000Y-83387500D01*
X121400000Y-97587500D02*
X121400000Y-83387500D01*
%TO.C,S41*%
X272673362Y-64337500D02*
X272673362Y-78537500D01*
X272673362Y-78537500D02*
X286873362Y-78537500D01*
X286873362Y-64337500D02*
X272673362Y-64337500D01*
X286873362Y-78537500D02*
X286873362Y-64337500D01*
%TO.C,S29*%
X291723362Y-26237500D02*
X291723362Y-40437500D01*
X291723362Y-40437500D02*
X305923362Y-40437500D01*
X305923362Y-26237500D02*
X291723362Y-26237500D01*
X305923362Y-40437500D02*
X305923362Y-26237500D01*
%TO.C,S3*%
X59575000Y-21475000D02*
X59575000Y-35675000D01*
X59575000Y-35675000D02*
X73775000Y-35675000D01*
X73775000Y-21475000D02*
X59575000Y-21475000D01*
X73775000Y-35675000D02*
X73775000Y-21475000D01*
%TO.C,S23*%
X131012500Y-83387500D02*
X131012500Y-97587500D01*
X131012500Y-97587500D02*
X145212500Y-97587500D01*
X145212500Y-83387500D02*
X131012500Y-83387500D01*
X145212500Y-97587500D02*
X145212500Y-83387500D01*
%TO.C,S5*%
X97675000Y-21475000D02*
X97675000Y-35675000D01*
X97675000Y-35675000D02*
X111875000Y-35675000D01*
X111875000Y-21475000D02*
X97675000Y-21475000D01*
X111875000Y-35675000D02*
X111875000Y-21475000D01*
%TO.C,S44*%
X205998362Y-83387500D02*
X205998362Y-97587500D01*
X205998362Y-97587500D02*
X220198362Y-97587500D01*
X220198362Y-83387500D02*
X205998362Y-83387500D01*
X220198362Y-97587500D02*
X220198362Y-83387500D01*
D12*
%TO.C,U1*%
X136366250Y-23495000D02*
X136366250Y-56515000D01*
X136366250Y-56515000D02*
X154146250Y-56515000D01*
X138906250Y-26035000D02*
X136366250Y-26035000D01*
X138906250Y-26035000D02*
X138906250Y-28575000D01*
X138906250Y-28575000D02*
X136366250Y-28575000D01*
X154146250Y-23495000D02*
X136366250Y-23495000D01*
X154146250Y-56515000D02*
X154146250Y-23495000D01*
D10*
X149787818Y-32714360D02*
X149687818Y-32714360D01*
X149687818Y-31914360D01*
X149787818Y-31914360D01*
X149787818Y-32714360D01*
G36*
X149787818Y-32714360D02*
G01*
X149687818Y-32714360D01*
X149687818Y-31914360D01*
X149787818Y-31914360D01*
X149787818Y-32714360D01*
G37*
X149987818Y-32414360D02*
X149887818Y-32414360D01*
X149887818Y-32314360D01*
X149987818Y-32314360D01*
X149987818Y-32414360D01*
G36*
X149987818Y-32414360D02*
G01*
X149887818Y-32414360D01*
X149887818Y-32314360D01*
X149987818Y-32314360D01*
X149987818Y-32414360D01*
G37*
X150187818Y-32014360D02*
X149687818Y-32014360D01*
X149687818Y-31914360D01*
X150187818Y-31914360D01*
X150187818Y-32014360D01*
G36*
X150187818Y-32014360D02*
G01*
X149687818Y-32014360D01*
X149687818Y-31914360D01*
X150187818Y-31914360D01*
X150187818Y-32014360D01*
G37*
X150187818Y-32214360D02*
X150087818Y-32214360D01*
X150087818Y-31914360D01*
X150187818Y-31914360D01*
X150187818Y-32214360D01*
G36*
X150187818Y-32214360D02*
G01*
X150087818Y-32214360D01*
X150087818Y-31914360D01*
X150187818Y-31914360D01*
X150187818Y-32214360D01*
G37*
X150187818Y-32714360D02*
X150087818Y-32714360D01*
X150087818Y-32514360D01*
X150187818Y-32514360D01*
X150187818Y-32714360D01*
G36*
X150187818Y-32714360D02*
G01*
X150087818Y-32714360D01*
X150087818Y-32514360D01*
X150187818Y-32514360D01*
X150187818Y-32714360D01*
G37*
D11*
%TO.C,S46*%
X244098362Y-78625000D02*
X244098362Y-92825000D01*
X244098362Y-92825000D02*
X258298362Y-92825000D01*
X258298362Y-78625000D02*
X244098362Y-78625000D01*
X258298362Y-92825000D02*
X258298362Y-78625000D01*
%TO.C,S42*%
X291723362Y-64337500D02*
X291723362Y-78537500D01*
X291723362Y-78537500D02*
X305923362Y-78537500D01*
X305923362Y-64337500D02*
X291723362Y-64337500D01*
X305923362Y-78537500D02*
X305923362Y-64337500D01*
%TO.C,S11*%
X97675000Y-40525000D02*
X97675000Y-54725000D01*
X97675000Y-54725000D02*
X111875000Y-54725000D01*
X111875000Y-40525000D02*
X97675000Y-40525000D01*
X111875000Y-54725000D02*
X111875000Y-40525000D01*
%TO.C,S19*%
X135775000Y-59575000D02*
X135775000Y-73775000D01*
X135775000Y-73775000D02*
X149975000Y-73775000D01*
X149975000Y-59575000D02*
X135775000Y-59575000D01*
X149975000Y-73775000D02*
X149975000Y-59575000D01*
%TO.C,S40*%
X253623362Y-59575000D02*
X253623362Y-73775000D01*
X253623362Y-73775000D02*
X267823362Y-73775000D01*
X267823362Y-59575000D02*
X253623362Y-59575000D01*
X267823362Y-73775000D02*
X267823362Y-59575000D01*
%TO.C,S1*%
X21475000Y-26237500D02*
X21475000Y-40437500D01*
X21475000Y-40437500D02*
X35675000Y-40437500D01*
X35675000Y-26237500D02*
X21475000Y-26237500D01*
X35675000Y-40437500D02*
X35675000Y-26237500D01*
%TO.C,S12*%
X116725000Y-45287500D02*
X116725000Y-59487500D01*
X116725000Y-59487500D02*
X130925000Y-59487500D01*
X130925000Y-45287500D02*
X116725000Y-45287500D01*
X130925000Y-59487500D02*
X130925000Y-45287500D01*
%TO.C,S37*%
X196473362Y-64337500D02*
X196473362Y-78537500D01*
X196473362Y-78537500D02*
X210673362Y-78537500D01*
X210673362Y-64337500D02*
X196473362Y-64337500D01*
X210673362Y-78537500D02*
X210673362Y-64337500D01*
%TO.C,S24*%
X196473362Y-26237500D02*
X196473362Y-40437500D01*
X196473362Y-40437500D02*
X210673362Y-40437500D01*
X210673362Y-26237500D02*
X196473362Y-26237500D01*
X210673362Y-40437500D02*
X210673362Y-26237500D01*
%TO.C,S25*%
X215523362Y-21475000D02*
X215523362Y-35675000D01*
X215523362Y-35675000D02*
X229723362Y-35675000D01*
X229723362Y-21475000D02*
X215523362Y-21475000D01*
X229723362Y-35675000D02*
X229723362Y-21475000D01*
%TO.C,S33*%
X253623362Y-40525000D02*
X253623362Y-54725000D01*
X253623362Y-54725000D02*
X267823362Y-54725000D01*
X267823362Y-40525000D02*
X253623362Y-40525000D01*
X267823362Y-54725000D02*
X267823362Y-40525000D01*
%TO.C,S38*%
X215523362Y-59575000D02*
X215523362Y-73775000D01*
X215523362Y-73775000D02*
X229723362Y-73775000D01*
X229723362Y-59575000D02*
X215523362Y-59575000D01*
X229723362Y-73775000D02*
X229723362Y-59575000D01*
%TO.C,S7*%
X21475000Y-45287500D02*
X21475000Y-59487500D01*
X21475000Y-59487500D02*
X35675000Y-59487500D01*
X35675000Y-45287500D02*
X21475000Y-45287500D01*
X35675000Y-59487500D02*
X35675000Y-45287500D01*
%TO.C,S36*%
X177423362Y-59575000D02*
X177423362Y-73775000D01*
X177423362Y-73775000D02*
X191623362Y-73775000D01*
X191623362Y-59575000D02*
X177423362Y-59575000D01*
X191623362Y-73775000D02*
X191623362Y-59575000D01*
%TO.C,S31*%
X215523362Y-40525000D02*
X215523362Y-54725000D01*
X215523362Y-54725000D02*
X229723362Y-54725000D01*
X229723362Y-40525000D02*
X215523362Y-40525000D01*
X229723362Y-54725000D02*
X229723362Y-40525000D01*
%TO.C,S4*%
X78625000Y-16712500D02*
X78625000Y-30912500D01*
X78625000Y-30912500D02*
X92825000Y-30912500D01*
X92825000Y-16712500D02*
X78625000Y-16712500D01*
X92825000Y-30912500D02*
X92825000Y-16712500D01*
%TO.C,S27*%
X253623362Y-21475000D02*
X253623362Y-35675000D01*
X253623362Y-35675000D02*
X267823362Y-35675000D01*
X267823362Y-21475000D02*
X253623362Y-21475000D01*
X267823362Y-35675000D02*
X267823362Y-21475000D01*
%TO.C,S14*%
X40525000Y-64337500D02*
X40525000Y-78537500D01*
X40525000Y-78537500D02*
X54725000Y-78537500D01*
X54725000Y-64337500D02*
X40525000Y-64337500D01*
X54725000Y-78537500D02*
X54725000Y-64337500D01*
D12*
%TO.C,U2*%
X173252112Y-23495000D02*
X173252112Y-56515000D01*
X173252112Y-56515000D02*
X191032112Y-56515000D01*
X175792112Y-26035000D02*
X173252112Y-26035000D01*
X175792112Y-26035000D02*
X175792112Y-28575000D01*
X175792112Y-28575000D02*
X173252112Y-28575000D01*
X191032112Y-23495000D02*
X173252112Y-23495000D01*
X191032112Y-56515000D02*
X191032112Y-23495000D01*
D10*
X186673680Y-32714360D02*
X186573680Y-32714360D01*
X186573680Y-31914360D01*
X186673680Y-31914360D01*
X186673680Y-32714360D01*
G36*
X186673680Y-32714360D02*
G01*
X186573680Y-32714360D01*
X186573680Y-31914360D01*
X186673680Y-31914360D01*
X186673680Y-32714360D01*
G37*
X186873680Y-32414360D02*
X186773680Y-32414360D01*
X186773680Y-32314360D01*
X186873680Y-32314360D01*
X186873680Y-32414360D01*
G36*
X186873680Y-32414360D02*
G01*
X186773680Y-32414360D01*
X186773680Y-32314360D01*
X186873680Y-32314360D01*
X186873680Y-32414360D01*
G37*
X187073680Y-32014360D02*
X186573680Y-32014360D01*
X186573680Y-31914360D01*
X187073680Y-31914360D01*
X187073680Y-32014360D01*
G36*
X187073680Y-32014360D02*
G01*
X186573680Y-32014360D01*
X186573680Y-31914360D01*
X187073680Y-31914360D01*
X187073680Y-32014360D01*
G37*
X187073680Y-32214360D02*
X186973680Y-32214360D01*
X186973680Y-31914360D01*
X187073680Y-31914360D01*
X187073680Y-32214360D01*
G36*
X187073680Y-32214360D02*
G01*
X186973680Y-32214360D01*
X186973680Y-31914360D01*
X187073680Y-31914360D01*
X187073680Y-32214360D01*
G37*
X187073680Y-32714360D02*
X186973680Y-32714360D01*
X186973680Y-32514360D01*
X187073680Y-32514360D01*
X187073680Y-32714360D01*
G36*
X187073680Y-32714360D02*
G01*
X186973680Y-32714360D01*
X186973680Y-32514360D01*
X187073680Y-32514360D01*
X187073680Y-32714360D01*
G37*
D11*
%TO.C,S15*%
X59575000Y-59575000D02*
X59575000Y-73775000D01*
X59575000Y-73775000D02*
X73775000Y-73775000D01*
X73775000Y-59575000D02*
X59575000Y-59575000D01*
X73775000Y-73775000D02*
X73775000Y-59575000D01*
%TO.C,S8*%
X40525000Y-45287500D02*
X40525000Y-59487500D01*
X40525000Y-59487500D02*
X54725000Y-59487500D01*
X54725000Y-45287500D02*
X40525000Y-45287500D01*
X54725000Y-59487500D02*
X54725000Y-45287500D01*
%TD*%
D13*
%TO.C,U1*%
X137636250Y-27305000D03*
D14*
X137636250Y-29845000D03*
X137636250Y-32385000D03*
X137636250Y-34925000D03*
X137636250Y-37465000D03*
X137636250Y-40005000D03*
X137636250Y-42545000D03*
X137636250Y-45085000D03*
X137636250Y-47625000D03*
X137636250Y-50165000D03*
X137636250Y-52705000D03*
X137636250Y-55245000D03*
X152876250Y-55245000D03*
X152876250Y-52705000D03*
X152876250Y-50165000D03*
X152876250Y-47625000D03*
X152876250Y-45085000D03*
X152876250Y-42545000D03*
X152876250Y-40005000D03*
X152876250Y-37465000D03*
X152876250Y-34925000D03*
X152876250Y-32385000D03*
X152876250Y-29845000D03*
X152876250Y-27305000D03*
%TD*%
D13*
%TO.C,U2*%
X174522112Y-27305000D03*
D14*
X174522112Y-29845000D03*
X174522112Y-32385000D03*
X174522112Y-34925000D03*
X174522112Y-37465000D03*
X174522112Y-40005000D03*
X174522112Y-42545000D03*
X174522112Y-45085000D03*
X174522112Y-47625000D03*
X174522112Y-50165000D03*
X174522112Y-52705000D03*
X174522112Y-55245000D03*
X189762112Y-55245000D03*
X189762112Y-52705000D03*
X189762112Y-50165000D03*
X189762112Y-47625000D03*
X189762112Y-45085000D03*
X189762112Y-42545000D03*
X189762112Y-40005000D03*
X189762112Y-37465000D03*
X189762112Y-34925000D03*
X189762112Y-32385000D03*
X189762112Y-29845000D03*
X189762112Y-27305000D03*
%TD*%
M02*
