%TF.GenerationSoftware,KiCad,Pcbnew,7.0.8*%
%TF.CreationDate,2023-11-03T19:22:55+09:00*%
%TF.ProjectId,scene46_right,7363656e-6534-4365-9f72-696768742e6b,rev?*%
%TF.SameCoordinates,Original*%
%TF.FileFunction,Legend,Top*%
%TF.FilePolarity,Positive*%
%FSLAX46Y46*%
G04 Gerber Fmt 4.6, Leading zero omitted, Abs format (unit mm)*
G04 Created by KiCad (PCBNEW 7.0.8) date 2023-11-03 19:22:55*
%MOMM*%
%LPD*%
G01*
G04 APERTURE LIST*
%ADD10C,0.150000*%
%ADD11C,0.120000*%
%ADD12C,0.200000*%
%ADD13R,1.752600X1.752600*%
%ADD14C,1.752600*%
G04 APERTURE END LIST*
D10*
X151241280Y-47175950D02*
X151384137Y-47223569D01*
X151384137Y-47223569D02*
X151622232Y-47223569D01*
X151622232Y-47223569D02*
X151717470Y-47175950D01*
X151717470Y-47175950D02*
X151765089Y-47128330D01*
X151765089Y-47128330D02*
X151812708Y-47033092D01*
X151812708Y-47033092D02*
X151812708Y-46937854D01*
X151812708Y-46937854D02*
X151765089Y-46842616D01*
X151765089Y-46842616D02*
X151717470Y-46794997D01*
X151717470Y-46794997D02*
X151622232Y-46747378D01*
X151622232Y-46747378D02*
X151431756Y-46699759D01*
X151431756Y-46699759D02*
X151336518Y-46652140D01*
X151336518Y-46652140D02*
X151288899Y-46604521D01*
X151288899Y-46604521D02*
X151241280Y-46509283D01*
X151241280Y-46509283D02*
X151241280Y-46414045D01*
X151241280Y-46414045D02*
X151288899Y-46318807D01*
X151288899Y-46318807D02*
X151336518Y-46271188D01*
X151336518Y-46271188D02*
X151431756Y-46223569D01*
X151431756Y-46223569D02*
X151669851Y-46223569D01*
X151669851Y-46223569D02*
X151812708Y-46271188D01*
X152146042Y-46223569D02*
X152765089Y-46223569D01*
X152765089Y-46223569D02*
X152431756Y-46604521D01*
X152431756Y-46604521D02*
X152574613Y-46604521D01*
X152574613Y-46604521D02*
X152669851Y-46652140D01*
X152669851Y-46652140D02*
X152717470Y-46699759D01*
X152717470Y-46699759D02*
X152765089Y-46794997D01*
X152765089Y-46794997D02*
X152765089Y-47033092D01*
X152765089Y-47033092D02*
X152717470Y-47128330D01*
X152717470Y-47128330D02*
X152669851Y-47175950D01*
X152669851Y-47175950D02*
X152574613Y-47223569D01*
X152574613Y-47223569D02*
X152288899Y-47223569D01*
X152288899Y-47223569D02*
X152193661Y-47175950D01*
X152193661Y-47175950D02*
X152146042Y-47128330D01*
X153146042Y-46318807D02*
X153193661Y-46271188D01*
X153193661Y-46271188D02*
X153288899Y-46223569D01*
X153288899Y-46223569D02*
X153526994Y-46223569D01*
X153526994Y-46223569D02*
X153622232Y-46271188D01*
X153622232Y-46271188D02*
X153669851Y-46318807D01*
X153669851Y-46318807D02*
X153717470Y-46414045D01*
X153717470Y-46414045D02*
X153717470Y-46509283D01*
X153717470Y-46509283D02*
X153669851Y-46652140D01*
X153669851Y-46652140D02*
X153098423Y-47223569D01*
X153098423Y-47223569D02*
X153717470Y-47223569D01*
X208391280Y-56700950D02*
X208534137Y-56748569D01*
X208534137Y-56748569D02*
X208772232Y-56748569D01*
X208772232Y-56748569D02*
X208867470Y-56700950D01*
X208867470Y-56700950D02*
X208915089Y-56653330D01*
X208915089Y-56653330D02*
X208962708Y-56558092D01*
X208962708Y-56558092D02*
X208962708Y-56462854D01*
X208962708Y-56462854D02*
X208915089Y-56367616D01*
X208915089Y-56367616D02*
X208867470Y-56319997D01*
X208867470Y-56319997D02*
X208772232Y-56272378D01*
X208772232Y-56272378D02*
X208581756Y-56224759D01*
X208581756Y-56224759D02*
X208486518Y-56177140D01*
X208486518Y-56177140D02*
X208438899Y-56129521D01*
X208438899Y-56129521D02*
X208391280Y-56034283D01*
X208391280Y-56034283D02*
X208391280Y-55939045D01*
X208391280Y-55939045D02*
X208438899Y-55843807D01*
X208438899Y-55843807D02*
X208486518Y-55796188D01*
X208486518Y-55796188D02*
X208581756Y-55748569D01*
X208581756Y-55748569D02*
X208819851Y-55748569D01*
X208819851Y-55748569D02*
X208962708Y-55796188D01*
X209296042Y-55748569D02*
X209915089Y-55748569D01*
X209915089Y-55748569D02*
X209581756Y-56129521D01*
X209581756Y-56129521D02*
X209724613Y-56129521D01*
X209724613Y-56129521D02*
X209819851Y-56177140D01*
X209819851Y-56177140D02*
X209867470Y-56224759D01*
X209867470Y-56224759D02*
X209915089Y-56319997D01*
X209915089Y-56319997D02*
X209915089Y-56558092D01*
X209915089Y-56558092D02*
X209867470Y-56653330D01*
X209867470Y-56653330D02*
X209819851Y-56700950D01*
X209819851Y-56700950D02*
X209724613Y-56748569D01*
X209724613Y-56748569D02*
X209438899Y-56748569D01*
X209438899Y-56748569D02*
X209343661Y-56700950D01*
X209343661Y-56700950D02*
X209296042Y-56653330D01*
X210819851Y-55748569D02*
X210343661Y-55748569D01*
X210343661Y-55748569D02*
X210296042Y-56224759D01*
X210296042Y-56224759D02*
X210343661Y-56177140D01*
X210343661Y-56177140D02*
X210438899Y-56129521D01*
X210438899Y-56129521D02*
X210676994Y-56129521D01*
X210676994Y-56129521D02*
X210772232Y-56177140D01*
X210772232Y-56177140D02*
X210819851Y-56224759D01*
X210819851Y-56224759D02*
X210867470Y-56319997D01*
X210867470Y-56319997D02*
X210867470Y-56558092D01*
X210867470Y-56558092D02*
X210819851Y-56653330D01*
X210819851Y-56653330D02*
X210772232Y-56700950D01*
X210772232Y-56700950D02*
X210676994Y-56748569D01*
X210676994Y-56748569D02*
X210438899Y-56748569D01*
X210438899Y-56748569D02*
X210343661Y-56700950D01*
X210343661Y-56700950D02*
X210296042Y-56653330D01*
X151241280Y-28125950D02*
X151384137Y-28173569D01*
X151384137Y-28173569D02*
X151622232Y-28173569D01*
X151622232Y-28173569D02*
X151717470Y-28125950D01*
X151717470Y-28125950D02*
X151765089Y-28078330D01*
X151765089Y-28078330D02*
X151812708Y-27983092D01*
X151812708Y-27983092D02*
X151812708Y-27887854D01*
X151812708Y-27887854D02*
X151765089Y-27792616D01*
X151765089Y-27792616D02*
X151717470Y-27744997D01*
X151717470Y-27744997D02*
X151622232Y-27697378D01*
X151622232Y-27697378D02*
X151431756Y-27649759D01*
X151431756Y-27649759D02*
X151336518Y-27602140D01*
X151336518Y-27602140D02*
X151288899Y-27554521D01*
X151288899Y-27554521D02*
X151241280Y-27459283D01*
X151241280Y-27459283D02*
X151241280Y-27364045D01*
X151241280Y-27364045D02*
X151288899Y-27268807D01*
X151288899Y-27268807D02*
X151336518Y-27221188D01*
X151336518Y-27221188D02*
X151431756Y-27173569D01*
X151431756Y-27173569D02*
X151669851Y-27173569D01*
X151669851Y-27173569D02*
X151812708Y-27221188D01*
X152193661Y-27268807D02*
X152241280Y-27221188D01*
X152241280Y-27221188D02*
X152336518Y-27173569D01*
X152336518Y-27173569D02*
X152574613Y-27173569D01*
X152574613Y-27173569D02*
X152669851Y-27221188D01*
X152669851Y-27221188D02*
X152717470Y-27268807D01*
X152717470Y-27268807D02*
X152765089Y-27364045D01*
X152765089Y-27364045D02*
X152765089Y-27459283D01*
X152765089Y-27459283D02*
X152717470Y-27602140D01*
X152717470Y-27602140D02*
X152146042Y-28173569D01*
X152146042Y-28173569D02*
X152765089Y-28173569D01*
X153622232Y-27173569D02*
X153431756Y-27173569D01*
X153431756Y-27173569D02*
X153336518Y-27221188D01*
X153336518Y-27221188D02*
X153288899Y-27268807D01*
X153288899Y-27268807D02*
X153193661Y-27411664D01*
X153193661Y-27411664D02*
X153146042Y-27602140D01*
X153146042Y-27602140D02*
X153146042Y-27983092D01*
X153146042Y-27983092D02*
X153193661Y-28078330D01*
X153193661Y-28078330D02*
X153241280Y-28125950D01*
X153241280Y-28125950D02*
X153336518Y-28173569D01*
X153336518Y-28173569D02*
X153526994Y-28173569D01*
X153526994Y-28173569D02*
X153622232Y-28125950D01*
X153622232Y-28125950D02*
X153669851Y-28078330D01*
X153669851Y-28078330D02*
X153717470Y-27983092D01*
X153717470Y-27983092D02*
X153717470Y-27744997D01*
X153717470Y-27744997D02*
X153669851Y-27649759D01*
X153669851Y-27649759D02*
X153622232Y-27602140D01*
X153622232Y-27602140D02*
X153526994Y-27554521D01*
X153526994Y-27554521D02*
X153336518Y-27554521D01*
X153336518Y-27554521D02*
X153241280Y-27602140D01*
X153241280Y-27602140D02*
X153193661Y-27649759D01*
X153193661Y-27649759D02*
X153146042Y-27744997D01*
X151241280Y-66225950D02*
X151384137Y-66273569D01*
X151384137Y-66273569D02*
X151622232Y-66273569D01*
X151622232Y-66273569D02*
X151717470Y-66225950D01*
X151717470Y-66225950D02*
X151765089Y-66178330D01*
X151765089Y-66178330D02*
X151812708Y-66083092D01*
X151812708Y-66083092D02*
X151812708Y-65987854D01*
X151812708Y-65987854D02*
X151765089Y-65892616D01*
X151765089Y-65892616D02*
X151717470Y-65844997D01*
X151717470Y-65844997D02*
X151622232Y-65797378D01*
X151622232Y-65797378D02*
X151431756Y-65749759D01*
X151431756Y-65749759D02*
X151336518Y-65702140D01*
X151336518Y-65702140D02*
X151288899Y-65654521D01*
X151288899Y-65654521D02*
X151241280Y-65559283D01*
X151241280Y-65559283D02*
X151241280Y-65464045D01*
X151241280Y-65464045D02*
X151288899Y-65368807D01*
X151288899Y-65368807D02*
X151336518Y-65321188D01*
X151336518Y-65321188D02*
X151431756Y-65273569D01*
X151431756Y-65273569D02*
X151669851Y-65273569D01*
X151669851Y-65273569D02*
X151812708Y-65321188D01*
X152146042Y-65273569D02*
X152765089Y-65273569D01*
X152765089Y-65273569D02*
X152431756Y-65654521D01*
X152431756Y-65654521D02*
X152574613Y-65654521D01*
X152574613Y-65654521D02*
X152669851Y-65702140D01*
X152669851Y-65702140D02*
X152717470Y-65749759D01*
X152717470Y-65749759D02*
X152765089Y-65844997D01*
X152765089Y-65844997D02*
X152765089Y-66083092D01*
X152765089Y-66083092D02*
X152717470Y-66178330D01*
X152717470Y-66178330D02*
X152669851Y-66225950D01*
X152669851Y-66225950D02*
X152574613Y-66273569D01*
X152574613Y-66273569D02*
X152288899Y-66273569D01*
X152288899Y-66273569D02*
X152193661Y-66225950D01*
X152193661Y-66225950D02*
X152146042Y-66178330D01*
X153241280Y-66273569D02*
X153431756Y-66273569D01*
X153431756Y-66273569D02*
X153526994Y-66225950D01*
X153526994Y-66225950D02*
X153574613Y-66178330D01*
X153574613Y-66178330D02*
X153669851Y-66035473D01*
X153669851Y-66035473D02*
X153717470Y-65844997D01*
X153717470Y-65844997D02*
X153717470Y-65464045D01*
X153717470Y-65464045D02*
X153669851Y-65368807D01*
X153669851Y-65368807D02*
X153622232Y-65321188D01*
X153622232Y-65321188D02*
X153526994Y-65273569D01*
X153526994Y-65273569D02*
X153336518Y-65273569D01*
X153336518Y-65273569D02*
X153241280Y-65321188D01*
X153241280Y-65321188D02*
X153193661Y-65368807D01*
X153193661Y-65368807D02*
X153146042Y-65464045D01*
X153146042Y-65464045D02*
X153146042Y-65702140D01*
X153146042Y-65702140D02*
X153193661Y-65797378D01*
X153193661Y-65797378D02*
X153241280Y-65844997D01*
X153241280Y-65844997D02*
X153336518Y-65892616D01*
X153336518Y-65892616D02*
X153526994Y-65892616D01*
X153526994Y-65892616D02*
X153622232Y-65844997D01*
X153622232Y-65844997D02*
X153669851Y-65797378D01*
X153669851Y-65797378D02*
X153717470Y-65702140D01*
X98853780Y-94800950D02*
X98996637Y-94848569D01*
X98996637Y-94848569D02*
X99234732Y-94848569D01*
X99234732Y-94848569D02*
X99329970Y-94800950D01*
X99329970Y-94800950D02*
X99377589Y-94753330D01*
X99377589Y-94753330D02*
X99425208Y-94658092D01*
X99425208Y-94658092D02*
X99425208Y-94562854D01*
X99425208Y-94562854D02*
X99377589Y-94467616D01*
X99377589Y-94467616D02*
X99329970Y-94419997D01*
X99329970Y-94419997D02*
X99234732Y-94372378D01*
X99234732Y-94372378D02*
X99044256Y-94324759D01*
X99044256Y-94324759D02*
X98949018Y-94277140D01*
X98949018Y-94277140D02*
X98901399Y-94229521D01*
X98901399Y-94229521D02*
X98853780Y-94134283D01*
X98853780Y-94134283D02*
X98853780Y-94039045D01*
X98853780Y-94039045D02*
X98901399Y-93943807D01*
X98901399Y-93943807D02*
X98949018Y-93896188D01*
X98949018Y-93896188D02*
X99044256Y-93848569D01*
X99044256Y-93848569D02*
X99282351Y-93848569D01*
X99282351Y-93848569D02*
X99425208Y-93896188D01*
X100282351Y-94181902D02*
X100282351Y-94848569D01*
X100044256Y-93800950D02*
X99806161Y-94515235D01*
X99806161Y-94515235D02*
X100425208Y-94515235D01*
X100710923Y-93848569D02*
X101329970Y-93848569D01*
X101329970Y-93848569D02*
X100996637Y-94229521D01*
X100996637Y-94229521D02*
X101139494Y-94229521D01*
X101139494Y-94229521D02*
X101234732Y-94277140D01*
X101234732Y-94277140D02*
X101282351Y-94324759D01*
X101282351Y-94324759D02*
X101329970Y-94419997D01*
X101329970Y-94419997D02*
X101329970Y-94658092D01*
X101329970Y-94658092D02*
X101282351Y-94753330D01*
X101282351Y-94753330D02*
X101234732Y-94800950D01*
X101234732Y-94800950D02*
X101139494Y-94848569D01*
X101139494Y-94848569D02*
X100853780Y-94848569D01*
X100853780Y-94848569D02*
X100758542Y-94800950D01*
X100758542Y-94800950D02*
X100710923Y-94753330D01*
X90542918Y-93323569D02*
X90542918Y-92323569D01*
X90542918Y-92799759D02*
X91114346Y-92799759D01*
X91114346Y-93323569D02*
X91114346Y-92323569D01*
X92114346Y-93323569D02*
X91542918Y-93323569D01*
X91828632Y-93323569D02*
X91828632Y-92323569D01*
X91828632Y-92323569D02*
X91733394Y-92466426D01*
X91733394Y-92466426D02*
X91638156Y-92561664D01*
X91638156Y-92561664D02*
X91542918Y-92609283D01*
X92733394Y-92323569D02*
X92828632Y-92323569D01*
X92828632Y-92323569D02*
X92923870Y-92371188D01*
X92923870Y-92371188D02*
X92971489Y-92418807D01*
X92971489Y-92418807D02*
X93019108Y-92514045D01*
X93019108Y-92514045D02*
X93066727Y-92704521D01*
X93066727Y-92704521D02*
X93066727Y-92942616D01*
X93066727Y-92942616D02*
X93019108Y-93133092D01*
X93019108Y-93133092D02*
X92971489Y-93228330D01*
X92971489Y-93228330D02*
X92923870Y-93275950D01*
X92923870Y-93275950D02*
X92828632Y-93323569D01*
X92828632Y-93323569D02*
X92733394Y-93323569D01*
X92733394Y-93323569D02*
X92638156Y-93275950D01*
X92638156Y-93275950D02*
X92590537Y-93228330D01*
X92590537Y-93228330D02*
X92542918Y-93133092D01*
X92542918Y-93133092D02*
X92495299Y-92942616D01*
X92495299Y-92942616D02*
X92495299Y-92704521D01*
X92495299Y-92704521D02*
X92542918Y-92514045D01*
X92542918Y-92514045D02*
X92590537Y-92418807D01*
X92590537Y-92418807D02*
X92638156Y-92371188D01*
X92638156Y-92371188D02*
X92733394Y-92323569D01*
X214367918Y-95704819D02*
X214367918Y-94704819D01*
X214367918Y-95181009D02*
X214939346Y-95181009D01*
X214939346Y-95704819D02*
X214939346Y-94704819D01*
X215939346Y-95704819D02*
X215367918Y-95704819D01*
X215653632Y-95704819D02*
X215653632Y-94704819D01*
X215653632Y-94704819D02*
X215558394Y-94847676D01*
X215558394Y-94847676D02*
X215463156Y-94942914D01*
X215463156Y-94942914D02*
X215367918Y-94990533D01*
X216272680Y-94704819D02*
X216891727Y-94704819D01*
X216891727Y-94704819D02*
X216558394Y-95085771D01*
X216558394Y-95085771D02*
X216701251Y-95085771D01*
X216701251Y-95085771D02*
X216796489Y-95133390D01*
X216796489Y-95133390D02*
X216844108Y-95181009D01*
X216844108Y-95181009D02*
X216891727Y-95276247D01*
X216891727Y-95276247D02*
X216891727Y-95514342D01*
X216891727Y-95514342D02*
X216844108Y-95609580D01*
X216844108Y-95609580D02*
X216796489Y-95657200D01*
X216796489Y-95657200D02*
X216701251Y-95704819D01*
X216701251Y-95704819D02*
X216415537Y-95704819D01*
X216415537Y-95704819D02*
X216320299Y-95657200D01*
X216320299Y-95657200D02*
X216272680Y-95609580D01*
X220797233Y-38554819D02*
X220797233Y-37554819D01*
X220797233Y-38031009D02*
X221368661Y-38031009D01*
X221368661Y-38554819D02*
X221368661Y-37554819D01*
X221987709Y-37983390D02*
X221892471Y-37935771D01*
X221892471Y-37935771D02*
X221844852Y-37888152D01*
X221844852Y-37888152D02*
X221797233Y-37792914D01*
X221797233Y-37792914D02*
X221797233Y-37745295D01*
X221797233Y-37745295D02*
X221844852Y-37650057D01*
X221844852Y-37650057D02*
X221892471Y-37602438D01*
X221892471Y-37602438D02*
X221987709Y-37554819D01*
X221987709Y-37554819D02*
X222178185Y-37554819D01*
X222178185Y-37554819D02*
X222273423Y-37602438D01*
X222273423Y-37602438D02*
X222321042Y-37650057D01*
X222321042Y-37650057D02*
X222368661Y-37745295D01*
X222368661Y-37745295D02*
X222368661Y-37792914D01*
X222368661Y-37792914D02*
X222321042Y-37888152D01*
X222321042Y-37888152D02*
X222273423Y-37935771D01*
X222273423Y-37935771D02*
X222178185Y-37983390D01*
X222178185Y-37983390D02*
X221987709Y-37983390D01*
X221987709Y-37983390D02*
X221892471Y-38031009D01*
X221892471Y-38031009D02*
X221844852Y-38078628D01*
X221844852Y-38078628D02*
X221797233Y-38173866D01*
X221797233Y-38173866D02*
X221797233Y-38364342D01*
X221797233Y-38364342D02*
X221844852Y-38459580D01*
X221844852Y-38459580D02*
X221892471Y-38507200D01*
X221892471Y-38507200D02*
X221987709Y-38554819D01*
X221987709Y-38554819D02*
X222178185Y-38554819D01*
X222178185Y-38554819D02*
X222273423Y-38507200D01*
X222273423Y-38507200D02*
X222321042Y-38459580D01*
X222321042Y-38459580D02*
X222368661Y-38364342D01*
X222368661Y-38364342D02*
X222368661Y-38173866D01*
X222368661Y-38173866D02*
X222321042Y-38078628D01*
X222321042Y-38078628D02*
X222273423Y-38031009D01*
X222273423Y-38031009D02*
X222178185Y-37983390D01*
X189341280Y-56700950D02*
X189484137Y-56748569D01*
X189484137Y-56748569D02*
X189722232Y-56748569D01*
X189722232Y-56748569D02*
X189817470Y-56700950D01*
X189817470Y-56700950D02*
X189865089Y-56653330D01*
X189865089Y-56653330D02*
X189912708Y-56558092D01*
X189912708Y-56558092D02*
X189912708Y-56462854D01*
X189912708Y-56462854D02*
X189865089Y-56367616D01*
X189865089Y-56367616D02*
X189817470Y-56319997D01*
X189817470Y-56319997D02*
X189722232Y-56272378D01*
X189722232Y-56272378D02*
X189531756Y-56224759D01*
X189531756Y-56224759D02*
X189436518Y-56177140D01*
X189436518Y-56177140D02*
X189388899Y-56129521D01*
X189388899Y-56129521D02*
X189341280Y-56034283D01*
X189341280Y-56034283D02*
X189341280Y-55939045D01*
X189341280Y-55939045D02*
X189388899Y-55843807D01*
X189388899Y-55843807D02*
X189436518Y-55796188D01*
X189436518Y-55796188D02*
X189531756Y-55748569D01*
X189531756Y-55748569D02*
X189769851Y-55748569D01*
X189769851Y-55748569D02*
X189912708Y-55796188D01*
X190246042Y-55748569D02*
X190865089Y-55748569D01*
X190865089Y-55748569D02*
X190531756Y-56129521D01*
X190531756Y-56129521D02*
X190674613Y-56129521D01*
X190674613Y-56129521D02*
X190769851Y-56177140D01*
X190769851Y-56177140D02*
X190817470Y-56224759D01*
X190817470Y-56224759D02*
X190865089Y-56319997D01*
X190865089Y-56319997D02*
X190865089Y-56558092D01*
X190865089Y-56558092D02*
X190817470Y-56653330D01*
X190817470Y-56653330D02*
X190769851Y-56700950D01*
X190769851Y-56700950D02*
X190674613Y-56748569D01*
X190674613Y-56748569D02*
X190388899Y-56748569D01*
X190388899Y-56748569D02*
X190293661Y-56700950D01*
X190293661Y-56700950D02*
X190246042Y-56653330D01*
X191722232Y-56081902D02*
X191722232Y-56748569D01*
X191484137Y-55700950D02*
X191246042Y-56415235D01*
X191246042Y-56415235D02*
X191865089Y-56415235D01*
X113141280Y-56700950D02*
X113284137Y-56748569D01*
X113284137Y-56748569D02*
X113522232Y-56748569D01*
X113522232Y-56748569D02*
X113617470Y-56700950D01*
X113617470Y-56700950D02*
X113665089Y-56653330D01*
X113665089Y-56653330D02*
X113712708Y-56558092D01*
X113712708Y-56558092D02*
X113712708Y-56462854D01*
X113712708Y-56462854D02*
X113665089Y-56367616D01*
X113665089Y-56367616D02*
X113617470Y-56319997D01*
X113617470Y-56319997D02*
X113522232Y-56272378D01*
X113522232Y-56272378D02*
X113331756Y-56224759D01*
X113331756Y-56224759D02*
X113236518Y-56177140D01*
X113236518Y-56177140D02*
X113188899Y-56129521D01*
X113188899Y-56129521D02*
X113141280Y-56034283D01*
X113141280Y-56034283D02*
X113141280Y-55939045D01*
X113141280Y-55939045D02*
X113188899Y-55843807D01*
X113188899Y-55843807D02*
X113236518Y-55796188D01*
X113236518Y-55796188D02*
X113331756Y-55748569D01*
X113331756Y-55748569D02*
X113569851Y-55748569D01*
X113569851Y-55748569D02*
X113712708Y-55796188D01*
X114046042Y-55748569D02*
X114665089Y-55748569D01*
X114665089Y-55748569D02*
X114331756Y-56129521D01*
X114331756Y-56129521D02*
X114474613Y-56129521D01*
X114474613Y-56129521D02*
X114569851Y-56177140D01*
X114569851Y-56177140D02*
X114617470Y-56224759D01*
X114617470Y-56224759D02*
X114665089Y-56319997D01*
X114665089Y-56319997D02*
X114665089Y-56558092D01*
X114665089Y-56558092D02*
X114617470Y-56653330D01*
X114617470Y-56653330D02*
X114569851Y-56700950D01*
X114569851Y-56700950D02*
X114474613Y-56748569D01*
X114474613Y-56748569D02*
X114188899Y-56748569D01*
X114188899Y-56748569D02*
X114093661Y-56700950D01*
X114093661Y-56700950D02*
X114046042Y-56653330D01*
X115284137Y-55748569D02*
X115379375Y-55748569D01*
X115379375Y-55748569D02*
X115474613Y-55796188D01*
X115474613Y-55796188D02*
X115522232Y-55843807D01*
X115522232Y-55843807D02*
X115569851Y-55939045D01*
X115569851Y-55939045D02*
X115617470Y-56129521D01*
X115617470Y-56129521D02*
X115617470Y-56367616D01*
X115617470Y-56367616D02*
X115569851Y-56558092D01*
X115569851Y-56558092D02*
X115522232Y-56653330D01*
X115522232Y-56653330D02*
X115474613Y-56700950D01*
X115474613Y-56700950D02*
X115379375Y-56748569D01*
X115379375Y-56748569D02*
X115284137Y-56748569D01*
X115284137Y-56748569D02*
X115188899Y-56700950D01*
X115188899Y-56700950D02*
X115141280Y-56653330D01*
X115141280Y-56653330D02*
X115093661Y-56558092D01*
X115093661Y-56558092D02*
X115046042Y-56367616D01*
X115046042Y-56367616D02*
X115046042Y-56129521D01*
X115046042Y-56129521D02*
X115093661Y-55939045D01*
X115093661Y-55939045D02*
X115141280Y-55843807D01*
X115141280Y-55843807D02*
X115188899Y-55796188D01*
X115188899Y-55796188D02*
X115284137Y-55748569D01*
X189341280Y-37650950D02*
X189484137Y-37698569D01*
X189484137Y-37698569D02*
X189722232Y-37698569D01*
X189722232Y-37698569D02*
X189817470Y-37650950D01*
X189817470Y-37650950D02*
X189865089Y-37603330D01*
X189865089Y-37603330D02*
X189912708Y-37508092D01*
X189912708Y-37508092D02*
X189912708Y-37412854D01*
X189912708Y-37412854D02*
X189865089Y-37317616D01*
X189865089Y-37317616D02*
X189817470Y-37269997D01*
X189817470Y-37269997D02*
X189722232Y-37222378D01*
X189722232Y-37222378D02*
X189531756Y-37174759D01*
X189531756Y-37174759D02*
X189436518Y-37127140D01*
X189436518Y-37127140D02*
X189388899Y-37079521D01*
X189388899Y-37079521D02*
X189341280Y-36984283D01*
X189341280Y-36984283D02*
X189341280Y-36889045D01*
X189341280Y-36889045D02*
X189388899Y-36793807D01*
X189388899Y-36793807D02*
X189436518Y-36746188D01*
X189436518Y-36746188D02*
X189531756Y-36698569D01*
X189531756Y-36698569D02*
X189769851Y-36698569D01*
X189769851Y-36698569D02*
X189912708Y-36746188D01*
X190293661Y-36793807D02*
X190341280Y-36746188D01*
X190341280Y-36746188D02*
X190436518Y-36698569D01*
X190436518Y-36698569D02*
X190674613Y-36698569D01*
X190674613Y-36698569D02*
X190769851Y-36746188D01*
X190769851Y-36746188D02*
X190817470Y-36793807D01*
X190817470Y-36793807D02*
X190865089Y-36889045D01*
X190865089Y-36889045D02*
X190865089Y-36984283D01*
X190865089Y-36984283D02*
X190817470Y-37127140D01*
X190817470Y-37127140D02*
X190246042Y-37698569D01*
X190246042Y-37698569D02*
X190865089Y-37698569D01*
X191436518Y-37127140D02*
X191341280Y-37079521D01*
X191341280Y-37079521D02*
X191293661Y-37031902D01*
X191293661Y-37031902D02*
X191246042Y-36936664D01*
X191246042Y-36936664D02*
X191246042Y-36889045D01*
X191246042Y-36889045D02*
X191293661Y-36793807D01*
X191293661Y-36793807D02*
X191341280Y-36746188D01*
X191341280Y-36746188D02*
X191436518Y-36698569D01*
X191436518Y-36698569D02*
X191626994Y-36698569D01*
X191626994Y-36698569D02*
X191722232Y-36746188D01*
X191722232Y-36746188D02*
X191769851Y-36793807D01*
X191769851Y-36793807D02*
X191817470Y-36889045D01*
X191817470Y-36889045D02*
X191817470Y-36936664D01*
X191817470Y-36936664D02*
X191769851Y-37031902D01*
X191769851Y-37031902D02*
X191722232Y-37079521D01*
X191722232Y-37079521D02*
X191626994Y-37127140D01*
X191626994Y-37127140D02*
X191436518Y-37127140D01*
X191436518Y-37127140D02*
X191341280Y-37174759D01*
X191341280Y-37174759D02*
X191293661Y-37222378D01*
X191293661Y-37222378D02*
X191246042Y-37317616D01*
X191246042Y-37317616D02*
X191246042Y-37508092D01*
X191246042Y-37508092D02*
X191293661Y-37603330D01*
X191293661Y-37603330D02*
X191341280Y-37650950D01*
X191341280Y-37650950D02*
X191436518Y-37698569D01*
X191436518Y-37698569D02*
X191626994Y-37698569D01*
X191626994Y-37698569D02*
X191722232Y-37650950D01*
X191722232Y-37650950D02*
X191769851Y-37603330D01*
X191769851Y-37603330D02*
X191817470Y-37508092D01*
X191817470Y-37508092D02*
X191817470Y-37317616D01*
X191817470Y-37317616D02*
X191769851Y-37222378D01*
X191769851Y-37222378D02*
X191722232Y-37174759D01*
X191722232Y-37174759D02*
X191626994Y-37127140D01*
X141716280Y-90038450D02*
X141859137Y-90086069D01*
X141859137Y-90086069D02*
X142097232Y-90086069D01*
X142097232Y-90086069D02*
X142192470Y-90038450D01*
X142192470Y-90038450D02*
X142240089Y-89990830D01*
X142240089Y-89990830D02*
X142287708Y-89895592D01*
X142287708Y-89895592D02*
X142287708Y-89800354D01*
X142287708Y-89800354D02*
X142240089Y-89705116D01*
X142240089Y-89705116D02*
X142192470Y-89657497D01*
X142192470Y-89657497D02*
X142097232Y-89609878D01*
X142097232Y-89609878D02*
X141906756Y-89562259D01*
X141906756Y-89562259D02*
X141811518Y-89514640D01*
X141811518Y-89514640D02*
X141763899Y-89467021D01*
X141763899Y-89467021D02*
X141716280Y-89371783D01*
X141716280Y-89371783D02*
X141716280Y-89276545D01*
X141716280Y-89276545D02*
X141763899Y-89181307D01*
X141763899Y-89181307D02*
X141811518Y-89133688D01*
X141811518Y-89133688D02*
X141906756Y-89086069D01*
X141906756Y-89086069D02*
X142144851Y-89086069D01*
X142144851Y-89086069D02*
X142287708Y-89133688D01*
X143144851Y-89419402D02*
X143144851Y-90086069D01*
X142906756Y-89038450D02*
X142668661Y-89752735D01*
X142668661Y-89752735D02*
X143287708Y-89752735D01*
X144144851Y-89086069D02*
X143668661Y-89086069D01*
X143668661Y-89086069D02*
X143621042Y-89562259D01*
X143621042Y-89562259D02*
X143668661Y-89514640D01*
X143668661Y-89514640D02*
X143763899Y-89467021D01*
X143763899Y-89467021D02*
X144001994Y-89467021D01*
X144001994Y-89467021D02*
X144097232Y-89514640D01*
X144097232Y-89514640D02*
X144144851Y-89562259D01*
X144144851Y-89562259D02*
X144192470Y-89657497D01*
X144192470Y-89657497D02*
X144192470Y-89895592D01*
X144192470Y-89895592D02*
X144144851Y-89990830D01*
X144144851Y-89990830D02*
X144097232Y-90038450D01*
X144097232Y-90038450D02*
X144001994Y-90086069D01*
X144001994Y-90086069D02*
X143763899Y-90086069D01*
X143763899Y-90086069D02*
X143668661Y-90038450D01*
X143668661Y-90038450D02*
X143621042Y-89990830D01*
X189341280Y-75750950D02*
X189484137Y-75798569D01*
X189484137Y-75798569D02*
X189722232Y-75798569D01*
X189722232Y-75798569D02*
X189817470Y-75750950D01*
X189817470Y-75750950D02*
X189865089Y-75703330D01*
X189865089Y-75703330D02*
X189912708Y-75608092D01*
X189912708Y-75608092D02*
X189912708Y-75512854D01*
X189912708Y-75512854D02*
X189865089Y-75417616D01*
X189865089Y-75417616D02*
X189817470Y-75369997D01*
X189817470Y-75369997D02*
X189722232Y-75322378D01*
X189722232Y-75322378D02*
X189531756Y-75274759D01*
X189531756Y-75274759D02*
X189436518Y-75227140D01*
X189436518Y-75227140D02*
X189388899Y-75179521D01*
X189388899Y-75179521D02*
X189341280Y-75084283D01*
X189341280Y-75084283D02*
X189341280Y-74989045D01*
X189341280Y-74989045D02*
X189388899Y-74893807D01*
X189388899Y-74893807D02*
X189436518Y-74846188D01*
X189436518Y-74846188D02*
X189531756Y-74798569D01*
X189531756Y-74798569D02*
X189769851Y-74798569D01*
X189769851Y-74798569D02*
X189912708Y-74846188D01*
X190769851Y-75131902D02*
X190769851Y-75798569D01*
X190531756Y-74750950D02*
X190293661Y-75465235D01*
X190293661Y-75465235D02*
X190912708Y-75465235D01*
X191817470Y-75798569D02*
X191246042Y-75798569D01*
X191531756Y-75798569D02*
X191531756Y-74798569D01*
X191531756Y-74798569D02*
X191436518Y-74941426D01*
X191436518Y-74941426D02*
X191341280Y-75036664D01*
X191341280Y-75036664D02*
X191246042Y-75084283D01*
X208391280Y-37650950D02*
X208534137Y-37698569D01*
X208534137Y-37698569D02*
X208772232Y-37698569D01*
X208772232Y-37698569D02*
X208867470Y-37650950D01*
X208867470Y-37650950D02*
X208915089Y-37603330D01*
X208915089Y-37603330D02*
X208962708Y-37508092D01*
X208962708Y-37508092D02*
X208962708Y-37412854D01*
X208962708Y-37412854D02*
X208915089Y-37317616D01*
X208915089Y-37317616D02*
X208867470Y-37269997D01*
X208867470Y-37269997D02*
X208772232Y-37222378D01*
X208772232Y-37222378D02*
X208581756Y-37174759D01*
X208581756Y-37174759D02*
X208486518Y-37127140D01*
X208486518Y-37127140D02*
X208438899Y-37079521D01*
X208438899Y-37079521D02*
X208391280Y-36984283D01*
X208391280Y-36984283D02*
X208391280Y-36889045D01*
X208391280Y-36889045D02*
X208438899Y-36793807D01*
X208438899Y-36793807D02*
X208486518Y-36746188D01*
X208486518Y-36746188D02*
X208581756Y-36698569D01*
X208581756Y-36698569D02*
X208819851Y-36698569D01*
X208819851Y-36698569D02*
X208962708Y-36746188D01*
X209343661Y-36793807D02*
X209391280Y-36746188D01*
X209391280Y-36746188D02*
X209486518Y-36698569D01*
X209486518Y-36698569D02*
X209724613Y-36698569D01*
X209724613Y-36698569D02*
X209819851Y-36746188D01*
X209819851Y-36746188D02*
X209867470Y-36793807D01*
X209867470Y-36793807D02*
X209915089Y-36889045D01*
X209915089Y-36889045D02*
X209915089Y-36984283D01*
X209915089Y-36984283D02*
X209867470Y-37127140D01*
X209867470Y-37127140D02*
X209296042Y-37698569D01*
X209296042Y-37698569D02*
X209915089Y-37698569D01*
X210391280Y-37698569D02*
X210581756Y-37698569D01*
X210581756Y-37698569D02*
X210676994Y-37650950D01*
X210676994Y-37650950D02*
X210724613Y-37603330D01*
X210724613Y-37603330D02*
X210819851Y-37460473D01*
X210819851Y-37460473D02*
X210867470Y-37269997D01*
X210867470Y-37269997D02*
X210867470Y-36889045D01*
X210867470Y-36889045D02*
X210819851Y-36793807D01*
X210819851Y-36793807D02*
X210772232Y-36746188D01*
X210772232Y-36746188D02*
X210676994Y-36698569D01*
X210676994Y-36698569D02*
X210486518Y-36698569D01*
X210486518Y-36698569D02*
X210391280Y-36746188D01*
X210391280Y-36746188D02*
X210343661Y-36793807D01*
X210343661Y-36793807D02*
X210296042Y-36889045D01*
X210296042Y-36889045D02*
X210296042Y-37127140D01*
X210296042Y-37127140D02*
X210343661Y-37222378D01*
X210343661Y-37222378D02*
X210391280Y-37269997D01*
X210391280Y-37269997D02*
X210486518Y-37317616D01*
X210486518Y-37317616D02*
X210676994Y-37317616D01*
X210676994Y-37317616D02*
X210772232Y-37269997D01*
X210772232Y-37269997D02*
X210819851Y-37222378D01*
X210819851Y-37222378D02*
X210867470Y-37127140D01*
X122666280Y-94800950D02*
X122809137Y-94848569D01*
X122809137Y-94848569D02*
X123047232Y-94848569D01*
X123047232Y-94848569D02*
X123142470Y-94800950D01*
X123142470Y-94800950D02*
X123190089Y-94753330D01*
X123190089Y-94753330D02*
X123237708Y-94658092D01*
X123237708Y-94658092D02*
X123237708Y-94562854D01*
X123237708Y-94562854D02*
X123190089Y-94467616D01*
X123190089Y-94467616D02*
X123142470Y-94419997D01*
X123142470Y-94419997D02*
X123047232Y-94372378D01*
X123047232Y-94372378D02*
X122856756Y-94324759D01*
X122856756Y-94324759D02*
X122761518Y-94277140D01*
X122761518Y-94277140D02*
X122713899Y-94229521D01*
X122713899Y-94229521D02*
X122666280Y-94134283D01*
X122666280Y-94134283D02*
X122666280Y-94039045D01*
X122666280Y-94039045D02*
X122713899Y-93943807D01*
X122713899Y-93943807D02*
X122761518Y-93896188D01*
X122761518Y-93896188D02*
X122856756Y-93848569D01*
X122856756Y-93848569D02*
X123094851Y-93848569D01*
X123094851Y-93848569D02*
X123237708Y-93896188D01*
X124094851Y-94181902D02*
X124094851Y-94848569D01*
X123856756Y-93800950D02*
X123618661Y-94515235D01*
X123618661Y-94515235D02*
X124237708Y-94515235D01*
X125047232Y-94181902D02*
X125047232Y-94848569D01*
X124809137Y-93800950D02*
X124571042Y-94515235D01*
X124571042Y-94515235D02*
X125190089Y-94515235D01*
X182697233Y-33792319D02*
X182697233Y-32792319D01*
X182697233Y-33268509D02*
X183268661Y-33268509D01*
X183268661Y-33792319D02*
X183268661Y-32792319D01*
X183792471Y-33792319D02*
X183982947Y-33792319D01*
X183982947Y-33792319D02*
X184078185Y-33744700D01*
X184078185Y-33744700D02*
X184125804Y-33697080D01*
X184125804Y-33697080D02*
X184221042Y-33554223D01*
X184221042Y-33554223D02*
X184268661Y-33363747D01*
X184268661Y-33363747D02*
X184268661Y-32982795D01*
X184268661Y-32982795D02*
X184221042Y-32887557D01*
X184221042Y-32887557D02*
X184173423Y-32839938D01*
X184173423Y-32839938D02*
X184078185Y-32792319D01*
X184078185Y-32792319D02*
X183887709Y-32792319D01*
X183887709Y-32792319D02*
X183792471Y-32839938D01*
X183792471Y-32839938D02*
X183744852Y-32887557D01*
X183744852Y-32887557D02*
X183697233Y-32982795D01*
X183697233Y-32982795D02*
X183697233Y-33220890D01*
X183697233Y-33220890D02*
X183744852Y-33316128D01*
X183744852Y-33316128D02*
X183792471Y-33363747D01*
X183792471Y-33363747D02*
X183887709Y-33411366D01*
X183887709Y-33411366D02*
X184078185Y-33411366D01*
X184078185Y-33411366D02*
X184173423Y-33363747D01*
X184173423Y-33363747D02*
X184221042Y-33316128D01*
X184221042Y-33316128D02*
X184268661Y-33220890D01*
X160766280Y-90038450D02*
X160909137Y-90086069D01*
X160909137Y-90086069D02*
X161147232Y-90086069D01*
X161147232Y-90086069D02*
X161242470Y-90038450D01*
X161242470Y-90038450D02*
X161290089Y-89990830D01*
X161290089Y-89990830D02*
X161337708Y-89895592D01*
X161337708Y-89895592D02*
X161337708Y-89800354D01*
X161337708Y-89800354D02*
X161290089Y-89705116D01*
X161290089Y-89705116D02*
X161242470Y-89657497D01*
X161242470Y-89657497D02*
X161147232Y-89609878D01*
X161147232Y-89609878D02*
X160956756Y-89562259D01*
X160956756Y-89562259D02*
X160861518Y-89514640D01*
X160861518Y-89514640D02*
X160813899Y-89467021D01*
X160813899Y-89467021D02*
X160766280Y-89371783D01*
X160766280Y-89371783D02*
X160766280Y-89276545D01*
X160766280Y-89276545D02*
X160813899Y-89181307D01*
X160813899Y-89181307D02*
X160861518Y-89133688D01*
X160861518Y-89133688D02*
X160956756Y-89086069D01*
X160956756Y-89086069D02*
X161194851Y-89086069D01*
X161194851Y-89086069D02*
X161337708Y-89133688D01*
X162194851Y-89419402D02*
X162194851Y-90086069D01*
X161956756Y-89038450D02*
X161718661Y-89752735D01*
X161718661Y-89752735D02*
X162337708Y-89752735D01*
X163147232Y-89086069D02*
X162956756Y-89086069D01*
X162956756Y-89086069D02*
X162861518Y-89133688D01*
X162861518Y-89133688D02*
X162813899Y-89181307D01*
X162813899Y-89181307D02*
X162718661Y-89324164D01*
X162718661Y-89324164D02*
X162671042Y-89514640D01*
X162671042Y-89514640D02*
X162671042Y-89895592D01*
X162671042Y-89895592D02*
X162718661Y-89990830D01*
X162718661Y-89990830D02*
X162766280Y-90038450D01*
X162766280Y-90038450D02*
X162861518Y-90086069D01*
X162861518Y-90086069D02*
X163051994Y-90086069D01*
X163051994Y-90086069D02*
X163147232Y-90038450D01*
X163147232Y-90038450D02*
X163194851Y-89990830D01*
X163194851Y-89990830D02*
X163242470Y-89895592D01*
X163242470Y-89895592D02*
X163242470Y-89657497D01*
X163242470Y-89657497D02*
X163194851Y-89562259D01*
X163194851Y-89562259D02*
X163147232Y-89514640D01*
X163147232Y-89514640D02*
X163051994Y-89467021D01*
X163051994Y-89467021D02*
X162861518Y-89467021D01*
X162861518Y-89467021D02*
X162766280Y-89514640D01*
X162766280Y-89514640D02*
X162718661Y-89562259D01*
X162718661Y-89562259D02*
X162671042Y-89657497D01*
X208391280Y-75750950D02*
X208534137Y-75798569D01*
X208534137Y-75798569D02*
X208772232Y-75798569D01*
X208772232Y-75798569D02*
X208867470Y-75750950D01*
X208867470Y-75750950D02*
X208915089Y-75703330D01*
X208915089Y-75703330D02*
X208962708Y-75608092D01*
X208962708Y-75608092D02*
X208962708Y-75512854D01*
X208962708Y-75512854D02*
X208915089Y-75417616D01*
X208915089Y-75417616D02*
X208867470Y-75369997D01*
X208867470Y-75369997D02*
X208772232Y-75322378D01*
X208772232Y-75322378D02*
X208581756Y-75274759D01*
X208581756Y-75274759D02*
X208486518Y-75227140D01*
X208486518Y-75227140D02*
X208438899Y-75179521D01*
X208438899Y-75179521D02*
X208391280Y-75084283D01*
X208391280Y-75084283D02*
X208391280Y-74989045D01*
X208391280Y-74989045D02*
X208438899Y-74893807D01*
X208438899Y-74893807D02*
X208486518Y-74846188D01*
X208486518Y-74846188D02*
X208581756Y-74798569D01*
X208581756Y-74798569D02*
X208819851Y-74798569D01*
X208819851Y-74798569D02*
X208962708Y-74846188D01*
X209819851Y-75131902D02*
X209819851Y-75798569D01*
X209581756Y-74750950D02*
X209343661Y-75465235D01*
X209343661Y-75465235D02*
X209962708Y-75465235D01*
X210296042Y-74893807D02*
X210343661Y-74846188D01*
X210343661Y-74846188D02*
X210438899Y-74798569D01*
X210438899Y-74798569D02*
X210676994Y-74798569D01*
X210676994Y-74798569D02*
X210772232Y-74846188D01*
X210772232Y-74846188D02*
X210819851Y-74893807D01*
X210819851Y-74893807D02*
X210867470Y-74989045D01*
X210867470Y-74989045D02*
X210867470Y-75084283D01*
X210867470Y-75084283D02*
X210819851Y-75227140D01*
X210819851Y-75227140D02*
X210248423Y-75798569D01*
X210248423Y-75798569D02*
X210867470Y-75798569D01*
X170291280Y-70988450D02*
X170434137Y-71036069D01*
X170434137Y-71036069D02*
X170672232Y-71036069D01*
X170672232Y-71036069D02*
X170767470Y-70988450D01*
X170767470Y-70988450D02*
X170815089Y-70940830D01*
X170815089Y-70940830D02*
X170862708Y-70845592D01*
X170862708Y-70845592D02*
X170862708Y-70750354D01*
X170862708Y-70750354D02*
X170815089Y-70655116D01*
X170815089Y-70655116D02*
X170767470Y-70607497D01*
X170767470Y-70607497D02*
X170672232Y-70559878D01*
X170672232Y-70559878D02*
X170481756Y-70512259D01*
X170481756Y-70512259D02*
X170386518Y-70464640D01*
X170386518Y-70464640D02*
X170338899Y-70417021D01*
X170338899Y-70417021D02*
X170291280Y-70321783D01*
X170291280Y-70321783D02*
X170291280Y-70226545D01*
X170291280Y-70226545D02*
X170338899Y-70131307D01*
X170338899Y-70131307D02*
X170386518Y-70083688D01*
X170386518Y-70083688D02*
X170481756Y-70036069D01*
X170481756Y-70036069D02*
X170719851Y-70036069D01*
X170719851Y-70036069D02*
X170862708Y-70083688D01*
X171719851Y-70369402D02*
X171719851Y-71036069D01*
X171481756Y-69988450D02*
X171243661Y-70702735D01*
X171243661Y-70702735D02*
X171862708Y-70702735D01*
X172434137Y-70036069D02*
X172529375Y-70036069D01*
X172529375Y-70036069D02*
X172624613Y-70083688D01*
X172624613Y-70083688D02*
X172672232Y-70131307D01*
X172672232Y-70131307D02*
X172719851Y-70226545D01*
X172719851Y-70226545D02*
X172767470Y-70417021D01*
X172767470Y-70417021D02*
X172767470Y-70655116D01*
X172767470Y-70655116D02*
X172719851Y-70845592D01*
X172719851Y-70845592D02*
X172672232Y-70940830D01*
X172672232Y-70940830D02*
X172624613Y-70988450D01*
X172624613Y-70988450D02*
X172529375Y-71036069D01*
X172529375Y-71036069D02*
X172434137Y-71036069D01*
X172434137Y-71036069D02*
X172338899Y-70988450D01*
X172338899Y-70988450D02*
X172291280Y-70940830D01*
X172291280Y-70940830D02*
X172243661Y-70845592D01*
X172243661Y-70845592D02*
X172196042Y-70655116D01*
X172196042Y-70655116D02*
X172196042Y-70417021D01*
X172196042Y-70417021D02*
X172243661Y-70226545D01*
X172243661Y-70226545D02*
X172291280Y-70131307D01*
X172291280Y-70131307D02*
X172338899Y-70083688D01*
X172338899Y-70083688D02*
X172434137Y-70036069D01*
X113141280Y-75750950D02*
X113284137Y-75798569D01*
X113284137Y-75798569D02*
X113522232Y-75798569D01*
X113522232Y-75798569D02*
X113617470Y-75750950D01*
X113617470Y-75750950D02*
X113665089Y-75703330D01*
X113665089Y-75703330D02*
X113712708Y-75608092D01*
X113712708Y-75608092D02*
X113712708Y-75512854D01*
X113712708Y-75512854D02*
X113665089Y-75417616D01*
X113665089Y-75417616D02*
X113617470Y-75369997D01*
X113617470Y-75369997D02*
X113522232Y-75322378D01*
X113522232Y-75322378D02*
X113331756Y-75274759D01*
X113331756Y-75274759D02*
X113236518Y-75227140D01*
X113236518Y-75227140D02*
X113188899Y-75179521D01*
X113188899Y-75179521D02*
X113141280Y-75084283D01*
X113141280Y-75084283D02*
X113141280Y-74989045D01*
X113141280Y-74989045D02*
X113188899Y-74893807D01*
X113188899Y-74893807D02*
X113236518Y-74846188D01*
X113236518Y-74846188D02*
X113331756Y-74798569D01*
X113331756Y-74798569D02*
X113569851Y-74798569D01*
X113569851Y-74798569D02*
X113712708Y-74846188D01*
X114046042Y-74798569D02*
X114665089Y-74798569D01*
X114665089Y-74798569D02*
X114331756Y-75179521D01*
X114331756Y-75179521D02*
X114474613Y-75179521D01*
X114474613Y-75179521D02*
X114569851Y-75227140D01*
X114569851Y-75227140D02*
X114617470Y-75274759D01*
X114617470Y-75274759D02*
X114665089Y-75369997D01*
X114665089Y-75369997D02*
X114665089Y-75608092D01*
X114665089Y-75608092D02*
X114617470Y-75703330D01*
X114617470Y-75703330D02*
X114569851Y-75750950D01*
X114569851Y-75750950D02*
X114474613Y-75798569D01*
X114474613Y-75798569D02*
X114188899Y-75798569D01*
X114188899Y-75798569D02*
X114093661Y-75750950D01*
X114093661Y-75750950D02*
X114046042Y-75703330D01*
X114998423Y-74798569D02*
X115665089Y-74798569D01*
X115665089Y-74798569D02*
X115236518Y-75798569D01*
X113141280Y-37650950D02*
X113284137Y-37698569D01*
X113284137Y-37698569D02*
X113522232Y-37698569D01*
X113522232Y-37698569D02*
X113617470Y-37650950D01*
X113617470Y-37650950D02*
X113665089Y-37603330D01*
X113665089Y-37603330D02*
X113712708Y-37508092D01*
X113712708Y-37508092D02*
X113712708Y-37412854D01*
X113712708Y-37412854D02*
X113665089Y-37317616D01*
X113665089Y-37317616D02*
X113617470Y-37269997D01*
X113617470Y-37269997D02*
X113522232Y-37222378D01*
X113522232Y-37222378D02*
X113331756Y-37174759D01*
X113331756Y-37174759D02*
X113236518Y-37127140D01*
X113236518Y-37127140D02*
X113188899Y-37079521D01*
X113188899Y-37079521D02*
X113141280Y-36984283D01*
X113141280Y-36984283D02*
X113141280Y-36889045D01*
X113141280Y-36889045D02*
X113188899Y-36793807D01*
X113188899Y-36793807D02*
X113236518Y-36746188D01*
X113236518Y-36746188D02*
X113331756Y-36698569D01*
X113331756Y-36698569D02*
X113569851Y-36698569D01*
X113569851Y-36698569D02*
X113712708Y-36746188D01*
X114093661Y-36793807D02*
X114141280Y-36746188D01*
X114141280Y-36746188D02*
X114236518Y-36698569D01*
X114236518Y-36698569D02*
X114474613Y-36698569D01*
X114474613Y-36698569D02*
X114569851Y-36746188D01*
X114569851Y-36746188D02*
X114617470Y-36793807D01*
X114617470Y-36793807D02*
X114665089Y-36889045D01*
X114665089Y-36889045D02*
X114665089Y-36984283D01*
X114665089Y-36984283D02*
X114617470Y-37127140D01*
X114617470Y-37127140D02*
X114046042Y-37698569D01*
X114046042Y-37698569D02*
X114665089Y-37698569D01*
X115522232Y-37031902D02*
X115522232Y-37698569D01*
X115284137Y-36650950D02*
X115046042Y-37365235D01*
X115046042Y-37365235D02*
X115665089Y-37365235D01*
X132191280Y-32888450D02*
X132334137Y-32936069D01*
X132334137Y-32936069D02*
X132572232Y-32936069D01*
X132572232Y-32936069D02*
X132667470Y-32888450D01*
X132667470Y-32888450D02*
X132715089Y-32840830D01*
X132715089Y-32840830D02*
X132762708Y-32745592D01*
X132762708Y-32745592D02*
X132762708Y-32650354D01*
X132762708Y-32650354D02*
X132715089Y-32555116D01*
X132715089Y-32555116D02*
X132667470Y-32507497D01*
X132667470Y-32507497D02*
X132572232Y-32459878D01*
X132572232Y-32459878D02*
X132381756Y-32412259D01*
X132381756Y-32412259D02*
X132286518Y-32364640D01*
X132286518Y-32364640D02*
X132238899Y-32317021D01*
X132238899Y-32317021D02*
X132191280Y-32221783D01*
X132191280Y-32221783D02*
X132191280Y-32126545D01*
X132191280Y-32126545D02*
X132238899Y-32031307D01*
X132238899Y-32031307D02*
X132286518Y-31983688D01*
X132286518Y-31983688D02*
X132381756Y-31936069D01*
X132381756Y-31936069D02*
X132619851Y-31936069D01*
X132619851Y-31936069D02*
X132762708Y-31983688D01*
X133143661Y-32031307D02*
X133191280Y-31983688D01*
X133191280Y-31983688D02*
X133286518Y-31936069D01*
X133286518Y-31936069D02*
X133524613Y-31936069D01*
X133524613Y-31936069D02*
X133619851Y-31983688D01*
X133619851Y-31983688D02*
X133667470Y-32031307D01*
X133667470Y-32031307D02*
X133715089Y-32126545D01*
X133715089Y-32126545D02*
X133715089Y-32221783D01*
X133715089Y-32221783D02*
X133667470Y-32364640D01*
X133667470Y-32364640D02*
X133096042Y-32936069D01*
X133096042Y-32936069D02*
X133715089Y-32936069D01*
X134619851Y-31936069D02*
X134143661Y-31936069D01*
X134143661Y-31936069D02*
X134096042Y-32412259D01*
X134096042Y-32412259D02*
X134143661Y-32364640D01*
X134143661Y-32364640D02*
X134238899Y-32317021D01*
X134238899Y-32317021D02*
X134476994Y-32317021D01*
X134476994Y-32317021D02*
X134572232Y-32364640D01*
X134572232Y-32364640D02*
X134619851Y-32412259D01*
X134619851Y-32412259D02*
X134667470Y-32507497D01*
X134667470Y-32507497D02*
X134667470Y-32745592D01*
X134667470Y-32745592D02*
X134619851Y-32840830D01*
X134619851Y-32840830D02*
X134572232Y-32888450D01*
X134572232Y-32888450D02*
X134476994Y-32936069D01*
X134476994Y-32936069D02*
X134238899Y-32936069D01*
X134238899Y-32936069D02*
X134143661Y-32888450D01*
X134143661Y-32888450D02*
X134096042Y-32840830D01*
X139358543Y-109992319D02*
X139358543Y-108992319D01*
X139358543Y-109468509D02*
X139929971Y-109468509D01*
X139929971Y-109992319D02*
X139929971Y-108992319D01*
X140929971Y-109992319D02*
X140358543Y-109992319D01*
X140644257Y-109992319D02*
X140644257Y-108992319D01*
X140644257Y-108992319D02*
X140549019Y-109135176D01*
X140549019Y-109135176D02*
X140453781Y-109230414D01*
X140453781Y-109230414D02*
X140358543Y-109278033D01*
X141882352Y-109992319D02*
X141310924Y-109992319D01*
X141596638Y-109992319D02*
X141596638Y-108992319D01*
X141596638Y-108992319D02*
X141501400Y-109135176D01*
X141501400Y-109135176D02*
X141406162Y-109230414D01*
X141406162Y-109230414D02*
X141310924Y-109278033D01*
X170291280Y-51938450D02*
X170434137Y-51986069D01*
X170434137Y-51986069D02*
X170672232Y-51986069D01*
X170672232Y-51986069D02*
X170767470Y-51938450D01*
X170767470Y-51938450D02*
X170815089Y-51890830D01*
X170815089Y-51890830D02*
X170862708Y-51795592D01*
X170862708Y-51795592D02*
X170862708Y-51700354D01*
X170862708Y-51700354D02*
X170815089Y-51605116D01*
X170815089Y-51605116D02*
X170767470Y-51557497D01*
X170767470Y-51557497D02*
X170672232Y-51509878D01*
X170672232Y-51509878D02*
X170481756Y-51462259D01*
X170481756Y-51462259D02*
X170386518Y-51414640D01*
X170386518Y-51414640D02*
X170338899Y-51367021D01*
X170338899Y-51367021D02*
X170291280Y-51271783D01*
X170291280Y-51271783D02*
X170291280Y-51176545D01*
X170291280Y-51176545D02*
X170338899Y-51081307D01*
X170338899Y-51081307D02*
X170386518Y-51033688D01*
X170386518Y-51033688D02*
X170481756Y-50986069D01*
X170481756Y-50986069D02*
X170719851Y-50986069D01*
X170719851Y-50986069D02*
X170862708Y-51033688D01*
X171196042Y-50986069D02*
X171815089Y-50986069D01*
X171815089Y-50986069D02*
X171481756Y-51367021D01*
X171481756Y-51367021D02*
X171624613Y-51367021D01*
X171624613Y-51367021D02*
X171719851Y-51414640D01*
X171719851Y-51414640D02*
X171767470Y-51462259D01*
X171767470Y-51462259D02*
X171815089Y-51557497D01*
X171815089Y-51557497D02*
X171815089Y-51795592D01*
X171815089Y-51795592D02*
X171767470Y-51890830D01*
X171767470Y-51890830D02*
X171719851Y-51938450D01*
X171719851Y-51938450D02*
X171624613Y-51986069D01*
X171624613Y-51986069D02*
X171338899Y-51986069D01*
X171338899Y-51986069D02*
X171243661Y-51938450D01*
X171243661Y-51938450D02*
X171196042Y-51890830D01*
X172148423Y-50986069D02*
X172767470Y-50986069D01*
X172767470Y-50986069D02*
X172434137Y-51367021D01*
X172434137Y-51367021D02*
X172576994Y-51367021D01*
X172576994Y-51367021D02*
X172672232Y-51414640D01*
X172672232Y-51414640D02*
X172719851Y-51462259D01*
X172719851Y-51462259D02*
X172767470Y-51557497D01*
X172767470Y-51557497D02*
X172767470Y-51795592D01*
X172767470Y-51795592D02*
X172719851Y-51890830D01*
X172719851Y-51890830D02*
X172672232Y-51938450D01*
X172672232Y-51938450D02*
X172576994Y-51986069D01*
X172576994Y-51986069D02*
X172291280Y-51986069D01*
X172291280Y-51986069D02*
X172196042Y-51938450D01*
X172196042Y-51938450D02*
X172148423Y-51890830D01*
X132191280Y-70988450D02*
X132334137Y-71036069D01*
X132334137Y-71036069D02*
X132572232Y-71036069D01*
X132572232Y-71036069D02*
X132667470Y-70988450D01*
X132667470Y-70988450D02*
X132715089Y-70940830D01*
X132715089Y-70940830D02*
X132762708Y-70845592D01*
X132762708Y-70845592D02*
X132762708Y-70750354D01*
X132762708Y-70750354D02*
X132715089Y-70655116D01*
X132715089Y-70655116D02*
X132667470Y-70607497D01*
X132667470Y-70607497D02*
X132572232Y-70559878D01*
X132572232Y-70559878D02*
X132381756Y-70512259D01*
X132381756Y-70512259D02*
X132286518Y-70464640D01*
X132286518Y-70464640D02*
X132238899Y-70417021D01*
X132238899Y-70417021D02*
X132191280Y-70321783D01*
X132191280Y-70321783D02*
X132191280Y-70226545D01*
X132191280Y-70226545D02*
X132238899Y-70131307D01*
X132238899Y-70131307D02*
X132286518Y-70083688D01*
X132286518Y-70083688D02*
X132381756Y-70036069D01*
X132381756Y-70036069D02*
X132619851Y-70036069D01*
X132619851Y-70036069D02*
X132762708Y-70083688D01*
X133096042Y-70036069D02*
X133715089Y-70036069D01*
X133715089Y-70036069D02*
X133381756Y-70417021D01*
X133381756Y-70417021D02*
X133524613Y-70417021D01*
X133524613Y-70417021D02*
X133619851Y-70464640D01*
X133619851Y-70464640D02*
X133667470Y-70512259D01*
X133667470Y-70512259D02*
X133715089Y-70607497D01*
X133715089Y-70607497D02*
X133715089Y-70845592D01*
X133715089Y-70845592D02*
X133667470Y-70940830D01*
X133667470Y-70940830D02*
X133619851Y-70988450D01*
X133619851Y-70988450D02*
X133524613Y-71036069D01*
X133524613Y-71036069D02*
X133238899Y-71036069D01*
X133238899Y-71036069D02*
X133143661Y-70988450D01*
X133143661Y-70988450D02*
X133096042Y-70940830D01*
X134286518Y-70464640D02*
X134191280Y-70417021D01*
X134191280Y-70417021D02*
X134143661Y-70369402D01*
X134143661Y-70369402D02*
X134096042Y-70274164D01*
X134096042Y-70274164D02*
X134096042Y-70226545D01*
X134096042Y-70226545D02*
X134143661Y-70131307D01*
X134143661Y-70131307D02*
X134191280Y-70083688D01*
X134191280Y-70083688D02*
X134286518Y-70036069D01*
X134286518Y-70036069D02*
X134476994Y-70036069D01*
X134476994Y-70036069D02*
X134572232Y-70083688D01*
X134572232Y-70083688D02*
X134619851Y-70131307D01*
X134619851Y-70131307D02*
X134667470Y-70226545D01*
X134667470Y-70226545D02*
X134667470Y-70274164D01*
X134667470Y-70274164D02*
X134619851Y-70369402D01*
X134619851Y-70369402D02*
X134572232Y-70417021D01*
X134572232Y-70417021D02*
X134476994Y-70464640D01*
X134476994Y-70464640D02*
X134286518Y-70464640D01*
X134286518Y-70464640D02*
X134191280Y-70512259D01*
X134191280Y-70512259D02*
X134143661Y-70559878D01*
X134143661Y-70559878D02*
X134096042Y-70655116D01*
X134096042Y-70655116D02*
X134096042Y-70845592D01*
X134096042Y-70845592D02*
X134143661Y-70940830D01*
X134143661Y-70940830D02*
X134191280Y-70988450D01*
X134191280Y-70988450D02*
X134286518Y-71036069D01*
X134286518Y-71036069D02*
X134476994Y-71036069D01*
X134476994Y-71036069D02*
X134572232Y-70988450D01*
X134572232Y-70988450D02*
X134619851Y-70940830D01*
X134619851Y-70940830D02*
X134667470Y-70845592D01*
X134667470Y-70845592D02*
X134667470Y-70655116D01*
X134667470Y-70655116D02*
X134619851Y-70559878D01*
X134619851Y-70559878D02*
X134572232Y-70512259D01*
X134572232Y-70512259D02*
X134476994Y-70464640D01*
X94091280Y-70988450D02*
X94234137Y-71036069D01*
X94234137Y-71036069D02*
X94472232Y-71036069D01*
X94472232Y-71036069D02*
X94567470Y-70988450D01*
X94567470Y-70988450D02*
X94615089Y-70940830D01*
X94615089Y-70940830D02*
X94662708Y-70845592D01*
X94662708Y-70845592D02*
X94662708Y-70750354D01*
X94662708Y-70750354D02*
X94615089Y-70655116D01*
X94615089Y-70655116D02*
X94567470Y-70607497D01*
X94567470Y-70607497D02*
X94472232Y-70559878D01*
X94472232Y-70559878D02*
X94281756Y-70512259D01*
X94281756Y-70512259D02*
X94186518Y-70464640D01*
X94186518Y-70464640D02*
X94138899Y-70417021D01*
X94138899Y-70417021D02*
X94091280Y-70321783D01*
X94091280Y-70321783D02*
X94091280Y-70226545D01*
X94091280Y-70226545D02*
X94138899Y-70131307D01*
X94138899Y-70131307D02*
X94186518Y-70083688D01*
X94186518Y-70083688D02*
X94281756Y-70036069D01*
X94281756Y-70036069D02*
X94519851Y-70036069D01*
X94519851Y-70036069D02*
X94662708Y-70083688D01*
X94996042Y-70036069D02*
X95615089Y-70036069D01*
X95615089Y-70036069D02*
X95281756Y-70417021D01*
X95281756Y-70417021D02*
X95424613Y-70417021D01*
X95424613Y-70417021D02*
X95519851Y-70464640D01*
X95519851Y-70464640D02*
X95567470Y-70512259D01*
X95567470Y-70512259D02*
X95615089Y-70607497D01*
X95615089Y-70607497D02*
X95615089Y-70845592D01*
X95615089Y-70845592D02*
X95567470Y-70940830D01*
X95567470Y-70940830D02*
X95519851Y-70988450D01*
X95519851Y-70988450D02*
X95424613Y-71036069D01*
X95424613Y-71036069D02*
X95138899Y-71036069D01*
X95138899Y-71036069D02*
X95043661Y-70988450D01*
X95043661Y-70988450D02*
X94996042Y-70940830D01*
X96472232Y-70036069D02*
X96281756Y-70036069D01*
X96281756Y-70036069D02*
X96186518Y-70083688D01*
X96186518Y-70083688D02*
X96138899Y-70131307D01*
X96138899Y-70131307D02*
X96043661Y-70274164D01*
X96043661Y-70274164D02*
X95996042Y-70464640D01*
X95996042Y-70464640D02*
X95996042Y-70845592D01*
X95996042Y-70845592D02*
X96043661Y-70940830D01*
X96043661Y-70940830D02*
X96091280Y-70988450D01*
X96091280Y-70988450D02*
X96186518Y-71036069D01*
X96186518Y-71036069D02*
X96376994Y-71036069D01*
X96376994Y-71036069D02*
X96472232Y-70988450D01*
X96472232Y-70988450D02*
X96519851Y-70940830D01*
X96519851Y-70940830D02*
X96567470Y-70845592D01*
X96567470Y-70845592D02*
X96567470Y-70607497D01*
X96567470Y-70607497D02*
X96519851Y-70512259D01*
X96519851Y-70512259D02*
X96472232Y-70464640D01*
X96472232Y-70464640D02*
X96376994Y-70417021D01*
X96376994Y-70417021D02*
X96186518Y-70417021D01*
X96186518Y-70417021D02*
X96091280Y-70464640D01*
X96091280Y-70464640D02*
X96043661Y-70512259D01*
X96043661Y-70512259D02*
X95996042Y-70607497D01*
X132191280Y-51938450D02*
X132334137Y-51986069D01*
X132334137Y-51986069D02*
X132572232Y-51986069D01*
X132572232Y-51986069D02*
X132667470Y-51938450D01*
X132667470Y-51938450D02*
X132715089Y-51890830D01*
X132715089Y-51890830D02*
X132762708Y-51795592D01*
X132762708Y-51795592D02*
X132762708Y-51700354D01*
X132762708Y-51700354D02*
X132715089Y-51605116D01*
X132715089Y-51605116D02*
X132667470Y-51557497D01*
X132667470Y-51557497D02*
X132572232Y-51509878D01*
X132572232Y-51509878D02*
X132381756Y-51462259D01*
X132381756Y-51462259D02*
X132286518Y-51414640D01*
X132286518Y-51414640D02*
X132238899Y-51367021D01*
X132238899Y-51367021D02*
X132191280Y-51271783D01*
X132191280Y-51271783D02*
X132191280Y-51176545D01*
X132191280Y-51176545D02*
X132238899Y-51081307D01*
X132238899Y-51081307D02*
X132286518Y-51033688D01*
X132286518Y-51033688D02*
X132381756Y-50986069D01*
X132381756Y-50986069D02*
X132619851Y-50986069D01*
X132619851Y-50986069D02*
X132762708Y-51033688D01*
X133096042Y-50986069D02*
X133715089Y-50986069D01*
X133715089Y-50986069D02*
X133381756Y-51367021D01*
X133381756Y-51367021D02*
X133524613Y-51367021D01*
X133524613Y-51367021D02*
X133619851Y-51414640D01*
X133619851Y-51414640D02*
X133667470Y-51462259D01*
X133667470Y-51462259D02*
X133715089Y-51557497D01*
X133715089Y-51557497D02*
X133715089Y-51795592D01*
X133715089Y-51795592D02*
X133667470Y-51890830D01*
X133667470Y-51890830D02*
X133619851Y-51938450D01*
X133619851Y-51938450D02*
X133524613Y-51986069D01*
X133524613Y-51986069D02*
X133238899Y-51986069D01*
X133238899Y-51986069D02*
X133143661Y-51938450D01*
X133143661Y-51938450D02*
X133096042Y-51890830D01*
X134667470Y-51986069D02*
X134096042Y-51986069D01*
X134381756Y-51986069D02*
X134381756Y-50986069D01*
X134381756Y-50986069D02*
X134286518Y-51128926D01*
X134286518Y-51128926D02*
X134191280Y-51224164D01*
X134191280Y-51224164D02*
X134096042Y-51271783D01*
X170291280Y-32888450D02*
X170434137Y-32936069D01*
X170434137Y-32936069D02*
X170672232Y-32936069D01*
X170672232Y-32936069D02*
X170767470Y-32888450D01*
X170767470Y-32888450D02*
X170815089Y-32840830D01*
X170815089Y-32840830D02*
X170862708Y-32745592D01*
X170862708Y-32745592D02*
X170862708Y-32650354D01*
X170862708Y-32650354D02*
X170815089Y-32555116D01*
X170815089Y-32555116D02*
X170767470Y-32507497D01*
X170767470Y-32507497D02*
X170672232Y-32459878D01*
X170672232Y-32459878D02*
X170481756Y-32412259D01*
X170481756Y-32412259D02*
X170386518Y-32364640D01*
X170386518Y-32364640D02*
X170338899Y-32317021D01*
X170338899Y-32317021D02*
X170291280Y-32221783D01*
X170291280Y-32221783D02*
X170291280Y-32126545D01*
X170291280Y-32126545D02*
X170338899Y-32031307D01*
X170338899Y-32031307D02*
X170386518Y-31983688D01*
X170386518Y-31983688D02*
X170481756Y-31936069D01*
X170481756Y-31936069D02*
X170719851Y-31936069D01*
X170719851Y-31936069D02*
X170862708Y-31983688D01*
X171243661Y-32031307D02*
X171291280Y-31983688D01*
X171291280Y-31983688D02*
X171386518Y-31936069D01*
X171386518Y-31936069D02*
X171624613Y-31936069D01*
X171624613Y-31936069D02*
X171719851Y-31983688D01*
X171719851Y-31983688D02*
X171767470Y-32031307D01*
X171767470Y-32031307D02*
X171815089Y-32126545D01*
X171815089Y-32126545D02*
X171815089Y-32221783D01*
X171815089Y-32221783D02*
X171767470Y-32364640D01*
X171767470Y-32364640D02*
X171196042Y-32936069D01*
X171196042Y-32936069D02*
X171815089Y-32936069D01*
X172148423Y-31936069D02*
X172815089Y-31936069D01*
X172815089Y-31936069D02*
X172386518Y-32936069D01*
X86896649Y-52273545D02*
X86896649Y-51473545D01*
X86896649Y-51473545D02*
X87087125Y-51473545D01*
X87087125Y-51473545D02*
X87201411Y-51511640D01*
X87201411Y-51511640D02*
X87277601Y-51587830D01*
X87277601Y-51587830D02*
X87315696Y-51664021D01*
X87315696Y-51664021D02*
X87353792Y-51816402D01*
X87353792Y-51816402D02*
X87353792Y-51930688D01*
X87353792Y-51930688D02*
X87315696Y-52083069D01*
X87315696Y-52083069D02*
X87277601Y-52159259D01*
X87277601Y-52159259D02*
X87201411Y-52235450D01*
X87201411Y-52235450D02*
X87087125Y-52273545D01*
X87087125Y-52273545D02*
X86896649Y-52273545D01*
X87849030Y-51473545D02*
X87925220Y-51473545D01*
X87925220Y-51473545D02*
X88001411Y-51511640D01*
X88001411Y-51511640D02*
X88039506Y-51549735D01*
X88039506Y-51549735D02*
X88077601Y-51625926D01*
X88077601Y-51625926D02*
X88115696Y-51778307D01*
X88115696Y-51778307D02*
X88115696Y-51968783D01*
X88115696Y-51968783D02*
X88077601Y-52121164D01*
X88077601Y-52121164D02*
X88039506Y-52197354D01*
X88039506Y-52197354D02*
X88001411Y-52235450D01*
X88001411Y-52235450D02*
X87925220Y-52273545D01*
X87925220Y-52273545D02*
X87849030Y-52273545D01*
X87849030Y-52273545D02*
X87772839Y-52235450D01*
X87772839Y-52235450D02*
X87734744Y-52197354D01*
X87734744Y-52197354D02*
X87696649Y-52121164D01*
X87696649Y-52121164D02*
X87658553Y-51968783D01*
X87658553Y-51968783D02*
X87658553Y-51778307D01*
X87658553Y-51778307D02*
X87696649Y-51625926D01*
X87696649Y-51625926D02*
X87734744Y-51549735D01*
X87734744Y-51549735D02*
X87772839Y-51511640D01*
X87772839Y-51511640D02*
X87849030Y-51473545D01*
X86877601Y-43891640D02*
X86801411Y-43853545D01*
X86801411Y-43853545D02*
X86687125Y-43853545D01*
X86687125Y-43853545D02*
X86572839Y-43891640D01*
X86572839Y-43891640D02*
X86496649Y-43967830D01*
X86496649Y-43967830D02*
X86458554Y-44044021D01*
X86458554Y-44044021D02*
X86420458Y-44196402D01*
X86420458Y-44196402D02*
X86420458Y-44310688D01*
X86420458Y-44310688D02*
X86458554Y-44463069D01*
X86458554Y-44463069D02*
X86496649Y-44539259D01*
X86496649Y-44539259D02*
X86572839Y-44615450D01*
X86572839Y-44615450D02*
X86687125Y-44653545D01*
X86687125Y-44653545D02*
X86763316Y-44653545D01*
X86763316Y-44653545D02*
X86877601Y-44615450D01*
X86877601Y-44615450D02*
X86915697Y-44577354D01*
X86915697Y-44577354D02*
X86915697Y-44310688D01*
X86915697Y-44310688D02*
X86763316Y-44310688D01*
X87258554Y-44653545D02*
X87258554Y-43853545D01*
X87258554Y-43853545D02*
X87715697Y-44653545D01*
X87715697Y-44653545D02*
X87715697Y-43853545D01*
X88096649Y-44653545D02*
X88096649Y-43853545D01*
X88096649Y-43853545D02*
X88287125Y-43853545D01*
X88287125Y-43853545D02*
X88401411Y-43891640D01*
X88401411Y-43891640D02*
X88477601Y-43967830D01*
X88477601Y-43967830D02*
X88515696Y-44044021D01*
X88515696Y-44044021D02*
X88553792Y-44196402D01*
X88553792Y-44196402D02*
X88553792Y-44310688D01*
X88553792Y-44310688D02*
X88515696Y-44463069D01*
X88515696Y-44463069D02*
X88477601Y-44539259D01*
X88477601Y-44539259D02*
X88401411Y-44615450D01*
X88401411Y-44615450D02*
X88287125Y-44653545D01*
X88287125Y-44653545D02*
X88096649Y-44653545D01*
X87163315Y-67094497D02*
X87277601Y-67132592D01*
X87277601Y-67132592D02*
X87315696Y-67170688D01*
X87315696Y-67170688D02*
X87353792Y-67246878D01*
X87353792Y-67246878D02*
X87353792Y-67361164D01*
X87353792Y-67361164D02*
X87315696Y-67437354D01*
X87315696Y-67437354D02*
X87277601Y-67475450D01*
X87277601Y-67475450D02*
X87201411Y-67513545D01*
X87201411Y-67513545D02*
X86896649Y-67513545D01*
X86896649Y-67513545D02*
X86896649Y-66713545D01*
X86896649Y-66713545D02*
X87163315Y-66713545D01*
X87163315Y-66713545D02*
X87239506Y-66751640D01*
X87239506Y-66751640D02*
X87277601Y-66789735D01*
X87277601Y-66789735D02*
X87315696Y-66865926D01*
X87315696Y-66865926D02*
X87315696Y-66942116D01*
X87315696Y-66942116D02*
X87277601Y-67018307D01*
X87277601Y-67018307D02*
X87239506Y-67056402D01*
X87239506Y-67056402D02*
X87163315Y-67094497D01*
X87163315Y-67094497D02*
X86896649Y-67094497D01*
X88077601Y-66713545D02*
X87696649Y-66713545D01*
X87696649Y-66713545D02*
X87658553Y-67094497D01*
X87658553Y-67094497D02*
X87696649Y-67056402D01*
X87696649Y-67056402D02*
X87772839Y-67018307D01*
X87772839Y-67018307D02*
X87963315Y-67018307D01*
X87963315Y-67018307D02*
X88039506Y-67056402D01*
X88039506Y-67056402D02*
X88077601Y-67094497D01*
X88077601Y-67094497D02*
X88115696Y-67170688D01*
X88115696Y-67170688D02*
X88115696Y-67361164D01*
X88115696Y-67361164D02*
X88077601Y-67437354D01*
X88077601Y-67437354D02*
X88039506Y-67475450D01*
X88039506Y-67475450D02*
X87963315Y-67513545D01*
X87963315Y-67513545D02*
X87772839Y-67513545D01*
X87772839Y-67513545D02*
X87696649Y-67475450D01*
X87696649Y-67475450D02*
X87658553Y-67437354D01*
X87163315Y-64554497D02*
X87277601Y-64592592D01*
X87277601Y-64592592D02*
X87315696Y-64630688D01*
X87315696Y-64630688D02*
X87353792Y-64706878D01*
X87353792Y-64706878D02*
X87353792Y-64821164D01*
X87353792Y-64821164D02*
X87315696Y-64897354D01*
X87315696Y-64897354D02*
X87277601Y-64935450D01*
X87277601Y-64935450D02*
X87201411Y-64973545D01*
X87201411Y-64973545D02*
X86896649Y-64973545D01*
X86896649Y-64973545D02*
X86896649Y-64173545D01*
X86896649Y-64173545D02*
X87163315Y-64173545D01*
X87163315Y-64173545D02*
X87239506Y-64211640D01*
X87239506Y-64211640D02*
X87277601Y-64249735D01*
X87277601Y-64249735D02*
X87315696Y-64325926D01*
X87315696Y-64325926D02*
X87315696Y-64402116D01*
X87315696Y-64402116D02*
X87277601Y-64478307D01*
X87277601Y-64478307D02*
X87239506Y-64516402D01*
X87239506Y-64516402D02*
X87163315Y-64554497D01*
X87163315Y-64554497D02*
X86896649Y-64554497D01*
X88039506Y-64440211D02*
X88039506Y-64973545D01*
X87849030Y-64135450D02*
X87658553Y-64706878D01*
X87658553Y-64706878D02*
X88153792Y-64706878D01*
X97856744Y-39573545D02*
X97590077Y-39192592D01*
X97399601Y-39573545D02*
X97399601Y-38773545D01*
X97399601Y-38773545D02*
X97704363Y-38773545D01*
X97704363Y-38773545D02*
X97780553Y-38811640D01*
X97780553Y-38811640D02*
X97818648Y-38849735D01*
X97818648Y-38849735D02*
X97856744Y-38925926D01*
X97856744Y-38925926D02*
X97856744Y-39040211D01*
X97856744Y-39040211D02*
X97818648Y-39116402D01*
X97818648Y-39116402D02*
X97780553Y-39154497D01*
X97780553Y-39154497D02*
X97704363Y-39192592D01*
X97704363Y-39192592D02*
X97399601Y-39192592D01*
X98161505Y-39344973D02*
X98542458Y-39344973D01*
X98085315Y-39573545D02*
X98351982Y-38773545D01*
X98351982Y-38773545D02*
X98618648Y-39573545D01*
X98809124Y-38773545D02*
X98999600Y-39573545D01*
X98999600Y-39573545D02*
X99151981Y-39002116D01*
X99151981Y-39002116D02*
X99304362Y-39573545D01*
X99304362Y-39573545D02*
X99494839Y-38773545D01*
X98085315Y-67094497D02*
X98199601Y-67132592D01*
X98199601Y-67132592D02*
X98237696Y-67170688D01*
X98237696Y-67170688D02*
X98275792Y-67246878D01*
X98275792Y-67246878D02*
X98275792Y-67361164D01*
X98275792Y-67361164D02*
X98237696Y-67437354D01*
X98237696Y-67437354D02*
X98199601Y-67475450D01*
X98199601Y-67475450D02*
X98123411Y-67513545D01*
X98123411Y-67513545D02*
X97818649Y-67513545D01*
X97818649Y-67513545D02*
X97818649Y-66713545D01*
X97818649Y-66713545D02*
X98085315Y-66713545D01*
X98085315Y-66713545D02*
X98161506Y-66751640D01*
X98161506Y-66751640D02*
X98199601Y-66789735D01*
X98199601Y-66789735D02*
X98237696Y-66865926D01*
X98237696Y-66865926D02*
X98237696Y-66942116D01*
X98237696Y-66942116D02*
X98199601Y-67018307D01*
X98199601Y-67018307D02*
X98161506Y-67056402D01*
X98161506Y-67056402D02*
X98085315Y-67094497D01*
X98085315Y-67094497D02*
X97818649Y-67094497D01*
X98961506Y-66713545D02*
X98809125Y-66713545D01*
X98809125Y-66713545D02*
X98732934Y-66751640D01*
X98732934Y-66751640D02*
X98694839Y-66789735D01*
X98694839Y-66789735D02*
X98618649Y-66904021D01*
X98618649Y-66904021D02*
X98580553Y-67056402D01*
X98580553Y-67056402D02*
X98580553Y-67361164D01*
X98580553Y-67361164D02*
X98618649Y-67437354D01*
X98618649Y-67437354D02*
X98656744Y-67475450D01*
X98656744Y-67475450D02*
X98732934Y-67513545D01*
X98732934Y-67513545D02*
X98885315Y-67513545D01*
X98885315Y-67513545D02*
X98961506Y-67475450D01*
X98961506Y-67475450D02*
X98999601Y-67437354D01*
X98999601Y-67437354D02*
X99037696Y-67361164D01*
X99037696Y-67361164D02*
X99037696Y-67170688D01*
X99037696Y-67170688D02*
X98999601Y-67094497D01*
X98999601Y-67094497D02*
X98961506Y-67056402D01*
X98961506Y-67056402D02*
X98885315Y-67018307D01*
X98885315Y-67018307D02*
X98732934Y-67018307D01*
X98732934Y-67018307D02*
X98656744Y-67056402D01*
X98656744Y-67056402D02*
X98618649Y-67094497D01*
X98618649Y-67094497D02*
X98580553Y-67170688D01*
X98142458Y-51854497D02*
X97875792Y-51854497D01*
X97875792Y-52273545D02*
X97875792Y-51473545D01*
X97875792Y-51473545D02*
X98256744Y-51473545D01*
X98942458Y-51473545D02*
X98561506Y-51473545D01*
X98561506Y-51473545D02*
X98523410Y-51854497D01*
X98523410Y-51854497D02*
X98561506Y-51816402D01*
X98561506Y-51816402D02*
X98637696Y-51778307D01*
X98637696Y-51778307D02*
X98828172Y-51778307D01*
X98828172Y-51778307D02*
X98904363Y-51816402D01*
X98904363Y-51816402D02*
X98942458Y-51854497D01*
X98942458Y-51854497D02*
X98980553Y-51930688D01*
X98980553Y-51930688D02*
X98980553Y-52121164D01*
X98980553Y-52121164D02*
X98942458Y-52197354D01*
X98942458Y-52197354D02*
X98904363Y-52235450D01*
X98904363Y-52235450D02*
X98828172Y-52273545D01*
X98828172Y-52273545D02*
X98637696Y-52273545D01*
X98637696Y-52273545D02*
X98561506Y-52235450D01*
X98561506Y-52235450D02*
X98523410Y-52197354D01*
X98147911Y-44585450D02*
X98262197Y-44623545D01*
X98262197Y-44623545D02*
X98452673Y-44623545D01*
X98452673Y-44623545D02*
X98528864Y-44585450D01*
X98528864Y-44585450D02*
X98566959Y-44547354D01*
X98566959Y-44547354D02*
X98605054Y-44471164D01*
X98605054Y-44471164D02*
X98605054Y-44394973D01*
X98605054Y-44394973D02*
X98566959Y-44318783D01*
X98566959Y-44318783D02*
X98528864Y-44280688D01*
X98528864Y-44280688D02*
X98452673Y-44242592D01*
X98452673Y-44242592D02*
X98300292Y-44204497D01*
X98300292Y-44204497D02*
X98224102Y-44166402D01*
X98224102Y-44166402D02*
X98186007Y-44128307D01*
X98186007Y-44128307D02*
X98147911Y-44052116D01*
X98147911Y-44052116D02*
X98147911Y-43975926D01*
X98147911Y-43975926D02*
X98186007Y-43899735D01*
X98186007Y-43899735D02*
X98224102Y-43861640D01*
X98224102Y-43861640D02*
X98300292Y-43823545D01*
X98300292Y-43823545D02*
X98490769Y-43823545D01*
X98490769Y-43823545D02*
X98605054Y-43861640D01*
X98833626Y-43823545D02*
X99290769Y-43823545D01*
X99062197Y-44623545D02*
X99062197Y-43823545D01*
X97799601Y-41351640D02*
X97723411Y-41313545D01*
X97723411Y-41313545D02*
X97609125Y-41313545D01*
X97609125Y-41313545D02*
X97494839Y-41351640D01*
X97494839Y-41351640D02*
X97418649Y-41427830D01*
X97418649Y-41427830D02*
X97380554Y-41504021D01*
X97380554Y-41504021D02*
X97342458Y-41656402D01*
X97342458Y-41656402D02*
X97342458Y-41770688D01*
X97342458Y-41770688D02*
X97380554Y-41923069D01*
X97380554Y-41923069D02*
X97418649Y-41999259D01*
X97418649Y-41999259D02*
X97494839Y-42075450D01*
X97494839Y-42075450D02*
X97609125Y-42113545D01*
X97609125Y-42113545D02*
X97685316Y-42113545D01*
X97685316Y-42113545D02*
X97799601Y-42075450D01*
X97799601Y-42075450D02*
X97837697Y-42037354D01*
X97837697Y-42037354D02*
X97837697Y-41770688D01*
X97837697Y-41770688D02*
X97685316Y-41770688D01*
X98180554Y-42113545D02*
X98180554Y-41313545D01*
X98180554Y-41313545D02*
X98637697Y-42113545D01*
X98637697Y-42113545D02*
X98637697Y-41313545D01*
X99018649Y-42113545D02*
X99018649Y-41313545D01*
X99018649Y-41313545D02*
X99209125Y-41313545D01*
X99209125Y-41313545D02*
X99323411Y-41351640D01*
X99323411Y-41351640D02*
X99399601Y-41427830D01*
X99399601Y-41427830D02*
X99437696Y-41504021D01*
X99437696Y-41504021D02*
X99475792Y-41656402D01*
X99475792Y-41656402D02*
X99475792Y-41770688D01*
X99475792Y-41770688D02*
X99437696Y-41923069D01*
X99437696Y-41923069D02*
X99399601Y-41999259D01*
X99399601Y-41999259D02*
X99323411Y-42075450D01*
X99323411Y-42075450D02*
X99209125Y-42113545D01*
X99209125Y-42113545D02*
X99018649Y-42113545D01*
X87185776Y-38773545D02*
X87642919Y-38773545D01*
X87414347Y-39573545D02*
X87414347Y-38773545D01*
X87833395Y-38773545D02*
X88366729Y-39573545D01*
X88366729Y-38773545D02*
X87833395Y-39573545D01*
X88823872Y-38773545D02*
X88900062Y-38773545D01*
X88900062Y-38773545D02*
X88976253Y-38811640D01*
X88976253Y-38811640D02*
X89014348Y-38849735D01*
X89014348Y-38849735D02*
X89052443Y-38925926D01*
X89052443Y-38925926D02*
X89090538Y-39078307D01*
X89090538Y-39078307D02*
X89090538Y-39268783D01*
X89090538Y-39268783D02*
X89052443Y-39421164D01*
X89052443Y-39421164D02*
X89014348Y-39497354D01*
X89014348Y-39497354D02*
X88976253Y-39535450D01*
X88976253Y-39535450D02*
X88900062Y-39573545D01*
X88900062Y-39573545D02*
X88823872Y-39573545D01*
X88823872Y-39573545D02*
X88747681Y-39535450D01*
X88747681Y-39535450D02*
X88709586Y-39497354D01*
X88709586Y-39497354D02*
X88671491Y-39421164D01*
X88671491Y-39421164D02*
X88633395Y-39268783D01*
X88633395Y-39268783D02*
X88633395Y-39078307D01*
X88633395Y-39078307D02*
X88671491Y-38925926D01*
X88671491Y-38925926D02*
X88709586Y-38849735D01*
X88709586Y-38849735D02*
X88747681Y-38811640D01*
X88747681Y-38811640D02*
X88823872Y-38773545D01*
X90004824Y-38735450D02*
X89319110Y-39764021D01*
X90271491Y-39573545D02*
X90271491Y-38773545D01*
X90271491Y-38773545D02*
X90461967Y-38773545D01*
X90461967Y-38773545D02*
X90576253Y-38811640D01*
X90576253Y-38811640D02*
X90652443Y-38887830D01*
X90652443Y-38887830D02*
X90690538Y-38964021D01*
X90690538Y-38964021D02*
X90728634Y-39116402D01*
X90728634Y-39116402D02*
X90728634Y-39230688D01*
X90728634Y-39230688D02*
X90690538Y-39383069D01*
X90690538Y-39383069D02*
X90652443Y-39459259D01*
X90652443Y-39459259D02*
X90576253Y-39535450D01*
X90576253Y-39535450D02*
X90461967Y-39573545D01*
X90461967Y-39573545D02*
X90271491Y-39573545D01*
X90995300Y-38773545D02*
X91490538Y-38773545D01*
X91490538Y-38773545D02*
X91223872Y-39078307D01*
X91223872Y-39078307D02*
X91338157Y-39078307D01*
X91338157Y-39078307D02*
X91414348Y-39116402D01*
X91414348Y-39116402D02*
X91452443Y-39154497D01*
X91452443Y-39154497D02*
X91490538Y-39230688D01*
X91490538Y-39230688D02*
X91490538Y-39421164D01*
X91490538Y-39421164D02*
X91452443Y-39497354D01*
X91452443Y-39497354D02*
X91414348Y-39535450D01*
X91414348Y-39535450D02*
X91338157Y-39573545D01*
X91338157Y-39573545D02*
X91109586Y-39573545D01*
X91109586Y-39573545D02*
X91033395Y-39535450D01*
X91033395Y-39535450D02*
X90995300Y-39497354D01*
X86896649Y-59893545D02*
X86896649Y-59093545D01*
X86896649Y-59093545D02*
X87087125Y-59093545D01*
X87087125Y-59093545D02*
X87201411Y-59131640D01*
X87201411Y-59131640D02*
X87277601Y-59207830D01*
X87277601Y-59207830D02*
X87315696Y-59284021D01*
X87315696Y-59284021D02*
X87353792Y-59436402D01*
X87353792Y-59436402D02*
X87353792Y-59550688D01*
X87353792Y-59550688D02*
X87315696Y-59703069D01*
X87315696Y-59703069D02*
X87277601Y-59779259D01*
X87277601Y-59779259D02*
X87201411Y-59855450D01*
X87201411Y-59855450D02*
X87087125Y-59893545D01*
X87087125Y-59893545D02*
X86896649Y-59893545D01*
X87620458Y-59093545D02*
X88153792Y-59093545D01*
X88153792Y-59093545D02*
X87810934Y-59893545D01*
X98142458Y-54394497D02*
X97875792Y-54394497D01*
X97875792Y-54813545D02*
X97875792Y-54013545D01*
X97875792Y-54013545D02*
X98256744Y-54013545D01*
X98904363Y-54013545D02*
X98751982Y-54013545D01*
X98751982Y-54013545D02*
X98675791Y-54051640D01*
X98675791Y-54051640D02*
X98637696Y-54089735D01*
X98637696Y-54089735D02*
X98561506Y-54204021D01*
X98561506Y-54204021D02*
X98523410Y-54356402D01*
X98523410Y-54356402D02*
X98523410Y-54661164D01*
X98523410Y-54661164D02*
X98561506Y-54737354D01*
X98561506Y-54737354D02*
X98599601Y-54775450D01*
X98599601Y-54775450D02*
X98675791Y-54813545D01*
X98675791Y-54813545D02*
X98828172Y-54813545D01*
X98828172Y-54813545D02*
X98904363Y-54775450D01*
X98904363Y-54775450D02*
X98942458Y-54737354D01*
X98942458Y-54737354D02*
X98980553Y-54661164D01*
X98980553Y-54661164D02*
X98980553Y-54470688D01*
X98980553Y-54470688D02*
X98942458Y-54394497D01*
X98942458Y-54394497D02*
X98904363Y-54356402D01*
X98904363Y-54356402D02*
X98828172Y-54318307D01*
X98828172Y-54318307D02*
X98675791Y-54318307D01*
X98675791Y-54318307D02*
X98599601Y-54356402D01*
X98599601Y-54356402D02*
X98561506Y-54394497D01*
X98561506Y-54394497D02*
X98523410Y-54470688D01*
X97342458Y-46393545D02*
X97609125Y-47193545D01*
X97609125Y-47193545D02*
X97875791Y-46393545D01*
X98599601Y-47117354D02*
X98561505Y-47155450D01*
X98561505Y-47155450D02*
X98447220Y-47193545D01*
X98447220Y-47193545D02*
X98371029Y-47193545D01*
X98371029Y-47193545D02*
X98256743Y-47155450D01*
X98256743Y-47155450D02*
X98180553Y-47079259D01*
X98180553Y-47079259D02*
X98142458Y-47003069D01*
X98142458Y-47003069D02*
X98104362Y-46850688D01*
X98104362Y-46850688D02*
X98104362Y-46736402D01*
X98104362Y-46736402D02*
X98142458Y-46584021D01*
X98142458Y-46584021D02*
X98180553Y-46507830D01*
X98180553Y-46507830D02*
X98256743Y-46431640D01*
X98256743Y-46431640D02*
X98371029Y-46393545D01*
X98371029Y-46393545D02*
X98447220Y-46393545D01*
X98447220Y-46393545D02*
X98561505Y-46431640D01*
X98561505Y-46431640D02*
X98599601Y-46469735D01*
X99399601Y-47117354D02*
X99361505Y-47155450D01*
X99361505Y-47155450D02*
X99247220Y-47193545D01*
X99247220Y-47193545D02*
X99171029Y-47193545D01*
X99171029Y-47193545D02*
X99056743Y-47155450D01*
X99056743Y-47155450D02*
X98980553Y-47079259D01*
X98980553Y-47079259D02*
X98942458Y-47003069D01*
X98942458Y-47003069D02*
X98904362Y-46850688D01*
X98904362Y-46850688D02*
X98904362Y-46736402D01*
X98904362Y-46736402D02*
X98942458Y-46584021D01*
X98942458Y-46584021D02*
X98980553Y-46507830D01*
X98980553Y-46507830D02*
X99056743Y-46431640D01*
X99056743Y-46431640D02*
X99171029Y-46393545D01*
X99171029Y-46393545D02*
X99247220Y-46393545D01*
X99247220Y-46393545D02*
X99361505Y-46431640D01*
X99361505Y-46431640D02*
X99399601Y-46469735D01*
X86877601Y-46431640D02*
X86801411Y-46393545D01*
X86801411Y-46393545D02*
X86687125Y-46393545D01*
X86687125Y-46393545D02*
X86572839Y-46431640D01*
X86572839Y-46431640D02*
X86496649Y-46507830D01*
X86496649Y-46507830D02*
X86458554Y-46584021D01*
X86458554Y-46584021D02*
X86420458Y-46736402D01*
X86420458Y-46736402D02*
X86420458Y-46850688D01*
X86420458Y-46850688D02*
X86458554Y-47003069D01*
X86458554Y-47003069D02*
X86496649Y-47079259D01*
X86496649Y-47079259D02*
X86572839Y-47155450D01*
X86572839Y-47155450D02*
X86687125Y-47193545D01*
X86687125Y-47193545D02*
X86763316Y-47193545D01*
X86763316Y-47193545D02*
X86877601Y-47155450D01*
X86877601Y-47155450D02*
X86915697Y-47117354D01*
X86915697Y-47117354D02*
X86915697Y-46850688D01*
X86915697Y-46850688D02*
X86763316Y-46850688D01*
X87258554Y-47193545D02*
X87258554Y-46393545D01*
X87258554Y-46393545D02*
X87715697Y-47193545D01*
X87715697Y-47193545D02*
X87715697Y-46393545D01*
X88096649Y-47193545D02*
X88096649Y-46393545D01*
X88096649Y-46393545D02*
X88287125Y-46393545D01*
X88287125Y-46393545D02*
X88401411Y-46431640D01*
X88401411Y-46431640D02*
X88477601Y-46507830D01*
X88477601Y-46507830D02*
X88515696Y-46584021D01*
X88515696Y-46584021D02*
X88553792Y-46736402D01*
X88553792Y-46736402D02*
X88553792Y-46850688D01*
X88553792Y-46850688D02*
X88515696Y-47003069D01*
X88515696Y-47003069D02*
X88477601Y-47079259D01*
X88477601Y-47079259D02*
X88401411Y-47155450D01*
X88401411Y-47155450D02*
X88287125Y-47193545D01*
X88287125Y-47193545D02*
X88096649Y-47193545D01*
X98085315Y-64554497D02*
X98199601Y-64592592D01*
X98199601Y-64592592D02*
X98237696Y-64630688D01*
X98237696Y-64630688D02*
X98275792Y-64706878D01*
X98275792Y-64706878D02*
X98275792Y-64821164D01*
X98275792Y-64821164D02*
X98237696Y-64897354D01*
X98237696Y-64897354D02*
X98199601Y-64935450D01*
X98199601Y-64935450D02*
X98123411Y-64973545D01*
X98123411Y-64973545D02*
X97818649Y-64973545D01*
X97818649Y-64973545D02*
X97818649Y-64173545D01*
X97818649Y-64173545D02*
X98085315Y-64173545D01*
X98085315Y-64173545D02*
X98161506Y-64211640D01*
X98161506Y-64211640D02*
X98199601Y-64249735D01*
X98199601Y-64249735D02*
X98237696Y-64325926D01*
X98237696Y-64325926D02*
X98237696Y-64402116D01*
X98237696Y-64402116D02*
X98199601Y-64478307D01*
X98199601Y-64478307D02*
X98161506Y-64516402D01*
X98161506Y-64516402D02*
X98085315Y-64554497D01*
X98085315Y-64554497D02*
X97818649Y-64554497D01*
X98580553Y-64249735D02*
X98618649Y-64211640D01*
X98618649Y-64211640D02*
X98694839Y-64173545D01*
X98694839Y-64173545D02*
X98885315Y-64173545D01*
X98885315Y-64173545D02*
X98961506Y-64211640D01*
X98961506Y-64211640D02*
X98999601Y-64249735D01*
X98999601Y-64249735D02*
X99037696Y-64325926D01*
X99037696Y-64325926D02*
X99037696Y-64402116D01*
X99037696Y-64402116D02*
X98999601Y-64516402D01*
X98999601Y-64516402D02*
X98542458Y-64973545D01*
X98542458Y-64973545D02*
X99037696Y-64973545D01*
X87353792Y-57277354D02*
X87315696Y-57315450D01*
X87315696Y-57315450D02*
X87201411Y-57353545D01*
X87201411Y-57353545D02*
X87125220Y-57353545D01*
X87125220Y-57353545D02*
X87010934Y-57315450D01*
X87010934Y-57315450D02*
X86934744Y-57239259D01*
X86934744Y-57239259D02*
X86896649Y-57163069D01*
X86896649Y-57163069D02*
X86858553Y-57010688D01*
X86858553Y-57010688D02*
X86858553Y-56896402D01*
X86858553Y-56896402D02*
X86896649Y-56744021D01*
X86896649Y-56744021D02*
X86934744Y-56667830D01*
X86934744Y-56667830D02*
X87010934Y-56591640D01*
X87010934Y-56591640D02*
X87125220Y-56553545D01*
X87125220Y-56553545D02*
X87201411Y-56553545D01*
X87201411Y-56553545D02*
X87315696Y-56591640D01*
X87315696Y-56591640D02*
X87353792Y-56629735D01*
X88039506Y-56553545D02*
X87887125Y-56553545D01*
X87887125Y-56553545D02*
X87810934Y-56591640D01*
X87810934Y-56591640D02*
X87772839Y-56629735D01*
X87772839Y-56629735D02*
X87696649Y-56744021D01*
X87696649Y-56744021D02*
X87658553Y-56896402D01*
X87658553Y-56896402D02*
X87658553Y-57201164D01*
X87658553Y-57201164D02*
X87696649Y-57277354D01*
X87696649Y-57277354D02*
X87734744Y-57315450D01*
X87734744Y-57315450D02*
X87810934Y-57353545D01*
X87810934Y-57353545D02*
X87963315Y-57353545D01*
X87963315Y-57353545D02*
X88039506Y-57315450D01*
X88039506Y-57315450D02*
X88077601Y-57277354D01*
X88077601Y-57277354D02*
X88115696Y-57201164D01*
X88115696Y-57201164D02*
X88115696Y-57010688D01*
X88115696Y-57010688D02*
X88077601Y-56934497D01*
X88077601Y-56934497D02*
X88039506Y-56896402D01*
X88039506Y-56896402D02*
X87963315Y-56858307D01*
X87963315Y-56858307D02*
X87810934Y-56858307D01*
X87810934Y-56858307D02*
X87734744Y-56896402D01*
X87734744Y-56896402D02*
X87696649Y-56934497D01*
X87696649Y-56934497D02*
X87658553Y-57010688D01*
X86896649Y-49733545D02*
X86896649Y-48933545D01*
X86896649Y-48933545D02*
X87087125Y-48933545D01*
X87087125Y-48933545D02*
X87201411Y-48971640D01*
X87201411Y-48971640D02*
X87277601Y-49047830D01*
X87277601Y-49047830D02*
X87315696Y-49124021D01*
X87315696Y-49124021D02*
X87353792Y-49276402D01*
X87353792Y-49276402D02*
X87353792Y-49390688D01*
X87353792Y-49390688D02*
X87315696Y-49543069D01*
X87315696Y-49543069D02*
X87277601Y-49619259D01*
X87277601Y-49619259D02*
X87201411Y-49695450D01*
X87201411Y-49695450D02*
X87087125Y-49733545D01*
X87087125Y-49733545D02*
X86896649Y-49733545D01*
X88115696Y-49733545D02*
X87658553Y-49733545D01*
X87887125Y-49733545D02*
X87887125Y-48933545D01*
X87887125Y-48933545D02*
X87810934Y-49047830D01*
X87810934Y-49047830D02*
X87734744Y-49124021D01*
X87734744Y-49124021D02*
X87658553Y-49162116D01*
X98142458Y-56934497D02*
X97875792Y-56934497D01*
X97875792Y-57353545D02*
X97875792Y-56553545D01*
X97875792Y-56553545D02*
X98256744Y-56553545D01*
X98485315Y-56553545D02*
X99018649Y-56553545D01*
X99018649Y-56553545D02*
X98675791Y-57353545D01*
X98085315Y-62014497D02*
X98199601Y-62052592D01*
X98199601Y-62052592D02*
X98237696Y-62090688D01*
X98237696Y-62090688D02*
X98275792Y-62166878D01*
X98275792Y-62166878D02*
X98275792Y-62281164D01*
X98275792Y-62281164D02*
X98237696Y-62357354D01*
X98237696Y-62357354D02*
X98199601Y-62395450D01*
X98199601Y-62395450D02*
X98123411Y-62433545D01*
X98123411Y-62433545D02*
X97818649Y-62433545D01*
X97818649Y-62433545D02*
X97818649Y-61633545D01*
X97818649Y-61633545D02*
X98085315Y-61633545D01*
X98085315Y-61633545D02*
X98161506Y-61671640D01*
X98161506Y-61671640D02*
X98199601Y-61709735D01*
X98199601Y-61709735D02*
X98237696Y-61785926D01*
X98237696Y-61785926D02*
X98237696Y-61862116D01*
X98237696Y-61862116D02*
X98199601Y-61938307D01*
X98199601Y-61938307D02*
X98161506Y-61976402D01*
X98161506Y-61976402D02*
X98085315Y-62014497D01*
X98085315Y-62014497D02*
X97818649Y-62014497D01*
X98542458Y-61633545D02*
X99037696Y-61633545D01*
X99037696Y-61633545D02*
X98771030Y-61938307D01*
X98771030Y-61938307D02*
X98885315Y-61938307D01*
X98885315Y-61938307D02*
X98961506Y-61976402D01*
X98961506Y-61976402D02*
X98999601Y-62014497D01*
X98999601Y-62014497D02*
X99037696Y-62090688D01*
X99037696Y-62090688D02*
X99037696Y-62281164D01*
X99037696Y-62281164D02*
X98999601Y-62357354D01*
X98999601Y-62357354D02*
X98961506Y-62395450D01*
X98961506Y-62395450D02*
X98885315Y-62433545D01*
X98885315Y-62433545D02*
X98656744Y-62433545D01*
X98656744Y-62433545D02*
X98580553Y-62395450D01*
X98580553Y-62395450D02*
X98542458Y-62357354D01*
X86896649Y-42113545D02*
X86896649Y-41313545D01*
X86896649Y-41313545D02*
X87087125Y-41313545D01*
X87087125Y-41313545D02*
X87201411Y-41351640D01*
X87201411Y-41351640D02*
X87277601Y-41427830D01*
X87277601Y-41427830D02*
X87315696Y-41504021D01*
X87315696Y-41504021D02*
X87353792Y-41656402D01*
X87353792Y-41656402D02*
X87353792Y-41770688D01*
X87353792Y-41770688D02*
X87315696Y-41923069D01*
X87315696Y-41923069D02*
X87277601Y-41999259D01*
X87277601Y-41999259D02*
X87201411Y-42075450D01*
X87201411Y-42075450D02*
X87087125Y-42113545D01*
X87087125Y-42113545D02*
X86896649Y-42113545D01*
X87658553Y-41389735D02*
X87696649Y-41351640D01*
X87696649Y-41351640D02*
X87772839Y-41313545D01*
X87772839Y-41313545D02*
X87963315Y-41313545D01*
X87963315Y-41313545D02*
X88039506Y-41351640D01*
X88039506Y-41351640D02*
X88077601Y-41389735D01*
X88077601Y-41389735D02*
X88115696Y-41465926D01*
X88115696Y-41465926D02*
X88115696Y-41542116D01*
X88115696Y-41542116D02*
X88077601Y-41656402D01*
X88077601Y-41656402D02*
X87620458Y-42113545D01*
X87620458Y-42113545D02*
X88115696Y-42113545D01*
X98142458Y-49314497D02*
X97875792Y-49314497D01*
X97875792Y-49733545D02*
X97875792Y-48933545D01*
X97875792Y-48933545D02*
X98256744Y-48933545D01*
X98904363Y-49200211D02*
X98904363Y-49733545D01*
X98713887Y-48895450D02*
X98523410Y-49466878D01*
X98523410Y-49466878D02*
X99018649Y-49466878D01*
X86896649Y-54813545D02*
X86896649Y-54013545D01*
X86896649Y-54013545D02*
X87087125Y-54013545D01*
X87087125Y-54013545D02*
X87201411Y-54051640D01*
X87201411Y-54051640D02*
X87277601Y-54127830D01*
X87277601Y-54127830D02*
X87315696Y-54204021D01*
X87315696Y-54204021D02*
X87353792Y-54356402D01*
X87353792Y-54356402D02*
X87353792Y-54470688D01*
X87353792Y-54470688D02*
X87315696Y-54623069D01*
X87315696Y-54623069D02*
X87277601Y-54699259D01*
X87277601Y-54699259D02*
X87201411Y-54775450D01*
X87201411Y-54775450D02*
X87087125Y-54813545D01*
X87087125Y-54813545D02*
X86896649Y-54813545D01*
X88039506Y-54280211D02*
X88039506Y-54813545D01*
X87849030Y-53975450D02*
X87658553Y-54546878D01*
X87658553Y-54546878D02*
X88153792Y-54546878D01*
X86934744Y-62014497D02*
X87201410Y-62014497D01*
X87315696Y-62433545D02*
X86934744Y-62433545D01*
X86934744Y-62433545D02*
X86934744Y-61633545D01*
X86934744Y-61633545D02*
X87315696Y-61633545D01*
X88001411Y-61633545D02*
X87849030Y-61633545D01*
X87849030Y-61633545D02*
X87772839Y-61671640D01*
X87772839Y-61671640D02*
X87734744Y-61709735D01*
X87734744Y-61709735D02*
X87658554Y-61824021D01*
X87658554Y-61824021D02*
X87620458Y-61976402D01*
X87620458Y-61976402D02*
X87620458Y-62281164D01*
X87620458Y-62281164D02*
X87658554Y-62357354D01*
X87658554Y-62357354D02*
X87696649Y-62395450D01*
X87696649Y-62395450D02*
X87772839Y-62433545D01*
X87772839Y-62433545D02*
X87925220Y-62433545D01*
X87925220Y-62433545D02*
X88001411Y-62395450D01*
X88001411Y-62395450D02*
X88039506Y-62357354D01*
X88039506Y-62357354D02*
X88077601Y-62281164D01*
X88077601Y-62281164D02*
X88077601Y-62090688D01*
X88077601Y-62090688D02*
X88039506Y-62014497D01*
X88039506Y-62014497D02*
X88001411Y-61976402D01*
X88001411Y-61976402D02*
X87925220Y-61938307D01*
X87925220Y-61938307D02*
X87772839Y-61938307D01*
X87772839Y-61938307D02*
X87696649Y-61976402D01*
X87696649Y-61976402D02*
X87658554Y-62014497D01*
X87658554Y-62014497D02*
X87620458Y-62090688D01*
X98085315Y-59474497D02*
X98199601Y-59512592D01*
X98199601Y-59512592D02*
X98237696Y-59550688D01*
X98237696Y-59550688D02*
X98275792Y-59626878D01*
X98275792Y-59626878D02*
X98275792Y-59741164D01*
X98275792Y-59741164D02*
X98237696Y-59817354D01*
X98237696Y-59817354D02*
X98199601Y-59855450D01*
X98199601Y-59855450D02*
X98123411Y-59893545D01*
X98123411Y-59893545D02*
X97818649Y-59893545D01*
X97818649Y-59893545D02*
X97818649Y-59093545D01*
X97818649Y-59093545D02*
X98085315Y-59093545D01*
X98085315Y-59093545D02*
X98161506Y-59131640D01*
X98161506Y-59131640D02*
X98199601Y-59169735D01*
X98199601Y-59169735D02*
X98237696Y-59245926D01*
X98237696Y-59245926D02*
X98237696Y-59322116D01*
X98237696Y-59322116D02*
X98199601Y-59398307D01*
X98199601Y-59398307D02*
X98161506Y-59436402D01*
X98161506Y-59436402D02*
X98085315Y-59474497D01*
X98085315Y-59474497D02*
X97818649Y-59474497D01*
X99037696Y-59893545D02*
X98580553Y-59893545D01*
X98809125Y-59893545D02*
X98809125Y-59093545D01*
X98809125Y-59093545D02*
X98732934Y-59207830D01*
X98732934Y-59207830D02*
X98656744Y-59284021D01*
X98656744Y-59284021D02*
X98580553Y-59322116D01*
X176267918Y-93323569D02*
X176267918Y-92323569D01*
X176267918Y-92799759D02*
X176839346Y-92799759D01*
X176839346Y-93323569D02*
X176839346Y-92323569D01*
X177839346Y-93323569D02*
X177267918Y-93323569D01*
X177553632Y-93323569D02*
X177553632Y-92323569D01*
X177553632Y-92323569D02*
X177458394Y-92466426D01*
X177458394Y-92466426D02*
X177363156Y-92561664D01*
X177363156Y-92561664D02*
X177267918Y-92609283D01*
X178220299Y-92418807D02*
X178267918Y-92371188D01*
X178267918Y-92371188D02*
X178363156Y-92323569D01*
X178363156Y-92323569D02*
X178601251Y-92323569D01*
X178601251Y-92323569D02*
X178696489Y-92371188D01*
X178696489Y-92371188D02*
X178744108Y-92418807D01*
X178744108Y-92418807D02*
X178791727Y-92514045D01*
X178791727Y-92514045D02*
X178791727Y-92609283D01*
X178791727Y-92609283D02*
X178744108Y-92752140D01*
X178744108Y-92752140D02*
X178172680Y-93323569D01*
X178172680Y-93323569D02*
X178791727Y-93323569D01*
X100067918Y-34982944D02*
X100067918Y-33982944D01*
X100067918Y-34459134D02*
X100639346Y-34459134D01*
X100639346Y-34982944D02*
X100639346Y-33982944D01*
X101639346Y-34982944D02*
X101067918Y-34982944D01*
X101353632Y-34982944D02*
X101353632Y-33982944D01*
X101353632Y-33982944D02*
X101258394Y-34125801D01*
X101258394Y-34125801D02*
X101163156Y-34221039D01*
X101163156Y-34221039D02*
X101067918Y-34268658D01*
X102496489Y-34316277D02*
X102496489Y-34982944D01*
X102258394Y-33935325D02*
X102020299Y-34649610D01*
X102020299Y-34649610D02*
X102639346Y-34649610D01*
D11*
%TO.C,S32*%
X145379375Y-47668750D02*
X145379375Y-61868750D01*
X145379375Y-61868750D02*
X159579375Y-61868750D01*
X159579375Y-47668750D02*
X145379375Y-47668750D01*
X159579375Y-61868750D02*
X159579375Y-47668750D01*
%TO.C,S35*%
X202529375Y-57193750D02*
X202529375Y-71393750D01*
X202529375Y-71393750D02*
X216729375Y-71393750D01*
X216729375Y-57193750D02*
X202529375Y-57193750D01*
X216729375Y-71393750D02*
X216729375Y-57193750D01*
%TO.C,S26*%
X145379375Y-28618750D02*
X145379375Y-42818750D01*
X145379375Y-42818750D02*
X159579375Y-42818750D01*
X159579375Y-28618750D02*
X145379375Y-28618750D01*
X159579375Y-42818750D02*
X159579375Y-28618750D01*
%TO.C,S39*%
X145379375Y-66718750D02*
X145379375Y-80918750D01*
X145379375Y-80918750D02*
X159579375Y-80918750D01*
X159579375Y-66718750D02*
X145379375Y-66718750D01*
X159579375Y-80918750D02*
X159579375Y-66718750D01*
%TO.C,S43*%
X92991875Y-95293750D02*
X92991875Y-109493750D01*
X92991875Y-109493750D02*
X107191875Y-109493750D01*
X107191875Y-95293750D02*
X92991875Y-95293750D01*
X107191875Y-109493750D02*
X107191875Y-95293750D01*
D10*
%TO.C,U4*%
X76801250Y-38881250D02*
X76801250Y-50981250D01*
X77051250Y-38881250D02*
X77051250Y-36881250D01*
X82651250Y-36881250D02*
X77051250Y-36881250D01*
X82651250Y-38881250D02*
X82651250Y-36881250D01*
X82901250Y-38881250D02*
X76801250Y-38881250D01*
X82901250Y-38881250D02*
X82901250Y-50981250D01*
X82901250Y-50981250D02*
X76801250Y-50981250D01*
D11*
%TO.C,S34*%
X183479375Y-57193750D02*
X183479375Y-71393750D01*
X183479375Y-71393750D02*
X197679375Y-71393750D01*
X197679375Y-57193750D02*
X183479375Y-57193750D01*
X197679375Y-71393750D02*
X197679375Y-57193750D01*
%TO.C,S30*%
X107279375Y-57193750D02*
X107279375Y-71393750D01*
X107279375Y-71393750D02*
X121479375Y-71393750D01*
X121479375Y-57193750D02*
X107279375Y-57193750D01*
X121479375Y-71393750D02*
X121479375Y-57193750D01*
%TO.C,S28*%
X183479375Y-38143750D02*
X183479375Y-52343750D01*
X183479375Y-52343750D02*
X197679375Y-52343750D01*
X197679375Y-38143750D02*
X183479375Y-38143750D01*
X197679375Y-52343750D02*
X197679375Y-38143750D01*
%TO.C,S45*%
X135854375Y-90531250D02*
X135854375Y-104731250D01*
X135854375Y-104731250D02*
X150054375Y-104731250D01*
X150054375Y-90531250D02*
X135854375Y-90531250D01*
X150054375Y-104731250D02*
X150054375Y-90531250D01*
%TO.C,S41*%
X183479375Y-76243750D02*
X183479375Y-90443750D01*
X183479375Y-90443750D02*
X197679375Y-90443750D01*
X197679375Y-76243750D02*
X183479375Y-76243750D01*
X197679375Y-90443750D02*
X197679375Y-76243750D01*
%TO.C,S29*%
X202529375Y-38143750D02*
X202529375Y-52343750D01*
X202529375Y-52343750D02*
X216729375Y-52343750D01*
X216729375Y-38143750D02*
X202529375Y-38143750D01*
X216729375Y-52343750D02*
X216729375Y-38143750D01*
%TO.C,S44*%
X116804375Y-95293750D02*
X116804375Y-109493750D01*
X116804375Y-109493750D02*
X131004375Y-109493750D01*
X131004375Y-95293750D02*
X116804375Y-95293750D01*
X131004375Y-109493750D02*
X131004375Y-95293750D01*
%TO.C,S46*%
X154904375Y-90531250D02*
X154904375Y-104731250D01*
X154904375Y-104731250D02*
X169104375Y-104731250D01*
X169104375Y-90531250D02*
X154904375Y-90531250D01*
X169104375Y-104731250D02*
X169104375Y-90531250D01*
%TO.C,S42*%
X202529375Y-76243750D02*
X202529375Y-90443750D01*
X202529375Y-90443750D02*
X216729375Y-90443750D01*
X216729375Y-76243750D02*
X202529375Y-76243750D01*
X216729375Y-90443750D02*
X216729375Y-76243750D01*
%TO.C,S40*%
X164429375Y-71481250D02*
X164429375Y-85681250D01*
X164429375Y-85681250D02*
X178629375Y-85681250D01*
X178629375Y-71481250D02*
X164429375Y-71481250D01*
X178629375Y-85681250D02*
X178629375Y-71481250D01*
%TO.C,S37*%
X107279375Y-76243750D02*
X107279375Y-90443750D01*
X107279375Y-90443750D02*
X121479375Y-90443750D01*
X121479375Y-76243750D02*
X107279375Y-76243750D01*
X121479375Y-90443750D02*
X121479375Y-76243750D01*
%TO.C,S24*%
X107279375Y-38143750D02*
X107279375Y-52343750D01*
X107279375Y-52343750D02*
X121479375Y-52343750D01*
X121479375Y-38143750D02*
X107279375Y-38143750D01*
X121479375Y-52343750D02*
X121479375Y-38143750D01*
%TO.C,S25*%
X126329375Y-33381250D02*
X126329375Y-47581250D01*
X126329375Y-47581250D02*
X140529375Y-47581250D01*
X140529375Y-33381250D02*
X126329375Y-33381250D01*
X140529375Y-47581250D02*
X140529375Y-33381250D01*
%TO.C,S33*%
X164429375Y-52431250D02*
X164429375Y-66631250D01*
X164429375Y-66631250D02*
X178629375Y-66631250D01*
X178629375Y-52431250D02*
X164429375Y-52431250D01*
X178629375Y-66631250D02*
X178629375Y-52431250D01*
%TO.C,S38*%
X126329375Y-71481250D02*
X126329375Y-85681250D01*
X126329375Y-85681250D02*
X140529375Y-85681250D01*
X140529375Y-71481250D02*
X126329375Y-71481250D01*
X140529375Y-85681250D02*
X140529375Y-71481250D01*
%TO.C,S36*%
X88229375Y-71481250D02*
X88229375Y-85681250D01*
X88229375Y-85681250D02*
X102429375Y-85681250D01*
X102429375Y-71481250D02*
X88229375Y-71481250D01*
X102429375Y-85681250D02*
X102429375Y-71481250D01*
%TO.C,S31*%
X126329375Y-52431250D02*
X126329375Y-66631250D01*
X126329375Y-66631250D02*
X140529375Y-66631250D01*
X140529375Y-52431250D02*
X126329375Y-52431250D01*
X140529375Y-66631250D02*
X140529375Y-52431250D01*
%TO.C,S27*%
X164429375Y-33381250D02*
X164429375Y-47581250D01*
X164429375Y-47581250D02*
X178629375Y-47581250D01*
X178629375Y-33381250D02*
X164429375Y-33381250D01*
X178629375Y-47581250D02*
X178629375Y-33381250D01*
D12*
%TO.C,U2*%
X84058125Y-35401250D02*
X84058125Y-68421250D01*
X84058125Y-68421250D02*
X101838125Y-68421250D01*
X86598125Y-37941250D02*
X84058125Y-37941250D01*
X86598125Y-37941250D02*
X86598125Y-40481250D01*
X86598125Y-40481250D02*
X84058125Y-40481250D01*
X101838125Y-35401250D02*
X84058125Y-35401250D01*
X101838125Y-68421250D02*
X101838125Y-35401250D01*
D10*
X97479693Y-44620610D02*
X97379693Y-44620610D01*
X97379693Y-43820610D01*
X97479693Y-43820610D01*
X97479693Y-44620610D01*
G36*
X97479693Y-44620610D02*
G01*
X97379693Y-44620610D01*
X97379693Y-43820610D01*
X97479693Y-43820610D01*
X97479693Y-44620610D01*
G37*
X97679693Y-44320610D02*
X97579693Y-44320610D01*
X97579693Y-44220610D01*
X97679693Y-44220610D01*
X97679693Y-44320610D01*
G36*
X97679693Y-44320610D02*
G01*
X97579693Y-44320610D01*
X97579693Y-44220610D01*
X97679693Y-44220610D01*
X97679693Y-44320610D01*
G37*
X97879693Y-43920610D02*
X97379693Y-43920610D01*
X97379693Y-43820610D01*
X97879693Y-43820610D01*
X97879693Y-43920610D01*
G36*
X97879693Y-43920610D02*
G01*
X97379693Y-43920610D01*
X97379693Y-43820610D01*
X97879693Y-43820610D01*
X97879693Y-43920610D01*
G37*
X97879693Y-44120610D02*
X97779693Y-44120610D01*
X97779693Y-43820610D01*
X97879693Y-43820610D01*
X97879693Y-44120610D01*
G36*
X97879693Y-44120610D02*
G01*
X97779693Y-44120610D01*
X97779693Y-43820610D01*
X97879693Y-43820610D01*
X97879693Y-44120610D01*
G37*
X97879693Y-44620610D02*
X97779693Y-44620610D01*
X97779693Y-44420610D01*
X97879693Y-44420610D01*
X97879693Y-44620610D01*
G36*
X97879693Y-44620610D02*
G01*
X97779693Y-44620610D01*
X97779693Y-44420610D01*
X97879693Y-44420610D01*
X97879693Y-44620610D01*
G37*
%TD*%
D13*
%TO.C,U2*%
X85328125Y-39211250D03*
D14*
X85328125Y-41751250D03*
X85328125Y-44291250D03*
X85328125Y-46831250D03*
X85328125Y-49371250D03*
X85328125Y-51911250D03*
X85328125Y-54451250D03*
X85328125Y-56991250D03*
X85328125Y-59531250D03*
X85328125Y-62071250D03*
X85328125Y-64611250D03*
X85328125Y-67151250D03*
X100568125Y-67151250D03*
X100568125Y-64611250D03*
X100568125Y-62071250D03*
X100568125Y-59531250D03*
X100568125Y-56991250D03*
X100568125Y-54451250D03*
X100568125Y-51911250D03*
X100568125Y-49371250D03*
X100568125Y-46831250D03*
X100568125Y-44291250D03*
X100568125Y-41751250D03*
X100568125Y-39211250D03*
%TD*%
M02*
