%TF.GenerationSoftware,KiCad,Pcbnew,7.0.8*%
%TF.CreationDate,2023-11-03T19:22:55+09:00*%
%TF.ProjectId,scene46_right,7363656e-6534-4365-9f72-696768742e6b,rev?*%
%TF.SameCoordinates,Original*%
%TF.FileFunction,Legend,Bot*%
%TF.FilePolarity,Positive*%
%FSLAX46Y46*%
G04 Gerber Fmt 4.6, Leading zero omitted, Abs format (unit mm)*
G04 Created by KiCad (PCBNEW 7.0.8) date 2023-11-03 19:22:55*
%MOMM*%
%LPD*%
G01*
G04 APERTURE LIST*
%ADD10C,0.150000*%
%ADD11C,0.200000*%
%ADD12C,0.120000*%
%ADD13R,1.752600X1.752600*%
%ADD14C,1.752600*%
G04 APERTURE END LIST*
D10*
X87810934Y-64554497D02*
X87696648Y-64592592D01*
X87696648Y-64592592D02*
X87658553Y-64630688D01*
X87658553Y-64630688D02*
X87620457Y-64706878D01*
X87620457Y-64706878D02*
X87620457Y-64821164D01*
X87620457Y-64821164D02*
X87658553Y-64897354D01*
X87658553Y-64897354D02*
X87696648Y-64935450D01*
X87696648Y-64935450D02*
X87772838Y-64973545D01*
X87772838Y-64973545D02*
X88077600Y-64973545D01*
X88077600Y-64973545D02*
X88077600Y-64173545D01*
X88077600Y-64173545D02*
X87810934Y-64173545D01*
X87810934Y-64173545D02*
X87734743Y-64211640D01*
X87734743Y-64211640D02*
X87696648Y-64249735D01*
X87696648Y-64249735D02*
X87658553Y-64325926D01*
X87658553Y-64325926D02*
X87658553Y-64402116D01*
X87658553Y-64402116D02*
X87696648Y-64478307D01*
X87696648Y-64478307D02*
X87734743Y-64516402D01*
X87734743Y-64516402D02*
X87810934Y-64554497D01*
X87810934Y-64554497D02*
X88077600Y-64554497D01*
X86934743Y-64440211D02*
X86934743Y-64973545D01*
X87125219Y-64135450D02*
X87315696Y-64706878D01*
X87315696Y-64706878D02*
X86820457Y-64706878D01*
X99018648Y-41351640D02*
X99094838Y-41313545D01*
X99094838Y-41313545D02*
X99209124Y-41313545D01*
X99209124Y-41313545D02*
X99323410Y-41351640D01*
X99323410Y-41351640D02*
X99399600Y-41427830D01*
X99399600Y-41427830D02*
X99437695Y-41504021D01*
X99437695Y-41504021D02*
X99475791Y-41656402D01*
X99475791Y-41656402D02*
X99475791Y-41770688D01*
X99475791Y-41770688D02*
X99437695Y-41923069D01*
X99437695Y-41923069D02*
X99399600Y-41999259D01*
X99399600Y-41999259D02*
X99323410Y-42075450D01*
X99323410Y-42075450D02*
X99209124Y-42113545D01*
X99209124Y-42113545D02*
X99132933Y-42113545D01*
X99132933Y-42113545D02*
X99018648Y-42075450D01*
X99018648Y-42075450D02*
X98980552Y-42037354D01*
X98980552Y-42037354D02*
X98980552Y-41770688D01*
X98980552Y-41770688D02*
X99132933Y-41770688D01*
X98637695Y-42113545D02*
X98637695Y-41313545D01*
X98637695Y-41313545D02*
X98180552Y-42113545D01*
X98180552Y-42113545D02*
X98180552Y-41313545D01*
X97799600Y-42113545D02*
X97799600Y-41313545D01*
X97799600Y-41313545D02*
X97609124Y-41313545D01*
X97609124Y-41313545D02*
X97494838Y-41351640D01*
X97494838Y-41351640D02*
X97418648Y-41427830D01*
X97418648Y-41427830D02*
X97380553Y-41504021D01*
X97380553Y-41504021D02*
X97342457Y-41656402D01*
X97342457Y-41656402D02*
X97342457Y-41770688D01*
X97342457Y-41770688D02*
X97380553Y-41923069D01*
X97380553Y-41923069D02*
X97418648Y-41999259D01*
X97418648Y-41999259D02*
X97494838Y-42075450D01*
X97494838Y-42075450D02*
X97609124Y-42113545D01*
X97609124Y-42113545D02*
X97799600Y-42113545D01*
X98675791Y-56934497D02*
X98942457Y-56934497D01*
X98942457Y-57353545D02*
X98942457Y-56553545D01*
X98942457Y-56553545D02*
X98561505Y-56553545D01*
X98332934Y-56553545D02*
X97799600Y-56553545D01*
X97799600Y-56553545D02*
X98142458Y-57353545D01*
X87620457Y-57277354D02*
X87658553Y-57315450D01*
X87658553Y-57315450D02*
X87772838Y-57353545D01*
X87772838Y-57353545D02*
X87849029Y-57353545D01*
X87849029Y-57353545D02*
X87963315Y-57315450D01*
X87963315Y-57315450D02*
X88039505Y-57239259D01*
X88039505Y-57239259D02*
X88077600Y-57163069D01*
X88077600Y-57163069D02*
X88115696Y-57010688D01*
X88115696Y-57010688D02*
X88115696Y-56896402D01*
X88115696Y-56896402D02*
X88077600Y-56744021D01*
X88077600Y-56744021D02*
X88039505Y-56667830D01*
X88039505Y-56667830D02*
X87963315Y-56591640D01*
X87963315Y-56591640D02*
X87849029Y-56553545D01*
X87849029Y-56553545D02*
X87772838Y-56553545D01*
X87772838Y-56553545D02*
X87658553Y-56591640D01*
X87658553Y-56591640D02*
X87620457Y-56629735D01*
X86934743Y-56553545D02*
X87087124Y-56553545D01*
X87087124Y-56553545D02*
X87163315Y-56591640D01*
X87163315Y-56591640D02*
X87201410Y-56629735D01*
X87201410Y-56629735D02*
X87277600Y-56744021D01*
X87277600Y-56744021D02*
X87315696Y-56896402D01*
X87315696Y-56896402D02*
X87315696Y-57201164D01*
X87315696Y-57201164D02*
X87277600Y-57277354D01*
X87277600Y-57277354D02*
X87239505Y-57315450D01*
X87239505Y-57315450D02*
X87163315Y-57353545D01*
X87163315Y-57353545D02*
X87010934Y-57353545D01*
X87010934Y-57353545D02*
X86934743Y-57315450D01*
X86934743Y-57315450D02*
X86896648Y-57277354D01*
X86896648Y-57277354D02*
X86858553Y-57201164D01*
X86858553Y-57201164D02*
X86858553Y-57010688D01*
X86858553Y-57010688D02*
X86896648Y-56934497D01*
X86896648Y-56934497D02*
X86934743Y-56896402D01*
X86934743Y-56896402D02*
X87010934Y-56858307D01*
X87010934Y-56858307D02*
X87163315Y-56858307D01*
X87163315Y-56858307D02*
X87239505Y-56896402D01*
X87239505Y-56896402D02*
X87277600Y-56934497D01*
X87277600Y-56934497D02*
X87315696Y-57010688D01*
X98961505Y-39573545D02*
X99228172Y-39192592D01*
X99418648Y-39573545D02*
X99418648Y-38773545D01*
X99418648Y-38773545D02*
X99113886Y-38773545D01*
X99113886Y-38773545D02*
X99037696Y-38811640D01*
X99037696Y-38811640D02*
X98999601Y-38849735D01*
X98999601Y-38849735D02*
X98961505Y-38925926D01*
X98961505Y-38925926D02*
X98961505Y-39040211D01*
X98961505Y-39040211D02*
X98999601Y-39116402D01*
X98999601Y-39116402D02*
X99037696Y-39154497D01*
X99037696Y-39154497D02*
X99113886Y-39192592D01*
X99113886Y-39192592D02*
X99418648Y-39192592D01*
X98656744Y-39344973D02*
X98275791Y-39344973D01*
X98732934Y-39573545D02*
X98466267Y-38773545D01*
X98466267Y-38773545D02*
X98199601Y-39573545D01*
X98009125Y-38773545D02*
X97818649Y-39573545D01*
X97818649Y-39573545D02*
X97666268Y-39002116D01*
X97666268Y-39002116D02*
X97513887Y-39573545D01*
X97513887Y-39573545D02*
X97323411Y-38773545D01*
X98732934Y-67094497D02*
X98618648Y-67132592D01*
X98618648Y-67132592D02*
X98580553Y-67170688D01*
X98580553Y-67170688D02*
X98542457Y-67246878D01*
X98542457Y-67246878D02*
X98542457Y-67361164D01*
X98542457Y-67361164D02*
X98580553Y-67437354D01*
X98580553Y-67437354D02*
X98618648Y-67475450D01*
X98618648Y-67475450D02*
X98694838Y-67513545D01*
X98694838Y-67513545D02*
X98999600Y-67513545D01*
X98999600Y-67513545D02*
X98999600Y-66713545D01*
X98999600Y-66713545D02*
X98732934Y-66713545D01*
X98732934Y-66713545D02*
X98656743Y-66751640D01*
X98656743Y-66751640D02*
X98618648Y-66789735D01*
X98618648Y-66789735D02*
X98580553Y-66865926D01*
X98580553Y-66865926D02*
X98580553Y-66942116D01*
X98580553Y-66942116D02*
X98618648Y-67018307D01*
X98618648Y-67018307D02*
X98656743Y-67056402D01*
X98656743Y-67056402D02*
X98732934Y-67094497D01*
X98732934Y-67094497D02*
X98999600Y-67094497D01*
X97856743Y-66713545D02*
X98009124Y-66713545D01*
X98009124Y-66713545D02*
X98085315Y-66751640D01*
X98085315Y-66751640D02*
X98123410Y-66789735D01*
X98123410Y-66789735D02*
X98199600Y-66904021D01*
X98199600Y-66904021D02*
X98237696Y-67056402D01*
X98237696Y-67056402D02*
X98237696Y-67361164D01*
X98237696Y-67361164D02*
X98199600Y-67437354D01*
X98199600Y-67437354D02*
X98161505Y-67475450D01*
X98161505Y-67475450D02*
X98085315Y-67513545D01*
X98085315Y-67513545D02*
X97932934Y-67513545D01*
X97932934Y-67513545D02*
X97856743Y-67475450D01*
X97856743Y-67475450D02*
X97818648Y-67437354D01*
X97818648Y-67437354D02*
X97780553Y-67361164D01*
X97780553Y-67361164D02*
X97780553Y-67170688D01*
X97780553Y-67170688D02*
X97818648Y-67094497D01*
X97818648Y-67094497D02*
X97856743Y-67056402D01*
X97856743Y-67056402D02*
X97932934Y-67018307D01*
X97932934Y-67018307D02*
X98085315Y-67018307D01*
X98085315Y-67018307D02*
X98161505Y-67056402D01*
X98161505Y-67056402D02*
X98199600Y-67094497D01*
X98199600Y-67094497D02*
X98237696Y-67170688D01*
X98675791Y-51854497D02*
X98942457Y-51854497D01*
X98942457Y-52273545D02*
X98942457Y-51473545D01*
X98942457Y-51473545D02*
X98561505Y-51473545D01*
X97875791Y-51473545D02*
X98256743Y-51473545D01*
X98256743Y-51473545D02*
X98294839Y-51854497D01*
X98294839Y-51854497D02*
X98256743Y-51816402D01*
X98256743Y-51816402D02*
X98180553Y-51778307D01*
X98180553Y-51778307D02*
X97990077Y-51778307D01*
X97990077Y-51778307D02*
X97913886Y-51816402D01*
X97913886Y-51816402D02*
X97875791Y-51854497D01*
X97875791Y-51854497D02*
X97837696Y-51930688D01*
X97837696Y-51930688D02*
X97837696Y-52121164D01*
X97837696Y-52121164D02*
X97875791Y-52197354D01*
X97875791Y-52197354D02*
X97913886Y-52235450D01*
X97913886Y-52235450D02*
X97990077Y-52273545D01*
X97990077Y-52273545D02*
X98180553Y-52273545D01*
X98180553Y-52273545D02*
X98256743Y-52235450D01*
X98256743Y-52235450D02*
X98294839Y-52197354D01*
X98732934Y-59474497D02*
X98618648Y-59512592D01*
X98618648Y-59512592D02*
X98580553Y-59550688D01*
X98580553Y-59550688D02*
X98542457Y-59626878D01*
X98542457Y-59626878D02*
X98542457Y-59741164D01*
X98542457Y-59741164D02*
X98580553Y-59817354D01*
X98580553Y-59817354D02*
X98618648Y-59855450D01*
X98618648Y-59855450D02*
X98694838Y-59893545D01*
X98694838Y-59893545D02*
X98999600Y-59893545D01*
X98999600Y-59893545D02*
X98999600Y-59093545D01*
X98999600Y-59093545D02*
X98732934Y-59093545D01*
X98732934Y-59093545D02*
X98656743Y-59131640D01*
X98656743Y-59131640D02*
X98618648Y-59169735D01*
X98618648Y-59169735D02*
X98580553Y-59245926D01*
X98580553Y-59245926D02*
X98580553Y-59322116D01*
X98580553Y-59322116D02*
X98618648Y-59398307D01*
X98618648Y-59398307D02*
X98656743Y-59436402D01*
X98656743Y-59436402D02*
X98732934Y-59474497D01*
X98732934Y-59474497D02*
X98999600Y-59474497D01*
X97780553Y-59893545D02*
X98237696Y-59893545D01*
X98009124Y-59893545D02*
X98009124Y-59093545D01*
X98009124Y-59093545D02*
X98085315Y-59207830D01*
X98085315Y-59207830D02*
X98161505Y-59284021D01*
X98161505Y-59284021D02*
X98237696Y-59322116D01*
X98732934Y-64554497D02*
X98618648Y-64592592D01*
X98618648Y-64592592D02*
X98580553Y-64630688D01*
X98580553Y-64630688D02*
X98542457Y-64706878D01*
X98542457Y-64706878D02*
X98542457Y-64821164D01*
X98542457Y-64821164D02*
X98580553Y-64897354D01*
X98580553Y-64897354D02*
X98618648Y-64935450D01*
X98618648Y-64935450D02*
X98694838Y-64973545D01*
X98694838Y-64973545D02*
X98999600Y-64973545D01*
X98999600Y-64973545D02*
X98999600Y-64173545D01*
X98999600Y-64173545D02*
X98732934Y-64173545D01*
X98732934Y-64173545D02*
X98656743Y-64211640D01*
X98656743Y-64211640D02*
X98618648Y-64249735D01*
X98618648Y-64249735D02*
X98580553Y-64325926D01*
X98580553Y-64325926D02*
X98580553Y-64402116D01*
X98580553Y-64402116D02*
X98618648Y-64478307D01*
X98618648Y-64478307D02*
X98656743Y-64516402D01*
X98656743Y-64516402D02*
X98732934Y-64554497D01*
X98732934Y-64554497D02*
X98999600Y-64554497D01*
X98237696Y-64249735D02*
X98199600Y-64211640D01*
X98199600Y-64211640D02*
X98123410Y-64173545D01*
X98123410Y-64173545D02*
X97932934Y-64173545D01*
X97932934Y-64173545D02*
X97856743Y-64211640D01*
X97856743Y-64211640D02*
X97818648Y-64249735D01*
X97818648Y-64249735D02*
X97780553Y-64325926D01*
X97780553Y-64325926D02*
X97780553Y-64402116D01*
X97780553Y-64402116D02*
X97818648Y-64516402D01*
X97818648Y-64516402D02*
X98275791Y-64973545D01*
X98275791Y-64973545D02*
X97780553Y-64973545D01*
X98675791Y-49314497D02*
X98942457Y-49314497D01*
X98942457Y-49733545D02*
X98942457Y-48933545D01*
X98942457Y-48933545D02*
X98561505Y-48933545D01*
X97913886Y-49200211D02*
X97913886Y-49733545D01*
X98104362Y-48895450D02*
X98294839Y-49466878D01*
X98294839Y-49466878D02*
X97799600Y-49466878D01*
X87810934Y-67094497D02*
X87696648Y-67132592D01*
X87696648Y-67132592D02*
X87658553Y-67170688D01*
X87658553Y-67170688D02*
X87620457Y-67246878D01*
X87620457Y-67246878D02*
X87620457Y-67361164D01*
X87620457Y-67361164D02*
X87658553Y-67437354D01*
X87658553Y-67437354D02*
X87696648Y-67475450D01*
X87696648Y-67475450D02*
X87772838Y-67513545D01*
X87772838Y-67513545D02*
X88077600Y-67513545D01*
X88077600Y-67513545D02*
X88077600Y-66713545D01*
X88077600Y-66713545D02*
X87810934Y-66713545D01*
X87810934Y-66713545D02*
X87734743Y-66751640D01*
X87734743Y-66751640D02*
X87696648Y-66789735D01*
X87696648Y-66789735D02*
X87658553Y-66865926D01*
X87658553Y-66865926D02*
X87658553Y-66942116D01*
X87658553Y-66942116D02*
X87696648Y-67018307D01*
X87696648Y-67018307D02*
X87734743Y-67056402D01*
X87734743Y-67056402D02*
X87810934Y-67094497D01*
X87810934Y-67094497D02*
X88077600Y-67094497D01*
X86896648Y-66713545D02*
X87277600Y-66713545D01*
X87277600Y-66713545D02*
X87315696Y-67094497D01*
X87315696Y-67094497D02*
X87277600Y-67056402D01*
X87277600Y-67056402D02*
X87201410Y-67018307D01*
X87201410Y-67018307D02*
X87010934Y-67018307D01*
X87010934Y-67018307D02*
X86934743Y-67056402D01*
X86934743Y-67056402D02*
X86896648Y-67094497D01*
X86896648Y-67094497D02*
X86858553Y-67170688D01*
X86858553Y-67170688D02*
X86858553Y-67361164D01*
X86858553Y-67361164D02*
X86896648Y-67437354D01*
X86896648Y-67437354D02*
X86934743Y-67475450D01*
X86934743Y-67475450D02*
X87010934Y-67513545D01*
X87010934Y-67513545D02*
X87201410Y-67513545D01*
X87201410Y-67513545D02*
X87277600Y-67475450D01*
X87277600Y-67475450D02*
X87315696Y-67437354D01*
X91566729Y-38773545D02*
X91109586Y-38773545D01*
X91338158Y-39573545D02*
X91338158Y-38773545D01*
X90919110Y-38773545D02*
X90385776Y-39573545D01*
X90385776Y-38773545D02*
X90919110Y-39573545D01*
X89928633Y-38773545D02*
X89852443Y-38773545D01*
X89852443Y-38773545D02*
X89776252Y-38811640D01*
X89776252Y-38811640D02*
X89738157Y-38849735D01*
X89738157Y-38849735D02*
X89700062Y-38925926D01*
X89700062Y-38925926D02*
X89661967Y-39078307D01*
X89661967Y-39078307D02*
X89661967Y-39268783D01*
X89661967Y-39268783D02*
X89700062Y-39421164D01*
X89700062Y-39421164D02*
X89738157Y-39497354D01*
X89738157Y-39497354D02*
X89776252Y-39535450D01*
X89776252Y-39535450D02*
X89852443Y-39573545D01*
X89852443Y-39573545D02*
X89928633Y-39573545D01*
X89928633Y-39573545D02*
X90004824Y-39535450D01*
X90004824Y-39535450D02*
X90042919Y-39497354D01*
X90042919Y-39497354D02*
X90081014Y-39421164D01*
X90081014Y-39421164D02*
X90119110Y-39268783D01*
X90119110Y-39268783D02*
X90119110Y-39078307D01*
X90119110Y-39078307D02*
X90081014Y-38925926D01*
X90081014Y-38925926D02*
X90042919Y-38849735D01*
X90042919Y-38849735D02*
X90004824Y-38811640D01*
X90004824Y-38811640D02*
X89928633Y-38773545D01*
X88747681Y-38735450D02*
X89433395Y-39764021D01*
X88481014Y-39573545D02*
X88481014Y-38773545D01*
X88481014Y-38773545D02*
X88290538Y-38773545D01*
X88290538Y-38773545D02*
X88176252Y-38811640D01*
X88176252Y-38811640D02*
X88100062Y-38887830D01*
X88100062Y-38887830D02*
X88061967Y-38964021D01*
X88061967Y-38964021D02*
X88023871Y-39116402D01*
X88023871Y-39116402D02*
X88023871Y-39230688D01*
X88023871Y-39230688D02*
X88061967Y-39383069D01*
X88061967Y-39383069D02*
X88100062Y-39459259D01*
X88100062Y-39459259D02*
X88176252Y-39535450D01*
X88176252Y-39535450D02*
X88290538Y-39573545D01*
X88290538Y-39573545D02*
X88481014Y-39573545D01*
X87757205Y-38773545D02*
X87261967Y-38773545D01*
X87261967Y-38773545D02*
X87528633Y-39078307D01*
X87528633Y-39078307D02*
X87414348Y-39078307D01*
X87414348Y-39078307D02*
X87338157Y-39116402D01*
X87338157Y-39116402D02*
X87300062Y-39154497D01*
X87300062Y-39154497D02*
X87261967Y-39230688D01*
X87261967Y-39230688D02*
X87261967Y-39421164D01*
X87261967Y-39421164D02*
X87300062Y-39497354D01*
X87300062Y-39497354D02*
X87338157Y-39535450D01*
X87338157Y-39535450D02*
X87414348Y-39573545D01*
X87414348Y-39573545D02*
X87642919Y-39573545D01*
X87642919Y-39573545D02*
X87719110Y-39535450D01*
X87719110Y-39535450D02*
X87757205Y-39497354D01*
X88039505Y-62014497D02*
X87772839Y-62014497D01*
X87658553Y-62433545D02*
X88039505Y-62433545D01*
X88039505Y-62433545D02*
X88039505Y-61633545D01*
X88039505Y-61633545D02*
X87658553Y-61633545D01*
X86972838Y-61633545D02*
X87125219Y-61633545D01*
X87125219Y-61633545D02*
X87201410Y-61671640D01*
X87201410Y-61671640D02*
X87239505Y-61709735D01*
X87239505Y-61709735D02*
X87315695Y-61824021D01*
X87315695Y-61824021D02*
X87353791Y-61976402D01*
X87353791Y-61976402D02*
X87353791Y-62281164D01*
X87353791Y-62281164D02*
X87315695Y-62357354D01*
X87315695Y-62357354D02*
X87277600Y-62395450D01*
X87277600Y-62395450D02*
X87201410Y-62433545D01*
X87201410Y-62433545D02*
X87049029Y-62433545D01*
X87049029Y-62433545D02*
X86972838Y-62395450D01*
X86972838Y-62395450D02*
X86934743Y-62357354D01*
X86934743Y-62357354D02*
X86896648Y-62281164D01*
X86896648Y-62281164D02*
X86896648Y-62090688D01*
X86896648Y-62090688D02*
X86934743Y-62014497D01*
X86934743Y-62014497D02*
X86972838Y-61976402D01*
X86972838Y-61976402D02*
X87049029Y-61938307D01*
X87049029Y-61938307D02*
X87201410Y-61938307D01*
X87201410Y-61938307D02*
X87277600Y-61976402D01*
X87277600Y-61976402D02*
X87315695Y-62014497D01*
X87315695Y-62014497D02*
X87353791Y-62090688D01*
X88077600Y-42113545D02*
X88077600Y-41313545D01*
X88077600Y-41313545D02*
X87887124Y-41313545D01*
X87887124Y-41313545D02*
X87772838Y-41351640D01*
X87772838Y-41351640D02*
X87696648Y-41427830D01*
X87696648Y-41427830D02*
X87658553Y-41504021D01*
X87658553Y-41504021D02*
X87620457Y-41656402D01*
X87620457Y-41656402D02*
X87620457Y-41770688D01*
X87620457Y-41770688D02*
X87658553Y-41923069D01*
X87658553Y-41923069D02*
X87696648Y-41999259D01*
X87696648Y-41999259D02*
X87772838Y-42075450D01*
X87772838Y-42075450D02*
X87887124Y-42113545D01*
X87887124Y-42113545D02*
X88077600Y-42113545D01*
X87315696Y-41389735D02*
X87277600Y-41351640D01*
X87277600Y-41351640D02*
X87201410Y-41313545D01*
X87201410Y-41313545D02*
X87010934Y-41313545D01*
X87010934Y-41313545D02*
X86934743Y-41351640D01*
X86934743Y-41351640D02*
X86896648Y-41389735D01*
X86896648Y-41389735D02*
X86858553Y-41465926D01*
X86858553Y-41465926D02*
X86858553Y-41542116D01*
X86858553Y-41542116D02*
X86896648Y-41656402D01*
X86896648Y-41656402D02*
X87353791Y-42113545D01*
X87353791Y-42113545D02*
X86858553Y-42113545D01*
X88077600Y-52273545D02*
X88077600Y-51473545D01*
X88077600Y-51473545D02*
X87887124Y-51473545D01*
X87887124Y-51473545D02*
X87772838Y-51511640D01*
X87772838Y-51511640D02*
X87696648Y-51587830D01*
X87696648Y-51587830D02*
X87658553Y-51664021D01*
X87658553Y-51664021D02*
X87620457Y-51816402D01*
X87620457Y-51816402D02*
X87620457Y-51930688D01*
X87620457Y-51930688D02*
X87658553Y-52083069D01*
X87658553Y-52083069D02*
X87696648Y-52159259D01*
X87696648Y-52159259D02*
X87772838Y-52235450D01*
X87772838Y-52235450D02*
X87887124Y-52273545D01*
X87887124Y-52273545D02*
X88077600Y-52273545D01*
X87125219Y-51473545D02*
X87049029Y-51473545D01*
X87049029Y-51473545D02*
X86972838Y-51511640D01*
X86972838Y-51511640D02*
X86934743Y-51549735D01*
X86934743Y-51549735D02*
X86896648Y-51625926D01*
X86896648Y-51625926D02*
X86858553Y-51778307D01*
X86858553Y-51778307D02*
X86858553Y-51968783D01*
X86858553Y-51968783D02*
X86896648Y-52121164D01*
X86896648Y-52121164D02*
X86934743Y-52197354D01*
X86934743Y-52197354D02*
X86972838Y-52235450D01*
X86972838Y-52235450D02*
X87049029Y-52273545D01*
X87049029Y-52273545D02*
X87125219Y-52273545D01*
X87125219Y-52273545D02*
X87201410Y-52235450D01*
X87201410Y-52235450D02*
X87239505Y-52197354D01*
X87239505Y-52197354D02*
X87277600Y-52121164D01*
X87277600Y-52121164D02*
X87315696Y-51968783D01*
X87315696Y-51968783D02*
X87315696Y-51778307D01*
X87315696Y-51778307D02*
X87277600Y-51625926D01*
X87277600Y-51625926D02*
X87239505Y-51549735D01*
X87239505Y-51549735D02*
X87201410Y-51511640D01*
X87201410Y-51511640D02*
X87125219Y-51473545D01*
X88096648Y-43891640D02*
X88172838Y-43853545D01*
X88172838Y-43853545D02*
X88287124Y-43853545D01*
X88287124Y-43853545D02*
X88401410Y-43891640D01*
X88401410Y-43891640D02*
X88477600Y-43967830D01*
X88477600Y-43967830D02*
X88515695Y-44044021D01*
X88515695Y-44044021D02*
X88553791Y-44196402D01*
X88553791Y-44196402D02*
X88553791Y-44310688D01*
X88553791Y-44310688D02*
X88515695Y-44463069D01*
X88515695Y-44463069D02*
X88477600Y-44539259D01*
X88477600Y-44539259D02*
X88401410Y-44615450D01*
X88401410Y-44615450D02*
X88287124Y-44653545D01*
X88287124Y-44653545D02*
X88210933Y-44653545D01*
X88210933Y-44653545D02*
X88096648Y-44615450D01*
X88096648Y-44615450D02*
X88058552Y-44577354D01*
X88058552Y-44577354D02*
X88058552Y-44310688D01*
X88058552Y-44310688D02*
X88210933Y-44310688D01*
X87715695Y-44653545D02*
X87715695Y-43853545D01*
X87715695Y-43853545D02*
X87258552Y-44653545D01*
X87258552Y-44653545D02*
X87258552Y-43853545D01*
X86877600Y-44653545D02*
X86877600Y-43853545D01*
X86877600Y-43853545D02*
X86687124Y-43853545D01*
X86687124Y-43853545D02*
X86572838Y-43891640D01*
X86572838Y-43891640D02*
X86496648Y-43967830D01*
X86496648Y-43967830D02*
X86458553Y-44044021D01*
X86458553Y-44044021D02*
X86420457Y-44196402D01*
X86420457Y-44196402D02*
X86420457Y-44310688D01*
X86420457Y-44310688D02*
X86458553Y-44463069D01*
X86458553Y-44463069D02*
X86496648Y-44539259D01*
X86496648Y-44539259D02*
X86572838Y-44615450D01*
X86572838Y-44615450D02*
X86687124Y-44653545D01*
X86687124Y-44653545D02*
X86877600Y-44653545D01*
X88077600Y-54813545D02*
X88077600Y-54013545D01*
X88077600Y-54013545D02*
X87887124Y-54013545D01*
X87887124Y-54013545D02*
X87772838Y-54051640D01*
X87772838Y-54051640D02*
X87696648Y-54127830D01*
X87696648Y-54127830D02*
X87658553Y-54204021D01*
X87658553Y-54204021D02*
X87620457Y-54356402D01*
X87620457Y-54356402D02*
X87620457Y-54470688D01*
X87620457Y-54470688D02*
X87658553Y-54623069D01*
X87658553Y-54623069D02*
X87696648Y-54699259D01*
X87696648Y-54699259D02*
X87772838Y-54775450D01*
X87772838Y-54775450D02*
X87887124Y-54813545D01*
X87887124Y-54813545D02*
X88077600Y-54813545D01*
X86934743Y-54280211D02*
X86934743Y-54813545D01*
X87125219Y-53975450D02*
X87315696Y-54546878D01*
X87315696Y-54546878D02*
X86820457Y-54546878D01*
X98521458Y-44595450D02*
X98407172Y-44633545D01*
X98407172Y-44633545D02*
X98216696Y-44633545D01*
X98216696Y-44633545D02*
X98140505Y-44595450D01*
X98140505Y-44595450D02*
X98102410Y-44557354D01*
X98102410Y-44557354D02*
X98064315Y-44481164D01*
X98064315Y-44481164D02*
X98064315Y-44404973D01*
X98064315Y-44404973D02*
X98102410Y-44328783D01*
X98102410Y-44328783D02*
X98140505Y-44290688D01*
X98140505Y-44290688D02*
X98216696Y-44252592D01*
X98216696Y-44252592D02*
X98369077Y-44214497D01*
X98369077Y-44214497D02*
X98445267Y-44176402D01*
X98445267Y-44176402D02*
X98483362Y-44138307D01*
X98483362Y-44138307D02*
X98521458Y-44062116D01*
X98521458Y-44062116D02*
X98521458Y-43985926D01*
X98521458Y-43985926D02*
X98483362Y-43909735D01*
X98483362Y-43909735D02*
X98445267Y-43871640D01*
X98445267Y-43871640D02*
X98369077Y-43833545D01*
X98369077Y-43833545D02*
X98178600Y-43833545D01*
X98178600Y-43833545D02*
X98064315Y-43871640D01*
X97835743Y-43833545D02*
X97378600Y-43833545D01*
X97607172Y-44633545D02*
X97607172Y-43833545D01*
X99475791Y-46393545D02*
X99209124Y-47193545D01*
X99209124Y-47193545D02*
X98942458Y-46393545D01*
X98218648Y-47117354D02*
X98256744Y-47155450D01*
X98256744Y-47155450D02*
X98371029Y-47193545D01*
X98371029Y-47193545D02*
X98447220Y-47193545D01*
X98447220Y-47193545D02*
X98561506Y-47155450D01*
X98561506Y-47155450D02*
X98637696Y-47079259D01*
X98637696Y-47079259D02*
X98675791Y-47003069D01*
X98675791Y-47003069D02*
X98713887Y-46850688D01*
X98713887Y-46850688D02*
X98713887Y-46736402D01*
X98713887Y-46736402D02*
X98675791Y-46584021D01*
X98675791Y-46584021D02*
X98637696Y-46507830D01*
X98637696Y-46507830D02*
X98561506Y-46431640D01*
X98561506Y-46431640D02*
X98447220Y-46393545D01*
X98447220Y-46393545D02*
X98371029Y-46393545D01*
X98371029Y-46393545D02*
X98256744Y-46431640D01*
X98256744Y-46431640D02*
X98218648Y-46469735D01*
X97418648Y-47117354D02*
X97456744Y-47155450D01*
X97456744Y-47155450D02*
X97571029Y-47193545D01*
X97571029Y-47193545D02*
X97647220Y-47193545D01*
X97647220Y-47193545D02*
X97761506Y-47155450D01*
X97761506Y-47155450D02*
X97837696Y-47079259D01*
X97837696Y-47079259D02*
X97875791Y-47003069D01*
X97875791Y-47003069D02*
X97913887Y-46850688D01*
X97913887Y-46850688D02*
X97913887Y-46736402D01*
X97913887Y-46736402D02*
X97875791Y-46584021D01*
X97875791Y-46584021D02*
X97837696Y-46507830D01*
X97837696Y-46507830D02*
X97761506Y-46431640D01*
X97761506Y-46431640D02*
X97647220Y-46393545D01*
X97647220Y-46393545D02*
X97571029Y-46393545D01*
X97571029Y-46393545D02*
X97456744Y-46431640D01*
X97456744Y-46431640D02*
X97418648Y-46469735D01*
X98732934Y-62014497D02*
X98618648Y-62052592D01*
X98618648Y-62052592D02*
X98580553Y-62090688D01*
X98580553Y-62090688D02*
X98542457Y-62166878D01*
X98542457Y-62166878D02*
X98542457Y-62281164D01*
X98542457Y-62281164D02*
X98580553Y-62357354D01*
X98580553Y-62357354D02*
X98618648Y-62395450D01*
X98618648Y-62395450D02*
X98694838Y-62433545D01*
X98694838Y-62433545D02*
X98999600Y-62433545D01*
X98999600Y-62433545D02*
X98999600Y-61633545D01*
X98999600Y-61633545D02*
X98732934Y-61633545D01*
X98732934Y-61633545D02*
X98656743Y-61671640D01*
X98656743Y-61671640D02*
X98618648Y-61709735D01*
X98618648Y-61709735D02*
X98580553Y-61785926D01*
X98580553Y-61785926D02*
X98580553Y-61862116D01*
X98580553Y-61862116D02*
X98618648Y-61938307D01*
X98618648Y-61938307D02*
X98656743Y-61976402D01*
X98656743Y-61976402D02*
X98732934Y-62014497D01*
X98732934Y-62014497D02*
X98999600Y-62014497D01*
X98275791Y-61633545D02*
X97780553Y-61633545D01*
X97780553Y-61633545D02*
X98047219Y-61938307D01*
X98047219Y-61938307D02*
X97932934Y-61938307D01*
X97932934Y-61938307D02*
X97856743Y-61976402D01*
X97856743Y-61976402D02*
X97818648Y-62014497D01*
X97818648Y-62014497D02*
X97780553Y-62090688D01*
X97780553Y-62090688D02*
X97780553Y-62281164D01*
X97780553Y-62281164D02*
X97818648Y-62357354D01*
X97818648Y-62357354D02*
X97856743Y-62395450D01*
X97856743Y-62395450D02*
X97932934Y-62433545D01*
X97932934Y-62433545D02*
X98161505Y-62433545D01*
X98161505Y-62433545D02*
X98237696Y-62395450D01*
X98237696Y-62395450D02*
X98275791Y-62357354D01*
X88077600Y-49733545D02*
X88077600Y-48933545D01*
X88077600Y-48933545D02*
X87887124Y-48933545D01*
X87887124Y-48933545D02*
X87772838Y-48971640D01*
X87772838Y-48971640D02*
X87696648Y-49047830D01*
X87696648Y-49047830D02*
X87658553Y-49124021D01*
X87658553Y-49124021D02*
X87620457Y-49276402D01*
X87620457Y-49276402D02*
X87620457Y-49390688D01*
X87620457Y-49390688D02*
X87658553Y-49543069D01*
X87658553Y-49543069D02*
X87696648Y-49619259D01*
X87696648Y-49619259D02*
X87772838Y-49695450D01*
X87772838Y-49695450D02*
X87887124Y-49733545D01*
X87887124Y-49733545D02*
X88077600Y-49733545D01*
X86858553Y-49733545D02*
X87315696Y-49733545D01*
X87087124Y-49733545D02*
X87087124Y-48933545D01*
X87087124Y-48933545D02*
X87163315Y-49047830D01*
X87163315Y-49047830D02*
X87239505Y-49124021D01*
X87239505Y-49124021D02*
X87315696Y-49162116D01*
X98675791Y-54394497D02*
X98942457Y-54394497D01*
X98942457Y-54813545D02*
X98942457Y-54013545D01*
X98942457Y-54013545D02*
X98561505Y-54013545D01*
X97913886Y-54013545D02*
X98066267Y-54013545D01*
X98066267Y-54013545D02*
X98142458Y-54051640D01*
X98142458Y-54051640D02*
X98180553Y-54089735D01*
X98180553Y-54089735D02*
X98256743Y-54204021D01*
X98256743Y-54204021D02*
X98294839Y-54356402D01*
X98294839Y-54356402D02*
X98294839Y-54661164D01*
X98294839Y-54661164D02*
X98256743Y-54737354D01*
X98256743Y-54737354D02*
X98218648Y-54775450D01*
X98218648Y-54775450D02*
X98142458Y-54813545D01*
X98142458Y-54813545D02*
X97990077Y-54813545D01*
X97990077Y-54813545D02*
X97913886Y-54775450D01*
X97913886Y-54775450D02*
X97875791Y-54737354D01*
X97875791Y-54737354D02*
X97837696Y-54661164D01*
X97837696Y-54661164D02*
X97837696Y-54470688D01*
X97837696Y-54470688D02*
X97875791Y-54394497D01*
X97875791Y-54394497D02*
X97913886Y-54356402D01*
X97913886Y-54356402D02*
X97990077Y-54318307D01*
X97990077Y-54318307D02*
X98142458Y-54318307D01*
X98142458Y-54318307D02*
X98218648Y-54356402D01*
X98218648Y-54356402D02*
X98256743Y-54394497D01*
X98256743Y-54394497D02*
X98294839Y-54470688D01*
X116954194Y-100226964D02*
X115954194Y-100226964D01*
X115954194Y-100226964D02*
X115954194Y-100465059D01*
X115954194Y-100465059D02*
X116001813Y-100607916D01*
X116001813Y-100607916D02*
X116097051Y-100703154D01*
X116097051Y-100703154D02*
X116192289Y-100750773D01*
X116192289Y-100750773D02*
X116382765Y-100798392D01*
X116382765Y-100798392D02*
X116525622Y-100798392D01*
X116525622Y-100798392D02*
X116716098Y-100750773D01*
X116716098Y-100750773D02*
X116811336Y-100703154D01*
X116811336Y-100703154D02*
X116906575Y-100607916D01*
X116906575Y-100607916D02*
X116954194Y-100465059D01*
X116954194Y-100465059D02*
X116954194Y-100226964D01*
X116287527Y-101655535D02*
X116954194Y-101655535D01*
X115906575Y-101417440D02*
X116620860Y-101179345D01*
X116620860Y-101179345D02*
X116620860Y-101798392D01*
X116287527Y-102607916D02*
X116954194Y-102607916D01*
X115906575Y-102369821D02*
X116620860Y-102131726D01*
X116620860Y-102131726D02*
X116620860Y-102750773D01*
X116634194Y-104989345D02*
X115634194Y-104989345D01*
X116634194Y-105560773D02*
X116062765Y-105132202D01*
X115634194Y-105560773D02*
X116205622Y-104989345D01*
X145529194Y-33551964D02*
X144529194Y-33551964D01*
X144529194Y-33551964D02*
X144529194Y-33790059D01*
X144529194Y-33790059D02*
X144576813Y-33932916D01*
X144576813Y-33932916D02*
X144672051Y-34028154D01*
X144672051Y-34028154D02*
X144767289Y-34075773D01*
X144767289Y-34075773D02*
X144957765Y-34123392D01*
X144957765Y-34123392D02*
X145100622Y-34123392D01*
X145100622Y-34123392D02*
X145291098Y-34075773D01*
X145291098Y-34075773D02*
X145386336Y-34028154D01*
X145386336Y-34028154D02*
X145481575Y-33932916D01*
X145481575Y-33932916D02*
X145529194Y-33790059D01*
X145529194Y-33790059D02*
X145529194Y-33551964D01*
X144624432Y-34504345D02*
X144576813Y-34551964D01*
X144576813Y-34551964D02*
X144529194Y-34647202D01*
X144529194Y-34647202D02*
X144529194Y-34885297D01*
X144529194Y-34885297D02*
X144576813Y-34980535D01*
X144576813Y-34980535D02*
X144624432Y-35028154D01*
X144624432Y-35028154D02*
X144719670Y-35075773D01*
X144719670Y-35075773D02*
X144814908Y-35075773D01*
X144814908Y-35075773D02*
X144957765Y-35028154D01*
X144957765Y-35028154D02*
X145529194Y-34456726D01*
X145529194Y-34456726D02*
X145529194Y-35075773D01*
X144529194Y-35932916D02*
X144529194Y-35742440D01*
X144529194Y-35742440D02*
X144576813Y-35647202D01*
X144576813Y-35647202D02*
X144624432Y-35599583D01*
X144624432Y-35599583D02*
X144767289Y-35504345D01*
X144767289Y-35504345D02*
X144957765Y-35456726D01*
X144957765Y-35456726D02*
X145338717Y-35456726D01*
X145338717Y-35456726D02*
X145433955Y-35504345D01*
X145433955Y-35504345D02*
X145481575Y-35551964D01*
X145481575Y-35551964D02*
X145529194Y-35647202D01*
X145529194Y-35647202D02*
X145529194Y-35837678D01*
X145529194Y-35837678D02*
X145481575Y-35932916D01*
X145481575Y-35932916D02*
X145433955Y-35980535D01*
X145433955Y-35980535D02*
X145338717Y-36028154D01*
X145338717Y-36028154D02*
X145100622Y-36028154D01*
X145100622Y-36028154D02*
X145005384Y-35980535D01*
X145005384Y-35980535D02*
X144957765Y-35932916D01*
X144957765Y-35932916D02*
X144910146Y-35837678D01*
X144910146Y-35837678D02*
X144910146Y-35647202D01*
X144910146Y-35647202D02*
X144957765Y-35551964D01*
X144957765Y-35551964D02*
X145005384Y-35504345D01*
X145005384Y-35504345D02*
X145100622Y-35456726D01*
X145209194Y-38314345D02*
X144209194Y-38314345D01*
X145209194Y-38885773D02*
X144637765Y-38457202D01*
X144209194Y-38885773D02*
X144780622Y-38314345D01*
X183629194Y-43076964D02*
X182629194Y-43076964D01*
X182629194Y-43076964D02*
X182629194Y-43315059D01*
X182629194Y-43315059D02*
X182676813Y-43457916D01*
X182676813Y-43457916D02*
X182772051Y-43553154D01*
X182772051Y-43553154D02*
X182867289Y-43600773D01*
X182867289Y-43600773D02*
X183057765Y-43648392D01*
X183057765Y-43648392D02*
X183200622Y-43648392D01*
X183200622Y-43648392D02*
X183391098Y-43600773D01*
X183391098Y-43600773D02*
X183486336Y-43553154D01*
X183486336Y-43553154D02*
X183581575Y-43457916D01*
X183581575Y-43457916D02*
X183629194Y-43315059D01*
X183629194Y-43315059D02*
X183629194Y-43076964D01*
X182724432Y-44029345D02*
X182676813Y-44076964D01*
X182676813Y-44076964D02*
X182629194Y-44172202D01*
X182629194Y-44172202D02*
X182629194Y-44410297D01*
X182629194Y-44410297D02*
X182676813Y-44505535D01*
X182676813Y-44505535D02*
X182724432Y-44553154D01*
X182724432Y-44553154D02*
X182819670Y-44600773D01*
X182819670Y-44600773D02*
X182914908Y-44600773D01*
X182914908Y-44600773D02*
X183057765Y-44553154D01*
X183057765Y-44553154D02*
X183629194Y-43981726D01*
X183629194Y-43981726D02*
X183629194Y-44600773D01*
X183057765Y-45172202D02*
X183010146Y-45076964D01*
X183010146Y-45076964D02*
X182962527Y-45029345D01*
X182962527Y-45029345D02*
X182867289Y-44981726D01*
X182867289Y-44981726D02*
X182819670Y-44981726D01*
X182819670Y-44981726D02*
X182724432Y-45029345D01*
X182724432Y-45029345D02*
X182676813Y-45076964D01*
X182676813Y-45076964D02*
X182629194Y-45172202D01*
X182629194Y-45172202D02*
X182629194Y-45362678D01*
X182629194Y-45362678D02*
X182676813Y-45457916D01*
X182676813Y-45457916D02*
X182724432Y-45505535D01*
X182724432Y-45505535D02*
X182819670Y-45553154D01*
X182819670Y-45553154D02*
X182867289Y-45553154D01*
X182867289Y-45553154D02*
X182962527Y-45505535D01*
X182962527Y-45505535D02*
X183010146Y-45457916D01*
X183010146Y-45457916D02*
X183057765Y-45362678D01*
X183057765Y-45362678D02*
X183057765Y-45172202D01*
X183057765Y-45172202D02*
X183105384Y-45076964D01*
X183105384Y-45076964D02*
X183153003Y-45029345D01*
X183153003Y-45029345D02*
X183248241Y-44981726D01*
X183248241Y-44981726D02*
X183438717Y-44981726D01*
X183438717Y-44981726D02*
X183533955Y-45029345D01*
X183533955Y-45029345D02*
X183581575Y-45076964D01*
X183581575Y-45076964D02*
X183629194Y-45172202D01*
X183629194Y-45172202D02*
X183629194Y-45362678D01*
X183629194Y-45362678D02*
X183581575Y-45457916D01*
X183581575Y-45457916D02*
X183533955Y-45505535D01*
X183533955Y-45505535D02*
X183438717Y-45553154D01*
X183438717Y-45553154D02*
X183248241Y-45553154D01*
X183248241Y-45553154D02*
X183153003Y-45505535D01*
X183153003Y-45505535D02*
X183105384Y-45457916D01*
X183105384Y-45457916D02*
X183057765Y-45362678D01*
X183309194Y-47839345D02*
X182309194Y-47839345D01*
X183309194Y-48410773D02*
X182737765Y-47982202D01*
X182309194Y-48410773D02*
X182880622Y-47839345D01*
X126479194Y-38314464D02*
X125479194Y-38314464D01*
X125479194Y-38314464D02*
X125479194Y-38552559D01*
X125479194Y-38552559D02*
X125526813Y-38695416D01*
X125526813Y-38695416D02*
X125622051Y-38790654D01*
X125622051Y-38790654D02*
X125717289Y-38838273D01*
X125717289Y-38838273D02*
X125907765Y-38885892D01*
X125907765Y-38885892D02*
X126050622Y-38885892D01*
X126050622Y-38885892D02*
X126241098Y-38838273D01*
X126241098Y-38838273D02*
X126336336Y-38790654D01*
X126336336Y-38790654D02*
X126431575Y-38695416D01*
X126431575Y-38695416D02*
X126479194Y-38552559D01*
X126479194Y-38552559D02*
X126479194Y-38314464D01*
X125574432Y-39266845D02*
X125526813Y-39314464D01*
X125526813Y-39314464D02*
X125479194Y-39409702D01*
X125479194Y-39409702D02*
X125479194Y-39647797D01*
X125479194Y-39647797D02*
X125526813Y-39743035D01*
X125526813Y-39743035D02*
X125574432Y-39790654D01*
X125574432Y-39790654D02*
X125669670Y-39838273D01*
X125669670Y-39838273D02*
X125764908Y-39838273D01*
X125764908Y-39838273D02*
X125907765Y-39790654D01*
X125907765Y-39790654D02*
X126479194Y-39219226D01*
X126479194Y-39219226D02*
X126479194Y-39838273D01*
X125479194Y-40743035D02*
X125479194Y-40266845D01*
X125479194Y-40266845D02*
X125955384Y-40219226D01*
X125955384Y-40219226D02*
X125907765Y-40266845D01*
X125907765Y-40266845D02*
X125860146Y-40362083D01*
X125860146Y-40362083D02*
X125860146Y-40600178D01*
X125860146Y-40600178D02*
X125907765Y-40695416D01*
X125907765Y-40695416D02*
X125955384Y-40743035D01*
X125955384Y-40743035D02*
X126050622Y-40790654D01*
X126050622Y-40790654D02*
X126288717Y-40790654D01*
X126288717Y-40790654D02*
X126383955Y-40743035D01*
X126383955Y-40743035D02*
X126431575Y-40695416D01*
X126431575Y-40695416D02*
X126479194Y-40600178D01*
X126479194Y-40600178D02*
X126479194Y-40362083D01*
X126479194Y-40362083D02*
X126431575Y-40266845D01*
X126431575Y-40266845D02*
X126383955Y-40219226D01*
X126159194Y-43076845D02*
X125159194Y-43076845D01*
X126159194Y-43648273D02*
X125587765Y-43219702D01*
X125159194Y-43648273D02*
X125730622Y-43076845D01*
X202679194Y-62126964D02*
X201679194Y-62126964D01*
X201679194Y-62126964D02*
X201679194Y-62365059D01*
X201679194Y-62365059D02*
X201726813Y-62507916D01*
X201726813Y-62507916D02*
X201822051Y-62603154D01*
X201822051Y-62603154D02*
X201917289Y-62650773D01*
X201917289Y-62650773D02*
X202107765Y-62698392D01*
X202107765Y-62698392D02*
X202250622Y-62698392D01*
X202250622Y-62698392D02*
X202441098Y-62650773D01*
X202441098Y-62650773D02*
X202536336Y-62603154D01*
X202536336Y-62603154D02*
X202631575Y-62507916D01*
X202631575Y-62507916D02*
X202679194Y-62365059D01*
X202679194Y-62365059D02*
X202679194Y-62126964D01*
X201679194Y-63031726D02*
X201679194Y-63650773D01*
X201679194Y-63650773D02*
X202060146Y-63317440D01*
X202060146Y-63317440D02*
X202060146Y-63460297D01*
X202060146Y-63460297D02*
X202107765Y-63555535D01*
X202107765Y-63555535D02*
X202155384Y-63603154D01*
X202155384Y-63603154D02*
X202250622Y-63650773D01*
X202250622Y-63650773D02*
X202488717Y-63650773D01*
X202488717Y-63650773D02*
X202583955Y-63603154D01*
X202583955Y-63603154D02*
X202631575Y-63555535D01*
X202631575Y-63555535D02*
X202679194Y-63460297D01*
X202679194Y-63460297D02*
X202679194Y-63174583D01*
X202679194Y-63174583D02*
X202631575Y-63079345D01*
X202631575Y-63079345D02*
X202583955Y-63031726D01*
X201679194Y-64555535D02*
X201679194Y-64079345D01*
X201679194Y-64079345D02*
X202155384Y-64031726D01*
X202155384Y-64031726D02*
X202107765Y-64079345D01*
X202107765Y-64079345D02*
X202060146Y-64174583D01*
X202060146Y-64174583D02*
X202060146Y-64412678D01*
X202060146Y-64412678D02*
X202107765Y-64507916D01*
X202107765Y-64507916D02*
X202155384Y-64555535D01*
X202155384Y-64555535D02*
X202250622Y-64603154D01*
X202250622Y-64603154D02*
X202488717Y-64603154D01*
X202488717Y-64603154D02*
X202583955Y-64555535D01*
X202583955Y-64555535D02*
X202631575Y-64507916D01*
X202631575Y-64507916D02*
X202679194Y-64412678D01*
X202679194Y-64412678D02*
X202679194Y-64174583D01*
X202679194Y-64174583D02*
X202631575Y-64079345D01*
X202631575Y-64079345D02*
X202583955Y-64031726D01*
X202359194Y-66889345D02*
X201359194Y-66889345D01*
X202359194Y-67460773D02*
X201787765Y-67032202D01*
X201359194Y-67460773D02*
X201930622Y-66889345D01*
X164579194Y-38314464D02*
X163579194Y-38314464D01*
X163579194Y-38314464D02*
X163579194Y-38552559D01*
X163579194Y-38552559D02*
X163626813Y-38695416D01*
X163626813Y-38695416D02*
X163722051Y-38790654D01*
X163722051Y-38790654D02*
X163817289Y-38838273D01*
X163817289Y-38838273D02*
X164007765Y-38885892D01*
X164007765Y-38885892D02*
X164150622Y-38885892D01*
X164150622Y-38885892D02*
X164341098Y-38838273D01*
X164341098Y-38838273D02*
X164436336Y-38790654D01*
X164436336Y-38790654D02*
X164531575Y-38695416D01*
X164531575Y-38695416D02*
X164579194Y-38552559D01*
X164579194Y-38552559D02*
X164579194Y-38314464D01*
X163674432Y-39266845D02*
X163626813Y-39314464D01*
X163626813Y-39314464D02*
X163579194Y-39409702D01*
X163579194Y-39409702D02*
X163579194Y-39647797D01*
X163579194Y-39647797D02*
X163626813Y-39743035D01*
X163626813Y-39743035D02*
X163674432Y-39790654D01*
X163674432Y-39790654D02*
X163769670Y-39838273D01*
X163769670Y-39838273D02*
X163864908Y-39838273D01*
X163864908Y-39838273D02*
X164007765Y-39790654D01*
X164007765Y-39790654D02*
X164579194Y-39219226D01*
X164579194Y-39219226D02*
X164579194Y-39838273D01*
X163579194Y-40171607D02*
X163579194Y-40838273D01*
X163579194Y-40838273D02*
X164579194Y-40409702D01*
X164259194Y-43076845D02*
X163259194Y-43076845D01*
X164259194Y-43648273D02*
X163687765Y-43219702D01*
X163259194Y-43648273D02*
X163830622Y-43076845D01*
X183629194Y-62126964D02*
X182629194Y-62126964D01*
X182629194Y-62126964D02*
X182629194Y-62365059D01*
X182629194Y-62365059D02*
X182676813Y-62507916D01*
X182676813Y-62507916D02*
X182772051Y-62603154D01*
X182772051Y-62603154D02*
X182867289Y-62650773D01*
X182867289Y-62650773D02*
X183057765Y-62698392D01*
X183057765Y-62698392D02*
X183200622Y-62698392D01*
X183200622Y-62698392D02*
X183391098Y-62650773D01*
X183391098Y-62650773D02*
X183486336Y-62603154D01*
X183486336Y-62603154D02*
X183581575Y-62507916D01*
X183581575Y-62507916D02*
X183629194Y-62365059D01*
X183629194Y-62365059D02*
X183629194Y-62126964D01*
X182629194Y-63031726D02*
X182629194Y-63650773D01*
X182629194Y-63650773D02*
X183010146Y-63317440D01*
X183010146Y-63317440D02*
X183010146Y-63460297D01*
X183010146Y-63460297D02*
X183057765Y-63555535D01*
X183057765Y-63555535D02*
X183105384Y-63603154D01*
X183105384Y-63603154D02*
X183200622Y-63650773D01*
X183200622Y-63650773D02*
X183438717Y-63650773D01*
X183438717Y-63650773D02*
X183533955Y-63603154D01*
X183533955Y-63603154D02*
X183581575Y-63555535D01*
X183581575Y-63555535D02*
X183629194Y-63460297D01*
X183629194Y-63460297D02*
X183629194Y-63174583D01*
X183629194Y-63174583D02*
X183581575Y-63079345D01*
X183581575Y-63079345D02*
X183533955Y-63031726D01*
X182962527Y-64507916D02*
X183629194Y-64507916D01*
X182581575Y-64269821D02*
X183295860Y-64031726D01*
X183295860Y-64031726D02*
X183295860Y-64650773D01*
X183309194Y-66889345D02*
X182309194Y-66889345D01*
X183309194Y-67460773D02*
X182737765Y-67032202D01*
X182309194Y-67460773D02*
X182880622Y-66889345D01*
X136004194Y-95464464D02*
X135004194Y-95464464D01*
X135004194Y-95464464D02*
X135004194Y-95702559D01*
X135004194Y-95702559D02*
X135051813Y-95845416D01*
X135051813Y-95845416D02*
X135147051Y-95940654D01*
X135147051Y-95940654D02*
X135242289Y-95988273D01*
X135242289Y-95988273D02*
X135432765Y-96035892D01*
X135432765Y-96035892D02*
X135575622Y-96035892D01*
X135575622Y-96035892D02*
X135766098Y-95988273D01*
X135766098Y-95988273D02*
X135861336Y-95940654D01*
X135861336Y-95940654D02*
X135956575Y-95845416D01*
X135956575Y-95845416D02*
X136004194Y-95702559D01*
X136004194Y-95702559D02*
X136004194Y-95464464D01*
X135337527Y-96893035D02*
X136004194Y-96893035D01*
X134956575Y-96654940D02*
X135670860Y-96416845D01*
X135670860Y-96416845D02*
X135670860Y-97035892D01*
X135004194Y-97893035D02*
X135004194Y-97416845D01*
X135004194Y-97416845D02*
X135480384Y-97369226D01*
X135480384Y-97369226D02*
X135432765Y-97416845D01*
X135432765Y-97416845D02*
X135385146Y-97512083D01*
X135385146Y-97512083D02*
X135385146Y-97750178D01*
X135385146Y-97750178D02*
X135432765Y-97845416D01*
X135432765Y-97845416D02*
X135480384Y-97893035D01*
X135480384Y-97893035D02*
X135575622Y-97940654D01*
X135575622Y-97940654D02*
X135813717Y-97940654D01*
X135813717Y-97940654D02*
X135908955Y-97893035D01*
X135908955Y-97893035D02*
X135956575Y-97845416D01*
X135956575Y-97845416D02*
X136004194Y-97750178D01*
X136004194Y-97750178D02*
X136004194Y-97512083D01*
X136004194Y-97512083D02*
X135956575Y-97416845D01*
X135956575Y-97416845D02*
X135908955Y-97369226D01*
X135684194Y-100226845D02*
X134684194Y-100226845D01*
X135684194Y-100798273D02*
X135112765Y-100369702D01*
X134684194Y-100798273D02*
X135255622Y-100226845D01*
X145529194Y-71651964D02*
X144529194Y-71651964D01*
X144529194Y-71651964D02*
X144529194Y-71890059D01*
X144529194Y-71890059D02*
X144576813Y-72032916D01*
X144576813Y-72032916D02*
X144672051Y-72128154D01*
X144672051Y-72128154D02*
X144767289Y-72175773D01*
X144767289Y-72175773D02*
X144957765Y-72223392D01*
X144957765Y-72223392D02*
X145100622Y-72223392D01*
X145100622Y-72223392D02*
X145291098Y-72175773D01*
X145291098Y-72175773D02*
X145386336Y-72128154D01*
X145386336Y-72128154D02*
X145481575Y-72032916D01*
X145481575Y-72032916D02*
X145529194Y-71890059D01*
X145529194Y-71890059D02*
X145529194Y-71651964D01*
X144529194Y-72556726D02*
X144529194Y-73175773D01*
X144529194Y-73175773D02*
X144910146Y-72842440D01*
X144910146Y-72842440D02*
X144910146Y-72985297D01*
X144910146Y-72985297D02*
X144957765Y-73080535D01*
X144957765Y-73080535D02*
X145005384Y-73128154D01*
X145005384Y-73128154D02*
X145100622Y-73175773D01*
X145100622Y-73175773D02*
X145338717Y-73175773D01*
X145338717Y-73175773D02*
X145433955Y-73128154D01*
X145433955Y-73128154D02*
X145481575Y-73080535D01*
X145481575Y-73080535D02*
X145529194Y-72985297D01*
X145529194Y-72985297D02*
X145529194Y-72699583D01*
X145529194Y-72699583D02*
X145481575Y-72604345D01*
X145481575Y-72604345D02*
X145433955Y-72556726D01*
X145529194Y-73651964D02*
X145529194Y-73842440D01*
X145529194Y-73842440D02*
X145481575Y-73937678D01*
X145481575Y-73937678D02*
X145433955Y-73985297D01*
X145433955Y-73985297D02*
X145291098Y-74080535D01*
X145291098Y-74080535D02*
X145100622Y-74128154D01*
X145100622Y-74128154D02*
X144719670Y-74128154D01*
X144719670Y-74128154D02*
X144624432Y-74080535D01*
X144624432Y-74080535D02*
X144576813Y-74032916D01*
X144576813Y-74032916D02*
X144529194Y-73937678D01*
X144529194Y-73937678D02*
X144529194Y-73747202D01*
X144529194Y-73747202D02*
X144576813Y-73651964D01*
X144576813Y-73651964D02*
X144624432Y-73604345D01*
X144624432Y-73604345D02*
X144719670Y-73556726D01*
X144719670Y-73556726D02*
X144957765Y-73556726D01*
X144957765Y-73556726D02*
X145053003Y-73604345D01*
X145053003Y-73604345D02*
X145100622Y-73651964D01*
X145100622Y-73651964D02*
X145148241Y-73747202D01*
X145148241Y-73747202D02*
X145148241Y-73937678D01*
X145148241Y-73937678D02*
X145100622Y-74032916D01*
X145100622Y-74032916D02*
X145053003Y-74080535D01*
X145053003Y-74080535D02*
X144957765Y-74128154D01*
X145209194Y-76414345D02*
X144209194Y-76414345D01*
X145209194Y-76985773D02*
X144637765Y-76557202D01*
X144209194Y-76985773D02*
X144780622Y-76414345D01*
X107429194Y-81176964D02*
X106429194Y-81176964D01*
X106429194Y-81176964D02*
X106429194Y-81415059D01*
X106429194Y-81415059D02*
X106476813Y-81557916D01*
X106476813Y-81557916D02*
X106572051Y-81653154D01*
X106572051Y-81653154D02*
X106667289Y-81700773D01*
X106667289Y-81700773D02*
X106857765Y-81748392D01*
X106857765Y-81748392D02*
X107000622Y-81748392D01*
X107000622Y-81748392D02*
X107191098Y-81700773D01*
X107191098Y-81700773D02*
X107286336Y-81653154D01*
X107286336Y-81653154D02*
X107381575Y-81557916D01*
X107381575Y-81557916D02*
X107429194Y-81415059D01*
X107429194Y-81415059D02*
X107429194Y-81176964D01*
X106429194Y-82081726D02*
X106429194Y-82700773D01*
X106429194Y-82700773D02*
X106810146Y-82367440D01*
X106810146Y-82367440D02*
X106810146Y-82510297D01*
X106810146Y-82510297D02*
X106857765Y-82605535D01*
X106857765Y-82605535D02*
X106905384Y-82653154D01*
X106905384Y-82653154D02*
X107000622Y-82700773D01*
X107000622Y-82700773D02*
X107238717Y-82700773D01*
X107238717Y-82700773D02*
X107333955Y-82653154D01*
X107333955Y-82653154D02*
X107381575Y-82605535D01*
X107381575Y-82605535D02*
X107429194Y-82510297D01*
X107429194Y-82510297D02*
X107429194Y-82224583D01*
X107429194Y-82224583D02*
X107381575Y-82129345D01*
X107381575Y-82129345D02*
X107333955Y-82081726D01*
X106429194Y-83034107D02*
X106429194Y-83700773D01*
X106429194Y-83700773D02*
X107429194Y-83272202D01*
X107109194Y-85939345D02*
X106109194Y-85939345D01*
X107109194Y-86510773D02*
X106537765Y-86082202D01*
X106109194Y-86510773D02*
X106680622Y-85939345D01*
X155054194Y-95464464D02*
X154054194Y-95464464D01*
X154054194Y-95464464D02*
X154054194Y-95702559D01*
X154054194Y-95702559D02*
X154101813Y-95845416D01*
X154101813Y-95845416D02*
X154197051Y-95940654D01*
X154197051Y-95940654D02*
X154292289Y-95988273D01*
X154292289Y-95988273D02*
X154482765Y-96035892D01*
X154482765Y-96035892D02*
X154625622Y-96035892D01*
X154625622Y-96035892D02*
X154816098Y-95988273D01*
X154816098Y-95988273D02*
X154911336Y-95940654D01*
X154911336Y-95940654D02*
X155006575Y-95845416D01*
X155006575Y-95845416D02*
X155054194Y-95702559D01*
X155054194Y-95702559D02*
X155054194Y-95464464D01*
X154387527Y-96893035D02*
X155054194Y-96893035D01*
X154006575Y-96654940D02*
X154720860Y-96416845D01*
X154720860Y-96416845D02*
X154720860Y-97035892D01*
X154054194Y-97845416D02*
X154054194Y-97654940D01*
X154054194Y-97654940D02*
X154101813Y-97559702D01*
X154101813Y-97559702D02*
X154149432Y-97512083D01*
X154149432Y-97512083D02*
X154292289Y-97416845D01*
X154292289Y-97416845D02*
X154482765Y-97369226D01*
X154482765Y-97369226D02*
X154863717Y-97369226D01*
X154863717Y-97369226D02*
X154958955Y-97416845D01*
X154958955Y-97416845D02*
X155006575Y-97464464D01*
X155006575Y-97464464D02*
X155054194Y-97559702D01*
X155054194Y-97559702D02*
X155054194Y-97750178D01*
X155054194Y-97750178D02*
X155006575Y-97845416D01*
X155006575Y-97845416D02*
X154958955Y-97893035D01*
X154958955Y-97893035D02*
X154863717Y-97940654D01*
X154863717Y-97940654D02*
X154625622Y-97940654D01*
X154625622Y-97940654D02*
X154530384Y-97893035D01*
X154530384Y-97893035D02*
X154482765Y-97845416D01*
X154482765Y-97845416D02*
X154435146Y-97750178D01*
X154435146Y-97750178D02*
X154435146Y-97559702D01*
X154435146Y-97559702D02*
X154482765Y-97464464D01*
X154482765Y-97464464D02*
X154530384Y-97416845D01*
X154530384Y-97416845D02*
X154625622Y-97369226D01*
X154734194Y-100226845D02*
X153734194Y-100226845D01*
X154734194Y-100798273D02*
X154162765Y-100369702D01*
X153734194Y-100798273D02*
X154305622Y-100226845D01*
X164579194Y-76414464D02*
X163579194Y-76414464D01*
X163579194Y-76414464D02*
X163579194Y-76652559D01*
X163579194Y-76652559D02*
X163626813Y-76795416D01*
X163626813Y-76795416D02*
X163722051Y-76890654D01*
X163722051Y-76890654D02*
X163817289Y-76938273D01*
X163817289Y-76938273D02*
X164007765Y-76985892D01*
X164007765Y-76985892D02*
X164150622Y-76985892D01*
X164150622Y-76985892D02*
X164341098Y-76938273D01*
X164341098Y-76938273D02*
X164436336Y-76890654D01*
X164436336Y-76890654D02*
X164531575Y-76795416D01*
X164531575Y-76795416D02*
X164579194Y-76652559D01*
X164579194Y-76652559D02*
X164579194Y-76414464D01*
X163912527Y-77843035D02*
X164579194Y-77843035D01*
X163531575Y-77604940D02*
X164245860Y-77366845D01*
X164245860Y-77366845D02*
X164245860Y-77985892D01*
X163579194Y-78557321D02*
X163579194Y-78652559D01*
X163579194Y-78652559D02*
X163626813Y-78747797D01*
X163626813Y-78747797D02*
X163674432Y-78795416D01*
X163674432Y-78795416D02*
X163769670Y-78843035D01*
X163769670Y-78843035D02*
X163960146Y-78890654D01*
X163960146Y-78890654D02*
X164198241Y-78890654D01*
X164198241Y-78890654D02*
X164388717Y-78843035D01*
X164388717Y-78843035D02*
X164483955Y-78795416D01*
X164483955Y-78795416D02*
X164531575Y-78747797D01*
X164531575Y-78747797D02*
X164579194Y-78652559D01*
X164579194Y-78652559D02*
X164579194Y-78557321D01*
X164579194Y-78557321D02*
X164531575Y-78462083D01*
X164531575Y-78462083D02*
X164483955Y-78414464D01*
X164483955Y-78414464D02*
X164388717Y-78366845D01*
X164388717Y-78366845D02*
X164198241Y-78319226D01*
X164198241Y-78319226D02*
X163960146Y-78319226D01*
X163960146Y-78319226D02*
X163769670Y-78366845D01*
X163769670Y-78366845D02*
X163674432Y-78414464D01*
X163674432Y-78414464D02*
X163626813Y-78462083D01*
X163626813Y-78462083D02*
X163579194Y-78557321D01*
X164259194Y-81176845D02*
X163259194Y-81176845D01*
X164259194Y-81748273D02*
X163687765Y-81319702D01*
X163259194Y-81748273D02*
X163830622Y-81176845D01*
X126479194Y-57364464D02*
X125479194Y-57364464D01*
X125479194Y-57364464D02*
X125479194Y-57602559D01*
X125479194Y-57602559D02*
X125526813Y-57745416D01*
X125526813Y-57745416D02*
X125622051Y-57840654D01*
X125622051Y-57840654D02*
X125717289Y-57888273D01*
X125717289Y-57888273D02*
X125907765Y-57935892D01*
X125907765Y-57935892D02*
X126050622Y-57935892D01*
X126050622Y-57935892D02*
X126241098Y-57888273D01*
X126241098Y-57888273D02*
X126336336Y-57840654D01*
X126336336Y-57840654D02*
X126431575Y-57745416D01*
X126431575Y-57745416D02*
X126479194Y-57602559D01*
X126479194Y-57602559D02*
X126479194Y-57364464D01*
X125479194Y-58269226D02*
X125479194Y-58888273D01*
X125479194Y-58888273D02*
X125860146Y-58554940D01*
X125860146Y-58554940D02*
X125860146Y-58697797D01*
X125860146Y-58697797D02*
X125907765Y-58793035D01*
X125907765Y-58793035D02*
X125955384Y-58840654D01*
X125955384Y-58840654D02*
X126050622Y-58888273D01*
X126050622Y-58888273D02*
X126288717Y-58888273D01*
X126288717Y-58888273D02*
X126383955Y-58840654D01*
X126383955Y-58840654D02*
X126431575Y-58793035D01*
X126431575Y-58793035D02*
X126479194Y-58697797D01*
X126479194Y-58697797D02*
X126479194Y-58412083D01*
X126479194Y-58412083D02*
X126431575Y-58316845D01*
X126431575Y-58316845D02*
X126383955Y-58269226D01*
X126479194Y-59840654D02*
X126479194Y-59269226D01*
X126479194Y-59554940D02*
X125479194Y-59554940D01*
X125479194Y-59554940D02*
X125622051Y-59459702D01*
X125622051Y-59459702D02*
X125717289Y-59364464D01*
X125717289Y-59364464D02*
X125764908Y-59269226D01*
X126159194Y-62126845D02*
X125159194Y-62126845D01*
X126159194Y-62698273D02*
X125587765Y-62269702D01*
X125159194Y-62698273D02*
X125730622Y-62126845D01*
X202679194Y-81176964D02*
X201679194Y-81176964D01*
X201679194Y-81176964D02*
X201679194Y-81415059D01*
X201679194Y-81415059D02*
X201726813Y-81557916D01*
X201726813Y-81557916D02*
X201822051Y-81653154D01*
X201822051Y-81653154D02*
X201917289Y-81700773D01*
X201917289Y-81700773D02*
X202107765Y-81748392D01*
X202107765Y-81748392D02*
X202250622Y-81748392D01*
X202250622Y-81748392D02*
X202441098Y-81700773D01*
X202441098Y-81700773D02*
X202536336Y-81653154D01*
X202536336Y-81653154D02*
X202631575Y-81557916D01*
X202631575Y-81557916D02*
X202679194Y-81415059D01*
X202679194Y-81415059D02*
X202679194Y-81176964D01*
X202012527Y-82605535D02*
X202679194Y-82605535D01*
X201631575Y-82367440D02*
X202345860Y-82129345D01*
X202345860Y-82129345D02*
X202345860Y-82748392D01*
X201774432Y-83081726D02*
X201726813Y-83129345D01*
X201726813Y-83129345D02*
X201679194Y-83224583D01*
X201679194Y-83224583D02*
X201679194Y-83462678D01*
X201679194Y-83462678D02*
X201726813Y-83557916D01*
X201726813Y-83557916D02*
X201774432Y-83605535D01*
X201774432Y-83605535D02*
X201869670Y-83653154D01*
X201869670Y-83653154D02*
X201964908Y-83653154D01*
X201964908Y-83653154D02*
X202107765Y-83605535D01*
X202107765Y-83605535D02*
X202679194Y-83034107D01*
X202679194Y-83034107D02*
X202679194Y-83653154D01*
X202359194Y-85939345D02*
X201359194Y-85939345D01*
X202359194Y-86510773D02*
X201787765Y-86082202D01*
X201359194Y-86510773D02*
X201930622Y-85939345D01*
X88379194Y-76414464D02*
X87379194Y-76414464D01*
X87379194Y-76414464D02*
X87379194Y-76652559D01*
X87379194Y-76652559D02*
X87426813Y-76795416D01*
X87426813Y-76795416D02*
X87522051Y-76890654D01*
X87522051Y-76890654D02*
X87617289Y-76938273D01*
X87617289Y-76938273D02*
X87807765Y-76985892D01*
X87807765Y-76985892D02*
X87950622Y-76985892D01*
X87950622Y-76985892D02*
X88141098Y-76938273D01*
X88141098Y-76938273D02*
X88236336Y-76890654D01*
X88236336Y-76890654D02*
X88331575Y-76795416D01*
X88331575Y-76795416D02*
X88379194Y-76652559D01*
X88379194Y-76652559D02*
X88379194Y-76414464D01*
X87379194Y-77319226D02*
X87379194Y-77938273D01*
X87379194Y-77938273D02*
X87760146Y-77604940D01*
X87760146Y-77604940D02*
X87760146Y-77747797D01*
X87760146Y-77747797D02*
X87807765Y-77843035D01*
X87807765Y-77843035D02*
X87855384Y-77890654D01*
X87855384Y-77890654D02*
X87950622Y-77938273D01*
X87950622Y-77938273D02*
X88188717Y-77938273D01*
X88188717Y-77938273D02*
X88283955Y-77890654D01*
X88283955Y-77890654D02*
X88331575Y-77843035D01*
X88331575Y-77843035D02*
X88379194Y-77747797D01*
X88379194Y-77747797D02*
X88379194Y-77462083D01*
X88379194Y-77462083D02*
X88331575Y-77366845D01*
X88331575Y-77366845D02*
X88283955Y-77319226D01*
X87379194Y-78795416D02*
X87379194Y-78604940D01*
X87379194Y-78604940D02*
X87426813Y-78509702D01*
X87426813Y-78509702D02*
X87474432Y-78462083D01*
X87474432Y-78462083D02*
X87617289Y-78366845D01*
X87617289Y-78366845D02*
X87807765Y-78319226D01*
X87807765Y-78319226D02*
X88188717Y-78319226D01*
X88188717Y-78319226D02*
X88283955Y-78366845D01*
X88283955Y-78366845D02*
X88331575Y-78414464D01*
X88331575Y-78414464D02*
X88379194Y-78509702D01*
X88379194Y-78509702D02*
X88379194Y-78700178D01*
X88379194Y-78700178D02*
X88331575Y-78795416D01*
X88331575Y-78795416D02*
X88283955Y-78843035D01*
X88283955Y-78843035D02*
X88188717Y-78890654D01*
X88188717Y-78890654D02*
X87950622Y-78890654D01*
X87950622Y-78890654D02*
X87855384Y-78843035D01*
X87855384Y-78843035D02*
X87807765Y-78795416D01*
X87807765Y-78795416D02*
X87760146Y-78700178D01*
X87760146Y-78700178D02*
X87760146Y-78509702D01*
X87760146Y-78509702D02*
X87807765Y-78414464D01*
X87807765Y-78414464D02*
X87855384Y-78366845D01*
X87855384Y-78366845D02*
X87950622Y-78319226D01*
X88059194Y-81176845D02*
X87059194Y-81176845D01*
X88059194Y-81748273D02*
X87487765Y-81319702D01*
X87059194Y-81748273D02*
X87630622Y-81176845D01*
X164579194Y-57364464D02*
X163579194Y-57364464D01*
X163579194Y-57364464D02*
X163579194Y-57602559D01*
X163579194Y-57602559D02*
X163626813Y-57745416D01*
X163626813Y-57745416D02*
X163722051Y-57840654D01*
X163722051Y-57840654D02*
X163817289Y-57888273D01*
X163817289Y-57888273D02*
X164007765Y-57935892D01*
X164007765Y-57935892D02*
X164150622Y-57935892D01*
X164150622Y-57935892D02*
X164341098Y-57888273D01*
X164341098Y-57888273D02*
X164436336Y-57840654D01*
X164436336Y-57840654D02*
X164531575Y-57745416D01*
X164531575Y-57745416D02*
X164579194Y-57602559D01*
X164579194Y-57602559D02*
X164579194Y-57364464D01*
X163579194Y-58269226D02*
X163579194Y-58888273D01*
X163579194Y-58888273D02*
X163960146Y-58554940D01*
X163960146Y-58554940D02*
X163960146Y-58697797D01*
X163960146Y-58697797D02*
X164007765Y-58793035D01*
X164007765Y-58793035D02*
X164055384Y-58840654D01*
X164055384Y-58840654D02*
X164150622Y-58888273D01*
X164150622Y-58888273D02*
X164388717Y-58888273D01*
X164388717Y-58888273D02*
X164483955Y-58840654D01*
X164483955Y-58840654D02*
X164531575Y-58793035D01*
X164531575Y-58793035D02*
X164579194Y-58697797D01*
X164579194Y-58697797D02*
X164579194Y-58412083D01*
X164579194Y-58412083D02*
X164531575Y-58316845D01*
X164531575Y-58316845D02*
X164483955Y-58269226D01*
X163579194Y-59221607D02*
X163579194Y-59840654D01*
X163579194Y-59840654D02*
X163960146Y-59507321D01*
X163960146Y-59507321D02*
X163960146Y-59650178D01*
X163960146Y-59650178D02*
X164007765Y-59745416D01*
X164007765Y-59745416D02*
X164055384Y-59793035D01*
X164055384Y-59793035D02*
X164150622Y-59840654D01*
X164150622Y-59840654D02*
X164388717Y-59840654D01*
X164388717Y-59840654D02*
X164483955Y-59793035D01*
X164483955Y-59793035D02*
X164531575Y-59745416D01*
X164531575Y-59745416D02*
X164579194Y-59650178D01*
X164579194Y-59650178D02*
X164579194Y-59364464D01*
X164579194Y-59364464D02*
X164531575Y-59269226D01*
X164531575Y-59269226D02*
X164483955Y-59221607D01*
X164259194Y-62126845D02*
X163259194Y-62126845D01*
X164259194Y-62698273D02*
X163687765Y-62269702D01*
X163259194Y-62698273D02*
X163830622Y-62126845D01*
X107429194Y-62126964D02*
X106429194Y-62126964D01*
X106429194Y-62126964D02*
X106429194Y-62365059D01*
X106429194Y-62365059D02*
X106476813Y-62507916D01*
X106476813Y-62507916D02*
X106572051Y-62603154D01*
X106572051Y-62603154D02*
X106667289Y-62650773D01*
X106667289Y-62650773D02*
X106857765Y-62698392D01*
X106857765Y-62698392D02*
X107000622Y-62698392D01*
X107000622Y-62698392D02*
X107191098Y-62650773D01*
X107191098Y-62650773D02*
X107286336Y-62603154D01*
X107286336Y-62603154D02*
X107381575Y-62507916D01*
X107381575Y-62507916D02*
X107429194Y-62365059D01*
X107429194Y-62365059D02*
X107429194Y-62126964D01*
X106429194Y-63031726D02*
X106429194Y-63650773D01*
X106429194Y-63650773D02*
X106810146Y-63317440D01*
X106810146Y-63317440D02*
X106810146Y-63460297D01*
X106810146Y-63460297D02*
X106857765Y-63555535D01*
X106857765Y-63555535D02*
X106905384Y-63603154D01*
X106905384Y-63603154D02*
X107000622Y-63650773D01*
X107000622Y-63650773D02*
X107238717Y-63650773D01*
X107238717Y-63650773D02*
X107333955Y-63603154D01*
X107333955Y-63603154D02*
X107381575Y-63555535D01*
X107381575Y-63555535D02*
X107429194Y-63460297D01*
X107429194Y-63460297D02*
X107429194Y-63174583D01*
X107429194Y-63174583D02*
X107381575Y-63079345D01*
X107381575Y-63079345D02*
X107333955Y-63031726D01*
X106429194Y-64269821D02*
X106429194Y-64365059D01*
X106429194Y-64365059D02*
X106476813Y-64460297D01*
X106476813Y-64460297D02*
X106524432Y-64507916D01*
X106524432Y-64507916D02*
X106619670Y-64555535D01*
X106619670Y-64555535D02*
X106810146Y-64603154D01*
X106810146Y-64603154D02*
X107048241Y-64603154D01*
X107048241Y-64603154D02*
X107238717Y-64555535D01*
X107238717Y-64555535D02*
X107333955Y-64507916D01*
X107333955Y-64507916D02*
X107381575Y-64460297D01*
X107381575Y-64460297D02*
X107429194Y-64365059D01*
X107429194Y-64365059D02*
X107429194Y-64269821D01*
X107429194Y-64269821D02*
X107381575Y-64174583D01*
X107381575Y-64174583D02*
X107333955Y-64126964D01*
X107333955Y-64126964D02*
X107238717Y-64079345D01*
X107238717Y-64079345D02*
X107048241Y-64031726D01*
X107048241Y-64031726D02*
X106810146Y-64031726D01*
X106810146Y-64031726D02*
X106619670Y-64079345D01*
X106619670Y-64079345D02*
X106524432Y-64126964D01*
X106524432Y-64126964D02*
X106476813Y-64174583D01*
X106476813Y-64174583D02*
X106429194Y-64269821D01*
X107109194Y-66889345D02*
X106109194Y-66889345D01*
X107109194Y-67460773D02*
X106537765Y-67032202D01*
X106109194Y-67460773D02*
X106680622Y-66889345D01*
X126479194Y-76414464D02*
X125479194Y-76414464D01*
X125479194Y-76414464D02*
X125479194Y-76652559D01*
X125479194Y-76652559D02*
X125526813Y-76795416D01*
X125526813Y-76795416D02*
X125622051Y-76890654D01*
X125622051Y-76890654D02*
X125717289Y-76938273D01*
X125717289Y-76938273D02*
X125907765Y-76985892D01*
X125907765Y-76985892D02*
X126050622Y-76985892D01*
X126050622Y-76985892D02*
X126241098Y-76938273D01*
X126241098Y-76938273D02*
X126336336Y-76890654D01*
X126336336Y-76890654D02*
X126431575Y-76795416D01*
X126431575Y-76795416D02*
X126479194Y-76652559D01*
X126479194Y-76652559D02*
X126479194Y-76414464D01*
X125479194Y-77319226D02*
X125479194Y-77938273D01*
X125479194Y-77938273D02*
X125860146Y-77604940D01*
X125860146Y-77604940D02*
X125860146Y-77747797D01*
X125860146Y-77747797D02*
X125907765Y-77843035D01*
X125907765Y-77843035D02*
X125955384Y-77890654D01*
X125955384Y-77890654D02*
X126050622Y-77938273D01*
X126050622Y-77938273D02*
X126288717Y-77938273D01*
X126288717Y-77938273D02*
X126383955Y-77890654D01*
X126383955Y-77890654D02*
X126431575Y-77843035D01*
X126431575Y-77843035D02*
X126479194Y-77747797D01*
X126479194Y-77747797D02*
X126479194Y-77462083D01*
X126479194Y-77462083D02*
X126431575Y-77366845D01*
X126431575Y-77366845D02*
X126383955Y-77319226D01*
X125907765Y-78509702D02*
X125860146Y-78414464D01*
X125860146Y-78414464D02*
X125812527Y-78366845D01*
X125812527Y-78366845D02*
X125717289Y-78319226D01*
X125717289Y-78319226D02*
X125669670Y-78319226D01*
X125669670Y-78319226D02*
X125574432Y-78366845D01*
X125574432Y-78366845D02*
X125526813Y-78414464D01*
X125526813Y-78414464D02*
X125479194Y-78509702D01*
X125479194Y-78509702D02*
X125479194Y-78700178D01*
X125479194Y-78700178D02*
X125526813Y-78795416D01*
X125526813Y-78795416D02*
X125574432Y-78843035D01*
X125574432Y-78843035D02*
X125669670Y-78890654D01*
X125669670Y-78890654D02*
X125717289Y-78890654D01*
X125717289Y-78890654D02*
X125812527Y-78843035D01*
X125812527Y-78843035D02*
X125860146Y-78795416D01*
X125860146Y-78795416D02*
X125907765Y-78700178D01*
X125907765Y-78700178D02*
X125907765Y-78509702D01*
X125907765Y-78509702D02*
X125955384Y-78414464D01*
X125955384Y-78414464D02*
X126003003Y-78366845D01*
X126003003Y-78366845D02*
X126098241Y-78319226D01*
X126098241Y-78319226D02*
X126288717Y-78319226D01*
X126288717Y-78319226D02*
X126383955Y-78366845D01*
X126383955Y-78366845D02*
X126431575Y-78414464D01*
X126431575Y-78414464D02*
X126479194Y-78509702D01*
X126479194Y-78509702D02*
X126479194Y-78700178D01*
X126479194Y-78700178D02*
X126431575Y-78795416D01*
X126431575Y-78795416D02*
X126383955Y-78843035D01*
X126383955Y-78843035D02*
X126288717Y-78890654D01*
X126288717Y-78890654D02*
X126098241Y-78890654D01*
X126098241Y-78890654D02*
X126003003Y-78843035D01*
X126003003Y-78843035D02*
X125955384Y-78795416D01*
X125955384Y-78795416D02*
X125907765Y-78700178D01*
X126159194Y-81176845D02*
X125159194Y-81176845D01*
X126159194Y-81748273D02*
X125587765Y-81319702D01*
X125159194Y-81748273D02*
X125730622Y-81176845D01*
X145529194Y-52601964D02*
X144529194Y-52601964D01*
X144529194Y-52601964D02*
X144529194Y-52840059D01*
X144529194Y-52840059D02*
X144576813Y-52982916D01*
X144576813Y-52982916D02*
X144672051Y-53078154D01*
X144672051Y-53078154D02*
X144767289Y-53125773D01*
X144767289Y-53125773D02*
X144957765Y-53173392D01*
X144957765Y-53173392D02*
X145100622Y-53173392D01*
X145100622Y-53173392D02*
X145291098Y-53125773D01*
X145291098Y-53125773D02*
X145386336Y-53078154D01*
X145386336Y-53078154D02*
X145481575Y-52982916D01*
X145481575Y-52982916D02*
X145529194Y-52840059D01*
X145529194Y-52840059D02*
X145529194Y-52601964D01*
X144529194Y-53506726D02*
X144529194Y-54125773D01*
X144529194Y-54125773D02*
X144910146Y-53792440D01*
X144910146Y-53792440D02*
X144910146Y-53935297D01*
X144910146Y-53935297D02*
X144957765Y-54030535D01*
X144957765Y-54030535D02*
X145005384Y-54078154D01*
X145005384Y-54078154D02*
X145100622Y-54125773D01*
X145100622Y-54125773D02*
X145338717Y-54125773D01*
X145338717Y-54125773D02*
X145433955Y-54078154D01*
X145433955Y-54078154D02*
X145481575Y-54030535D01*
X145481575Y-54030535D02*
X145529194Y-53935297D01*
X145529194Y-53935297D02*
X145529194Y-53649583D01*
X145529194Y-53649583D02*
X145481575Y-53554345D01*
X145481575Y-53554345D02*
X145433955Y-53506726D01*
X144624432Y-54506726D02*
X144576813Y-54554345D01*
X144576813Y-54554345D02*
X144529194Y-54649583D01*
X144529194Y-54649583D02*
X144529194Y-54887678D01*
X144529194Y-54887678D02*
X144576813Y-54982916D01*
X144576813Y-54982916D02*
X144624432Y-55030535D01*
X144624432Y-55030535D02*
X144719670Y-55078154D01*
X144719670Y-55078154D02*
X144814908Y-55078154D01*
X144814908Y-55078154D02*
X144957765Y-55030535D01*
X144957765Y-55030535D02*
X145529194Y-54459107D01*
X145529194Y-54459107D02*
X145529194Y-55078154D01*
X145209194Y-57364345D02*
X144209194Y-57364345D01*
X145209194Y-57935773D02*
X144637765Y-57507202D01*
X144209194Y-57935773D02*
X144780622Y-57364345D01*
X183629194Y-81176964D02*
X182629194Y-81176964D01*
X182629194Y-81176964D02*
X182629194Y-81415059D01*
X182629194Y-81415059D02*
X182676813Y-81557916D01*
X182676813Y-81557916D02*
X182772051Y-81653154D01*
X182772051Y-81653154D02*
X182867289Y-81700773D01*
X182867289Y-81700773D02*
X183057765Y-81748392D01*
X183057765Y-81748392D02*
X183200622Y-81748392D01*
X183200622Y-81748392D02*
X183391098Y-81700773D01*
X183391098Y-81700773D02*
X183486336Y-81653154D01*
X183486336Y-81653154D02*
X183581575Y-81557916D01*
X183581575Y-81557916D02*
X183629194Y-81415059D01*
X183629194Y-81415059D02*
X183629194Y-81176964D01*
X182962527Y-82605535D02*
X183629194Y-82605535D01*
X182581575Y-82367440D02*
X183295860Y-82129345D01*
X183295860Y-82129345D02*
X183295860Y-82748392D01*
X183629194Y-83653154D02*
X183629194Y-83081726D01*
X183629194Y-83367440D02*
X182629194Y-83367440D01*
X182629194Y-83367440D02*
X182772051Y-83272202D01*
X182772051Y-83272202D02*
X182867289Y-83176964D01*
X182867289Y-83176964D02*
X182914908Y-83081726D01*
X183309194Y-85939345D02*
X182309194Y-85939345D01*
X183309194Y-86510773D02*
X182737765Y-86082202D01*
X182309194Y-86510773D02*
X182880622Y-85939345D01*
X93141694Y-100226964D02*
X92141694Y-100226964D01*
X92141694Y-100226964D02*
X92141694Y-100465059D01*
X92141694Y-100465059D02*
X92189313Y-100607916D01*
X92189313Y-100607916D02*
X92284551Y-100703154D01*
X92284551Y-100703154D02*
X92379789Y-100750773D01*
X92379789Y-100750773D02*
X92570265Y-100798392D01*
X92570265Y-100798392D02*
X92713122Y-100798392D01*
X92713122Y-100798392D02*
X92903598Y-100750773D01*
X92903598Y-100750773D02*
X92998836Y-100703154D01*
X92998836Y-100703154D02*
X93094075Y-100607916D01*
X93094075Y-100607916D02*
X93141694Y-100465059D01*
X93141694Y-100465059D02*
X93141694Y-100226964D01*
X92475027Y-101655535D02*
X93141694Y-101655535D01*
X92094075Y-101417440D02*
X92808360Y-101179345D01*
X92808360Y-101179345D02*
X92808360Y-101798392D01*
X92141694Y-102084107D02*
X92141694Y-102703154D01*
X92141694Y-102703154D02*
X92522646Y-102369821D01*
X92522646Y-102369821D02*
X92522646Y-102512678D01*
X92522646Y-102512678D02*
X92570265Y-102607916D01*
X92570265Y-102607916D02*
X92617884Y-102655535D01*
X92617884Y-102655535D02*
X92713122Y-102703154D01*
X92713122Y-102703154D02*
X92951217Y-102703154D01*
X92951217Y-102703154D02*
X93046455Y-102655535D01*
X93046455Y-102655535D02*
X93094075Y-102607916D01*
X93094075Y-102607916D02*
X93141694Y-102512678D01*
X93141694Y-102512678D02*
X93141694Y-102226964D01*
X93141694Y-102226964D02*
X93094075Y-102131726D01*
X93094075Y-102131726D02*
X93046455Y-102084107D01*
X92821694Y-104989345D02*
X91821694Y-104989345D01*
X92821694Y-105560773D02*
X92250265Y-105132202D01*
X91821694Y-105560773D02*
X92393122Y-104989345D01*
X107429194Y-43076964D02*
X106429194Y-43076964D01*
X106429194Y-43076964D02*
X106429194Y-43315059D01*
X106429194Y-43315059D02*
X106476813Y-43457916D01*
X106476813Y-43457916D02*
X106572051Y-43553154D01*
X106572051Y-43553154D02*
X106667289Y-43600773D01*
X106667289Y-43600773D02*
X106857765Y-43648392D01*
X106857765Y-43648392D02*
X107000622Y-43648392D01*
X107000622Y-43648392D02*
X107191098Y-43600773D01*
X107191098Y-43600773D02*
X107286336Y-43553154D01*
X107286336Y-43553154D02*
X107381575Y-43457916D01*
X107381575Y-43457916D02*
X107429194Y-43315059D01*
X107429194Y-43315059D02*
X107429194Y-43076964D01*
X106524432Y-44029345D02*
X106476813Y-44076964D01*
X106476813Y-44076964D02*
X106429194Y-44172202D01*
X106429194Y-44172202D02*
X106429194Y-44410297D01*
X106429194Y-44410297D02*
X106476813Y-44505535D01*
X106476813Y-44505535D02*
X106524432Y-44553154D01*
X106524432Y-44553154D02*
X106619670Y-44600773D01*
X106619670Y-44600773D02*
X106714908Y-44600773D01*
X106714908Y-44600773D02*
X106857765Y-44553154D01*
X106857765Y-44553154D02*
X107429194Y-43981726D01*
X107429194Y-43981726D02*
X107429194Y-44600773D01*
X106762527Y-45457916D02*
X107429194Y-45457916D01*
X106381575Y-45219821D02*
X107095860Y-44981726D01*
X107095860Y-44981726D02*
X107095860Y-45600773D01*
X107109194Y-47839345D02*
X106109194Y-47839345D01*
X107109194Y-48410773D02*
X106537765Y-47982202D01*
X106109194Y-48410773D02*
X106680622Y-47839345D01*
X202679194Y-43076964D02*
X201679194Y-43076964D01*
X201679194Y-43076964D02*
X201679194Y-43315059D01*
X201679194Y-43315059D02*
X201726813Y-43457916D01*
X201726813Y-43457916D02*
X201822051Y-43553154D01*
X201822051Y-43553154D02*
X201917289Y-43600773D01*
X201917289Y-43600773D02*
X202107765Y-43648392D01*
X202107765Y-43648392D02*
X202250622Y-43648392D01*
X202250622Y-43648392D02*
X202441098Y-43600773D01*
X202441098Y-43600773D02*
X202536336Y-43553154D01*
X202536336Y-43553154D02*
X202631575Y-43457916D01*
X202631575Y-43457916D02*
X202679194Y-43315059D01*
X202679194Y-43315059D02*
X202679194Y-43076964D01*
X201774432Y-44029345D02*
X201726813Y-44076964D01*
X201726813Y-44076964D02*
X201679194Y-44172202D01*
X201679194Y-44172202D02*
X201679194Y-44410297D01*
X201679194Y-44410297D02*
X201726813Y-44505535D01*
X201726813Y-44505535D02*
X201774432Y-44553154D01*
X201774432Y-44553154D02*
X201869670Y-44600773D01*
X201869670Y-44600773D02*
X201964908Y-44600773D01*
X201964908Y-44600773D02*
X202107765Y-44553154D01*
X202107765Y-44553154D02*
X202679194Y-43981726D01*
X202679194Y-43981726D02*
X202679194Y-44600773D01*
X202679194Y-45076964D02*
X202679194Y-45267440D01*
X202679194Y-45267440D02*
X202631575Y-45362678D01*
X202631575Y-45362678D02*
X202583955Y-45410297D01*
X202583955Y-45410297D02*
X202441098Y-45505535D01*
X202441098Y-45505535D02*
X202250622Y-45553154D01*
X202250622Y-45553154D02*
X201869670Y-45553154D01*
X201869670Y-45553154D02*
X201774432Y-45505535D01*
X201774432Y-45505535D02*
X201726813Y-45457916D01*
X201726813Y-45457916D02*
X201679194Y-45362678D01*
X201679194Y-45362678D02*
X201679194Y-45172202D01*
X201679194Y-45172202D02*
X201726813Y-45076964D01*
X201726813Y-45076964D02*
X201774432Y-45029345D01*
X201774432Y-45029345D02*
X201869670Y-44981726D01*
X201869670Y-44981726D02*
X202107765Y-44981726D01*
X202107765Y-44981726D02*
X202203003Y-45029345D01*
X202203003Y-45029345D02*
X202250622Y-45076964D01*
X202250622Y-45076964D02*
X202298241Y-45172202D01*
X202298241Y-45172202D02*
X202298241Y-45362678D01*
X202298241Y-45362678D02*
X202250622Y-45457916D01*
X202250622Y-45457916D02*
X202203003Y-45505535D01*
X202203003Y-45505535D02*
X202107765Y-45553154D01*
X202359194Y-47839345D02*
X201359194Y-47839345D01*
X202359194Y-48410773D02*
X201787765Y-47982202D01*
X201359194Y-48410773D02*
X201930622Y-47839345D01*
D11*
%TO.C,U2*%
X84058125Y-35401250D02*
X84058125Y-68421250D01*
X84058125Y-68421250D02*
X101838125Y-68421250D01*
X86598125Y-37941250D02*
X84058125Y-37941250D01*
X86598125Y-37941250D02*
X86598125Y-40481250D01*
X86598125Y-40481250D02*
X84058125Y-40481250D01*
X101838125Y-35401250D02*
X84058125Y-35401250D01*
X101838125Y-68421250D02*
X101838125Y-35401250D01*
D10*
X99292760Y-43930280D02*
X98792760Y-43930280D01*
X98792760Y-43830280D01*
X99292760Y-43830280D01*
X99292760Y-43930280D01*
G36*
X99292760Y-43930280D02*
G01*
X98792760Y-43930280D01*
X98792760Y-43830280D01*
X99292760Y-43830280D01*
X99292760Y-43930280D01*
G37*
X98892760Y-44130280D02*
X98792760Y-44130280D01*
X98792760Y-43830280D01*
X98892760Y-43830280D01*
X98892760Y-44130280D01*
G36*
X98892760Y-44130280D02*
G01*
X98792760Y-44130280D01*
X98792760Y-43830280D01*
X98892760Y-43830280D01*
X98892760Y-44130280D01*
G37*
X98892760Y-44630280D02*
X98792760Y-44630280D01*
X98792760Y-44430280D01*
X98892760Y-44430280D01*
X98892760Y-44630280D01*
G36*
X98892760Y-44630280D02*
G01*
X98792760Y-44630280D01*
X98792760Y-44430280D01*
X98892760Y-44430280D01*
X98892760Y-44630280D01*
G37*
X99092760Y-44330280D02*
X98992760Y-44330280D01*
X98992760Y-44230280D01*
X99092760Y-44230280D01*
X99092760Y-44330280D01*
G36*
X99092760Y-44330280D02*
G01*
X98992760Y-44330280D01*
X98992760Y-44230280D01*
X99092760Y-44230280D01*
X99092760Y-44330280D01*
G37*
X99292760Y-44630280D02*
X99192760Y-44630280D01*
X99192760Y-43830280D01*
X99292760Y-43830280D01*
X99292760Y-44630280D01*
G36*
X99292760Y-44630280D02*
G01*
X99192760Y-44630280D01*
X99192760Y-43830280D01*
X99292760Y-43830280D01*
X99292760Y-44630280D01*
G37*
D12*
%TO.C,D44*%
X114379375Y-104211250D02*
X114379375Y-103561250D01*
X113259375Y-103561250D02*
X113259375Y-99321250D01*
X115499375Y-103561250D02*
X113259375Y-103561250D01*
X115499375Y-102961250D02*
X113259375Y-102961250D01*
X115499375Y-102841250D02*
X113259375Y-102841250D01*
X115499375Y-102721250D02*
X113259375Y-102721250D01*
X113259375Y-99321250D02*
X115499375Y-99321250D01*
X115499375Y-99321250D02*
X115499375Y-103561250D01*
X114379375Y-98671250D02*
X114379375Y-99321250D01*
%TO.C,D26*%
X142954375Y-37536250D02*
X142954375Y-36886250D01*
X141834375Y-36886250D02*
X141834375Y-32646250D01*
X144074375Y-36886250D02*
X141834375Y-36886250D01*
X144074375Y-36286250D02*
X141834375Y-36286250D01*
X144074375Y-36166250D02*
X141834375Y-36166250D01*
X144074375Y-36046250D02*
X141834375Y-36046250D01*
X141834375Y-32646250D02*
X144074375Y-32646250D01*
X144074375Y-32646250D02*
X144074375Y-36886250D01*
X142954375Y-31996250D02*
X142954375Y-32646250D01*
%TO.C,D28*%
X181054375Y-47061250D02*
X181054375Y-46411250D01*
X179934375Y-46411250D02*
X179934375Y-42171250D01*
X182174375Y-46411250D02*
X179934375Y-46411250D01*
X182174375Y-45811250D02*
X179934375Y-45811250D01*
X182174375Y-45691250D02*
X179934375Y-45691250D01*
X182174375Y-45571250D02*
X179934375Y-45571250D01*
X179934375Y-42171250D02*
X182174375Y-42171250D01*
X182174375Y-42171250D02*
X182174375Y-46411250D01*
X181054375Y-41521250D02*
X181054375Y-42171250D01*
%TO.C,D25*%
X123904375Y-42298750D02*
X123904375Y-41648750D01*
X122784375Y-41648750D02*
X122784375Y-37408750D01*
X125024375Y-41648750D02*
X122784375Y-41648750D01*
X125024375Y-41048750D02*
X122784375Y-41048750D01*
X125024375Y-40928750D02*
X122784375Y-40928750D01*
X125024375Y-40808750D02*
X122784375Y-40808750D01*
X122784375Y-37408750D02*
X125024375Y-37408750D01*
X125024375Y-37408750D02*
X125024375Y-41648750D01*
X123904375Y-36758750D02*
X123904375Y-37408750D01*
%TO.C,D35*%
X200104375Y-66111250D02*
X200104375Y-65461250D01*
X198984375Y-65461250D02*
X198984375Y-61221250D01*
X201224375Y-65461250D02*
X198984375Y-65461250D01*
X201224375Y-64861250D02*
X198984375Y-64861250D01*
X201224375Y-64741250D02*
X198984375Y-64741250D01*
X201224375Y-64621250D02*
X198984375Y-64621250D01*
X198984375Y-61221250D02*
X201224375Y-61221250D01*
X201224375Y-61221250D02*
X201224375Y-65461250D01*
X200104375Y-60571250D02*
X200104375Y-61221250D01*
%TO.C,D27*%
X162004375Y-42298750D02*
X162004375Y-41648750D01*
X160884375Y-41648750D02*
X160884375Y-37408750D01*
X163124375Y-41648750D02*
X160884375Y-41648750D01*
X163124375Y-41048750D02*
X160884375Y-41048750D01*
X163124375Y-40928750D02*
X160884375Y-40928750D01*
X163124375Y-40808750D02*
X160884375Y-40808750D01*
X160884375Y-37408750D02*
X163124375Y-37408750D01*
X163124375Y-37408750D02*
X163124375Y-41648750D01*
X162004375Y-36758750D02*
X162004375Y-37408750D01*
%TO.C,D34*%
X181054375Y-66111250D02*
X181054375Y-65461250D01*
X179934375Y-65461250D02*
X179934375Y-61221250D01*
X182174375Y-65461250D02*
X179934375Y-65461250D01*
X182174375Y-64861250D02*
X179934375Y-64861250D01*
X182174375Y-64741250D02*
X179934375Y-64741250D01*
X182174375Y-64621250D02*
X179934375Y-64621250D01*
X179934375Y-61221250D02*
X182174375Y-61221250D01*
X182174375Y-61221250D02*
X182174375Y-65461250D01*
X181054375Y-60571250D02*
X181054375Y-61221250D01*
%TO.C,D45*%
X133429375Y-99448750D02*
X133429375Y-98798750D01*
X132309375Y-98798750D02*
X132309375Y-94558750D01*
X134549375Y-98798750D02*
X132309375Y-98798750D01*
X134549375Y-98198750D02*
X132309375Y-98198750D01*
X134549375Y-98078750D02*
X132309375Y-98078750D01*
X134549375Y-97958750D02*
X132309375Y-97958750D01*
X132309375Y-94558750D02*
X134549375Y-94558750D01*
X134549375Y-94558750D02*
X134549375Y-98798750D01*
X133429375Y-93908750D02*
X133429375Y-94558750D01*
%TO.C,D39*%
X142954375Y-75636250D02*
X142954375Y-74986250D01*
X141834375Y-74986250D02*
X141834375Y-70746250D01*
X144074375Y-74986250D02*
X141834375Y-74986250D01*
X144074375Y-74386250D02*
X141834375Y-74386250D01*
X144074375Y-74266250D02*
X141834375Y-74266250D01*
X144074375Y-74146250D02*
X141834375Y-74146250D01*
X141834375Y-70746250D02*
X144074375Y-70746250D01*
X144074375Y-70746250D02*
X144074375Y-74986250D01*
X142954375Y-70096250D02*
X142954375Y-70746250D01*
%TO.C,D37*%
X104854375Y-85161250D02*
X104854375Y-84511250D01*
X103734375Y-84511250D02*
X103734375Y-80271250D01*
X105974375Y-84511250D02*
X103734375Y-84511250D01*
X105974375Y-83911250D02*
X103734375Y-83911250D01*
X105974375Y-83791250D02*
X103734375Y-83791250D01*
X105974375Y-83671250D02*
X103734375Y-83671250D01*
X103734375Y-80271250D02*
X105974375Y-80271250D01*
X105974375Y-80271250D02*
X105974375Y-84511250D01*
X104854375Y-79621250D02*
X104854375Y-80271250D01*
%TO.C,D46*%
X152479375Y-99448750D02*
X152479375Y-98798750D01*
X151359375Y-98798750D02*
X151359375Y-94558750D01*
X153599375Y-98798750D02*
X151359375Y-98798750D01*
X153599375Y-98198750D02*
X151359375Y-98198750D01*
X153599375Y-98078750D02*
X151359375Y-98078750D01*
X153599375Y-97958750D02*
X151359375Y-97958750D01*
X151359375Y-94558750D02*
X153599375Y-94558750D01*
X153599375Y-94558750D02*
X153599375Y-98798750D01*
X152479375Y-93908750D02*
X152479375Y-94558750D01*
%TO.C,D40*%
X162004375Y-80398750D02*
X162004375Y-79748750D01*
X160884375Y-79748750D02*
X160884375Y-75508750D01*
X163124375Y-79748750D02*
X160884375Y-79748750D01*
X163124375Y-79148750D02*
X160884375Y-79148750D01*
X163124375Y-79028750D02*
X160884375Y-79028750D01*
X163124375Y-78908750D02*
X160884375Y-78908750D01*
X160884375Y-75508750D02*
X163124375Y-75508750D01*
X163124375Y-75508750D02*
X163124375Y-79748750D01*
X162004375Y-74858750D02*
X162004375Y-75508750D01*
%TO.C,D31*%
X123904375Y-61348750D02*
X123904375Y-60698750D01*
X122784375Y-60698750D02*
X122784375Y-56458750D01*
X125024375Y-60698750D02*
X122784375Y-60698750D01*
X125024375Y-60098750D02*
X122784375Y-60098750D01*
X125024375Y-59978750D02*
X122784375Y-59978750D01*
X125024375Y-59858750D02*
X122784375Y-59858750D01*
X122784375Y-56458750D02*
X125024375Y-56458750D01*
X125024375Y-56458750D02*
X125024375Y-60698750D01*
X123904375Y-55808750D02*
X123904375Y-56458750D01*
%TO.C,D42*%
X200104375Y-85161250D02*
X200104375Y-84511250D01*
X198984375Y-84511250D02*
X198984375Y-80271250D01*
X201224375Y-84511250D02*
X198984375Y-84511250D01*
X201224375Y-83911250D02*
X198984375Y-83911250D01*
X201224375Y-83791250D02*
X198984375Y-83791250D01*
X201224375Y-83671250D02*
X198984375Y-83671250D01*
X198984375Y-80271250D02*
X201224375Y-80271250D01*
X201224375Y-80271250D02*
X201224375Y-84511250D01*
X200104375Y-79621250D02*
X200104375Y-80271250D01*
%TO.C,D36*%
X85804375Y-80398750D02*
X85804375Y-79748750D01*
X84684375Y-79748750D02*
X84684375Y-75508750D01*
X86924375Y-79748750D02*
X84684375Y-79748750D01*
X86924375Y-79148750D02*
X84684375Y-79148750D01*
X86924375Y-79028750D02*
X84684375Y-79028750D01*
X86924375Y-78908750D02*
X84684375Y-78908750D01*
X84684375Y-75508750D02*
X86924375Y-75508750D01*
X86924375Y-75508750D02*
X86924375Y-79748750D01*
X85804375Y-74858750D02*
X85804375Y-75508750D01*
%TO.C,D33*%
X162004375Y-61348750D02*
X162004375Y-60698750D01*
X160884375Y-60698750D02*
X160884375Y-56458750D01*
X163124375Y-60698750D02*
X160884375Y-60698750D01*
X163124375Y-60098750D02*
X160884375Y-60098750D01*
X163124375Y-59978750D02*
X160884375Y-59978750D01*
X163124375Y-59858750D02*
X160884375Y-59858750D01*
X160884375Y-56458750D02*
X163124375Y-56458750D01*
X163124375Y-56458750D02*
X163124375Y-60698750D01*
X162004375Y-55808750D02*
X162004375Y-56458750D01*
%TO.C,D30*%
X104854375Y-66111250D02*
X104854375Y-65461250D01*
X103734375Y-65461250D02*
X103734375Y-61221250D01*
X105974375Y-65461250D02*
X103734375Y-65461250D01*
X105974375Y-64861250D02*
X103734375Y-64861250D01*
X105974375Y-64741250D02*
X103734375Y-64741250D01*
X105974375Y-64621250D02*
X103734375Y-64621250D01*
X103734375Y-61221250D02*
X105974375Y-61221250D01*
X105974375Y-61221250D02*
X105974375Y-65461250D01*
X104854375Y-60571250D02*
X104854375Y-61221250D01*
%TO.C,D38*%
X123904375Y-80398750D02*
X123904375Y-79748750D01*
X122784375Y-79748750D02*
X122784375Y-75508750D01*
X125024375Y-79748750D02*
X122784375Y-79748750D01*
X125024375Y-79148750D02*
X122784375Y-79148750D01*
X125024375Y-79028750D02*
X122784375Y-79028750D01*
X125024375Y-78908750D02*
X122784375Y-78908750D01*
X122784375Y-75508750D02*
X125024375Y-75508750D01*
X125024375Y-75508750D02*
X125024375Y-79748750D01*
X123904375Y-74858750D02*
X123904375Y-75508750D01*
%TO.C,D32*%
X142954375Y-56586250D02*
X142954375Y-55936250D01*
X141834375Y-55936250D02*
X141834375Y-51696250D01*
X144074375Y-55936250D02*
X141834375Y-55936250D01*
X144074375Y-55336250D02*
X141834375Y-55336250D01*
X144074375Y-55216250D02*
X141834375Y-55216250D01*
X144074375Y-55096250D02*
X141834375Y-55096250D01*
X141834375Y-51696250D02*
X144074375Y-51696250D01*
X144074375Y-51696250D02*
X144074375Y-55936250D01*
X142954375Y-51046250D02*
X142954375Y-51696250D01*
%TO.C,D41*%
X181054375Y-85161250D02*
X181054375Y-84511250D01*
X179934375Y-84511250D02*
X179934375Y-80271250D01*
X182174375Y-84511250D02*
X179934375Y-84511250D01*
X182174375Y-83911250D02*
X179934375Y-83911250D01*
X182174375Y-83791250D02*
X179934375Y-83791250D01*
X182174375Y-83671250D02*
X179934375Y-83671250D01*
X179934375Y-80271250D02*
X182174375Y-80271250D01*
X182174375Y-80271250D02*
X182174375Y-84511250D01*
X181054375Y-79621250D02*
X181054375Y-80271250D01*
%TO.C,D43*%
X90566875Y-104211250D02*
X90566875Y-103561250D01*
X89446875Y-103561250D02*
X89446875Y-99321250D01*
X91686875Y-103561250D02*
X89446875Y-103561250D01*
X91686875Y-102961250D02*
X89446875Y-102961250D01*
X91686875Y-102841250D02*
X89446875Y-102841250D01*
X91686875Y-102721250D02*
X89446875Y-102721250D01*
X89446875Y-99321250D02*
X91686875Y-99321250D01*
X91686875Y-99321250D02*
X91686875Y-103561250D01*
X90566875Y-98671250D02*
X90566875Y-99321250D01*
%TO.C,D24*%
X104854375Y-47061250D02*
X104854375Y-46411250D01*
X103734375Y-46411250D02*
X103734375Y-42171250D01*
X105974375Y-46411250D02*
X103734375Y-46411250D01*
X105974375Y-45811250D02*
X103734375Y-45811250D01*
X105974375Y-45691250D02*
X103734375Y-45691250D01*
X105974375Y-45571250D02*
X103734375Y-45571250D01*
X103734375Y-42171250D02*
X105974375Y-42171250D01*
X105974375Y-42171250D02*
X105974375Y-46411250D01*
X104854375Y-41521250D02*
X104854375Y-42171250D01*
%TO.C,D29*%
X200104375Y-47061250D02*
X200104375Y-46411250D01*
X198984375Y-46411250D02*
X198984375Y-42171250D01*
X201224375Y-46411250D02*
X198984375Y-46411250D01*
X201224375Y-45811250D02*
X198984375Y-45811250D01*
X201224375Y-45691250D02*
X198984375Y-45691250D01*
X201224375Y-45571250D02*
X198984375Y-45571250D01*
X198984375Y-42171250D02*
X201224375Y-42171250D01*
X201224375Y-42171250D02*
X201224375Y-46411250D01*
X200104375Y-41521250D02*
X200104375Y-42171250D01*
%TD*%
D13*
%TO.C,U2*%
X85328125Y-39211250D03*
D14*
X85328125Y-41751250D03*
X85328125Y-44291250D03*
X85328125Y-46831250D03*
X85328125Y-49371250D03*
X85328125Y-51911250D03*
X85328125Y-54451250D03*
X85328125Y-56991250D03*
X85328125Y-59531250D03*
X85328125Y-62071250D03*
X85328125Y-64611250D03*
X85328125Y-67151250D03*
X100568125Y-67151250D03*
X100568125Y-64611250D03*
X100568125Y-62071250D03*
X100568125Y-59531250D03*
X100568125Y-56991250D03*
X100568125Y-54451250D03*
X100568125Y-51911250D03*
X100568125Y-49371250D03*
X100568125Y-46831250D03*
X100568125Y-44291250D03*
X100568125Y-41751250D03*
X100568125Y-39211250D03*
%TD*%
M02*
