G04 #@! TF.GenerationSoftware,KiCad,Pcbnew,7.0.8*
G04 #@! TF.CreationDate,2023-12-05T18:43:10+09:00*
G04 #@! TF.ProjectId,Keyboard,4b657962-6f61-4726-942e-6b696361645f,rev?*
G04 #@! TF.SameCoordinates,Original*
G04 #@! TF.FileFunction,Profile,NP*
%FSLAX46Y46*%
G04 Gerber Fmt 4.6, Leading zero omitted, Abs format (unit mm)*
G04 Created by KiCad (PCBNEW 7.0.8) date 2023-12-05 18:43:10*
%MOMM*%
%LPD*%
G01*
G04 APERTURE LIST*
G04 #@! TA.AperFunction,Profile*
%ADD10C,0.100000*%
G04 #@! TD*
G04 APERTURE END LIST*
D10*
X147637500Y-64293750D02*
X147637500Y-104775000D01*
X154781250Y-104775000D02*
X154781250Y-64293750D01*
X147637500Y-104775000D02*
X154781250Y-104775000D01*
X147637500Y-64293750D02*
X154781250Y-64293750D01*
X147637500Y-59531250D02*
X154781250Y-59531250D01*
X147637500Y-30956250D02*
X154781250Y-30956250D01*
X173831250Y-21431250D02*
X173831250Y-26193750D01*
X211931250Y-21431250D02*
X173831250Y-21431250D01*
X211931250Y-14287500D02*
X211931250Y-21431250D01*
X240506250Y-14287500D02*
X211931250Y-14287500D01*
X240506250Y-19050000D02*
X240506250Y-14287500D01*
X242887500Y-19050000D02*
X240506250Y-19050000D01*
X259556250Y-19050000D02*
X242887500Y-19050000D01*
X259556250Y-23812500D02*
X259556250Y-19050000D01*
X297656250Y-23812500D02*
X259556250Y-23812500D01*
X297656250Y-90487500D02*
X297656250Y-23812500D01*
X240506250Y-90487500D02*
X297656250Y-90487500D01*
X240506250Y-100012500D02*
X240506250Y-90487500D01*
X221456250Y-100012500D02*
X240506250Y-100012500D01*
X221456250Y-104775000D02*
X221456250Y-100012500D01*
X202406250Y-104775000D02*
X221456250Y-104775000D01*
X202406250Y-109537500D02*
X202406250Y-104775000D01*
X154781250Y-30956250D02*
X154781250Y-59531250D01*
X42862500Y-19050000D02*
X42862500Y-23812500D01*
X61912500Y-14287500D02*
X61912500Y-19050000D01*
X90487500Y-16668750D02*
X90487500Y-14287500D01*
X90487500Y-21431250D02*
X90487500Y-16668750D01*
X128587500Y-21431250D02*
X90487500Y-21431250D01*
X128587500Y-26193750D02*
X128587500Y-21431250D01*
X130968750Y-26193750D02*
X128587500Y-26193750D01*
X173831250Y-26193750D02*
X130968750Y-26193750D01*
X147637500Y-59531250D02*
X147637500Y-30956250D01*
X100012500Y-109537500D02*
X202406250Y-109537500D01*
X100012500Y-104775000D02*
X100012500Y-109537500D01*
X80962500Y-104775000D02*
X100012500Y-104775000D01*
X80962500Y-100012500D02*
X80962500Y-104775000D01*
X61912500Y-100012500D02*
X80962500Y-100012500D01*
X61912500Y-90487500D02*
X61912500Y-100012500D01*
X4762500Y-90487500D02*
X61912500Y-90487500D01*
X4762500Y-23812500D02*
X4762500Y-90487500D01*
X9525000Y-23812500D02*
X4762500Y-23812500D01*
X61912500Y-14287500D02*
X90487500Y-14287500D01*
X42862500Y-19050000D02*
X61912500Y-19050000D01*
X9525000Y-23812500D02*
X42862500Y-23812500D01*
M02*
