M48
; DRILL file {KiCad 7.0.8} date Tue Dec  5 18:43:19 2023
; FORMAT={-:-/ absolute / metric / decimal}
; #@! TF.CreationDate,2023-12-05T18:43:19+09:00
; #@! TF.GenerationSoftware,Kicad,Pcbnew,7.0.8
; #@! TF.FileFunction,Plated,1,2,PTH
FMAT,2
METRIC
; #@! TA.AperFunction,Plated,PTH,ViaDrill
T1C0.400
; #@! TA.AperFunction,Plated,PTH,ComponentDrill
T2C0.800
; #@! TA.AperFunction,Plated,PTH,ComponentDrill
T3C0.900
; #@! TA.AperFunction,Plated,PTH,ComponentDrill
T4C1.000
; #@! TA.AperFunction,Plated,PTH,ComponentDrill
T5C1.500
%
G90
G05
T1
X126.672Y-43.458
T2
X28.575Y-33.337
X28.575Y-40.957
X28.575Y-52.387
X28.575Y-60.008
X28.575Y-71.438
X28.575Y-79.057
X47.625Y-33.337
X47.625Y-40.957
X47.625Y-52.387
X47.625Y-60.008
X47.625Y-71.438
X47.625Y-79.057
X66.675Y-28.575
X66.675Y-36.195
X66.675Y-47.625
X66.675Y-55.245
X66.675Y-66.675
X66.675Y-74.295
X85.725Y-23.812
X85.725Y-31.432
X85.725Y-42.862
X85.725Y-50.482
X85.725Y-61.912
X85.725Y-69.532
X85.725Y-80.962
X85.725Y-88.582
X104.775Y-28.575
X104.775Y-36.195
X104.775Y-47.625
X104.775Y-55.245
X104.775Y-66.675
X104.775Y-74.295
X104.775Y-90.487
X104.775Y-98.108
X123.825Y-33.337
X123.825Y-40.957
X123.825Y-52.387
X123.825Y-60.008
X123.825Y-71.438
X123.825Y-79.057
X123.825Y-90.487
X123.825Y-98.108
X142.875Y-71.438
X142.875Y-79.057
X142.875Y-90.487
X142.875Y-98.108
X159.544Y-71.438
X159.544Y-79.057
X159.544Y-90.487
X159.544Y-98.108
X178.594Y-33.337
X178.594Y-40.957
X178.594Y-52.387
X178.594Y-60.008
X178.594Y-71.438
X178.594Y-79.057
X178.594Y-90.487
X178.594Y-98.108
X197.644Y-28.575
X197.644Y-36.195
X197.644Y-47.625
X197.644Y-55.245
X197.644Y-66.675
X197.644Y-74.295
X197.644Y-85.725
X197.644Y-93.345
X216.694Y-23.812
X216.694Y-31.432
X216.694Y-42.862
X216.694Y-50.482
X216.694Y-61.912
X216.694Y-69.532
X216.694Y-80.962
X216.694Y-88.582
X235.744Y-28.575
X235.744Y-36.195
X235.744Y-47.625
X235.744Y-55.245
X235.744Y-66.675
X235.744Y-74.295
X254.794Y-33.337
X254.794Y-40.957
X254.794Y-52.387
X254.794Y-60.008
X254.794Y-71.438
X254.794Y-79.057
X273.844Y-33.337
X273.844Y-40.957
X273.844Y-52.387
X273.844Y-60.008
X273.844Y-71.438
X273.844Y-79.057
T4
X129.968Y-35.24
X129.968Y-37.78
X129.968Y-40.32
X129.968Y-42.86
X129.968Y-45.4
X129.968Y-47.94
X129.968Y-50.48
X129.968Y-53.02
X129.968Y-55.56
X132.507Y-55.56
X135.047Y-55.56
X137.588Y-55.56
X140.127Y-55.56
X142.667Y-55.56
X145.207Y-35.24
X145.207Y-37.78
X145.207Y-40.32
X145.207Y-42.86
X145.207Y-45.4
X145.207Y-47.94
X145.207Y-50.48
X145.207Y-53.02
X145.207Y-55.56
X157.211Y-35.24
X157.211Y-37.78
X157.211Y-40.32
X157.211Y-42.86
X157.211Y-45.4
X157.211Y-47.94
X157.211Y-50.48
X157.211Y-53.02
X157.211Y-55.56
X159.751Y-55.56
X162.291Y-55.56
X164.831Y-55.56
X167.371Y-55.56
X169.911Y-55.56
X172.451Y-35.24
X172.451Y-37.78
X172.451Y-40.32
X172.451Y-42.86
X172.451Y-45.4
X172.451Y-47.94
X172.451Y-50.48
X172.451Y-53.02
X172.451Y-55.56
T5
X15.24Y-35.56
X15.24Y-54.61
X15.24Y-73.66
X21.59Y-33.02
X21.59Y-52.07
X21.59Y-71.12
X34.29Y-35.56
X34.29Y-54.61
X34.29Y-73.66
X40.64Y-33.02
X40.64Y-52.07
X40.64Y-71.12
X53.34Y-30.797
X53.34Y-49.847
X53.34Y-68.897
X59.69Y-28.258
X59.69Y-47.307
X59.69Y-66.358
X72.39Y-26.035
X72.39Y-45.085
X72.39Y-64.135
X72.39Y-83.185
X78.74Y-23.495
X78.74Y-42.545
X78.74Y-61.595
X78.74Y-80.645
X91.44Y-30.797
X91.44Y-49.847
X91.44Y-68.897
X91.44Y-87.947
X97.79Y-28.258
X97.79Y-47.307
X97.79Y-66.358
X97.79Y-85.407
X110.49Y-35.56
X110.49Y-54.61
X110.49Y-73.66
X110.49Y-92.71
X116.84Y-33.02
X116.84Y-52.07
X116.84Y-71.12
X116.84Y-90.17
X129.54Y-73.66
X129.54Y-92.71
X135.89Y-71.12
X135.89Y-90.17
X165.259Y-73.66
X165.259Y-92.71
X171.609Y-71.12
X171.609Y-90.17
X184.309Y-35.56
X184.309Y-54.61
X184.309Y-73.66
X184.309Y-92.71
X190.659Y-33.02
X190.659Y-52.07
X190.659Y-71.12
X190.659Y-90.17
X203.359Y-30.797
X203.359Y-49.847
X203.359Y-68.897
X203.359Y-87.947
X209.709Y-28.258
X209.709Y-47.307
X209.709Y-66.358
X209.709Y-85.407
X222.409Y-26.035
X222.409Y-45.085
X222.409Y-64.135
X222.409Y-83.185
X228.759Y-23.495
X228.759Y-42.545
X228.759Y-61.595
X228.759Y-80.645
X241.459Y-30.797
X241.459Y-49.847
X241.459Y-68.897
X247.809Y-28.258
X247.809Y-47.307
X247.809Y-66.358
X260.509Y-35.56
X260.509Y-54.61
X260.509Y-73.66
X266.859Y-33.02
X266.859Y-52.07
X266.859Y-71.12
X279.559Y-35.56
X279.559Y-54.61
X279.559Y-73.66
X285.909Y-33.02
X285.909Y-52.07
X285.909Y-71.12
T3
X134.537Y-59.612G85X134.137Y-59.612
G05
X135.637Y-64.212G85X135.237Y-64.212
G05
X139.637Y-64.212G85X139.237Y-64.212
G05
X142.637Y-64.212G85X142.237Y-64.212
G05
X159.781Y-59.612G85X160.181Y-59.612
G05
X162.781Y-59.612G85X163.181Y-59.612
G05
X166.781Y-59.612G85X167.181Y-59.612
G05
X167.881Y-64.212G85X168.281Y-64.212
G05
T0
M30
