%TF.GenerationSoftware,KiCad,Pcbnew,7.0.8*%
%TF.CreationDate,2023-12-05T18:43:20+09:00*%
%TF.ProjectId,Keyboard,4b657962-6f61-4726-942e-6b696361645f,rev?*%
%TF.SameCoordinates,Original*%
%TF.FileFunction,Drillmap*%
%TF.FilePolarity,Positive*%
%FSLAX45Y45*%
G04 Gerber Fmt 4.5, Leading zero omitted, Abs format (unit mm)*
G04 Created by KiCad (PCBNEW 7.0.8) date 2023-12-05 18:43:20*
%MOMM*%
%LPD*%
G01*
G04 APERTURE LIST*
%ADD10C,0.100000*%
%ADD11C,0.200000*%
%ADD12C,0.040000*%
%ADD13C,0.080000*%
%ADD14C,0.090000*%
%ADD15C,0.150000*%
G04 APERTURE END LIST*
D10*
X14763750Y-6429375D02*
X14763750Y-10477500D01*
X15478125Y-10477500D02*
X15478125Y-6429375D01*
X14763750Y-10477500D02*
X15478125Y-10477500D01*
X14763750Y-6429375D02*
X15478125Y-6429375D01*
X14763750Y-5953125D02*
X15478125Y-5953125D01*
X14763750Y-3095625D02*
X15478125Y-3095625D01*
X17383125Y-2143125D02*
X17383125Y-2619375D01*
X21193125Y-2143125D02*
X17383125Y-2143125D01*
X21193125Y-1428750D02*
X21193125Y-2143125D01*
X24050625Y-1428750D02*
X21193125Y-1428750D01*
X24050625Y-1905000D02*
X24050625Y-1428750D01*
X24288750Y-1905000D02*
X24050625Y-1905000D01*
X25955625Y-1905000D02*
X24288750Y-1905000D01*
X25955625Y-2381250D02*
X25955625Y-1905000D01*
X29765625Y-2381250D02*
X25955625Y-2381250D01*
X29765625Y-9048750D02*
X29765625Y-2381250D01*
X24050625Y-9048750D02*
X29765625Y-9048750D01*
X24050625Y-10001250D02*
X24050625Y-9048750D01*
X22145625Y-10001250D02*
X24050625Y-10001250D01*
X22145625Y-10477500D02*
X22145625Y-10001250D01*
X20240625Y-10477500D02*
X22145625Y-10477500D01*
X20240625Y-10953750D02*
X20240625Y-10477500D01*
X15478125Y-3095625D02*
X15478125Y-5953125D01*
X4286250Y-1905000D02*
X4286250Y-2381250D01*
X6191250Y-1428750D02*
X6191250Y-1905000D01*
X9048750Y-1666875D02*
X9048750Y-1428750D01*
X9048750Y-2143125D02*
X9048750Y-1666875D01*
X12858750Y-2143125D02*
X9048750Y-2143125D01*
X12858750Y-2619375D02*
X12858750Y-2143125D01*
X13096875Y-2619375D02*
X12858750Y-2619375D01*
X17383125Y-2619375D02*
X13096875Y-2619375D01*
X14763750Y-5953125D02*
X14763750Y-3095625D01*
X10001250Y-10953750D02*
X20240625Y-10953750D01*
X10001250Y-10477500D02*
X10001250Y-10953750D01*
X8096250Y-10477500D02*
X10001250Y-10477500D01*
X8096250Y-10001250D02*
X8096250Y-10477500D01*
X6191250Y-10001250D02*
X8096250Y-10001250D01*
X6191250Y-9048750D02*
X6191250Y-10001250D01*
X476250Y-9048750D02*
X6191250Y-9048750D01*
X476250Y-2381250D02*
X476250Y-9048750D01*
X952500Y-2381250D02*
X476250Y-2381250D01*
X6191250Y-1428750D02*
X9048750Y-1428750D01*
X4286250Y-1905000D02*
X6191250Y-1905000D01*
X952500Y-2381250D02*
X4286250Y-2381250D01*
D11*
D12*
X12647247Y-4325783D02*
X12687247Y-4365783D01*
X12687247Y-4325783D02*
X12647247Y-4365783D01*
D13*
X2897500Y-3333750D02*
G75*
G03*
X2897500Y-3333750I-40000J0D01*
G01*
X2897500Y-4095750D02*
G75*
G03*
X2897500Y-4095750I-40000J0D01*
G01*
X2897500Y-5238750D02*
G75*
G03*
X2897500Y-5238750I-40000J0D01*
G01*
X2897500Y-6000750D02*
G75*
G03*
X2897500Y-6000750I-40000J0D01*
G01*
X2897500Y-7143750D02*
G75*
G03*
X2897500Y-7143750I-40000J0D01*
G01*
X2897500Y-7905750D02*
G75*
G03*
X2897500Y-7905750I-40000J0D01*
G01*
X4802500Y-3333750D02*
G75*
G03*
X4802500Y-3333750I-40000J0D01*
G01*
X4802500Y-4095750D02*
G75*
G03*
X4802500Y-4095750I-40000J0D01*
G01*
X4802500Y-5238750D02*
G75*
G03*
X4802500Y-5238750I-40000J0D01*
G01*
X4802500Y-6000750D02*
G75*
G03*
X4802500Y-6000750I-40000J0D01*
G01*
X4802500Y-7143750D02*
G75*
G03*
X4802500Y-7143750I-40000J0D01*
G01*
X4802500Y-7905750D02*
G75*
G03*
X4802500Y-7905750I-40000J0D01*
G01*
X6707500Y-2857500D02*
G75*
G03*
X6707500Y-2857500I-40000J0D01*
G01*
X6707500Y-3619500D02*
G75*
G03*
X6707500Y-3619500I-40000J0D01*
G01*
X6707500Y-4762500D02*
G75*
G03*
X6707500Y-4762500I-40000J0D01*
G01*
X6707500Y-5524500D02*
G75*
G03*
X6707500Y-5524500I-40000J0D01*
G01*
X6707500Y-6667500D02*
G75*
G03*
X6707500Y-6667500I-40000J0D01*
G01*
X6707500Y-7429500D02*
G75*
G03*
X6707500Y-7429500I-40000J0D01*
G01*
X8612500Y-2381250D02*
G75*
G03*
X8612500Y-2381250I-40000J0D01*
G01*
X8612500Y-3143250D02*
G75*
G03*
X8612500Y-3143250I-40000J0D01*
G01*
X8612500Y-4286250D02*
G75*
G03*
X8612500Y-4286250I-40000J0D01*
G01*
X8612500Y-5048250D02*
G75*
G03*
X8612500Y-5048250I-40000J0D01*
G01*
X8612500Y-6191250D02*
G75*
G03*
X8612500Y-6191250I-40000J0D01*
G01*
X8612500Y-6953250D02*
G75*
G03*
X8612500Y-6953250I-40000J0D01*
G01*
X8612500Y-8096250D02*
G75*
G03*
X8612500Y-8096250I-40000J0D01*
G01*
X8612500Y-8858250D02*
G75*
G03*
X8612500Y-8858250I-40000J0D01*
G01*
X10517500Y-2857500D02*
G75*
G03*
X10517500Y-2857500I-40000J0D01*
G01*
X10517500Y-3619500D02*
G75*
G03*
X10517500Y-3619500I-40000J0D01*
G01*
X10517500Y-4762500D02*
G75*
G03*
X10517500Y-4762500I-40000J0D01*
G01*
X10517500Y-5524500D02*
G75*
G03*
X10517500Y-5524500I-40000J0D01*
G01*
X10517500Y-6667500D02*
G75*
G03*
X10517500Y-6667500I-40000J0D01*
G01*
X10517500Y-7429500D02*
G75*
G03*
X10517500Y-7429500I-40000J0D01*
G01*
X10517500Y-9048750D02*
G75*
G03*
X10517500Y-9048750I-40000J0D01*
G01*
X10517500Y-9810750D02*
G75*
G03*
X10517500Y-9810750I-40000J0D01*
G01*
X12422500Y-3333750D02*
G75*
G03*
X12422500Y-3333750I-40000J0D01*
G01*
X12422500Y-4095750D02*
G75*
G03*
X12422500Y-4095750I-40000J0D01*
G01*
X12422500Y-5238750D02*
G75*
G03*
X12422500Y-5238750I-40000J0D01*
G01*
X12422500Y-6000750D02*
G75*
G03*
X12422500Y-6000750I-40000J0D01*
G01*
X12422500Y-7143750D02*
G75*
G03*
X12422500Y-7143750I-40000J0D01*
G01*
X12422500Y-7905750D02*
G75*
G03*
X12422500Y-7905750I-40000J0D01*
G01*
X12422500Y-9048750D02*
G75*
G03*
X12422500Y-9048750I-40000J0D01*
G01*
X12422500Y-9810750D02*
G75*
G03*
X12422500Y-9810750I-40000J0D01*
G01*
X14327500Y-7143750D02*
G75*
G03*
X14327500Y-7143750I-40000J0D01*
G01*
X14327500Y-7905750D02*
G75*
G03*
X14327500Y-7905750I-40000J0D01*
G01*
X14327500Y-9048750D02*
G75*
G03*
X14327500Y-9048750I-40000J0D01*
G01*
X14327500Y-9810750D02*
G75*
G03*
X14327500Y-9810750I-40000J0D01*
G01*
X15994375Y-7143750D02*
G75*
G03*
X15994375Y-7143750I-40000J0D01*
G01*
X15994375Y-7905750D02*
G75*
G03*
X15994375Y-7905750I-40000J0D01*
G01*
X15994375Y-9048750D02*
G75*
G03*
X15994375Y-9048750I-40000J0D01*
G01*
X15994375Y-9810750D02*
G75*
G03*
X15994375Y-9810750I-40000J0D01*
G01*
X17899375Y-3333750D02*
G75*
G03*
X17899375Y-3333750I-40000J0D01*
G01*
X17899375Y-4095750D02*
G75*
G03*
X17899375Y-4095750I-40000J0D01*
G01*
X17899375Y-5238750D02*
G75*
G03*
X17899375Y-5238750I-40000J0D01*
G01*
X17899375Y-6000750D02*
G75*
G03*
X17899375Y-6000750I-40000J0D01*
G01*
X17899375Y-7143750D02*
G75*
G03*
X17899375Y-7143750I-40000J0D01*
G01*
X17899375Y-7905750D02*
G75*
G03*
X17899375Y-7905750I-40000J0D01*
G01*
X17899375Y-9048750D02*
G75*
G03*
X17899375Y-9048750I-40000J0D01*
G01*
X17899375Y-9810750D02*
G75*
G03*
X17899375Y-9810750I-40000J0D01*
G01*
X19804375Y-2857500D02*
G75*
G03*
X19804375Y-2857500I-40000J0D01*
G01*
X19804375Y-3619500D02*
G75*
G03*
X19804375Y-3619500I-40000J0D01*
G01*
X19804375Y-4762500D02*
G75*
G03*
X19804375Y-4762500I-40000J0D01*
G01*
X19804375Y-5524500D02*
G75*
G03*
X19804375Y-5524500I-40000J0D01*
G01*
X19804375Y-6667500D02*
G75*
G03*
X19804375Y-6667500I-40000J0D01*
G01*
X19804375Y-7429500D02*
G75*
G03*
X19804375Y-7429500I-40000J0D01*
G01*
X19804375Y-8572500D02*
G75*
G03*
X19804375Y-8572500I-40000J0D01*
G01*
X19804375Y-9334500D02*
G75*
G03*
X19804375Y-9334500I-40000J0D01*
G01*
X21709375Y-2381250D02*
G75*
G03*
X21709375Y-2381250I-40000J0D01*
G01*
X21709375Y-3143250D02*
G75*
G03*
X21709375Y-3143250I-40000J0D01*
G01*
X21709375Y-4286250D02*
G75*
G03*
X21709375Y-4286250I-40000J0D01*
G01*
X21709375Y-5048250D02*
G75*
G03*
X21709375Y-5048250I-40000J0D01*
G01*
X21709375Y-6191250D02*
G75*
G03*
X21709375Y-6191250I-40000J0D01*
G01*
X21709375Y-6953250D02*
G75*
G03*
X21709375Y-6953250I-40000J0D01*
G01*
X21709375Y-8096250D02*
G75*
G03*
X21709375Y-8096250I-40000J0D01*
G01*
X21709375Y-8858250D02*
G75*
G03*
X21709375Y-8858250I-40000J0D01*
G01*
X23614375Y-2857500D02*
G75*
G03*
X23614375Y-2857500I-40000J0D01*
G01*
X23614375Y-3619500D02*
G75*
G03*
X23614375Y-3619500I-40000J0D01*
G01*
X23614375Y-4762500D02*
G75*
G03*
X23614375Y-4762500I-40000J0D01*
G01*
X23614375Y-5524500D02*
G75*
G03*
X23614375Y-5524500I-40000J0D01*
G01*
X23614375Y-6667500D02*
G75*
G03*
X23614375Y-6667500I-40000J0D01*
G01*
X23614375Y-7429500D02*
G75*
G03*
X23614375Y-7429500I-40000J0D01*
G01*
X25519375Y-3333750D02*
G75*
G03*
X25519375Y-3333750I-40000J0D01*
G01*
X25519375Y-4095750D02*
G75*
G03*
X25519375Y-4095750I-40000J0D01*
G01*
X25519375Y-5238750D02*
G75*
G03*
X25519375Y-5238750I-40000J0D01*
G01*
X25519375Y-6000750D02*
G75*
G03*
X25519375Y-6000750I-40000J0D01*
G01*
X25519375Y-7143750D02*
G75*
G03*
X25519375Y-7143750I-40000J0D01*
G01*
X25519375Y-7905750D02*
G75*
G03*
X25519375Y-7905750I-40000J0D01*
G01*
X27424375Y-3333750D02*
G75*
G03*
X27424375Y-3333750I-40000J0D01*
G01*
X27424375Y-4095750D02*
G75*
G03*
X27424375Y-4095750I-40000J0D01*
G01*
X27424375Y-5238750D02*
G75*
G03*
X27424375Y-5238750I-40000J0D01*
G01*
X27424375Y-6000750D02*
G75*
G03*
X27424375Y-6000750I-40000J0D01*
G01*
X27424375Y-7143750D02*
G75*
G03*
X27424375Y-7143750I-40000J0D01*
G01*
X27424375Y-7905750D02*
G75*
G03*
X27424375Y-7905750I-40000J0D01*
G01*
D14*
X13433750Y-5916250D02*
X13433750Y-6006250D01*
X13388750Y-5961250D02*
X13478750Y-5961250D01*
D11*
X13453750Y-5916250D02*
X13413750Y-5916250D01*
X13413750Y-5916250D02*
G75*
G03*
X13413750Y-6006250I0J-45000D01*
G01*
X13413750Y-6006250D02*
X13453750Y-6006250D01*
X13453750Y-6006250D02*
G75*
G03*
X13453750Y-5916250I0J45000D01*
G01*
D14*
X13543750Y-6376250D02*
X13543750Y-6466250D01*
X13498750Y-6421250D02*
X13588750Y-6421250D01*
D11*
X13563750Y-6376250D02*
X13523750Y-6376250D01*
X13523750Y-6376250D02*
G75*
G03*
X13523750Y-6466250I0J-45000D01*
G01*
X13523750Y-6466250D02*
X13563750Y-6466250D01*
X13563750Y-6466250D02*
G75*
G03*
X13563750Y-6376250I0J45000D01*
G01*
D14*
X13943750Y-6376250D02*
X13943750Y-6466250D01*
X13898750Y-6421250D02*
X13988750Y-6421250D01*
D11*
X13963750Y-6376250D02*
X13923750Y-6376250D01*
X13923750Y-6376250D02*
G75*
G03*
X13923750Y-6466250I0J-45000D01*
G01*
X13923750Y-6466250D02*
X13963750Y-6466250D01*
X13963750Y-6466250D02*
G75*
G03*
X13963750Y-6376250I0J45000D01*
G01*
D14*
X14243750Y-6376250D02*
X14243750Y-6466250D01*
X14198750Y-6421250D02*
X14288750Y-6421250D01*
D11*
X14263750Y-6376250D02*
X14223750Y-6376250D01*
X14223750Y-6376250D02*
G75*
G03*
X14223750Y-6466250I0J-45000D01*
G01*
X14223750Y-6466250D02*
X14263750Y-6466250D01*
X14263750Y-6466250D02*
G75*
G03*
X14263750Y-6376250I0J45000D01*
G01*
D14*
X15998125Y-5916250D02*
X15998125Y-6006250D01*
X15953125Y-5961250D02*
X16043125Y-5961250D01*
D11*
X15978125Y-6006250D02*
X16018125Y-6006250D01*
X16018125Y-6006250D02*
G75*
G03*
X16018125Y-5916250I0J45000D01*
G01*
X16018125Y-5916250D02*
X15978125Y-5916250D01*
X15978125Y-5916250D02*
G75*
G03*
X15978125Y-6006250I0J-45000D01*
G01*
D14*
X16298125Y-5916250D02*
X16298125Y-6006250D01*
X16253125Y-5961250D02*
X16343125Y-5961250D01*
D11*
X16278125Y-6006250D02*
X16318125Y-6006250D01*
X16318125Y-6006250D02*
G75*
G03*
X16318125Y-5916250I0J45000D01*
G01*
X16318125Y-5916250D02*
X16278125Y-5916250D01*
X16278125Y-5916250D02*
G75*
G03*
X16278125Y-6006250I0J-45000D01*
G01*
D14*
X16698125Y-5916250D02*
X16698125Y-6006250D01*
X16653125Y-5961250D02*
X16743125Y-5961250D01*
D11*
X16678125Y-6006250D02*
X16718125Y-6006250D01*
X16718125Y-6006250D02*
G75*
G03*
X16718125Y-5916250I0J45000D01*
G01*
X16718125Y-5916250D02*
X16678125Y-5916250D01*
X16678125Y-5916250D02*
G75*
G03*
X16678125Y-6006250I0J-45000D01*
G01*
D14*
X16808125Y-6376250D02*
X16808125Y-6466250D01*
X16763125Y-6421250D02*
X16853125Y-6421250D01*
D11*
X16788125Y-6466250D02*
X16828125Y-6466250D01*
X16828125Y-6466250D02*
G75*
G03*
X16828125Y-6376250I0J45000D01*
G01*
X16828125Y-6376250D02*
X16788125Y-6376250D01*
X16788125Y-6376250D02*
G75*
G03*
X16788125Y-6466250I0J-45000D01*
G01*
D10*
X13032106Y-3559356D02*
X13032106Y-3488644D01*
X12961394Y-3488644D01*
X12961394Y-3559356D01*
X13032106Y-3559356D01*
X13032106Y-3813356D02*
X13032106Y-3742644D01*
X12961394Y-3742644D01*
X12961394Y-3813356D01*
X13032106Y-3813356D01*
X13032106Y-4067356D02*
X13032106Y-3996644D01*
X12961394Y-3996644D01*
X12961394Y-4067356D01*
X13032106Y-4067356D01*
X13032106Y-4321356D02*
X13032106Y-4250644D01*
X12961394Y-4250644D01*
X12961394Y-4321356D01*
X13032106Y-4321356D01*
X13032106Y-4575356D02*
X13032106Y-4504644D01*
X12961394Y-4504644D01*
X12961394Y-4575356D01*
X13032106Y-4575356D01*
X13032106Y-4829356D02*
X13032106Y-4758644D01*
X12961394Y-4758644D01*
X12961394Y-4829356D01*
X13032106Y-4829356D01*
X13032106Y-5083356D02*
X13032106Y-5012644D01*
X12961394Y-5012644D01*
X12961394Y-5083356D01*
X13032106Y-5083356D01*
X13032106Y-5337356D02*
X13032106Y-5266644D01*
X12961394Y-5266644D01*
X12961394Y-5337356D01*
X13032106Y-5337356D01*
X13032106Y-5591356D02*
X13032106Y-5520644D01*
X12961394Y-5520644D01*
X12961394Y-5591356D01*
X13032106Y-5591356D01*
X13286106Y-5591356D02*
X13286106Y-5520644D01*
X13215394Y-5520644D01*
X13215394Y-5591356D01*
X13286106Y-5591356D01*
X13540106Y-5591356D02*
X13540106Y-5520644D01*
X13469394Y-5520644D01*
X13469394Y-5591356D01*
X13540106Y-5591356D01*
X13794106Y-5591356D02*
X13794106Y-5520644D01*
X13723394Y-5520644D01*
X13723394Y-5591356D01*
X13794106Y-5591356D01*
X14048106Y-5591356D02*
X14048106Y-5520644D01*
X13977394Y-5520644D01*
X13977394Y-5591356D01*
X14048106Y-5591356D01*
X14302106Y-5591356D02*
X14302106Y-5520644D01*
X14231394Y-5520644D01*
X14231394Y-5591356D01*
X14302106Y-5591356D01*
X14556106Y-3559356D02*
X14556106Y-3488644D01*
X14485394Y-3488644D01*
X14485394Y-3559356D01*
X14556106Y-3559356D01*
X14556106Y-3813356D02*
X14556106Y-3742644D01*
X14485394Y-3742644D01*
X14485394Y-3813356D01*
X14556106Y-3813356D01*
X14556106Y-4067356D02*
X14556106Y-3996644D01*
X14485394Y-3996644D01*
X14485394Y-4067356D01*
X14556106Y-4067356D01*
X14556106Y-4321356D02*
X14556106Y-4250644D01*
X14485394Y-4250644D01*
X14485394Y-4321356D01*
X14556106Y-4321356D01*
X14556106Y-4575356D02*
X14556106Y-4504644D01*
X14485394Y-4504644D01*
X14485394Y-4575356D01*
X14556106Y-4575356D01*
X14556106Y-4829356D02*
X14556106Y-4758644D01*
X14485394Y-4758644D01*
X14485394Y-4829356D01*
X14556106Y-4829356D01*
X14556106Y-5083356D02*
X14556106Y-5012644D01*
X14485394Y-5012644D01*
X14485394Y-5083356D01*
X14556106Y-5083356D01*
X14556106Y-5337356D02*
X14556106Y-5266644D01*
X14485394Y-5266644D01*
X14485394Y-5337356D01*
X14556106Y-5337356D01*
X14556106Y-5591356D02*
X14556106Y-5520644D01*
X14485394Y-5520644D01*
X14485394Y-5591356D01*
X14556106Y-5591356D01*
X15756481Y-3559356D02*
X15756481Y-3488644D01*
X15685769Y-3488644D01*
X15685769Y-3559356D01*
X15756481Y-3559356D01*
X15756481Y-3813356D02*
X15756481Y-3742644D01*
X15685769Y-3742644D01*
X15685769Y-3813356D01*
X15756481Y-3813356D01*
X15756481Y-4067356D02*
X15756481Y-3996644D01*
X15685769Y-3996644D01*
X15685769Y-4067356D01*
X15756481Y-4067356D01*
X15756481Y-4321356D02*
X15756481Y-4250644D01*
X15685769Y-4250644D01*
X15685769Y-4321356D01*
X15756481Y-4321356D01*
X15756481Y-4575356D02*
X15756481Y-4504644D01*
X15685769Y-4504644D01*
X15685769Y-4575356D01*
X15756481Y-4575356D01*
X15756481Y-4829356D02*
X15756481Y-4758644D01*
X15685769Y-4758644D01*
X15685769Y-4829356D01*
X15756481Y-4829356D01*
X15756481Y-5083356D02*
X15756481Y-5012644D01*
X15685769Y-5012644D01*
X15685769Y-5083356D01*
X15756481Y-5083356D01*
X15756481Y-5337356D02*
X15756481Y-5266644D01*
X15685769Y-5266644D01*
X15685769Y-5337356D01*
X15756481Y-5337356D01*
X15756481Y-5591356D02*
X15756481Y-5520644D01*
X15685769Y-5520644D01*
X15685769Y-5591356D01*
X15756481Y-5591356D01*
X16010481Y-5591356D02*
X16010481Y-5520644D01*
X15939769Y-5520644D01*
X15939769Y-5591356D01*
X16010481Y-5591356D01*
X16264481Y-5591356D02*
X16264481Y-5520644D01*
X16193769Y-5520644D01*
X16193769Y-5591356D01*
X16264481Y-5591356D01*
X16518481Y-5591356D02*
X16518481Y-5520644D01*
X16447769Y-5520644D01*
X16447769Y-5591356D01*
X16518481Y-5591356D01*
X16772481Y-5591356D02*
X16772481Y-5520644D01*
X16701769Y-5520644D01*
X16701769Y-5591356D01*
X16772481Y-5591356D01*
X17026481Y-5591356D02*
X17026481Y-5520644D01*
X16955769Y-5520644D01*
X16955769Y-5591356D01*
X17026481Y-5591356D01*
X17280481Y-3559356D02*
X17280481Y-3488644D01*
X17209769Y-3488644D01*
X17209769Y-3559356D01*
X17280481Y-3559356D01*
X17280481Y-3813356D02*
X17280481Y-3742644D01*
X17209769Y-3742644D01*
X17209769Y-3813356D01*
X17280481Y-3813356D01*
X17280481Y-4067356D02*
X17280481Y-3996644D01*
X17209769Y-3996644D01*
X17209769Y-4067356D01*
X17280481Y-4067356D01*
X17280481Y-4321356D02*
X17280481Y-4250644D01*
X17209769Y-4250644D01*
X17209769Y-4321356D01*
X17280481Y-4321356D01*
X17280481Y-4575356D02*
X17280481Y-4504644D01*
X17209769Y-4504644D01*
X17209769Y-4575356D01*
X17280481Y-4575356D01*
X17280481Y-4829356D02*
X17280481Y-4758644D01*
X17209769Y-4758644D01*
X17209769Y-4829356D01*
X17280481Y-4829356D01*
X17280481Y-5083356D02*
X17280481Y-5012644D01*
X17209769Y-5012644D01*
X17209769Y-5083356D01*
X17280481Y-5083356D01*
X17280481Y-5337356D02*
X17280481Y-5266644D01*
X17209769Y-5266644D01*
X17209769Y-5337356D01*
X17280481Y-5337356D01*
X17280481Y-5591356D02*
X17280481Y-5520644D01*
X17209769Y-5520644D01*
X17209769Y-5591356D01*
X17280481Y-5591356D01*
D15*
X1524000Y-3631000D02*
X1599000Y-3556000D01*
X1524000Y-3481000D01*
X1449000Y-3556000D01*
X1524000Y-3631000D01*
X1524000Y-5536000D02*
X1599000Y-5461000D01*
X1524000Y-5386000D01*
X1449000Y-5461000D01*
X1524000Y-5536000D01*
X1524000Y-7441000D02*
X1599000Y-7366000D01*
X1524000Y-7291000D01*
X1449000Y-7366000D01*
X1524000Y-7441000D01*
X2159000Y-3377000D02*
X2234000Y-3302000D01*
X2159000Y-3227000D01*
X2084000Y-3302000D01*
X2159000Y-3377000D01*
X2159000Y-5282000D02*
X2234000Y-5207000D01*
X2159000Y-5132000D01*
X2084000Y-5207000D01*
X2159000Y-5282000D01*
X2159000Y-7187000D02*
X2234000Y-7112000D01*
X2159000Y-7037000D01*
X2084000Y-7112000D01*
X2159000Y-7187000D01*
X3429000Y-3631000D02*
X3504000Y-3556000D01*
X3429000Y-3481000D01*
X3354000Y-3556000D01*
X3429000Y-3631000D01*
X3429000Y-5536000D02*
X3504000Y-5461000D01*
X3429000Y-5386000D01*
X3354000Y-5461000D01*
X3429000Y-5536000D01*
X3429000Y-7441000D02*
X3504000Y-7366000D01*
X3429000Y-7291000D01*
X3354000Y-7366000D01*
X3429000Y-7441000D01*
X4064000Y-3377000D02*
X4139000Y-3302000D01*
X4064000Y-3227000D01*
X3989000Y-3302000D01*
X4064000Y-3377000D01*
X4064000Y-5282000D02*
X4139000Y-5207000D01*
X4064000Y-5132000D01*
X3989000Y-5207000D01*
X4064000Y-5282000D01*
X4064000Y-7187000D02*
X4139000Y-7112000D01*
X4064000Y-7037000D01*
X3989000Y-7112000D01*
X4064000Y-7187000D01*
X5334000Y-3154750D02*
X5409000Y-3079750D01*
X5334000Y-3004750D01*
X5259000Y-3079750D01*
X5334000Y-3154750D01*
X5334000Y-5059750D02*
X5409000Y-4984750D01*
X5334000Y-4909750D01*
X5259000Y-4984750D01*
X5334000Y-5059750D01*
X5334000Y-6964750D02*
X5409000Y-6889750D01*
X5334000Y-6814750D01*
X5259000Y-6889750D01*
X5334000Y-6964750D01*
X5969000Y-2900750D02*
X6044000Y-2825750D01*
X5969000Y-2750750D01*
X5894000Y-2825750D01*
X5969000Y-2900750D01*
X5969000Y-4805750D02*
X6044000Y-4730750D01*
X5969000Y-4655750D01*
X5894000Y-4730750D01*
X5969000Y-4805750D01*
X5969000Y-6710750D02*
X6044000Y-6635750D01*
X5969000Y-6560750D01*
X5894000Y-6635750D01*
X5969000Y-6710750D01*
X7239000Y-2678500D02*
X7314000Y-2603500D01*
X7239000Y-2528500D01*
X7164000Y-2603500D01*
X7239000Y-2678500D01*
X7239000Y-4583500D02*
X7314000Y-4508500D01*
X7239000Y-4433500D01*
X7164000Y-4508500D01*
X7239000Y-4583500D01*
X7239000Y-6488500D02*
X7314000Y-6413500D01*
X7239000Y-6338500D01*
X7164000Y-6413500D01*
X7239000Y-6488500D01*
X7239000Y-8393500D02*
X7314000Y-8318500D01*
X7239000Y-8243500D01*
X7164000Y-8318500D01*
X7239000Y-8393500D01*
X7874000Y-2424500D02*
X7949000Y-2349500D01*
X7874000Y-2274500D01*
X7799000Y-2349500D01*
X7874000Y-2424500D01*
X7874000Y-4329500D02*
X7949000Y-4254500D01*
X7874000Y-4179500D01*
X7799000Y-4254500D01*
X7874000Y-4329500D01*
X7874000Y-6234500D02*
X7949000Y-6159500D01*
X7874000Y-6084500D01*
X7799000Y-6159500D01*
X7874000Y-6234500D01*
X7874000Y-8139500D02*
X7949000Y-8064500D01*
X7874000Y-7989500D01*
X7799000Y-8064500D01*
X7874000Y-8139500D01*
X9144000Y-3154750D02*
X9219000Y-3079750D01*
X9144000Y-3004750D01*
X9069000Y-3079750D01*
X9144000Y-3154750D01*
X9144000Y-5059750D02*
X9219000Y-4984750D01*
X9144000Y-4909750D01*
X9069000Y-4984750D01*
X9144000Y-5059750D01*
X9144000Y-6964750D02*
X9219000Y-6889750D01*
X9144000Y-6814750D01*
X9069000Y-6889750D01*
X9144000Y-6964750D01*
X9144000Y-8869750D02*
X9219000Y-8794750D01*
X9144000Y-8719750D01*
X9069000Y-8794750D01*
X9144000Y-8869750D01*
X9779000Y-2900750D02*
X9854000Y-2825750D01*
X9779000Y-2750750D01*
X9704000Y-2825750D01*
X9779000Y-2900750D01*
X9779000Y-4805750D02*
X9854000Y-4730750D01*
X9779000Y-4655750D01*
X9704000Y-4730750D01*
X9779000Y-4805750D01*
X9779000Y-6710750D02*
X9854000Y-6635750D01*
X9779000Y-6560750D01*
X9704000Y-6635750D01*
X9779000Y-6710750D01*
X9779000Y-8615750D02*
X9854000Y-8540750D01*
X9779000Y-8465750D01*
X9704000Y-8540750D01*
X9779000Y-8615750D01*
X11049000Y-3631000D02*
X11124000Y-3556000D01*
X11049000Y-3481000D01*
X10974000Y-3556000D01*
X11049000Y-3631000D01*
X11049000Y-5536000D02*
X11124000Y-5461000D01*
X11049000Y-5386000D01*
X10974000Y-5461000D01*
X11049000Y-5536000D01*
X11049000Y-7441000D02*
X11124000Y-7366000D01*
X11049000Y-7291000D01*
X10974000Y-7366000D01*
X11049000Y-7441000D01*
X11049000Y-9346000D02*
X11124000Y-9271000D01*
X11049000Y-9196000D01*
X10974000Y-9271000D01*
X11049000Y-9346000D01*
X11684000Y-3377000D02*
X11759000Y-3302000D01*
X11684000Y-3227000D01*
X11609000Y-3302000D01*
X11684000Y-3377000D01*
X11684000Y-5282000D02*
X11759000Y-5207000D01*
X11684000Y-5132000D01*
X11609000Y-5207000D01*
X11684000Y-5282000D01*
X11684000Y-7187000D02*
X11759000Y-7112000D01*
X11684000Y-7037000D01*
X11609000Y-7112000D01*
X11684000Y-7187000D01*
X11684000Y-9092000D02*
X11759000Y-9017000D01*
X11684000Y-8942000D01*
X11609000Y-9017000D01*
X11684000Y-9092000D01*
X12954000Y-7441000D02*
X13029000Y-7366000D01*
X12954000Y-7291000D01*
X12879000Y-7366000D01*
X12954000Y-7441000D01*
X12954000Y-9346000D02*
X13029000Y-9271000D01*
X12954000Y-9196000D01*
X12879000Y-9271000D01*
X12954000Y-9346000D01*
X13589000Y-7187000D02*
X13664000Y-7112000D01*
X13589000Y-7037000D01*
X13514000Y-7112000D01*
X13589000Y-7187000D01*
X13589000Y-9092000D02*
X13664000Y-9017000D01*
X13589000Y-8942000D01*
X13514000Y-9017000D01*
X13589000Y-9092000D01*
X16525875Y-7441000D02*
X16600875Y-7366000D01*
X16525875Y-7291000D01*
X16450875Y-7366000D01*
X16525875Y-7441000D01*
X16525875Y-9346000D02*
X16600875Y-9271000D01*
X16525875Y-9196000D01*
X16450875Y-9271000D01*
X16525875Y-9346000D01*
X17160875Y-7187000D02*
X17235875Y-7112000D01*
X17160875Y-7037000D01*
X17085875Y-7112000D01*
X17160875Y-7187000D01*
X17160875Y-9092000D02*
X17235875Y-9017000D01*
X17160875Y-8942000D01*
X17085875Y-9017000D01*
X17160875Y-9092000D01*
X18430875Y-3631000D02*
X18505875Y-3556000D01*
X18430875Y-3481000D01*
X18355875Y-3556000D01*
X18430875Y-3631000D01*
X18430875Y-5536000D02*
X18505875Y-5461000D01*
X18430875Y-5386000D01*
X18355875Y-5461000D01*
X18430875Y-5536000D01*
X18430875Y-7441000D02*
X18505875Y-7366000D01*
X18430875Y-7291000D01*
X18355875Y-7366000D01*
X18430875Y-7441000D01*
X18430875Y-9346000D02*
X18505875Y-9271000D01*
X18430875Y-9196000D01*
X18355875Y-9271000D01*
X18430875Y-9346000D01*
X19065875Y-3377000D02*
X19140875Y-3302000D01*
X19065875Y-3227000D01*
X18990875Y-3302000D01*
X19065875Y-3377000D01*
X19065875Y-5282000D02*
X19140875Y-5207000D01*
X19065875Y-5132000D01*
X18990875Y-5207000D01*
X19065875Y-5282000D01*
X19065875Y-7187000D02*
X19140875Y-7112000D01*
X19065875Y-7037000D01*
X18990875Y-7112000D01*
X19065875Y-7187000D01*
X19065875Y-9092000D02*
X19140875Y-9017000D01*
X19065875Y-8942000D01*
X18990875Y-9017000D01*
X19065875Y-9092000D01*
X20335875Y-3154750D02*
X20410875Y-3079750D01*
X20335875Y-3004750D01*
X20260875Y-3079750D01*
X20335875Y-3154750D01*
X20335875Y-5059750D02*
X20410875Y-4984750D01*
X20335875Y-4909750D01*
X20260875Y-4984750D01*
X20335875Y-5059750D01*
X20335875Y-6964750D02*
X20410875Y-6889750D01*
X20335875Y-6814750D01*
X20260875Y-6889750D01*
X20335875Y-6964750D01*
X20335875Y-8869750D02*
X20410875Y-8794750D01*
X20335875Y-8719750D01*
X20260875Y-8794750D01*
X20335875Y-8869750D01*
X20970875Y-2900750D02*
X21045875Y-2825750D01*
X20970875Y-2750750D01*
X20895875Y-2825750D01*
X20970875Y-2900750D01*
X20970875Y-4805750D02*
X21045875Y-4730750D01*
X20970875Y-4655750D01*
X20895875Y-4730750D01*
X20970875Y-4805750D01*
X20970875Y-6710750D02*
X21045875Y-6635750D01*
X20970875Y-6560750D01*
X20895875Y-6635750D01*
X20970875Y-6710750D01*
X20970875Y-8615750D02*
X21045875Y-8540750D01*
X20970875Y-8465750D01*
X20895875Y-8540750D01*
X20970875Y-8615750D01*
X22240875Y-2678500D02*
X22315875Y-2603500D01*
X22240875Y-2528500D01*
X22165875Y-2603500D01*
X22240875Y-2678500D01*
X22240875Y-4583500D02*
X22315875Y-4508500D01*
X22240875Y-4433500D01*
X22165875Y-4508500D01*
X22240875Y-4583500D01*
X22240875Y-6488500D02*
X22315875Y-6413500D01*
X22240875Y-6338500D01*
X22165875Y-6413500D01*
X22240875Y-6488500D01*
X22240875Y-8393500D02*
X22315875Y-8318500D01*
X22240875Y-8243500D01*
X22165875Y-8318500D01*
X22240875Y-8393500D01*
X22875875Y-2424500D02*
X22950875Y-2349500D01*
X22875875Y-2274500D01*
X22800875Y-2349500D01*
X22875875Y-2424500D01*
X22875875Y-4329500D02*
X22950875Y-4254500D01*
X22875875Y-4179500D01*
X22800875Y-4254500D01*
X22875875Y-4329500D01*
X22875875Y-6234500D02*
X22950875Y-6159500D01*
X22875875Y-6084500D01*
X22800875Y-6159500D01*
X22875875Y-6234500D01*
X22875875Y-8139500D02*
X22950875Y-8064500D01*
X22875875Y-7989500D01*
X22800875Y-8064500D01*
X22875875Y-8139500D01*
X24145875Y-3154750D02*
X24220875Y-3079750D01*
X24145875Y-3004750D01*
X24070875Y-3079750D01*
X24145875Y-3154750D01*
X24145875Y-5059750D02*
X24220875Y-4984750D01*
X24145875Y-4909750D01*
X24070875Y-4984750D01*
X24145875Y-5059750D01*
X24145875Y-6964750D02*
X24220875Y-6889750D01*
X24145875Y-6814750D01*
X24070875Y-6889750D01*
X24145875Y-6964750D01*
X24780875Y-2900750D02*
X24855875Y-2825750D01*
X24780875Y-2750750D01*
X24705875Y-2825750D01*
X24780875Y-2900750D01*
X24780875Y-4805750D02*
X24855875Y-4730750D01*
X24780875Y-4655750D01*
X24705875Y-4730750D01*
X24780875Y-4805750D01*
X24780875Y-6710750D02*
X24855875Y-6635750D01*
X24780875Y-6560750D01*
X24705875Y-6635750D01*
X24780875Y-6710750D01*
X26050875Y-3631000D02*
X26125875Y-3556000D01*
X26050875Y-3481000D01*
X25975875Y-3556000D01*
X26050875Y-3631000D01*
X26050875Y-5536000D02*
X26125875Y-5461000D01*
X26050875Y-5386000D01*
X25975875Y-5461000D01*
X26050875Y-5536000D01*
X26050875Y-7441000D02*
X26125875Y-7366000D01*
X26050875Y-7291000D01*
X25975875Y-7366000D01*
X26050875Y-7441000D01*
X26685875Y-3377000D02*
X26760875Y-3302000D01*
X26685875Y-3227000D01*
X26610875Y-3302000D01*
X26685875Y-3377000D01*
X26685875Y-5282000D02*
X26760875Y-5207000D01*
X26685875Y-5132000D01*
X26610875Y-5207000D01*
X26685875Y-5282000D01*
X26685875Y-7187000D02*
X26760875Y-7112000D01*
X26685875Y-7037000D01*
X26610875Y-7112000D01*
X26685875Y-7187000D01*
X27955875Y-3631000D02*
X28030875Y-3556000D01*
X27955875Y-3481000D01*
X27880875Y-3556000D01*
X27955875Y-3631000D01*
X27955875Y-5536000D02*
X28030875Y-5461000D01*
X27955875Y-5386000D01*
X27880875Y-5461000D01*
X27955875Y-5536000D01*
X27955875Y-7441000D02*
X28030875Y-7366000D01*
X27955875Y-7291000D01*
X27880875Y-7366000D01*
X27955875Y-7441000D01*
X28590875Y-3377000D02*
X28665875Y-3302000D01*
X28590875Y-3227000D01*
X28515875Y-3302000D01*
X28590875Y-3377000D01*
X28590875Y-5282000D02*
X28665875Y-5207000D01*
X28590875Y-5132000D01*
X28515875Y-5207000D01*
X28590875Y-5282000D01*
X28590875Y-7187000D02*
X28665875Y-7112000D01*
X28590875Y-7037000D01*
X28515875Y-7112000D01*
X28590875Y-7187000D01*
D11*
X732027Y-11270234D02*
X732027Y-11070234D01*
X732027Y-11070234D02*
X779646Y-11070234D01*
X779646Y-11070234D02*
X808217Y-11079758D01*
X808217Y-11079758D02*
X827265Y-11098805D01*
X827265Y-11098805D02*
X836789Y-11117853D01*
X836789Y-11117853D02*
X846312Y-11155948D01*
X846312Y-11155948D02*
X846312Y-11184520D01*
X846312Y-11184520D02*
X836789Y-11222615D01*
X836789Y-11222615D02*
X827265Y-11241662D01*
X827265Y-11241662D02*
X808217Y-11260710D01*
X808217Y-11260710D02*
X779646Y-11270234D01*
X779646Y-11270234D02*
X732027Y-11270234D01*
X932027Y-11270234D02*
X932027Y-11136900D01*
X932027Y-11174996D02*
X941551Y-11155948D01*
X941551Y-11155948D02*
X951074Y-11146424D01*
X951074Y-11146424D02*
X970122Y-11136900D01*
X970122Y-11136900D02*
X989170Y-11136900D01*
X1055836Y-11270234D02*
X1055836Y-11136900D01*
X1055836Y-11070234D02*
X1046312Y-11079758D01*
X1046312Y-11079758D02*
X1055836Y-11089281D01*
X1055836Y-11089281D02*
X1065360Y-11079758D01*
X1065360Y-11079758D02*
X1055836Y-11070234D01*
X1055836Y-11070234D02*
X1055836Y-11089281D01*
X1179646Y-11270234D02*
X1160598Y-11260710D01*
X1160598Y-11260710D02*
X1151074Y-11241662D01*
X1151074Y-11241662D02*
X1151074Y-11070234D01*
X1284408Y-11270234D02*
X1265360Y-11260710D01*
X1265360Y-11260710D02*
X1255836Y-11241662D01*
X1255836Y-11241662D02*
X1255836Y-11070234D01*
X1512979Y-11270234D02*
X1512979Y-11070234D01*
X1512979Y-11070234D02*
X1579646Y-11213091D01*
X1579646Y-11213091D02*
X1646312Y-11070234D01*
X1646312Y-11070234D02*
X1646312Y-11270234D01*
X1827265Y-11270234D02*
X1827265Y-11165472D01*
X1827265Y-11165472D02*
X1817741Y-11146424D01*
X1817741Y-11146424D02*
X1798693Y-11136900D01*
X1798693Y-11136900D02*
X1760598Y-11136900D01*
X1760598Y-11136900D02*
X1741551Y-11146424D01*
X1827265Y-11260710D02*
X1808217Y-11270234D01*
X1808217Y-11270234D02*
X1760598Y-11270234D01*
X1760598Y-11270234D02*
X1741551Y-11260710D01*
X1741551Y-11260710D02*
X1732027Y-11241662D01*
X1732027Y-11241662D02*
X1732027Y-11222615D01*
X1732027Y-11222615D02*
X1741551Y-11203567D01*
X1741551Y-11203567D02*
X1760598Y-11194043D01*
X1760598Y-11194043D02*
X1808217Y-11194043D01*
X1808217Y-11194043D02*
X1827265Y-11184520D01*
X1922503Y-11136900D02*
X1922503Y-11336900D01*
X1922503Y-11146424D02*
X1941551Y-11136900D01*
X1941551Y-11136900D02*
X1979646Y-11136900D01*
X1979646Y-11136900D02*
X1998693Y-11146424D01*
X1998693Y-11146424D02*
X2008217Y-11155948D01*
X2008217Y-11155948D02*
X2017741Y-11174996D01*
X2017741Y-11174996D02*
X2017741Y-11232138D01*
X2017741Y-11232138D02*
X2008217Y-11251186D01*
X2008217Y-11251186D02*
X1998693Y-11260710D01*
X1998693Y-11260710D02*
X1979646Y-11270234D01*
X1979646Y-11270234D02*
X1941551Y-11270234D01*
X1941551Y-11270234D02*
X1922503Y-11260710D01*
X2103455Y-11251186D02*
X2112979Y-11260710D01*
X2112979Y-11260710D02*
X2103455Y-11270234D01*
X2103455Y-11270234D02*
X2093932Y-11260710D01*
X2093932Y-11260710D02*
X2103455Y-11251186D01*
X2103455Y-11251186D02*
X2103455Y-11270234D01*
X2103455Y-11146424D02*
X2112979Y-11155948D01*
X2112979Y-11155948D02*
X2103455Y-11165472D01*
X2103455Y-11165472D02*
X2093932Y-11155948D01*
X2093932Y-11155948D02*
X2103455Y-11146424D01*
X2103455Y-11146424D02*
X2103455Y-11165472D01*
D12*
X431250Y-11578750D02*
X471250Y-11618750D01*
X471250Y-11578750D02*
X431250Y-11618750D01*
D11*
X770122Y-11490234D02*
X789170Y-11490234D01*
X789170Y-11490234D02*
X808217Y-11499758D01*
X808217Y-11499758D02*
X817741Y-11509281D01*
X817741Y-11509281D02*
X827265Y-11528329D01*
X827265Y-11528329D02*
X836789Y-11566424D01*
X836789Y-11566424D02*
X836789Y-11614043D01*
X836789Y-11614043D02*
X827265Y-11652138D01*
X827265Y-11652138D02*
X817741Y-11671186D01*
X817741Y-11671186D02*
X808217Y-11680710D01*
X808217Y-11680710D02*
X789170Y-11690234D01*
X789170Y-11690234D02*
X770122Y-11690234D01*
X770122Y-11690234D02*
X751074Y-11680710D01*
X751074Y-11680710D02*
X741551Y-11671186D01*
X741551Y-11671186D02*
X732027Y-11652138D01*
X732027Y-11652138D02*
X722503Y-11614043D01*
X722503Y-11614043D02*
X722503Y-11566424D01*
X722503Y-11566424D02*
X732027Y-11528329D01*
X732027Y-11528329D02*
X741551Y-11509281D01*
X741551Y-11509281D02*
X751074Y-11499758D01*
X751074Y-11499758D02*
X770122Y-11490234D01*
X922503Y-11671186D02*
X932027Y-11680710D01*
X932027Y-11680710D02*
X922503Y-11690234D01*
X922503Y-11690234D02*
X912979Y-11680710D01*
X912979Y-11680710D02*
X922503Y-11671186D01*
X922503Y-11671186D02*
X922503Y-11690234D01*
X1103455Y-11556900D02*
X1103455Y-11690234D01*
X1055836Y-11480710D02*
X1008217Y-11623567D01*
X1008217Y-11623567D02*
X1132027Y-11623567D01*
X1246313Y-11490234D02*
X1265360Y-11490234D01*
X1265360Y-11490234D02*
X1284408Y-11499758D01*
X1284408Y-11499758D02*
X1293932Y-11509281D01*
X1293932Y-11509281D02*
X1303455Y-11528329D01*
X1303455Y-11528329D02*
X1312979Y-11566424D01*
X1312979Y-11566424D02*
X1312979Y-11614043D01*
X1312979Y-11614043D02*
X1303455Y-11652138D01*
X1303455Y-11652138D02*
X1293932Y-11671186D01*
X1293932Y-11671186D02*
X1284408Y-11680710D01*
X1284408Y-11680710D02*
X1265360Y-11690234D01*
X1265360Y-11690234D02*
X1246313Y-11690234D01*
X1246313Y-11690234D02*
X1227265Y-11680710D01*
X1227265Y-11680710D02*
X1217741Y-11671186D01*
X1217741Y-11671186D02*
X1208217Y-11652138D01*
X1208217Y-11652138D02*
X1198694Y-11614043D01*
X1198694Y-11614043D02*
X1198694Y-11566424D01*
X1198694Y-11566424D02*
X1208217Y-11528329D01*
X1208217Y-11528329D02*
X1217741Y-11509281D01*
X1217741Y-11509281D02*
X1227265Y-11499758D01*
X1227265Y-11499758D02*
X1246313Y-11490234D01*
X1436789Y-11490234D02*
X1455836Y-11490234D01*
X1455836Y-11490234D02*
X1474884Y-11499758D01*
X1474884Y-11499758D02*
X1484408Y-11509281D01*
X1484408Y-11509281D02*
X1493932Y-11528329D01*
X1493932Y-11528329D02*
X1503455Y-11566424D01*
X1503455Y-11566424D02*
X1503455Y-11614043D01*
X1503455Y-11614043D02*
X1493932Y-11652138D01*
X1493932Y-11652138D02*
X1484408Y-11671186D01*
X1484408Y-11671186D02*
X1474884Y-11680710D01*
X1474884Y-11680710D02*
X1455836Y-11690234D01*
X1455836Y-11690234D02*
X1436789Y-11690234D01*
X1436789Y-11690234D02*
X1417741Y-11680710D01*
X1417741Y-11680710D02*
X1408217Y-11671186D01*
X1408217Y-11671186D02*
X1398693Y-11652138D01*
X1398693Y-11652138D02*
X1389170Y-11614043D01*
X1389170Y-11614043D02*
X1389170Y-11566424D01*
X1389170Y-11566424D02*
X1398693Y-11528329D01*
X1398693Y-11528329D02*
X1408217Y-11509281D01*
X1408217Y-11509281D02*
X1417741Y-11499758D01*
X1417741Y-11499758D02*
X1436789Y-11490234D01*
X1589170Y-11690234D02*
X1589170Y-11556900D01*
X1589170Y-11575948D02*
X1598693Y-11566424D01*
X1598693Y-11566424D02*
X1617741Y-11556900D01*
X1617741Y-11556900D02*
X1646313Y-11556900D01*
X1646313Y-11556900D02*
X1665360Y-11566424D01*
X1665360Y-11566424D02*
X1674884Y-11585472D01*
X1674884Y-11585472D02*
X1674884Y-11690234D01*
X1674884Y-11585472D02*
X1684408Y-11566424D01*
X1684408Y-11566424D02*
X1703455Y-11556900D01*
X1703455Y-11556900D02*
X1732027Y-11556900D01*
X1732027Y-11556900D02*
X1751074Y-11566424D01*
X1751074Y-11566424D02*
X1760598Y-11585472D01*
X1760598Y-11585472D02*
X1760598Y-11690234D01*
X1855836Y-11690234D02*
X1855836Y-11556900D01*
X1855836Y-11575948D02*
X1865360Y-11566424D01*
X1865360Y-11566424D02*
X1884408Y-11556900D01*
X1884408Y-11556900D02*
X1912979Y-11556900D01*
X1912979Y-11556900D02*
X1932027Y-11566424D01*
X1932027Y-11566424D02*
X1941551Y-11585472D01*
X1941551Y-11585472D02*
X1941551Y-11690234D01*
X1941551Y-11585472D02*
X1951074Y-11566424D01*
X1951074Y-11566424D02*
X1970122Y-11556900D01*
X1970122Y-11556900D02*
X1998693Y-11556900D01*
X1998693Y-11556900D02*
X2017741Y-11566424D01*
X2017741Y-11566424D02*
X2027265Y-11585472D01*
X2027265Y-11585472D02*
X2027265Y-11690234D01*
X2417741Y-11480710D02*
X2246313Y-11737853D01*
X2674884Y-11490234D02*
X2693932Y-11490234D01*
X2693932Y-11490234D02*
X2712979Y-11499758D01*
X2712979Y-11499758D02*
X2722503Y-11509281D01*
X2722503Y-11509281D02*
X2732027Y-11528329D01*
X2732027Y-11528329D02*
X2741551Y-11566424D01*
X2741551Y-11566424D02*
X2741551Y-11614043D01*
X2741551Y-11614043D02*
X2732027Y-11652138D01*
X2732027Y-11652138D02*
X2722503Y-11671186D01*
X2722503Y-11671186D02*
X2712979Y-11680710D01*
X2712979Y-11680710D02*
X2693932Y-11690234D01*
X2693932Y-11690234D02*
X2674884Y-11690234D01*
X2674884Y-11690234D02*
X2655837Y-11680710D01*
X2655837Y-11680710D02*
X2646313Y-11671186D01*
X2646313Y-11671186D02*
X2636789Y-11652138D01*
X2636789Y-11652138D02*
X2627265Y-11614043D01*
X2627265Y-11614043D02*
X2627265Y-11566424D01*
X2627265Y-11566424D02*
X2636789Y-11528329D01*
X2636789Y-11528329D02*
X2646313Y-11509281D01*
X2646313Y-11509281D02*
X2655837Y-11499758D01*
X2655837Y-11499758D02*
X2674884Y-11490234D01*
X2827265Y-11671186D02*
X2836789Y-11680710D01*
X2836789Y-11680710D02*
X2827265Y-11690234D01*
X2827265Y-11690234D02*
X2817741Y-11680710D01*
X2817741Y-11680710D02*
X2827265Y-11671186D01*
X2827265Y-11671186D02*
X2827265Y-11690234D01*
X2960598Y-11490234D02*
X2979646Y-11490234D01*
X2979646Y-11490234D02*
X2998694Y-11499758D01*
X2998694Y-11499758D02*
X3008217Y-11509281D01*
X3008217Y-11509281D02*
X3017741Y-11528329D01*
X3017741Y-11528329D02*
X3027265Y-11566424D01*
X3027265Y-11566424D02*
X3027265Y-11614043D01*
X3027265Y-11614043D02*
X3017741Y-11652138D01*
X3017741Y-11652138D02*
X3008217Y-11671186D01*
X3008217Y-11671186D02*
X2998694Y-11680710D01*
X2998694Y-11680710D02*
X2979646Y-11690234D01*
X2979646Y-11690234D02*
X2960598Y-11690234D01*
X2960598Y-11690234D02*
X2941551Y-11680710D01*
X2941551Y-11680710D02*
X2932027Y-11671186D01*
X2932027Y-11671186D02*
X2922503Y-11652138D01*
X2922503Y-11652138D02*
X2912979Y-11614043D01*
X2912979Y-11614043D02*
X2912979Y-11566424D01*
X2912979Y-11566424D02*
X2922503Y-11528329D01*
X2922503Y-11528329D02*
X2932027Y-11509281D01*
X2932027Y-11509281D02*
X2941551Y-11499758D01*
X2941551Y-11499758D02*
X2960598Y-11490234D01*
X3217741Y-11690234D02*
X3103456Y-11690234D01*
X3160598Y-11690234D02*
X3160598Y-11490234D01*
X3160598Y-11490234D02*
X3141551Y-11518805D01*
X3141551Y-11518805D02*
X3122503Y-11537853D01*
X3122503Y-11537853D02*
X3103456Y-11547377D01*
X3398694Y-11490234D02*
X3303456Y-11490234D01*
X3303456Y-11490234D02*
X3293932Y-11585472D01*
X3293932Y-11585472D02*
X3303456Y-11575948D01*
X3303456Y-11575948D02*
X3322503Y-11566424D01*
X3322503Y-11566424D02*
X3370122Y-11566424D01*
X3370122Y-11566424D02*
X3389170Y-11575948D01*
X3389170Y-11575948D02*
X3398694Y-11585472D01*
X3398694Y-11585472D02*
X3408217Y-11604519D01*
X3408217Y-11604519D02*
X3408217Y-11652138D01*
X3408217Y-11652138D02*
X3398694Y-11671186D01*
X3398694Y-11671186D02*
X3389170Y-11680710D01*
X3389170Y-11680710D02*
X3370122Y-11690234D01*
X3370122Y-11690234D02*
X3322503Y-11690234D01*
X3322503Y-11690234D02*
X3303456Y-11680710D01*
X3303456Y-11680710D02*
X3293932Y-11671186D01*
X3474884Y-11490234D02*
X3608217Y-11490234D01*
X3608217Y-11490234D02*
X3522503Y-11690234D01*
X3674884Y-11490234D02*
X3674884Y-11528329D01*
X3751075Y-11490234D02*
X3751075Y-11528329D01*
X4046313Y-11766424D02*
X4036789Y-11756900D01*
X4036789Y-11756900D02*
X4017741Y-11728329D01*
X4017741Y-11728329D02*
X4008218Y-11709281D01*
X4008218Y-11709281D02*
X3998694Y-11680710D01*
X3998694Y-11680710D02*
X3989170Y-11633091D01*
X3989170Y-11633091D02*
X3989170Y-11594996D01*
X3989170Y-11594996D02*
X3998694Y-11547377D01*
X3998694Y-11547377D02*
X4008218Y-11518805D01*
X4008218Y-11518805D02*
X4017741Y-11499758D01*
X4017741Y-11499758D02*
X4036789Y-11471186D01*
X4036789Y-11471186D02*
X4046313Y-11461662D01*
X4227265Y-11690234D02*
X4112979Y-11690234D01*
X4170122Y-11690234D02*
X4170122Y-11490234D01*
X4170122Y-11490234D02*
X4151075Y-11518805D01*
X4151075Y-11518805D02*
X4132027Y-11537853D01*
X4132027Y-11537853D02*
X4112979Y-11547377D01*
X4465361Y-11690234D02*
X4465361Y-11490234D01*
X4551075Y-11690234D02*
X4551075Y-11585472D01*
X4551075Y-11585472D02*
X4541551Y-11566424D01*
X4541551Y-11566424D02*
X4522503Y-11556900D01*
X4522503Y-11556900D02*
X4493932Y-11556900D01*
X4493932Y-11556900D02*
X4474884Y-11566424D01*
X4474884Y-11566424D02*
X4465361Y-11575948D01*
X4674884Y-11690234D02*
X4655837Y-11680710D01*
X4655837Y-11680710D02*
X4646313Y-11671186D01*
X4646313Y-11671186D02*
X4636789Y-11652138D01*
X4636789Y-11652138D02*
X4636789Y-11594996D01*
X4636789Y-11594996D02*
X4646313Y-11575948D01*
X4646313Y-11575948D02*
X4655837Y-11566424D01*
X4655837Y-11566424D02*
X4674884Y-11556900D01*
X4674884Y-11556900D02*
X4703456Y-11556900D01*
X4703456Y-11556900D02*
X4722503Y-11566424D01*
X4722503Y-11566424D02*
X4732027Y-11575948D01*
X4732027Y-11575948D02*
X4741551Y-11594996D01*
X4741551Y-11594996D02*
X4741551Y-11652138D01*
X4741551Y-11652138D02*
X4732027Y-11671186D01*
X4732027Y-11671186D02*
X4722503Y-11680710D01*
X4722503Y-11680710D02*
X4703456Y-11690234D01*
X4703456Y-11690234D02*
X4674884Y-11690234D01*
X4855837Y-11690234D02*
X4836789Y-11680710D01*
X4836789Y-11680710D02*
X4827265Y-11661662D01*
X4827265Y-11661662D02*
X4827265Y-11490234D01*
X5008218Y-11680710D02*
X4989170Y-11690234D01*
X4989170Y-11690234D02*
X4951075Y-11690234D01*
X4951075Y-11690234D02*
X4932027Y-11680710D01*
X4932027Y-11680710D02*
X4922503Y-11661662D01*
X4922503Y-11661662D02*
X4922503Y-11585472D01*
X4922503Y-11585472D02*
X4932027Y-11566424D01*
X4932027Y-11566424D02*
X4951075Y-11556900D01*
X4951075Y-11556900D02*
X4989170Y-11556900D01*
X4989170Y-11556900D02*
X5008218Y-11566424D01*
X5008218Y-11566424D02*
X5017742Y-11585472D01*
X5017742Y-11585472D02*
X5017742Y-11604519D01*
X5017742Y-11604519D02*
X4922503Y-11623567D01*
X5084408Y-11766424D02*
X5093932Y-11756900D01*
X5093932Y-11756900D02*
X5112980Y-11728329D01*
X5112980Y-11728329D02*
X5122503Y-11709281D01*
X5122503Y-11709281D02*
X5132027Y-11680710D01*
X5132027Y-11680710D02*
X5141551Y-11633091D01*
X5141551Y-11633091D02*
X5141551Y-11594996D01*
X5141551Y-11594996D02*
X5132027Y-11547377D01*
X5132027Y-11547377D02*
X5122503Y-11518805D01*
X5122503Y-11518805D02*
X5112980Y-11499758D01*
X5112980Y-11499758D02*
X5093932Y-11471186D01*
X5093932Y-11471186D02*
X5084408Y-11461662D01*
D13*
X471250Y-11862750D02*
G75*
G03*
X471250Y-11862750I-40000J0D01*
G01*
D11*
X770122Y-11754234D02*
X789170Y-11754234D01*
X789170Y-11754234D02*
X808217Y-11763758D01*
X808217Y-11763758D02*
X817741Y-11773281D01*
X817741Y-11773281D02*
X827265Y-11792329D01*
X827265Y-11792329D02*
X836789Y-11830424D01*
X836789Y-11830424D02*
X836789Y-11878043D01*
X836789Y-11878043D02*
X827265Y-11916138D01*
X827265Y-11916138D02*
X817741Y-11935186D01*
X817741Y-11935186D02*
X808217Y-11944710D01*
X808217Y-11944710D02*
X789170Y-11954234D01*
X789170Y-11954234D02*
X770122Y-11954234D01*
X770122Y-11954234D02*
X751074Y-11944710D01*
X751074Y-11944710D02*
X741551Y-11935186D01*
X741551Y-11935186D02*
X732027Y-11916138D01*
X732027Y-11916138D02*
X722503Y-11878043D01*
X722503Y-11878043D02*
X722503Y-11830424D01*
X722503Y-11830424D02*
X732027Y-11792329D01*
X732027Y-11792329D02*
X741551Y-11773281D01*
X741551Y-11773281D02*
X751074Y-11763758D01*
X751074Y-11763758D02*
X770122Y-11754234D01*
X922503Y-11935186D02*
X932027Y-11944710D01*
X932027Y-11944710D02*
X922503Y-11954234D01*
X922503Y-11954234D02*
X912979Y-11944710D01*
X912979Y-11944710D02*
X922503Y-11935186D01*
X922503Y-11935186D02*
X922503Y-11954234D01*
X1046312Y-11839948D02*
X1027265Y-11830424D01*
X1027265Y-11830424D02*
X1017741Y-11820900D01*
X1017741Y-11820900D02*
X1008217Y-11801853D01*
X1008217Y-11801853D02*
X1008217Y-11792329D01*
X1008217Y-11792329D02*
X1017741Y-11773281D01*
X1017741Y-11773281D02*
X1027265Y-11763758D01*
X1027265Y-11763758D02*
X1046312Y-11754234D01*
X1046312Y-11754234D02*
X1084408Y-11754234D01*
X1084408Y-11754234D02*
X1103455Y-11763758D01*
X1103455Y-11763758D02*
X1112979Y-11773281D01*
X1112979Y-11773281D02*
X1122503Y-11792329D01*
X1122503Y-11792329D02*
X1122503Y-11801853D01*
X1122503Y-11801853D02*
X1112979Y-11820900D01*
X1112979Y-11820900D02*
X1103455Y-11830424D01*
X1103455Y-11830424D02*
X1084408Y-11839948D01*
X1084408Y-11839948D02*
X1046312Y-11839948D01*
X1046312Y-11839948D02*
X1027265Y-11849472D01*
X1027265Y-11849472D02*
X1017741Y-11858996D01*
X1017741Y-11858996D02*
X1008217Y-11878043D01*
X1008217Y-11878043D02*
X1008217Y-11916138D01*
X1008217Y-11916138D02*
X1017741Y-11935186D01*
X1017741Y-11935186D02*
X1027265Y-11944710D01*
X1027265Y-11944710D02*
X1046312Y-11954234D01*
X1046312Y-11954234D02*
X1084408Y-11954234D01*
X1084408Y-11954234D02*
X1103455Y-11944710D01*
X1103455Y-11944710D02*
X1112979Y-11935186D01*
X1112979Y-11935186D02*
X1122503Y-11916138D01*
X1122503Y-11916138D02*
X1122503Y-11878043D01*
X1122503Y-11878043D02*
X1112979Y-11858996D01*
X1112979Y-11858996D02*
X1103455Y-11849472D01*
X1103455Y-11849472D02*
X1084408Y-11839948D01*
X1246313Y-11754234D02*
X1265360Y-11754234D01*
X1265360Y-11754234D02*
X1284408Y-11763758D01*
X1284408Y-11763758D02*
X1293932Y-11773281D01*
X1293932Y-11773281D02*
X1303455Y-11792329D01*
X1303455Y-11792329D02*
X1312979Y-11830424D01*
X1312979Y-11830424D02*
X1312979Y-11878043D01*
X1312979Y-11878043D02*
X1303455Y-11916138D01*
X1303455Y-11916138D02*
X1293932Y-11935186D01*
X1293932Y-11935186D02*
X1284408Y-11944710D01*
X1284408Y-11944710D02*
X1265360Y-11954234D01*
X1265360Y-11954234D02*
X1246313Y-11954234D01*
X1246313Y-11954234D02*
X1227265Y-11944710D01*
X1227265Y-11944710D02*
X1217741Y-11935186D01*
X1217741Y-11935186D02*
X1208217Y-11916138D01*
X1208217Y-11916138D02*
X1198694Y-11878043D01*
X1198694Y-11878043D02*
X1198694Y-11830424D01*
X1198694Y-11830424D02*
X1208217Y-11792329D01*
X1208217Y-11792329D02*
X1217741Y-11773281D01*
X1217741Y-11773281D02*
X1227265Y-11763758D01*
X1227265Y-11763758D02*
X1246313Y-11754234D01*
X1436789Y-11754234D02*
X1455836Y-11754234D01*
X1455836Y-11754234D02*
X1474884Y-11763758D01*
X1474884Y-11763758D02*
X1484408Y-11773281D01*
X1484408Y-11773281D02*
X1493932Y-11792329D01*
X1493932Y-11792329D02*
X1503455Y-11830424D01*
X1503455Y-11830424D02*
X1503455Y-11878043D01*
X1503455Y-11878043D02*
X1493932Y-11916138D01*
X1493932Y-11916138D02*
X1484408Y-11935186D01*
X1484408Y-11935186D02*
X1474884Y-11944710D01*
X1474884Y-11944710D02*
X1455836Y-11954234D01*
X1455836Y-11954234D02*
X1436789Y-11954234D01*
X1436789Y-11954234D02*
X1417741Y-11944710D01*
X1417741Y-11944710D02*
X1408217Y-11935186D01*
X1408217Y-11935186D02*
X1398693Y-11916138D01*
X1398693Y-11916138D02*
X1389170Y-11878043D01*
X1389170Y-11878043D02*
X1389170Y-11830424D01*
X1389170Y-11830424D02*
X1398693Y-11792329D01*
X1398693Y-11792329D02*
X1408217Y-11773281D01*
X1408217Y-11773281D02*
X1417741Y-11763758D01*
X1417741Y-11763758D02*
X1436789Y-11754234D01*
X1589170Y-11954234D02*
X1589170Y-11820900D01*
X1589170Y-11839948D02*
X1598693Y-11830424D01*
X1598693Y-11830424D02*
X1617741Y-11820900D01*
X1617741Y-11820900D02*
X1646313Y-11820900D01*
X1646313Y-11820900D02*
X1665360Y-11830424D01*
X1665360Y-11830424D02*
X1674884Y-11849472D01*
X1674884Y-11849472D02*
X1674884Y-11954234D01*
X1674884Y-11849472D02*
X1684408Y-11830424D01*
X1684408Y-11830424D02*
X1703455Y-11820900D01*
X1703455Y-11820900D02*
X1732027Y-11820900D01*
X1732027Y-11820900D02*
X1751074Y-11830424D01*
X1751074Y-11830424D02*
X1760598Y-11849472D01*
X1760598Y-11849472D02*
X1760598Y-11954234D01*
X1855836Y-11954234D02*
X1855836Y-11820900D01*
X1855836Y-11839948D02*
X1865360Y-11830424D01*
X1865360Y-11830424D02*
X1884408Y-11820900D01*
X1884408Y-11820900D02*
X1912979Y-11820900D01*
X1912979Y-11820900D02*
X1932027Y-11830424D01*
X1932027Y-11830424D02*
X1941551Y-11849472D01*
X1941551Y-11849472D02*
X1941551Y-11954234D01*
X1941551Y-11849472D02*
X1951074Y-11830424D01*
X1951074Y-11830424D02*
X1970122Y-11820900D01*
X1970122Y-11820900D02*
X1998693Y-11820900D01*
X1998693Y-11820900D02*
X2017741Y-11830424D01*
X2017741Y-11830424D02*
X2027265Y-11849472D01*
X2027265Y-11849472D02*
X2027265Y-11954234D01*
X2417741Y-11744710D02*
X2246313Y-12001853D01*
X2674884Y-11754234D02*
X2693932Y-11754234D01*
X2693932Y-11754234D02*
X2712979Y-11763758D01*
X2712979Y-11763758D02*
X2722503Y-11773281D01*
X2722503Y-11773281D02*
X2732027Y-11792329D01*
X2732027Y-11792329D02*
X2741551Y-11830424D01*
X2741551Y-11830424D02*
X2741551Y-11878043D01*
X2741551Y-11878043D02*
X2732027Y-11916138D01*
X2732027Y-11916138D02*
X2722503Y-11935186D01*
X2722503Y-11935186D02*
X2712979Y-11944710D01*
X2712979Y-11944710D02*
X2693932Y-11954234D01*
X2693932Y-11954234D02*
X2674884Y-11954234D01*
X2674884Y-11954234D02*
X2655837Y-11944710D01*
X2655837Y-11944710D02*
X2646313Y-11935186D01*
X2646313Y-11935186D02*
X2636789Y-11916138D01*
X2636789Y-11916138D02*
X2627265Y-11878043D01*
X2627265Y-11878043D02*
X2627265Y-11830424D01*
X2627265Y-11830424D02*
X2636789Y-11792329D01*
X2636789Y-11792329D02*
X2646313Y-11773281D01*
X2646313Y-11773281D02*
X2655837Y-11763758D01*
X2655837Y-11763758D02*
X2674884Y-11754234D01*
X2827265Y-11935186D02*
X2836789Y-11944710D01*
X2836789Y-11944710D02*
X2827265Y-11954234D01*
X2827265Y-11954234D02*
X2817741Y-11944710D01*
X2817741Y-11944710D02*
X2827265Y-11935186D01*
X2827265Y-11935186D02*
X2827265Y-11954234D01*
X2960598Y-11754234D02*
X2979646Y-11754234D01*
X2979646Y-11754234D02*
X2998694Y-11763758D01*
X2998694Y-11763758D02*
X3008217Y-11773281D01*
X3008217Y-11773281D02*
X3017741Y-11792329D01*
X3017741Y-11792329D02*
X3027265Y-11830424D01*
X3027265Y-11830424D02*
X3027265Y-11878043D01*
X3027265Y-11878043D02*
X3017741Y-11916138D01*
X3017741Y-11916138D02*
X3008217Y-11935186D01*
X3008217Y-11935186D02*
X2998694Y-11944710D01*
X2998694Y-11944710D02*
X2979646Y-11954234D01*
X2979646Y-11954234D02*
X2960598Y-11954234D01*
X2960598Y-11954234D02*
X2941551Y-11944710D01*
X2941551Y-11944710D02*
X2932027Y-11935186D01*
X2932027Y-11935186D02*
X2922503Y-11916138D01*
X2922503Y-11916138D02*
X2912979Y-11878043D01*
X2912979Y-11878043D02*
X2912979Y-11830424D01*
X2912979Y-11830424D02*
X2922503Y-11792329D01*
X2922503Y-11792329D02*
X2932027Y-11773281D01*
X2932027Y-11773281D02*
X2941551Y-11763758D01*
X2941551Y-11763758D02*
X2960598Y-11754234D01*
X3093932Y-11754234D02*
X3217741Y-11754234D01*
X3217741Y-11754234D02*
X3151075Y-11830424D01*
X3151075Y-11830424D02*
X3179646Y-11830424D01*
X3179646Y-11830424D02*
X3198694Y-11839948D01*
X3198694Y-11839948D02*
X3208217Y-11849472D01*
X3208217Y-11849472D02*
X3217741Y-11868519D01*
X3217741Y-11868519D02*
X3217741Y-11916138D01*
X3217741Y-11916138D02*
X3208217Y-11935186D01*
X3208217Y-11935186D02*
X3198694Y-11944710D01*
X3198694Y-11944710D02*
X3179646Y-11954234D01*
X3179646Y-11954234D02*
X3122503Y-11954234D01*
X3122503Y-11954234D02*
X3103456Y-11944710D01*
X3103456Y-11944710D02*
X3093932Y-11935186D01*
X3408217Y-11954234D02*
X3293932Y-11954234D01*
X3351075Y-11954234D02*
X3351075Y-11754234D01*
X3351075Y-11754234D02*
X3332027Y-11782805D01*
X3332027Y-11782805D02*
X3312979Y-11801853D01*
X3312979Y-11801853D02*
X3293932Y-11811377D01*
X3589170Y-11754234D02*
X3493932Y-11754234D01*
X3493932Y-11754234D02*
X3484408Y-11849472D01*
X3484408Y-11849472D02*
X3493932Y-11839948D01*
X3493932Y-11839948D02*
X3512979Y-11830424D01*
X3512979Y-11830424D02*
X3560598Y-11830424D01*
X3560598Y-11830424D02*
X3579646Y-11839948D01*
X3579646Y-11839948D02*
X3589170Y-11849472D01*
X3589170Y-11849472D02*
X3598694Y-11868519D01*
X3598694Y-11868519D02*
X3598694Y-11916138D01*
X3598694Y-11916138D02*
X3589170Y-11935186D01*
X3589170Y-11935186D02*
X3579646Y-11944710D01*
X3579646Y-11944710D02*
X3560598Y-11954234D01*
X3560598Y-11954234D02*
X3512979Y-11954234D01*
X3512979Y-11954234D02*
X3493932Y-11944710D01*
X3493932Y-11944710D02*
X3484408Y-11935186D01*
X3674884Y-11754234D02*
X3674884Y-11792329D01*
X3751075Y-11754234D02*
X3751075Y-11792329D01*
X4046313Y-12030424D02*
X4036789Y-12020900D01*
X4036789Y-12020900D02*
X4017741Y-11992329D01*
X4017741Y-11992329D02*
X4008218Y-11973281D01*
X4008218Y-11973281D02*
X3998694Y-11944710D01*
X3998694Y-11944710D02*
X3989170Y-11897091D01*
X3989170Y-11897091D02*
X3989170Y-11858996D01*
X3989170Y-11858996D02*
X3998694Y-11811377D01*
X3998694Y-11811377D02*
X4008218Y-11782805D01*
X4008218Y-11782805D02*
X4017741Y-11763758D01*
X4017741Y-11763758D02*
X4036789Y-11735186D01*
X4036789Y-11735186D02*
X4046313Y-11725662D01*
X4132027Y-11954234D02*
X4170122Y-11954234D01*
X4170122Y-11954234D02*
X4189170Y-11944710D01*
X4189170Y-11944710D02*
X4198694Y-11935186D01*
X4198694Y-11935186D02*
X4217741Y-11906615D01*
X4217741Y-11906615D02*
X4227265Y-11868519D01*
X4227265Y-11868519D02*
X4227265Y-11792329D01*
X4227265Y-11792329D02*
X4217741Y-11773281D01*
X4217741Y-11773281D02*
X4208218Y-11763758D01*
X4208218Y-11763758D02*
X4189170Y-11754234D01*
X4189170Y-11754234D02*
X4151075Y-11754234D01*
X4151075Y-11754234D02*
X4132027Y-11763758D01*
X4132027Y-11763758D02*
X4122503Y-11773281D01*
X4122503Y-11773281D02*
X4112979Y-11792329D01*
X4112979Y-11792329D02*
X4112979Y-11839948D01*
X4112979Y-11839948D02*
X4122503Y-11858996D01*
X4122503Y-11858996D02*
X4132027Y-11868519D01*
X4132027Y-11868519D02*
X4151075Y-11878043D01*
X4151075Y-11878043D02*
X4189170Y-11878043D01*
X4189170Y-11878043D02*
X4208218Y-11868519D01*
X4208218Y-11868519D02*
X4217741Y-11858996D01*
X4217741Y-11858996D02*
X4227265Y-11839948D01*
X4303456Y-11773281D02*
X4312980Y-11763758D01*
X4312980Y-11763758D02*
X4332027Y-11754234D01*
X4332027Y-11754234D02*
X4379646Y-11754234D01*
X4379646Y-11754234D02*
X4398694Y-11763758D01*
X4398694Y-11763758D02*
X4408218Y-11773281D01*
X4408218Y-11773281D02*
X4417741Y-11792329D01*
X4417741Y-11792329D02*
X4417741Y-11811377D01*
X4417741Y-11811377D02*
X4408218Y-11839948D01*
X4408218Y-11839948D02*
X4293932Y-11954234D01*
X4293932Y-11954234D02*
X4417741Y-11954234D01*
X4655837Y-11954234D02*
X4655837Y-11754234D01*
X4741551Y-11954234D02*
X4741551Y-11849472D01*
X4741551Y-11849472D02*
X4732027Y-11830424D01*
X4732027Y-11830424D02*
X4712980Y-11820900D01*
X4712980Y-11820900D02*
X4684408Y-11820900D01*
X4684408Y-11820900D02*
X4665361Y-11830424D01*
X4665361Y-11830424D02*
X4655837Y-11839948D01*
X4865361Y-11954234D02*
X4846313Y-11944710D01*
X4846313Y-11944710D02*
X4836789Y-11935186D01*
X4836789Y-11935186D02*
X4827265Y-11916138D01*
X4827265Y-11916138D02*
X4827265Y-11858996D01*
X4827265Y-11858996D02*
X4836789Y-11839948D01*
X4836789Y-11839948D02*
X4846313Y-11830424D01*
X4846313Y-11830424D02*
X4865361Y-11820900D01*
X4865361Y-11820900D02*
X4893932Y-11820900D01*
X4893932Y-11820900D02*
X4912980Y-11830424D01*
X4912980Y-11830424D02*
X4922503Y-11839948D01*
X4922503Y-11839948D02*
X4932027Y-11858996D01*
X4932027Y-11858996D02*
X4932027Y-11916138D01*
X4932027Y-11916138D02*
X4922503Y-11935186D01*
X4922503Y-11935186D02*
X4912980Y-11944710D01*
X4912980Y-11944710D02*
X4893932Y-11954234D01*
X4893932Y-11954234D02*
X4865361Y-11954234D01*
X5046313Y-11954234D02*
X5027265Y-11944710D01*
X5027265Y-11944710D02*
X5017742Y-11925662D01*
X5017742Y-11925662D02*
X5017742Y-11754234D01*
X5198694Y-11944710D02*
X5179646Y-11954234D01*
X5179646Y-11954234D02*
X5141551Y-11954234D01*
X5141551Y-11954234D02*
X5122503Y-11944710D01*
X5122503Y-11944710D02*
X5112980Y-11925662D01*
X5112980Y-11925662D02*
X5112980Y-11849472D01*
X5112980Y-11849472D02*
X5122503Y-11830424D01*
X5122503Y-11830424D02*
X5141551Y-11820900D01*
X5141551Y-11820900D02*
X5179646Y-11820900D01*
X5179646Y-11820900D02*
X5198694Y-11830424D01*
X5198694Y-11830424D02*
X5208218Y-11849472D01*
X5208218Y-11849472D02*
X5208218Y-11868519D01*
X5208218Y-11868519D02*
X5112980Y-11887567D01*
X5284408Y-11944710D02*
X5303456Y-11954234D01*
X5303456Y-11954234D02*
X5341551Y-11954234D01*
X5341551Y-11954234D02*
X5360599Y-11944710D01*
X5360599Y-11944710D02*
X5370123Y-11925662D01*
X5370123Y-11925662D02*
X5370123Y-11916138D01*
X5370123Y-11916138D02*
X5360599Y-11897091D01*
X5360599Y-11897091D02*
X5341551Y-11887567D01*
X5341551Y-11887567D02*
X5312980Y-11887567D01*
X5312980Y-11887567D02*
X5293932Y-11878043D01*
X5293932Y-11878043D02*
X5284408Y-11858996D01*
X5284408Y-11858996D02*
X5284408Y-11849472D01*
X5284408Y-11849472D02*
X5293932Y-11830424D01*
X5293932Y-11830424D02*
X5312980Y-11820900D01*
X5312980Y-11820900D02*
X5341551Y-11820900D01*
X5341551Y-11820900D02*
X5360599Y-11830424D01*
X5436789Y-12030424D02*
X5446313Y-12020900D01*
X5446313Y-12020900D02*
X5465361Y-11992329D01*
X5465361Y-11992329D02*
X5474884Y-11973281D01*
X5474884Y-11973281D02*
X5484408Y-11944710D01*
X5484408Y-11944710D02*
X5493932Y-11897091D01*
X5493932Y-11897091D02*
X5493932Y-11858996D01*
X5493932Y-11858996D02*
X5484408Y-11811377D01*
X5484408Y-11811377D02*
X5474884Y-11782805D01*
X5474884Y-11782805D02*
X5465361Y-11763758D01*
X5465361Y-11763758D02*
X5446313Y-11735186D01*
X5446313Y-11735186D02*
X5436789Y-11725662D01*
D14*
X426250Y-12081750D02*
X426250Y-12171750D01*
X381250Y-12126750D02*
X471250Y-12126750D01*
D11*
X770122Y-12018234D02*
X789170Y-12018234D01*
X789170Y-12018234D02*
X808217Y-12027758D01*
X808217Y-12027758D02*
X817741Y-12037281D01*
X817741Y-12037281D02*
X827265Y-12056329D01*
X827265Y-12056329D02*
X836789Y-12094424D01*
X836789Y-12094424D02*
X836789Y-12142043D01*
X836789Y-12142043D02*
X827265Y-12180138D01*
X827265Y-12180138D02*
X817741Y-12199186D01*
X817741Y-12199186D02*
X808217Y-12208710D01*
X808217Y-12208710D02*
X789170Y-12218234D01*
X789170Y-12218234D02*
X770122Y-12218234D01*
X770122Y-12218234D02*
X751074Y-12208710D01*
X751074Y-12208710D02*
X741551Y-12199186D01*
X741551Y-12199186D02*
X732027Y-12180138D01*
X732027Y-12180138D02*
X722503Y-12142043D01*
X722503Y-12142043D02*
X722503Y-12094424D01*
X722503Y-12094424D02*
X732027Y-12056329D01*
X732027Y-12056329D02*
X741551Y-12037281D01*
X741551Y-12037281D02*
X751074Y-12027758D01*
X751074Y-12027758D02*
X770122Y-12018234D01*
X922503Y-12199186D02*
X932027Y-12208710D01*
X932027Y-12208710D02*
X922503Y-12218234D01*
X922503Y-12218234D02*
X912979Y-12208710D01*
X912979Y-12208710D02*
X922503Y-12199186D01*
X922503Y-12199186D02*
X922503Y-12218234D01*
X1027265Y-12218234D02*
X1065360Y-12218234D01*
X1065360Y-12218234D02*
X1084408Y-12208710D01*
X1084408Y-12208710D02*
X1093932Y-12199186D01*
X1093932Y-12199186D02*
X1112979Y-12170615D01*
X1112979Y-12170615D02*
X1122503Y-12132519D01*
X1122503Y-12132519D02*
X1122503Y-12056329D01*
X1122503Y-12056329D02*
X1112979Y-12037281D01*
X1112979Y-12037281D02*
X1103455Y-12027758D01*
X1103455Y-12027758D02*
X1084408Y-12018234D01*
X1084408Y-12018234D02*
X1046312Y-12018234D01*
X1046312Y-12018234D02*
X1027265Y-12027758D01*
X1027265Y-12027758D02*
X1017741Y-12037281D01*
X1017741Y-12037281D02*
X1008217Y-12056329D01*
X1008217Y-12056329D02*
X1008217Y-12103948D01*
X1008217Y-12103948D02*
X1017741Y-12122996D01*
X1017741Y-12122996D02*
X1027265Y-12132519D01*
X1027265Y-12132519D02*
X1046312Y-12142043D01*
X1046312Y-12142043D02*
X1084408Y-12142043D01*
X1084408Y-12142043D02*
X1103455Y-12132519D01*
X1103455Y-12132519D02*
X1112979Y-12122996D01*
X1112979Y-12122996D02*
X1122503Y-12103948D01*
X1246313Y-12018234D02*
X1265360Y-12018234D01*
X1265360Y-12018234D02*
X1284408Y-12027758D01*
X1284408Y-12027758D02*
X1293932Y-12037281D01*
X1293932Y-12037281D02*
X1303455Y-12056329D01*
X1303455Y-12056329D02*
X1312979Y-12094424D01*
X1312979Y-12094424D02*
X1312979Y-12142043D01*
X1312979Y-12142043D02*
X1303455Y-12180138D01*
X1303455Y-12180138D02*
X1293932Y-12199186D01*
X1293932Y-12199186D02*
X1284408Y-12208710D01*
X1284408Y-12208710D02*
X1265360Y-12218234D01*
X1265360Y-12218234D02*
X1246313Y-12218234D01*
X1246313Y-12218234D02*
X1227265Y-12208710D01*
X1227265Y-12208710D02*
X1217741Y-12199186D01*
X1217741Y-12199186D02*
X1208217Y-12180138D01*
X1208217Y-12180138D02*
X1198694Y-12142043D01*
X1198694Y-12142043D02*
X1198694Y-12094424D01*
X1198694Y-12094424D02*
X1208217Y-12056329D01*
X1208217Y-12056329D02*
X1217741Y-12037281D01*
X1217741Y-12037281D02*
X1227265Y-12027758D01*
X1227265Y-12027758D02*
X1246313Y-12018234D01*
X1436789Y-12018234D02*
X1455836Y-12018234D01*
X1455836Y-12018234D02*
X1474884Y-12027758D01*
X1474884Y-12027758D02*
X1484408Y-12037281D01*
X1484408Y-12037281D02*
X1493932Y-12056329D01*
X1493932Y-12056329D02*
X1503455Y-12094424D01*
X1503455Y-12094424D02*
X1503455Y-12142043D01*
X1503455Y-12142043D02*
X1493932Y-12180138D01*
X1493932Y-12180138D02*
X1484408Y-12199186D01*
X1484408Y-12199186D02*
X1474884Y-12208710D01*
X1474884Y-12208710D02*
X1455836Y-12218234D01*
X1455836Y-12218234D02*
X1436789Y-12218234D01*
X1436789Y-12218234D02*
X1417741Y-12208710D01*
X1417741Y-12208710D02*
X1408217Y-12199186D01*
X1408217Y-12199186D02*
X1398693Y-12180138D01*
X1398693Y-12180138D02*
X1389170Y-12142043D01*
X1389170Y-12142043D02*
X1389170Y-12094424D01*
X1389170Y-12094424D02*
X1398693Y-12056329D01*
X1398693Y-12056329D02*
X1408217Y-12037281D01*
X1408217Y-12037281D02*
X1417741Y-12027758D01*
X1417741Y-12027758D02*
X1436789Y-12018234D01*
X1589170Y-12218234D02*
X1589170Y-12084900D01*
X1589170Y-12103948D02*
X1598693Y-12094424D01*
X1598693Y-12094424D02*
X1617741Y-12084900D01*
X1617741Y-12084900D02*
X1646313Y-12084900D01*
X1646313Y-12084900D02*
X1665360Y-12094424D01*
X1665360Y-12094424D02*
X1674884Y-12113472D01*
X1674884Y-12113472D02*
X1674884Y-12218234D01*
X1674884Y-12113472D02*
X1684408Y-12094424D01*
X1684408Y-12094424D02*
X1703455Y-12084900D01*
X1703455Y-12084900D02*
X1732027Y-12084900D01*
X1732027Y-12084900D02*
X1751074Y-12094424D01*
X1751074Y-12094424D02*
X1760598Y-12113472D01*
X1760598Y-12113472D02*
X1760598Y-12218234D01*
X1855836Y-12218234D02*
X1855836Y-12084900D01*
X1855836Y-12103948D02*
X1865360Y-12094424D01*
X1865360Y-12094424D02*
X1884408Y-12084900D01*
X1884408Y-12084900D02*
X1912979Y-12084900D01*
X1912979Y-12084900D02*
X1932027Y-12094424D01*
X1932027Y-12094424D02*
X1941551Y-12113472D01*
X1941551Y-12113472D02*
X1941551Y-12218234D01*
X1941551Y-12113472D02*
X1951074Y-12094424D01*
X1951074Y-12094424D02*
X1970122Y-12084900D01*
X1970122Y-12084900D02*
X1998693Y-12084900D01*
X1998693Y-12084900D02*
X2017741Y-12094424D01*
X2017741Y-12094424D02*
X2027265Y-12113472D01*
X2027265Y-12113472D02*
X2027265Y-12218234D01*
X2417741Y-12008710D02*
X2246313Y-12265853D01*
X2674884Y-12018234D02*
X2693932Y-12018234D01*
X2693932Y-12018234D02*
X2712979Y-12027758D01*
X2712979Y-12027758D02*
X2722503Y-12037281D01*
X2722503Y-12037281D02*
X2732027Y-12056329D01*
X2732027Y-12056329D02*
X2741551Y-12094424D01*
X2741551Y-12094424D02*
X2741551Y-12142043D01*
X2741551Y-12142043D02*
X2732027Y-12180138D01*
X2732027Y-12180138D02*
X2722503Y-12199186D01*
X2722503Y-12199186D02*
X2712979Y-12208710D01*
X2712979Y-12208710D02*
X2693932Y-12218234D01*
X2693932Y-12218234D02*
X2674884Y-12218234D01*
X2674884Y-12218234D02*
X2655837Y-12208710D01*
X2655837Y-12208710D02*
X2646313Y-12199186D01*
X2646313Y-12199186D02*
X2636789Y-12180138D01*
X2636789Y-12180138D02*
X2627265Y-12142043D01*
X2627265Y-12142043D02*
X2627265Y-12094424D01*
X2627265Y-12094424D02*
X2636789Y-12056329D01*
X2636789Y-12056329D02*
X2646313Y-12037281D01*
X2646313Y-12037281D02*
X2655837Y-12027758D01*
X2655837Y-12027758D02*
X2674884Y-12018234D01*
X2827265Y-12199186D02*
X2836789Y-12208710D01*
X2836789Y-12208710D02*
X2827265Y-12218234D01*
X2827265Y-12218234D02*
X2817741Y-12208710D01*
X2817741Y-12208710D02*
X2827265Y-12199186D01*
X2827265Y-12199186D02*
X2827265Y-12218234D01*
X2960598Y-12018234D02*
X2979646Y-12018234D01*
X2979646Y-12018234D02*
X2998694Y-12027758D01*
X2998694Y-12027758D02*
X3008217Y-12037281D01*
X3008217Y-12037281D02*
X3017741Y-12056329D01*
X3017741Y-12056329D02*
X3027265Y-12094424D01*
X3027265Y-12094424D02*
X3027265Y-12142043D01*
X3027265Y-12142043D02*
X3017741Y-12180138D01*
X3017741Y-12180138D02*
X3008217Y-12199186D01*
X3008217Y-12199186D02*
X2998694Y-12208710D01*
X2998694Y-12208710D02*
X2979646Y-12218234D01*
X2979646Y-12218234D02*
X2960598Y-12218234D01*
X2960598Y-12218234D02*
X2941551Y-12208710D01*
X2941551Y-12208710D02*
X2932027Y-12199186D01*
X2932027Y-12199186D02*
X2922503Y-12180138D01*
X2922503Y-12180138D02*
X2912979Y-12142043D01*
X2912979Y-12142043D02*
X2912979Y-12094424D01*
X2912979Y-12094424D02*
X2922503Y-12056329D01*
X2922503Y-12056329D02*
X2932027Y-12037281D01*
X2932027Y-12037281D02*
X2941551Y-12027758D01*
X2941551Y-12027758D02*
X2960598Y-12018234D01*
X3093932Y-12018234D02*
X3217741Y-12018234D01*
X3217741Y-12018234D02*
X3151075Y-12094424D01*
X3151075Y-12094424D02*
X3179646Y-12094424D01*
X3179646Y-12094424D02*
X3198694Y-12103948D01*
X3198694Y-12103948D02*
X3208217Y-12113472D01*
X3208217Y-12113472D02*
X3217741Y-12132519D01*
X3217741Y-12132519D02*
X3217741Y-12180138D01*
X3217741Y-12180138D02*
X3208217Y-12199186D01*
X3208217Y-12199186D02*
X3198694Y-12208710D01*
X3198694Y-12208710D02*
X3179646Y-12218234D01*
X3179646Y-12218234D02*
X3122503Y-12218234D01*
X3122503Y-12218234D02*
X3103456Y-12208710D01*
X3103456Y-12208710D02*
X3093932Y-12199186D01*
X3398694Y-12018234D02*
X3303456Y-12018234D01*
X3303456Y-12018234D02*
X3293932Y-12113472D01*
X3293932Y-12113472D02*
X3303456Y-12103948D01*
X3303456Y-12103948D02*
X3322503Y-12094424D01*
X3322503Y-12094424D02*
X3370122Y-12094424D01*
X3370122Y-12094424D02*
X3389170Y-12103948D01*
X3389170Y-12103948D02*
X3398694Y-12113472D01*
X3398694Y-12113472D02*
X3408217Y-12132519D01*
X3408217Y-12132519D02*
X3408217Y-12180138D01*
X3408217Y-12180138D02*
X3398694Y-12199186D01*
X3398694Y-12199186D02*
X3389170Y-12208710D01*
X3389170Y-12208710D02*
X3370122Y-12218234D01*
X3370122Y-12218234D02*
X3322503Y-12218234D01*
X3322503Y-12218234D02*
X3303456Y-12208710D01*
X3303456Y-12208710D02*
X3293932Y-12199186D01*
X3579646Y-12084900D02*
X3579646Y-12218234D01*
X3532027Y-12008710D02*
X3484408Y-12151567D01*
X3484408Y-12151567D02*
X3608217Y-12151567D01*
X3674884Y-12018234D02*
X3674884Y-12056329D01*
X3751075Y-12018234D02*
X3751075Y-12056329D01*
X4046313Y-12294424D02*
X4036789Y-12284900D01*
X4036789Y-12284900D02*
X4017741Y-12256329D01*
X4017741Y-12256329D02*
X4008218Y-12237281D01*
X4008218Y-12237281D02*
X3998694Y-12208710D01*
X3998694Y-12208710D02*
X3989170Y-12161091D01*
X3989170Y-12161091D02*
X3989170Y-12122996D01*
X3989170Y-12122996D02*
X3998694Y-12075377D01*
X3998694Y-12075377D02*
X4008218Y-12046805D01*
X4008218Y-12046805D02*
X4017741Y-12027758D01*
X4017741Y-12027758D02*
X4036789Y-11999186D01*
X4036789Y-11999186D02*
X4046313Y-11989662D01*
X4160598Y-12018234D02*
X4179646Y-12018234D01*
X4179646Y-12018234D02*
X4198694Y-12027758D01*
X4198694Y-12027758D02*
X4208218Y-12037281D01*
X4208218Y-12037281D02*
X4217741Y-12056329D01*
X4217741Y-12056329D02*
X4227265Y-12094424D01*
X4227265Y-12094424D02*
X4227265Y-12142043D01*
X4227265Y-12142043D02*
X4217741Y-12180138D01*
X4217741Y-12180138D02*
X4208218Y-12199186D01*
X4208218Y-12199186D02*
X4198694Y-12208710D01*
X4198694Y-12208710D02*
X4179646Y-12218234D01*
X4179646Y-12218234D02*
X4160598Y-12218234D01*
X4160598Y-12218234D02*
X4141551Y-12208710D01*
X4141551Y-12208710D02*
X4132027Y-12199186D01*
X4132027Y-12199186D02*
X4122503Y-12180138D01*
X4122503Y-12180138D02*
X4112979Y-12142043D01*
X4112979Y-12142043D02*
X4112979Y-12094424D01*
X4112979Y-12094424D02*
X4122503Y-12056329D01*
X4122503Y-12056329D02*
X4132027Y-12037281D01*
X4132027Y-12037281D02*
X4141551Y-12027758D01*
X4141551Y-12027758D02*
X4160598Y-12018234D01*
X4465361Y-12218234D02*
X4465361Y-12018234D01*
X4551075Y-12218234D02*
X4551075Y-12113472D01*
X4551075Y-12113472D02*
X4541551Y-12094424D01*
X4541551Y-12094424D02*
X4522503Y-12084900D01*
X4522503Y-12084900D02*
X4493932Y-12084900D01*
X4493932Y-12084900D02*
X4474884Y-12094424D01*
X4474884Y-12094424D02*
X4465361Y-12103948D01*
X4674884Y-12218234D02*
X4655837Y-12208710D01*
X4655837Y-12208710D02*
X4646313Y-12199186D01*
X4646313Y-12199186D02*
X4636789Y-12180138D01*
X4636789Y-12180138D02*
X4636789Y-12122996D01*
X4636789Y-12122996D02*
X4646313Y-12103948D01*
X4646313Y-12103948D02*
X4655837Y-12094424D01*
X4655837Y-12094424D02*
X4674884Y-12084900D01*
X4674884Y-12084900D02*
X4703456Y-12084900D01*
X4703456Y-12084900D02*
X4722503Y-12094424D01*
X4722503Y-12094424D02*
X4732027Y-12103948D01*
X4732027Y-12103948D02*
X4741551Y-12122996D01*
X4741551Y-12122996D02*
X4741551Y-12180138D01*
X4741551Y-12180138D02*
X4732027Y-12199186D01*
X4732027Y-12199186D02*
X4722503Y-12208710D01*
X4722503Y-12208710D02*
X4703456Y-12218234D01*
X4703456Y-12218234D02*
X4674884Y-12218234D01*
X4855837Y-12218234D02*
X4836789Y-12208710D01*
X4836789Y-12208710D02*
X4827265Y-12189662D01*
X4827265Y-12189662D02*
X4827265Y-12018234D01*
X5008218Y-12208710D02*
X4989170Y-12218234D01*
X4989170Y-12218234D02*
X4951075Y-12218234D01*
X4951075Y-12218234D02*
X4932027Y-12208710D01*
X4932027Y-12208710D02*
X4922503Y-12189662D01*
X4922503Y-12189662D02*
X4922503Y-12113472D01*
X4922503Y-12113472D02*
X4932027Y-12094424D01*
X4932027Y-12094424D02*
X4951075Y-12084900D01*
X4951075Y-12084900D02*
X4989170Y-12084900D01*
X4989170Y-12084900D02*
X5008218Y-12094424D01*
X5008218Y-12094424D02*
X5017742Y-12113472D01*
X5017742Y-12113472D02*
X5017742Y-12132519D01*
X5017742Y-12132519D02*
X4922503Y-12151567D01*
X5093932Y-12208710D02*
X5112980Y-12218234D01*
X5112980Y-12218234D02*
X5151075Y-12218234D01*
X5151075Y-12218234D02*
X5170123Y-12208710D01*
X5170123Y-12208710D02*
X5179646Y-12189662D01*
X5179646Y-12189662D02*
X5179646Y-12180138D01*
X5179646Y-12180138D02*
X5170123Y-12161091D01*
X5170123Y-12161091D02*
X5151075Y-12151567D01*
X5151075Y-12151567D02*
X5122503Y-12151567D01*
X5122503Y-12151567D02*
X5103456Y-12142043D01*
X5103456Y-12142043D02*
X5093932Y-12122996D01*
X5093932Y-12122996D02*
X5093932Y-12113472D01*
X5093932Y-12113472D02*
X5103456Y-12094424D01*
X5103456Y-12094424D02*
X5122503Y-12084900D01*
X5122503Y-12084900D02*
X5151075Y-12084900D01*
X5151075Y-12084900D02*
X5170123Y-12094424D01*
X5417742Y-12142043D02*
X5570123Y-12142043D01*
X5493932Y-12218234D02*
X5493932Y-12065853D01*
X5846313Y-12103948D02*
X5827265Y-12094424D01*
X5827265Y-12094424D02*
X5817742Y-12084900D01*
X5817742Y-12084900D02*
X5808218Y-12065853D01*
X5808218Y-12065853D02*
X5808218Y-12056329D01*
X5808218Y-12056329D02*
X5817742Y-12037281D01*
X5817742Y-12037281D02*
X5827265Y-12027758D01*
X5827265Y-12027758D02*
X5846313Y-12018234D01*
X5846313Y-12018234D02*
X5884408Y-12018234D01*
X5884408Y-12018234D02*
X5903456Y-12027758D01*
X5903456Y-12027758D02*
X5912980Y-12037281D01*
X5912980Y-12037281D02*
X5922503Y-12056329D01*
X5922503Y-12056329D02*
X5922503Y-12065853D01*
X5922503Y-12065853D02*
X5912980Y-12084900D01*
X5912980Y-12084900D02*
X5903456Y-12094424D01*
X5903456Y-12094424D02*
X5884408Y-12103948D01*
X5884408Y-12103948D02*
X5846313Y-12103948D01*
X5846313Y-12103948D02*
X5827265Y-12113472D01*
X5827265Y-12113472D02*
X5817742Y-12122996D01*
X5817742Y-12122996D02*
X5808218Y-12142043D01*
X5808218Y-12142043D02*
X5808218Y-12180138D01*
X5808218Y-12180138D02*
X5817742Y-12199186D01*
X5817742Y-12199186D02*
X5827265Y-12208710D01*
X5827265Y-12208710D02*
X5846313Y-12218234D01*
X5846313Y-12218234D02*
X5884408Y-12218234D01*
X5884408Y-12218234D02*
X5903456Y-12208710D01*
X5903456Y-12208710D02*
X5912980Y-12199186D01*
X5912980Y-12199186D02*
X5922503Y-12180138D01*
X5922503Y-12180138D02*
X5922503Y-12142043D01*
X5922503Y-12142043D02*
X5912980Y-12122996D01*
X5912980Y-12122996D02*
X5903456Y-12113472D01*
X5903456Y-12113472D02*
X5884408Y-12103948D01*
X6151075Y-12208710D02*
X6170123Y-12218234D01*
X6170123Y-12218234D02*
X6208218Y-12218234D01*
X6208218Y-12218234D02*
X6227265Y-12208710D01*
X6227265Y-12208710D02*
X6236789Y-12189662D01*
X6236789Y-12189662D02*
X6236789Y-12180138D01*
X6236789Y-12180138D02*
X6227265Y-12161091D01*
X6227265Y-12161091D02*
X6208218Y-12151567D01*
X6208218Y-12151567D02*
X6179646Y-12151567D01*
X6179646Y-12151567D02*
X6160599Y-12142043D01*
X6160599Y-12142043D02*
X6151075Y-12122996D01*
X6151075Y-12122996D02*
X6151075Y-12113472D01*
X6151075Y-12113472D02*
X6160599Y-12094424D01*
X6160599Y-12094424D02*
X6179646Y-12084900D01*
X6179646Y-12084900D02*
X6208218Y-12084900D01*
X6208218Y-12084900D02*
X6227265Y-12094424D01*
X6351075Y-12218234D02*
X6332027Y-12208710D01*
X6332027Y-12208710D02*
X6322504Y-12189662D01*
X6322504Y-12189662D02*
X6322504Y-12018234D01*
X6455837Y-12218234D02*
X6436789Y-12208710D01*
X6436789Y-12208710D02*
X6427265Y-12199186D01*
X6427265Y-12199186D02*
X6417742Y-12180138D01*
X6417742Y-12180138D02*
X6417742Y-12122996D01*
X6417742Y-12122996D02*
X6427265Y-12103948D01*
X6427265Y-12103948D02*
X6436789Y-12094424D01*
X6436789Y-12094424D02*
X6455837Y-12084900D01*
X6455837Y-12084900D02*
X6484408Y-12084900D01*
X6484408Y-12084900D02*
X6503456Y-12094424D01*
X6503456Y-12094424D02*
X6512980Y-12103948D01*
X6512980Y-12103948D02*
X6522504Y-12122996D01*
X6522504Y-12122996D02*
X6522504Y-12180138D01*
X6522504Y-12180138D02*
X6512980Y-12199186D01*
X6512980Y-12199186D02*
X6503456Y-12208710D01*
X6503456Y-12208710D02*
X6484408Y-12218234D01*
X6484408Y-12218234D02*
X6455837Y-12218234D01*
X6579646Y-12084900D02*
X6655837Y-12084900D01*
X6608218Y-12018234D02*
X6608218Y-12189662D01*
X6608218Y-12189662D02*
X6617742Y-12208710D01*
X6617742Y-12208710D02*
X6636789Y-12218234D01*
X6636789Y-12218234D02*
X6655837Y-12218234D01*
X6712980Y-12208710D02*
X6732027Y-12218234D01*
X6732027Y-12218234D02*
X6770123Y-12218234D01*
X6770123Y-12218234D02*
X6789170Y-12208710D01*
X6789170Y-12208710D02*
X6798694Y-12189662D01*
X6798694Y-12189662D02*
X6798694Y-12180138D01*
X6798694Y-12180138D02*
X6789170Y-12161091D01*
X6789170Y-12161091D02*
X6770123Y-12151567D01*
X6770123Y-12151567D02*
X6741551Y-12151567D01*
X6741551Y-12151567D02*
X6722504Y-12142043D01*
X6722504Y-12142043D02*
X6712980Y-12122996D01*
X6712980Y-12122996D02*
X6712980Y-12113472D01*
X6712980Y-12113472D02*
X6722504Y-12094424D01*
X6722504Y-12094424D02*
X6741551Y-12084900D01*
X6741551Y-12084900D02*
X6770123Y-12084900D01*
X6770123Y-12084900D02*
X6789170Y-12094424D01*
X6865361Y-12294424D02*
X6874885Y-12284900D01*
X6874885Y-12284900D02*
X6893932Y-12256329D01*
X6893932Y-12256329D02*
X6903456Y-12237281D01*
X6903456Y-12237281D02*
X6912980Y-12208710D01*
X6912980Y-12208710D02*
X6922504Y-12161091D01*
X6922504Y-12161091D02*
X6922504Y-12122996D01*
X6922504Y-12122996D02*
X6912980Y-12075377D01*
X6912980Y-12075377D02*
X6903456Y-12046805D01*
X6903456Y-12046805D02*
X6893932Y-12027758D01*
X6893932Y-12027758D02*
X6874885Y-11999186D01*
X6874885Y-11999186D02*
X6865361Y-11989662D01*
D10*
X456606Y-12426106D02*
X456606Y-12355394D01*
X385894Y-12355394D01*
X385894Y-12426106D01*
X456606Y-12426106D01*
D11*
X836789Y-12482234D02*
X722503Y-12482234D01*
X779646Y-12482234D02*
X779646Y-12282234D01*
X779646Y-12282234D02*
X760598Y-12310805D01*
X760598Y-12310805D02*
X741551Y-12329853D01*
X741551Y-12329853D02*
X722503Y-12339377D01*
X922503Y-12463186D02*
X932027Y-12472710D01*
X932027Y-12472710D02*
X922503Y-12482234D01*
X922503Y-12482234D02*
X912979Y-12472710D01*
X912979Y-12472710D02*
X922503Y-12463186D01*
X922503Y-12463186D02*
X922503Y-12482234D01*
X1055836Y-12282234D02*
X1074884Y-12282234D01*
X1074884Y-12282234D02*
X1093932Y-12291758D01*
X1093932Y-12291758D02*
X1103455Y-12301281D01*
X1103455Y-12301281D02*
X1112979Y-12320329D01*
X1112979Y-12320329D02*
X1122503Y-12358424D01*
X1122503Y-12358424D02*
X1122503Y-12406043D01*
X1122503Y-12406043D02*
X1112979Y-12444138D01*
X1112979Y-12444138D02*
X1103455Y-12463186D01*
X1103455Y-12463186D02*
X1093932Y-12472710D01*
X1093932Y-12472710D02*
X1074884Y-12482234D01*
X1074884Y-12482234D02*
X1055836Y-12482234D01*
X1055836Y-12482234D02*
X1036789Y-12472710D01*
X1036789Y-12472710D02*
X1027265Y-12463186D01*
X1027265Y-12463186D02*
X1017741Y-12444138D01*
X1017741Y-12444138D02*
X1008217Y-12406043D01*
X1008217Y-12406043D02*
X1008217Y-12358424D01*
X1008217Y-12358424D02*
X1017741Y-12320329D01*
X1017741Y-12320329D02*
X1027265Y-12301281D01*
X1027265Y-12301281D02*
X1036789Y-12291758D01*
X1036789Y-12291758D02*
X1055836Y-12282234D01*
X1246313Y-12282234D02*
X1265360Y-12282234D01*
X1265360Y-12282234D02*
X1284408Y-12291758D01*
X1284408Y-12291758D02*
X1293932Y-12301281D01*
X1293932Y-12301281D02*
X1303455Y-12320329D01*
X1303455Y-12320329D02*
X1312979Y-12358424D01*
X1312979Y-12358424D02*
X1312979Y-12406043D01*
X1312979Y-12406043D02*
X1303455Y-12444138D01*
X1303455Y-12444138D02*
X1293932Y-12463186D01*
X1293932Y-12463186D02*
X1284408Y-12472710D01*
X1284408Y-12472710D02*
X1265360Y-12482234D01*
X1265360Y-12482234D02*
X1246313Y-12482234D01*
X1246313Y-12482234D02*
X1227265Y-12472710D01*
X1227265Y-12472710D02*
X1217741Y-12463186D01*
X1217741Y-12463186D02*
X1208217Y-12444138D01*
X1208217Y-12444138D02*
X1198694Y-12406043D01*
X1198694Y-12406043D02*
X1198694Y-12358424D01*
X1198694Y-12358424D02*
X1208217Y-12320329D01*
X1208217Y-12320329D02*
X1217741Y-12301281D01*
X1217741Y-12301281D02*
X1227265Y-12291758D01*
X1227265Y-12291758D02*
X1246313Y-12282234D01*
X1436789Y-12282234D02*
X1455836Y-12282234D01*
X1455836Y-12282234D02*
X1474884Y-12291758D01*
X1474884Y-12291758D02*
X1484408Y-12301281D01*
X1484408Y-12301281D02*
X1493932Y-12320329D01*
X1493932Y-12320329D02*
X1503455Y-12358424D01*
X1503455Y-12358424D02*
X1503455Y-12406043D01*
X1503455Y-12406043D02*
X1493932Y-12444138D01*
X1493932Y-12444138D02*
X1484408Y-12463186D01*
X1484408Y-12463186D02*
X1474884Y-12472710D01*
X1474884Y-12472710D02*
X1455836Y-12482234D01*
X1455836Y-12482234D02*
X1436789Y-12482234D01*
X1436789Y-12482234D02*
X1417741Y-12472710D01*
X1417741Y-12472710D02*
X1408217Y-12463186D01*
X1408217Y-12463186D02*
X1398693Y-12444138D01*
X1398693Y-12444138D02*
X1389170Y-12406043D01*
X1389170Y-12406043D02*
X1389170Y-12358424D01*
X1389170Y-12358424D02*
X1398693Y-12320329D01*
X1398693Y-12320329D02*
X1408217Y-12301281D01*
X1408217Y-12301281D02*
X1417741Y-12291758D01*
X1417741Y-12291758D02*
X1436789Y-12282234D01*
X1589170Y-12482234D02*
X1589170Y-12348900D01*
X1589170Y-12367948D02*
X1598693Y-12358424D01*
X1598693Y-12358424D02*
X1617741Y-12348900D01*
X1617741Y-12348900D02*
X1646313Y-12348900D01*
X1646313Y-12348900D02*
X1665360Y-12358424D01*
X1665360Y-12358424D02*
X1674884Y-12377472D01*
X1674884Y-12377472D02*
X1674884Y-12482234D01*
X1674884Y-12377472D02*
X1684408Y-12358424D01*
X1684408Y-12358424D02*
X1703455Y-12348900D01*
X1703455Y-12348900D02*
X1732027Y-12348900D01*
X1732027Y-12348900D02*
X1751074Y-12358424D01*
X1751074Y-12358424D02*
X1760598Y-12377472D01*
X1760598Y-12377472D02*
X1760598Y-12482234D01*
X1855836Y-12482234D02*
X1855836Y-12348900D01*
X1855836Y-12367948D02*
X1865360Y-12358424D01*
X1865360Y-12358424D02*
X1884408Y-12348900D01*
X1884408Y-12348900D02*
X1912979Y-12348900D01*
X1912979Y-12348900D02*
X1932027Y-12358424D01*
X1932027Y-12358424D02*
X1941551Y-12377472D01*
X1941551Y-12377472D02*
X1941551Y-12482234D01*
X1941551Y-12377472D02*
X1951074Y-12358424D01*
X1951074Y-12358424D02*
X1970122Y-12348900D01*
X1970122Y-12348900D02*
X1998693Y-12348900D01*
X1998693Y-12348900D02*
X2017741Y-12358424D01*
X2017741Y-12358424D02*
X2027265Y-12377472D01*
X2027265Y-12377472D02*
X2027265Y-12482234D01*
X2417741Y-12272710D02*
X2246313Y-12529853D01*
X2674884Y-12282234D02*
X2693932Y-12282234D01*
X2693932Y-12282234D02*
X2712979Y-12291758D01*
X2712979Y-12291758D02*
X2722503Y-12301281D01*
X2722503Y-12301281D02*
X2732027Y-12320329D01*
X2732027Y-12320329D02*
X2741551Y-12358424D01*
X2741551Y-12358424D02*
X2741551Y-12406043D01*
X2741551Y-12406043D02*
X2732027Y-12444138D01*
X2732027Y-12444138D02*
X2722503Y-12463186D01*
X2722503Y-12463186D02*
X2712979Y-12472710D01*
X2712979Y-12472710D02*
X2693932Y-12482234D01*
X2693932Y-12482234D02*
X2674884Y-12482234D01*
X2674884Y-12482234D02*
X2655837Y-12472710D01*
X2655837Y-12472710D02*
X2646313Y-12463186D01*
X2646313Y-12463186D02*
X2636789Y-12444138D01*
X2636789Y-12444138D02*
X2627265Y-12406043D01*
X2627265Y-12406043D02*
X2627265Y-12358424D01*
X2627265Y-12358424D02*
X2636789Y-12320329D01*
X2636789Y-12320329D02*
X2646313Y-12301281D01*
X2646313Y-12301281D02*
X2655837Y-12291758D01*
X2655837Y-12291758D02*
X2674884Y-12282234D01*
X2827265Y-12463186D02*
X2836789Y-12472710D01*
X2836789Y-12472710D02*
X2827265Y-12482234D01*
X2827265Y-12482234D02*
X2817741Y-12472710D01*
X2817741Y-12472710D02*
X2827265Y-12463186D01*
X2827265Y-12463186D02*
X2827265Y-12482234D01*
X2960598Y-12282234D02*
X2979646Y-12282234D01*
X2979646Y-12282234D02*
X2998694Y-12291758D01*
X2998694Y-12291758D02*
X3008217Y-12301281D01*
X3008217Y-12301281D02*
X3017741Y-12320329D01*
X3017741Y-12320329D02*
X3027265Y-12358424D01*
X3027265Y-12358424D02*
X3027265Y-12406043D01*
X3027265Y-12406043D02*
X3017741Y-12444138D01*
X3017741Y-12444138D02*
X3008217Y-12463186D01*
X3008217Y-12463186D02*
X2998694Y-12472710D01*
X2998694Y-12472710D02*
X2979646Y-12482234D01*
X2979646Y-12482234D02*
X2960598Y-12482234D01*
X2960598Y-12482234D02*
X2941551Y-12472710D01*
X2941551Y-12472710D02*
X2932027Y-12463186D01*
X2932027Y-12463186D02*
X2922503Y-12444138D01*
X2922503Y-12444138D02*
X2912979Y-12406043D01*
X2912979Y-12406043D02*
X2912979Y-12358424D01*
X2912979Y-12358424D02*
X2922503Y-12320329D01*
X2922503Y-12320329D02*
X2932027Y-12301281D01*
X2932027Y-12301281D02*
X2941551Y-12291758D01*
X2941551Y-12291758D02*
X2960598Y-12282234D01*
X3093932Y-12282234D02*
X3217741Y-12282234D01*
X3217741Y-12282234D02*
X3151075Y-12358424D01*
X3151075Y-12358424D02*
X3179646Y-12358424D01*
X3179646Y-12358424D02*
X3198694Y-12367948D01*
X3198694Y-12367948D02*
X3208217Y-12377472D01*
X3208217Y-12377472D02*
X3217741Y-12396519D01*
X3217741Y-12396519D02*
X3217741Y-12444138D01*
X3217741Y-12444138D02*
X3208217Y-12463186D01*
X3208217Y-12463186D02*
X3198694Y-12472710D01*
X3198694Y-12472710D02*
X3179646Y-12482234D01*
X3179646Y-12482234D02*
X3122503Y-12482234D01*
X3122503Y-12482234D02*
X3103456Y-12472710D01*
X3103456Y-12472710D02*
X3093932Y-12463186D01*
X3312979Y-12482234D02*
X3351075Y-12482234D01*
X3351075Y-12482234D02*
X3370122Y-12472710D01*
X3370122Y-12472710D02*
X3379646Y-12463186D01*
X3379646Y-12463186D02*
X3398694Y-12434615D01*
X3398694Y-12434615D02*
X3408217Y-12396519D01*
X3408217Y-12396519D02*
X3408217Y-12320329D01*
X3408217Y-12320329D02*
X3398694Y-12301281D01*
X3398694Y-12301281D02*
X3389170Y-12291758D01*
X3389170Y-12291758D02*
X3370122Y-12282234D01*
X3370122Y-12282234D02*
X3332027Y-12282234D01*
X3332027Y-12282234D02*
X3312979Y-12291758D01*
X3312979Y-12291758D02*
X3303456Y-12301281D01*
X3303456Y-12301281D02*
X3293932Y-12320329D01*
X3293932Y-12320329D02*
X3293932Y-12367948D01*
X3293932Y-12367948D02*
X3303456Y-12386996D01*
X3303456Y-12386996D02*
X3312979Y-12396519D01*
X3312979Y-12396519D02*
X3332027Y-12406043D01*
X3332027Y-12406043D02*
X3370122Y-12406043D01*
X3370122Y-12406043D02*
X3389170Y-12396519D01*
X3389170Y-12396519D02*
X3398694Y-12386996D01*
X3398694Y-12386996D02*
X3408217Y-12367948D01*
X3579646Y-12348900D02*
X3579646Y-12482234D01*
X3532027Y-12272710D02*
X3484408Y-12415567D01*
X3484408Y-12415567D02*
X3608217Y-12415567D01*
X3674884Y-12282234D02*
X3674884Y-12320329D01*
X3751075Y-12282234D02*
X3751075Y-12320329D01*
X4046313Y-12558424D02*
X4036789Y-12548900D01*
X4036789Y-12548900D02*
X4017741Y-12520329D01*
X4017741Y-12520329D02*
X4008218Y-12501281D01*
X4008218Y-12501281D02*
X3998694Y-12472710D01*
X3998694Y-12472710D02*
X3989170Y-12425091D01*
X3989170Y-12425091D02*
X3989170Y-12386996D01*
X3989170Y-12386996D02*
X3998694Y-12339377D01*
X3998694Y-12339377D02*
X4008218Y-12310805D01*
X4008218Y-12310805D02*
X4017741Y-12291758D01*
X4017741Y-12291758D02*
X4036789Y-12263186D01*
X4036789Y-12263186D02*
X4046313Y-12253662D01*
X4208218Y-12348900D02*
X4208218Y-12482234D01*
X4160598Y-12272710D02*
X4112979Y-12415567D01*
X4112979Y-12415567D02*
X4236789Y-12415567D01*
X4398694Y-12282234D02*
X4360599Y-12282234D01*
X4360599Y-12282234D02*
X4341551Y-12291758D01*
X4341551Y-12291758D02*
X4332027Y-12301281D01*
X4332027Y-12301281D02*
X4312980Y-12329853D01*
X4312980Y-12329853D02*
X4303456Y-12367948D01*
X4303456Y-12367948D02*
X4303456Y-12444138D01*
X4303456Y-12444138D02*
X4312980Y-12463186D01*
X4312980Y-12463186D02*
X4322503Y-12472710D01*
X4322503Y-12472710D02*
X4341551Y-12482234D01*
X4341551Y-12482234D02*
X4379646Y-12482234D01*
X4379646Y-12482234D02*
X4398694Y-12472710D01*
X4398694Y-12472710D02*
X4408218Y-12463186D01*
X4408218Y-12463186D02*
X4417741Y-12444138D01*
X4417741Y-12444138D02*
X4417741Y-12396519D01*
X4417741Y-12396519D02*
X4408218Y-12377472D01*
X4408218Y-12377472D02*
X4398694Y-12367948D01*
X4398694Y-12367948D02*
X4379646Y-12358424D01*
X4379646Y-12358424D02*
X4341551Y-12358424D01*
X4341551Y-12358424D02*
X4322503Y-12367948D01*
X4322503Y-12367948D02*
X4312980Y-12377472D01*
X4312980Y-12377472D02*
X4303456Y-12396519D01*
X4655837Y-12482234D02*
X4655837Y-12282234D01*
X4741551Y-12482234D02*
X4741551Y-12377472D01*
X4741551Y-12377472D02*
X4732027Y-12358424D01*
X4732027Y-12358424D02*
X4712980Y-12348900D01*
X4712980Y-12348900D02*
X4684408Y-12348900D01*
X4684408Y-12348900D02*
X4665361Y-12358424D01*
X4665361Y-12358424D02*
X4655837Y-12367948D01*
X4865361Y-12482234D02*
X4846313Y-12472710D01*
X4846313Y-12472710D02*
X4836789Y-12463186D01*
X4836789Y-12463186D02*
X4827265Y-12444138D01*
X4827265Y-12444138D02*
X4827265Y-12386996D01*
X4827265Y-12386996D02*
X4836789Y-12367948D01*
X4836789Y-12367948D02*
X4846313Y-12358424D01*
X4846313Y-12358424D02*
X4865361Y-12348900D01*
X4865361Y-12348900D02*
X4893932Y-12348900D01*
X4893932Y-12348900D02*
X4912980Y-12358424D01*
X4912980Y-12358424D02*
X4922503Y-12367948D01*
X4922503Y-12367948D02*
X4932027Y-12386996D01*
X4932027Y-12386996D02*
X4932027Y-12444138D01*
X4932027Y-12444138D02*
X4922503Y-12463186D01*
X4922503Y-12463186D02*
X4912980Y-12472710D01*
X4912980Y-12472710D02*
X4893932Y-12482234D01*
X4893932Y-12482234D02*
X4865361Y-12482234D01*
X5046313Y-12482234D02*
X5027265Y-12472710D01*
X5027265Y-12472710D02*
X5017742Y-12453662D01*
X5017742Y-12453662D02*
X5017742Y-12282234D01*
X5198694Y-12472710D02*
X5179646Y-12482234D01*
X5179646Y-12482234D02*
X5141551Y-12482234D01*
X5141551Y-12482234D02*
X5122503Y-12472710D01*
X5122503Y-12472710D02*
X5112980Y-12453662D01*
X5112980Y-12453662D02*
X5112980Y-12377472D01*
X5112980Y-12377472D02*
X5122503Y-12358424D01*
X5122503Y-12358424D02*
X5141551Y-12348900D01*
X5141551Y-12348900D02*
X5179646Y-12348900D01*
X5179646Y-12348900D02*
X5198694Y-12358424D01*
X5198694Y-12358424D02*
X5208218Y-12377472D01*
X5208218Y-12377472D02*
X5208218Y-12396519D01*
X5208218Y-12396519D02*
X5112980Y-12415567D01*
X5284408Y-12472710D02*
X5303456Y-12482234D01*
X5303456Y-12482234D02*
X5341551Y-12482234D01*
X5341551Y-12482234D02*
X5360599Y-12472710D01*
X5360599Y-12472710D02*
X5370123Y-12453662D01*
X5370123Y-12453662D02*
X5370123Y-12444138D01*
X5370123Y-12444138D02*
X5360599Y-12425091D01*
X5360599Y-12425091D02*
X5341551Y-12415567D01*
X5341551Y-12415567D02*
X5312980Y-12415567D01*
X5312980Y-12415567D02*
X5293932Y-12406043D01*
X5293932Y-12406043D02*
X5284408Y-12386996D01*
X5284408Y-12386996D02*
X5284408Y-12377472D01*
X5284408Y-12377472D02*
X5293932Y-12358424D01*
X5293932Y-12358424D02*
X5312980Y-12348900D01*
X5312980Y-12348900D02*
X5341551Y-12348900D01*
X5341551Y-12348900D02*
X5360599Y-12358424D01*
X5436789Y-12558424D02*
X5446313Y-12548900D01*
X5446313Y-12548900D02*
X5465361Y-12520329D01*
X5465361Y-12520329D02*
X5474884Y-12501281D01*
X5474884Y-12501281D02*
X5484408Y-12472710D01*
X5484408Y-12472710D02*
X5493932Y-12425091D01*
X5493932Y-12425091D02*
X5493932Y-12386996D01*
X5493932Y-12386996D02*
X5484408Y-12339377D01*
X5484408Y-12339377D02*
X5474884Y-12310805D01*
X5474884Y-12310805D02*
X5465361Y-12291758D01*
X5465361Y-12291758D02*
X5446313Y-12263186D01*
X5446313Y-12263186D02*
X5436789Y-12253662D01*
D15*
X396250Y-12729750D02*
X471250Y-12654750D01*
X396250Y-12579750D01*
X321250Y-12654750D01*
X396250Y-12729750D01*
D11*
X836789Y-12746234D02*
X722503Y-12746234D01*
X779646Y-12746234D02*
X779646Y-12546234D01*
X779646Y-12546234D02*
X760598Y-12574805D01*
X760598Y-12574805D02*
X741551Y-12593853D01*
X741551Y-12593853D02*
X722503Y-12603377D01*
X922503Y-12727186D02*
X932027Y-12736710D01*
X932027Y-12736710D02*
X922503Y-12746234D01*
X922503Y-12746234D02*
X912979Y-12736710D01*
X912979Y-12736710D02*
X922503Y-12727186D01*
X922503Y-12727186D02*
X922503Y-12746234D01*
X1112979Y-12546234D02*
X1017741Y-12546234D01*
X1017741Y-12546234D02*
X1008217Y-12641472D01*
X1008217Y-12641472D02*
X1017741Y-12631948D01*
X1017741Y-12631948D02*
X1036789Y-12622424D01*
X1036789Y-12622424D02*
X1084408Y-12622424D01*
X1084408Y-12622424D02*
X1103455Y-12631948D01*
X1103455Y-12631948D02*
X1112979Y-12641472D01*
X1112979Y-12641472D02*
X1122503Y-12660519D01*
X1122503Y-12660519D02*
X1122503Y-12708138D01*
X1122503Y-12708138D02*
X1112979Y-12727186D01*
X1112979Y-12727186D02*
X1103455Y-12736710D01*
X1103455Y-12736710D02*
X1084408Y-12746234D01*
X1084408Y-12746234D02*
X1036789Y-12746234D01*
X1036789Y-12746234D02*
X1017741Y-12736710D01*
X1017741Y-12736710D02*
X1008217Y-12727186D01*
X1246313Y-12546234D02*
X1265360Y-12546234D01*
X1265360Y-12546234D02*
X1284408Y-12555758D01*
X1284408Y-12555758D02*
X1293932Y-12565281D01*
X1293932Y-12565281D02*
X1303455Y-12584329D01*
X1303455Y-12584329D02*
X1312979Y-12622424D01*
X1312979Y-12622424D02*
X1312979Y-12670043D01*
X1312979Y-12670043D02*
X1303455Y-12708138D01*
X1303455Y-12708138D02*
X1293932Y-12727186D01*
X1293932Y-12727186D02*
X1284408Y-12736710D01*
X1284408Y-12736710D02*
X1265360Y-12746234D01*
X1265360Y-12746234D02*
X1246313Y-12746234D01*
X1246313Y-12746234D02*
X1227265Y-12736710D01*
X1227265Y-12736710D02*
X1217741Y-12727186D01*
X1217741Y-12727186D02*
X1208217Y-12708138D01*
X1208217Y-12708138D02*
X1198694Y-12670043D01*
X1198694Y-12670043D02*
X1198694Y-12622424D01*
X1198694Y-12622424D02*
X1208217Y-12584329D01*
X1208217Y-12584329D02*
X1217741Y-12565281D01*
X1217741Y-12565281D02*
X1227265Y-12555758D01*
X1227265Y-12555758D02*
X1246313Y-12546234D01*
X1436789Y-12546234D02*
X1455836Y-12546234D01*
X1455836Y-12546234D02*
X1474884Y-12555758D01*
X1474884Y-12555758D02*
X1484408Y-12565281D01*
X1484408Y-12565281D02*
X1493932Y-12584329D01*
X1493932Y-12584329D02*
X1503455Y-12622424D01*
X1503455Y-12622424D02*
X1503455Y-12670043D01*
X1503455Y-12670043D02*
X1493932Y-12708138D01*
X1493932Y-12708138D02*
X1484408Y-12727186D01*
X1484408Y-12727186D02*
X1474884Y-12736710D01*
X1474884Y-12736710D02*
X1455836Y-12746234D01*
X1455836Y-12746234D02*
X1436789Y-12746234D01*
X1436789Y-12746234D02*
X1417741Y-12736710D01*
X1417741Y-12736710D02*
X1408217Y-12727186D01*
X1408217Y-12727186D02*
X1398693Y-12708138D01*
X1398693Y-12708138D02*
X1389170Y-12670043D01*
X1389170Y-12670043D02*
X1389170Y-12622424D01*
X1389170Y-12622424D02*
X1398693Y-12584329D01*
X1398693Y-12584329D02*
X1408217Y-12565281D01*
X1408217Y-12565281D02*
X1417741Y-12555758D01*
X1417741Y-12555758D02*
X1436789Y-12546234D01*
X1589170Y-12746234D02*
X1589170Y-12612900D01*
X1589170Y-12631948D02*
X1598693Y-12622424D01*
X1598693Y-12622424D02*
X1617741Y-12612900D01*
X1617741Y-12612900D02*
X1646313Y-12612900D01*
X1646313Y-12612900D02*
X1665360Y-12622424D01*
X1665360Y-12622424D02*
X1674884Y-12641472D01*
X1674884Y-12641472D02*
X1674884Y-12746234D01*
X1674884Y-12641472D02*
X1684408Y-12622424D01*
X1684408Y-12622424D02*
X1703455Y-12612900D01*
X1703455Y-12612900D02*
X1732027Y-12612900D01*
X1732027Y-12612900D02*
X1751074Y-12622424D01*
X1751074Y-12622424D02*
X1760598Y-12641472D01*
X1760598Y-12641472D02*
X1760598Y-12746234D01*
X1855836Y-12746234D02*
X1855836Y-12612900D01*
X1855836Y-12631948D02*
X1865360Y-12622424D01*
X1865360Y-12622424D02*
X1884408Y-12612900D01*
X1884408Y-12612900D02*
X1912979Y-12612900D01*
X1912979Y-12612900D02*
X1932027Y-12622424D01*
X1932027Y-12622424D02*
X1941551Y-12641472D01*
X1941551Y-12641472D02*
X1941551Y-12746234D01*
X1941551Y-12641472D02*
X1951074Y-12622424D01*
X1951074Y-12622424D02*
X1970122Y-12612900D01*
X1970122Y-12612900D02*
X1998693Y-12612900D01*
X1998693Y-12612900D02*
X2017741Y-12622424D01*
X2017741Y-12622424D02*
X2027265Y-12641472D01*
X2027265Y-12641472D02*
X2027265Y-12746234D01*
X2417741Y-12536710D02*
X2246313Y-12793853D01*
X2674884Y-12546234D02*
X2693932Y-12546234D01*
X2693932Y-12546234D02*
X2712979Y-12555758D01*
X2712979Y-12555758D02*
X2722503Y-12565281D01*
X2722503Y-12565281D02*
X2732027Y-12584329D01*
X2732027Y-12584329D02*
X2741551Y-12622424D01*
X2741551Y-12622424D02*
X2741551Y-12670043D01*
X2741551Y-12670043D02*
X2732027Y-12708138D01*
X2732027Y-12708138D02*
X2722503Y-12727186D01*
X2722503Y-12727186D02*
X2712979Y-12736710D01*
X2712979Y-12736710D02*
X2693932Y-12746234D01*
X2693932Y-12746234D02*
X2674884Y-12746234D01*
X2674884Y-12746234D02*
X2655837Y-12736710D01*
X2655837Y-12736710D02*
X2646313Y-12727186D01*
X2646313Y-12727186D02*
X2636789Y-12708138D01*
X2636789Y-12708138D02*
X2627265Y-12670043D01*
X2627265Y-12670043D02*
X2627265Y-12622424D01*
X2627265Y-12622424D02*
X2636789Y-12584329D01*
X2636789Y-12584329D02*
X2646313Y-12565281D01*
X2646313Y-12565281D02*
X2655837Y-12555758D01*
X2655837Y-12555758D02*
X2674884Y-12546234D01*
X2827265Y-12727186D02*
X2836789Y-12736710D01*
X2836789Y-12736710D02*
X2827265Y-12746234D01*
X2827265Y-12746234D02*
X2817741Y-12736710D01*
X2817741Y-12736710D02*
X2827265Y-12727186D01*
X2827265Y-12727186D02*
X2827265Y-12746234D01*
X2960598Y-12546234D02*
X2979646Y-12546234D01*
X2979646Y-12546234D02*
X2998694Y-12555758D01*
X2998694Y-12555758D02*
X3008217Y-12565281D01*
X3008217Y-12565281D02*
X3017741Y-12584329D01*
X3017741Y-12584329D02*
X3027265Y-12622424D01*
X3027265Y-12622424D02*
X3027265Y-12670043D01*
X3027265Y-12670043D02*
X3017741Y-12708138D01*
X3017741Y-12708138D02*
X3008217Y-12727186D01*
X3008217Y-12727186D02*
X2998694Y-12736710D01*
X2998694Y-12736710D02*
X2979646Y-12746234D01*
X2979646Y-12746234D02*
X2960598Y-12746234D01*
X2960598Y-12746234D02*
X2941551Y-12736710D01*
X2941551Y-12736710D02*
X2932027Y-12727186D01*
X2932027Y-12727186D02*
X2922503Y-12708138D01*
X2922503Y-12708138D02*
X2912979Y-12670043D01*
X2912979Y-12670043D02*
X2912979Y-12622424D01*
X2912979Y-12622424D02*
X2922503Y-12584329D01*
X2922503Y-12584329D02*
X2932027Y-12565281D01*
X2932027Y-12565281D02*
X2941551Y-12555758D01*
X2941551Y-12555758D02*
X2960598Y-12546234D01*
X3208217Y-12546234D02*
X3112979Y-12546234D01*
X3112979Y-12546234D02*
X3103456Y-12641472D01*
X3103456Y-12641472D02*
X3112979Y-12631948D01*
X3112979Y-12631948D02*
X3132027Y-12622424D01*
X3132027Y-12622424D02*
X3179646Y-12622424D01*
X3179646Y-12622424D02*
X3198694Y-12631948D01*
X3198694Y-12631948D02*
X3208217Y-12641472D01*
X3208217Y-12641472D02*
X3217741Y-12660519D01*
X3217741Y-12660519D02*
X3217741Y-12708138D01*
X3217741Y-12708138D02*
X3208217Y-12727186D01*
X3208217Y-12727186D02*
X3198694Y-12736710D01*
X3198694Y-12736710D02*
X3179646Y-12746234D01*
X3179646Y-12746234D02*
X3132027Y-12746234D01*
X3132027Y-12746234D02*
X3112979Y-12736710D01*
X3112979Y-12736710D02*
X3103456Y-12727186D01*
X3312979Y-12746234D02*
X3351075Y-12746234D01*
X3351075Y-12746234D02*
X3370122Y-12736710D01*
X3370122Y-12736710D02*
X3379646Y-12727186D01*
X3379646Y-12727186D02*
X3398694Y-12698615D01*
X3398694Y-12698615D02*
X3408217Y-12660519D01*
X3408217Y-12660519D02*
X3408217Y-12584329D01*
X3408217Y-12584329D02*
X3398694Y-12565281D01*
X3398694Y-12565281D02*
X3389170Y-12555758D01*
X3389170Y-12555758D02*
X3370122Y-12546234D01*
X3370122Y-12546234D02*
X3332027Y-12546234D01*
X3332027Y-12546234D02*
X3312979Y-12555758D01*
X3312979Y-12555758D02*
X3303456Y-12565281D01*
X3303456Y-12565281D02*
X3293932Y-12584329D01*
X3293932Y-12584329D02*
X3293932Y-12631948D01*
X3293932Y-12631948D02*
X3303456Y-12650996D01*
X3303456Y-12650996D02*
X3312979Y-12660519D01*
X3312979Y-12660519D02*
X3332027Y-12670043D01*
X3332027Y-12670043D02*
X3370122Y-12670043D01*
X3370122Y-12670043D02*
X3389170Y-12660519D01*
X3389170Y-12660519D02*
X3398694Y-12650996D01*
X3398694Y-12650996D02*
X3408217Y-12631948D01*
X3598694Y-12746234D02*
X3484408Y-12746234D01*
X3541551Y-12746234D02*
X3541551Y-12546234D01*
X3541551Y-12546234D02*
X3522503Y-12574805D01*
X3522503Y-12574805D02*
X3503456Y-12593853D01*
X3503456Y-12593853D02*
X3484408Y-12603377D01*
X3674884Y-12546234D02*
X3674884Y-12584329D01*
X3751075Y-12546234D02*
X3751075Y-12584329D01*
X4046313Y-12822424D02*
X4036789Y-12812900D01*
X4036789Y-12812900D02*
X4017741Y-12784329D01*
X4017741Y-12784329D02*
X4008218Y-12765281D01*
X4008218Y-12765281D02*
X3998694Y-12736710D01*
X3998694Y-12736710D02*
X3989170Y-12689091D01*
X3989170Y-12689091D02*
X3989170Y-12650996D01*
X3989170Y-12650996D02*
X3998694Y-12603377D01*
X3998694Y-12603377D02*
X4008218Y-12574805D01*
X4008218Y-12574805D02*
X4017741Y-12555758D01*
X4017741Y-12555758D02*
X4036789Y-12527186D01*
X4036789Y-12527186D02*
X4046313Y-12517662D01*
X4132027Y-12746234D02*
X4170122Y-12746234D01*
X4170122Y-12746234D02*
X4189170Y-12736710D01*
X4189170Y-12736710D02*
X4198694Y-12727186D01*
X4198694Y-12727186D02*
X4217741Y-12698615D01*
X4217741Y-12698615D02*
X4227265Y-12660519D01*
X4227265Y-12660519D02*
X4227265Y-12584329D01*
X4227265Y-12584329D02*
X4217741Y-12565281D01*
X4217741Y-12565281D02*
X4208218Y-12555758D01*
X4208218Y-12555758D02*
X4189170Y-12546234D01*
X4189170Y-12546234D02*
X4151075Y-12546234D01*
X4151075Y-12546234D02*
X4132027Y-12555758D01*
X4132027Y-12555758D02*
X4122503Y-12565281D01*
X4122503Y-12565281D02*
X4112979Y-12584329D01*
X4112979Y-12584329D02*
X4112979Y-12631948D01*
X4112979Y-12631948D02*
X4122503Y-12650996D01*
X4122503Y-12650996D02*
X4132027Y-12660519D01*
X4132027Y-12660519D02*
X4151075Y-12670043D01*
X4151075Y-12670043D02*
X4189170Y-12670043D01*
X4189170Y-12670043D02*
X4208218Y-12660519D01*
X4208218Y-12660519D02*
X4217741Y-12650996D01*
X4217741Y-12650996D02*
X4227265Y-12631948D01*
X4303456Y-12565281D02*
X4312980Y-12555758D01*
X4312980Y-12555758D02*
X4332027Y-12546234D01*
X4332027Y-12546234D02*
X4379646Y-12546234D01*
X4379646Y-12546234D02*
X4398694Y-12555758D01*
X4398694Y-12555758D02*
X4408218Y-12565281D01*
X4408218Y-12565281D02*
X4417741Y-12584329D01*
X4417741Y-12584329D02*
X4417741Y-12603377D01*
X4417741Y-12603377D02*
X4408218Y-12631948D01*
X4408218Y-12631948D02*
X4293932Y-12746234D01*
X4293932Y-12746234D02*
X4417741Y-12746234D01*
X4655837Y-12746234D02*
X4655837Y-12546234D01*
X4741551Y-12746234D02*
X4741551Y-12641472D01*
X4741551Y-12641472D02*
X4732027Y-12622424D01*
X4732027Y-12622424D02*
X4712980Y-12612900D01*
X4712980Y-12612900D02*
X4684408Y-12612900D01*
X4684408Y-12612900D02*
X4665361Y-12622424D01*
X4665361Y-12622424D02*
X4655837Y-12631948D01*
X4865361Y-12746234D02*
X4846313Y-12736710D01*
X4846313Y-12736710D02*
X4836789Y-12727186D01*
X4836789Y-12727186D02*
X4827265Y-12708138D01*
X4827265Y-12708138D02*
X4827265Y-12650996D01*
X4827265Y-12650996D02*
X4836789Y-12631948D01*
X4836789Y-12631948D02*
X4846313Y-12622424D01*
X4846313Y-12622424D02*
X4865361Y-12612900D01*
X4865361Y-12612900D02*
X4893932Y-12612900D01*
X4893932Y-12612900D02*
X4912980Y-12622424D01*
X4912980Y-12622424D02*
X4922503Y-12631948D01*
X4922503Y-12631948D02*
X4932027Y-12650996D01*
X4932027Y-12650996D02*
X4932027Y-12708138D01*
X4932027Y-12708138D02*
X4922503Y-12727186D01*
X4922503Y-12727186D02*
X4912980Y-12736710D01*
X4912980Y-12736710D02*
X4893932Y-12746234D01*
X4893932Y-12746234D02*
X4865361Y-12746234D01*
X5046313Y-12746234D02*
X5027265Y-12736710D01*
X5027265Y-12736710D02*
X5017742Y-12717662D01*
X5017742Y-12717662D02*
X5017742Y-12546234D01*
X5198694Y-12736710D02*
X5179646Y-12746234D01*
X5179646Y-12746234D02*
X5141551Y-12746234D01*
X5141551Y-12746234D02*
X5122503Y-12736710D01*
X5122503Y-12736710D02*
X5112980Y-12717662D01*
X5112980Y-12717662D02*
X5112980Y-12641472D01*
X5112980Y-12641472D02*
X5122503Y-12622424D01*
X5122503Y-12622424D02*
X5141551Y-12612900D01*
X5141551Y-12612900D02*
X5179646Y-12612900D01*
X5179646Y-12612900D02*
X5198694Y-12622424D01*
X5198694Y-12622424D02*
X5208218Y-12641472D01*
X5208218Y-12641472D02*
X5208218Y-12660519D01*
X5208218Y-12660519D02*
X5112980Y-12679567D01*
X5284408Y-12736710D02*
X5303456Y-12746234D01*
X5303456Y-12746234D02*
X5341551Y-12746234D01*
X5341551Y-12746234D02*
X5360599Y-12736710D01*
X5360599Y-12736710D02*
X5370123Y-12717662D01*
X5370123Y-12717662D02*
X5370123Y-12708138D01*
X5370123Y-12708138D02*
X5360599Y-12689091D01*
X5360599Y-12689091D02*
X5341551Y-12679567D01*
X5341551Y-12679567D02*
X5312980Y-12679567D01*
X5312980Y-12679567D02*
X5293932Y-12670043D01*
X5293932Y-12670043D02*
X5284408Y-12650996D01*
X5284408Y-12650996D02*
X5284408Y-12641472D01*
X5284408Y-12641472D02*
X5293932Y-12622424D01*
X5293932Y-12622424D02*
X5312980Y-12612900D01*
X5312980Y-12612900D02*
X5341551Y-12612900D01*
X5341551Y-12612900D02*
X5360599Y-12622424D01*
X5436789Y-12822424D02*
X5446313Y-12812900D01*
X5446313Y-12812900D02*
X5465361Y-12784329D01*
X5465361Y-12784329D02*
X5474884Y-12765281D01*
X5474884Y-12765281D02*
X5484408Y-12736710D01*
X5484408Y-12736710D02*
X5493932Y-12689091D01*
X5493932Y-12689091D02*
X5493932Y-12650996D01*
X5493932Y-12650996D02*
X5484408Y-12603377D01*
X5484408Y-12603377D02*
X5474884Y-12574805D01*
X5474884Y-12574805D02*
X5465361Y-12555758D01*
X5465361Y-12555758D02*
X5446313Y-12527186D01*
X5446313Y-12527186D02*
X5436789Y-12517662D01*
M02*
