%TF.GenerationSoftware,KiCad,Pcbnew,7.0.8*%
%TF.CreationDate,2023-12-05T18:43:20+09:00*%
%TF.ProjectId,Keyboard,4b657962-6f61-4726-942e-6b696361645f,rev?*%
%TF.SameCoordinates,Original*%
%TF.FileFunction,Drillmap*%
%TF.FilePolarity,Positive*%
%FSLAX45Y45*%
G04 Gerber Fmt 4.5, Leading zero omitted, Abs format (unit mm)*
G04 Created by KiCad (PCBNEW 7.0.8) date 2023-12-05 18:43:20*
%MOMM*%
%LPD*%
G01*
G04 APERTURE LIST*
%ADD10C,0.100000*%
%ADD11C,0.200000*%
%ADD12C,0.080000*%
%ADD13C,0.175000*%
%ADD14C,0.220000*%
%ADD15C,0.400000*%
G04 APERTURE END LIST*
D10*
X14763750Y-6429375D02*
X14763750Y-10477500D01*
X15478125Y-10477500D02*
X15478125Y-6429375D01*
X14763750Y-10477500D02*
X15478125Y-10477500D01*
X14763750Y-6429375D02*
X15478125Y-6429375D01*
X14763750Y-5953125D02*
X15478125Y-5953125D01*
X14763750Y-3095625D02*
X15478125Y-3095625D01*
X17383125Y-2143125D02*
X17383125Y-2619375D01*
X21193125Y-2143125D02*
X17383125Y-2143125D01*
X21193125Y-1428750D02*
X21193125Y-2143125D01*
X24050625Y-1428750D02*
X21193125Y-1428750D01*
X24050625Y-1905000D02*
X24050625Y-1428750D01*
X24288750Y-1905000D02*
X24050625Y-1905000D01*
X25955625Y-1905000D02*
X24288750Y-1905000D01*
X25955625Y-2381250D02*
X25955625Y-1905000D01*
X29765625Y-2381250D02*
X25955625Y-2381250D01*
X29765625Y-9048750D02*
X29765625Y-2381250D01*
X24050625Y-9048750D02*
X29765625Y-9048750D01*
X24050625Y-10001250D02*
X24050625Y-9048750D01*
X22145625Y-10001250D02*
X24050625Y-10001250D01*
X22145625Y-10477500D02*
X22145625Y-10001250D01*
X20240625Y-10477500D02*
X22145625Y-10477500D01*
X20240625Y-10953750D02*
X20240625Y-10477500D01*
X15478125Y-3095625D02*
X15478125Y-5953125D01*
X4286250Y-1905000D02*
X4286250Y-2381250D01*
X6191250Y-1428750D02*
X6191250Y-1905000D01*
X9048750Y-1666875D02*
X9048750Y-1428750D01*
X9048750Y-2143125D02*
X9048750Y-1666875D01*
X12858750Y-2143125D02*
X9048750Y-2143125D01*
X12858750Y-2619375D02*
X12858750Y-2143125D01*
X13096875Y-2619375D02*
X12858750Y-2619375D01*
X17383125Y-2619375D02*
X13096875Y-2619375D01*
X14763750Y-5953125D02*
X14763750Y-3095625D01*
X10001250Y-10953750D02*
X20240625Y-10953750D01*
X10001250Y-10477500D02*
X10001250Y-10953750D01*
X8096250Y-10477500D02*
X10001250Y-10477500D01*
X8096250Y-10001250D02*
X8096250Y-10477500D01*
X6191250Y-10001250D02*
X8096250Y-10001250D01*
X6191250Y-9048750D02*
X6191250Y-10001250D01*
X476250Y-9048750D02*
X6191250Y-9048750D01*
X476250Y-2381250D02*
X476250Y-9048750D01*
X952500Y-2381250D02*
X476250Y-2381250D01*
X6191250Y-1428750D02*
X9048750Y-1428750D01*
X4286250Y-1905000D02*
X6191250Y-1905000D01*
X952500Y-2381250D02*
X4286250Y-2381250D01*
D11*
D12*
X13663750Y-6151250D02*
X13743750Y-6231250D01*
X13743750Y-6151250D02*
X13663750Y-6231250D01*
X14363750Y-6151250D02*
X14443750Y-6231250D01*
X14443750Y-6151250D02*
X14363750Y-6231250D01*
X15798125Y-6151250D02*
X15878125Y-6231250D01*
X15878125Y-6151250D02*
X15798125Y-6231250D01*
X16498125Y-6151250D02*
X16578125Y-6231250D01*
X16578125Y-6151250D02*
X16498125Y-6231250D01*
D13*
X1484500Y-3810000D02*
G75*
G03*
X1484500Y-3810000I-87500J0D01*
G01*
X1484500Y-5715000D02*
G75*
G03*
X1484500Y-5715000I-87500J0D01*
G01*
X1484500Y-7620000D02*
G75*
G03*
X1484500Y-7620000I-87500J0D01*
G01*
X2500500Y-3810000D02*
G75*
G03*
X2500500Y-3810000I-87500J0D01*
G01*
X2500500Y-5715000D02*
G75*
G03*
X2500500Y-5715000I-87500J0D01*
G01*
X2500500Y-7620000D02*
G75*
G03*
X2500500Y-7620000I-87500J0D01*
G01*
X3389500Y-3810000D02*
G75*
G03*
X3389500Y-3810000I-87500J0D01*
G01*
X3389500Y-5715000D02*
G75*
G03*
X3389500Y-5715000I-87500J0D01*
G01*
X3389500Y-7620000D02*
G75*
G03*
X3389500Y-7620000I-87500J0D01*
G01*
X4405500Y-3810000D02*
G75*
G03*
X4405500Y-3810000I-87500J0D01*
G01*
X4405500Y-5715000D02*
G75*
G03*
X4405500Y-5715000I-87500J0D01*
G01*
X4405500Y-7620000D02*
G75*
G03*
X4405500Y-7620000I-87500J0D01*
G01*
X5294500Y-3333750D02*
G75*
G03*
X5294500Y-3333750I-87500J0D01*
G01*
X5294500Y-5238750D02*
G75*
G03*
X5294500Y-5238750I-87500J0D01*
G01*
X5294500Y-7143750D02*
G75*
G03*
X5294500Y-7143750I-87500J0D01*
G01*
X6310500Y-3333750D02*
G75*
G03*
X6310500Y-3333750I-87500J0D01*
G01*
X6310500Y-5238750D02*
G75*
G03*
X6310500Y-5238750I-87500J0D01*
G01*
X6310500Y-7143750D02*
G75*
G03*
X6310500Y-7143750I-87500J0D01*
G01*
X7199500Y-2857500D02*
G75*
G03*
X7199500Y-2857500I-87500J0D01*
G01*
X7199500Y-4762500D02*
G75*
G03*
X7199500Y-4762500I-87500J0D01*
G01*
X7199500Y-6667500D02*
G75*
G03*
X7199500Y-6667500I-87500J0D01*
G01*
X7199500Y-8572500D02*
G75*
G03*
X7199500Y-8572500I-87500J0D01*
G01*
X8215500Y-2857500D02*
G75*
G03*
X8215500Y-2857500I-87500J0D01*
G01*
X8215500Y-4762500D02*
G75*
G03*
X8215500Y-4762500I-87500J0D01*
G01*
X8215500Y-6667500D02*
G75*
G03*
X8215500Y-6667500I-87500J0D01*
G01*
X8215500Y-8572500D02*
G75*
G03*
X8215500Y-8572500I-87500J0D01*
G01*
X9104500Y-3333750D02*
G75*
G03*
X9104500Y-3333750I-87500J0D01*
G01*
X9104500Y-5238750D02*
G75*
G03*
X9104500Y-5238750I-87500J0D01*
G01*
X9104500Y-7143750D02*
G75*
G03*
X9104500Y-7143750I-87500J0D01*
G01*
X9104500Y-9048750D02*
G75*
G03*
X9104500Y-9048750I-87500J0D01*
G01*
X10120500Y-3333750D02*
G75*
G03*
X10120500Y-3333750I-87500J0D01*
G01*
X10120500Y-5238750D02*
G75*
G03*
X10120500Y-5238750I-87500J0D01*
G01*
X10120500Y-7143750D02*
G75*
G03*
X10120500Y-7143750I-87500J0D01*
G01*
X10120500Y-9048750D02*
G75*
G03*
X10120500Y-9048750I-87500J0D01*
G01*
X11009500Y-3810000D02*
G75*
G03*
X11009500Y-3810000I-87500J0D01*
G01*
X11009500Y-5715000D02*
G75*
G03*
X11009500Y-5715000I-87500J0D01*
G01*
X11009500Y-7620000D02*
G75*
G03*
X11009500Y-7620000I-87500J0D01*
G01*
X11009500Y-9525000D02*
G75*
G03*
X11009500Y-9525000I-87500J0D01*
G01*
X12025500Y-3810000D02*
G75*
G03*
X12025500Y-3810000I-87500J0D01*
G01*
X12025500Y-5715000D02*
G75*
G03*
X12025500Y-5715000I-87500J0D01*
G01*
X12025500Y-7620000D02*
G75*
G03*
X12025500Y-7620000I-87500J0D01*
G01*
X12025500Y-9525000D02*
G75*
G03*
X12025500Y-9525000I-87500J0D01*
G01*
X12914500Y-7620000D02*
G75*
G03*
X12914500Y-7620000I-87500J0D01*
G01*
X12914500Y-9525000D02*
G75*
G03*
X12914500Y-9525000I-87500J0D01*
G01*
X13930500Y-7620000D02*
G75*
G03*
X13930500Y-7620000I-87500J0D01*
G01*
X13930500Y-9525000D02*
G75*
G03*
X13930500Y-9525000I-87500J0D01*
G01*
X16486375Y-7620000D02*
G75*
G03*
X16486375Y-7620000I-87500J0D01*
G01*
X16486375Y-9525000D02*
G75*
G03*
X16486375Y-9525000I-87500J0D01*
G01*
X17502375Y-7620000D02*
G75*
G03*
X17502375Y-7620000I-87500J0D01*
G01*
X17502375Y-9525000D02*
G75*
G03*
X17502375Y-9525000I-87500J0D01*
G01*
X18391375Y-3810000D02*
G75*
G03*
X18391375Y-3810000I-87500J0D01*
G01*
X18391375Y-5715000D02*
G75*
G03*
X18391375Y-5715000I-87500J0D01*
G01*
X18391375Y-7620000D02*
G75*
G03*
X18391375Y-7620000I-87500J0D01*
G01*
X18391375Y-9525000D02*
G75*
G03*
X18391375Y-9525000I-87500J0D01*
G01*
X19407375Y-3810000D02*
G75*
G03*
X19407375Y-3810000I-87500J0D01*
G01*
X19407375Y-5715000D02*
G75*
G03*
X19407375Y-5715000I-87500J0D01*
G01*
X19407375Y-7620000D02*
G75*
G03*
X19407375Y-7620000I-87500J0D01*
G01*
X19407375Y-9525000D02*
G75*
G03*
X19407375Y-9525000I-87500J0D01*
G01*
X20296375Y-3333750D02*
G75*
G03*
X20296375Y-3333750I-87500J0D01*
G01*
X20296375Y-5238750D02*
G75*
G03*
X20296375Y-5238750I-87500J0D01*
G01*
X20296375Y-7143750D02*
G75*
G03*
X20296375Y-7143750I-87500J0D01*
G01*
X20296375Y-9048750D02*
G75*
G03*
X20296375Y-9048750I-87500J0D01*
G01*
X21312375Y-3333750D02*
G75*
G03*
X21312375Y-3333750I-87500J0D01*
G01*
X21312375Y-5238750D02*
G75*
G03*
X21312375Y-5238750I-87500J0D01*
G01*
X21312375Y-7143750D02*
G75*
G03*
X21312375Y-7143750I-87500J0D01*
G01*
X21312375Y-9048750D02*
G75*
G03*
X21312375Y-9048750I-87500J0D01*
G01*
X22201375Y-2857500D02*
G75*
G03*
X22201375Y-2857500I-87500J0D01*
G01*
X22201375Y-4762500D02*
G75*
G03*
X22201375Y-4762500I-87500J0D01*
G01*
X22201375Y-6667500D02*
G75*
G03*
X22201375Y-6667500I-87500J0D01*
G01*
X22201375Y-8572500D02*
G75*
G03*
X22201375Y-8572500I-87500J0D01*
G01*
X23217375Y-2857500D02*
G75*
G03*
X23217375Y-2857500I-87500J0D01*
G01*
X23217375Y-4762500D02*
G75*
G03*
X23217375Y-4762500I-87500J0D01*
G01*
X23217375Y-6667500D02*
G75*
G03*
X23217375Y-6667500I-87500J0D01*
G01*
X23217375Y-8572500D02*
G75*
G03*
X23217375Y-8572500I-87500J0D01*
G01*
X24106375Y-3333750D02*
G75*
G03*
X24106375Y-3333750I-87500J0D01*
G01*
X24106375Y-5238750D02*
G75*
G03*
X24106375Y-5238750I-87500J0D01*
G01*
X24106375Y-7143750D02*
G75*
G03*
X24106375Y-7143750I-87500J0D01*
G01*
X25122375Y-3333750D02*
G75*
G03*
X25122375Y-3333750I-87500J0D01*
G01*
X25122375Y-5238750D02*
G75*
G03*
X25122375Y-5238750I-87500J0D01*
G01*
X25122375Y-7143750D02*
G75*
G03*
X25122375Y-7143750I-87500J0D01*
G01*
X26011375Y-3810000D02*
G75*
G03*
X26011375Y-3810000I-87500J0D01*
G01*
X26011375Y-5715000D02*
G75*
G03*
X26011375Y-5715000I-87500J0D01*
G01*
X26011375Y-7620000D02*
G75*
G03*
X26011375Y-7620000I-87500J0D01*
G01*
X27027375Y-3810000D02*
G75*
G03*
X27027375Y-3810000I-87500J0D01*
G01*
X27027375Y-5715000D02*
G75*
G03*
X27027375Y-5715000I-87500J0D01*
G01*
X27027375Y-7620000D02*
G75*
G03*
X27027375Y-7620000I-87500J0D01*
G01*
X27916375Y-3810000D02*
G75*
G03*
X27916375Y-3810000I-87500J0D01*
G01*
X27916375Y-5715000D02*
G75*
G03*
X27916375Y-5715000I-87500J0D01*
G01*
X27916375Y-7620000D02*
G75*
G03*
X27916375Y-7620000I-87500J0D01*
G01*
X28932375Y-3810000D02*
G75*
G03*
X28932375Y-3810000I-87500J0D01*
G01*
X28932375Y-5715000D02*
G75*
G03*
X28932375Y-5715000I-87500J0D01*
G01*
X28932375Y-7620000D02*
G75*
G03*
X28932375Y-7620000I-87500J0D01*
G01*
D14*
X952500Y-2747500D02*
X952500Y-2967500D01*
X842500Y-2857500D02*
X1062500Y-2857500D01*
X952500Y-8462500D02*
X952500Y-8682500D01*
X842500Y-8572500D02*
X1062500Y-8572500D01*
X2857500Y-4652500D02*
X2857500Y-4872500D01*
X2747500Y-4762500D02*
X2967500Y-4762500D01*
X6667500Y-1795000D02*
X6667500Y-2015000D01*
X6557500Y-1905000D02*
X6777500Y-1905000D01*
X6667500Y-9415000D02*
X6667500Y-9635000D01*
X6557500Y-9525000D02*
X6777500Y-9525000D01*
X12382500Y-2509375D02*
X12382500Y-2729375D01*
X12272500Y-2619375D02*
X12492500Y-2619375D01*
X12382500Y-8462500D02*
X12382500Y-8682500D01*
X12272500Y-8572500D02*
X12492500Y-8572500D01*
X14287500Y-10367500D02*
X14287500Y-10587500D01*
X14177500Y-10477500D02*
X14397500Y-10477500D01*
X15954375Y-10367500D02*
X15954375Y-10587500D01*
X15844375Y-10477500D02*
X16064375Y-10477500D01*
X17859375Y-2509375D02*
X17859375Y-2729375D01*
X17749375Y-2619375D02*
X17969375Y-2619375D01*
X17859375Y-8462500D02*
X17859375Y-8682500D01*
X17749375Y-8572500D02*
X17969375Y-8572500D01*
X23574375Y-1795000D02*
X23574375Y-2015000D01*
X23464375Y-1905000D02*
X23684375Y-1905000D01*
X23574375Y-9415000D02*
X23574375Y-9635000D01*
X23464375Y-9525000D02*
X23684375Y-9525000D01*
X27384375Y-4652500D02*
X27384375Y-4872500D01*
X27274375Y-4762500D02*
X27494375Y-4762500D01*
X29289375Y-2747500D02*
X29289375Y-2967500D01*
X29179375Y-2857500D02*
X29399375Y-2857500D01*
X29289375Y-8462500D02*
X29289375Y-8682500D01*
X29179375Y-8572500D02*
X29399375Y-8572500D01*
D15*
X2046423Y-3951423D02*
X2046423Y-3668577D01*
X1763577Y-3668577D01*
X1763577Y-3951423D01*
X2046423Y-3951423D01*
X2046423Y-5856423D02*
X2046423Y-5573577D01*
X1763577Y-5573577D01*
X1763577Y-5856423D01*
X2046423Y-5856423D01*
X2046423Y-7761423D02*
X2046423Y-7478577D01*
X1763577Y-7478577D01*
X1763577Y-7761423D01*
X2046423Y-7761423D01*
X3951423Y-3951423D02*
X3951423Y-3668577D01*
X3668577Y-3668577D01*
X3668577Y-3951423D01*
X3951423Y-3951423D01*
X3951423Y-5856423D02*
X3951423Y-5573577D01*
X3668577Y-5573577D01*
X3668577Y-5856423D01*
X3951423Y-5856423D01*
X3951423Y-7761423D02*
X3951423Y-7478577D01*
X3668577Y-7478577D01*
X3668577Y-7761423D01*
X3951423Y-7761423D01*
X5856423Y-3475173D02*
X5856423Y-3192327D01*
X5573577Y-3192327D01*
X5573577Y-3475173D01*
X5856423Y-3475173D01*
X5856423Y-5380173D02*
X5856423Y-5097327D01*
X5573577Y-5097327D01*
X5573577Y-5380173D01*
X5856423Y-5380173D01*
X5856423Y-7285173D02*
X5856423Y-7002327D01*
X5573577Y-7002327D01*
X5573577Y-7285173D01*
X5856423Y-7285173D01*
X7761423Y-2998923D02*
X7761423Y-2716077D01*
X7478577Y-2716077D01*
X7478577Y-2998923D01*
X7761423Y-2998923D01*
X7761423Y-4903923D02*
X7761423Y-4621077D01*
X7478577Y-4621077D01*
X7478577Y-4903923D01*
X7761423Y-4903923D01*
X7761423Y-6808923D02*
X7761423Y-6526077D01*
X7478577Y-6526077D01*
X7478577Y-6808923D01*
X7761423Y-6808923D01*
X7761423Y-8713923D02*
X7761423Y-8431077D01*
X7478577Y-8431077D01*
X7478577Y-8713923D01*
X7761423Y-8713923D01*
X9666423Y-3475173D02*
X9666423Y-3192327D01*
X9383577Y-3192327D01*
X9383577Y-3475173D01*
X9666423Y-3475173D01*
X9666423Y-5380173D02*
X9666423Y-5097327D01*
X9383577Y-5097327D01*
X9383577Y-5380173D01*
X9666423Y-5380173D01*
X9666423Y-7285173D02*
X9666423Y-7002327D01*
X9383577Y-7002327D01*
X9383577Y-7285173D01*
X9666423Y-7285173D01*
X9666423Y-9190173D02*
X9666423Y-8907327D01*
X9383577Y-8907327D01*
X9383577Y-9190173D01*
X9666423Y-9190173D01*
X11571423Y-3951423D02*
X11571423Y-3668577D01*
X11288577Y-3668577D01*
X11288577Y-3951423D01*
X11571423Y-3951423D01*
X11571423Y-5856423D02*
X11571423Y-5573577D01*
X11288577Y-5573577D01*
X11288577Y-5856423D01*
X11571423Y-5856423D01*
X11571423Y-7761423D02*
X11571423Y-7478577D01*
X11288577Y-7478577D01*
X11288577Y-7761423D01*
X11571423Y-7761423D01*
X11571423Y-9666423D02*
X11571423Y-9383577D01*
X11288577Y-9383577D01*
X11288577Y-9666423D01*
X11571423Y-9666423D01*
X13476423Y-7761423D02*
X13476423Y-7478577D01*
X13193577Y-7478577D01*
X13193577Y-7761423D01*
X13476423Y-7761423D01*
X13476423Y-9666423D02*
X13476423Y-9383577D01*
X13193577Y-9383577D01*
X13193577Y-9666423D01*
X13476423Y-9666423D01*
X17048298Y-7761423D02*
X17048298Y-7478577D01*
X16765452Y-7478577D01*
X16765452Y-7761423D01*
X17048298Y-7761423D01*
X17048298Y-9666423D02*
X17048298Y-9383577D01*
X16765452Y-9383577D01*
X16765452Y-9666423D01*
X17048298Y-9666423D01*
X18953298Y-3951423D02*
X18953298Y-3668577D01*
X18670452Y-3668577D01*
X18670452Y-3951423D01*
X18953298Y-3951423D01*
X18953298Y-5856423D02*
X18953298Y-5573577D01*
X18670452Y-5573577D01*
X18670452Y-5856423D01*
X18953298Y-5856423D01*
X18953298Y-7761423D02*
X18953298Y-7478577D01*
X18670452Y-7478577D01*
X18670452Y-7761423D01*
X18953298Y-7761423D01*
X18953298Y-9666423D02*
X18953298Y-9383577D01*
X18670452Y-9383577D01*
X18670452Y-9666423D01*
X18953298Y-9666423D01*
X20858298Y-3475173D02*
X20858298Y-3192327D01*
X20575452Y-3192327D01*
X20575452Y-3475173D01*
X20858298Y-3475173D01*
X20858298Y-5380173D02*
X20858298Y-5097327D01*
X20575452Y-5097327D01*
X20575452Y-5380173D01*
X20858298Y-5380173D01*
X20858298Y-7285173D02*
X20858298Y-7002327D01*
X20575452Y-7002327D01*
X20575452Y-7285173D01*
X20858298Y-7285173D01*
X20858298Y-9190173D02*
X20858298Y-8907327D01*
X20575452Y-8907327D01*
X20575452Y-9190173D01*
X20858298Y-9190173D01*
X22763298Y-2998923D02*
X22763298Y-2716077D01*
X22480452Y-2716077D01*
X22480452Y-2998923D01*
X22763298Y-2998923D01*
X22763298Y-4903923D02*
X22763298Y-4621077D01*
X22480452Y-4621077D01*
X22480452Y-4903923D01*
X22763298Y-4903923D01*
X22763298Y-6808923D02*
X22763298Y-6526077D01*
X22480452Y-6526077D01*
X22480452Y-6808923D01*
X22763298Y-6808923D01*
X22763298Y-8713923D02*
X22763298Y-8431077D01*
X22480452Y-8431077D01*
X22480452Y-8713923D01*
X22763298Y-8713923D01*
X24668298Y-3475173D02*
X24668298Y-3192327D01*
X24385452Y-3192327D01*
X24385452Y-3475173D01*
X24668298Y-3475173D01*
X24668298Y-5380173D02*
X24668298Y-5097327D01*
X24385452Y-5097327D01*
X24385452Y-5380173D01*
X24668298Y-5380173D01*
X24668298Y-7285173D02*
X24668298Y-7002327D01*
X24385452Y-7002327D01*
X24385452Y-7285173D01*
X24668298Y-7285173D01*
X26573298Y-3951423D02*
X26573298Y-3668577D01*
X26290452Y-3668577D01*
X26290452Y-3951423D01*
X26573298Y-3951423D01*
X26573298Y-5856423D02*
X26573298Y-5573577D01*
X26290452Y-5573577D01*
X26290452Y-5856423D01*
X26573298Y-5856423D01*
X26573298Y-7761423D02*
X26573298Y-7478577D01*
X26290452Y-7478577D01*
X26290452Y-7761423D01*
X26573298Y-7761423D01*
X28478298Y-3951423D02*
X28478298Y-3668577D01*
X28195452Y-3668577D01*
X28195452Y-3951423D01*
X28478298Y-3951423D01*
X28478298Y-5856423D02*
X28478298Y-5573577D01*
X28195452Y-5573577D01*
X28195452Y-5856423D01*
X28478298Y-5856423D01*
X28478298Y-7761423D02*
X28478298Y-7478577D01*
X28195452Y-7478577D01*
X28195452Y-7761423D01*
X28478298Y-7761423D01*
D11*
X732027Y-11270234D02*
X732027Y-11070234D01*
X732027Y-11070234D02*
X779646Y-11070234D01*
X779646Y-11070234D02*
X808217Y-11079758D01*
X808217Y-11079758D02*
X827265Y-11098805D01*
X827265Y-11098805D02*
X836789Y-11117853D01*
X836789Y-11117853D02*
X846312Y-11155948D01*
X846312Y-11155948D02*
X846312Y-11184520D01*
X846312Y-11184520D02*
X836789Y-11222615D01*
X836789Y-11222615D02*
X827265Y-11241662D01*
X827265Y-11241662D02*
X808217Y-11260710D01*
X808217Y-11260710D02*
X779646Y-11270234D01*
X779646Y-11270234D02*
X732027Y-11270234D01*
X932027Y-11270234D02*
X932027Y-11136900D01*
X932027Y-11174996D02*
X941551Y-11155948D01*
X941551Y-11155948D02*
X951074Y-11146424D01*
X951074Y-11146424D02*
X970122Y-11136900D01*
X970122Y-11136900D02*
X989170Y-11136900D01*
X1055836Y-11270234D02*
X1055836Y-11136900D01*
X1055836Y-11070234D02*
X1046312Y-11079758D01*
X1046312Y-11079758D02*
X1055836Y-11089281D01*
X1055836Y-11089281D02*
X1065360Y-11079758D01*
X1065360Y-11079758D02*
X1055836Y-11070234D01*
X1055836Y-11070234D02*
X1055836Y-11089281D01*
X1179646Y-11270234D02*
X1160598Y-11260710D01*
X1160598Y-11260710D02*
X1151074Y-11241662D01*
X1151074Y-11241662D02*
X1151074Y-11070234D01*
X1284408Y-11270234D02*
X1265360Y-11260710D01*
X1265360Y-11260710D02*
X1255836Y-11241662D01*
X1255836Y-11241662D02*
X1255836Y-11070234D01*
X1512979Y-11270234D02*
X1512979Y-11070234D01*
X1512979Y-11070234D02*
X1579646Y-11213091D01*
X1579646Y-11213091D02*
X1646312Y-11070234D01*
X1646312Y-11070234D02*
X1646312Y-11270234D01*
X1827265Y-11270234D02*
X1827265Y-11165472D01*
X1827265Y-11165472D02*
X1817741Y-11146424D01*
X1817741Y-11146424D02*
X1798693Y-11136900D01*
X1798693Y-11136900D02*
X1760598Y-11136900D01*
X1760598Y-11136900D02*
X1741551Y-11146424D01*
X1827265Y-11260710D02*
X1808217Y-11270234D01*
X1808217Y-11270234D02*
X1760598Y-11270234D01*
X1760598Y-11270234D02*
X1741551Y-11260710D01*
X1741551Y-11260710D02*
X1732027Y-11241662D01*
X1732027Y-11241662D02*
X1732027Y-11222615D01*
X1732027Y-11222615D02*
X1741551Y-11203567D01*
X1741551Y-11203567D02*
X1760598Y-11194043D01*
X1760598Y-11194043D02*
X1808217Y-11194043D01*
X1808217Y-11194043D02*
X1827265Y-11184520D01*
X1922503Y-11136900D02*
X1922503Y-11336900D01*
X1922503Y-11146424D02*
X1941551Y-11136900D01*
X1941551Y-11136900D02*
X1979646Y-11136900D01*
X1979646Y-11136900D02*
X1998693Y-11146424D01*
X1998693Y-11146424D02*
X2008217Y-11155948D01*
X2008217Y-11155948D02*
X2017741Y-11174996D01*
X2017741Y-11174996D02*
X2017741Y-11232138D01*
X2017741Y-11232138D02*
X2008217Y-11251186D01*
X2008217Y-11251186D02*
X1998693Y-11260710D01*
X1998693Y-11260710D02*
X1979646Y-11270234D01*
X1979646Y-11270234D02*
X1941551Y-11270234D01*
X1941551Y-11270234D02*
X1922503Y-11260710D01*
X2103455Y-11251186D02*
X2112979Y-11260710D01*
X2112979Y-11260710D02*
X2103455Y-11270234D01*
X2103455Y-11270234D02*
X2093932Y-11260710D01*
X2093932Y-11260710D02*
X2103455Y-11251186D01*
X2103455Y-11251186D02*
X2103455Y-11270234D01*
X2103455Y-11146424D02*
X2112979Y-11155948D01*
X2112979Y-11155948D02*
X2103455Y-11165472D01*
X2103455Y-11165472D02*
X2093932Y-11155948D01*
X2093932Y-11155948D02*
X2103455Y-11146424D01*
X2103455Y-11146424D02*
X2103455Y-11165472D01*
D12*
X391250Y-11558750D02*
X471250Y-11638750D01*
X471250Y-11558750D02*
X391250Y-11638750D01*
D11*
X770122Y-11490234D02*
X789170Y-11490234D01*
X789170Y-11490234D02*
X808217Y-11499758D01*
X808217Y-11499758D02*
X817741Y-11509281D01*
X817741Y-11509281D02*
X827265Y-11528329D01*
X827265Y-11528329D02*
X836789Y-11566424D01*
X836789Y-11566424D02*
X836789Y-11614043D01*
X836789Y-11614043D02*
X827265Y-11652138D01*
X827265Y-11652138D02*
X817741Y-11671186D01*
X817741Y-11671186D02*
X808217Y-11680710D01*
X808217Y-11680710D02*
X789170Y-11690234D01*
X789170Y-11690234D02*
X770122Y-11690234D01*
X770122Y-11690234D02*
X751074Y-11680710D01*
X751074Y-11680710D02*
X741551Y-11671186D01*
X741551Y-11671186D02*
X732027Y-11652138D01*
X732027Y-11652138D02*
X722503Y-11614043D01*
X722503Y-11614043D02*
X722503Y-11566424D01*
X722503Y-11566424D02*
X732027Y-11528329D01*
X732027Y-11528329D02*
X741551Y-11509281D01*
X741551Y-11509281D02*
X751074Y-11499758D01*
X751074Y-11499758D02*
X770122Y-11490234D01*
X922503Y-11671186D02*
X932027Y-11680710D01*
X932027Y-11680710D02*
X922503Y-11690234D01*
X922503Y-11690234D02*
X912979Y-11680710D01*
X912979Y-11680710D02*
X922503Y-11671186D01*
X922503Y-11671186D02*
X922503Y-11690234D01*
X1046312Y-11575948D02*
X1027265Y-11566424D01*
X1027265Y-11566424D02*
X1017741Y-11556900D01*
X1017741Y-11556900D02*
X1008217Y-11537853D01*
X1008217Y-11537853D02*
X1008217Y-11528329D01*
X1008217Y-11528329D02*
X1017741Y-11509281D01*
X1017741Y-11509281D02*
X1027265Y-11499758D01*
X1027265Y-11499758D02*
X1046312Y-11490234D01*
X1046312Y-11490234D02*
X1084408Y-11490234D01*
X1084408Y-11490234D02*
X1103455Y-11499758D01*
X1103455Y-11499758D02*
X1112979Y-11509281D01*
X1112979Y-11509281D02*
X1122503Y-11528329D01*
X1122503Y-11528329D02*
X1122503Y-11537853D01*
X1122503Y-11537853D02*
X1112979Y-11556900D01*
X1112979Y-11556900D02*
X1103455Y-11566424D01*
X1103455Y-11566424D02*
X1084408Y-11575948D01*
X1084408Y-11575948D02*
X1046312Y-11575948D01*
X1046312Y-11575948D02*
X1027265Y-11585472D01*
X1027265Y-11585472D02*
X1017741Y-11594996D01*
X1017741Y-11594996D02*
X1008217Y-11614043D01*
X1008217Y-11614043D02*
X1008217Y-11652138D01*
X1008217Y-11652138D02*
X1017741Y-11671186D01*
X1017741Y-11671186D02*
X1027265Y-11680710D01*
X1027265Y-11680710D02*
X1046312Y-11690234D01*
X1046312Y-11690234D02*
X1084408Y-11690234D01*
X1084408Y-11690234D02*
X1103455Y-11680710D01*
X1103455Y-11680710D02*
X1112979Y-11671186D01*
X1112979Y-11671186D02*
X1122503Y-11652138D01*
X1122503Y-11652138D02*
X1122503Y-11614043D01*
X1122503Y-11614043D02*
X1112979Y-11594996D01*
X1112979Y-11594996D02*
X1103455Y-11585472D01*
X1103455Y-11585472D02*
X1084408Y-11575948D01*
X1246313Y-11490234D02*
X1265360Y-11490234D01*
X1265360Y-11490234D02*
X1284408Y-11499758D01*
X1284408Y-11499758D02*
X1293932Y-11509281D01*
X1293932Y-11509281D02*
X1303455Y-11528329D01*
X1303455Y-11528329D02*
X1312979Y-11566424D01*
X1312979Y-11566424D02*
X1312979Y-11614043D01*
X1312979Y-11614043D02*
X1303455Y-11652138D01*
X1303455Y-11652138D02*
X1293932Y-11671186D01*
X1293932Y-11671186D02*
X1284408Y-11680710D01*
X1284408Y-11680710D02*
X1265360Y-11690234D01*
X1265360Y-11690234D02*
X1246313Y-11690234D01*
X1246313Y-11690234D02*
X1227265Y-11680710D01*
X1227265Y-11680710D02*
X1217741Y-11671186D01*
X1217741Y-11671186D02*
X1208217Y-11652138D01*
X1208217Y-11652138D02*
X1198694Y-11614043D01*
X1198694Y-11614043D02*
X1198694Y-11566424D01*
X1198694Y-11566424D02*
X1208217Y-11528329D01*
X1208217Y-11528329D02*
X1217741Y-11509281D01*
X1217741Y-11509281D02*
X1227265Y-11499758D01*
X1227265Y-11499758D02*
X1246313Y-11490234D01*
X1436789Y-11490234D02*
X1455836Y-11490234D01*
X1455836Y-11490234D02*
X1474884Y-11499758D01*
X1474884Y-11499758D02*
X1484408Y-11509281D01*
X1484408Y-11509281D02*
X1493932Y-11528329D01*
X1493932Y-11528329D02*
X1503455Y-11566424D01*
X1503455Y-11566424D02*
X1503455Y-11614043D01*
X1503455Y-11614043D02*
X1493932Y-11652138D01*
X1493932Y-11652138D02*
X1484408Y-11671186D01*
X1484408Y-11671186D02*
X1474884Y-11680710D01*
X1474884Y-11680710D02*
X1455836Y-11690234D01*
X1455836Y-11690234D02*
X1436789Y-11690234D01*
X1436789Y-11690234D02*
X1417741Y-11680710D01*
X1417741Y-11680710D02*
X1408217Y-11671186D01*
X1408217Y-11671186D02*
X1398693Y-11652138D01*
X1398693Y-11652138D02*
X1389170Y-11614043D01*
X1389170Y-11614043D02*
X1389170Y-11566424D01*
X1389170Y-11566424D02*
X1398693Y-11528329D01*
X1398693Y-11528329D02*
X1408217Y-11509281D01*
X1408217Y-11509281D02*
X1417741Y-11499758D01*
X1417741Y-11499758D02*
X1436789Y-11490234D01*
X1589170Y-11690234D02*
X1589170Y-11556900D01*
X1589170Y-11575948D02*
X1598693Y-11566424D01*
X1598693Y-11566424D02*
X1617741Y-11556900D01*
X1617741Y-11556900D02*
X1646313Y-11556900D01*
X1646313Y-11556900D02*
X1665360Y-11566424D01*
X1665360Y-11566424D02*
X1674884Y-11585472D01*
X1674884Y-11585472D02*
X1674884Y-11690234D01*
X1674884Y-11585472D02*
X1684408Y-11566424D01*
X1684408Y-11566424D02*
X1703455Y-11556900D01*
X1703455Y-11556900D02*
X1732027Y-11556900D01*
X1732027Y-11556900D02*
X1751074Y-11566424D01*
X1751074Y-11566424D02*
X1760598Y-11585472D01*
X1760598Y-11585472D02*
X1760598Y-11690234D01*
X1855836Y-11690234D02*
X1855836Y-11556900D01*
X1855836Y-11575948D02*
X1865360Y-11566424D01*
X1865360Y-11566424D02*
X1884408Y-11556900D01*
X1884408Y-11556900D02*
X1912979Y-11556900D01*
X1912979Y-11556900D02*
X1932027Y-11566424D01*
X1932027Y-11566424D02*
X1941551Y-11585472D01*
X1941551Y-11585472D02*
X1941551Y-11690234D01*
X1941551Y-11585472D02*
X1951074Y-11566424D01*
X1951074Y-11566424D02*
X1970122Y-11556900D01*
X1970122Y-11556900D02*
X1998693Y-11556900D01*
X1998693Y-11556900D02*
X2017741Y-11566424D01*
X2017741Y-11566424D02*
X2027265Y-11585472D01*
X2027265Y-11585472D02*
X2027265Y-11690234D01*
X2417741Y-11480710D02*
X2246313Y-11737853D01*
X2674884Y-11490234D02*
X2693932Y-11490234D01*
X2693932Y-11490234D02*
X2712979Y-11499758D01*
X2712979Y-11499758D02*
X2722503Y-11509281D01*
X2722503Y-11509281D02*
X2732027Y-11528329D01*
X2732027Y-11528329D02*
X2741551Y-11566424D01*
X2741551Y-11566424D02*
X2741551Y-11614043D01*
X2741551Y-11614043D02*
X2732027Y-11652138D01*
X2732027Y-11652138D02*
X2722503Y-11671186D01*
X2722503Y-11671186D02*
X2712979Y-11680710D01*
X2712979Y-11680710D02*
X2693932Y-11690234D01*
X2693932Y-11690234D02*
X2674884Y-11690234D01*
X2674884Y-11690234D02*
X2655837Y-11680710D01*
X2655837Y-11680710D02*
X2646313Y-11671186D01*
X2646313Y-11671186D02*
X2636789Y-11652138D01*
X2636789Y-11652138D02*
X2627265Y-11614043D01*
X2627265Y-11614043D02*
X2627265Y-11566424D01*
X2627265Y-11566424D02*
X2636789Y-11528329D01*
X2636789Y-11528329D02*
X2646313Y-11509281D01*
X2646313Y-11509281D02*
X2655837Y-11499758D01*
X2655837Y-11499758D02*
X2674884Y-11490234D01*
X2827265Y-11671186D02*
X2836789Y-11680710D01*
X2836789Y-11680710D02*
X2827265Y-11690234D01*
X2827265Y-11690234D02*
X2817741Y-11680710D01*
X2817741Y-11680710D02*
X2827265Y-11671186D01*
X2827265Y-11671186D02*
X2827265Y-11690234D01*
X2960598Y-11490234D02*
X2979646Y-11490234D01*
X2979646Y-11490234D02*
X2998694Y-11499758D01*
X2998694Y-11499758D02*
X3008217Y-11509281D01*
X3008217Y-11509281D02*
X3017741Y-11528329D01*
X3017741Y-11528329D02*
X3027265Y-11566424D01*
X3027265Y-11566424D02*
X3027265Y-11614043D01*
X3027265Y-11614043D02*
X3017741Y-11652138D01*
X3017741Y-11652138D02*
X3008217Y-11671186D01*
X3008217Y-11671186D02*
X2998694Y-11680710D01*
X2998694Y-11680710D02*
X2979646Y-11690234D01*
X2979646Y-11690234D02*
X2960598Y-11690234D01*
X2960598Y-11690234D02*
X2941551Y-11680710D01*
X2941551Y-11680710D02*
X2932027Y-11671186D01*
X2932027Y-11671186D02*
X2922503Y-11652138D01*
X2922503Y-11652138D02*
X2912979Y-11614043D01*
X2912979Y-11614043D02*
X2912979Y-11566424D01*
X2912979Y-11566424D02*
X2922503Y-11528329D01*
X2922503Y-11528329D02*
X2932027Y-11509281D01*
X2932027Y-11509281D02*
X2941551Y-11499758D01*
X2941551Y-11499758D02*
X2960598Y-11490234D01*
X3093932Y-11490234D02*
X3217741Y-11490234D01*
X3217741Y-11490234D02*
X3151075Y-11566424D01*
X3151075Y-11566424D02*
X3179646Y-11566424D01*
X3179646Y-11566424D02*
X3198694Y-11575948D01*
X3198694Y-11575948D02*
X3208217Y-11585472D01*
X3208217Y-11585472D02*
X3217741Y-11604519D01*
X3217741Y-11604519D02*
X3217741Y-11652138D01*
X3217741Y-11652138D02*
X3208217Y-11671186D01*
X3208217Y-11671186D02*
X3198694Y-11680710D01*
X3198694Y-11680710D02*
X3179646Y-11690234D01*
X3179646Y-11690234D02*
X3122503Y-11690234D01*
X3122503Y-11690234D02*
X3103456Y-11680710D01*
X3103456Y-11680710D02*
X3093932Y-11671186D01*
X3408217Y-11690234D02*
X3293932Y-11690234D01*
X3351075Y-11690234D02*
X3351075Y-11490234D01*
X3351075Y-11490234D02*
X3332027Y-11518805D01*
X3332027Y-11518805D02*
X3312979Y-11537853D01*
X3312979Y-11537853D02*
X3293932Y-11547377D01*
X3589170Y-11490234D02*
X3493932Y-11490234D01*
X3493932Y-11490234D02*
X3484408Y-11585472D01*
X3484408Y-11585472D02*
X3493932Y-11575948D01*
X3493932Y-11575948D02*
X3512979Y-11566424D01*
X3512979Y-11566424D02*
X3560598Y-11566424D01*
X3560598Y-11566424D02*
X3579646Y-11575948D01*
X3579646Y-11575948D02*
X3589170Y-11585472D01*
X3589170Y-11585472D02*
X3598694Y-11604519D01*
X3598694Y-11604519D02*
X3598694Y-11652138D01*
X3598694Y-11652138D02*
X3589170Y-11671186D01*
X3589170Y-11671186D02*
X3579646Y-11680710D01*
X3579646Y-11680710D02*
X3560598Y-11690234D01*
X3560598Y-11690234D02*
X3512979Y-11690234D01*
X3512979Y-11690234D02*
X3493932Y-11680710D01*
X3493932Y-11680710D02*
X3484408Y-11671186D01*
X3674884Y-11490234D02*
X3674884Y-11528329D01*
X3751075Y-11490234D02*
X3751075Y-11528329D01*
X4046313Y-11766424D02*
X4036789Y-11756900D01*
X4036789Y-11756900D02*
X4017741Y-11728329D01*
X4017741Y-11728329D02*
X4008218Y-11709281D01*
X4008218Y-11709281D02*
X3998694Y-11680710D01*
X3998694Y-11680710D02*
X3989170Y-11633091D01*
X3989170Y-11633091D02*
X3989170Y-11594996D01*
X3989170Y-11594996D02*
X3998694Y-11547377D01*
X3998694Y-11547377D02*
X4008218Y-11518805D01*
X4008218Y-11518805D02*
X4017741Y-11499758D01*
X4017741Y-11499758D02*
X4036789Y-11471186D01*
X4036789Y-11471186D02*
X4046313Y-11461662D01*
X4208218Y-11556900D02*
X4208218Y-11690234D01*
X4160598Y-11480710D02*
X4112979Y-11623567D01*
X4112979Y-11623567D02*
X4236789Y-11623567D01*
X4465361Y-11690234D02*
X4465361Y-11490234D01*
X4551075Y-11690234D02*
X4551075Y-11585472D01*
X4551075Y-11585472D02*
X4541551Y-11566424D01*
X4541551Y-11566424D02*
X4522503Y-11556900D01*
X4522503Y-11556900D02*
X4493932Y-11556900D01*
X4493932Y-11556900D02*
X4474884Y-11566424D01*
X4474884Y-11566424D02*
X4465361Y-11575948D01*
X4674884Y-11690234D02*
X4655837Y-11680710D01*
X4655837Y-11680710D02*
X4646313Y-11671186D01*
X4646313Y-11671186D02*
X4636789Y-11652138D01*
X4636789Y-11652138D02*
X4636789Y-11594996D01*
X4636789Y-11594996D02*
X4646313Y-11575948D01*
X4646313Y-11575948D02*
X4655837Y-11566424D01*
X4655837Y-11566424D02*
X4674884Y-11556900D01*
X4674884Y-11556900D02*
X4703456Y-11556900D01*
X4703456Y-11556900D02*
X4722503Y-11566424D01*
X4722503Y-11566424D02*
X4732027Y-11575948D01*
X4732027Y-11575948D02*
X4741551Y-11594996D01*
X4741551Y-11594996D02*
X4741551Y-11652138D01*
X4741551Y-11652138D02*
X4732027Y-11671186D01*
X4732027Y-11671186D02*
X4722503Y-11680710D01*
X4722503Y-11680710D02*
X4703456Y-11690234D01*
X4703456Y-11690234D02*
X4674884Y-11690234D01*
X4855837Y-11690234D02*
X4836789Y-11680710D01*
X4836789Y-11680710D02*
X4827265Y-11661662D01*
X4827265Y-11661662D02*
X4827265Y-11490234D01*
X5008218Y-11680710D02*
X4989170Y-11690234D01*
X4989170Y-11690234D02*
X4951075Y-11690234D01*
X4951075Y-11690234D02*
X4932027Y-11680710D01*
X4932027Y-11680710D02*
X4922503Y-11661662D01*
X4922503Y-11661662D02*
X4922503Y-11585472D01*
X4922503Y-11585472D02*
X4932027Y-11566424D01*
X4932027Y-11566424D02*
X4951075Y-11556900D01*
X4951075Y-11556900D02*
X4989170Y-11556900D01*
X4989170Y-11556900D02*
X5008218Y-11566424D01*
X5008218Y-11566424D02*
X5017742Y-11585472D01*
X5017742Y-11585472D02*
X5017742Y-11604519D01*
X5017742Y-11604519D02*
X4922503Y-11623567D01*
X5093932Y-11680710D02*
X5112980Y-11690234D01*
X5112980Y-11690234D02*
X5151075Y-11690234D01*
X5151075Y-11690234D02*
X5170123Y-11680710D01*
X5170123Y-11680710D02*
X5179646Y-11661662D01*
X5179646Y-11661662D02*
X5179646Y-11652138D01*
X5179646Y-11652138D02*
X5170123Y-11633091D01*
X5170123Y-11633091D02*
X5151075Y-11623567D01*
X5151075Y-11623567D02*
X5122503Y-11623567D01*
X5122503Y-11623567D02*
X5103456Y-11614043D01*
X5103456Y-11614043D02*
X5093932Y-11594996D01*
X5093932Y-11594996D02*
X5093932Y-11585472D01*
X5093932Y-11585472D02*
X5103456Y-11566424D01*
X5103456Y-11566424D02*
X5122503Y-11556900D01*
X5122503Y-11556900D02*
X5151075Y-11556900D01*
X5151075Y-11556900D02*
X5170123Y-11566424D01*
X5246313Y-11766424D02*
X5255837Y-11756900D01*
X5255837Y-11756900D02*
X5274884Y-11728329D01*
X5274884Y-11728329D02*
X5284408Y-11709281D01*
X5284408Y-11709281D02*
X5293932Y-11680710D01*
X5293932Y-11680710D02*
X5303456Y-11633091D01*
X5303456Y-11633091D02*
X5303456Y-11594996D01*
X5303456Y-11594996D02*
X5293932Y-11547377D01*
X5293932Y-11547377D02*
X5284408Y-11518805D01*
X5284408Y-11518805D02*
X5274884Y-11499758D01*
X5274884Y-11499758D02*
X5255837Y-11471186D01*
X5255837Y-11471186D02*
X5246313Y-11461662D01*
X5608218Y-11766424D02*
X5598694Y-11756900D01*
X5598694Y-11756900D02*
X5579646Y-11728329D01*
X5579646Y-11728329D02*
X5570123Y-11709281D01*
X5570123Y-11709281D02*
X5560599Y-11680710D01*
X5560599Y-11680710D02*
X5551075Y-11633091D01*
X5551075Y-11633091D02*
X5551075Y-11594996D01*
X5551075Y-11594996D02*
X5560599Y-11547377D01*
X5560599Y-11547377D02*
X5570123Y-11518805D01*
X5570123Y-11518805D02*
X5579646Y-11499758D01*
X5579646Y-11499758D02*
X5598694Y-11471186D01*
X5598694Y-11471186D02*
X5608218Y-11461662D01*
X5684408Y-11556900D02*
X5684408Y-11690234D01*
X5684408Y-11575948D02*
X5693932Y-11566424D01*
X5693932Y-11566424D02*
X5712980Y-11556900D01*
X5712980Y-11556900D02*
X5741551Y-11556900D01*
X5741551Y-11556900D02*
X5760599Y-11566424D01*
X5760599Y-11566424D02*
X5770122Y-11585472D01*
X5770122Y-11585472D02*
X5770122Y-11690234D01*
X5893932Y-11690234D02*
X5874884Y-11680710D01*
X5874884Y-11680710D02*
X5865361Y-11671186D01*
X5865361Y-11671186D02*
X5855837Y-11652138D01*
X5855837Y-11652138D02*
X5855837Y-11594996D01*
X5855837Y-11594996D02*
X5865361Y-11575948D01*
X5865361Y-11575948D02*
X5874884Y-11566424D01*
X5874884Y-11566424D02*
X5893932Y-11556900D01*
X5893932Y-11556900D02*
X5922503Y-11556900D01*
X5922503Y-11556900D02*
X5941551Y-11566424D01*
X5941551Y-11566424D02*
X5951075Y-11575948D01*
X5951075Y-11575948D02*
X5960599Y-11594996D01*
X5960599Y-11594996D02*
X5960599Y-11652138D01*
X5960599Y-11652138D02*
X5951075Y-11671186D01*
X5951075Y-11671186D02*
X5941551Y-11680710D01*
X5941551Y-11680710D02*
X5922503Y-11690234D01*
X5922503Y-11690234D02*
X5893932Y-11690234D01*
X6017742Y-11556900D02*
X6093932Y-11556900D01*
X6046313Y-11490234D02*
X6046313Y-11661662D01*
X6046313Y-11661662D02*
X6055837Y-11680710D01*
X6055837Y-11680710D02*
X6074884Y-11690234D01*
X6074884Y-11690234D02*
X6093932Y-11690234D01*
X6312980Y-11556900D02*
X6312980Y-11756900D01*
X6312980Y-11566424D02*
X6332027Y-11556900D01*
X6332027Y-11556900D02*
X6370123Y-11556900D01*
X6370123Y-11556900D02*
X6389170Y-11566424D01*
X6389170Y-11566424D02*
X6398694Y-11575948D01*
X6398694Y-11575948D02*
X6408218Y-11594996D01*
X6408218Y-11594996D02*
X6408218Y-11652138D01*
X6408218Y-11652138D02*
X6398694Y-11671186D01*
X6398694Y-11671186D02*
X6389170Y-11680710D01*
X6389170Y-11680710D02*
X6370123Y-11690234D01*
X6370123Y-11690234D02*
X6332027Y-11690234D01*
X6332027Y-11690234D02*
X6312980Y-11680710D01*
X6522503Y-11690234D02*
X6503456Y-11680710D01*
X6503456Y-11680710D02*
X6493932Y-11661662D01*
X6493932Y-11661662D02*
X6493932Y-11490234D01*
X6684408Y-11690234D02*
X6684408Y-11585472D01*
X6684408Y-11585472D02*
X6674884Y-11566424D01*
X6674884Y-11566424D02*
X6655837Y-11556900D01*
X6655837Y-11556900D02*
X6617742Y-11556900D01*
X6617742Y-11556900D02*
X6598694Y-11566424D01*
X6684408Y-11680710D02*
X6665361Y-11690234D01*
X6665361Y-11690234D02*
X6617742Y-11690234D01*
X6617742Y-11690234D02*
X6598694Y-11680710D01*
X6598694Y-11680710D02*
X6589170Y-11661662D01*
X6589170Y-11661662D02*
X6589170Y-11642615D01*
X6589170Y-11642615D02*
X6598694Y-11623567D01*
X6598694Y-11623567D02*
X6617742Y-11614043D01*
X6617742Y-11614043D02*
X6665361Y-11614043D01*
X6665361Y-11614043D02*
X6684408Y-11604519D01*
X6751075Y-11556900D02*
X6827265Y-11556900D01*
X6779646Y-11490234D02*
X6779646Y-11661662D01*
X6779646Y-11661662D02*
X6789170Y-11680710D01*
X6789170Y-11680710D02*
X6808218Y-11690234D01*
X6808218Y-11690234D02*
X6827265Y-11690234D01*
X6970123Y-11680710D02*
X6951075Y-11690234D01*
X6951075Y-11690234D02*
X6912980Y-11690234D01*
X6912980Y-11690234D02*
X6893932Y-11680710D01*
X6893932Y-11680710D02*
X6884408Y-11661662D01*
X6884408Y-11661662D02*
X6884408Y-11585472D01*
X6884408Y-11585472D02*
X6893932Y-11566424D01*
X6893932Y-11566424D02*
X6912980Y-11556900D01*
X6912980Y-11556900D02*
X6951075Y-11556900D01*
X6951075Y-11556900D02*
X6970123Y-11566424D01*
X6970123Y-11566424D02*
X6979646Y-11585472D01*
X6979646Y-11585472D02*
X6979646Y-11604519D01*
X6979646Y-11604519D02*
X6884408Y-11623567D01*
X7151075Y-11690234D02*
X7151075Y-11490234D01*
X7151075Y-11680710D02*
X7132027Y-11690234D01*
X7132027Y-11690234D02*
X7093932Y-11690234D01*
X7093932Y-11690234D02*
X7074884Y-11680710D01*
X7074884Y-11680710D02*
X7065361Y-11671186D01*
X7065361Y-11671186D02*
X7055837Y-11652138D01*
X7055837Y-11652138D02*
X7055837Y-11594996D01*
X7055837Y-11594996D02*
X7065361Y-11575948D01*
X7065361Y-11575948D02*
X7074884Y-11566424D01*
X7074884Y-11566424D02*
X7093932Y-11556900D01*
X7093932Y-11556900D02*
X7132027Y-11556900D01*
X7132027Y-11556900D02*
X7151075Y-11566424D01*
X7227265Y-11766424D02*
X7236789Y-11756900D01*
X7236789Y-11756900D02*
X7255837Y-11728329D01*
X7255837Y-11728329D02*
X7265361Y-11709281D01*
X7265361Y-11709281D02*
X7274884Y-11680710D01*
X7274884Y-11680710D02*
X7284408Y-11633091D01*
X7284408Y-11633091D02*
X7284408Y-11594996D01*
X7284408Y-11594996D02*
X7274884Y-11547377D01*
X7274884Y-11547377D02*
X7265361Y-11518805D01*
X7265361Y-11518805D02*
X7255837Y-11499758D01*
X7255837Y-11499758D02*
X7236789Y-11471186D01*
X7236789Y-11471186D02*
X7227265Y-11461662D01*
D13*
X471250Y-11862750D02*
G75*
G03*
X471250Y-11862750I-87500J0D01*
G01*
D11*
X836789Y-11954234D02*
X722503Y-11954234D01*
X779646Y-11954234D02*
X779646Y-11754234D01*
X779646Y-11754234D02*
X760598Y-11782805D01*
X760598Y-11782805D02*
X741551Y-11801853D01*
X741551Y-11801853D02*
X722503Y-11811377D01*
X922503Y-11935186D02*
X932027Y-11944710D01*
X932027Y-11944710D02*
X922503Y-11954234D01*
X922503Y-11954234D02*
X912979Y-11944710D01*
X912979Y-11944710D02*
X922503Y-11935186D01*
X922503Y-11935186D02*
X922503Y-11954234D01*
X998693Y-11754234D02*
X1132027Y-11754234D01*
X1132027Y-11754234D02*
X1046312Y-11954234D01*
X1303455Y-11754234D02*
X1208217Y-11754234D01*
X1208217Y-11754234D02*
X1198694Y-11849472D01*
X1198694Y-11849472D02*
X1208217Y-11839948D01*
X1208217Y-11839948D02*
X1227265Y-11830424D01*
X1227265Y-11830424D02*
X1274884Y-11830424D01*
X1274884Y-11830424D02*
X1293932Y-11839948D01*
X1293932Y-11839948D02*
X1303455Y-11849472D01*
X1303455Y-11849472D02*
X1312979Y-11868519D01*
X1312979Y-11868519D02*
X1312979Y-11916138D01*
X1312979Y-11916138D02*
X1303455Y-11935186D01*
X1303455Y-11935186D02*
X1293932Y-11944710D01*
X1293932Y-11944710D02*
X1274884Y-11954234D01*
X1274884Y-11954234D02*
X1227265Y-11954234D01*
X1227265Y-11954234D02*
X1208217Y-11944710D01*
X1208217Y-11944710D02*
X1198694Y-11935186D01*
X1436789Y-11754234D02*
X1455836Y-11754234D01*
X1455836Y-11754234D02*
X1474884Y-11763758D01*
X1474884Y-11763758D02*
X1484408Y-11773281D01*
X1484408Y-11773281D02*
X1493932Y-11792329D01*
X1493932Y-11792329D02*
X1503455Y-11830424D01*
X1503455Y-11830424D02*
X1503455Y-11878043D01*
X1503455Y-11878043D02*
X1493932Y-11916138D01*
X1493932Y-11916138D02*
X1484408Y-11935186D01*
X1484408Y-11935186D02*
X1474884Y-11944710D01*
X1474884Y-11944710D02*
X1455836Y-11954234D01*
X1455836Y-11954234D02*
X1436789Y-11954234D01*
X1436789Y-11954234D02*
X1417741Y-11944710D01*
X1417741Y-11944710D02*
X1408217Y-11935186D01*
X1408217Y-11935186D02*
X1398693Y-11916138D01*
X1398693Y-11916138D02*
X1389170Y-11878043D01*
X1389170Y-11878043D02*
X1389170Y-11830424D01*
X1389170Y-11830424D02*
X1398693Y-11792329D01*
X1398693Y-11792329D02*
X1408217Y-11773281D01*
X1408217Y-11773281D02*
X1417741Y-11763758D01*
X1417741Y-11763758D02*
X1436789Y-11754234D01*
X1589170Y-11954234D02*
X1589170Y-11820900D01*
X1589170Y-11839948D02*
X1598693Y-11830424D01*
X1598693Y-11830424D02*
X1617741Y-11820900D01*
X1617741Y-11820900D02*
X1646313Y-11820900D01*
X1646313Y-11820900D02*
X1665360Y-11830424D01*
X1665360Y-11830424D02*
X1674884Y-11849472D01*
X1674884Y-11849472D02*
X1674884Y-11954234D01*
X1674884Y-11849472D02*
X1684408Y-11830424D01*
X1684408Y-11830424D02*
X1703455Y-11820900D01*
X1703455Y-11820900D02*
X1732027Y-11820900D01*
X1732027Y-11820900D02*
X1751074Y-11830424D01*
X1751074Y-11830424D02*
X1760598Y-11849472D01*
X1760598Y-11849472D02*
X1760598Y-11954234D01*
X1855836Y-11954234D02*
X1855836Y-11820900D01*
X1855836Y-11839948D02*
X1865360Y-11830424D01*
X1865360Y-11830424D02*
X1884408Y-11820900D01*
X1884408Y-11820900D02*
X1912979Y-11820900D01*
X1912979Y-11820900D02*
X1932027Y-11830424D01*
X1932027Y-11830424D02*
X1941551Y-11849472D01*
X1941551Y-11849472D02*
X1941551Y-11954234D01*
X1941551Y-11849472D02*
X1951074Y-11830424D01*
X1951074Y-11830424D02*
X1970122Y-11820900D01*
X1970122Y-11820900D02*
X1998693Y-11820900D01*
X1998693Y-11820900D02*
X2017741Y-11830424D01*
X2017741Y-11830424D02*
X2027265Y-11849472D01*
X2027265Y-11849472D02*
X2027265Y-11954234D01*
X2417741Y-11744710D02*
X2246313Y-12001853D01*
X2674884Y-11754234D02*
X2693932Y-11754234D01*
X2693932Y-11754234D02*
X2712979Y-11763758D01*
X2712979Y-11763758D02*
X2722503Y-11773281D01*
X2722503Y-11773281D02*
X2732027Y-11792329D01*
X2732027Y-11792329D02*
X2741551Y-11830424D01*
X2741551Y-11830424D02*
X2741551Y-11878043D01*
X2741551Y-11878043D02*
X2732027Y-11916138D01*
X2732027Y-11916138D02*
X2722503Y-11935186D01*
X2722503Y-11935186D02*
X2712979Y-11944710D01*
X2712979Y-11944710D02*
X2693932Y-11954234D01*
X2693932Y-11954234D02*
X2674884Y-11954234D01*
X2674884Y-11954234D02*
X2655837Y-11944710D01*
X2655837Y-11944710D02*
X2646313Y-11935186D01*
X2646313Y-11935186D02*
X2636789Y-11916138D01*
X2636789Y-11916138D02*
X2627265Y-11878043D01*
X2627265Y-11878043D02*
X2627265Y-11830424D01*
X2627265Y-11830424D02*
X2636789Y-11792329D01*
X2636789Y-11792329D02*
X2646313Y-11773281D01*
X2646313Y-11773281D02*
X2655837Y-11763758D01*
X2655837Y-11763758D02*
X2674884Y-11754234D01*
X2827265Y-11935186D02*
X2836789Y-11944710D01*
X2836789Y-11944710D02*
X2827265Y-11954234D01*
X2827265Y-11954234D02*
X2817741Y-11944710D01*
X2817741Y-11944710D02*
X2827265Y-11935186D01*
X2827265Y-11935186D02*
X2827265Y-11954234D01*
X2960598Y-11754234D02*
X2979646Y-11754234D01*
X2979646Y-11754234D02*
X2998694Y-11763758D01*
X2998694Y-11763758D02*
X3008217Y-11773281D01*
X3008217Y-11773281D02*
X3017741Y-11792329D01*
X3017741Y-11792329D02*
X3027265Y-11830424D01*
X3027265Y-11830424D02*
X3027265Y-11878043D01*
X3027265Y-11878043D02*
X3017741Y-11916138D01*
X3017741Y-11916138D02*
X3008217Y-11935186D01*
X3008217Y-11935186D02*
X2998694Y-11944710D01*
X2998694Y-11944710D02*
X2979646Y-11954234D01*
X2979646Y-11954234D02*
X2960598Y-11954234D01*
X2960598Y-11954234D02*
X2941551Y-11944710D01*
X2941551Y-11944710D02*
X2932027Y-11935186D01*
X2932027Y-11935186D02*
X2922503Y-11916138D01*
X2922503Y-11916138D02*
X2912979Y-11878043D01*
X2912979Y-11878043D02*
X2912979Y-11830424D01*
X2912979Y-11830424D02*
X2922503Y-11792329D01*
X2922503Y-11792329D02*
X2932027Y-11773281D01*
X2932027Y-11773281D02*
X2941551Y-11763758D01*
X2941551Y-11763758D02*
X2960598Y-11754234D01*
X3198694Y-11754234D02*
X3160598Y-11754234D01*
X3160598Y-11754234D02*
X3141551Y-11763758D01*
X3141551Y-11763758D02*
X3132027Y-11773281D01*
X3132027Y-11773281D02*
X3112979Y-11801853D01*
X3112979Y-11801853D02*
X3103456Y-11839948D01*
X3103456Y-11839948D02*
X3103456Y-11916138D01*
X3103456Y-11916138D02*
X3112979Y-11935186D01*
X3112979Y-11935186D02*
X3122503Y-11944710D01*
X3122503Y-11944710D02*
X3141551Y-11954234D01*
X3141551Y-11954234D02*
X3179646Y-11954234D01*
X3179646Y-11954234D02*
X3198694Y-11944710D01*
X3198694Y-11944710D02*
X3208217Y-11935186D01*
X3208217Y-11935186D02*
X3217741Y-11916138D01*
X3217741Y-11916138D02*
X3217741Y-11868519D01*
X3217741Y-11868519D02*
X3208217Y-11849472D01*
X3208217Y-11849472D02*
X3198694Y-11839948D01*
X3198694Y-11839948D02*
X3179646Y-11830424D01*
X3179646Y-11830424D02*
X3141551Y-11830424D01*
X3141551Y-11830424D02*
X3122503Y-11839948D01*
X3122503Y-11839948D02*
X3112979Y-11849472D01*
X3112979Y-11849472D02*
X3103456Y-11868519D01*
X3332027Y-11839948D02*
X3312979Y-11830424D01*
X3312979Y-11830424D02*
X3303456Y-11820900D01*
X3303456Y-11820900D02*
X3293932Y-11801853D01*
X3293932Y-11801853D02*
X3293932Y-11792329D01*
X3293932Y-11792329D02*
X3303456Y-11773281D01*
X3303456Y-11773281D02*
X3312979Y-11763758D01*
X3312979Y-11763758D02*
X3332027Y-11754234D01*
X3332027Y-11754234D02*
X3370122Y-11754234D01*
X3370122Y-11754234D02*
X3389170Y-11763758D01*
X3389170Y-11763758D02*
X3398694Y-11773281D01*
X3398694Y-11773281D02*
X3408217Y-11792329D01*
X3408217Y-11792329D02*
X3408217Y-11801853D01*
X3408217Y-11801853D02*
X3398694Y-11820900D01*
X3398694Y-11820900D02*
X3389170Y-11830424D01*
X3389170Y-11830424D02*
X3370122Y-11839948D01*
X3370122Y-11839948D02*
X3332027Y-11839948D01*
X3332027Y-11839948D02*
X3312979Y-11849472D01*
X3312979Y-11849472D02*
X3303456Y-11858996D01*
X3303456Y-11858996D02*
X3293932Y-11878043D01*
X3293932Y-11878043D02*
X3293932Y-11916138D01*
X3293932Y-11916138D02*
X3303456Y-11935186D01*
X3303456Y-11935186D02*
X3312979Y-11944710D01*
X3312979Y-11944710D02*
X3332027Y-11954234D01*
X3332027Y-11954234D02*
X3370122Y-11954234D01*
X3370122Y-11954234D02*
X3389170Y-11944710D01*
X3389170Y-11944710D02*
X3398694Y-11935186D01*
X3398694Y-11935186D02*
X3408217Y-11916138D01*
X3408217Y-11916138D02*
X3408217Y-11878043D01*
X3408217Y-11878043D02*
X3398694Y-11858996D01*
X3398694Y-11858996D02*
X3389170Y-11849472D01*
X3389170Y-11849472D02*
X3370122Y-11839948D01*
X3503456Y-11954234D02*
X3541551Y-11954234D01*
X3541551Y-11954234D02*
X3560598Y-11944710D01*
X3560598Y-11944710D02*
X3570122Y-11935186D01*
X3570122Y-11935186D02*
X3589170Y-11906615D01*
X3589170Y-11906615D02*
X3598694Y-11868519D01*
X3598694Y-11868519D02*
X3598694Y-11792329D01*
X3598694Y-11792329D02*
X3589170Y-11773281D01*
X3589170Y-11773281D02*
X3579646Y-11763758D01*
X3579646Y-11763758D02*
X3560598Y-11754234D01*
X3560598Y-11754234D02*
X3522503Y-11754234D01*
X3522503Y-11754234D02*
X3503456Y-11763758D01*
X3503456Y-11763758D02*
X3493932Y-11773281D01*
X3493932Y-11773281D02*
X3484408Y-11792329D01*
X3484408Y-11792329D02*
X3484408Y-11839948D01*
X3484408Y-11839948D02*
X3493932Y-11858996D01*
X3493932Y-11858996D02*
X3503456Y-11868519D01*
X3503456Y-11868519D02*
X3522503Y-11878043D01*
X3522503Y-11878043D02*
X3560598Y-11878043D01*
X3560598Y-11878043D02*
X3579646Y-11868519D01*
X3579646Y-11868519D02*
X3589170Y-11858996D01*
X3589170Y-11858996D02*
X3598694Y-11839948D01*
X3674884Y-11754234D02*
X3674884Y-11792329D01*
X3751075Y-11754234D02*
X3751075Y-11792329D01*
X4046313Y-12030424D02*
X4036789Y-12020900D01*
X4036789Y-12020900D02*
X4017741Y-11992329D01*
X4017741Y-11992329D02*
X4008218Y-11973281D01*
X4008218Y-11973281D02*
X3998694Y-11944710D01*
X3998694Y-11944710D02*
X3989170Y-11897091D01*
X3989170Y-11897091D02*
X3989170Y-11858996D01*
X3989170Y-11858996D02*
X3998694Y-11811377D01*
X3998694Y-11811377D02*
X4008218Y-11782805D01*
X4008218Y-11782805D02*
X4017741Y-11763758D01*
X4017741Y-11763758D02*
X4036789Y-11735186D01*
X4036789Y-11735186D02*
X4046313Y-11725662D01*
X4132027Y-11954234D02*
X4170122Y-11954234D01*
X4170122Y-11954234D02*
X4189170Y-11944710D01*
X4189170Y-11944710D02*
X4198694Y-11935186D01*
X4198694Y-11935186D02*
X4217741Y-11906615D01*
X4217741Y-11906615D02*
X4227265Y-11868519D01*
X4227265Y-11868519D02*
X4227265Y-11792329D01*
X4227265Y-11792329D02*
X4217741Y-11773281D01*
X4217741Y-11773281D02*
X4208218Y-11763758D01*
X4208218Y-11763758D02*
X4189170Y-11754234D01*
X4189170Y-11754234D02*
X4151075Y-11754234D01*
X4151075Y-11754234D02*
X4132027Y-11763758D01*
X4132027Y-11763758D02*
X4122503Y-11773281D01*
X4122503Y-11773281D02*
X4112979Y-11792329D01*
X4112979Y-11792329D02*
X4112979Y-11839948D01*
X4112979Y-11839948D02*
X4122503Y-11858996D01*
X4122503Y-11858996D02*
X4132027Y-11868519D01*
X4132027Y-11868519D02*
X4151075Y-11878043D01*
X4151075Y-11878043D02*
X4189170Y-11878043D01*
X4189170Y-11878043D02*
X4208218Y-11868519D01*
X4208218Y-11868519D02*
X4217741Y-11858996D01*
X4217741Y-11858996D02*
X4227265Y-11839948D01*
X4303456Y-11773281D02*
X4312980Y-11763758D01*
X4312980Y-11763758D02*
X4332027Y-11754234D01*
X4332027Y-11754234D02*
X4379646Y-11754234D01*
X4379646Y-11754234D02*
X4398694Y-11763758D01*
X4398694Y-11763758D02*
X4408218Y-11773281D01*
X4408218Y-11773281D02*
X4417741Y-11792329D01*
X4417741Y-11792329D02*
X4417741Y-11811377D01*
X4417741Y-11811377D02*
X4408218Y-11839948D01*
X4408218Y-11839948D02*
X4293932Y-11954234D01*
X4293932Y-11954234D02*
X4417741Y-11954234D01*
X4655837Y-11954234D02*
X4655837Y-11754234D01*
X4741551Y-11954234D02*
X4741551Y-11849472D01*
X4741551Y-11849472D02*
X4732027Y-11830424D01*
X4732027Y-11830424D02*
X4712980Y-11820900D01*
X4712980Y-11820900D02*
X4684408Y-11820900D01*
X4684408Y-11820900D02*
X4665361Y-11830424D01*
X4665361Y-11830424D02*
X4655837Y-11839948D01*
X4865361Y-11954234D02*
X4846313Y-11944710D01*
X4846313Y-11944710D02*
X4836789Y-11935186D01*
X4836789Y-11935186D02*
X4827265Y-11916138D01*
X4827265Y-11916138D02*
X4827265Y-11858996D01*
X4827265Y-11858996D02*
X4836789Y-11839948D01*
X4836789Y-11839948D02*
X4846313Y-11830424D01*
X4846313Y-11830424D02*
X4865361Y-11820900D01*
X4865361Y-11820900D02*
X4893932Y-11820900D01*
X4893932Y-11820900D02*
X4912980Y-11830424D01*
X4912980Y-11830424D02*
X4922503Y-11839948D01*
X4922503Y-11839948D02*
X4932027Y-11858996D01*
X4932027Y-11858996D02*
X4932027Y-11916138D01*
X4932027Y-11916138D02*
X4922503Y-11935186D01*
X4922503Y-11935186D02*
X4912980Y-11944710D01*
X4912980Y-11944710D02*
X4893932Y-11954234D01*
X4893932Y-11954234D02*
X4865361Y-11954234D01*
X5046313Y-11954234D02*
X5027265Y-11944710D01*
X5027265Y-11944710D02*
X5017742Y-11925662D01*
X5017742Y-11925662D02*
X5017742Y-11754234D01*
X5198694Y-11944710D02*
X5179646Y-11954234D01*
X5179646Y-11954234D02*
X5141551Y-11954234D01*
X5141551Y-11954234D02*
X5122503Y-11944710D01*
X5122503Y-11944710D02*
X5112980Y-11925662D01*
X5112980Y-11925662D02*
X5112980Y-11849472D01*
X5112980Y-11849472D02*
X5122503Y-11830424D01*
X5122503Y-11830424D02*
X5141551Y-11820900D01*
X5141551Y-11820900D02*
X5179646Y-11820900D01*
X5179646Y-11820900D02*
X5198694Y-11830424D01*
X5198694Y-11830424D02*
X5208218Y-11849472D01*
X5208218Y-11849472D02*
X5208218Y-11868519D01*
X5208218Y-11868519D02*
X5112980Y-11887567D01*
X5284408Y-11944710D02*
X5303456Y-11954234D01*
X5303456Y-11954234D02*
X5341551Y-11954234D01*
X5341551Y-11954234D02*
X5360599Y-11944710D01*
X5360599Y-11944710D02*
X5370123Y-11925662D01*
X5370123Y-11925662D02*
X5370123Y-11916138D01*
X5370123Y-11916138D02*
X5360599Y-11897091D01*
X5360599Y-11897091D02*
X5341551Y-11887567D01*
X5341551Y-11887567D02*
X5312980Y-11887567D01*
X5312980Y-11887567D02*
X5293932Y-11878043D01*
X5293932Y-11878043D02*
X5284408Y-11858996D01*
X5284408Y-11858996D02*
X5284408Y-11849472D01*
X5284408Y-11849472D02*
X5293932Y-11830424D01*
X5293932Y-11830424D02*
X5312980Y-11820900D01*
X5312980Y-11820900D02*
X5341551Y-11820900D01*
X5341551Y-11820900D02*
X5360599Y-11830424D01*
X5436789Y-12030424D02*
X5446313Y-12020900D01*
X5446313Y-12020900D02*
X5465361Y-11992329D01*
X5465361Y-11992329D02*
X5474884Y-11973281D01*
X5474884Y-11973281D02*
X5484408Y-11944710D01*
X5484408Y-11944710D02*
X5493932Y-11897091D01*
X5493932Y-11897091D02*
X5493932Y-11858996D01*
X5493932Y-11858996D02*
X5484408Y-11811377D01*
X5484408Y-11811377D02*
X5474884Y-11782805D01*
X5474884Y-11782805D02*
X5465361Y-11763758D01*
X5465361Y-11763758D02*
X5446313Y-11735186D01*
X5446313Y-11735186D02*
X5436789Y-11725662D01*
X5798694Y-12030424D02*
X5789170Y-12020900D01*
X5789170Y-12020900D02*
X5770122Y-11992329D01*
X5770122Y-11992329D02*
X5760599Y-11973281D01*
X5760599Y-11973281D02*
X5751075Y-11944710D01*
X5751075Y-11944710D02*
X5741551Y-11897091D01*
X5741551Y-11897091D02*
X5741551Y-11858996D01*
X5741551Y-11858996D02*
X5751075Y-11811377D01*
X5751075Y-11811377D02*
X5760599Y-11782805D01*
X5760599Y-11782805D02*
X5770122Y-11763758D01*
X5770122Y-11763758D02*
X5789170Y-11735186D01*
X5789170Y-11735186D02*
X5798694Y-11725662D01*
X5874884Y-11820900D02*
X5874884Y-11954234D01*
X5874884Y-11839948D02*
X5884408Y-11830424D01*
X5884408Y-11830424D02*
X5903456Y-11820900D01*
X5903456Y-11820900D02*
X5932027Y-11820900D01*
X5932027Y-11820900D02*
X5951075Y-11830424D01*
X5951075Y-11830424D02*
X5960599Y-11849472D01*
X5960599Y-11849472D02*
X5960599Y-11954234D01*
X6084408Y-11954234D02*
X6065361Y-11944710D01*
X6065361Y-11944710D02*
X6055837Y-11935186D01*
X6055837Y-11935186D02*
X6046313Y-11916138D01*
X6046313Y-11916138D02*
X6046313Y-11858996D01*
X6046313Y-11858996D02*
X6055837Y-11839948D01*
X6055837Y-11839948D02*
X6065361Y-11830424D01*
X6065361Y-11830424D02*
X6084408Y-11820900D01*
X6084408Y-11820900D02*
X6112980Y-11820900D01*
X6112980Y-11820900D02*
X6132027Y-11830424D01*
X6132027Y-11830424D02*
X6141551Y-11839948D01*
X6141551Y-11839948D02*
X6151075Y-11858996D01*
X6151075Y-11858996D02*
X6151075Y-11916138D01*
X6151075Y-11916138D02*
X6141551Y-11935186D01*
X6141551Y-11935186D02*
X6132027Y-11944710D01*
X6132027Y-11944710D02*
X6112980Y-11954234D01*
X6112980Y-11954234D02*
X6084408Y-11954234D01*
X6208218Y-11820900D02*
X6284408Y-11820900D01*
X6236789Y-11754234D02*
X6236789Y-11925662D01*
X6236789Y-11925662D02*
X6246313Y-11944710D01*
X6246313Y-11944710D02*
X6265361Y-11954234D01*
X6265361Y-11954234D02*
X6284408Y-11954234D01*
X6503456Y-11820900D02*
X6503456Y-12020900D01*
X6503456Y-11830424D02*
X6522503Y-11820900D01*
X6522503Y-11820900D02*
X6560599Y-11820900D01*
X6560599Y-11820900D02*
X6579646Y-11830424D01*
X6579646Y-11830424D02*
X6589170Y-11839948D01*
X6589170Y-11839948D02*
X6598694Y-11858996D01*
X6598694Y-11858996D02*
X6598694Y-11916138D01*
X6598694Y-11916138D02*
X6589170Y-11935186D01*
X6589170Y-11935186D02*
X6579646Y-11944710D01*
X6579646Y-11944710D02*
X6560599Y-11954234D01*
X6560599Y-11954234D02*
X6522503Y-11954234D01*
X6522503Y-11954234D02*
X6503456Y-11944710D01*
X6712980Y-11954234D02*
X6693932Y-11944710D01*
X6693932Y-11944710D02*
X6684408Y-11925662D01*
X6684408Y-11925662D02*
X6684408Y-11754234D01*
X6874884Y-11954234D02*
X6874884Y-11849472D01*
X6874884Y-11849472D02*
X6865361Y-11830424D01*
X6865361Y-11830424D02*
X6846313Y-11820900D01*
X6846313Y-11820900D02*
X6808218Y-11820900D01*
X6808218Y-11820900D02*
X6789170Y-11830424D01*
X6874884Y-11944710D02*
X6855837Y-11954234D01*
X6855837Y-11954234D02*
X6808218Y-11954234D01*
X6808218Y-11954234D02*
X6789170Y-11944710D01*
X6789170Y-11944710D02*
X6779646Y-11925662D01*
X6779646Y-11925662D02*
X6779646Y-11906615D01*
X6779646Y-11906615D02*
X6789170Y-11887567D01*
X6789170Y-11887567D02*
X6808218Y-11878043D01*
X6808218Y-11878043D02*
X6855837Y-11878043D01*
X6855837Y-11878043D02*
X6874884Y-11868519D01*
X6941551Y-11820900D02*
X7017742Y-11820900D01*
X6970123Y-11754234D02*
X6970123Y-11925662D01*
X6970123Y-11925662D02*
X6979646Y-11944710D01*
X6979646Y-11944710D02*
X6998694Y-11954234D01*
X6998694Y-11954234D02*
X7017742Y-11954234D01*
X7160599Y-11944710D02*
X7141551Y-11954234D01*
X7141551Y-11954234D02*
X7103456Y-11954234D01*
X7103456Y-11954234D02*
X7084408Y-11944710D01*
X7084408Y-11944710D02*
X7074884Y-11925662D01*
X7074884Y-11925662D02*
X7074884Y-11849472D01*
X7074884Y-11849472D02*
X7084408Y-11830424D01*
X7084408Y-11830424D02*
X7103456Y-11820900D01*
X7103456Y-11820900D02*
X7141551Y-11820900D01*
X7141551Y-11820900D02*
X7160599Y-11830424D01*
X7160599Y-11830424D02*
X7170123Y-11849472D01*
X7170123Y-11849472D02*
X7170123Y-11868519D01*
X7170123Y-11868519D02*
X7074884Y-11887567D01*
X7341551Y-11954234D02*
X7341551Y-11754234D01*
X7341551Y-11944710D02*
X7322504Y-11954234D01*
X7322504Y-11954234D02*
X7284408Y-11954234D01*
X7284408Y-11954234D02*
X7265361Y-11944710D01*
X7265361Y-11944710D02*
X7255837Y-11935186D01*
X7255837Y-11935186D02*
X7246313Y-11916138D01*
X7246313Y-11916138D02*
X7246313Y-11858996D01*
X7246313Y-11858996D02*
X7255837Y-11839948D01*
X7255837Y-11839948D02*
X7265361Y-11830424D01*
X7265361Y-11830424D02*
X7284408Y-11820900D01*
X7284408Y-11820900D02*
X7322504Y-11820900D01*
X7322504Y-11820900D02*
X7341551Y-11830424D01*
X7417742Y-12030424D02*
X7427265Y-12020900D01*
X7427265Y-12020900D02*
X7446313Y-11992329D01*
X7446313Y-11992329D02*
X7455837Y-11973281D01*
X7455837Y-11973281D02*
X7465361Y-11944710D01*
X7465361Y-11944710D02*
X7474884Y-11897091D01*
X7474884Y-11897091D02*
X7474884Y-11858996D01*
X7474884Y-11858996D02*
X7465361Y-11811377D01*
X7465361Y-11811377D02*
X7455837Y-11782805D01*
X7455837Y-11782805D02*
X7446313Y-11763758D01*
X7446313Y-11763758D02*
X7427265Y-11735186D01*
X7427265Y-11735186D02*
X7417742Y-11725662D01*
X371250Y-12057750D02*
X371250Y-12257750D01*
X271250Y-12157750D02*
X471250Y-12157750D01*
X722503Y-12068281D02*
X732027Y-12058758D01*
X732027Y-12058758D02*
X751074Y-12049234D01*
X751074Y-12049234D02*
X798693Y-12049234D01*
X798693Y-12049234D02*
X817741Y-12058758D01*
X817741Y-12058758D02*
X827265Y-12068281D01*
X827265Y-12068281D02*
X836789Y-12087329D01*
X836789Y-12087329D02*
X836789Y-12106377D01*
X836789Y-12106377D02*
X827265Y-12134948D01*
X827265Y-12134948D02*
X712979Y-12249234D01*
X712979Y-12249234D02*
X836789Y-12249234D01*
X922503Y-12230186D02*
X932027Y-12239710D01*
X932027Y-12239710D02*
X922503Y-12249234D01*
X922503Y-12249234D02*
X912979Y-12239710D01*
X912979Y-12239710D02*
X922503Y-12230186D01*
X922503Y-12230186D02*
X922503Y-12249234D01*
X1008217Y-12068281D02*
X1017741Y-12058758D01*
X1017741Y-12058758D02*
X1036789Y-12049234D01*
X1036789Y-12049234D02*
X1084408Y-12049234D01*
X1084408Y-12049234D02*
X1103455Y-12058758D01*
X1103455Y-12058758D02*
X1112979Y-12068281D01*
X1112979Y-12068281D02*
X1122503Y-12087329D01*
X1122503Y-12087329D02*
X1122503Y-12106377D01*
X1122503Y-12106377D02*
X1112979Y-12134948D01*
X1112979Y-12134948D02*
X998693Y-12249234D01*
X998693Y-12249234D02*
X1122503Y-12249234D01*
X1246313Y-12049234D02*
X1265360Y-12049234D01*
X1265360Y-12049234D02*
X1284408Y-12058758D01*
X1284408Y-12058758D02*
X1293932Y-12068281D01*
X1293932Y-12068281D02*
X1303455Y-12087329D01*
X1303455Y-12087329D02*
X1312979Y-12125424D01*
X1312979Y-12125424D02*
X1312979Y-12173043D01*
X1312979Y-12173043D02*
X1303455Y-12211138D01*
X1303455Y-12211138D02*
X1293932Y-12230186D01*
X1293932Y-12230186D02*
X1284408Y-12239710D01*
X1284408Y-12239710D02*
X1265360Y-12249234D01*
X1265360Y-12249234D02*
X1246313Y-12249234D01*
X1246313Y-12249234D02*
X1227265Y-12239710D01*
X1227265Y-12239710D02*
X1217741Y-12230186D01*
X1217741Y-12230186D02*
X1208217Y-12211138D01*
X1208217Y-12211138D02*
X1198694Y-12173043D01*
X1198694Y-12173043D02*
X1198694Y-12125424D01*
X1198694Y-12125424D02*
X1208217Y-12087329D01*
X1208217Y-12087329D02*
X1217741Y-12068281D01*
X1217741Y-12068281D02*
X1227265Y-12058758D01*
X1227265Y-12058758D02*
X1246313Y-12049234D01*
X1436789Y-12049234D02*
X1455836Y-12049234D01*
X1455836Y-12049234D02*
X1474884Y-12058758D01*
X1474884Y-12058758D02*
X1484408Y-12068281D01*
X1484408Y-12068281D02*
X1493932Y-12087329D01*
X1493932Y-12087329D02*
X1503455Y-12125424D01*
X1503455Y-12125424D02*
X1503455Y-12173043D01*
X1503455Y-12173043D02*
X1493932Y-12211138D01*
X1493932Y-12211138D02*
X1484408Y-12230186D01*
X1484408Y-12230186D02*
X1474884Y-12239710D01*
X1474884Y-12239710D02*
X1455836Y-12249234D01*
X1455836Y-12249234D02*
X1436789Y-12249234D01*
X1436789Y-12249234D02*
X1417741Y-12239710D01*
X1417741Y-12239710D02*
X1408217Y-12230186D01*
X1408217Y-12230186D02*
X1398693Y-12211138D01*
X1398693Y-12211138D02*
X1389170Y-12173043D01*
X1389170Y-12173043D02*
X1389170Y-12125424D01*
X1389170Y-12125424D02*
X1398693Y-12087329D01*
X1398693Y-12087329D02*
X1408217Y-12068281D01*
X1408217Y-12068281D02*
X1417741Y-12058758D01*
X1417741Y-12058758D02*
X1436789Y-12049234D01*
X1589170Y-12249234D02*
X1589170Y-12115900D01*
X1589170Y-12134948D02*
X1598693Y-12125424D01*
X1598693Y-12125424D02*
X1617741Y-12115900D01*
X1617741Y-12115900D02*
X1646313Y-12115900D01*
X1646313Y-12115900D02*
X1665360Y-12125424D01*
X1665360Y-12125424D02*
X1674884Y-12144472D01*
X1674884Y-12144472D02*
X1674884Y-12249234D01*
X1674884Y-12144472D02*
X1684408Y-12125424D01*
X1684408Y-12125424D02*
X1703455Y-12115900D01*
X1703455Y-12115900D02*
X1732027Y-12115900D01*
X1732027Y-12115900D02*
X1751074Y-12125424D01*
X1751074Y-12125424D02*
X1760598Y-12144472D01*
X1760598Y-12144472D02*
X1760598Y-12249234D01*
X1855836Y-12249234D02*
X1855836Y-12115900D01*
X1855836Y-12134948D02*
X1865360Y-12125424D01*
X1865360Y-12125424D02*
X1884408Y-12115900D01*
X1884408Y-12115900D02*
X1912979Y-12115900D01*
X1912979Y-12115900D02*
X1932027Y-12125424D01*
X1932027Y-12125424D02*
X1941551Y-12144472D01*
X1941551Y-12144472D02*
X1941551Y-12249234D01*
X1941551Y-12144472D02*
X1951074Y-12125424D01*
X1951074Y-12125424D02*
X1970122Y-12115900D01*
X1970122Y-12115900D02*
X1998693Y-12115900D01*
X1998693Y-12115900D02*
X2017741Y-12125424D01*
X2017741Y-12125424D02*
X2027265Y-12144472D01*
X2027265Y-12144472D02*
X2027265Y-12249234D01*
X2417741Y-12039710D02*
X2246313Y-12296853D01*
X2674884Y-12049234D02*
X2693932Y-12049234D01*
X2693932Y-12049234D02*
X2712979Y-12058758D01*
X2712979Y-12058758D02*
X2722503Y-12068281D01*
X2722503Y-12068281D02*
X2732027Y-12087329D01*
X2732027Y-12087329D02*
X2741551Y-12125424D01*
X2741551Y-12125424D02*
X2741551Y-12173043D01*
X2741551Y-12173043D02*
X2732027Y-12211138D01*
X2732027Y-12211138D02*
X2722503Y-12230186D01*
X2722503Y-12230186D02*
X2712979Y-12239710D01*
X2712979Y-12239710D02*
X2693932Y-12249234D01*
X2693932Y-12249234D02*
X2674884Y-12249234D01*
X2674884Y-12249234D02*
X2655837Y-12239710D01*
X2655837Y-12239710D02*
X2646313Y-12230186D01*
X2646313Y-12230186D02*
X2636789Y-12211138D01*
X2636789Y-12211138D02*
X2627265Y-12173043D01*
X2627265Y-12173043D02*
X2627265Y-12125424D01*
X2627265Y-12125424D02*
X2636789Y-12087329D01*
X2636789Y-12087329D02*
X2646313Y-12068281D01*
X2646313Y-12068281D02*
X2655837Y-12058758D01*
X2655837Y-12058758D02*
X2674884Y-12049234D01*
X2827265Y-12230186D02*
X2836789Y-12239710D01*
X2836789Y-12239710D02*
X2827265Y-12249234D01*
X2827265Y-12249234D02*
X2817741Y-12239710D01*
X2817741Y-12239710D02*
X2827265Y-12230186D01*
X2827265Y-12230186D02*
X2827265Y-12249234D01*
X2960598Y-12049234D02*
X2979646Y-12049234D01*
X2979646Y-12049234D02*
X2998694Y-12058758D01*
X2998694Y-12058758D02*
X3008217Y-12068281D01*
X3008217Y-12068281D02*
X3017741Y-12087329D01*
X3017741Y-12087329D02*
X3027265Y-12125424D01*
X3027265Y-12125424D02*
X3027265Y-12173043D01*
X3027265Y-12173043D02*
X3017741Y-12211138D01*
X3017741Y-12211138D02*
X3008217Y-12230186D01*
X3008217Y-12230186D02*
X2998694Y-12239710D01*
X2998694Y-12239710D02*
X2979646Y-12249234D01*
X2979646Y-12249234D02*
X2960598Y-12249234D01*
X2960598Y-12249234D02*
X2941551Y-12239710D01*
X2941551Y-12239710D02*
X2932027Y-12230186D01*
X2932027Y-12230186D02*
X2922503Y-12211138D01*
X2922503Y-12211138D02*
X2912979Y-12173043D01*
X2912979Y-12173043D02*
X2912979Y-12125424D01*
X2912979Y-12125424D02*
X2922503Y-12087329D01*
X2922503Y-12087329D02*
X2932027Y-12068281D01*
X2932027Y-12068281D02*
X2941551Y-12058758D01*
X2941551Y-12058758D02*
X2960598Y-12049234D01*
X3141551Y-12134948D02*
X3122503Y-12125424D01*
X3122503Y-12125424D02*
X3112979Y-12115900D01*
X3112979Y-12115900D02*
X3103456Y-12096853D01*
X3103456Y-12096853D02*
X3103456Y-12087329D01*
X3103456Y-12087329D02*
X3112979Y-12068281D01*
X3112979Y-12068281D02*
X3122503Y-12058758D01*
X3122503Y-12058758D02*
X3141551Y-12049234D01*
X3141551Y-12049234D02*
X3179646Y-12049234D01*
X3179646Y-12049234D02*
X3198694Y-12058758D01*
X3198694Y-12058758D02*
X3208217Y-12068281D01*
X3208217Y-12068281D02*
X3217741Y-12087329D01*
X3217741Y-12087329D02*
X3217741Y-12096853D01*
X3217741Y-12096853D02*
X3208217Y-12115900D01*
X3208217Y-12115900D02*
X3198694Y-12125424D01*
X3198694Y-12125424D02*
X3179646Y-12134948D01*
X3179646Y-12134948D02*
X3141551Y-12134948D01*
X3141551Y-12134948D02*
X3122503Y-12144472D01*
X3122503Y-12144472D02*
X3112979Y-12153996D01*
X3112979Y-12153996D02*
X3103456Y-12173043D01*
X3103456Y-12173043D02*
X3103456Y-12211138D01*
X3103456Y-12211138D02*
X3112979Y-12230186D01*
X3112979Y-12230186D02*
X3122503Y-12239710D01*
X3122503Y-12239710D02*
X3141551Y-12249234D01*
X3141551Y-12249234D02*
X3179646Y-12249234D01*
X3179646Y-12249234D02*
X3198694Y-12239710D01*
X3198694Y-12239710D02*
X3208217Y-12230186D01*
X3208217Y-12230186D02*
X3217741Y-12211138D01*
X3217741Y-12211138D02*
X3217741Y-12173043D01*
X3217741Y-12173043D02*
X3208217Y-12153996D01*
X3208217Y-12153996D02*
X3198694Y-12144472D01*
X3198694Y-12144472D02*
X3179646Y-12134948D01*
X3389170Y-12049234D02*
X3351075Y-12049234D01*
X3351075Y-12049234D02*
X3332027Y-12058758D01*
X3332027Y-12058758D02*
X3322503Y-12068281D01*
X3322503Y-12068281D02*
X3303456Y-12096853D01*
X3303456Y-12096853D02*
X3293932Y-12134948D01*
X3293932Y-12134948D02*
X3293932Y-12211138D01*
X3293932Y-12211138D02*
X3303456Y-12230186D01*
X3303456Y-12230186D02*
X3312979Y-12239710D01*
X3312979Y-12239710D02*
X3332027Y-12249234D01*
X3332027Y-12249234D02*
X3370122Y-12249234D01*
X3370122Y-12249234D02*
X3389170Y-12239710D01*
X3389170Y-12239710D02*
X3398694Y-12230186D01*
X3398694Y-12230186D02*
X3408217Y-12211138D01*
X3408217Y-12211138D02*
X3408217Y-12163519D01*
X3408217Y-12163519D02*
X3398694Y-12144472D01*
X3398694Y-12144472D02*
X3389170Y-12134948D01*
X3389170Y-12134948D02*
X3370122Y-12125424D01*
X3370122Y-12125424D02*
X3332027Y-12125424D01*
X3332027Y-12125424D02*
X3312979Y-12134948D01*
X3312979Y-12134948D02*
X3303456Y-12144472D01*
X3303456Y-12144472D02*
X3293932Y-12163519D01*
X3579646Y-12049234D02*
X3541551Y-12049234D01*
X3541551Y-12049234D02*
X3522503Y-12058758D01*
X3522503Y-12058758D02*
X3512979Y-12068281D01*
X3512979Y-12068281D02*
X3493932Y-12096853D01*
X3493932Y-12096853D02*
X3484408Y-12134948D01*
X3484408Y-12134948D02*
X3484408Y-12211138D01*
X3484408Y-12211138D02*
X3493932Y-12230186D01*
X3493932Y-12230186D02*
X3503456Y-12239710D01*
X3503456Y-12239710D02*
X3522503Y-12249234D01*
X3522503Y-12249234D02*
X3560598Y-12249234D01*
X3560598Y-12249234D02*
X3579646Y-12239710D01*
X3579646Y-12239710D02*
X3589170Y-12230186D01*
X3589170Y-12230186D02*
X3598694Y-12211138D01*
X3598694Y-12211138D02*
X3598694Y-12163519D01*
X3598694Y-12163519D02*
X3589170Y-12144472D01*
X3589170Y-12144472D02*
X3579646Y-12134948D01*
X3579646Y-12134948D02*
X3560598Y-12125424D01*
X3560598Y-12125424D02*
X3522503Y-12125424D01*
X3522503Y-12125424D02*
X3503456Y-12134948D01*
X3503456Y-12134948D02*
X3493932Y-12144472D01*
X3493932Y-12144472D02*
X3484408Y-12163519D01*
X3674884Y-12049234D02*
X3674884Y-12087329D01*
X3751075Y-12049234D02*
X3751075Y-12087329D01*
X4046313Y-12325424D02*
X4036789Y-12315900D01*
X4036789Y-12315900D02*
X4017741Y-12287329D01*
X4017741Y-12287329D02*
X4008218Y-12268281D01*
X4008218Y-12268281D02*
X3998694Y-12239710D01*
X3998694Y-12239710D02*
X3989170Y-12192091D01*
X3989170Y-12192091D02*
X3989170Y-12153996D01*
X3989170Y-12153996D02*
X3998694Y-12106377D01*
X3998694Y-12106377D02*
X4008218Y-12077805D01*
X4008218Y-12077805D02*
X4017741Y-12058758D01*
X4017741Y-12058758D02*
X4036789Y-12030186D01*
X4036789Y-12030186D02*
X4046313Y-12020662D01*
X4227265Y-12249234D02*
X4112979Y-12249234D01*
X4170122Y-12249234D02*
X4170122Y-12049234D01*
X4170122Y-12049234D02*
X4151075Y-12077805D01*
X4151075Y-12077805D02*
X4132027Y-12096853D01*
X4132027Y-12096853D02*
X4112979Y-12106377D01*
X4398694Y-12049234D02*
X4360599Y-12049234D01*
X4360599Y-12049234D02*
X4341551Y-12058758D01*
X4341551Y-12058758D02*
X4332027Y-12068281D01*
X4332027Y-12068281D02*
X4312980Y-12096853D01*
X4312980Y-12096853D02*
X4303456Y-12134948D01*
X4303456Y-12134948D02*
X4303456Y-12211138D01*
X4303456Y-12211138D02*
X4312980Y-12230186D01*
X4312980Y-12230186D02*
X4322503Y-12239710D01*
X4322503Y-12239710D02*
X4341551Y-12249234D01*
X4341551Y-12249234D02*
X4379646Y-12249234D01*
X4379646Y-12249234D02*
X4398694Y-12239710D01*
X4398694Y-12239710D02*
X4408218Y-12230186D01*
X4408218Y-12230186D02*
X4417741Y-12211138D01*
X4417741Y-12211138D02*
X4417741Y-12163519D01*
X4417741Y-12163519D02*
X4408218Y-12144472D01*
X4408218Y-12144472D02*
X4398694Y-12134948D01*
X4398694Y-12134948D02*
X4379646Y-12125424D01*
X4379646Y-12125424D02*
X4341551Y-12125424D01*
X4341551Y-12125424D02*
X4322503Y-12134948D01*
X4322503Y-12134948D02*
X4312980Y-12144472D01*
X4312980Y-12144472D02*
X4303456Y-12163519D01*
X4655837Y-12249234D02*
X4655837Y-12049234D01*
X4741551Y-12249234D02*
X4741551Y-12144472D01*
X4741551Y-12144472D02*
X4732027Y-12125424D01*
X4732027Y-12125424D02*
X4712980Y-12115900D01*
X4712980Y-12115900D02*
X4684408Y-12115900D01*
X4684408Y-12115900D02*
X4665361Y-12125424D01*
X4665361Y-12125424D02*
X4655837Y-12134948D01*
X4865361Y-12249234D02*
X4846313Y-12239710D01*
X4846313Y-12239710D02*
X4836789Y-12230186D01*
X4836789Y-12230186D02*
X4827265Y-12211138D01*
X4827265Y-12211138D02*
X4827265Y-12153996D01*
X4827265Y-12153996D02*
X4836789Y-12134948D01*
X4836789Y-12134948D02*
X4846313Y-12125424D01*
X4846313Y-12125424D02*
X4865361Y-12115900D01*
X4865361Y-12115900D02*
X4893932Y-12115900D01*
X4893932Y-12115900D02*
X4912980Y-12125424D01*
X4912980Y-12125424D02*
X4922503Y-12134948D01*
X4922503Y-12134948D02*
X4932027Y-12153996D01*
X4932027Y-12153996D02*
X4932027Y-12211138D01*
X4932027Y-12211138D02*
X4922503Y-12230186D01*
X4922503Y-12230186D02*
X4912980Y-12239710D01*
X4912980Y-12239710D02*
X4893932Y-12249234D01*
X4893932Y-12249234D02*
X4865361Y-12249234D01*
X5046313Y-12249234D02*
X5027265Y-12239710D01*
X5027265Y-12239710D02*
X5017742Y-12220662D01*
X5017742Y-12220662D02*
X5017742Y-12049234D01*
X5198694Y-12239710D02*
X5179646Y-12249234D01*
X5179646Y-12249234D02*
X5141551Y-12249234D01*
X5141551Y-12249234D02*
X5122503Y-12239710D01*
X5122503Y-12239710D02*
X5112980Y-12220662D01*
X5112980Y-12220662D02*
X5112980Y-12144472D01*
X5112980Y-12144472D02*
X5122503Y-12125424D01*
X5122503Y-12125424D02*
X5141551Y-12115900D01*
X5141551Y-12115900D02*
X5179646Y-12115900D01*
X5179646Y-12115900D02*
X5198694Y-12125424D01*
X5198694Y-12125424D02*
X5208218Y-12144472D01*
X5208218Y-12144472D02*
X5208218Y-12163519D01*
X5208218Y-12163519D02*
X5112980Y-12182567D01*
X5284408Y-12239710D02*
X5303456Y-12249234D01*
X5303456Y-12249234D02*
X5341551Y-12249234D01*
X5341551Y-12249234D02*
X5360599Y-12239710D01*
X5360599Y-12239710D02*
X5370123Y-12220662D01*
X5370123Y-12220662D02*
X5370123Y-12211138D01*
X5370123Y-12211138D02*
X5360599Y-12192091D01*
X5360599Y-12192091D02*
X5341551Y-12182567D01*
X5341551Y-12182567D02*
X5312980Y-12182567D01*
X5312980Y-12182567D02*
X5293932Y-12173043D01*
X5293932Y-12173043D02*
X5284408Y-12153996D01*
X5284408Y-12153996D02*
X5284408Y-12144472D01*
X5284408Y-12144472D02*
X5293932Y-12125424D01*
X5293932Y-12125424D02*
X5312980Y-12115900D01*
X5312980Y-12115900D02*
X5341551Y-12115900D01*
X5341551Y-12115900D02*
X5360599Y-12125424D01*
X5436789Y-12325424D02*
X5446313Y-12315900D01*
X5446313Y-12315900D02*
X5465361Y-12287329D01*
X5465361Y-12287329D02*
X5474884Y-12268281D01*
X5474884Y-12268281D02*
X5484408Y-12239710D01*
X5484408Y-12239710D02*
X5493932Y-12192091D01*
X5493932Y-12192091D02*
X5493932Y-12153996D01*
X5493932Y-12153996D02*
X5484408Y-12106377D01*
X5484408Y-12106377D02*
X5474884Y-12077805D01*
X5474884Y-12077805D02*
X5465361Y-12058758D01*
X5465361Y-12058758D02*
X5446313Y-12030186D01*
X5446313Y-12030186D02*
X5436789Y-12020662D01*
X5798694Y-12325424D02*
X5789170Y-12315900D01*
X5789170Y-12315900D02*
X5770122Y-12287329D01*
X5770122Y-12287329D02*
X5760599Y-12268281D01*
X5760599Y-12268281D02*
X5751075Y-12239710D01*
X5751075Y-12239710D02*
X5741551Y-12192091D01*
X5741551Y-12192091D02*
X5741551Y-12153996D01*
X5741551Y-12153996D02*
X5751075Y-12106377D01*
X5751075Y-12106377D02*
X5760599Y-12077805D01*
X5760599Y-12077805D02*
X5770122Y-12058758D01*
X5770122Y-12058758D02*
X5789170Y-12030186D01*
X5789170Y-12030186D02*
X5798694Y-12020662D01*
X5874884Y-12115900D02*
X5874884Y-12249234D01*
X5874884Y-12134948D02*
X5884408Y-12125424D01*
X5884408Y-12125424D02*
X5903456Y-12115900D01*
X5903456Y-12115900D02*
X5932027Y-12115900D01*
X5932027Y-12115900D02*
X5951075Y-12125424D01*
X5951075Y-12125424D02*
X5960599Y-12144472D01*
X5960599Y-12144472D02*
X5960599Y-12249234D01*
X6084408Y-12249234D02*
X6065361Y-12239710D01*
X6065361Y-12239710D02*
X6055837Y-12230186D01*
X6055837Y-12230186D02*
X6046313Y-12211138D01*
X6046313Y-12211138D02*
X6046313Y-12153996D01*
X6046313Y-12153996D02*
X6055837Y-12134948D01*
X6055837Y-12134948D02*
X6065361Y-12125424D01*
X6065361Y-12125424D02*
X6084408Y-12115900D01*
X6084408Y-12115900D02*
X6112980Y-12115900D01*
X6112980Y-12115900D02*
X6132027Y-12125424D01*
X6132027Y-12125424D02*
X6141551Y-12134948D01*
X6141551Y-12134948D02*
X6151075Y-12153996D01*
X6151075Y-12153996D02*
X6151075Y-12211138D01*
X6151075Y-12211138D02*
X6141551Y-12230186D01*
X6141551Y-12230186D02*
X6132027Y-12239710D01*
X6132027Y-12239710D02*
X6112980Y-12249234D01*
X6112980Y-12249234D02*
X6084408Y-12249234D01*
X6208218Y-12115900D02*
X6284408Y-12115900D01*
X6236789Y-12049234D02*
X6236789Y-12220662D01*
X6236789Y-12220662D02*
X6246313Y-12239710D01*
X6246313Y-12239710D02*
X6265361Y-12249234D01*
X6265361Y-12249234D02*
X6284408Y-12249234D01*
X6503456Y-12115900D02*
X6503456Y-12315900D01*
X6503456Y-12125424D02*
X6522503Y-12115900D01*
X6522503Y-12115900D02*
X6560599Y-12115900D01*
X6560599Y-12115900D02*
X6579646Y-12125424D01*
X6579646Y-12125424D02*
X6589170Y-12134948D01*
X6589170Y-12134948D02*
X6598694Y-12153996D01*
X6598694Y-12153996D02*
X6598694Y-12211138D01*
X6598694Y-12211138D02*
X6589170Y-12230186D01*
X6589170Y-12230186D02*
X6579646Y-12239710D01*
X6579646Y-12239710D02*
X6560599Y-12249234D01*
X6560599Y-12249234D02*
X6522503Y-12249234D01*
X6522503Y-12249234D02*
X6503456Y-12239710D01*
X6712980Y-12249234D02*
X6693932Y-12239710D01*
X6693932Y-12239710D02*
X6684408Y-12220662D01*
X6684408Y-12220662D02*
X6684408Y-12049234D01*
X6874884Y-12249234D02*
X6874884Y-12144472D01*
X6874884Y-12144472D02*
X6865361Y-12125424D01*
X6865361Y-12125424D02*
X6846313Y-12115900D01*
X6846313Y-12115900D02*
X6808218Y-12115900D01*
X6808218Y-12115900D02*
X6789170Y-12125424D01*
X6874884Y-12239710D02*
X6855837Y-12249234D01*
X6855837Y-12249234D02*
X6808218Y-12249234D01*
X6808218Y-12249234D02*
X6789170Y-12239710D01*
X6789170Y-12239710D02*
X6779646Y-12220662D01*
X6779646Y-12220662D02*
X6779646Y-12201615D01*
X6779646Y-12201615D02*
X6789170Y-12182567D01*
X6789170Y-12182567D02*
X6808218Y-12173043D01*
X6808218Y-12173043D02*
X6855837Y-12173043D01*
X6855837Y-12173043D02*
X6874884Y-12163519D01*
X6941551Y-12115900D02*
X7017742Y-12115900D01*
X6970123Y-12049234D02*
X6970123Y-12220662D01*
X6970123Y-12220662D02*
X6979646Y-12239710D01*
X6979646Y-12239710D02*
X6998694Y-12249234D01*
X6998694Y-12249234D02*
X7017742Y-12249234D01*
X7160599Y-12239710D02*
X7141551Y-12249234D01*
X7141551Y-12249234D02*
X7103456Y-12249234D01*
X7103456Y-12249234D02*
X7084408Y-12239710D01*
X7084408Y-12239710D02*
X7074884Y-12220662D01*
X7074884Y-12220662D02*
X7074884Y-12144472D01*
X7074884Y-12144472D02*
X7084408Y-12125424D01*
X7084408Y-12125424D02*
X7103456Y-12115900D01*
X7103456Y-12115900D02*
X7141551Y-12115900D01*
X7141551Y-12115900D02*
X7160599Y-12125424D01*
X7160599Y-12125424D02*
X7170123Y-12144472D01*
X7170123Y-12144472D02*
X7170123Y-12163519D01*
X7170123Y-12163519D02*
X7074884Y-12182567D01*
X7341551Y-12249234D02*
X7341551Y-12049234D01*
X7341551Y-12239710D02*
X7322504Y-12249234D01*
X7322504Y-12249234D02*
X7284408Y-12249234D01*
X7284408Y-12249234D02*
X7265361Y-12239710D01*
X7265361Y-12239710D02*
X7255837Y-12230186D01*
X7255837Y-12230186D02*
X7246313Y-12211138D01*
X7246313Y-12211138D02*
X7246313Y-12153996D01*
X7246313Y-12153996D02*
X7255837Y-12134948D01*
X7255837Y-12134948D02*
X7265361Y-12125424D01*
X7265361Y-12125424D02*
X7284408Y-12115900D01*
X7284408Y-12115900D02*
X7322504Y-12115900D01*
X7322504Y-12115900D02*
X7341551Y-12125424D01*
X7417742Y-12325424D02*
X7427265Y-12315900D01*
X7427265Y-12315900D02*
X7446313Y-12287329D01*
X7446313Y-12287329D02*
X7455837Y-12268281D01*
X7455837Y-12268281D02*
X7465361Y-12239710D01*
X7465361Y-12239710D02*
X7474884Y-12192091D01*
X7474884Y-12192091D02*
X7474884Y-12153996D01*
X7474884Y-12153996D02*
X7465361Y-12106377D01*
X7465361Y-12106377D02*
X7455837Y-12077805D01*
X7455837Y-12077805D02*
X7446313Y-12058758D01*
X7446313Y-12058758D02*
X7427265Y-12030186D01*
X7427265Y-12030186D02*
X7417742Y-12020662D01*
X441961Y-12548461D02*
X441961Y-12407039D01*
X300539Y-12407039D01*
X300539Y-12548461D01*
X441961Y-12548461D01*
X817741Y-12435900D02*
X817741Y-12569234D01*
X770122Y-12359710D02*
X722503Y-12502567D01*
X722503Y-12502567D02*
X846312Y-12502567D01*
X922503Y-12550186D02*
X932027Y-12559710D01*
X932027Y-12559710D02*
X922503Y-12569234D01*
X922503Y-12569234D02*
X912979Y-12559710D01*
X912979Y-12559710D02*
X922503Y-12550186D01*
X922503Y-12550186D02*
X922503Y-12569234D01*
X1055836Y-12369234D02*
X1074884Y-12369234D01*
X1074884Y-12369234D02*
X1093932Y-12378758D01*
X1093932Y-12378758D02*
X1103455Y-12388281D01*
X1103455Y-12388281D02*
X1112979Y-12407329D01*
X1112979Y-12407329D02*
X1122503Y-12445424D01*
X1122503Y-12445424D02*
X1122503Y-12493043D01*
X1122503Y-12493043D02*
X1112979Y-12531138D01*
X1112979Y-12531138D02*
X1103455Y-12550186D01*
X1103455Y-12550186D02*
X1093932Y-12559710D01*
X1093932Y-12559710D02*
X1074884Y-12569234D01*
X1074884Y-12569234D02*
X1055836Y-12569234D01*
X1055836Y-12569234D02*
X1036789Y-12559710D01*
X1036789Y-12559710D02*
X1027265Y-12550186D01*
X1027265Y-12550186D02*
X1017741Y-12531138D01*
X1017741Y-12531138D02*
X1008217Y-12493043D01*
X1008217Y-12493043D02*
X1008217Y-12445424D01*
X1008217Y-12445424D02*
X1017741Y-12407329D01*
X1017741Y-12407329D02*
X1027265Y-12388281D01*
X1027265Y-12388281D02*
X1036789Y-12378758D01*
X1036789Y-12378758D02*
X1055836Y-12369234D01*
X1246313Y-12369234D02*
X1265360Y-12369234D01*
X1265360Y-12369234D02*
X1284408Y-12378758D01*
X1284408Y-12378758D02*
X1293932Y-12388281D01*
X1293932Y-12388281D02*
X1303455Y-12407329D01*
X1303455Y-12407329D02*
X1312979Y-12445424D01*
X1312979Y-12445424D02*
X1312979Y-12493043D01*
X1312979Y-12493043D02*
X1303455Y-12531138D01*
X1303455Y-12531138D02*
X1293932Y-12550186D01*
X1293932Y-12550186D02*
X1284408Y-12559710D01*
X1284408Y-12559710D02*
X1265360Y-12569234D01*
X1265360Y-12569234D02*
X1246313Y-12569234D01*
X1246313Y-12569234D02*
X1227265Y-12559710D01*
X1227265Y-12559710D02*
X1217741Y-12550186D01*
X1217741Y-12550186D02*
X1208217Y-12531138D01*
X1208217Y-12531138D02*
X1198694Y-12493043D01*
X1198694Y-12493043D02*
X1198694Y-12445424D01*
X1198694Y-12445424D02*
X1208217Y-12407329D01*
X1208217Y-12407329D02*
X1217741Y-12388281D01*
X1217741Y-12388281D02*
X1227265Y-12378758D01*
X1227265Y-12378758D02*
X1246313Y-12369234D01*
X1436789Y-12369234D02*
X1455836Y-12369234D01*
X1455836Y-12369234D02*
X1474884Y-12378758D01*
X1474884Y-12378758D02*
X1484408Y-12388281D01*
X1484408Y-12388281D02*
X1493932Y-12407329D01*
X1493932Y-12407329D02*
X1503455Y-12445424D01*
X1503455Y-12445424D02*
X1503455Y-12493043D01*
X1503455Y-12493043D02*
X1493932Y-12531138D01*
X1493932Y-12531138D02*
X1484408Y-12550186D01*
X1484408Y-12550186D02*
X1474884Y-12559710D01*
X1474884Y-12559710D02*
X1455836Y-12569234D01*
X1455836Y-12569234D02*
X1436789Y-12569234D01*
X1436789Y-12569234D02*
X1417741Y-12559710D01*
X1417741Y-12559710D02*
X1408217Y-12550186D01*
X1408217Y-12550186D02*
X1398693Y-12531138D01*
X1398693Y-12531138D02*
X1389170Y-12493043D01*
X1389170Y-12493043D02*
X1389170Y-12445424D01*
X1389170Y-12445424D02*
X1398693Y-12407329D01*
X1398693Y-12407329D02*
X1408217Y-12388281D01*
X1408217Y-12388281D02*
X1417741Y-12378758D01*
X1417741Y-12378758D02*
X1436789Y-12369234D01*
X1589170Y-12569234D02*
X1589170Y-12435900D01*
X1589170Y-12454948D02*
X1598693Y-12445424D01*
X1598693Y-12445424D02*
X1617741Y-12435900D01*
X1617741Y-12435900D02*
X1646313Y-12435900D01*
X1646313Y-12435900D02*
X1665360Y-12445424D01*
X1665360Y-12445424D02*
X1674884Y-12464472D01*
X1674884Y-12464472D02*
X1674884Y-12569234D01*
X1674884Y-12464472D02*
X1684408Y-12445424D01*
X1684408Y-12445424D02*
X1703455Y-12435900D01*
X1703455Y-12435900D02*
X1732027Y-12435900D01*
X1732027Y-12435900D02*
X1751074Y-12445424D01*
X1751074Y-12445424D02*
X1760598Y-12464472D01*
X1760598Y-12464472D02*
X1760598Y-12569234D01*
X1855836Y-12569234D02*
X1855836Y-12435900D01*
X1855836Y-12454948D02*
X1865360Y-12445424D01*
X1865360Y-12445424D02*
X1884408Y-12435900D01*
X1884408Y-12435900D02*
X1912979Y-12435900D01*
X1912979Y-12435900D02*
X1932027Y-12445424D01*
X1932027Y-12445424D02*
X1941551Y-12464472D01*
X1941551Y-12464472D02*
X1941551Y-12569234D01*
X1941551Y-12464472D02*
X1951074Y-12445424D01*
X1951074Y-12445424D02*
X1970122Y-12435900D01*
X1970122Y-12435900D02*
X1998693Y-12435900D01*
X1998693Y-12435900D02*
X2017741Y-12445424D01*
X2017741Y-12445424D02*
X2027265Y-12464472D01*
X2027265Y-12464472D02*
X2027265Y-12569234D01*
X2417741Y-12359710D02*
X2246313Y-12616853D01*
X2674884Y-12369234D02*
X2693932Y-12369234D01*
X2693932Y-12369234D02*
X2712979Y-12378758D01*
X2712979Y-12378758D02*
X2722503Y-12388281D01*
X2722503Y-12388281D02*
X2732027Y-12407329D01*
X2732027Y-12407329D02*
X2741551Y-12445424D01*
X2741551Y-12445424D02*
X2741551Y-12493043D01*
X2741551Y-12493043D02*
X2732027Y-12531138D01*
X2732027Y-12531138D02*
X2722503Y-12550186D01*
X2722503Y-12550186D02*
X2712979Y-12559710D01*
X2712979Y-12559710D02*
X2693932Y-12569234D01*
X2693932Y-12569234D02*
X2674884Y-12569234D01*
X2674884Y-12569234D02*
X2655837Y-12559710D01*
X2655837Y-12559710D02*
X2646313Y-12550186D01*
X2646313Y-12550186D02*
X2636789Y-12531138D01*
X2636789Y-12531138D02*
X2627265Y-12493043D01*
X2627265Y-12493043D02*
X2627265Y-12445424D01*
X2627265Y-12445424D02*
X2636789Y-12407329D01*
X2636789Y-12407329D02*
X2646313Y-12388281D01*
X2646313Y-12388281D02*
X2655837Y-12378758D01*
X2655837Y-12378758D02*
X2674884Y-12369234D01*
X2827265Y-12550186D02*
X2836789Y-12559710D01*
X2836789Y-12559710D02*
X2827265Y-12569234D01*
X2827265Y-12569234D02*
X2817741Y-12559710D01*
X2817741Y-12559710D02*
X2827265Y-12550186D01*
X2827265Y-12550186D02*
X2827265Y-12569234D01*
X3027265Y-12569234D02*
X2912979Y-12569234D01*
X2970122Y-12569234D02*
X2970122Y-12369234D01*
X2970122Y-12369234D02*
X2951075Y-12397805D01*
X2951075Y-12397805D02*
X2932027Y-12416853D01*
X2932027Y-12416853D02*
X2912979Y-12426377D01*
X3208217Y-12369234D02*
X3112979Y-12369234D01*
X3112979Y-12369234D02*
X3103456Y-12464472D01*
X3103456Y-12464472D02*
X3112979Y-12454948D01*
X3112979Y-12454948D02*
X3132027Y-12445424D01*
X3132027Y-12445424D02*
X3179646Y-12445424D01*
X3179646Y-12445424D02*
X3198694Y-12454948D01*
X3198694Y-12454948D02*
X3208217Y-12464472D01*
X3208217Y-12464472D02*
X3217741Y-12483519D01*
X3217741Y-12483519D02*
X3217741Y-12531138D01*
X3217741Y-12531138D02*
X3208217Y-12550186D01*
X3208217Y-12550186D02*
X3198694Y-12559710D01*
X3198694Y-12559710D02*
X3179646Y-12569234D01*
X3179646Y-12569234D02*
X3132027Y-12569234D01*
X3132027Y-12569234D02*
X3112979Y-12559710D01*
X3112979Y-12559710D02*
X3103456Y-12550186D01*
X3284408Y-12369234D02*
X3417741Y-12369234D01*
X3417741Y-12369234D02*
X3332027Y-12569234D01*
X3589170Y-12369234D02*
X3493932Y-12369234D01*
X3493932Y-12369234D02*
X3484408Y-12464472D01*
X3484408Y-12464472D02*
X3493932Y-12454948D01*
X3493932Y-12454948D02*
X3512979Y-12445424D01*
X3512979Y-12445424D02*
X3560598Y-12445424D01*
X3560598Y-12445424D02*
X3579646Y-12454948D01*
X3579646Y-12454948D02*
X3589170Y-12464472D01*
X3589170Y-12464472D02*
X3598694Y-12483519D01*
X3598694Y-12483519D02*
X3598694Y-12531138D01*
X3598694Y-12531138D02*
X3589170Y-12550186D01*
X3589170Y-12550186D02*
X3579646Y-12559710D01*
X3579646Y-12559710D02*
X3560598Y-12569234D01*
X3560598Y-12569234D02*
X3512979Y-12569234D01*
X3512979Y-12569234D02*
X3493932Y-12559710D01*
X3493932Y-12559710D02*
X3484408Y-12550186D01*
X3674884Y-12369234D02*
X3674884Y-12407329D01*
X3751075Y-12369234D02*
X3751075Y-12407329D01*
X4046313Y-12645424D02*
X4036789Y-12635900D01*
X4036789Y-12635900D02*
X4017741Y-12607329D01*
X4017741Y-12607329D02*
X4008218Y-12588281D01*
X4008218Y-12588281D02*
X3998694Y-12559710D01*
X3998694Y-12559710D02*
X3989170Y-12512091D01*
X3989170Y-12512091D02*
X3989170Y-12473996D01*
X3989170Y-12473996D02*
X3998694Y-12426377D01*
X3998694Y-12426377D02*
X4008218Y-12397805D01*
X4008218Y-12397805D02*
X4017741Y-12378758D01*
X4017741Y-12378758D02*
X4036789Y-12350186D01*
X4036789Y-12350186D02*
X4046313Y-12340662D01*
X4208218Y-12435900D02*
X4208218Y-12569234D01*
X4160598Y-12359710D02*
X4112979Y-12502567D01*
X4112979Y-12502567D02*
X4236789Y-12502567D01*
X4398694Y-12369234D02*
X4360599Y-12369234D01*
X4360599Y-12369234D02*
X4341551Y-12378758D01*
X4341551Y-12378758D02*
X4332027Y-12388281D01*
X4332027Y-12388281D02*
X4312980Y-12416853D01*
X4312980Y-12416853D02*
X4303456Y-12454948D01*
X4303456Y-12454948D02*
X4303456Y-12531138D01*
X4303456Y-12531138D02*
X4312980Y-12550186D01*
X4312980Y-12550186D02*
X4322503Y-12559710D01*
X4322503Y-12559710D02*
X4341551Y-12569234D01*
X4341551Y-12569234D02*
X4379646Y-12569234D01*
X4379646Y-12569234D02*
X4398694Y-12559710D01*
X4398694Y-12559710D02*
X4408218Y-12550186D01*
X4408218Y-12550186D02*
X4417741Y-12531138D01*
X4417741Y-12531138D02*
X4417741Y-12483519D01*
X4417741Y-12483519D02*
X4408218Y-12464472D01*
X4408218Y-12464472D02*
X4398694Y-12454948D01*
X4398694Y-12454948D02*
X4379646Y-12445424D01*
X4379646Y-12445424D02*
X4341551Y-12445424D01*
X4341551Y-12445424D02*
X4322503Y-12454948D01*
X4322503Y-12454948D02*
X4312980Y-12464472D01*
X4312980Y-12464472D02*
X4303456Y-12483519D01*
X4655837Y-12569234D02*
X4655837Y-12369234D01*
X4741551Y-12569234D02*
X4741551Y-12464472D01*
X4741551Y-12464472D02*
X4732027Y-12445424D01*
X4732027Y-12445424D02*
X4712980Y-12435900D01*
X4712980Y-12435900D02*
X4684408Y-12435900D01*
X4684408Y-12435900D02*
X4665361Y-12445424D01*
X4665361Y-12445424D02*
X4655837Y-12454948D01*
X4865361Y-12569234D02*
X4846313Y-12559710D01*
X4846313Y-12559710D02*
X4836789Y-12550186D01*
X4836789Y-12550186D02*
X4827265Y-12531138D01*
X4827265Y-12531138D02*
X4827265Y-12473996D01*
X4827265Y-12473996D02*
X4836789Y-12454948D01*
X4836789Y-12454948D02*
X4846313Y-12445424D01*
X4846313Y-12445424D02*
X4865361Y-12435900D01*
X4865361Y-12435900D02*
X4893932Y-12435900D01*
X4893932Y-12435900D02*
X4912980Y-12445424D01*
X4912980Y-12445424D02*
X4922503Y-12454948D01*
X4922503Y-12454948D02*
X4932027Y-12473996D01*
X4932027Y-12473996D02*
X4932027Y-12531138D01*
X4932027Y-12531138D02*
X4922503Y-12550186D01*
X4922503Y-12550186D02*
X4912980Y-12559710D01*
X4912980Y-12559710D02*
X4893932Y-12569234D01*
X4893932Y-12569234D02*
X4865361Y-12569234D01*
X5046313Y-12569234D02*
X5027265Y-12559710D01*
X5027265Y-12559710D02*
X5017742Y-12540662D01*
X5017742Y-12540662D02*
X5017742Y-12369234D01*
X5198694Y-12559710D02*
X5179646Y-12569234D01*
X5179646Y-12569234D02*
X5141551Y-12569234D01*
X5141551Y-12569234D02*
X5122503Y-12559710D01*
X5122503Y-12559710D02*
X5112980Y-12540662D01*
X5112980Y-12540662D02*
X5112980Y-12464472D01*
X5112980Y-12464472D02*
X5122503Y-12445424D01*
X5122503Y-12445424D02*
X5141551Y-12435900D01*
X5141551Y-12435900D02*
X5179646Y-12435900D01*
X5179646Y-12435900D02*
X5198694Y-12445424D01*
X5198694Y-12445424D02*
X5208218Y-12464472D01*
X5208218Y-12464472D02*
X5208218Y-12483519D01*
X5208218Y-12483519D02*
X5112980Y-12502567D01*
X5284408Y-12559710D02*
X5303456Y-12569234D01*
X5303456Y-12569234D02*
X5341551Y-12569234D01*
X5341551Y-12569234D02*
X5360599Y-12559710D01*
X5360599Y-12559710D02*
X5370123Y-12540662D01*
X5370123Y-12540662D02*
X5370123Y-12531138D01*
X5370123Y-12531138D02*
X5360599Y-12512091D01*
X5360599Y-12512091D02*
X5341551Y-12502567D01*
X5341551Y-12502567D02*
X5312980Y-12502567D01*
X5312980Y-12502567D02*
X5293932Y-12493043D01*
X5293932Y-12493043D02*
X5284408Y-12473996D01*
X5284408Y-12473996D02*
X5284408Y-12464472D01*
X5284408Y-12464472D02*
X5293932Y-12445424D01*
X5293932Y-12445424D02*
X5312980Y-12435900D01*
X5312980Y-12435900D02*
X5341551Y-12435900D01*
X5341551Y-12435900D02*
X5360599Y-12445424D01*
X5436789Y-12645424D02*
X5446313Y-12635900D01*
X5446313Y-12635900D02*
X5465361Y-12607329D01*
X5465361Y-12607329D02*
X5474884Y-12588281D01*
X5474884Y-12588281D02*
X5484408Y-12559710D01*
X5484408Y-12559710D02*
X5493932Y-12512091D01*
X5493932Y-12512091D02*
X5493932Y-12473996D01*
X5493932Y-12473996D02*
X5484408Y-12426377D01*
X5484408Y-12426377D02*
X5474884Y-12397805D01*
X5474884Y-12397805D02*
X5465361Y-12378758D01*
X5465361Y-12378758D02*
X5446313Y-12350186D01*
X5446313Y-12350186D02*
X5436789Y-12340662D01*
X5798694Y-12645424D02*
X5789170Y-12635900D01*
X5789170Y-12635900D02*
X5770122Y-12607329D01*
X5770122Y-12607329D02*
X5760599Y-12588281D01*
X5760599Y-12588281D02*
X5751075Y-12559710D01*
X5751075Y-12559710D02*
X5741551Y-12512091D01*
X5741551Y-12512091D02*
X5741551Y-12473996D01*
X5741551Y-12473996D02*
X5751075Y-12426377D01*
X5751075Y-12426377D02*
X5760599Y-12397805D01*
X5760599Y-12397805D02*
X5770122Y-12378758D01*
X5770122Y-12378758D02*
X5789170Y-12350186D01*
X5789170Y-12350186D02*
X5798694Y-12340662D01*
X5874884Y-12435900D02*
X5874884Y-12569234D01*
X5874884Y-12454948D02*
X5884408Y-12445424D01*
X5884408Y-12445424D02*
X5903456Y-12435900D01*
X5903456Y-12435900D02*
X5932027Y-12435900D01*
X5932027Y-12435900D02*
X5951075Y-12445424D01*
X5951075Y-12445424D02*
X5960599Y-12464472D01*
X5960599Y-12464472D02*
X5960599Y-12569234D01*
X6084408Y-12569234D02*
X6065361Y-12559710D01*
X6065361Y-12559710D02*
X6055837Y-12550186D01*
X6055837Y-12550186D02*
X6046313Y-12531138D01*
X6046313Y-12531138D02*
X6046313Y-12473996D01*
X6046313Y-12473996D02*
X6055837Y-12454948D01*
X6055837Y-12454948D02*
X6065361Y-12445424D01*
X6065361Y-12445424D02*
X6084408Y-12435900D01*
X6084408Y-12435900D02*
X6112980Y-12435900D01*
X6112980Y-12435900D02*
X6132027Y-12445424D01*
X6132027Y-12445424D02*
X6141551Y-12454948D01*
X6141551Y-12454948D02*
X6151075Y-12473996D01*
X6151075Y-12473996D02*
X6151075Y-12531138D01*
X6151075Y-12531138D02*
X6141551Y-12550186D01*
X6141551Y-12550186D02*
X6132027Y-12559710D01*
X6132027Y-12559710D02*
X6112980Y-12569234D01*
X6112980Y-12569234D02*
X6084408Y-12569234D01*
X6208218Y-12435900D02*
X6284408Y-12435900D01*
X6236789Y-12369234D02*
X6236789Y-12540662D01*
X6236789Y-12540662D02*
X6246313Y-12559710D01*
X6246313Y-12559710D02*
X6265361Y-12569234D01*
X6265361Y-12569234D02*
X6284408Y-12569234D01*
X6503456Y-12435900D02*
X6503456Y-12635900D01*
X6503456Y-12445424D02*
X6522503Y-12435900D01*
X6522503Y-12435900D02*
X6560599Y-12435900D01*
X6560599Y-12435900D02*
X6579646Y-12445424D01*
X6579646Y-12445424D02*
X6589170Y-12454948D01*
X6589170Y-12454948D02*
X6598694Y-12473996D01*
X6598694Y-12473996D02*
X6598694Y-12531138D01*
X6598694Y-12531138D02*
X6589170Y-12550186D01*
X6589170Y-12550186D02*
X6579646Y-12559710D01*
X6579646Y-12559710D02*
X6560599Y-12569234D01*
X6560599Y-12569234D02*
X6522503Y-12569234D01*
X6522503Y-12569234D02*
X6503456Y-12559710D01*
X6712980Y-12569234D02*
X6693932Y-12559710D01*
X6693932Y-12559710D02*
X6684408Y-12540662D01*
X6684408Y-12540662D02*
X6684408Y-12369234D01*
X6874884Y-12569234D02*
X6874884Y-12464472D01*
X6874884Y-12464472D02*
X6865361Y-12445424D01*
X6865361Y-12445424D02*
X6846313Y-12435900D01*
X6846313Y-12435900D02*
X6808218Y-12435900D01*
X6808218Y-12435900D02*
X6789170Y-12445424D01*
X6874884Y-12559710D02*
X6855837Y-12569234D01*
X6855837Y-12569234D02*
X6808218Y-12569234D01*
X6808218Y-12569234D02*
X6789170Y-12559710D01*
X6789170Y-12559710D02*
X6779646Y-12540662D01*
X6779646Y-12540662D02*
X6779646Y-12521615D01*
X6779646Y-12521615D02*
X6789170Y-12502567D01*
X6789170Y-12502567D02*
X6808218Y-12493043D01*
X6808218Y-12493043D02*
X6855837Y-12493043D01*
X6855837Y-12493043D02*
X6874884Y-12483519D01*
X6941551Y-12435900D02*
X7017742Y-12435900D01*
X6970123Y-12369234D02*
X6970123Y-12540662D01*
X6970123Y-12540662D02*
X6979646Y-12559710D01*
X6979646Y-12559710D02*
X6998694Y-12569234D01*
X6998694Y-12569234D02*
X7017742Y-12569234D01*
X7160599Y-12559710D02*
X7141551Y-12569234D01*
X7141551Y-12569234D02*
X7103456Y-12569234D01*
X7103456Y-12569234D02*
X7084408Y-12559710D01*
X7084408Y-12559710D02*
X7074884Y-12540662D01*
X7074884Y-12540662D02*
X7074884Y-12464472D01*
X7074884Y-12464472D02*
X7084408Y-12445424D01*
X7084408Y-12445424D02*
X7103456Y-12435900D01*
X7103456Y-12435900D02*
X7141551Y-12435900D01*
X7141551Y-12435900D02*
X7160599Y-12445424D01*
X7160599Y-12445424D02*
X7170123Y-12464472D01*
X7170123Y-12464472D02*
X7170123Y-12483519D01*
X7170123Y-12483519D02*
X7074884Y-12502567D01*
X7341551Y-12569234D02*
X7341551Y-12369234D01*
X7341551Y-12559710D02*
X7322504Y-12569234D01*
X7322504Y-12569234D02*
X7284408Y-12569234D01*
X7284408Y-12569234D02*
X7265361Y-12559710D01*
X7265361Y-12559710D02*
X7255837Y-12550186D01*
X7255837Y-12550186D02*
X7246313Y-12531138D01*
X7246313Y-12531138D02*
X7246313Y-12473996D01*
X7246313Y-12473996D02*
X7255837Y-12454948D01*
X7255837Y-12454948D02*
X7265361Y-12445424D01*
X7265361Y-12445424D02*
X7284408Y-12435900D01*
X7284408Y-12435900D02*
X7322504Y-12435900D01*
X7322504Y-12435900D02*
X7341551Y-12445424D01*
X7417742Y-12645424D02*
X7427265Y-12635900D01*
X7427265Y-12635900D02*
X7446313Y-12607329D01*
X7446313Y-12607329D02*
X7455837Y-12588281D01*
X7455837Y-12588281D02*
X7465361Y-12559710D01*
X7465361Y-12559710D02*
X7474884Y-12512091D01*
X7474884Y-12512091D02*
X7474884Y-12473996D01*
X7474884Y-12473996D02*
X7465361Y-12426377D01*
X7465361Y-12426377D02*
X7455837Y-12397805D01*
X7455837Y-12397805D02*
X7446313Y-12378758D01*
X7446313Y-12378758D02*
X7427265Y-12350186D01*
X7427265Y-12350186D02*
X7417742Y-12340662D01*
M02*
