M48
; DRILL file {KiCad 7.0.8} date Tue Dec  5 18:43:19 2023
; FORMAT={-:-/ absolute / metric / decimal}
; #@! TF.CreationDate,2023-12-05T18:43:19+09:00
; #@! TF.GenerationSoftware,Kicad,Pcbnew,7.0.8
; #@! TF.FileFunction,NonPlated,1,2,NPTH
FMAT,2
METRIC
; #@! TA.AperFunction,NonPlated,NPTH,ComponentDrill
T1C0.800
; #@! TA.AperFunction,NonPlated,NPTH,ComponentDrill
T2C1.750
; #@! TA.AperFunction,NonPlated,NPTH,ComponentDrill
T3C2.200
; #@! TA.AperFunction,NonPlated,NPTH,ComponentDrill
T4C4.000
%
G90
G05
T1
X137.037Y-61.912
X144.037Y-61.912
X158.381Y-61.912
X165.381Y-61.912
T2
X13.97Y-38.1
X13.97Y-57.15
X13.97Y-76.2
X24.13Y-38.1
X24.13Y-57.15
X24.13Y-76.2
X33.02Y-38.1
X33.02Y-57.15
X33.02Y-76.2
X43.18Y-38.1
X43.18Y-57.15
X43.18Y-76.2
X52.07Y-33.337
X52.07Y-52.387
X52.07Y-71.438
X62.23Y-33.337
X62.23Y-52.387
X62.23Y-71.438
X71.12Y-28.575
X71.12Y-47.625
X71.12Y-66.675
X71.12Y-85.725
X81.28Y-28.575
X81.28Y-47.625
X81.28Y-66.675
X81.28Y-85.725
X90.17Y-33.337
X90.17Y-52.387
X90.17Y-71.438
X90.17Y-90.487
X100.33Y-33.337
X100.33Y-52.387
X100.33Y-71.438
X100.33Y-90.487
X109.22Y-38.1
X109.22Y-57.15
X109.22Y-76.2
X109.22Y-95.25
X119.38Y-38.1
X119.38Y-57.15
X119.38Y-76.2
X119.38Y-95.25
X128.27Y-76.2
X128.27Y-95.25
X138.43Y-76.2
X138.43Y-95.25
X163.989Y-76.2
X163.989Y-95.25
X174.149Y-76.2
X174.149Y-95.25
X183.039Y-38.1
X183.039Y-57.15
X183.039Y-76.2
X183.039Y-95.25
X193.199Y-38.1
X193.199Y-57.15
X193.199Y-76.2
X193.199Y-95.25
X202.089Y-33.337
X202.089Y-52.387
X202.089Y-71.438
X202.089Y-90.487
X212.249Y-33.337
X212.249Y-52.387
X212.249Y-71.438
X212.249Y-90.487
X221.139Y-28.575
X221.139Y-47.625
X221.139Y-66.675
X221.139Y-85.725
X231.299Y-28.575
X231.299Y-47.625
X231.299Y-66.675
X231.299Y-85.725
X240.189Y-33.337
X240.189Y-52.387
X240.189Y-71.438
X250.349Y-33.337
X250.349Y-52.387
X250.349Y-71.438
X259.239Y-38.1
X259.239Y-57.15
X259.239Y-76.2
X269.399Y-38.1
X269.399Y-57.15
X269.399Y-76.2
X278.289Y-38.1
X278.289Y-57.15
X278.289Y-76.2
X288.449Y-38.1
X288.449Y-57.15
X288.449Y-76.2
T3
X9.525Y-28.575
X9.525Y-85.725
X28.575Y-47.625
X66.675Y-19.05
X66.675Y-95.25
X123.825Y-26.194
X123.825Y-85.725
X142.875Y-104.775
X159.544Y-104.775
X178.594Y-26.194
X178.594Y-85.725
X235.744Y-19.05
X235.744Y-95.25
X273.844Y-47.625
X292.894Y-28.575
X292.894Y-85.725
T4
X19.05Y-38.1
X19.05Y-57.15
X19.05Y-76.2
X38.1Y-38.1
X38.1Y-57.15
X38.1Y-76.2
X57.15Y-33.337
X57.15Y-52.387
X57.15Y-71.438
X76.2Y-28.575
X76.2Y-47.625
X76.2Y-66.675
X76.2Y-85.725
X95.25Y-33.337
X95.25Y-52.387
X95.25Y-71.438
X95.25Y-90.487
X114.3Y-38.1
X114.3Y-57.15
X114.3Y-76.2
X114.3Y-95.25
X133.35Y-76.2
X133.35Y-95.25
X169.069Y-76.2
X169.069Y-95.25
X188.119Y-38.1
X188.119Y-57.15
X188.119Y-76.2
X188.119Y-95.25
X207.169Y-33.337
X207.169Y-52.387
X207.169Y-71.438
X207.169Y-90.487
X226.219Y-28.575
X226.219Y-47.625
X226.219Y-66.675
X226.219Y-85.725
X245.269Y-33.337
X245.269Y-52.387
X245.269Y-71.438
X264.319Y-38.1
X264.319Y-57.15
X264.319Y-76.2
X283.369Y-38.1
X283.369Y-57.15
X283.369Y-76.2
T0
M30
