G04 #@! TF.GenerationSoftware,KiCad,Pcbnew,7.0.8*
G04 #@! TF.CreationDate,2023-12-05T18:43:10+09:00*
G04 #@! TF.ProjectId,Keyboard,4b657962-6f61-4726-942e-6b696361645f,rev?*
G04 #@! TF.SameCoordinates,Original*
G04 #@! TF.FileFunction,Legend,Bot*
G04 #@! TF.FilePolarity,Positive*
%FSLAX46Y46*%
G04 Gerber Fmt 4.6, Leading zero omitted, Abs format (unit mm)*
G04 Created by KiCad (PCBNEW 7.0.8) date 2023-12-05 18:43:10*
%MOMM*%
%LPD*%
G01*
G04 APERTURE LIST*
%ADD10C,0.150000*%
%ADD11C,0.120000*%
%ADD12C,1.750000*%
%ADD13C,4.000000*%
%ADD14C,2.500000*%
%ADD15C,2.200000*%
%ADD16C,0.800000*%
%ADD17O,2.000000X1.600000*%
%ADD18O,2.500000X1.500000*%
%ADD19O,1.500000X2.500000*%
%ADD20R,1.600000X1.600000*%
%ADD21O,1.600000X1.600000*%
G04 APERTURE END LIST*
D10*
X181168569Y-93083214D02*
X180168569Y-93083214D01*
X180168569Y-93083214D02*
X180168569Y-93321309D01*
X180168569Y-93321309D02*
X180216188Y-93464166D01*
X180216188Y-93464166D02*
X180311426Y-93559404D01*
X180311426Y-93559404D02*
X180406664Y-93607023D01*
X180406664Y-93607023D02*
X180597140Y-93654642D01*
X180597140Y-93654642D02*
X180739997Y-93654642D01*
X180739997Y-93654642D02*
X180930473Y-93607023D01*
X180930473Y-93607023D02*
X181025711Y-93559404D01*
X181025711Y-93559404D02*
X181120950Y-93464166D01*
X181120950Y-93464166D02*
X181168569Y-93321309D01*
X181168569Y-93321309D02*
X181168569Y-93083214D01*
X180501902Y-94511785D02*
X181168569Y-94511785D01*
X180120950Y-94273690D02*
X180835235Y-94035595D01*
X180835235Y-94035595D02*
X180835235Y-94654642D01*
X180501902Y-95464166D02*
X181168569Y-95464166D01*
X180120950Y-95226071D02*
X180835235Y-94987976D01*
X180835235Y-94987976D02*
X180835235Y-95607023D01*
X180848569Y-97845595D02*
X179848569Y-97845595D01*
X180848569Y-98417023D02*
X180277140Y-97988452D01*
X179848569Y-98417023D02*
X180419997Y-97845595D01*
X145449819Y-93083214D02*
X144449819Y-93083214D01*
X144449819Y-93083214D02*
X144449819Y-93321309D01*
X144449819Y-93321309D02*
X144497438Y-93464166D01*
X144497438Y-93464166D02*
X144592676Y-93559404D01*
X144592676Y-93559404D02*
X144687914Y-93607023D01*
X144687914Y-93607023D02*
X144878390Y-93654642D01*
X144878390Y-93654642D02*
X145021247Y-93654642D01*
X145021247Y-93654642D02*
X145211723Y-93607023D01*
X145211723Y-93607023D02*
X145306961Y-93559404D01*
X145306961Y-93559404D02*
X145402200Y-93464166D01*
X145402200Y-93464166D02*
X145449819Y-93321309D01*
X145449819Y-93321309D02*
X145449819Y-93083214D01*
X144545057Y-94035595D02*
X144497438Y-94083214D01*
X144497438Y-94083214D02*
X144449819Y-94178452D01*
X144449819Y-94178452D02*
X144449819Y-94416547D01*
X144449819Y-94416547D02*
X144497438Y-94511785D01*
X144497438Y-94511785D02*
X144545057Y-94559404D01*
X144545057Y-94559404D02*
X144640295Y-94607023D01*
X144640295Y-94607023D02*
X144735533Y-94607023D01*
X144735533Y-94607023D02*
X144878390Y-94559404D01*
X144878390Y-94559404D02*
X145449819Y-93987976D01*
X145449819Y-93987976D02*
X145449819Y-94607023D01*
X144449819Y-94940357D02*
X144449819Y-95559404D01*
X144449819Y-95559404D02*
X144830771Y-95226071D01*
X144830771Y-95226071D02*
X144830771Y-95368928D01*
X144830771Y-95368928D02*
X144878390Y-95464166D01*
X144878390Y-95464166D02*
X144926009Y-95511785D01*
X144926009Y-95511785D02*
X145021247Y-95559404D01*
X145021247Y-95559404D02*
X145259342Y-95559404D01*
X145259342Y-95559404D02*
X145354580Y-95511785D01*
X145354580Y-95511785D02*
X145402200Y-95464166D01*
X145402200Y-95464166D02*
X145449819Y-95368928D01*
X145449819Y-95368928D02*
X145449819Y-95083214D01*
X145449819Y-95083214D02*
X145402200Y-94987976D01*
X145402200Y-94987976D02*
X145354580Y-94940357D01*
X145129819Y-97845595D02*
X144129819Y-97845595D01*
X145129819Y-98417023D02*
X144558390Y-97988452D01*
X144129819Y-98417023D02*
X144701247Y-97845595D01*
X276418569Y-35933214D02*
X275418569Y-35933214D01*
X275418569Y-35933214D02*
X275418569Y-36171309D01*
X275418569Y-36171309D02*
X275466188Y-36314166D01*
X275466188Y-36314166D02*
X275561426Y-36409404D01*
X275561426Y-36409404D02*
X275656664Y-36457023D01*
X275656664Y-36457023D02*
X275847140Y-36504642D01*
X275847140Y-36504642D02*
X275989997Y-36504642D01*
X275989997Y-36504642D02*
X276180473Y-36457023D01*
X276180473Y-36457023D02*
X276275711Y-36409404D01*
X276275711Y-36409404D02*
X276370950Y-36314166D01*
X276370950Y-36314166D02*
X276418569Y-36171309D01*
X276418569Y-36171309D02*
X276418569Y-35933214D01*
X275513807Y-36885595D02*
X275466188Y-36933214D01*
X275466188Y-36933214D02*
X275418569Y-37028452D01*
X275418569Y-37028452D02*
X275418569Y-37266547D01*
X275418569Y-37266547D02*
X275466188Y-37361785D01*
X275466188Y-37361785D02*
X275513807Y-37409404D01*
X275513807Y-37409404D02*
X275609045Y-37457023D01*
X275609045Y-37457023D02*
X275704283Y-37457023D01*
X275704283Y-37457023D02*
X275847140Y-37409404D01*
X275847140Y-37409404D02*
X276418569Y-36837976D01*
X276418569Y-36837976D02*
X276418569Y-37457023D01*
X276418569Y-37933214D02*
X276418569Y-38123690D01*
X276418569Y-38123690D02*
X276370950Y-38218928D01*
X276370950Y-38218928D02*
X276323330Y-38266547D01*
X276323330Y-38266547D02*
X276180473Y-38361785D01*
X276180473Y-38361785D02*
X275989997Y-38409404D01*
X275989997Y-38409404D02*
X275609045Y-38409404D01*
X275609045Y-38409404D02*
X275513807Y-38361785D01*
X275513807Y-38361785D02*
X275466188Y-38314166D01*
X275466188Y-38314166D02*
X275418569Y-38218928D01*
X275418569Y-38218928D02*
X275418569Y-38028452D01*
X275418569Y-38028452D02*
X275466188Y-37933214D01*
X275466188Y-37933214D02*
X275513807Y-37885595D01*
X275513807Y-37885595D02*
X275609045Y-37837976D01*
X275609045Y-37837976D02*
X275847140Y-37837976D01*
X275847140Y-37837976D02*
X275942378Y-37885595D01*
X275942378Y-37885595D02*
X275989997Y-37933214D01*
X275989997Y-37933214D02*
X276037616Y-38028452D01*
X276037616Y-38028452D02*
X276037616Y-38218928D01*
X276037616Y-38218928D02*
X275989997Y-38314166D01*
X275989997Y-38314166D02*
X275942378Y-38361785D01*
X275942378Y-38361785D02*
X275847140Y-38409404D01*
X276098569Y-40695595D02*
X275098569Y-40695595D01*
X276098569Y-41267023D02*
X275527140Y-40838452D01*
X275098569Y-41267023D02*
X275669997Y-40695595D01*
X162118569Y-93083214D02*
X161118569Y-93083214D01*
X161118569Y-93083214D02*
X161118569Y-93321309D01*
X161118569Y-93321309D02*
X161166188Y-93464166D01*
X161166188Y-93464166D02*
X161261426Y-93559404D01*
X161261426Y-93559404D02*
X161356664Y-93607023D01*
X161356664Y-93607023D02*
X161547140Y-93654642D01*
X161547140Y-93654642D02*
X161689997Y-93654642D01*
X161689997Y-93654642D02*
X161880473Y-93607023D01*
X161880473Y-93607023D02*
X161975711Y-93559404D01*
X161975711Y-93559404D02*
X162070950Y-93464166D01*
X162070950Y-93464166D02*
X162118569Y-93321309D01*
X162118569Y-93321309D02*
X162118569Y-93083214D01*
X161451902Y-94511785D02*
X162118569Y-94511785D01*
X161070950Y-94273690D02*
X161785235Y-94035595D01*
X161785235Y-94035595D02*
X161785235Y-94654642D01*
X161118569Y-94940357D02*
X161118569Y-95559404D01*
X161118569Y-95559404D02*
X161499521Y-95226071D01*
X161499521Y-95226071D02*
X161499521Y-95368928D01*
X161499521Y-95368928D02*
X161547140Y-95464166D01*
X161547140Y-95464166D02*
X161594759Y-95511785D01*
X161594759Y-95511785D02*
X161689997Y-95559404D01*
X161689997Y-95559404D02*
X161928092Y-95559404D01*
X161928092Y-95559404D02*
X162023330Y-95511785D01*
X162023330Y-95511785D02*
X162070950Y-95464166D01*
X162070950Y-95464166D02*
X162118569Y-95368928D01*
X162118569Y-95368928D02*
X162118569Y-95083214D01*
X162118569Y-95083214D02*
X162070950Y-94987976D01*
X162070950Y-94987976D02*
X162023330Y-94940357D01*
X161798569Y-97845595D02*
X160798569Y-97845595D01*
X161798569Y-98417023D02*
X161227140Y-97988452D01*
X160798569Y-98417023D02*
X161369997Y-97845595D01*
X181168569Y-74033214D02*
X180168569Y-74033214D01*
X180168569Y-74033214D02*
X180168569Y-74271309D01*
X180168569Y-74271309D02*
X180216188Y-74414166D01*
X180216188Y-74414166D02*
X180311426Y-74509404D01*
X180311426Y-74509404D02*
X180406664Y-74557023D01*
X180406664Y-74557023D02*
X180597140Y-74604642D01*
X180597140Y-74604642D02*
X180739997Y-74604642D01*
X180739997Y-74604642D02*
X180930473Y-74557023D01*
X180930473Y-74557023D02*
X181025711Y-74509404D01*
X181025711Y-74509404D02*
X181120950Y-74414166D01*
X181120950Y-74414166D02*
X181168569Y-74271309D01*
X181168569Y-74271309D02*
X181168569Y-74033214D01*
X180168569Y-74937976D02*
X180168569Y-75557023D01*
X180168569Y-75557023D02*
X180549521Y-75223690D01*
X180549521Y-75223690D02*
X180549521Y-75366547D01*
X180549521Y-75366547D02*
X180597140Y-75461785D01*
X180597140Y-75461785D02*
X180644759Y-75509404D01*
X180644759Y-75509404D02*
X180739997Y-75557023D01*
X180739997Y-75557023D02*
X180978092Y-75557023D01*
X180978092Y-75557023D02*
X181073330Y-75509404D01*
X181073330Y-75509404D02*
X181120950Y-75461785D01*
X181120950Y-75461785D02*
X181168569Y-75366547D01*
X181168569Y-75366547D02*
X181168569Y-75080833D01*
X181168569Y-75080833D02*
X181120950Y-74985595D01*
X181120950Y-74985595D02*
X181073330Y-74937976D01*
X180168569Y-75890357D02*
X180168569Y-76557023D01*
X180168569Y-76557023D02*
X181168569Y-76128452D01*
X180848569Y-78795595D02*
X179848569Y-78795595D01*
X180848569Y-79367023D02*
X180277140Y-78938452D01*
X179848569Y-79367023D02*
X180419997Y-78795595D01*
X88299819Y-64508214D02*
X87299819Y-64508214D01*
X87299819Y-64508214D02*
X87299819Y-64746309D01*
X87299819Y-64746309D02*
X87347438Y-64889166D01*
X87347438Y-64889166D02*
X87442676Y-64984404D01*
X87442676Y-64984404D02*
X87537914Y-65032023D01*
X87537914Y-65032023D02*
X87728390Y-65079642D01*
X87728390Y-65079642D02*
X87871247Y-65079642D01*
X87871247Y-65079642D02*
X88061723Y-65032023D01*
X88061723Y-65032023D02*
X88156961Y-64984404D01*
X88156961Y-64984404D02*
X88252200Y-64889166D01*
X88252200Y-64889166D02*
X88299819Y-64746309D01*
X88299819Y-64746309D02*
X88299819Y-64508214D01*
X88299819Y-66032023D02*
X88299819Y-65460595D01*
X88299819Y-65746309D02*
X87299819Y-65746309D01*
X87299819Y-65746309D02*
X87442676Y-65651071D01*
X87442676Y-65651071D02*
X87537914Y-65555833D01*
X87537914Y-65555833D02*
X87585533Y-65460595D01*
X87299819Y-66889166D02*
X87299819Y-66698690D01*
X87299819Y-66698690D02*
X87347438Y-66603452D01*
X87347438Y-66603452D02*
X87395057Y-66555833D01*
X87395057Y-66555833D02*
X87537914Y-66460595D01*
X87537914Y-66460595D02*
X87728390Y-66412976D01*
X87728390Y-66412976D02*
X88109342Y-66412976D01*
X88109342Y-66412976D02*
X88204580Y-66460595D01*
X88204580Y-66460595D02*
X88252200Y-66508214D01*
X88252200Y-66508214D02*
X88299819Y-66603452D01*
X88299819Y-66603452D02*
X88299819Y-66793928D01*
X88299819Y-66793928D02*
X88252200Y-66889166D01*
X88252200Y-66889166D02*
X88204580Y-66936785D01*
X88204580Y-66936785D02*
X88109342Y-66984404D01*
X88109342Y-66984404D02*
X87871247Y-66984404D01*
X87871247Y-66984404D02*
X87776009Y-66936785D01*
X87776009Y-66936785D02*
X87728390Y-66889166D01*
X87728390Y-66889166D02*
X87680771Y-66793928D01*
X87680771Y-66793928D02*
X87680771Y-66603452D01*
X87680771Y-66603452D02*
X87728390Y-66508214D01*
X87728390Y-66508214D02*
X87776009Y-66460595D01*
X87776009Y-66460595D02*
X87871247Y-66412976D01*
X87979819Y-69270595D02*
X86979819Y-69270595D01*
X87979819Y-69842023D02*
X87408390Y-69413452D01*
X86979819Y-69842023D02*
X87551247Y-69270595D01*
X238318569Y-69270714D02*
X237318569Y-69270714D01*
X237318569Y-69270714D02*
X237318569Y-69508809D01*
X237318569Y-69508809D02*
X237366188Y-69651666D01*
X237366188Y-69651666D02*
X237461426Y-69746904D01*
X237461426Y-69746904D02*
X237556664Y-69794523D01*
X237556664Y-69794523D02*
X237747140Y-69842142D01*
X237747140Y-69842142D02*
X237889997Y-69842142D01*
X237889997Y-69842142D02*
X238080473Y-69794523D01*
X238080473Y-69794523D02*
X238175711Y-69746904D01*
X238175711Y-69746904D02*
X238270950Y-69651666D01*
X238270950Y-69651666D02*
X238318569Y-69508809D01*
X238318569Y-69508809D02*
X238318569Y-69270714D01*
X237651902Y-70699285D02*
X238318569Y-70699285D01*
X237270950Y-70461190D02*
X237985235Y-70223095D01*
X237985235Y-70223095D02*
X237985235Y-70842142D01*
X237318569Y-71413571D02*
X237318569Y-71508809D01*
X237318569Y-71508809D02*
X237366188Y-71604047D01*
X237366188Y-71604047D02*
X237413807Y-71651666D01*
X237413807Y-71651666D02*
X237509045Y-71699285D01*
X237509045Y-71699285D02*
X237699521Y-71746904D01*
X237699521Y-71746904D02*
X237937616Y-71746904D01*
X237937616Y-71746904D02*
X238128092Y-71699285D01*
X238128092Y-71699285D02*
X238223330Y-71651666D01*
X238223330Y-71651666D02*
X238270950Y-71604047D01*
X238270950Y-71604047D02*
X238318569Y-71508809D01*
X238318569Y-71508809D02*
X238318569Y-71413571D01*
X238318569Y-71413571D02*
X238270950Y-71318333D01*
X238270950Y-71318333D02*
X238223330Y-71270714D01*
X238223330Y-71270714D02*
X238128092Y-71223095D01*
X238128092Y-71223095D02*
X237937616Y-71175476D01*
X237937616Y-71175476D02*
X237699521Y-71175476D01*
X237699521Y-71175476D02*
X237509045Y-71223095D01*
X237509045Y-71223095D02*
X237413807Y-71270714D01*
X237413807Y-71270714D02*
X237366188Y-71318333D01*
X237366188Y-71318333D02*
X237318569Y-71413571D01*
X237998569Y-74033095D02*
X236998569Y-74033095D01*
X237998569Y-74604523D02*
X237427140Y-74175952D01*
X236998569Y-74604523D02*
X237569997Y-74033095D01*
X88299819Y-26884405D02*
X87299819Y-26884405D01*
X87299819Y-26884405D02*
X87299819Y-27122500D01*
X87299819Y-27122500D02*
X87347438Y-27265357D01*
X87347438Y-27265357D02*
X87442676Y-27360595D01*
X87442676Y-27360595D02*
X87537914Y-27408214D01*
X87537914Y-27408214D02*
X87728390Y-27455833D01*
X87728390Y-27455833D02*
X87871247Y-27455833D01*
X87871247Y-27455833D02*
X88061723Y-27408214D01*
X88061723Y-27408214D02*
X88156961Y-27360595D01*
X88156961Y-27360595D02*
X88252200Y-27265357D01*
X88252200Y-27265357D02*
X88299819Y-27122500D01*
X88299819Y-27122500D02*
X88299819Y-26884405D01*
X87633152Y-28312976D02*
X88299819Y-28312976D01*
X87252200Y-28074881D02*
X87966485Y-27836786D01*
X87966485Y-27836786D02*
X87966485Y-28455833D01*
X87979819Y-31170595D02*
X86979819Y-31170595D01*
X87979819Y-31742023D02*
X87408390Y-31313452D01*
X86979819Y-31742023D02*
X87551247Y-31170595D01*
X219268569Y-45458214D02*
X218268569Y-45458214D01*
X218268569Y-45458214D02*
X218268569Y-45696309D01*
X218268569Y-45696309D02*
X218316188Y-45839166D01*
X218316188Y-45839166D02*
X218411426Y-45934404D01*
X218411426Y-45934404D02*
X218506664Y-45982023D01*
X218506664Y-45982023D02*
X218697140Y-46029642D01*
X218697140Y-46029642D02*
X218839997Y-46029642D01*
X218839997Y-46029642D02*
X219030473Y-45982023D01*
X219030473Y-45982023D02*
X219125711Y-45934404D01*
X219125711Y-45934404D02*
X219220950Y-45839166D01*
X219220950Y-45839166D02*
X219268569Y-45696309D01*
X219268569Y-45696309D02*
X219268569Y-45458214D01*
X218268569Y-46362976D02*
X218268569Y-46982023D01*
X218268569Y-46982023D02*
X218649521Y-46648690D01*
X218649521Y-46648690D02*
X218649521Y-46791547D01*
X218649521Y-46791547D02*
X218697140Y-46886785D01*
X218697140Y-46886785D02*
X218744759Y-46934404D01*
X218744759Y-46934404D02*
X218839997Y-46982023D01*
X218839997Y-46982023D02*
X219078092Y-46982023D01*
X219078092Y-46982023D02*
X219173330Y-46934404D01*
X219173330Y-46934404D02*
X219220950Y-46886785D01*
X219220950Y-46886785D02*
X219268569Y-46791547D01*
X219268569Y-46791547D02*
X219268569Y-46505833D01*
X219268569Y-46505833D02*
X219220950Y-46410595D01*
X219220950Y-46410595D02*
X219173330Y-46362976D01*
X218363807Y-47362976D02*
X218316188Y-47410595D01*
X218316188Y-47410595D02*
X218268569Y-47505833D01*
X218268569Y-47505833D02*
X218268569Y-47743928D01*
X218268569Y-47743928D02*
X218316188Y-47839166D01*
X218316188Y-47839166D02*
X218363807Y-47886785D01*
X218363807Y-47886785D02*
X218459045Y-47934404D01*
X218459045Y-47934404D02*
X218554283Y-47934404D01*
X218554283Y-47934404D02*
X218697140Y-47886785D01*
X218697140Y-47886785D02*
X219268569Y-47315357D01*
X219268569Y-47315357D02*
X219268569Y-47934404D01*
X218948569Y-50220595D02*
X217948569Y-50220595D01*
X218948569Y-50792023D02*
X218377140Y-50363452D01*
X217948569Y-50792023D02*
X218519997Y-50220595D01*
X276418569Y-54983214D02*
X275418569Y-54983214D01*
X275418569Y-54983214D02*
X275418569Y-55221309D01*
X275418569Y-55221309D02*
X275466188Y-55364166D01*
X275466188Y-55364166D02*
X275561426Y-55459404D01*
X275561426Y-55459404D02*
X275656664Y-55507023D01*
X275656664Y-55507023D02*
X275847140Y-55554642D01*
X275847140Y-55554642D02*
X275989997Y-55554642D01*
X275989997Y-55554642D02*
X276180473Y-55507023D01*
X276180473Y-55507023D02*
X276275711Y-55459404D01*
X276275711Y-55459404D02*
X276370950Y-55364166D01*
X276370950Y-55364166D02*
X276418569Y-55221309D01*
X276418569Y-55221309D02*
X276418569Y-54983214D01*
X275418569Y-55887976D02*
X275418569Y-56507023D01*
X275418569Y-56507023D02*
X275799521Y-56173690D01*
X275799521Y-56173690D02*
X275799521Y-56316547D01*
X275799521Y-56316547D02*
X275847140Y-56411785D01*
X275847140Y-56411785D02*
X275894759Y-56459404D01*
X275894759Y-56459404D02*
X275989997Y-56507023D01*
X275989997Y-56507023D02*
X276228092Y-56507023D01*
X276228092Y-56507023D02*
X276323330Y-56459404D01*
X276323330Y-56459404D02*
X276370950Y-56411785D01*
X276370950Y-56411785D02*
X276418569Y-56316547D01*
X276418569Y-56316547D02*
X276418569Y-56030833D01*
X276418569Y-56030833D02*
X276370950Y-55935595D01*
X276370950Y-55935595D02*
X276323330Y-55887976D01*
X275418569Y-57411785D02*
X275418569Y-56935595D01*
X275418569Y-56935595D02*
X275894759Y-56887976D01*
X275894759Y-56887976D02*
X275847140Y-56935595D01*
X275847140Y-56935595D02*
X275799521Y-57030833D01*
X275799521Y-57030833D02*
X275799521Y-57268928D01*
X275799521Y-57268928D02*
X275847140Y-57364166D01*
X275847140Y-57364166D02*
X275894759Y-57411785D01*
X275894759Y-57411785D02*
X275989997Y-57459404D01*
X275989997Y-57459404D02*
X276228092Y-57459404D01*
X276228092Y-57459404D02*
X276323330Y-57411785D01*
X276323330Y-57411785D02*
X276370950Y-57364166D01*
X276370950Y-57364166D02*
X276418569Y-57268928D01*
X276418569Y-57268928D02*
X276418569Y-57030833D01*
X276418569Y-57030833D02*
X276370950Y-56935595D01*
X276370950Y-56935595D02*
X276323330Y-56887976D01*
X276098569Y-59745595D02*
X275098569Y-59745595D01*
X276098569Y-60317023D02*
X275527140Y-59888452D01*
X275098569Y-60317023D02*
X275669997Y-59745595D01*
X31149819Y-74033214D02*
X30149819Y-74033214D01*
X30149819Y-74033214D02*
X30149819Y-74271309D01*
X30149819Y-74271309D02*
X30197438Y-74414166D01*
X30197438Y-74414166D02*
X30292676Y-74509404D01*
X30292676Y-74509404D02*
X30387914Y-74557023D01*
X30387914Y-74557023D02*
X30578390Y-74604642D01*
X30578390Y-74604642D02*
X30721247Y-74604642D01*
X30721247Y-74604642D02*
X30911723Y-74557023D01*
X30911723Y-74557023D02*
X31006961Y-74509404D01*
X31006961Y-74509404D02*
X31102200Y-74414166D01*
X31102200Y-74414166D02*
X31149819Y-74271309D01*
X31149819Y-74271309D02*
X31149819Y-74033214D01*
X31149819Y-75557023D02*
X31149819Y-74985595D01*
X31149819Y-75271309D02*
X30149819Y-75271309D01*
X30149819Y-75271309D02*
X30292676Y-75176071D01*
X30292676Y-75176071D02*
X30387914Y-75080833D01*
X30387914Y-75080833D02*
X30435533Y-74985595D01*
X30149819Y-75890357D02*
X30149819Y-76509404D01*
X30149819Y-76509404D02*
X30530771Y-76176071D01*
X30530771Y-76176071D02*
X30530771Y-76318928D01*
X30530771Y-76318928D02*
X30578390Y-76414166D01*
X30578390Y-76414166D02*
X30626009Y-76461785D01*
X30626009Y-76461785D02*
X30721247Y-76509404D01*
X30721247Y-76509404D02*
X30959342Y-76509404D01*
X30959342Y-76509404D02*
X31054580Y-76461785D01*
X31054580Y-76461785D02*
X31102200Y-76414166D01*
X31102200Y-76414166D02*
X31149819Y-76318928D01*
X31149819Y-76318928D02*
X31149819Y-76033214D01*
X31149819Y-76033214D02*
X31102200Y-75937976D01*
X31102200Y-75937976D02*
X31054580Y-75890357D01*
X30829819Y-78795595D02*
X29829819Y-78795595D01*
X30829819Y-79367023D02*
X30258390Y-78938452D01*
X29829819Y-79367023D02*
X30401247Y-78795595D01*
X200218569Y-31170714D02*
X199218569Y-31170714D01*
X199218569Y-31170714D02*
X199218569Y-31408809D01*
X199218569Y-31408809D02*
X199266188Y-31551666D01*
X199266188Y-31551666D02*
X199361426Y-31646904D01*
X199361426Y-31646904D02*
X199456664Y-31694523D01*
X199456664Y-31694523D02*
X199647140Y-31742142D01*
X199647140Y-31742142D02*
X199789997Y-31742142D01*
X199789997Y-31742142D02*
X199980473Y-31694523D01*
X199980473Y-31694523D02*
X200075711Y-31646904D01*
X200075711Y-31646904D02*
X200170950Y-31551666D01*
X200170950Y-31551666D02*
X200218569Y-31408809D01*
X200218569Y-31408809D02*
X200218569Y-31170714D01*
X199313807Y-32123095D02*
X199266188Y-32170714D01*
X199266188Y-32170714D02*
X199218569Y-32265952D01*
X199218569Y-32265952D02*
X199218569Y-32504047D01*
X199218569Y-32504047D02*
X199266188Y-32599285D01*
X199266188Y-32599285D02*
X199313807Y-32646904D01*
X199313807Y-32646904D02*
X199409045Y-32694523D01*
X199409045Y-32694523D02*
X199504283Y-32694523D01*
X199504283Y-32694523D02*
X199647140Y-32646904D01*
X199647140Y-32646904D02*
X200218569Y-32075476D01*
X200218569Y-32075476D02*
X200218569Y-32694523D01*
X199218569Y-33599285D02*
X199218569Y-33123095D01*
X199218569Y-33123095D02*
X199694759Y-33075476D01*
X199694759Y-33075476D02*
X199647140Y-33123095D01*
X199647140Y-33123095D02*
X199599521Y-33218333D01*
X199599521Y-33218333D02*
X199599521Y-33456428D01*
X199599521Y-33456428D02*
X199647140Y-33551666D01*
X199647140Y-33551666D02*
X199694759Y-33599285D01*
X199694759Y-33599285D02*
X199789997Y-33646904D01*
X199789997Y-33646904D02*
X200028092Y-33646904D01*
X200028092Y-33646904D02*
X200123330Y-33599285D01*
X200123330Y-33599285D02*
X200170950Y-33551666D01*
X200170950Y-33551666D02*
X200218569Y-33456428D01*
X200218569Y-33456428D02*
X200218569Y-33218333D01*
X200218569Y-33218333D02*
X200170950Y-33123095D01*
X200170950Y-33123095D02*
X200123330Y-33075476D01*
X199898569Y-35933095D02*
X198898569Y-35933095D01*
X199898569Y-36504523D02*
X199327140Y-36075952D01*
X198898569Y-36504523D02*
X199469997Y-35933095D01*
X257368569Y-74033214D02*
X256368569Y-74033214D01*
X256368569Y-74033214D02*
X256368569Y-74271309D01*
X256368569Y-74271309D02*
X256416188Y-74414166D01*
X256416188Y-74414166D02*
X256511426Y-74509404D01*
X256511426Y-74509404D02*
X256606664Y-74557023D01*
X256606664Y-74557023D02*
X256797140Y-74604642D01*
X256797140Y-74604642D02*
X256939997Y-74604642D01*
X256939997Y-74604642D02*
X257130473Y-74557023D01*
X257130473Y-74557023D02*
X257225711Y-74509404D01*
X257225711Y-74509404D02*
X257320950Y-74414166D01*
X257320950Y-74414166D02*
X257368569Y-74271309D01*
X257368569Y-74271309D02*
X257368569Y-74033214D01*
X256701902Y-75461785D02*
X257368569Y-75461785D01*
X256320950Y-75223690D02*
X257035235Y-74985595D01*
X257035235Y-74985595D02*
X257035235Y-75604642D01*
X257368569Y-76509404D02*
X257368569Y-75937976D01*
X257368569Y-76223690D02*
X256368569Y-76223690D01*
X256368569Y-76223690D02*
X256511426Y-76128452D01*
X256511426Y-76128452D02*
X256606664Y-76033214D01*
X256606664Y-76033214D02*
X256654283Y-75937976D01*
X257048569Y-78795595D02*
X256048569Y-78795595D01*
X257048569Y-79367023D02*
X256477140Y-78938452D01*
X256048569Y-79367023D02*
X256619997Y-78795595D01*
X126399819Y-93083214D02*
X125399819Y-93083214D01*
X125399819Y-93083214D02*
X125399819Y-93321309D01*
X125399819Y-93321309D02*
X125447438Y-93464166D01*
X125447438Y-93464166D02*
X125542676Y-93559404D01*
X125542676Y-93559404D02*
X125637914Y-93607023D01*
X125637914Y-93607023D02*
X125828390Y-93654642D01*
X125828390Y-93654642D02*
X125971247Y-93654642D01*
X125971247Y-93654642D02*
X126161723Y-93607023D01*
X126161723Y-93607023D02*
X126256961Y-93559404D01*
X126256961Y-93559404D02*
X126352200Y-93464166D01*
X126352200Y-93464166D02*
X126399819Y-93321309D01*
X126399819Y-93321309D02*
X126399819Y-93083214D01*
X125495057Y-94035595D02*
X125447438Y-94083214D01*
X125447438Y-94083214D02*
X125399819Y-94178452D01*
X125399819Y-94178452D02*
X125399819Y-94416547D01*
X125399819Y-94416547D02*
X125447438Y-94511785D01*
X125447438Y-94511785D02*
X125495057Y-94559404D01*
X125495057Y-94559404D02*
X125590295Y-94607023D01*
X125590295Y-94607023D02*
X125685533Y-94607023D01*
X125685533Y-94607023D02*
X125828390Y-94559404D01*
X125828390Y-94559404D02*
X126399819Y-93987976D01*
X126399819Y-93987976D02*
X126399819Y-94607023D01*
X125495057Y-94987976D02*
X125447438Y-95035595D01*
X125447438Y-95035595D02*
X125399819Y-95130833D01*
X125399819Y-95130833D02*
X125399819Y-95368928D01*
X125399819Y-95368928D02*
X125447438Y-95464166D01*
X125447438Y-95464166D02*
X125495057Y-95511785D01*
X125495057Y-95511785D02*
X125590295Y-95559404D01*
X125590295Y-95559404D02*
X125685533Y-95559404D01*
X125685533Y-95559404D02*
X125828390Y-95511785D01*
X125828390Y-95511785D02*
X126399819Y-94940357D01*
X126399819Y-94940357D02*
X126399819Y-95559404D01*
X126079819Y-97845595D02*
X125079819Y-97845595D01*
X126079819Y-98417023D02*
X125508390Y-97988452D01*
X125079819Y-98417023D02*
X125651247Y-97845595D01*
X219268569Y-64508214D02*
X218268569Y-64508214D01*
X218268569Y-64508214D02*
X218268569Y-64746309D01*
X218268569Y-64746309D02*
X218316188Y-64889166D01*
X218316188Y-64889166D02*
X218411426Y-64984404D01*
X218411426Y-64984404D02*
X218506664Y-65032023D01*
X218506664Y-65032023D02*
X218697140Y-65079642D01*
X218697140Y-65079642D02*
X218839997Y-65079642D01*
X218839997Y-65079642D02*
X219030473Y-65032023D01*
X219030473Y-65032023D02*
X219125711Y-64984404D01*
X219125711Y-64984404D02*
X219220950Y-64889166D01*
X219220950Y-64889166D02*
X219268569Y-64746309D01*
X219268569Y-64746309D02*
X219268569Y-64508214D01*
X218268569Y-65412976D02*
X218268569Y-66032023D01*
X218268569Y-66032023D02*
X218649521Y-65698690D01*
X218649521Y-65698690D02*
X218649521Y-65841547D01*
X218649521Y-65841547D02*
X218697140Y-65936785D01*
X218697140Y-65936785D02*
X218744759Y-65984404D01*
X218744759Y-65984404D02*
X218839997Y-66032023D01*
X218839997Y-66032023D02*
X219078092Y-66032023D01*
X219078092Y-66032023D02*
X219173330Y-65984404D01*
X219173330Y-65984404D02*
X219220950Y-65936785D01*
X219220950Y-65936785D02*
X219268569Y-65841547D01*
X219268569Y-65841547D02*
X219268569Y-65555833D01*
X219268569Y-65555833D02*
X219220950Y-65460595D01*
X219220950Y-65460595D02*
X219173330Y-65412976D01*
X219268569Y-66508214D02*
X219268569Y-66698690D01*
X219268569Y-66698690D02*
X219220950Y-66793928D01*
X219220950Y-66793928D02*
X219173330Y-66841547D01*
X219173330Y-66841547D02*
X219030473Y-66936785D01*
X219030473Y-66936785D02*
X218839997Y-66984404D01*
X218839997Y-66984404D02*
X218459045Y-66984404D01*
X218459045Y-66984404D02*
X218363807Y-66936785D01*
X218363807Y-66936785D02*
X218316188Y-66889166D01*
X218316188Y-66889166D02*
X218268569Y-66793928D01*
X218268569Y-66793928D02*
X218268569Y-66603452D01*
X218268569Y-66603452D02*
X218316188Y-66508214D01*
X218316188Y-66508214D02*
X218363807Y-66460595D01*
X218363807Y-66460595D02*
X218459045Y-66412976D01*
X218459045Y-66412976D02*
X218697140Y-66412976D01*
X218697140Y-66412976D02*
X218792378Y-66460595D01*
X218792378Y-66460595D02*
X218839997Y-66508214D01*
X218839997Y-66508214D02*
X218887616Y-66603452D01*
X218887616Y-66603452D02*
X218887616Y-66793928D01*
X218887616Y-66793928D02*
X218839997Y-66889166D01*
X218839997Y-66889166D02*
X218792378Y-66936785D01*
X218792378Y-66936785D02*
X218697140Y-66984404D01*
X218948569Y-69270595D02*
X217948569Y-69270595D01*
X218948569Y-69842023D02*
X218377140Y-69413452D01*
X217948569Y-69842023D02*
X218519997Y-69270595D01*
X238318569Y-50220714D02*
X237318569Y-50220714D01*
X237318569Y-50220714D02*
X237318569Y-50458809D01*
X237318569Y-50458809D02*
X237366188Y-50601666D01*
X237366188Y-50601666D02*
X237461426Y-50696904D01*
X237461426Y-50696904D02*
X237556664Y-50744523D01*
X237556664Y-50744523D02*
X237747140Y-50792142D01*
X237747140Y-50792142D02*
X237889997Y-50792142D01*
X237889997Y-50792142D02*
X238080473Y-50744523D01*
X238080473Y-50744523D02*
X238175711Y-50696904D01*
X238175711Y-50696904D02*
X238270950Y-50601666D01*
X238270950Y-50601666D02*
X238318569Y-50458809D01*
X238318569Y-50458809D02*
X238318569Y-50220714D01*
X237318569Y-51125476D02*
X237318569Y-51744523D01*
X237318569Y-51744523D02*
X237699521Y-51411190D01*
X237699521Y-51411190D02*
X237699521Y-51554047D01*
X237699521Y-51554047D02*
X237747140Y-51649285D01*
X237747140Y-51649285D02*
X237794759Y-51696904D01*
X237794759Y-51696904D02*
X237889997Y-51744523D01*
X237889997Y-51744523D02*
X238128092Y-51744523D01*
X238128092Y-51744523D02*
X238223330Y-51696904D01*
X238223330Y-51696904D02*
X238270950Y-51649285D01*
X238270950Y-51649285D02*
X238318569Y-51554047D01*
X238318569Y-51554047D02*
X238318569Y-51268333D01*
X238318569Y-51268333D02*
X238270950Y-51173095D01*
X238270950Y-51173095D02*
X238223330Y-51125476D01*
X237318569Y-52077857D02*
X237318569Y-52696904D01*
X237318569Y-52696904D02*
X237699521Y-52363571D01*
X237699521Y-52363571D02*
X237699521Y-52506428D01*
X237699521Y-52506428D02*
X237747140Y-52601666D01*
X237747140Y-52601666D02*
X237794759Y-52649285D01*
X237794759Y-52649285D02*
X237889997Y-52696904D01*
X237889997Y-52696904D02*
X238128092Y-52696904D01*
X238128092Y-52696904D02*
X238223330Y-52649285D01*
X238223330Y-52649285D02*
X238270950Y-52601666D01*
X238270950Y-52601666D02*
X238318569Y-52506428D01*
X238318569Y-52506428D02*
X238318569Y-52220714D01*
X238318569Y-52220714D02*
X238270950Y-52125476D01*
X238270950Y-52125476D02*
X238223330Y-52077857D01*
X237998569Y-54983095D02*
X236998569Y-54983095D01*
X237998569Y-55554523D02*
X237427140Y-55125952D01*
X236998569Y-55554523D02*
X237569997Y-54983095D01*
X31149819Y-36409405D02*
X30149819Y-36409405D01*
X30149819Y-36409405D02*
X30149819Y-36647500D01*
X30149819Y-36647500D02*
X30197438Y-36790357D01*
X30197438Y-36790357D02*
X30292676Y-36885595D01*
X30292676Y-36885595D02*
X30387914Y-36933214D01*
X30387914Y-36933214D02*
X30578390Y-36980833D01*
X30578390Y-36980833D02*
X30721247Y-36980833D01*
X30721247Y-36980833D02*
X30911723Y-36933214D01*
X30911723Y-36933214D02*
X31006961Y-36885595D01*
X31006961Y-36885595D02*
X31102200Y-36790357D01*
X31102200Y-36790357D02*
X31149819Y-36647500D01*
X31149819Y-36647500D02*
X31149819Y-36409405D01*
X31149819Y-37933214D02*
X31149819Y-37361786D01*
X31149819Y-37647500D02*
X30149819Y-37647500D01*
X30149819Y-37647500D02*
X30292676Y-37552262D01*
X30292676Y-37552262D02*
X30387914Y-37457024D01*
X30387914Y-37457024D02*
X30435533Y-37361786D01*
X30829819Y-40695595D02*
X29829819Y-40695595D01*
X30829819Y-41267023D02*
X30258390Y-40838452D01*
X29829819Y-41267023D02*
X30401247Y-40695595D01*
X88299819Y-83558214D02*
X87299819Y-83558214D01*
X87299819Y-83558214D02*
X87299819Y-83796309D01*
X87299819Y-83796309D02*
X87347438Y-83939166D01*
X87347438Y-83939166D02*
X87442676Y-84034404D01*
X87442676Y-84034404D02*
X87537914Y-84082023D01*
X87537914Y-84082023D02*
X87728390Y-84129642D01*
X87728390Y-84129642D02*
X87871247Y-84129642D01*
X87871247Y-84129642D02*
X88061723Y-84082023D01*
X88061723Y-84082023D02*
X88156961Y-84034404D01*
X88156961Y-84034404D02*
X88252200Y-83939166D01*
X88252200Y-83939166D02*
X88299819Y-83796309D01*
X88299819Y-83796309D02*
X88299819Y-83558214D01*
X87395057Y-84510595D02*
X87347438Y-84558214D01*
X87347438Y-84558214D02*
X87299819Y-84653452D01*
X87299819Y-84653452D02*
X87299819Y-84891547D01*
X87299819Y-84891547D02*
X87347438Y-84986785D01*
X87347438Y-84986785D02*
X87395057Y-85034404D01*
X87395057Y-85034404D02*
X87490295Y-85082023D01*
X87490295Y-85082023D02*
X87585533Y-85082023D01*
X87585533Y-85082023D02*
X87728390Y-85034404D01*
X87728390Y-85034404D02*
X88299819Y-84462976D01*
X88299819Y-84462976D02*
X88299819Y-85082023D01*
X87299819Y-85701071D02*
X87299819Y-85796309D01*
X87299819Y-85796309D02*
X87347438Y-85891547D01*
X87347438Y-85891547D02*
X87395057Y-85939166D01*
X87395057Y-85939166D02*
X87490295Y-85986785D01*
X87490295Y-85986785D02*
X87680771Y-86034404D01*
X87680771Y-86034404D02*
X87918866Y-86034404D01*
X87918866Y-86034404D02*
X88109342Y-85986785D01*
X88109342Y-85986785D02*
X88204580Y-85939166D01*
X88204580Y-85939166D02*
X88252200Y-85891547D01*
X88252200Y-85891547D02*
X88299819Y-85796309D01*
X88299819Y-85796309D02*
X88299819Y-85701071D01*
X88299819Y-85701071D02*
X88252200Y-85605833D01*
X88252200Y-85605833D02*
X88204580Y-85558214D01*
X88204580Y-85558214D02*
X88109342Y-85510595D01*
X88109342Y-85510595D02*
X87918866Y-85462976D01*
X87918866Y-85462976D02*
X87680771Y-85462976D01*
X87680771Y-85462976D02*
X87490295Y-85510595D01*
X87490295Y-85510595D02*
X87395057Y-85558214D01*
X87395057Y-85558214D02*
X87347438Y-85605833D01*
X87347438Y-85605833D02*
X87299819Y-85701071D01*
X87979819Y-88320595D02*
X86979819Y-88320595D01*
X87979819Y-88892023D02*
X87408390Y-88463452D01*
X86979819Y-88892023D02*
X87551247Y-88320595D01*
X257368569Y-54983214D02*
X256368569Y-54983214D01*
X256368569Y-54983214D02*
X256368569Y-55221309D01*
X256368569Y-55221309D02*
X256416188Y-55364166D01*
X256416188Y-55364166D02*
X256511426Y-55459404D01*
X256511426Y-55459404D02*
X256606664Y-55507023D01*
X256606664Y-55507023D02*
X256797140Y-55554642D01*
X256797140Y-55554642D02*
X256939997Y-55554642D01*
X256939997Y-55554642D02*
X257130473Y-55507023D01*
X257130473Y-55507023D02*
X257225711Y-55459404D01*
X257225711Y-55459404D02*
X257320950Y-55364166D01*
X257320950Y-55364166D02*
X257368569Y-55221309D01*
X257368569Y-55221309D02*
X257368569Y-54983214D01*
X256368569Y-55887976D02*
X256368569Y-56507023D01*
X256368569Y-56507023D02*
X256749521Y-56173690D01*
X256749521Y-56173690D02*
X256749521Y-56316547D01*
X256749521Y-56316547D02*
X256797140Y-56411785D01*
X256797140Y-56411785D02*
X256844759Y-56459404D01*
X256844759Y-56459404D02*
X256939997Y-56507023D01*
X256939997Y-56507023D02*
X257178092Y-56507023D01*
X257178092Y-56507023D02*
X257273330Y-56459404D01*
X257273330Y-56459404D02*
X257320950Y-56411785D01*
X257320950Y-56411785D02*
X257368569Y-56316547D01*
X257368569Y-56316547D02*
X257368569Y-56030833D01*
X257368569Y-56030833D02*
X257320950Y-55935595D01*
X257320950Y-55935595D02*
X257273330Y-55887976D01*
X256701902Y-57364166D02*
X257368569Y-57364166D01*
X256320950Y-57126071D02*
X257035235Y-56887976D01*
X257035235Y-56887976D02*
X257035235Y-57507023D01*
X257048569Y-59745595D02*
X256048569Y-59745595D01*
X257048569Y-60317023D02*
X256477140Y-59888452D01*
X256048569Y-60317023D02*
X256619997Y-59745595D01*
X200218569Y-50220714D02*
X199218569Y-50220714D01*
X199218569Y-50220714D02*
X199218569Y-50458809D01*
X199218569Y-50458809D02*
X199266188Y-50601666D01*
X199266188Y-50601666D02*
X199361426Y-50696904D01*
X199361426Y-50696904D02*
X199456664Y-50744523D01*
X199456664Y-50744523D02*
X199647140Y-50792142D01*
X199647140Y-50792142D02*
X199789997Y-50792142D01*
X199789997Y-50792142D02*
X199980473Y-50744523D01*
X199980473Y-50744523D02*
X200075711Y-50696904D01*
X200075711Y-50696904D02*
X200170950Y-50601666D01*
X200170950Y-50601666D02*
X200218569Y-50458809D01*
X200218569Y-50458809D02*
X200218569Y-50220714D01*
X199218569Y-51125476D02*
X199218569Y-51744523D01*
X199218569Y-51744523D02*
X199599521Y-51411190D01*
X199599521Y-51411190D02*
X199599521Y-51554047D01*
X199599521Y-51554047D02*
X199647140Y-51649285D01*
X199647140Y-51649285D02*
X199694759Y-51696904D01*
X199694759Y-51696904D02*
X199789997Y-51744523D01*
X199789997Y-51744523D02*
X200028092Y-51744523D01*
X200028092Y-51744523D02*
X200123330Y-51696904D01*
X200123330Y-51696904D02*
X200170950Y-51649285D01*
X200170950Y-51649285D02*
X200218569Y-51554047D01*
X200218569Y-51554047D02*
X200218569Y-51268333D01*
X200218569Y-51268333D02*
X200170950Y-51173095D01*
X200170950Y-51173095D02*
X200123330Y-51125476D01*
X200218569Y-52696904D02*
X200218569Y-52125476D01*
X200218569Y-52411190D02*
X199218569Y-52411190D01*
X199218569Y-52411190D02*
X199361426Y-52315952D01*
X199361426Y-52315952D02*
X199456664Y-52220714D01*
X199456664Y-52220714D02*
X199504283Y-52125476D01*
X199898569Y-54983095D02*
X198898569Y-54983095D01*
X199898569Y-55554523D02*
X199327140Y-55125952D01*
X198898569Y-55554523D02*
X199469997Y-54983095D01*
X69249819Y-50696905D02*
X68249819Y-50696905D01*
X68249819Y-50696905D02*
X68249819Y-50935000D01*
X68249819Y-50935000D02*
X68297438Y-51077857D01*
X68297438Y-51077857D02*
X68392676Y-51173095D01*
X68392676Y-51173095D02*
X68487914Y-51220714D01*
X68487914Y-51220714D02*
X68678390Y-51268333D01*
X68678390Y-51268333D02*
X68821247Y-51268333D01*
X68821247Y-51268333D02*
X69011723Y-51220714D01*
X69011723Y-51220714D02*
X69106961Y-51173095D01*
X69106961Y-51173095D02*
X69202200Y-51077857D01*
X69202200Y-51077857D02*
X69249819Y-50935000D01*
X69249819Y-50935000D02*
X69249819Y-50696905D01*
X69249819Y-51744524D02*
X69249819Y-51935000D01*
X69249819Y-51935000D02*
X69202200Y-52030238D01*
X69202200Y-52030238D02*
X69154580Y-52077857D01*
X69154580Y-52077857D02*
X69011723Y-52173095D01*
X69011723Y-52173095D02*
X68821247Y-52220714D01*
X68821247Y-52220714D02*
X68440295Y-52220714D01*
X68440295Y-52220714D02*
X68345057Y-52173095D01*
X68345057Y-52173095D02*
X68297438Y-52125476D01*
X68297438Y-52125476D02*
X68249819Y-52030238D01*
X68249819Y-52030238D02*
X68249819Y-51839762D01*
X68249819Y-51839762D02*
X68297438Y-51744524D01*
X68297438Y-51744524D02*
X68345057Y-51696905D01*
X68345057Y-51696905D02*
X68440295Y-51649286D01*
X68440295Y-51649286D02*
X68678390Y-51649286D01*
X68678390Y-51649286D02*
X68773628Y-51696905D01*
X68773628Y-51696905D02*
X68821247Y-51744524D01*
X68821247Y-51744524D02*
X68868866Y-51839762D01*
X68868866Y-51839762D02*
X68868866Y-52030238D01*
X68868866Y-52030238D02*
X68821247Y-52125476D01*
X68821247Y-52125476D02*
X68773628Y-52173095D01*
X68773628Y-52173095D02*
X68678390Y-52220714D01*
X68929819Y-54983095D02*
X67929819Y-54983095D01*
X68929819Y-55554523D02*
X68358390Y-55125952D01*
X67929819Y-55554523D02*
X68501247Y-54983095D01*
X181168569Y-54983214D02*
X180168569Y-54983214D01*
X180168569Y-54983214D02*
X180168569Y-55221309D01*
X180168569Y-55221309D02*
X180216188Y-55364166D01*
X180216188Y-55364166D02*
X180311426Y-55459404D01*
X180311426Y-55459404D02*
X180406664Y-55507023D01*
X180406664Y-55507023D02*
X180597140Y-55554642D01*
X180597140Y-55554642D02*
X180739997Y-55554642D01*
X180739997Y-55554642D02*
X180930473Y-55507023D01*
X180930473Y-55507023D02*
X181025711Y-55459404D01*
X181025711Y-55459404D02*
X181120950Y-55364166D01*
X181120950Y-55364166D02*
X181168569Y-55221309D01*
X181168569Y-55221309D02*
X181168569Y-54983214D01*
X180168569Y-55887976D02*
X180168569Y-56507023D01*
X180168569Y-56507023D02*
X180549521Y-56173690D01*
X180549521Y-56173690D02*
X180549521Y-56316547D01*
X180549521Y-56316547D02*
X180597140Y-56411785D01*
X180597140Y-56411785D02*
X180644759Y-56459404D01*
X180644759Y-56459404D02*
X180739997Y-56507023D01*
X180739997Y-56507023D02*
X180978092Y-56507023D01*
X180978092Y-56507023D02*
X181073330Y-56459404D01*
X181073330Y-56459404D02*
X181120950Y-56411785D01*
X181120950Y-56411785D02*
X181168569Y-56316547D01*
X181168569Y-56316547D02*
X181168569Y-56030833D01*
X181168569Y-56030833D02*
X181120950Y-55935595D01*
X181120950Y-55935595D02*
X181073330Y-55887976D01*
X180168569Y-57126071D02*
X180168569Y-57221309D01*
X180168569Y-57221309D02*
X180216188Y-57316547D01*
X180216188Y-57316547D02*
X180263807Y-57364166D01*
X180263807Y-57364166D02*
X180359045Y-57411785D01*
X180359045Y-57411785D02*
X180549521Y-57459404D01*
X180549521Y-57459404D02*
X180787616Y-57459404D01*
X180787616Y-57459404D02*
X180978092Y-57411785D01*
X180978092Y-57411785D02*
X181073330Y-57364166D01*
X181073330Y-57364166D02*
X181120950Y-57316547D01*
X181120950Y-57316547D02*
X181168569Y-57221309D01*
X181168569Y-57221309D02*
X181168569Y-57126071D01*
X181168569Y-57126071D02*
X181120950Y-57030833D01*
X181120950Y-57030833D02*
X181073330Y-56983214D01*
X181073330Y-56983214D02*
X180978092Y-56935595D01*
X180978092Y-56935595D02*
X180787616Y-56887976D01*
X180787616Y-56887976D02*
X180549521Y-56887976D01*
X180549521Y-56887976D02*
X180359045Y-56935595D01*
X180359045Y-56935595D02*
X180263807Y-56983214D01*
X180263807Y-56983214D02*
X180216188Y-57030833D01*
X180216188Y-57030833D02*
X180168569Y-57126071D01*
X180848569Y-59745595D02*
X179848569Y-59745595D01*
X180848569Y-60317023D02*
X180277140Y-59888452D01*
X179848569Y-60317023D02*
X180419997Y-59745595D01*
X69249819Y-69270714D02*
X68249819Y-69270714D01*
X68249819Y-69270714D02*
X68249819Y-69508809D01*
X68249819Y-69508809D02*
X68297438Y-69651666D01*
X68297438Y-69651666D02*
X68392676Y-69746904D01*
X68392676Y-69746904D02*
X68487914Y-69794523D01*
X68487914Y-69794523D02*
X68678390Y-69842142D01*
X68678390Y-69842142D02*
X68821247Y-69842142D01*
X68821247Y-69842142D02*
X69011723Y-69794523D01*
X69011723Y-69794523D02*
X69106961Y-69746904D01*
X69106961Y-69746904D02*
X69202200Y-69651666D01*
X69202200Y-69651666D02*
X69249819Y-69508809D01*
X69249819Y-69508809D02*
X69249819Y-69270714D01*
X69249819Y-70794523D02*
X69249819Y-70223095D01*
X69249819Y-70508809D02*
X68249819Y-70508809D01*
X68249819Y-70508809D02*
X68392676Y-70413571D01*
X68392676Y-70413571D02*
X68487914Y-70318333D01*
X68487914Y-70318333D02*
X68535533Y-70223095D01*
X68249819Y-71699285D02*
X68249819Y-71223095D01*
X68249819Y-71223095D02*
X68726009Y-71175476D01*
X68726009Y-71175476D02*
X68678390Y-71223095D01*
X68678390Y-71223095D02*
X68630771Y-71318333D01*
X68630771Y-71318333D02*
X68630771Y-71556428D01*
X68630771Y-71556428D02*
X68678390Y-71651666D01*
X68678390Y-71651666D02*
X68726009Y-71699285D01*
X68726009Y-71699285D02*
X68821247Y-71746904D01*
X68821247Y-71746904D02*
X69059342Y-71746904D01*
X69059342Y-71746904D02*
X69154580Y-71699285D01*
X69154580Y-71699285D02*
X69202200Y-71651666D01*
X69202200Y-71651666D02*
X69249819Y-71556428D01*
X69249819Y-71556428D02*
X69249819Y-71318333D01*
X69249819Y-71318333D02*
X69202200Y-71223095D01*
X69202200Y-71223095D02*
X69154580Y-71175476D01*
X68929819Y-74033095D02*
X67929819Y-74033095D01*
X68929819Y-74604523D02*
X68358390Y-74175952D01*
X67929819Y-74604523D02*
X68501247Y-74033095D01*
X145449819Y-74033214D02*
X144449819Y-74033214D01*
X144449819Y-74033214D02*
X144449819Y-74271309D01*
X144449819Y-74271309D02*
X144497438Y-74414166D01*
X144497438Y-74414166D02*
X144592676Y-74509404D01*
X144592676Y-74509404D02*
X144687914Y-74557023D01*
X144687914Y-74557023D02*
X144878390Y-74604642D01*
X144878390Y-74604642D02*
X145021247Y-74604642D01*
X145021247Y-74604642D02*
X145211723Y-74557023D01*
X145211723Y-74557023D02*
X145306961Y-74509404D01*
X145306961Y-74509404D02*
X145402200Y-74414166D01*
X145402200Y-74414166D02*
X145449819Y-74271309D01*
X145449819Y-74271309D02*
X145449819Y-74033214D01*
X145449819Y-75557023D02*
X145449819Y-74985595D01*
X145449819Y-75271309D02*
X144449819Y-75271309D01*
X144449819Y-75271309D02*
X144592676Y-75176071D01*
X144592676Y-75176071D02*
X144687914Y-75080833D01*
X144687914Y-75080833D02*
X144735533Y-74985595D01*
X145449819Y-76033214D02*
X145449819Y-76223690D01*
X145449819Y-76223690D02*
X145402200Y-76318928D01*
X145402200Y-76318928D02*
X145354580Y-76366547D01*
X145354580Y-76366547D02*
X145211723Y-76461785D01*
X145211723Y-76461785D02*
X145021247Y-76509404D01*
X145021247Y-76509404D02*
X144640295Y-76509404D01*
X144640295Y-76509404D02*
X144545057Y-76461785D01*
X144545057Y-76461785D02*
X144497438Y-76414166D01*
X144497438Y-76414166D02*
X144449819Y-76318928D01*
X144449819Y-76318928D02*
X144449819Y-76128452D01*
X144449819Y-76128452D02*
X144497438Y-76033214D01*
X144497438Y-76033214D02*
X144545057Y-75985595D01*
X144545057Y-75985595D02*
X144640295Y-75937976D01*
X144640295Y-75937976D02*
X144878390Y-75937976D01*
X144878390Y-75937976D02*
X144973628Y-75985595D01*
X144973628Y-75985595D02*
X145021247Y-76033214D01*
X145021247Y-76033214D02*
X145068866Y-76128452D01*
X145068866Y-76128452D02*
X145068866Y-76318928D01*
X145068866Y-76318928D02*
X145021247Y-76414166D01*
X145021247Y-76414166D02*
X144973628Y-76461785D01*
X144973628Y-76461785D02*
X144878390Y-76509404D01*
X145129819Y-78795595D02*
X144129819Y-78795595D01*
X145129819Y-79367023D02*
X144558390Y-78938452D01*
X144129819Y-79367023D02*
X144701247Y-78795595D01*
X238318569Y-31170714D02*
X237318569Y-31170714D01*
X237318569Y-31170714D02*
X237318569Y-31408809D01*
X237318569Y-31408809D02*
X237366188Y-31551666D01*
X237366188Y-31551666D02*
X237461426Y-31646904D01*
X237461426Y-31646904D02*
X237556664Y-31694523D01*
X237556664Y-31694523D02*
X237747140Y-31742142D01*
X237747140Y-31742142D02*
X237889997Y-31742142D01*
X237889997Y-31742142D02*
X238080473Y-31694523D01*
X238080473Y-31694523D02*
X238175711Y-31646904D01*
X238175711Y-31646904D02*
X238270950Y-31551666D01*
X238270950Y-31551666D02*
X238318569Y-31408809D01*
X238318569Y-31408809D02*
X238318569Y-31170714D01*
X237413807Y-32123095D02*
X237366188Y-32170714D01*
X237366188Y-32170714D02*
X237318569Y-32265952D01*
X237318569Y-32265952D02*
X237318569Y-32504047D01*
X237318569Y-32504047D02*
X237366188Y-32599285D01*
X237366188Y-32599285D02*
X237413807Y-32646904D01*
X237413807Y-32646904D02*
X237509045Y-32694523D01*
X237509045Y-32694523D02*
X237604283Y-32694523D01*
X237604283Y-32694523D02*
X237747140Y-32646904D01*
X237747140Y-32646904D02*
X238318569Y-32075476D01*
X238318569Y-32075476D02*
X238318569Y-32694523D01*
X237318569Y-33027857D02*
X237318569Y-33694523D01*
X237318569Y-33694523D02*
X238318569Y-33265952D01*
X237998569Y-35933095D02*
X236998569Y-35933095D01*
X237998569Y-36504523D02*
X237427140Y-36075952D01*
X236998569Y-36504523D02*
X237569997Y-35933095D01*
X50199819Y-74033214D02*
X49199819Y-74033214D01*
X49199819Y-74033214D02*
X49199819Y-74271309D01*
X49199819Y-74271309D02*
X49247438Y-74414166D01*
X49247438Y-74414166D02*
X49342676Y-74509404D01*
X49342676Y-74509404D02*
X49437914Y-74557023D01*
X49437914Y-74557023D02*
X49628390Y-74604642D01*
X49628390Y-74604642D02*
X49771247Y-74604642D01*
X49771247Y-74604642D02*
X49961723Y-74557023D01*
X49961723Y-74557023D02*
X50056961Y-74509404D01*
X50056961Y-74509404D02*
X50152200Y-74414166D01*
X50152200Y-74414166D02*
X50199819Y-74271309D01*
X50199819Y-74271309D02*
X50199819Y-74033214D01*
X50199819Y-75557023D02*
X50199819Y-74985595D01*
X50199819Y-75271309D02*
X49199819Y-75271309D01*
X49199819Y-75271309D02*
X49342676Y-75176071D01*
X49342676Y-75176071D02*
X49437914Y-75080833D01*
X49437914Y-75080833D02*
X49485533Y-74985595D01*
X49533152Y-76414166D02*
X50199819Y-76414166D01*
X49152200Y-76176071D02*
X49866485Y-75937976D01*
X49866485Y-75937976D02*
X49866485Y-76557023D01*
X49879819Y-78795595D02*
X48879819Y-78795595D01*
X49879819Y-79367023D02*
X49308390Y-78938452D01*
X48879819Y-79367023D02*
X49451247Y-78795595D01*
X69249819Y-31646905D02*
X68249819Y-31646905D01*
X68249819Y-31646905D02*
X68249819Y-31885000D01*
X68249819Y-31885000D02*
X68297438Y-32027857D01*
X68297438Y-32027857D02*
X68392676Y-32123095D01*
X68392676Y-32123095D02*
X68487914Y-32170714D01*
X68487914Y-32170714D02*
X68678390Y-32218333D01*
X68678390Y-32218333D02*
X68821247Y-32218333D01*
X68821247Y-32218333D02*
X69011723Y-32170714D01*
X69011723Y-32170714D02*
X69106961Y-32123095D01*
X69106961Y-32123095D02*
X69202200Y-32027857D01*
X69202200Y-32027857D02*
X69249819Y-31885000D01*
X69249819Y-31885000D02*
X69249819Y-31646905D01*
X68249819Y-32551667D02*
X68249819Y-33170714D01*
X68249819Y-33170714D02*
X68630771Y-32837381D01*
X68630771Y-32837381D02*
X68630771Y-32980238D01*
X68630771Y-32980238D02*
X68678390Y-33075476D01*
X68678390Y-33075476D02*
X68726009Y-33123095D01*
X68726009Y-33123095D02*
X68821247Y-33170714D01*
X68821247Y-33170714D02*
X69059342Y-33170714D01*
X69059342Y-33170714D02*
X69154580Y-33123095D01*
X69154580Y-33123095D02*
X69202200Y-33075476D01*
X69202200Y-33075476D02*
X69249819Y-32980238D01*
X69249819Y-32980238D02*
X69249819Y-32694524D01*
X69249819Y-32694524D02*
X69202200Y-32599286D01*
X69202200Y-32599286D02*
X69154580Y-32551667D01*
X68929819Y-35933095D02*
X67929819Y-35933095D01*
X68929819Y-36504523D02*
X68358390Y-36075952D01*
X67929819Y-36504523D02*
X68501247Y-35933095D01*
X126399819Y-36409405D02*
X125399819Y-36409405D01*
X125399819Y-36409405D02*
X125399819Y-36647500D01*
X125399819Y-36647500D02*
X125447438Y-36790357D01*
X125447438Y-36790357D02*
X125542676Y-36885595D01*
X125542676Y-36885595D02*
X125637914Y-36933214D01*
X125637914Y-36933214D02*
X125828390Y-36980833D01*
X125828390Y-36980833D02*
X125971247Y-36980833D01*
X125971247Y-36980833D02*
X126161723Y-36933214D01*
X126161723Y-36933214D02*
X126256961Y-36885595D01*
X126256961Y-36885595D02*
X126352200Y-36790357D01*
X126352200Y-36790357D02*
X126399819Y-36647500D01*
X126399819Y-36647500D02*
X126399819Y-36409405D01*
X125399819Y-37837976D02*
X125399819Y-37647500D01*
X125399819Y-37647500D02*
X125447438Y-37552262D01*
X125447438Y-37552262D02*
X125495057Y-37504643D01*
X125495057Y-37504643D02*
X125637914Y-37409405D01*
X125637914Y-37409405D02*
X125828390Y-37361786D01*
X125828390Y-37361786D02*
X126209342Y-37361786D01*
X126209342Y-37361786D02*
X126304580Y-37409405D01*
X126304580Y-37409405D02*
X126352200Y-37457024D01*
X126352200Y-37457024D02*
X126399819Y-37552262D01*
X126399819Y-37552262D02*
X126399819Y-37742738D01*
X126399819Y-37742738D02*
X126352200Y-37837976D01*
X126352200Y-37837976D02*
X126304580Y-37885595D01*
X126304580Y-37885595D02*
X126209342Y-37933214D01*
X126209342Y-37933214D02*
X125971247Y-37933214D01*
X125971247Y-37933214D02*
X125876009Y-37885595D01*
X125876009Y-37885595D02*
X125828390Y-37837976D01*
X125828390Y-37837976D02*
X125780771Y-37742738D01*
X125780771Y-37742738D02*
X125780771Y-37552262D01*
X125780771Y-37552262D02*
X125828390Y-37457024D01*
X125828390Y-37457024D02*
X125876009Y-37409405D01*
X125876009Y-37409405D02*
X125971247Y-37361786D01*
X126079819Y-40695595D02*
X125079819Y-40695595D01*
X126079819Y-41267023D02*
X125508390Y-40838452D01*
X125079819Y-41267023D02*
X125651247Y-40695595D01*
X276418569Y-74033214D02*
X275418569Y-74033214D01*
X275418569Y-74033214D02*
X275418569Y-74271309D01*
X275418569Y-74271309D02*
X275466188Y-74414166D01*
X275466188Y-74414166D02*
X275561426Y-74509404D01*
X275561426Y-74509404D02*
X275656664Y-74557023D01*
X275656664Y-74557023D02*
X275847140Y-74604642D01*
X275847140Y-74604642D02*
X275989997Y-74604642D01*
X275989997Y-74604642D02*
X276180473Y-74557023D01*
X276180473Y-74557023D02*
X276275711Y-74509404D01*
X276275711Y-74509404D02*
X276370950Y-74414166D01*
X276370950Y-74414166D02*
X276418569Y-74271309D01*
X276418569Y-74271309D02*
X276418569Y-74033214D01*
X275751902Y-75461785D02*
X276418569Y-75461785D01*
X275370950Y-75223690D02*
X276085235Y-74985595D01*
X276085235Y-74985595D02*
X276085235Y-75604642D01*
X275513807Y-75937976D02*
X275466188Y-75985595D01*
X275466188Y-75985595D02*
X275418569Y-76080833D01*
X275418569Y-76080833D02*
X275418569Y-76318928D01*
X275418569Y-76318928D02*
X275466188Y-76414166D01*
X275466188Y-76414166D02*
X275513807Y-76461785D01*
X275513807Y-76461785D02*
X275609045Y-76509404D01*
X275609045Y-76509404D02*
X275704283Y-76509404D01*
X275704283Y-76509404D02*
X275847140Y-76461785D01*
X275847140Y-76461785D02*
X276418569Y-75890357D01*
X276418569Y-75890357D02*
X276418569Y-76509404D01*
X276098569Y-78795595D02*
X275098569Y-78795595D01*
X276098569Y-79367023D02*
X275527140Y-78938452D01*
X275098569Y-79367023D02*
X275669997Y-78795595D01*
X162118569Y-74033214D02*
X161118569Y-74033214D01*
X161118569Y-74033214D02*
X161118569Y-74271309D01*
X161118569Y-74271309D02*
X161166188Y-74414166D01*
X161166188Y-74414166D02*
X161261426Y-74509404D01*
X161261426Y-74509404D02*
X161356664Y-74557023D01*
X161356664Y-74557023D02*
X161547140Y-74604642D01*
X161547140Y-74604642D02*
X161689997Y-74604642D01*
X161689997Y-74604642D02*
X161880473Y-74557023D01*
X161880473Y-74557023D02*
X161975711Y-74509404D01*
X161975711Y-74509404D02*
X162070950Y-74414166D01*
X162070950Y-74414166D02*
X162118569Y-74271309D01*
X162118569Y-74271309D02*
X162118569Y-74033214D01*
X161118569Y-74937976D02*
X161118569Y-75557023D01*
X161118569Y-75557023D02*
X161499521Y-75223690D01*
X161499521Y-75223690D02*
X161499521Y-75366547D01*
X161499521Y-75366547D02*
X161547140Y-75461785D01*
X161547140Y-75461785D02*
X161594759Y-75509404D01*
X161594759Y-75509404D02*
X161689997Y-75557023D01*
X161689997Y-75557023D02*
X161928092Y-75557023D01*
X161928092Y-75557023D02*
X162023330Y-75509404D01*
X162023330Y-75509404D02*
X162070950Y-75461785D01*
X162070950Y-75461785D02*
X162118569Y-75366547D01*
X162118569Y-75366547D02*
X162118569Y-75080833D01*
X162118569Y-75080833D02*
X162070950Y-74985595D01*
X162070950Y-74985595D02*
X162023330Y-74937976D01*
X161118569Y-76414166D02*
X161118569Y-76223690D01*
X161118569Y-76223690D02*
X161166188Y-76128452D01*
X161166188Y-76128452D02*
X161213807Y-76080833D01*
X161213807Y-76080833D02*
X161356664Y-75985595D01*
X161356664Y-75985595D02*
X161547140Y-75937976D01*
X161547140Y-75937976D02*
X161928092Y-75937976D01*
X161928092Y-75937976D02*
X162023330Y-75985595D01*
X162023330Y-75985595D02*
X162070950Y-76033214D01*
X162070950Y-76033214D02*
X162118569Y-76128452D01*
X162118569Y-76128452D02*
X162118569Y-76318928D01*
X162118569Y-76318928D02*
X162070950Y-76414166D01*
X162070950Y-76414166D02*
X162023330Y-76461785D01*
X162023330Y-76461785D02*
X161928092Y-76509404D01*
X161928092Y-76509404D02*
X161689997Y-76509404D01*
X161689997Y-76509404D02*
X161594759Y-76461785D01*
X161594759Y-76461785D02*
X161547140Y-76414166D01*
X161547140Y-76414166D02*
X161499521Y-76318928D01*
X161499521Y-76318928D02*
X161499521Y-76128452D01*
X161499521Y-76128452D02*
X161547140Y-76033214D01*
X161547140Y-76033214D02*
X161594759Y-75985595D01*
X161594759Y-75985595D02*
X161689997Y-75937976D01*
X161798569Y-78795595D02*
X160798569Y-78795595D01*
X161798569Y-79367023D02*
X161227140Y-78938452D01*
X160798569Y-79367023D02*
X161369997Y-78795595D01*
X50199819Y-55459405D02*
X49199819Y-55459405D01*
X49199819Y-55459405D02*
X49199819Y-55697500D01*
X49199819Y-55697500D02*
X49247438Y-55840357D01*
X49247438Y-55840357D02*
X49342676Y-55935595D01*
X49342676Y-55935595D02*
X49437914Y-55983214D01*
X49437914Y-55983214D02*
X49628390Y-56030833D01*
X49628390Y-56030833D02*
X49771247Y-56030833D01*
X49771247Y-56030833D02*
X49961723Y-55983214D01*
X49961723Y-55983214D02*
X50056961Y-55935595D01*
X50056961Y-55935595D02*
X50152200Y-55840357D01*
X50152200Y-55840357D02*
X50199819Y-55697500D01*
X50199819Y-55697500D02*
X50199819Y-55459405D01*
X49628390Y-56602262D02*
X49580771Y-56507024D01*
X49580771Y-56507024D02*
X49533152Y-56459405D01*
X49533152Y-56459405D02*
X49437914Y-56411786D01*
X49437914Y-56411786D02*
X49390295Y-56411786D01*
X49390295Y-56411786D02*
X49295057Y-56459405D01*
X49295057Y-56459405D02*
X49247438Y-56507024D01*
X49247438Y-56507024D02*
X49199819Y-56602262D01*
X49199819Y-56602262D02*
X49199819Y-56792738D01*
X49199819Y-56792738D02*
X49247438Y-56887976D01*
X49247438Y-56887976D02*
X49295057Y-56935595D01*
X49295057Y-56935595D02*
X49390295Y-56983214D01*
X49390295Y-56983214D02*
X49437914Y-56983214D01*
X49437914Y-56983214D02*
X49533152Y-56935595D01*
X49533152Y-56935595D02*
X49580771Y-56887976D01*
X49580771Y-56887976D02*
X49628390Y-56792738D01*
X49628390Y-56792738D02*
X49628390Y-56602262D01*
X49628390Y-56602262D02*
X49676009Y-56507024D01*
X49676009Y-56507024D02*
X49723628Y-56459405D01*
X49723628Y-56459405D02*
X49818866Y-56411786D01*
X49818866Y-56411786D02*
X50009342Y-56411786D01*
X50009342Y-56411786D02*
X50104580Y-56459405D01*
X50104580Y-56459405D02*
X50152200Y-56507024D01*
X50152200Y-56507024D02*
X50199819Y-56602262D01*
X50199819Y-56602262D02*
X50199819Y-56792738D01*
X50199819Y-56792738D02*
X50152200Y-56887976D01*
X50152200Y-56887976D02*
X50104580Y-56935595D01*
X50104580Y-56935595D02*
X50009342Y-56983214D01*
X50009342Y-56983214D02*
X49818866Y-56983214D01*
X49818866Y-56983214D02*
X49723628Y-56935595D01*
X49723628Y-56935595D02*
X49676009Y-56887976D01*
X49676009Y-56887976D02*
X49628390Y-56792738D01*
X49879819Y-59745595D02*
X48879819Y-59745595D01*
X49879819Y-60317023D02*
X49308390Y-59888452D01*
X48879819Y-60317023D02*
X49451247Y-59745595D01*
X200218569Y-88320714D02*
X199218569Y-88320714D01*
X199218569Y-88320714D02*
X199218569Y-88558809D01*
X199218569Y-88558809D02*
X199266188Y-88701666D01*
X199266188Y-88701666D02*
X199361426Y-88796904D01*
X199361426Y-88796904D02*
X199456664Y-88844523D01*
X199456664Y-88844523D02*
X199647140Y-88892142D01*
X199647140Y-88892142D02*
X199789997Y-88892142D01*
X199789997Y-88892142D02*
X199980473Y-88844523D01*
X199980473Y-88844523D02*
X200075711Y-88796904D01*
X200075711Y-88796904D02*
X200170950Y-88701666D01*
X200170950Y-88701666D02*
X200218569Y-88558809D01*
X200218569Y-88558809D02*
X200218569Y-88320714D01*
X199551902Y-89749285D02*
X200218569Y-89749285D01*
X199170950Y-89511190D02*
X199885235Y-89273095D01*
X199885235Y-89273095D02*
X199885235Y-89892142D01*
X199218569Y-90749285D02*
X199218569Y-90273095D01*
X199218569Y-90273095D02*
X199694759Y-90225476D01*
X199694759Y-90225476D02*
X199647140Y-90273095D01*
X199647140Y-90273095D02*
X199599521Y-90368333D01*
X199599521Y-90368333D02*
X199599521Y-90606428D01*
X199599521Y-90606428D02*
X199647140Y-90701666D01*
X199647140Y-90701666D02*
X199694759Y-90749285D01*
X199694759Y-90749285D02*
X199789997Y-90796904D01*
X199789997Y-90796904D02*
X200028092Y-90796904D01*
X200028092Y-90796904D02*
X200123330Y-90749285D01*
X200123330Y-90749285D02*
X200170950Y-90701666D01*
X200170950Y-90701666D02*
X200218569Y-90606428D01*
X200218569Y-90606428D02*
X200218569Y-90368333D01*
X200218569Y-90368333D02*
X200170950Y-90273095D01*
X200170950Y-90273095D02*
X200123330Y-90225476D01*
X199898569Y-93083095D02*
X198898569Y-93083095D01*
X199898569Y-93654523D02*
X199327140Y-93225952D01*
X198898569Y-93654523D02*
X199469997Y-93083095D01*
X50199819Y-36409405D02*
X49199819Y-36409405D01*
X49199819Y-36409405D02*
X49199819Y-36647500D01*
X49199819Y-36647500D02*
X49247438Y-36790357D01*
X49247438Y-36790357D02*
X49342676Y-36885595D01*
X49342676Y-36885595D02*
X49437914Y-36933214D01*
X49437914Y-36933214D02*
X49628390Y-36980833D01*
X49628390Y-36980833D02*
X49771247Y-36980833D01*
X49771247Y-36980833D02*
X49961723Y-36933214D01*
X49961723Y-36933214D02*
X50056961Y-36885595D01*
X50056961Y-36885595D02*
X50152200Y-36790357D01*
X50152200Y-36790357D02*
X50199819Y-36647500D01*
X50199819Y-36647500D02*
X50199819Y-36409405D01*
X49295057Y-37361786D02*
X49247438Y-37409405D01*
X49247438Y-37409405D02*
X49199819Y-37504643D01*
X49199819Y-37504643D02*
X49199819Y-37742738D01*
X49199819Y-37742738D02*
X49247438Y-37837976D01*
X49247438Y-37837976D02*
X49295057Y-37885595D01*
X49295057Y-37885595D02*
X49390295Y-37933214D01*
X49390295Y-37933214D02*
X49485533Y-37933214D01*
X49485533Y-37933214D02*
X49628390Y-37885595D01*
X49628390Y-37885595D02*
X50199819Y-37314167D01*
X50199819Y-37314167D02*
X50199819Y-37933214D01*
X49879819Y-40695595D02*
X48879819Y-40695595D01*
X49879819Y-41267023D02*
X49308390Y-40838452D01*
X48879819Y-41267023D02*
X49451247Y-40695595D01*
X107349819Y-31646905D02*
X106349819Y-31646905D01*
X106349819Y-31646905D02*
X106349819Y-31885000D01*
X106349819Y-31885000D02*
X106397438Y-32027857D01*
X106397438Y-32027857D02*
X106492676Y-32123095D01*
X106492676Y-32123095D02*
X106587914Y-32170714D01*
X106587914Y-32170714D02*
X106778390Y-32218333D01*
X106778390Y-32218333D02*
X106921247Y-32218333D01*
X106921247Y-32218333D02*
X107111723Y-32170714D01*
X107111723Y-32170714D02*
X107206961Y-32123095D01*
X107206961Y-32123095D02*
X107302200Y-32027857D01*
X107302200Y-32027857D02*
X107349819Y-31885000D01*
X107349819Y-31885000D02*
X107349819Y-31646905D01*
X106349819Y-33123095D02*
X106349819Y-32646905D01*
X106349819Y-32646905D02*
X106826009Y-32599286D01*
X106826009Y-32599286D02*
X106778390Y-32646905D01*
X106778390Y-32646905D02*
X106730771Y-32742143D01*
X106730771Y-32742143D02*
X106730771Y-32980238D01*
X106730771Y-32980238D02*
X106778390Y-33075476D01*
X106778390Y-33075476D02*
X106826009Y-33123095D01*
X106826009Y-33123095D02*
X106921247Y-33170714D01*
X106921247Y-33170714D02*
X107159342Y-33170714D01*
X107159342Y-33170714D02*
X107254580Y-33123095D01*
X107254580Y-33123095D02*
X107302200Y-33075476D01*
X107302200Y-33075476D02*
X107349819Y-32980238D01*
X107349819Y-32980238D02*
X107349819Y-32742143D01*
X107349819Y-32742143D02*
X107302200Y-32646905D01*
X107302200Y-32646905D02*
X107254580Y-32599286D01*
X107029819Y-35933095D02*
X106029819Y-35933095D01*
X107029819Y-36504523D02*
X106458390Y-36075952D01*
X106029819Y-36504523D02*
X106601247Y-35933095D01*
X219268569Y-26408214D02*
X218268569Y-26408214D01*
X218268569Y-26408214D02*
X218268569Y-26646309D01*
X218268569Y-26646309D02*
X218316188Y-26789166D01*
X218316188Y-26789166D02*
X218411426Y-26884404D01*
X218411426Y-26884404D02*
X218506664Y-26932023D01*
X218506664Y-26932023D02*
X218697140Y-26979642D01*
X218697140Y-26979642D02*
X218839997Y-26979642D01*
X218839997Y-26979642D02*
X219030473Y-26932023D01*
X219030473Y-26932023D02*
X219125711Y-26884404D01*
X219125711Y-26884404D02*
X219220950Y-26789166D01*
X219220950Y-26789166D02*
X219268569Y-26646309D01*
X219268569Y-26646309D02*
X219268569Y-26408214D01*
X218363807Y-27360595D02*
X218316188Y-27408214D01*
X218316188Y-27408214D02*
X218268569Y-27503452D01*
X218268569Y-27503452D02*
X218268569Y-27741547D01*
X218268569Y-27741547D02*
X218316188Y-27836785D01*
X218316188Y-27836785D02*
X218363807Y-27884404D01*
X218363807Y-27884404D02*
X218459045Y-27932023D01*
X218459045Y-27932023D02*
X218554283Y-27932023D01*
X218554283Y-27932023D02*
X218697140Y-27884404D01*
X218697140Y-27884404D02*
X219268569Y-27312976D01*
X219268569Y-27312976D02*
X219268569Y-27932023D01*
X218268569Y-28789166D02*
X218268569Y-28598690D01*
X218268569Y-28598690D02*
X218316188Y-28503452D01*
X218316188Y-28503452D02*
X218363807Y-28455833D01*
X218363807Y-28455833D02*
X218506664Y-28360595D01*
X218506664Y-28360595D02*
X218697140Y-28312976D01*
X218697140Y-28312976D02*
X219078092Y-28312976D01*
X219078092Y-28312976D02*
X219173330Y-28360595D01*
X219173330Y-28360595D02*
X219220950Y-28408214D01*
X219220950Y-28408214D02*
X219268569Y-28503452D01*
X219268569Y-28503452D02*
X219268569Y-28693928D01*
X219268569Y-28693928D02*
X219220950Y-28789166D01*
X219220950Y-28789166D02*
X219173330Y-28836785D01*
X219173330Y-28836785D02*
X219078092Y-28884404D01*
X219078092Y-28884404D02*
X218839997Y-28884404D01*
X218839997Y-28884404D02*
X218744759Y-28836785D01*
X218744759Y-28836785D02*
X218697140Y-28789166D01*
X218697140Y-28789166D02*
X218649521Y-28693928D01*
X218649521Y-28693928D02*
X218649521Y-28503452D01*
X218649521Y-28503452D02*
X218697140Y-28408214D01*
X218697140Y-28408214D02*
X218744759Y-28360595D01*
X218744759Y-28360595D02*
X218839997Y-28312976D01*
X218948569Y-31170595D02*
X217948569Y-31170595D01*
X218948569Y-31742023D02*
X218377140Y-31313452D01*
X217948569Y-31742023D02*
X218519997Y-31170595D01*
X257368569Y-35933214D02*
X256368569Y-35933214D01*
X256368569Y-35933214D02*
X256368569Y-36171309D01*
X256368569Y-36171309D02*
X256416188Y-36314166D01*
X256416188Y-36314166D02*
X256511426Y-36409404D01*
X256511426Y-36409404D02*
X256606664Y-36457023D01*
X256606664Y-36457023D02*
X256797140Y-36504642D01*
X256797140Y-36504642D02*
X256939997Y-36504642D01*
X256939997Y-36504642D02*
X257130473Y-36457023D01*
X257130473Y-36457023D02*
X257225711Y-36409404D01*
X257225711Y-36409404D02*
X257320950Y-36314166D01*
X257320950Y-36314166D02*
X257368569Y-36171309D01*
X257368569Y-36171309D02*
X257368569Y-35933214D01*
X256463807Y-36885595D02*
X256416188Y-36933214D01*
X256416188Y-36933214D02*
X256368569Y-37028452D01*
X256368569Y-37028452D02*
X256368569Y-37266547D01*
X256368569Y-37266547D02*
X256416188Y-37361785D01*
X256416188Y-37361785D02*
X256463807Y-37409404D01*
X256463807Y-37409404D02*
X256559045Y-37457023D01*
X256559045Y-37457023D02*
X256654283Y-37457023D01*
X256654283Y-37457023D02*
X256797140Y-37409404D01*
X256797140Y-37409404D02*
X257368569Y-36837976D01*
X257368569Y-36837976D02*
X257368569Y-37457023D01*
X256797140Y-38028452D02*
X256749521Y-37933214D01*
X256749521Y-37933214D02*
X256701902Y-37885595D01*
X256701902Y-37885595D02*
X256606664Y-37837976D01*
X256606664Y-37837976D02*
X256559045Y-37837976D01*
X256559045Y-37837976D02*
X256463807Y-37885595D01*
X256463807Y-37885595D02*
X256416188Y-37933214D01*
X256416188Y-37933214D02*
X256368569Y-38028452D01*
X256368569Y-38028452D02*
X256368569Y-38218928D01*
X256368569Y-38218928D02*
X256416188Y-38314166D01*
X256416188Y-38314166D02*
X256463807Y-38361785D01*
X256463807Y-38361785D02*
X256559045Y-38409404D01*
X256559045Y-38409404D02*
X256606664Y-38409404D01*
X256606664Y-38409404D02*
X256701902Y-38361785D01*
X256701902Y-38361785D02*
X256749521Y-38314166D01*
X256749521Y-38314166D02*
X256797140Y-38218928D01*
X256797140Y-38218928D02*
X256797140Y-38028452D01*
X256797140Y-38028452D02*
X256844759Y-37933214D01*
X256844759Y-37933214D02*
X256892378Y-37885595D01*
X256892378Y-37885595D02*
X256987616Y-37837976D01*
X256987616Y-37837976D02*
X257178092Y-37837976D01*
X257178092Y-37837976D02*
X257273330Y-37885595D01*
X257273330Y-37885595D02*
X257320950Y-37933214D01*
X257320950Y-37933214D02*
X257368569Y-38028452D01*
X257368569Y-38028452D02*
X257368569Y-38218928D01*
X257368569Y-38218928D02*
X257320950Y-38314166D01*
X257320950Y-38314166D02*
X257273330Y-38361785D01*
X257273330Y-38361785D02*
X257178092Y-38409404D01*
X257178092Y-38409404D02*
X256987616Y-38409404D01*
X256987616Y-38409404D02*
X256892378Y-38361785D01*
X256892378Y-38361785D02*
X256844759Y-38314166D01*
X256844759Y-38314166D02*
X256797140Y-38218928D01*
X257048569Y-40695595D02*
X256048569Y-40695595D01*
X257048569Y-41267023D02*
X256477140Y-40838452D01*
X256048569Y-41267023D02*
X256619997Y-40695595D01*
X31149819Y-55459405D02*
X30149819Y-55459405D01*
X30149819Y-55459405D02*
X30149819Y-55697500D01*
X30149819Y-55697500D02*
X30197438Y-55840357D01*
X30197438Y-55840357D02*
X30292676Y-55935595D01*
X30292676Y-55935595D02*
X30387914Y-55983214D01*
X30387914Y-55983214D02*
X30578390Y-56030833D01*
X30578390Y-56030833D02*
X30721247Y-56030833D01*
X30721247Y-56030833D02*
X30911723Y-55983214D01*
X30911723Y-55983214D02*
X31006961Y-55935595D01*
X31006961Y-55935595D02*
X31102200Y-55840357D01*
X31102200Y-55840357D02*
X31149819Y-55697500D01*
X31149819Y-55697500D02*
X31149819Y-55459405D01*
X30149819Y-56364167D02*
X30149819Y-57030833D01*
X30149819Y-57030833D02*
X31149819Y-56602262D01*
X30829819Y-59745595D02*
X29829819Y-59745595D01*
X30829819Y-60317023D02*
X30258390Y-59888452D01*
X29829819Y-60317023D02*
X30401247Y-59745595D01*
X107349819Y-50220714D02*
X106349819Y-50220714D01*
X106349819Y-50220714D02*
X106349819Y-50458809D01*
X106349819Y-50458809D02*
X106397438Y-50601666D01*
X106397438Y-50601666D02*
X106492676Y-50696904D01*
X106492676Y-50696904D02*
X106587914Y-50744523D01*
X106587914Y-50744523D02*
X106778390Y-50792142D01*
X106778390Y-50792142D02*
X106921247Y-50792142D01*
X106921247Y-50792142D02*
X107111723Y-50744523D01*
X107111723Y-50744523D02*
X107206961Y-50696904D01*
X107206961Y-50696904D02*
X107302200Y-50601666D01*
X107302200Y-50601666D02*
X107349819Y-50458809D01*
X107349819Y-50458809D02*
X107349819Y-50220714D01*
X107349819Y-51744523D02*
X107349819Y-51173095D01*
X107349819Y-51458809D02*
X106349819Y-51458809D01*
X106349819Y-51458809D02*
X106492676Y-51363571D01*
X106492676Y-51363571D02*
X106587914Y-51268333D01*
X106587914Y-51268333D02*
X106635533Y-51173095D01*
X107349819Y-52696904D02*
X107349819Y-52125476D01*
X107349819Y-52411190D02*
X106349819Y-52411190D01*
X106349819Y-52411190D02*
X106492676Y-52315952D01*
X106492676Y-52315952D02*
X106587914Y-52220714D01*
X106587914Y-52220714D02*
X106635533Y-52125476D01*
X107029819Y-54983095D02*
X106029819Y-54983095D01*
X107029819Y-55554523D02*
X106458390Y-55125952D01*
X106029819Y-55554523D02*
X106601247Y-54983095D01*
X126399819Y-54983214D02*
X125399819Y-54983214D01*
X125399819Y-54983214D02*
X125399819Y-55221309D01*
X125399819Y-55221309D02*
X125447438Y-55364166D01*
X125447438Y-55364166D02*
X125542676Y-55459404D01*
X125542676Y-55459404D02*
X125637914Y-55507023D01*
X125637914Y-55507023D02*
X125828390Y-55554642D01*
X125828390Y-55554642D02*
X125971247Y-55554642D01*
X125971247Y-55554642D02*
X126161723Y-55507023D01*
X126161723Y-55507023D02*
X126256961Y-55459404D01*
X126256961Y-55459404D02*
X126352200Y-55364166D01*
X126352200Y-55364166D02*
X126399819Y-55221309D01*
X126399819Y-55221309D02*
X126399819Y-54983214D01*
X126399819Y-56507023D02*
X126399819Y-55935595D01*
X126399819Y-56221309D02*
X125399819Y-56221309D01*
X125399819Y-56221309D02*
X125542676Y-56126071D01*
X125542676Y-56126071D02*
X125637914Y-56030833D01*
X125637914Y-56030833D02*
X125685533Y-55935595D01*
X125495057Y-56887976D02*
X125447438Y-56935595D01*
X125447438Y-56935595D02*
X125399819Y-57030833D01*
X125399819Y-57030833D02*
X125399819Y-57268928D01*
X125399819Y-57268928D02*
X125447438Y-57364166D01*
X125447438Y-57364166D02*
X125495057Y-57411785D01*
X125495057Y-57411785D02*
X125590295Y-57459404D01*
X125590295Y-57459404D02*
X125685533Y-57459404D01*
X125685533Y-57459404D02*
X125828390Y-57411785D01*
X125828390Y-57411785D02*
X126399819Y-56840357D01*
X126399819Y-56840357D02*
X126399819Y-57459404D01*
X126079819Y-59745595D02*
X125079819Y-59745595D01*
X126079819Y-60317023D02*
X125508390Y-59888452D01*
X125079819Y-60317023D02*
X125651247Y-59745595D01*
X107349819Y-93083214D02*
X106349819Y-93083214D01*
X106349819Y-93083214D02*
X106349819Y-93321309D01*
X106349819Y-93321309D02*
X106397438Y-93464166D01*
X106397438Y-93464166D02*
X106492676Y-93559404D01*
X106492676Y-93559404D02*
X106587914Y-93607023D01*
X106587914Y-93607023D02*
X106778390Y-93654642D01*
X106778390Y-93654642D02*
X106921247Y-93654642D01*
X106921247Y-93654642D02*
X107111723Y-93607023D01*
X107111723Y-93607023D02*
X107206961Y-93559404D01*
X107206961Y-93559404D02*
X107302200Y-93464166D01*
X107302200Y-93464166D02*
X107349819Y-93321309D01*
X107349819Y-93321309D02*
X107349819Y-93083214D01*
X106445057Y-94035595D02*
X106397438Y-94083214D01*
X106397438Y-94083214D02*
X106349819Y-94178452D01*
X106349819Y-94178452D02*
X106349819Y-94416547D01*
X106349819Y-94416547D02*
X106397438Y-94511785D01*
X106397438Y-94511785D02*
X106445057Y-94559404D01*
X106445057Y-94559404D02*
X106540295Y-94607023D01*
X106540295Y-94607023D02*
X106635533Y-94607023D01*
X106635533Y-94607023D02*
X106778390Y-94559404D01*
X106778390Y-94559404D02*
X107349819Y-93987976D01*
X107349819Y-93987976D02*
X107349819Y-94607023D01*
X107349819Y-95559404D02*
X107349819Y-94987976D01*
X107349819Y-95273690D02*
X106349819Y-95273690D01*
X106349819Y-95273690D02*
X106492676Y-95178452D01*
X106492676Y-95178452D02*
X106587914Y-95083214D01*
X106587914Y-95083214D02*
X106635533Y-94987976D01*
X107029819Y-97845595D02*
X106029819Y-97845595D01*
X107029819Y-98417023D02*
X106458390Y-97988452D01*
X106029819Y-98417023D02*
X106601247Y-97845595D01*
X219268569Y-83558214D02*
X218268569Y-83558214D01*
X218268569Y-83558214D02*
X218268569Y-83796309D01*
X218268569Y-83796309D02*
X218316188Y-83939166D01*
X218316188Y-83939166D02*
X218411426Y-84034404D01*
X218411426Y-84034404D02*
X218506664Y-84082023D01*
X218506664Y-84082023D02*
X218697140Y-84129642D01*
X218697140Y-84129642D02*
X218839997Y-84129642D01*
X218839997Y-84129642D02*
X219030473Y-84082023D01*
X219030473Y-84082023D02*
X219125711Y-84034404D01*
X219125711Y-84034404D02*
X219220950Y-83939166D01*
X219220950Y-83939166D02*
X219268569Y-83796309D01*
X219268569Y-83796309D02*
X219268569Y-83558214D01*
X218601902Y-84986785D02*
X219268569Y-84986785D01*
X218220950Y-84748690D02*
X218935235Y-84510595D01*
X218935235Y-84510595D02*
X218935235Y-85129642D01*
X218268569Y-85939166D02*
X218268569Y-85748690D01*
X218268569Y-85748690D02*
X218316188Y-85653452D01*
X218316188Y-85653452D02*
X218363807Y-85605833D01*
X218363807Y-85605833D02*
X218506664Y-85510595D01*
X218506664Y-85510595D02*
X218697140Y-85462976D01*
X218697140Y-85462976D02*
X219078092Y-85462976D01*
X219078092Y-85462976D02*
X219173330Y-85510595D01*
X219173330Y-85510595D02*
X219220950Y-85558214D01*
X219220950Y-85558214D02*
X219268569Y-85653452D01*
X219268569Y-85653452D02*
X219268569Y-85843928D01*
X219268569Y-85843928D02*
X219220950Y-85939166D01*
X219220950Y-85939166D02*
X219173330Y-85986785D01*
X219173330Y-85986785D02*
X219078092Y-86034404D01*
X219078092Y-86034404D02*
X218839997Y-86034404D01*
X218839997Y-86034404D02*
X218744759Y-85986785D01*
X218744759Y-85986785D02*
X218697140Y-85939166D01*
X218697140Y-85939166D02*
X218649521Y-85843928D01*
X218649521Y-85843928D02*
X218649521Y-85653452D01*
X218649521Y-85653452D02*
X218697140Y-85558214D01*
X218697140Y-85558214D02*
X218744759Y-85510595D01*
X218744759Y-85510595D02*
X218839997Y-85462976D01*
X218948569Y-88320595D02*
X217948569Y-88320595D01*
X218948569Y-88892023D02*
X218377140Y-88463452D01*
X217948569Y-88892023D02*
X218519997Y-88320595D01*
X88299819Y-45458214D02*
X87299819Y-45458214D01*
X87299819Y-45458214D02*
X87299819Y-45696309D01*
X87299819Y-45696309D02*
X87347438Y-45839166D01*
X87347438Y-45839166D02*
X87442676Y-45934404D01*
X87442676Y-45934404D02*
X87537914Y-45982023D01*
X87537914Y-45982023D02*
X87728390Y-46029642D01*
X87728390Y-46029642D02*
X87871247Y-46029642D01*
X87871247Y-46029642D02*
X88061723Y-45982023D01*
X88061723Y-45982023D02*
X88156961Y-45934404D01*
X88156961Y-45934404D02*
X88252200Y-45839166D01*
X88252200Y-45839166D02*
X88299819Y-45696309D01*
X88299819Y-45696309D02*
X88299819Y-45458214D01*
X88299819Y-46982023D02*
X88299819Y-46410595D01*
X88299819Y-46696309D02*
X87299819Y-46696309D01*
X87299819Y-46696309D02*
X87442676Y-46601071D01*
X87442676Y-46601071D02*
X87537914Y-46505833D01*
X87537914Y-46505833D02*
X87585533Y-46410595D01*
X87299819Y-47601071D02*
X87299819Y-47696309D01*
X87299819Y-47696309D02*
X87347438Y-47791547D01*
X87347438Y-47791547D02*
X87395057Y-47839166D01*
X87395057Y-47839166D02*
X87490295Y-47886785D01*
X87490295Y-47886785D02*
X87680771Y-47934404D01*
X87680771Y-47934404D02*
X87918866Y-47934404D01*
X87918866Y-47934404D02*
X88109342Y-47886785D01*
X88109342Y-47886785D02*
X88204580Y-47839166D01*
X88204580Y-47839166D02*
X88252200Y-47791547D01*
X88252200Y-47791547D02*
X88299819Y-47696309D01*
X88299819Y-47696309D02*
X88299819Y-47601071D01*
X88299819Y-47601071D02*
X88252200Y-47505833D01*
X88252200Y-47505833D02*
X88204580Y-47458214D01*
X88204580Y-47458214D02*
X88109342Y-47410595D01*
X88109342Y-47410595D02*
X87918866Y-47362976D01*
X87918866Y-47362976D02*
X87680771Y-47362976D01*
X87680771Y-47362976D02*
X87490295Y-47410595D01*
X87490295Y-47410595D02*
X87395057Y-47458214D01*
X87395057Y-47458214D02*
X87347438Y-47505833D01*
X87347438Y-47505833D02*
X87299819Y-47601071D01*
X87979819Y-50220595D02*
X86979819Y-50220595D01*
X87979819Y-50792023D02*
X87408390Y-50363452D01*
X86979819Y-50792023D02*
X87551247Y-50220595D01*
X126399819Y-74033214D02*
X125399819Y-74033214D01*
X125399819Y-74033214D02*
X125399819Y-74271309D01*
X125399819Y-74271309D02*
X125447438Y-74414166D01*
X125447438Y-74414166D02*
X125542676Y-74509404D01*
X125542676Y-74509404D02*
X125637914Y-74557023D01*
X125637914Y-74557023D02*
X125828390Y-74604642D01*
X125828390Y-74604642D02*
X125971247Y-74604642D01*
X125971247Y-74604642D02*
X126161723Y-74557023D01*
X126161723Y-74557023D02*
X126256961Y-74509404D01*
X126256961Y-74509404D02*
X126352200Y-74414166D01*
X126352200Y-74414166D02*
X126399819Y-74271309D01*
X126399819Y-74271309D02*
X126399819Y-74033214D01*
X126399819Y-75557023D02*
X126399819Y-74985595D01*
X126399819Y-75271309D02*
X125399819Y-75271309D01*
X125399819Y-75271309D02*
X125542676Y-75176071D01*
X125542676Y-75176071D02*
X125637914Y-75080833D01*
X125637914Y-75080833D02*
X125685533Y-74985595D01*
X125828390Y-76128452D02*
X125780771Y-76033214D01*
X125780771Y-76033214D02*
X125733152Y-75985595D01*
X125733152Y-75985595D02*
X125637914Y-75937976D01*
X125637914Y-75937976D02*
X125590295Y-75937976D01*
X125590295Y-75937976D02*
X125495057Y-75985595D01*
X125495057Y-75985595D02*
X125447438Y-76033214D01*
X125447438Y-76033214D02*
X125399819Y-76128452D01*
X125399819Y-76128452D02*
X125399819Y-76318928D01*
X125399819Y-76318928D02*
X125447438Y-76414166D01*
X125447438Y-76414166D02*
X125495057Y-76461785D01*
X125495057Y-76461785D02*
X125590295Y-76509404D01*
X125590295Y-76509404D02*
X125637914Y-76509404D01*
X125637914Y-76509404D02*
X125733152Y-76461785D01*
X125733152Y-76461785D02*
X125780771Y-76414166D01*
X125780771Y-76414166D02*
X125828390Y-76318928D01*
X125828390Y-76318928D02*
X125828390Y-76128452D01*
X125828390Y-76128452D02*
X125876009Y-76033214D01*
X125876009Y-76033214D02*
X125923628Y-75985595D01*
X125923628Y-75985595D02*
X126018866Y-75937976D01*
X126018866Y-75937976D02*
X126209342Y-75937976D01*
X126209342Y-75937976D02*
X126304580Y-75985595D01*
X126304580Y-75985595D02*
X126352200Y-76033214D01*
X126352200Y-76033214D02*
X126399819Y-76128452D01*
X126399819Y-76128452D02*
X126399819Y-76318928D01*
X126399819Y-76318928D02*
X126352200Y-76414166D01*
X126352200Y-76414166D02*
X126304580Y-76461785D01*
X126304580Y-76461785D02*
X126209342Y-76509404D01*
X126209342Y-76509404D02*
X126018866Y-76509404D01*
X126018866Y-76509404D02*
X125923628Y-76461785D01*
X125923628Y-76461785D02*
X125876009Y-76414166D01*
X125876009Y-76414166D02*
X125828390Y-76318928D01*
X126079819Y-78795595D02*
X125079819Y-78795595D01*
X126079819Y-79367023D02*
X125508390Y-78938452D01*
X125079819Y-79367023D02*
X125651247Y-78795595D01*
X181168569Y-35933214D02*
X180168569Y-35933214D01*
X180168569Y-35933214D02*
X180168569Y-36171309D01*
X180168569Y-36171309D02*
X180216188Y-36314166D01*
X180216188Y-36314166D02*
X180311426Y-36409404D01*
X180311426Y-36409404D02*
X180406664Y-36457023D01*
X180406664Y-36457023D02*
X180597140Y-36504642D01*
X180597140Y-36504642D02*
X180739997Y-36504642D01*
X180739997Y-36504642D02*
X180930473Y-36457023D01*
X180930473Y-36457023D02*
X181025711Y-36409404D01*
X181025711Y-36409404D02*
X181120950Y-36314166D01*
X181120950Y-36314166D02*
X181168569Y-36171309D01*
X181168569Y-36171309D02*
X181168569Y-35933214D01*
X180263807Y-36885595D02*
X180216188Y-36933214D01*
X180216188Y-36933214D02*
X180168569Y-37028452D01*
X180168569Y-37028452D02*
X180168569Y-37266547D01*
X180168569Y-37266547D02*
X180216188Y-37361785D01*
X180216188Y-37361785D02*
X180263807Y-37409404D01*
X180263807Y-37409404D02*
X180359045Y-37457023D01*
X180359045Y-37457023D02*
X180454283Y-37457023D01*
X180454283Y-37457023D02*
X180597140Y-37409404D01*
X180597140Y-37409404D02*
X181168569Y-36837976D01*
X181168569Y-36837976D02*
X181168569Y-37457023D01*
X180501902Y-38314166D02*
X181168569Y-38314166D01*
X180120950Y-38076071D02*
X180835235Y-37837976D01*
X180835235Y-37837976D02*
X180835235Y-38457023D01*
X180848569Y-40695595D02*
X179848569Y-40695595D01*
X180848569Y-41267023D02*
X180277140Y-40838452D01*
X179848569Y-41267023D02*
X180419997Y-40695595D01*
X107349819Y-69270714D02*
X106349819Y-69270714D01*
X106349819Y-69270714D02*
X106349819Y-69508809D01*
X106349819Y-69508809D02*
X106397438Y-69651666D01*
X106397438Y-69651666D02*
X106492676Y-69746904D01*
X106492676Y-69746904D02*
X106587914Y-69794523D01*
X106587914Y-69794523D02*
X106778390Y-69842142D01*
X106778390Y-69842142D02*
X106921247Y-69842142D01*
X106921247Y-69842142D02*
X107111723Y-69794523D01*
X107111723Y-69794523D02*
X107206961Y-69746904D01*
X107206961Y-69746904D02*
X107302200Y-69651666D01*
X107302200Y-69651666D02*
X107349819Y-69508809D01*
X107349819Y-69508809D02*
X107349819Y-69270714D01*
X107349819Y-70794523D02*
X107349819Y-70223095D01*
X107349819Y-70508809D02*
X106349819Y-70508809D01*
X106349819Y-70508809D02*
X106492676Y-70413571D01*
X106492676Y-70413571D02*
X106587914Y-70318333D01*
X106587914Y-70318333D02*
X106635533Y-70223095D01*
X106349819Y-71127857D02*
X106349819Y-71794523D01*
X106349819Y-71794523D02*
X107349819Y-71365952D01*
X107029819Y-74033095D02*
X106029819Y-74033095D01*
X107029819Y-74604523D02*
X106458390Y-74175952D01*
X106029819Y-74604523D02*
X106601247Y-74033095D01*
X200218569Y-69270714D02*
X199218569Y-69270714D01*
X199218569Y-69270714D02*
X199218569Y-69508809D01*
X199218569Y-69508809D02*
X199266188Y-69651666D01*
X199266188Y-69651666D02*
X199361426Y-69746904D01*
X199361426Y-69746904D02*
X199456664Y-69794523D01*
X199456664Y-69794523D02*
X199647140Y-69842142D01*
X199647140Y-69842142D02*
X199789997Y-69842142D01*
X199789997Y-69842142D02*
X199980473Y-69794523D01*
X199980473Y-69794523D02*
X200075711Y-69746904D01*
X200075711Y-69746904D02*
X200170950Y-69651666D01*
X200170950Y-69651666D02*
X200218569Y-69508809D01*
X200218569Y-69508809D02*
X200218569Y-69270714D01*
X199218569Y-70175476D02*
X199218569Y-70794523D01*
X199218569Y-70794523D02*
X199599521Y-70461190D01*
X199599521Y-70461190D02*
X199599521Y-70604047D01*
X199599521Y-70604047D02*
X199647140Y-70699285D01*
X199647140Y-70699285D02*
X199694759Y-70746904D01*
X199694759Y-70746904D02*
X199789997Y-70794523D01*
X199789997Y-70794523D02*
X200028092Y-70794523D01*
X200028092Y-70794523D02*
X200123330Y-70746904D01*
X200123330Y-70746904D02*
X200170950Y-70699285D01*
X200170950Y-70699285D02*
X200218569Y-70604047D01*
X200218569Y-70604047D02*
X200218569Y-70318333D01*
X200218569Y-70318333D02*
X200170950Y-70223095D01*
X200170950Y-70223095D02*
X200123330Y-70175476D01*
X199647140Y-71365952D02*
X199599521Y-71270714D01*
X199599521Y-71270714D02*
X199551902Y-71223095D01*
X199551902Y-71223095D02*
X199456664Y-71175476D01*
X199456664Y-71175476D02*
X199409045Y-71175476D01*
X199409045Y-71175476D02*
X199313807Y-71223095D01*
X199313807Y-71223095D02*
X199266188Y-71270714D01*
X199266188Y-71270714D02*
X199218569Y-71365952D01*
X199218569Y-71365952D02*
X199218569Y-71556428D01*
X199218569Y-71556428D02*
X199266188Y-71651666D01*
X199266188Y-71651666D02*
X199313807Y-71699285D01*
X199313807Y-71699285D02*
X199409045Y-71746904D01*
X199409045Y-71746904D02*
X199456664Y-71746904D01*
X199456664Y-71746904D02*
X199551902Y-71699285D01*
X199551902Y-71699285D02*
X199599521Y-71651666D01*
X199599521Y-71651666D02*
X199647140Y-71556428D01*
X199647140Y-71556428D02*
X199647140Y-71365952D01*
X199647140Y-71365952D02*
X199694759Y-71270714D01*
X199694759Y-71270714D02*
X199742378Y-71223095D01*
X199742378Y-71223095D02*
X199837616Y-71175476D01*
X199837616Y-71175476D02*
X200028092Y-71175476D01*
X200028092Y-71175476D02*
X200123330Y-71223095D01*
X200123330Y-71223095D02*
X200170950Y-71270714D01*
X200170950Y-71270714D02*
X200218569Y-71365952D01*
X200218569Y-71365952D02*
X200218569Y-71556428D01*
X200218569Y-71556428D02*
X200170950Y-71651666D01*
X200170950Y-71651666D02*
X200123330Y-71699285D01*
X200123330Y-71699285D02*
X200028092Y-71746904D01*
X200028092Y-71746904D02*
X199837616Y-71746904D01*
X199837616Y-71746904D02*
X199742378Y-71699285D01*
X199742378Y-71699285D02*
X199694759Y-71651666D01*
X199694759Y-71651666D02*
X199647140Y-71556428D01*
X199898569Y-74033095D02*
X198898569Y-74033095D01*
X199898569Y-74604523D02*
X199327140Y-74175952D01*
X198898569Y-74604523D02*
X199469997Y-74033095D01*
D11*
X178593750Y-97067500D02*
X178593750Y-96417500D01*
X177473750Y-96417500D02*
X177473750Y-92177500D01*
X179713750Y-96417500D02*
X177473750Y-96417500D01*
X179713750Y-95817500D02*
X177473750Y-95817500D01*
X179713750Y-95697500D02*
X177473750Y-95697500D01*
X179713750Y-95577500D02*
X177473750Y-95577500D01*
X177473750Y-92177500D02*
X179713750Y-92177500D01*
X179713750Y-92177500D02*
X179713750Y-96417500D01*
X178593750Y-91527500D02*
X178593750Y-92177500D01*
X142875000Y-97067500D02*
X142875000Y-96417500D01*
X141755000Y-96417500D02*
X141755000Y-92177500D01*
X143995000Y-96417500D02*
X141755000Y-96417500D01*
X143995000Y-95817500D02*
X141755000Y-95817500D01*
X143995000Y-95697500D02*
X141755000Y-95697500D01*
X143995000Y-95577500D02*
X141755000Y-95577500D01*
X141755000Y-92177500D02*
X143995000Y-92177500D01*
X143995000Y-92177500D02*
X143995000Y-96417500D01*
X142875000Y-91527500D02*
X142875000Y-92177500D01*
X273843750Y-39917500D02*
X273843750Y-39267500D01*
X272723750Y-39267500D02*
X272723750Y-35027500D01*
X274963750Y-39267500D02*
X272723750Y-39267500D01*
X274963750Y-38667500D02*
X272723750Y-38667500D01*
X274963750Y-38547500D02*
X272723750Y-38547500D01*
X274963750Y-38427500D02*
X272723750Y-38427500D01*
X272723750Y-35027500D02*
X274963750Y-35027500D01*
X274963750Y-35027500D02*
X274963750Y-39267500D01*
X273843750Y-34377500D02*
X273843750Y-35027500D01*
X159543750Y-97067500D02*
X159543750Y-96417500D01*
X158423750Y-96417500D02*
X158423750Y-92177500D01*
X160663750Y-96417500D02*
X158423750Y-96417500D01*
X160663750Y-95817500D02*
X158423750Y-95817500D01*
X160663750Y-95697500D02*
X158423750Y-95697500D01*
X160663750Y-95577500D02*
X158423750Y-95577500D01*
X158423750Y-92177500D02*
X160663750Y-92177500D01*
X160663750Y-92177500D02*
X160663750Y-96417500D01*
X159543750Y-91527500D02*
X159543750Y-92177500D01*
X178593750Y-78017500D02*
X178593750Y-77367500D01*
X177473750Y-77367500D02*
X177473750Y-73127500D01*
X179713750Y-77367500D02*
X177473750Y-77367500D01*
X179713750Y-76767500D02*
X177473750Y-76767500D01*
X179713750Y-76647500D02*
X177473750Y-76647500D01*
X179713750Y-76527500D02*
X177473750Y-76527500D01*
X177473750Y-73127500D02*
X179713750Y-73127500D01*
X179713750Y-73127500D02*
X179713750Y-77367500D01*
X178593750Y-72477500D02*
X178593750Y-73127500D01*
X85725000Y-68492500D02*
X85725000Y-67842500D01*
X84605000Y-67842500D02*
X84605000Y-63602500D01*
X86845000Y-67842500D02*
X84605000Y-67842500D01*
X86845000Y-67242500D02*
X84605000Y-67242500D01*
X86845000Y-67122500D02*
X84605000Y-67122500D01*
X86845000Y-67002500D02*
X84605000Y-67002500D01*
X84605000Y-63602500D02*
X86845000Y-63602500D01*
X86845000Y-63602500D02*
X86845000Y-67842500D01*
X85725000Y-62952500D02*
X85725000Y-63602500D01*
X235743750Y-73255000D02*
X235743750Y-72605000D01*
X234623750Y-72605000D02*
X234623750Y-68365000D01*
X236863750Y-72605000D02*
X234623750Y-72605000D01*
X236863750Y-72005000D02*
X234623750Y-72005000D01*
X236863750Y-71885000D02*
X234623750Y-71885000D01*
X236863750Y-71765000D02*
X234623750Y-71765000D01*
X234623750Y-68365000D02*
X236863750Y-68365000D01*
X236863750Y-68365000D02*
X236863750Y-72605000D01*
X235743750Y-67715000D02*
X235743750Y-68365000D01*
X85725000Y-30392500D02*
X85725000Y-29742500D01*
X84605000Y-29742500D02*
X84605000Y-25502500D01*
X86845000Y-29742500D02*
X84605000Y-29742500D01*
X86845000Y-29142500D02*
X84605000Y-29142500D01*
X86845000Y-29022500D02*
X84605000Y-29022500D01*
X86845000Y-28902500D02*
X84605000Y-28902500D01*
X84605000Y-25502500D02*
X86845000Y-25502500D01*
X86845000Y-25502500D02*
X86845000Y-29742500D01*
X85725000Y-24852500D02*
X85725000Y-25502500D01*
X216693750Y-49442500D02*
X216693750Y-48792500D01*
X215573750Y-48792500D02*
X215573750Y-44552500D01*
X217813750Y-48792500D02*
X215573750Y-48792500D01*
X217813750Y-48192500D02*
X215573750Y-48192500D01*
X217813750Y-48072500D02*
X215573750Y-48072500D01*
X217813750Y-47952500D02*
X215573750Y-47952500D01*
X215573750Y-44552500D02*
X217813750Y-44552500D01*
X217813750Y-44552500D02*
X217813750Y-48792500D01*
X216693750Y-43902500D02*
X216693750Y-44552500D01*
X273843750Y-58967500D02*
X273843750Y-58317500D01*
X272723750Y-58317500D02*
X272723750Y-54077500D01*
X274963750Y-58317500D02*
X272723750Y-58317500D01*
X274963750Y-57717500D02*
X272723750Y-57717500D01*
X274963750Y-57597500D02*
X272723750Y-57597500D01*
X274963750Y-57477500D02*
X272723750Y-57477500D01*
X272723750Y-54077500D02*
X274963750Y-54077500D01*
X274963750Y-54077500D02*
X274963750Y-58317500D01*
X273843750Y-53427500D02*
X273843750Y-54077500D01*
X28575000Y-78017500D02*
X28575000Y-77367500D01*
X27455000Y-77367500D02*
X27455000Y-73127500D01*
X29695000Y-77367500D02*
X27455000Y-77367500D01*
X29695000Y-76767500D02*
X27455000Y-76767500D01*
X29695000Y-76647500D02*
X27455000Y-76647500D01*
X29695000Y-76527500D02*
X27455000Y-76527500D01*
X27455000Y-73127500D02*
X29695000Y-73127500D01*
X29695000Y-73127500D02*
X29695000Y-77367500D01*
X28575000Y-72477500D02*
X28575000Y-73127500D01*
X197643750Y-35155000D02*
X197643750Y-34505000D01*
X196523750Y-34505000D02*
X196523750Y-30265000D01*
X198763750Y-34505000D02*
X196523750Y-34505000D01*
X198763750Y-33905000D02*
X196523750Y-33905000D01*
X198763750Y-33785000D02*
X196523750Y-33785000D01*
X198763750Y-33665000D02*
X196523750Y-33665000D01*
X196523750Y-30265000D02*
X198763750Y-30265000D01*
X198763750Y-30265000D02*
X198763750Y-34505000D01*
X197643750Y-29615000D02*
X197643750Y-30265000D01*
X254793750Y-78017500D02*
X254793750Y-77367500D01*
X253673750Y-77367500D02*
X253673750Y-73127500D01*
X255913750Y-77367500D02*
X253673750Y-77367500D01*
X255913750Y-76767500D02*
X253673750Y-76767500D01*
X255913750Y-76647500D02*
X253673750Y-76647500D01*
X255913750Y-76527500D02*
X253673750Y-76527500D01*
X253673750Y-73127500D02*
X255913750Y-73127500D01*
X255913750Y-73127500D02*
X255913750Y-77367500D01*
X254793750Y-72477500D02*
X254793750Y-73127500D01*
X123825000Y-97067500D02*
X123825000Y-96417500D01*
X122705000Y-96417500D02*
X122705000Y-92177500D01*
X124945000Y-96417500D02*
X122705000Y-96417500D01*
X124945000Y-95817500D02*
X122705000Y-95817500D01*
X124945000Y-95697500D02*
X122705000Y-95697500D01*
X124945000Y-95577500D02*
X122705000Y-95577500D01*
X122705000Y-92177500D02*
X124945000Y-92177500D01*
X124945000Y-92177500D02*
X124945000Y-96417500D01*
X123825000Y-91527500D02*
X123825000Y-92177500D01*
X216693750Y-68492500D02*
X216693750Y-67842500D01*
X215573750Y-67842500D02*
X215573750Y-63602500D01*
X217813750Y-67842500D02*
X215573750Y-67842500D01*
X217813750Y-67242500D02*
X215573750Y-67242500D01*
X217813750Y-67122500D02*
X215573750Y-67122500D01*
X217813750Y-67002500D02*
X215573750Y-67002500D01*
X215573750Y-63602500D02*
X217813750Y-63602500D01*
X217813750Y-63602500D02*
X217813750Y-67842500D01*
X216693750Y-62952500D02*
X216693750Y-63602500D01*
X235743750Y-54205000D02*
X235743750Y-53555000D01*
X234623750Y-53555000D02*
X234623750Y-49315000D01*
X236863750Y-53555000D02*
X234623750Y-53555000D01*
X236863750Y-52955000D02*
X234623750Y-52955000D01*
X236863750Y-52835000D02*
X234623750Y-52835000D01*
X236863750Y-52715000D02*
X234623750Y-52715000D01*
X234623750Y-49315000D02*
X236863750Y-49315000D01*
X236863750Y-49315000D02*
X236863750Y-53555000D01*
X235743750Y-48665000D02*
X235743750Y-49315000D01*
X28575000Y-39917500D02*
X28575000Y-39267500D01*
X27455000Y-39267500D02*
X27455000Y-35027500D01*
X29695000Y-39267500D02*
X27455000Y-39267500D01*
X29695000Y-38667500D02*
X27455000Y-38667500D01*
X29695000Y-38547500D02*
X27455000Y-38547500D01*
X29695000Y-38427500D02*
X27455000Y-38427500D01*
X27455000Y-35027500D02*
X29695000Y-35027500D01*
X29695000Y-35027500D02*
X29695000Y-39267500D01*
X28575000Y-34377500D02*
X28575000Y-35027500D01*
X85725000Y-87542500D02*
X85725000Y-86892500D01*
X84605000Y-86892500D02*
X84605000Y-82652500D01*
X86845000Y-86892500D02*
X84605000Y-86892500D01*
X86845000Y-86292500D02*
X84605000Y-86292500D01*
X86845000Y-86172500D02*
X84605000Y-86172500D01*
X86845000Y-86052500D02*
X84605000Y-86052500D01*
X84605000Y-82652500D02*
X86845000Y-82652500D01*
X86845000Y-82652500D02*
X86845000Y-86892500D01*
X85725000Y-82002500D02*
X85725000Y-82652500D01*
X254793750Y-58967500D02*
X254793750Y-58317500D01*
X253673750Y-58317500D02*
X253673750Y-54077500D01*
X255913750Y-58317500D02*
X253673750Y-58317500D01*
X255913750Y-57717500D02*
X253673750Y-57717500D01*
X255913750Y-57597500D02*
X253673750Y-57597500D01*
X255913750Y-57477500D02*
X253673750Y-57477500D01*
X253673750Y-54077500D02*
X255913750Y-54077500D01*
X255913750Y-54077500D02*
X255913750Y-58317500D01*
X254793750Y-53427500D02*
X254793750Y-54077500D01*
X197643750Y-54205000D02*
X197643750Y-53555000D01*
X196523750Y-53555000D02*
X196523750Y-49315000D01*
X198763750Y-53555000D02*
X196523750Y-53555000D01*
X198763750Y-52955000D02*
X196523750Y-52955000D01*
X198763750Y-52835000D02*
X196523750Y-52835000D01*
X198763750Y-52715000D02*
X196523750Y-52715000D01*
X196523750Y-49315000D02*
X198763750Y-49315000D01*
X198763750Y-49315000D02*
X198763750Y-53555000D01*
X197643750Y-48665000D02*
X197643750Y-49315000D01*
X66675000Y-54205000D02*
X66675000Y-53555000D01*
X65555000Y-53555000D02*
X65555000Y-49315000D01*
X67795000Y-53555000D02*
X65555000Y-53555000D01*
X67795000Y-52955000D02*
X65555000Y-52955000D01*
X67795000Y-52835000D02*
X65555000Y-52835000D01*
X67795000Y-52715000D02*
X65555000Y-52715000D01*
X65555000Y-49315000D02*
X67795000Y-49315000D01*
X67795000Y-49315000D02*
X67795000Y-53555000D01*
X66675000Y-48665000D02*
X66675000Y-49315000D01*
X178593750Y-58967500D02*
X178593750Y-58317500D01*
X177473750Y-58317500D02*
X177473750Y-54077500D01*
X179713750Y-58317500D02*
X177473750Y-58317500D01*
X179713750Y-57717500D02*
X177473750Y-57717500D01*
X179713750Y-57597500D02*
X177473750Y-57597500D01*
X179713750Y-57477500D02*
X177473750Y-57477500D01*
X177473750Y-54077500D02*
X179713750Y-54077500D01*
X179713750Y-54077500D02*
X179713750Y-58317500D01*
X178593750Y-53427500D02*
X178593750Y-54077500D01*
X66675000Y-73255000D02*
X66675000Y-72605000D01*
X65555000Y-72605000D02*
X65555000Y-68365000D01*
X67795000Y-72605000D02*
X65555000Y-72605000D01*
X67795000Y-72005000D02*
X65555000Y-72005000D01*
X67795000Y-71885000D02*
X65555000Y-71885000D01*
X67795000Y-71765000D02*
X65555000Y-71765000D01*
X65555000Y-68365000D02*
X67795000Y-68365000D01*
X67795000Y-68365000D02*
X67795000Y-72605000D01*
X66675000Y-67715000D02*
X66675000Y-68365000D01*
X142875000Y-78017500D02*
X142875000Y-77367500D01*
X141755000Y-77367500D02*
X141755000Y-73127500D01*
X143995000Y-77367500D02*
X141755000Y-77367500D01*
X143995000Y-76767500D02*
X141755000Y-76767500D01*
X143995000Y-76647500D02*
X141755000Y-76647500D01*
X143995000Y-76527500D02*
X141755000Y-76527500D01*
X141755000Y-73127500D02*
X143995000Y-73127500D01*
X143995000Y-73127500D02*
X143995000Y-77367500D01*
X142875000Y-72477500D02*
X142875000Y-73127500D01*
X235743750Y-35155000D02*
X235743750Y-34505000D01*
X234623750Y-34505000D02*
X234623750Y-30265000D01*
X236863750Y-34505000D02*
X234623750Y-34505000D01*
X236863750Y-33905000D02*
X234623750Y-33905000D01*
X236863750Y-33785000D02*
X234623750Y-33785000D01*
X236863750Y-33665000D02*
X234623750Y-33665000D01*
X234623750Y-30265000D02*
X236863750Y-30265000D01*
X236863750Y-30265000D02*
X236863750Y-34505000D01*
X235743750Y-29615000D02*
X235743750Y-30265000D01*
X47625000Y-78017500D02*
X47625000Y-77367500D01*
X46505000Y-77367500D02*
X46505000Y-73127500D01*
X48745000Y-77367500D02*
X46505000Y-77367500D01*
X48745000Y-76767500D02*
X46505000Y-76767500D01*
X48745000Y-76647500D02*
X46505000Y-76647500D01*
X48745000Y-76527500D02*
X46505000Y-76527500D01*
X46505000Y-73127500D02*
X48745000Y-73127500D01*
X48745000Y-73127500D02*
X48745000Y-77367500D01*
X47625000Y-72477500D02*
X47625000Y-73127500D01*
X66675000Y-35155000D02*
X66675000Y-34505000D01*
X65555000Y-34505000D02*
X65555000Y-30265000D01*
X67795000Y-34505000D02*
X65555000Y-34505000D01*
X67795000Y-33905000D02*
X65555000Y-33905000D01*
X67795000Y-33785000D02*
X65555000Y-33785000D01*
X67795000Y-33665000D02*
X65555000Y-33665000D01*
X65555000Y-30265000D02*
X67795000Y-30265000D01*
X67795000Y-30265000D02*
X67795000Y-34505000D01*
X66675000Y-29615000D02*
X66675000Y-30265000D01*
X123825000Y-39917500D02*
X123825000Y-39267500D01*
X122705000Y-39267500D02*
X122705000Y-35027500D01*
X124945000Y-39267500D02*
X122705000Y-39267500D01*
X124945000Y-38667500D02*
X122705000Y-38667500D01*
X124945000Y-38547500D02*
X122705000Y-38547500D01*
X124945000Y-38427500D02*
X122705000Y-38427500D01*
X122705000Y-35027500D02*
X124945000Y-35027500D01*
X124945000Y-35027500D02*
X124945000Y-39267500D01*
X123825000Y-34377500D02*
X123825000Y-35027500D01*
X273843750Y-78017500D02*
X273843750Y-77367500D01*
X272723750Y-77367500D02*
X272723750Y-73127500D01*
X274963750Y-77367500D02*
X272723750Y-77367500D01*
X274963750Y-76767500D02*
X272723750Y-76767500D01*
X274963750Y-76647500D02*
X272723750Y-76647500D01*
X274963750Y-76527500D02*
X272723750Y-76527500D01*
X272723750Y-73127500D02*
X274963750Y-73127500D01*
X274963750Y-73127500D02*
X274963750Y-77367500D01*
X273843750Y-72477500D02*
X273843750Y-73127500D01*
X159543750Y-78017500D02*
X159543750Y-77367500D01*
X158423750Y-77367500D02*
X158423750Y-73127500D01*
X160663750Y-77367500D02*
X158423750Y-77367500D01*
X160663750Y-76767500D02*
X158423750Y-76767500D01*
X160663750Y-76647500D02*
X158423750Y-76647500D01*
X160663750Y-76527500D02*
X158423750Y-76527500D01*
X158423750Y-73127500D02*
X160663750Y-73127500D01*
X160663750Y-73127500D02*
X160663750Y-77367500D01*
X159543750Y-72477500D02*
X159543750Y-73127500D01*
X47625000Y-58967500D02*
X47625000Y-58317500D01*
X46505000Y-58317500D02*
X46505000Y-54077500D01*
X48745000Y-58317500D02*
X46505000Y-58317500D01*
X48745000Y-57717500D02*
X46505000Y-57717500D01*
X48745000Y-57597500D02*
X46505000Y-57597500D01*
X48745000Y-57477500D02*
X46505000Y-57477500D01*
X46505000Y-54077500D02*
X48745000Y-54077500D01*
X48745000Y-54077500D02*
X48745000Y-58317500D01*
X47625000Y-53427500D02*
X47625000Y-54077500D01*
X197643750Y-92305000D02*
X197643750Y-91655000D01*
X196523750Y-91655000D02*
X196523750Y-87415000D01*
X198763750Y-91655000D02*
X196523750Y-91655000D01*
X198763750Y-91055000D02*
X196523750Y-91055000D01*
X198763750Y-90935000D02*
X196523750Y-90935000D01*
X198763750Y-90815000D02*
X196523750Y-90815000D01*
X196523750Y-87415000D02*
X198763750Y-87415000D01*
X198763750Y-87415000D02*
X198763750Y-91655000D01*
X197643750Y-86765000D02*
X197643750Y-87415000D01*
X47625000Y-39917500D02*
X47625000Y-39267500D01*
X46505000Y-39267500D02*
X46505000Y-35027500D01*
X48745000Y-39267500D02*
X46505000Y-39267500D01*
X48745000Y-38667500D02*
X46505000Y-38667500D01*
X48745000Y-38547500D02*
X46505000Y-38547500D01*
X48745000Y-38427500D02*
X46505000Y-38427500D01*
X46505000Y-35027500D02*
X48745000Y-35027500D01*
X48745000Y-35027500D02*
X48745000Y-39267500D01*
X47625000Y-34377500D02*
X47625000Y-35027500D01*
X104775000Y-35155000D02*
X104775000Y-34505000D01*
X103655000Y-34505000D02*
X103655000Y-30265000D01*
X105895000Y-34505000D02*
X103655000Y-34505000D01*
X105895000Y-33905000D02*
X103655000Y-33905000D01*
X105895000Y-33785000D02*
X103655000Y-33785000D01*
X105895000Y-33665000D02*
X103655000Y-33665000D01*
X103655000Y-30265000D02*
X105895000Y-30265000D01*
X105895000Y-30265000D02*
X105895000Y-34505000D01*
X104775000Y-29615000D02*
X104775000Y-30265000D01*
X216693750Y-30392500D02*
X216693750Y-29742500D01*
X215573750Y-29742500D02*
X215573750Y-25502500D01*
X217813750Y-29742500D02*
X215573750Y-29742500D01*
X217813750Y-29142500D02*
X215573750Y-29142500D01*
X217813750Y-29022500D02*
X215573750Y-29022500D01*
X217813750Y-28902500D02*
X215573750Y-28902500D01*
X215573750Y-25502500D02*
X217813750Y-25502500D01*
X217813750Y-25502500D02*
X217813750Y-29742500D01*
X216693750Y-24852500D02*
X216693750Y-25502500D01*
X254793750Y-39917500D02*
X254793750Y-39267500D01*
X253673750Y-39267500D02*
X253673750Y-35027500D01*
X255913750Y-39267500D02*
X253673750Y-39267500D01*
X255913750Y-38667500D02*
X253673750Y-38667500D01*
X255913750Y-38547500D02*
X253673750Y-38547500D01*
X255913750Y-38427500D02*
X253673750Y-38427500D01*
X253673750Y-35027500D02*
X255913750Y-35027500D01*
X255913750Y-35027500D02*
X255913750Y-39267500D01*
X254793750Y-34377500D02*
X254793750Y-35027500D01*
X28575000Y-58967500D02*
X28575000Y-58317500D01*
X27455000Y-58317500D02*
X27455000Y-54077500D01*
X29695000Y-58317500D02*
X27455000Y-58317500D01*
X29695000Y-57717500D02*
X27455000Y-57717500D01*
X29695000Y-57597500D02*
X27455000Y-57597500D01*
X29695000Y-57477500D02*
X27455000Y-57477500D01*
X27455000Y-54077500D02*
X29695000Y-54077500D01*
X29695000Y-54077500D02*
X29695000Y-58317500D01*
X28575000Y-53427500D02*
X28575000Y-54077500D01*
X104775000Y-54205000D02*
X104775000Y-53555000D01*
X103655000Y-53555000D02*
X103655000Y-49315000D01*
X105895000Y-53555000D02*
X103655000Y-53555000D01*
X105895000Y-52955000D02*
X103655000Y-52955000D01*
X105895000Y-52835000D02*
X103655000Y-52835000D01*
X105895000Y-52715000D02*
X103655000Y-52715000D01*
X103655000Y-49315000D02*
X105895000Y-49315000D01*
X105895000Y-49315000D02*
X105895000Y-53555000D01*
X104775000Y-48665000D02*
X104775000Y-49315000D01*
X123825000Y-58967500D02*
X123825000Y-58317500D01*
X122705000Y-58317500D02*
X122705000Y-54077500D01*
X124945000Y-58317500D02*
X122705000Y-58317500D01*
X124945000Y-57717500D02*
X122705000Y-57717500D01*
X124945000Y-57597500D02*
X122705000Y-57597500D01*
X124945000Y-57477500D02*
X122705000Y-57477500D01*
X122705000Y-54077500D02*
X124945000Y-54077500D01*
X124945000Y-54077500D02*
X124945000Y-58317500D01*
X123825000Y-53427500D02*
X123825000Y-54077500D01*
X104775000Y-97067500D02*
X104775000Y-96417500D01*
X103655000Y-96417500D02*
X103655000Y-92177500D01*
X105895000Y-96417500D02*
X103655000Y-96417500D01*
X105895000Y-95817500D02*
X103655000Y-95817500D01*
X105895000Y-95697500D02*
X103655000Y-95697500D01*
X105895000Y-95577500D02*
X103655000Y-95577500D01*
X103655000Y-92177500D02*
X105895000Y-92177500D01*
X105895000Y-92177500D02*
X105895000Y-96417500D01*
X104775000Y-91527500D02*
X104775000Y-92177500D01*
X216693750Y-87542500D02*
X216693750Y-86892500D01*
X215573750Y-86892500D02*
X215573750Y-82652500D01*
X217813750Y-86892500D02*
X215573750Y-86892500D01*
X217813750Y-86292500D02*
X215573750Y-86292500D01*
X217813750Y-86172500D02*
X215573750Y-86172500D01*
X217813750Y-86052500D02*
X215573750Y-86052500D01*
X215573750Y-82652500D02*
X217813750Y-82652500D01*
X217813750Y-82652500D02*
X217813750Y-86892500D01*
X216693750Y-82002500D02*
X216693750Y-82652500D01*
X85725000Y-49442500D02*
X85725000Y-48792500D01*
X84605000Y-48792500D02*
X84605000Y-44552500D01*
X86845000Y-48792500D02*
X84605000Y-48792500D01*
X86845000Y-48192500D02*
X84605000Y-48192500D01*
X86845000Y-48072500D02*
X84605000Y-48072500D01*
X86845000Y-47952500D02*
X84605000Y-47952500D01*
X84605000Y-44552500D02*
X86845000Y-44552500D01*
X86845000Y-44552500D02*
X86845000Y-48792500D01*
X85725000Y-43902500D02*
X85725000Y-44552500D01*
X123825000Y-78017500D02*
X123825000Y-77367500D01*
X122705000Y-77367500D02*
X122705000Y-73127500D01*
X124945000Y-77367500D02*
X122705000Y-77367500D01*
X124945000Y-76767500D02*
X122705000Y-76767500D01*
X124945000Y-76647500D02*
X122705000Y-76647500D01*
X124945000Y-76527500D02*
X122705000Y-76527500D01*
X122705000Y-73127500D02*
X124945000Y-73127500D01*
X124945000Y-73127500D02*
X124945000Y-77367500D01*
X123825000Y-72477500D02*
X123825000Y-73127500D01*
X178593750Y-39917500D02*
X178593750Y-39267500D01*
X177473750Y-39267500D02*
X177473750Y-35027500D01*
X179713750Y-39267500D02*
X177473750Y-39267500D01*
X179713750Y-38667500D02*
X177473750Y-38667500D01*
X179713750Y-38547500D02*
X177473750Y-38547500D01*
X179713750Y-38427500D02*
X177473750Y-38427500D01*
X177473750Y-35027500D02*
X179713750Y-35027500D01*
X179713750Y-35027500D02*
X179713750Y-39267500D01*
X178593750Y-34377500D02*
X178593750Y-35027500D01*
X104775000Y-73255000D02*
X104775000Y-72605000D01*
X103655000Y-72605000D02*
X103655000Y-68365000D01*
X105895000Y-72605000D02*
X103655000Y-72605000D01*
X105895000Y-72005000D02*
X103655000Y-72005000D01*
X105895000Y-71885000D02*
X103655000Y-71885000D01*
X105895000Y-71765000D02*
X103655000Y-71765000D01*
X103655000Y-68365000D02*
X105895000Y-68365000D01*
X105895000Y-68365000D02*
X105895000Y-72605000D01*
X104775000Y-67715000D02*
X104775000Y-68365000D01*
X197643750Y-73255000D02*
X197643750Y-72605000D01*
X196523750Y-72605000D02*
X196523750Y-68365000D01*
X198763750Y-72605000D02*
X196523750Y-72605000D01*
X198763750Y-72005000D02*
X196523750Y-72005000D01*
X198763750Y-71885000D02*
X196523750Y-71885000D01*
X198763750Y-71765000D02*
X196523750Y-71765000D01*
X196523750Y-68365000D02*
X198763750Y-68365000D01*
X198763750Y-68365000D02*
X198763750Y-72605000D01*
X197643750Y-67715000D02*
X197643750Y-68365000D01*
%LPC*%
D12*
X33020000Y-76200000D03*
D13*
X38100000Y-76200000D03*
D12*
X43180000Y-76200000D03*
D14*
X34290000Y-73660000D03*
X40640000Y-71120000D03*
D15*
X292893750Y-28575000D03*
X292893750Y-85725000D03*
D12*
X221138750Y-47625000D03*
D13*
X226218750Y-47625000D03*
D12*
X231298750Y-47625000D03*
D14*
X222408750Y-45085000D03*
X228758750Y-42545000D03*
D15*
X9525000Y-28575000D03*
D12*
X183038750Y-76200000D03*
D13*
X188118750Y-76200000D03*
D12*
X193198750Y-76200000D03*
D14*
X184308750Y-73660000D03*
X190658750Y-71120000D03*
D12*
X33020000Y-38100000D03*
D13*
X38100000Y-38100000D03*
D12*
X43180000Y-38100000D03*
D14*
X34290000Y-35560000D03*
X40640000Y-33020000D03*
D12*
X259238750Y-76200000D03*
D13*
X264318750Y-76200000D03*
D12*
X269398750Y-76200000D03*
D14*
X260508750Y-73660000D03*
X266858750Y-71120000D03*
D12*
X221138750Y-28575000D03*
D13*
X226218750Y-28575000D03*
D12*
X231298750Y-28575000D03*
D14*
X222408750Y-26035000D03*
X228758750Y-23495000D03*
D12*
X202088750Y-52387500D03*
D13*
X207168750Y-52387500D03*
D12*
X212248750Y-52387500D03*
D14*
X203358750Y-49847500D03*
X209708750Y-47307500D03*
D12*
X109220000Y-38100000D03*
D13*
X114300000Y-38100000D03*
D12*
X119380000Y-38100000D03*
D14*
X110490000Y-35560000D03*
X116840000Y-33020000D03*
D12*
X71120000Y-47625000D03*
D13*
X76200000Y-47625000D03*
D12*
X81280000Y-47625000D03*
D14*
X72390000Y-45085000D03*
X78740000Y-42545000D03*
D12*
X52070000Y-71437500D03*
D13*
X57150000Y-71437500D03*
D12*
X62230000Y-71437500D03*
D14*
X53340000Y-68897500D03*
X59690000Y-66357500D03*
D15*
X178593750Y-26193750D03*
D12*
X183038750Y-57150000D03*
D13*
X188118750Y-57150000D03*
D12*
X193198750Y-57150000D03*
D14*
X184308750Y-54610000D03*
X190658750Y-52070000D03*
D12*
X13970000Y-38100000D03*
D13*
X19050000Y-38100000D03*
D12*
X24130000Y-38100000D03*
D14*
X15240000Y-35560000D03*
X21590000Y-33020000D03*
D12*
X278288750Y-57150000D03*
D13*
X283368750Y-57150000D03*
D12*
X288448750Y-57150000D03*
D14*
X279558750Y-54610000D03*
X285908750Y-52070000D03*
D12*
X202088750Y-90487500D03*
D13*
X207168750Y-90487500D03*
D12*
X212248750Y-90487500D03*
D14*
X203358750Y-87947500D03*
X209708750Y-85407500D03*
D15*
X28575000Y-47625000D03*
D16*
X144037500Y-61912500D03*
X137037500Y-61912500D03*
D17*
X134337500Y-59612500D03*
X135437500Y-64212500D03*
X139437500Y-64212500D03*
X142437500Y-64212500D03*
D12*
X221138750Y-85725000D03*
D13*
X226218750Y-85725000D03*
D12*
X231298750Y-85725000D03*
D14*
X222408750Y-83185000D03*
X228758750Y-80645000D03*
D15*
X9525000Y-85725000D03*
D16*
X158381250Y-61912500D03*
X165381250Y-61912500D03*
D17*
X168081250Y-64212500D03*
X166981250Y-59612500D03*
X162981250Y-59612500D03*
X159981250Y-59612500D03*
D12*
X71120000Y-85725000D03*
D13*
X76200000Y-85725000D03*
D12*
X81280000Y-85725000D03*
D14*
X72390000Y-83185000D03*
X78740000Y-80645000D03*
D12*
X202088750Y-33337500D03*
D13*
X207168750Y-33337500D03*
D12*
X212248750Y-33337500D03*
D14*
X203358750Y-30797500D03*
X209708750Y-28257500D03*
D12*
X259238750Y-57150000D03*
D13*
X264318750Y-57150000D03*
D12*
X269398750Y-57150000D03*
D14*
X260508750Y-54610000D03*
X266858750Y-52070000D03*
D12*
X221138750Y-66675000D03*
D13*
X226218750Y-66675000D03*
D12*
X231298750Y-66675000D03*
D14*
X222408750Y-64135000D03*
X228758750Y-61595000D03*
D15*
X178593750Y-85725000D03*
X273843750Y-47625000D03*
D12*
X109220000Y-95250000D03*
D13*
X114300000Y-95250000D03*
D12*
X119380000Y-95250000D03*
D14*
X110490000Y-92710000D03*
X116840000Y-90170000D03*
D12*
X163988750Y-76200000D03*
D13*
X169068750Y-76200000D03*
D12*
X174148750Y-76200000D03*
D14*
X165258750Y-73660000D03*
X171608750Y-71120000D03*
D15*
X123825000Y-85725000D03*
D12*
X183038750Y-95250000D03*
D13*
X188118750Y-95250000D03*
D12*
X193198750Y-95250000D03*
D14*
X184308750Y-92710000D03*
X190658750Y-90170000D03*
D15*
X66675000Y-19050000D03*
D12*
X109220000Y-76200000D03*
D13*
X114300000Y-76200000D03*
D12*
X119380000Y-76200000D03*
D14*
X110490000Y-73660000D03*
X116840000Y-71120000D03*
D12*
X278288750Y-38100000D03*
D13*
X283368750Y-38100000D03*
D12*
X288448750Y-38100000D03*
D14*
X279558750Y-35560000D03*
X285908750Y-33020000D03*
D15*
X142875000Y-104775000D03*
X235743750Y-95250000D03*
D12*
X240188750Y-71437500D03*
D13*
X245268750Y-71437500D03*
D12*
X250348750Y-71437500D03*
D14*
X241458750Y-68897500D03*
X247808750Y-66357500D03*
D12*
X183038750Y-38100000D03*
D13*
X188118750Y-38100000D03*
D12*
X193198750Y-38100000D03*
D14*
X184308750Y-35560000D03*
X190658750Y-33020000D03*
D12*
X240188750Y-52387500D03*
D13*
X245268750Y-52387500D03*
D12*
X250348750Y-52387500D03*
D14*
X241458750Y-49847500D03*
X247808750Y-47307500D03*
D15*
X235743750Y-19050000D03*
D18*
X145707500Y-35240000D03*
X145707500Y-37780000D03*
X145707500Y-40320000D03*
X145707500Y-42860000D03*
X145707500Y-45400000D03*
X145707500Y-47940000D03*
X145707500Y-50480000D03*
X145707500Y-53020000D03*
X145707500Y-55560000D03*
D19*
X142667500Y-56060000D03*
X140127500Y-56060000D03*
X137587500Y-56060000D03*
X135047500Y-56060000D03*
X132507500Y-56060000D03*
D18*
X129467500Y-55560000D03*
X129467500Y-53020000D03*
X129467500Y-50480000D03*
X129467500Y-47940000D03*
X129467500Y-45400000D03*
X129467500Y-42860000D03*
X129467500Y-40320000D03*
X129467500Y-37780000D03*
X129467500Y-35240000D03*
D15*
X66675000Y-95250000D03*
X123825000Y-26193750D03*
D12*
X259238750Y-38100000D03*
D13*
X264318750Y-38100000D03*
D12*
X269398750Y-38100000D03*
D14*
X260508750Y-35560000D03*
X266858750Y-33020000D03*
D12*
X13970000Y-57150000D03*
D13*
X19050000Y-57150000D03*
D12*
X24130000Y-57150000D03*
D14*
X15240000Y-54610000D03*
X21590000Y-52070000D03*
D12*
X90170000Y-71437500D03*
D13*
X95250000Y-71437500D03*
D12*
X100330000Y-71437500D03*
D14*
X91440000Y-68897500D03*
X97790000Y-66357500D03*
D12*
X202088750Y-71437500D03*
D13*
X207168750Y-71437500D03*
D12*
X212248750Y-71437500D03*
D14*
X203358750Y-68897500D03*
X209708750Y-66357500D03*
D12*
X52070000Y-52387500D03*
D13*
X57150000Y-52387500D03*
D12*
X62230000Y-52387500D03*
D14*
X53340000Y-49847500D03*
X59690000Y-47307500D03*
D12*
X278288750Y-76200000D03*
D13*
X283368750Y-76200000D03*
D12*
X288448750Y-76200000D03*
D14*
X279558750Y-73660000D03*
X285908750Y-71120000D03*
D12*
X52070000Y-33337500D03*
D13*
X57150000Y-33337500D03*
D12*
X62230000Y-33337500D03*
D14*
X53340000Y-30797500D03*
X59690000Y-28257500D03*
D12*
X33020000Y-57150000D03*
D13*
X38100000Y-57150000D03*
D12*
X43180000Y-57150000D03*
D14*
X34290000Y-54610000D03*
X40640000Y-52070000D03*
D12*
X71120000Y-66675000D03*
D13*
X76200000Y-66675000D03*
D12*
X81280000Y-66675000D03*
D14*
X72390000Y-64135000D03*
X78740000Y-61595000D03*
D15*
X159543750Y-104775000D03*
D12*
X71120000Y-28575000D03*
D13*
X76200000Y-28575000D03*
D12*
X81280000Y-28575000D03*
D14*
X72390000Y-26035000D03*
X78740000Y-23495000D03*
D18*
X172951250Y-35240000D03*
X172951250Y-37780000D03*
X172951250Y-40320000D03*
X172951250Y-42860000D03*
X172951250Y-45400000D03*
X172951250Y-47940000D03*
X172951250Y-50480000D03*
X172951250Y-53020000D03*
X172951250Y-55560000D03*
D19*
X169911250Y-56060000D03*
X167371250Y-56060000D03*
X164831250Y-56060000D03*
X162291250Y-56060000D03*
X159751250Y-56060000D03*
D18*
X156711250Y-55560000D03*
X156711250Y-53020000D03*
X156711250Y-50480000D03*
X156711250Y-47940000D03*
X156711250Y-45400000D03*
X156711250Y-42860000D03*
X156711250Y-40320000D03*
X156711250Y-37780000D03*
X156711250Y-35240000D03*
D12*
X109220000Y-57150000D03*
D13*
X114300000Y-57150000D03*
D12*
X119380000Y-57150000D03*
D14*
X110490000Y-54610000D03*
X116840000Y-52070000D03*
D12*
X163988750Y-95250000D03*
D13*
X169068750Y-95250000D03*
D12*
X174148750Y-95250000D03*
D14*
X165258750Y-92710000D03*
X171608750Y-90170000D03*
D12*
X90170000Y-52387500D03*
D13*
X95250000Y-52387500D03*
D12*
X100330000Y-52387500D03*
D14*
X91440000Y-49847500D03*
X97790000Y-47307500D03*
D12*
X90170000Y-90487500D03*
D13*
X95250000Y-90487500D03*
D12*
X100330000Y-90487500D03*
D14*
X91440000Y-87947500D03*
X97790000Y-85407500D03*
D12*
X90170000Y-33337500D03*
D13*
X95250000Y-33337500D03*
D12*
X100330000Y-33337500D03*
D14*
X91440000Y-30797500D03*
X97790000Y-28257500D03*
D12*
X240188750Y-33337500D03*
D13*
X245268750Y-33337500D03*
D12*
X250348750Y-33337500D03*
D14*
X241458750Y-30797500D03*
X247808750Y-28257500D03*
D12*
X13970000Y-76200000D03*
D13*
X19050000Y-76200000D03*
D12*
X24130000Y-76200000D03*
D14*
X15240000Y-73660000D03*
X21590000Y-71120000D03*
D12*
X128270000Y-95250000D03*
D13*
X133350000Y-95250000D03*
D12*
X138430000Y-95250000D03*
D14*
X129540000Y-92710000D03*
X135890000Y-90170000D03*
D12*
X128270000Y-76200000D03*
D13*
X133350000Y-76200000D03*
D12*
X138430000Y-76200000D03*
D14*
X129540000Y-73660000D03*
X135890000Y-71120000D03*
D20*
X178593750Y-98107500D03*
D21*
X178593750Y-90487500D03*
D20*
X142875000Y-98107500D03*
D21*
X142875000Y-90487500D03*
D20*
X273843750Y-40957500D03*
D21*
X273843750Y-33337500D03*
D20*
X159543750Y-98107500D03*
D21*
X159543750Y-90487500D03*
D20*
X178593750Y-79057500D03*
D21*
X178593750Y-71437500D03*
D20*
X85725000Y-69532500D03*
D21*
X85725000Y-61912500D03*
D20*
X235743750Y-74295000D03*
D21*
X235743750Y-66675000D03*
D20*
X85725000Y-31432500D03*
D21*
X85725000Y-23812500D03*
D20*
X216693750Y-50482500D03*
D21*
X216693750Y-42862500D03*
D20*
X273843750Y-60007500D03*
D21*
X273843750Y-52387500D03*
D20*
X28575000Y-79057500D03*
D21*
X28575000Y-71437500D03*
D20*
X197643750Y-36195000D03*
D21*
X197643750Y-28575000D03*
D20*
X254793750Y-79057500D03*
D21*
X254793750Y-71437500D03*
D20*
X123825000Y-98107500D03*
D21*
X123825000Y-90487500D03*
D20*
X216693750Y-69532500D03*
D21*
X216693750Y-61912500D03*
D20*
X235743750Y-55245000D03*
D21*
X235743750Y-47625000D03*
D20*
X28575000Y-40957500D03*
D21*
X28575000Y-33337500D03*
D20*
X85725000Y-88582500D03*
D21*
X85725000Y-80962500D03*
D20*
X254793750Y-60007500D03*
D21*
X254793750Y-52387500D03*
D20*
X197643750Y-55245000D03*
D21*
X197643750Y-47625000D03*
D20*
X66675000Y-55245000D03*
D21*
X66675000Y-47625000D03*
D20*
X178593750Y-60007500D03*
D21*
X178593750Y-52387500D03*
D20*
X66675000Y-74295000D03*
D21*
X66675000Y-66675000D03*
D20*
X142875000Y-79057500D03*
D21*
X142875000Y-71437500D03*
D20*
X235743750Y-36195000D03*
D21*
X235743750Y-28575000D03*
D20*
X47625000Y-79057500D03*
D21*
X47625000Y-71437500D03*
D20*
X66675000Y-36195000D03*
D21*
X66675000Y-28575000D03*
D20*
X123825000Y-40957500D03*
D21*
X123825000Y-33337500D03*
D20*
X273843750Y-79057500D03*
D21*
X273843750Y-71437500D03*
D20*
X159543750Y-79057500D03*
D21*
X159543750Y-71437500D03*
D20*
X47625000Y-60007500D03*
D21*
X47625000Y-52387500D03*
D20*
X197643750Y-93345000D03*
D21*
X197643750Y-85725000D03*
D20*
X47625000Y-40957500D03*
D21*
X47625000Y-33337500D03*
D20*
X104775000Y-36195000D03*
D21*
X104775000Y-28575000D03*
D20*
X216693750Y-31432500D03*
D21*
X216693750Y-23812500D03*
D20*
X254793750Y-40957500D03*
D21*
X254793750Y-33337500D03*
D20*
X28575000Y-60007500D03*
D21*
X28575000Y-52387500D03*
D20*
X104775000Y-55245000D03*
D21*
X104775000Y-47625000D03*
D20*
X123825000Y-60007500D03*
D21*
X123825000Y-52387500D03*
D20*
X104775000Y-98107500D03*
D21*
X104775000Y-90487500D03*
D20*
X216693750Y-88582500D03*
D21*
X216693750Y-80962500D03*
D20*
X85725000Y-50482500D03*
D21*
X85725000Y-42862500D03*
D20*
X123825000Y-79057500D03*
D21*
X123825000Y-71437500D03*
D20*
X178593750Y-40957500D03*
D21*
X178593750Y-33337500D03*
D20*
X104775000Y-74295000D03*
D21*
X104775000Y-66675000D03*
D20*
X197643750Y-74295000D03*
D21*
X197643750Y-66675000D03*
%LPD*%
M02*
